0
SECTION
2
HEADER
9
$INSUNITS
70
4
9
$ACADVER
1
AC1014
9
$HANDSEED
5
FFFF
0
ENDSEC
0
SECTION
2
TABLES
0
TABLE
2
VPORT
5
8
100
AcDbSymbolTable
0
ENDTAB
0
TABLE
2
LTYPE
5
5
100
AcDbSymbolTable
0
LTYPE
5
14
100
AcDbSymbolTableRecord
100
AcDbLinetypeTableRecord
2
BYBLOCK
70
0
0
LTYPE
5
15
100
AcDbSymbolTableRecord
100
AcDbLinetypeTableRecord
2
BYLAYER
70
0
0
LTYPE
5
16
100
AcDbSymbolTableRecord
100
AcDbLinetypeTableRecord
2
DASHED
70
0
3
Dashed __ __ __ __ __ __ __ __ __ __ __ __ __ _
72
65
73
2
40
0.75
49
0.5
74
0
49
-0.25
74
0
0
ENDTAB
0
TABLE
2
LAYER
5
2
100
AcDbSymbolTable
70
2
0
LAYER
5
50
100
AcDbSymbolTableRecord
100
AcDbLayerTableRecord
2
0
70
0
62
7
6
CONTINUOUS
0
ENDTAB
0
TABLE
2
STYLE
5
3
100
AcDbSymbolTable
70
1
0
STYLE
5
11
100
AcDbSymbolTableRecord
100
AcDbTextStyleTableRecord
2
STANDARD
70
0
0
ENDTAB
0
TABLE
2
VIEW
5
6
100
AcDbSymbolTable
70
0
0
ENDTAB
0
TABLE
2
UCS
5
7
100
AcDbSymbolTable
70
0
0
ENDTAB
0
TABLE
2
APPID
5
9
100
AcDbSymbolTable
70
2
0
APPID
5
12
100
AcDbSymbolTableRecord
100
AcDbRegAppTableRecord
2
ACAD
70
0
0
ENDTAB
0
TABLE
2
DIMSTYLE
5
A
100
AcDbSymbolTable
70
1
0
ENDTAB
0
TABLE
2
BLOCK_RECORD
5
1
100
AcDbSymbolTable
70
1
0
BLOCK_RECORD
5
1F
100
AcDbSymbolTableRecord
100
AcDbBlockTableRecord
2
*MODEL_SPACE
0
BLOCK_RECORD
5
1B
100
AcDbSymbolTableRecord
100
AcDbBlockTableRecord
2
*PAPER_SPACE
0
ENDTAB
0
ENDSEC
0
SECTION
2
BLOCKS
0
BLOCK
5
20
100
AcDbEntity
100
AcDbBlockBegin
2
*MODEL_SPACE
0
ENDBLK
5
21
100
AcDbEntity
100
AcDbBlockEnd
0
BLOCK
5
1C
100
AcDbEntity
100
AcDbBlockBegin
2
*PAPER_SPACE
0
ENDBLK
5
1D
100
AcDbEntity
100
AcDbBlockEnd
0
ENDSEC
0
SECTION
2
ENTITIES
0
CIRCLE
5
100
100
AcDbEntity
8
0
100
AcDbCircle
10
-5
20
-8.8499999999999943
30
0
40
0.99999999999999978
210
0
220
-0
230
1
0
CIRCLE
5
101
100
AcDbEntity
8
0
100
AcDbCircle
10
5
20
-8.8499999999999943
30
0
40
0.99999999999999978
210
0
220
-0
230
1
0
CIRCLE
5
102
100
AcDbEntity
8
0
100
AcDbCircle
10
5
20
8.8499999999999943
30
0
40
0.99999999999999978
210
0
220
-0
230
1
0
LWPOLYLINE
5
103
100
AcDbEntity
8
0
100
AcDbPolyline
90
16
70
1
43
0.0
10
-2.9999999999999916
20
6.3499999999999996
42
0.41421356237309309
10
-2.499999999999992
20
6.8500000000000005
42
-0.41421356237309748
10
-1.999999999999992
20
7.350000000000005
10
2.0000000000000075
20
7.3500000000000076
42
-0.41421356237309503
10
2.500000000000008
20
6.8500000000000068
42
0.41421356237309764
10
3.0000000000000075
20
6.3499999999999996
10
6.2572905864616493
20
6.3500000000000014
42
0.31041405323097965
10
6.2572905864616484
20
-6.3499999999999988
10
3.2500000000000009
20
-6.3499999999999979
42
0.41421356237309437
10
2.7500000000000013
20
-6.8499999999999979
42
-0.41421356237309503
10
2.2500000000000009
20
-7.3499999999999988
10
-2.2499999999999969
20
-7.3499999999999988
42
-0.41421356237309503
10
-2.7499999999999969
20
-6.8499999999999979
42
0.41421356237309631
10
-3.2499999999999973
20
-6.3499999999999961
10
-6.257290586461659
20
-6.3499999999999934
42
0.31041405323097948
10
-6.2572905864616626
20
6.3499999999999988
0
CIRCLE
5
104
100
AcDbEntity
8
0
100
AcDbCircle
10
-5
20
8.8499999999999943
30
0
40
0.99999999999999978
210
0
220
-0
230
1
0
LWPOLYLINE
5
105
100
AcDbEntity
8
0
100
AcDbPolyline
90
8
70
1
43
0.0
10
-7.5000000000000044
20
-11.350000000000005
10
7.4999999999999956
20
-11.35
10
7.4999999999999929
20
-6.3500000000000068
42
-0.34863600811890638
10
7.4999999999999858
20
6.3499999999999979
10
7.4999999999999902
20
11.35
10
-7.5000000000000009
20
11.349999999999994
10
-7.5000000000000071
20
6.3500000000000032
42
-0.34863600811890638
10
-7.5000000000000044
20
-6.3499999999999988
0
CIRCLE
5
106
100
AcDbEntity
8
0
100
AcDbCircle
10
5
20
8.8499999999999943
30
0
40
0.99999999999999978
210
0
220
0
230
1
0
ENDSEC
0
SECTION
2
OBJECTS
0
DICTIONARY
5
C
100
AcDbDictionary
3
ACAD_GROUP
350
D
3
ACAD_MLINESTYLE
350
17
0
DICTIONARY
5
D
100
AcDbDictionary
0
DICTIONARY
5
1A
330
C
100
AcDbDictionary
0
DICTIONARY
5
17
100
AcDbDictionary
0
ENDSEC
0
EOF
