%TF.GenerationSoftware,KiCad,Pcbnew,10.0.0*%
%TF.CreationDate,2026-08-18T16:37:23-04:00*%
%TF.ProjectId,nano_core_v4,6e616e6f-5f63-46f7-9265-5f76342e6b69,rev?*%
%TF.SameCoordinates,Original*%
%TF.FileFunction,Copper,L2,Bot*%
%TF.FilePolarity,Positive*%
%FSLAX46Y46*%
G04 Gerber Fmt 4.6, Leading zero omitted, Abs format (unit mm)*
G04 Created by KiCad (PCBNEW 10.0.0) date 2026-08-18 16:37:23*
%MOMM*%
%LPD*%
G01*
G04 APERTURE LIST*
%TA.AperFunction,ComponentPad*%
%ADD10R,0.850000X0.850000*%
%TD*%
%TA.AperFunction,ComponentPad*%
%ADD11C,0.850000*%
%TD*%
%TA.AperFunction,ComponentPad*%
%ADD12C,1.400000*%
%TD*%
%TA.AperFunction,ComponentPad*%
%ADD13R,1.700000X1.700000*%
%TD*%
%TA.AperFunction,ComponentPad*%
%ADD14C,1.700000*%
%TD*%
%TA.AperFunction,ComponentPad*%
%ADD15O,3.016000X1.508000*%
%TD*%
%TA.AperFunction,ComponentPad*%
%ADD16R,1.408000X1.408000*%
%TD*%
%TA.AperFunction,ComponentPad*%
%ADD17C,1.408000*%
%TD*%
%TA.AperFunction,ComponentPad*%
%ADD18C,3.516000*%
%TD*%
%TA.AperFunction,ComponentPad*%
%ADD19O,3.600000X1.400000*%
%TD*%
%TA.AperFunction,ComponentPad*%
%ADD20O,1.400000X3.600000*%
%TD*%
%TA.AperFunction,Conductor*%
%ADD21C,0.200000*%
%TD*%
G04 APERTURE END LIST*
D10*
%TO.P,J10,1,Pin_1_1*%
%TO.N,/Y_CS*%
X145250000Y-118775000D03*
D11*
%TO.P,J10,2,Pin_2_2*%
%TO.N,/Y_CLK*%
X146250000Y-118775000D03*
%TO.P,J10,3,Pin_3_3*%
%TO.N,/Y_DO*%
X147250000Y-118775000D03*
%TD*%
D12*
%TO.P,C9,1*%
%TO.N,GND*%
X137740000Y-78975000D03*
%TO.P,C9,2*%
X132660000Y-78975000D03*
%TD*%
%TO.P,R10,1*%
%TO.N,Net-(C8-Pad1)*%
X133987500Y-99960000D03*
%TO.P,R10,2*%
%TO.N,/Y_36V*%
X133987500Y-105040000D03*
%TD*%
%TO.P,R7,1*%
%TO.N,GND*%
X138975000Y-110000000D03*
%TO.P,R7,2*%
%TO.N,Net-(C5-Pad1)*%
X138975000Y-115080000D03*
%TD*%
D13*
%TO.P,J4,1,Pin_1_1*%
%TO.N,GND*%
X182365000Y-118775000D03*
D14*
%TO.P,J4,2,Pin_2_2*%
%TO.N,+3.3V*%
X179825000Y-118775000D03*
%TO.P,J4,3,Pin_3_3*%
%TO.N,/X_NI*%
X177285000Y-118775000D03*
%TO.P,J4,4,Pin_4_4*%
%TO.N,/X_I*%
X174745000Y-118775000D03*
%TO.P,J4,5,Pin_5_5*%
%TO.N,/X_NB*%
X172205000Y-118775000D03*
%TO.P,J4,6,Pin_6_6*%
%TO.N,/X_B*%
X169665000Y-118775000D03*
%TO.P,J4,7,Pin_7_7*%
%TO.N,/X_NA*%
X167125000Y-118775000D03*
%TO.P,J4,8,Pin_8_8*%
%TO.N,/X_A*%
X164585000Y-118775000D03*
%TD*%
D12*
%TO.P,R9,1*%
%TO.N,Net-(U3-INVERTING)*%
X138975000Y-99960000D03*
%TO.P,R9,2*%
%TO.N,/Y_36V*%
X138975000Y-105040000D03*
%TD*%
D13*
%TO.P,J1,1,Pin_1_1*%
%TO.N,+36V*%
X188425000Y-73125000D03*
D14*
%TO.P,J1,2,Pin_2_2*%
%TO.N,GND*%
X188425000Y-70585000D03*
%TD*%
D15*
%TO.P,U2,1,NONINVERTING_1*%
%TO.N,/X_SIG*%
X186500000Y-84800000D03*
%TO.P,U2,2,INVERTING_2*%
%TO.N,Net-(U2-INVERTING)*%
X190500000Y-86500000D03*
%TO.P,U2,3,GND_3*%
%TO.N,GND*%
X186500000Y-88200000D03*
%TO.P,U2,4,OUTPUT_4*%
%TO.N,/X_36V*%
X190500000Y-89900000D03*
%TO.P,U2,5,SUPPLY_VOLTAGE_5*%
%TO.N,+36V*%
X186500000Y-91600000D03*
%TD*%
D12*
%TO.P,R4,1*%
%TO.N,GND*%
X173500000Y-100000000D03*
%TO.P,R4,2*%
%TO.N,Net-(C4-Pad1)*%
X173500000Y-105080000D03*
%TD*%
%TO.P,C10,1*%
%TO.N,+3.3V*%
X137725000Y-68745000D03*
%TO.P,C10,2*%
%TO.N,GND*%
X137725000Y-73825000D03*
%TD*%
%TO.P,C2,1*%
%TO.N,+36V*%
X179465000Y-94400000D03*
%TO.P,C2,2*%
%TO.N,GND*%
X174385000Y-94400000D03*
%TD*%
D10*
%TO.P,J9,1,Pin_1_1*%
%TO.N,/Y_36V*%
X121775000Y-118775000D03*
%TD*%
D13*
%TO.P,J11,1,Pin_1_1*%
%TO.N,/SCL*%
X197475000Y-116825000D03*
D14*
%TO.P,J11,2,Pin_2_2*%
%TO.N,GND*%
X197475000Y-119365000D03*
%TD*%
D12*
%TO.P,C4,1*%
%TO.N,Net-(C4-Pad1)*%
X178487500Y-105080000D03*
%TO.P,C4,2*%
%TO.N,GND*%
X178487500Y-100000000D03*
%TD*%
D16*
%TO.P,U1,1,D4/PA14_1*%
%TO.N,unconnected-(U1-D4{slash}PA14-Pad1)*%
X147530000Y-108375000D03*
D17*
%TO.P,U1,2,D1/PB16_2*%
%TO.N,unconnected-(U1-D1{slash}PB16-Pad2)*%
X147530000Y-105835000D03*
%TO.P,U1,3,D0/PB17_3*%
%TO.N,unconnected-(U1-D0{slash}PB17-Pad3)*%
X147530000Y-103295000D03*
%TO.P,U1,4,MISO/PB22_4*%
%TO.N,/Y_DO*%
X147530000Y-100755000D03*
%TO.P,U1,5,MOSI/PB23_5*%
%TO.N,/Y_CLK*%
X147530000Y-98215000D03*
%TO.P,U1,6,SCK/PA17_6*%
%TO.N,/Y_CS*%
X147530000Y-95675000D03*
%TO.P,U1,7,A5/PA06_7*%
%TO.N,/Y_A*%
X147530000Y-93135000D03*
%TO.P,U1,8,A4/PA04_8*%
%TO.N,/Y_NA*%
X147530000Y-90595000D03*
%TO.P,U1,9,A3/PB09_9*%
%TO.N,/Y_B*%
X147530000Y-88055000D03*
%TO.P,U1,10,A2/PB08_10*%
%TO.N,/Y_NB*%
X147530000Y-85515000D03*
%TO.P,U1,11,A1/PA05_11*%
%TO.N,/Y_SIG*%
X147530000Y-82975000D03*
%TO.P,U1,12,A0/PA02_12*%
%TO.N,/X_SIG*%
X147530000Y-80435000D03*
%TO.P,U1,13,GND_13*%
%TO.N,GND*%
X147530000Y-77895000D03*
%TO.P,U1,14,AREF_14*%
%TO.N,unconnected-(U1-AREF-Pad14)*%
X147530000Y-75355000D03*
%TO.P,U1,15,3.3V_15*%
%TO.N,+3.3V*%
X147530000Y-72815000D03*
%TO.P,U1,16,RESET_16*%
%TO.N,unconnected-(U1-RESET-Pad16)*%
X147530000Y-70275000D03*
%TO.P,U1,17,VBAT_17*%
%TO.N,unconnected-(U1-VBAT-Pad17)*%
X167850000Y-80435000D03*
%TO.P,U1,18,EN_18*%
%TO.N,unconnected-(U1-EN-Pad18)*%
X167850000Y-82975000D03*
%TO.P,U1,19,VBUS_19*%
%TO.N,unconnected-(U1-VBUS-Pad19)*%
X167850000Y-85515000D03*
%TO.P,U1,20,D13/PA23_20*%
%TO.N,/X_NB*%
X167850000Y-88055000D03*
%TO.P,U1,21,D12/PA22_21*%
%TO.N,/X_B*%
X167850000Y-90595000D03*
%TO.P,U1,22,D11/PA21_22*%
%TO.N,/X_NA*%
X167850000Y-93135000D03*
%TO.P,U1,23,D10/PA20_23*%
%TO.N,/X_A*%
X167850000Y-95675000D03*
%TO.P,U1,24,D9/PA19_24*%
%TO.N,/X_CS*%
X167850000Y-98215000D03*
%TO.P,U1,25,D6/PA18_25*%
%TO.N,/X_CLK*%
X167850000Y-100755000D03*
%TO.P,U1,26,D5/PA16_26*%
%TO.N,/X_DO*%
X167850000Y-103295000D03*
%TO.P,U1,27,SCL/PA13_27*%
%TO.N,/SCL*%
X167850000Y-105835000D03*
%TO.P,U1,28,SDA/PA12_28*%
%TO.N,unconnected-(U1-SDA{slash}PA12-Pad28)*%
X167850000Y-108375000D03*
D18*
%TO.P,U1,P1*%
%TO.N,N/C*%
X148800000Y-66465000D03*
%TO.P,U1,P2*%
X166580000Y-66465000D03*
%TD*%
D12*
%TO.P,R8,1*%
%TO.N,GND*%
X143912500Y-110540000D03*
%TO.P,R8,2*%
%TO.N,Net-(U3-INVERTING)*%
X143912500Y-105460000D03*
%TD*%
D10*
%TO.P,J8,1,Pin_1_1*%
%TO.N,/X_CS*%
X159675000Y-118775000D03*
D11*
%TO.P,J8,2,Pin_2_2*%
%TO.N,/X_CLK*%
X160675000Y-118775000D03*
%TO.P,J8,3,Pin_3_3*%
%TO.N,/X_DO*%
X161675000Y-118775000D03*
%TD*%
D15*
%TO.P,U3,1,NONINVERTING_1*%
%TO.N,/Y_SIG*%
X132450000Y-91600000D03*
%TO.P,U3,2,INVERTING_2*%
%TO.N,Net-(U3-INVERTING)*%
X128450000Y-89900000D03*
%TO.P,U3,3,GND_3*%
%TO.N,GND*%
X132450000Y-88200000D03*
%TO.P,U3,4,OUTPUT_4*%
%TO.N,/Y_36V*%
X128450000Y-86500000D03*
%TO.P,U3,5,SUPPLY_VOLTAGE_5*%
%TO.N,+36V*%
X132450000Y-84800000D03*
%TD*%
D10*
%TO.P,J7,1,Pin_1_1*%
%TO.N,/X_36V*%
X185410000Y-118775000D03*
%TD*%
D12*
%TO.P,C11,1*%
%TO.N,+3.3V*%
X132700000Y-68745000D03*
%TO.P,C11,2*%
%TO.N,GND*%
X132700000Y-73825000D03*
%TD*%
%TO.P,C1,1*%
%TO.N,+36V*%
X179540000Y-83000000D03*
%TO.P,C1,2*%
%TO.N,GND*%
X174460000Y-83000000D03*
%TD*%
%TO.P,C3,1*%
%TO.N,Net-(C3-Pad1)*%
X173487500Y-115080000D03*
%TO.P,C3,2*%
%TO.N,GND*%
X173487500Y-110000000D03*
%TD*%
%TO.P,R5,1*%
%TO.N,Net-(C4-Pad1)*%
X183475000Y-100000000D03*
%TO.P,R5,2*%
%TO.N,/X_SIG*%
X183475000Y-105080000D03*
%TD*%
%TO.P,C5,1*%
%TO.N,Net-(C5-Pad1)*%
X133987500Y-115080000D03*
%TO.P,C5,2*%
%TO.N,GND*%
X133987500Y-110000000D03*
%TD*%
%TO.P,R2,1*%
%TO.N,Net-(C3-Pad1)*%
X178475000Y-115080000D03*
%TO.P,R2,2*%
%TO.N,/X_36V*%
X178475000Y-110000000D03*
%TD*%
%TO.P,R3,1*%
%TO.N,GND*%
X189000000Y-105540000D03*
%TO.P,R3,2*%
%TO.N,Net-(U2-INVERTING)*%
X189000000Y-110620000D03*
%TD*%
D19*
%TO.P,J6,A*%
%TO.N,+36V*%
X176405000Y-73670000D03*
%TO.P,J6,B*%
%TO.N,GND*%
X176405000Y-67420000D03*
D20*
%TO.P,J6,C*%
%TO.N,unconnected-(J6-PadC)*%
X171605000Y-70670000D03*
%TD*%
D12*
%TO.P,C8,1*%
%TO.N,Net-(C8-Pad1)*%
X129000000Y-99960000D03*
%TO.P,C8,2*%
%TO.N,GND*%
X129000000Y-105040000D03*
%TD*%
%TO.P,R6,1*%
%TO.N,Net-(C5-Pad1)*%
X129000000Y-115080000D03*
%TO.P,R6,2*%
%TO.N,/Y_SIG*%
X129000000Y-110000000D03*
%TD*%
D13*
%TO.P,J5,1,Pin_1_1*%
%TO.N,GND*%
X124685000Y-118775000D03*
D14*
%TO.P,J5,2,Pin_2_2*%
%TO.N,+3.3V*%
X127225000Y-118775000D03*
%TO.P,J5,3,Pin_3_3*%
%TO.N,/Y_NI*%
X129765000Y-118775000D03*
%TO.P,J5,4,Pin_4_4*%
%TO.N,/Y_I*%
X132305000Y-118775000D03*
%TO.P,J5,5,Pin_5_5*%
%TO.N,/Y_NB*%
X134845000Y-118775000D03*
%TO.P,J5,6,Pin_6_6*%
%TO.N,/Y_B*%
X137385000Y-118775000D03*
%TO.P,J5,7,Pin_7_7*%
%TO.N,/Y_NA*%
X139925000Y-118775000D03*
%TO.P,J5,8,Pin_8_8*%
%TO.N,/Y_A*%
X142465000Y-118775000D03*
%TD*%
D12*
%TO.P,R1,1*%
%TO.N,Net-(U2-INVERTING)*%
X183462500Y-115080000D03*
%TO.P,R1,2*%
%TO.N,/X_36V*%
X183462500Y-110000000D03*
%TD*%
%TO.N,GND*%
D21*
X129000000Y-105040000D02*
X133960000Y-110000000D01*
X138975000Y-110000000D02*
X143372500Y-110000000D01*
X143372500Y-110000000D02*
X143912500Y-110540000D01*
X182365000Y-118775000D02*
X183090000Y-118050000D01*
X183090000Y-118050000D02*
X196160000Y-118050000D01*
X196160000Y-118050000D02*
X197475000Y-119365000D01*
%TO.N,+3.3V*%
X127225000Y-118775000D02*
X126375000Y-117925000D01*
X129825000Y-121375000D02*
X177225000Y-121375000D01*
X126375000Y-75070000D02*
X132700000Y-68745000D01*
X126375000Y-117925000D02*
X126375000Y-75070000D01*
X127225000Y-118775000D02*
X129825000Y-121375000D01*
X177225000Y-121375000D02*
X179825000Y-118775000D01*
%TO.N,Net-(U3-INVERTING)*%
X138975000Y-93200000D02*
X138975000Y-99960000D01*
X138975000Y-99960000D02*
X143912500Y-104897500D01*
X143912500Y-104897500D02*
X143912500Y-105460000D01*
X135675000Y-89900000D02*
X138975000Y-93200000D01*
X128450000Y-89900000D02*
X135675000Y-89900000D01*
X138510000Y-99960000D02*
X138975000Y-99960000D01*
%TO.N,+36V*%
X176405000Y-73670000D02*
X173716000Y-76359000D01*
X188425000Y-73125000D02*
X176950000Y-73125000D01*
X176950000Y-73125000D02*
X176405000Y-73670000D01*
X142599000Y-76359000D02*
X134158000Y-84800000D01*
X134158000Y-84800000D02*
X132450000Y-84800000D01*
X173716000Y-76359000D02*
X142599000Y-76359000D01*
%TO.N,/X_SIG*%
X186500000Y-84800000D02*
X182000000Y-89300000D01*
X147530000Y-80435000D02*
X148965000Y-79000000D01*
X182000000Y-89300000D02*
X182000000Y-103605000D01*
X186500000Y-83500000D02*
X186500000Y-84800000D01*
X148965000Y-79000000D02*
X182000000Y-79000000D01*
X182000000Y-79000000D02*
X186500000Y-83500000D01*
X182000000Y-103605000D02*
X183475000Y-105080000D01*
%TO.N,/X_36V*%
X187000000Y-94700000D02*
X187000000Y-106462500D01*
X190500000Y-91200000D02*
X187000000Y-94700000D01*
X190500000Y-89900000D02*
X190500000Y-91200000D01*
X187000000Y-106462500D02*
X183462500Y-110000000D01*
%TO.N,/SCL*%
X173635000Y-111620000D02*
X192270000Y-111620000D01*
X167850000Y-105835000D02*
X173635000Y-111620000D01*
X192270000Y-111620000D02*
X197475000Y-116825000D01*
%TO.N,/Y_SIG*%
X126775000Y-107775000D02*
X126775000Y-97275000D01*
X129000000Y-110000000D02*
X126775000Y-107775000D01*
X126775000Y-97275000D02*
X132450000Y-91600000D01*
%TD*%
M02*
