%TF.GenerationSoftware,KiCad,Pcbnew,9.0.6*%
%TF.CreationDate,2025-12-22T18:43:12-05:00*%
%TF.ProjectId,nano_core_v2,6e616e6f-5f63-46f7-9265-5f76322e6b69,rev?*%
%TF.SameCoordinates,Original*%
%TF.FileFunction,Soldermask,Top*%
%TF.FilePolarity,Negative*%
%FSLAX46Y46*%
G04 Gerber Fmt 4.6, Leading zero omitted, Abs format (unit mm)*
G04 Created by KiCad (PCBNEW 9.0.6) date 2025-12-22 18:43:12*
%MOMM*%
%LPD*%
G01*
G04 APERTURE LIST*
G04 Aperture macros list*
%AMRoundRect*
0 Rectangle with rounded corners*
0 $1 Rounding radius*
0 $2 $3 $4 $5 $6 $7 $8 $9 X,Y pos of 4 corners*
0 Add a 4 corners polygon primitive as box body*
4,1,4,$2,$3,$4,$5,$6,$7,$8,$9,$2,$3,0*
0 Add four circle primitives for the rounded corners*
1,1,$1+$1,$2,$3*
1,1,$1+$1,$4,$5*
1,1,$1+$1,$6,$7*
1,1,$1+$1,$8,$9*
0 Add four rect primitives between the rounded corners*
20,1,$1+$1,$2,$3,$4,$5,0*
20,1,$1+$1,$4,$5,$6,$7,0*
20,1,$1+$1,$6,$7,$8,$9,0*
20,1,$1+$1,$8,$9,$2,$3,0*%
G04 Aperture macros list end*
%ADD10C,1.524000*%
%ADD11R,2.000000X1.651000*%
%ADD12O,2.000000X1.651000*%
%ADD13C,2.200000*%
%ADD14RoundRect,0.102000X-0.704000X-0.704000X0.704000X-0.704000X0.704000X0.704000X-0.704000X0.704000X0*%
%ADD15C,1.612000*%
%ADD16C,3.720000*%
%ADD17O,2.704000X5.204000*%
%ADD18O,2.454000X4.704000*%
%ADD19O,4.704000X2.454000*%
%ADD20R,0.990600X0.965200*%
%ADD21RoundRect,0.186560X0.715440X-0.165440X0.715440X0.165440X-0.715440X0.165440X-0.715440X-0.165440X0*%
%ADD22RoundRect,0.186560X-0.165440X-0.715440X0.165440X-0.715440X0.165440X0.715440X-0.165440X0.715440X0*%
%ADD23RoundRect,0.102000X0.500000X-0.200000X0.500000X0.200000X-0.500000X0.200000X-0.500000X-0.200000X0*%
%ADD24RoundRect,0.102000X0.650000X-1.000000X0.650000X1.000000X-0.650000X1.000000X-0.650000X-1.000000X0*%
%ADD25RoundRect,0.210410X-0.191590X0.186590X-0.191590X-0.186590X0.191590X-0.186590X0.191590X0.186590X0*%
G04 APERTURE END LIST*
D10*
%TO.C,U2*%
X104500000Y-101114000D03*
X104500000Y-134500000D03*
X173446000Y-101114000D03*
X173446000Y-134500000D03*
D11*
X106207010Y-106377000D03*
D12*
X106207010Y-108917000D03*
X106207010Y-111457000D03*
X106207010Y-113997000D03*
X106207010Y-116537000D03*
X106207010Y-119077000D03*
X106207010Y-121617000D03*
X106207010Y-124157000D03*
X106207010Y-126697000D03*
X106207010Y-129237000D03*
D11*
X171866010Y-126697000D03*
D12*
X171866010Y-124157000D03*
X171866010Y-121617000D03*
X171866010Y-119077000D03*
X171866010Y-116537000D03*
X171866010Y-113997000D03*
X171866010Y-111457000D03*
X171866010Y-108917000D03*
%TD*%
D13*
%TO.C,U1*%
X149260000Y-72475000D03*
X149260000Y-91588500D03*
D14*
X145450000Y-92160000D03*
D15*
X142910000Y-92160000D03*
X140370000Y-92160000D03*
X137830000Y-92160000D03*
X135290000Y-92160000D03*
X132750000Y-92160000D03*
X130210000Y-92160000D03*
X127670000Y-92160000D03*
X125130000Y-92160000D03*
X122590000Y-92160000D03*
X120050000Y-92160000D03*
X117510000Y-92160000D03*
X114970000Y-92160000D03*
X112430000Y-92160000D03*
X109890000Y-92160000D03*
X107350000Y-92160000D03*
X117510000Y-71840000D03*
X120050000Y-71840000D03*
X122590000Y-71840000D03*
X125130000Y-71840000D03*
X127670000Y-71840000D03*
X130210000Y-71840000D03*
X132750000Y-71840000D03*
X135290000Y-71840000D03*
X137830000Y-71840000D03*
X140370000Y-71840000D03*
X142910000Y-71840000D03*
X145450000Y-71840000D03*
D16*
X103540000Y-90890000D03*
X103540000Y-73110000D03*
%TD*%
D17*
%TO.C,J1*%
X112000000Y-61000000D03*
D18*
X106000000Y-61000000D03*
D19*
X109000000Y-65700000D03*
%TD*%
D20*
%TO.C,C1*%
X118825000Y-78125300D03*
X118825000Y-79674700D03*
%TD*%
D21*
%TO.C,C6*%
X114900000Y-85350000D03*
X114900000Y-88050000D03*
%TD*%
D22*
%TO.C,C5*%
X112275000Y-119075000D03*
X109575000Y-119075000D03*
%TD*%
%TO.C,C4*%
X112325000Y-121625000D03*
X109625000Y-121625000D03*
%TD*%
D23*
%TO.C,J3*%
X169550000Y-91325000D03*
X169550000Y-90325000D03*
X169550000Y-89325000D03*
X169550000Y-88325000D03*
X169550000Y-87325000D03*
X169550000Y-86325000D03*
X169550000Y-85325000D03*
X169550000Y-84325000D03*
X169550000Y-83325000D03*
X169550000Y-82325000D03*
X169550000Y-81325000D03*
X169550000Y-80325000D03*
D24*
X172250000Y-94124990D03*
X172250000Y-77525010D03*
%TD*%
D23*
%TO.C,J2*%
X169550000Y-71175000D03*
X169550000Y-70175000D03*
X169550000Y-69175000D03*
X169550000Y-68175000D03*
X169550000Y-67175000D03*
X169550000Y-66175000D03*
X169550000Y-65175000D03*
X169550000Y-64175000D03*
X169550000Y-63175000D03*
X169550000Y-62175000D03*
X169550000Y-61175000D03*
X169550000Y-60175000D03*
D24*
X172250000Y-73974990D03*
X172250000Y-57375010D03*
%TD*%
D25*
%TO.C,C2*%
X122275000Y-78490000D03*
X122275000Y-79300000D03*
%TD*%
M02*
