%TF.GenerationSoftware,KiCad,Pcbnew,10.0.0*%
%TF.CreationDate,2026-08-18T16:37:23-04:00*%
%TF.ProjectId,nano_core_v4,6e616e6f-5f63-46f7-9265-5f76342e6b69,rev?*%
%TF.SameCoordinates,Original*%
%TF.FileFunction,Profile,NP*%
%FSLAX46Y46*%
G04 Gerber Fmt 4.6, Leading zero omitted, Abs format (unit mm)*
G04 Created by KiCad (PCBNEW 10.0.0) date 2026-08-18 16:37:23*
%MOMM*%
%LPD*%
G01*
G04 APERTURE LIST*
%TA.AperFunction,Profile*%
%ADD10C,0.050000*%
%TD*%
G04 APERTURE END LIST*
D10*
X113850000Y-65650000D02*
X114375000Y-128641518D01*
X113850000Y-65650000D02*
G75*
G02*
X115850000Y-63650000I2000000J0D01*
G01*
X117350000Y-65650000D02*
G75*
G02*
X114350000Y-65650000I-1500000J0D01*
G01*
X114350000Y-65650000D02*
G75*
G02*
X117350000Y-65650000I1500000J0D01*
G01*
X117875000Y-128641518D02*
G75*
G02*
X114875000Y-128641518I-1500000J0D01*
G01*
X114875000Y-128641518D02*
G75*
G02*
X117875000Y-128641518I1500000J0D01*
G01*
X116375000Y-130641518D02*
G75*
G02*
X114374982Y-128641518I0J2000018D01*
G01*
X118850000Y-63650000D02*
X115850000Y-63650000D01*
X118850000Y-63650000D02*
X199850000Y-63650000D01*
X119375000Y-130641518D02*
X116375000Y-130641518D01*
X199850000Y-63650000D02*
X202350000Y-63650000D01*
X200375000Y-130650000D02*
X119375000Y-130641518D01*
X202350000Y-63650000D02*
G75*
G02*
X204350000Y-65650000I0J-2000000D01*
G01*
X203850000Y-65650000D02*
G75*
G02*
X200850000Y-65650000I-1500000J0D01*
G01*
X200850000Y-65650000D02*
G75*
G02*
X203850000Y-65650000I1500000J0D01*
G01*
X204375000Y-128650000D02*
G75*
G02*
X201375000Y-128650000I-1500000J0D01*
G01*
X201375000Y-128650000D02*
G75*
G02*
X204375000Y-128650000I1500000J0D01*
G01*
X202875000Y-130650000D02*
X200375000Y-130650000D01*
X204875000Y-128650000D02*
G75*
G02*
X202875000Y-130650000I-2000000J0D01*
G01*
X204875000Y-128650000D02*
X204350000Y-65650000D01*
M02*
