%TF.GenerationSoftware,KiCad,Pcbnew,9.0.6*%
%TF.CreationDate,2025-12-22T18:43:12-05:00*%
%TF.ProjectId,nano_core_v2,6e616e6f-5f63-46f7-9265-5f76322e6b69,rev?*%
%TF.SameCoordinates,Original*%
%TF.FileFunction,Soldermask,Bot*%
%TF.FilePolarity,Negative*%
%FSLAX46Y46*%
G04 Gerber Fmt 4.6, Leading zero omitted, Abs format (unit mm)*
G04 Created by KiCad (PCBNEW 9.0.6) date 2025-12-22 18:43:12*
%MOMM*%
%LPD*%
G01*
G04 APERTURE LIST*
G04 Aperture macros list*
%AMRoundRect*
0 Rectangle with rounded corners*
0 $1 Rounding radius*
0 $2 $3 $4 $5 $6 $7 $8 $9 X,Y pos of 4 corners*
0 Add a 4 corners polygon primitive as box body*
4,1,4,$2,$3,$4,$5,$6,$7,$8,$9,$2,$3,0*
0 Add four circle primitives for the rounded corners*
1,1,$1+$1,$2,$3*
1,1,$1+$1,$4,$5*
1,1,$1+$1,$6,$7*
1,1,$1+$1,$8,$9*
0 Add four rect primitives between the rounded corners*
20,1,$1+$1,$2,$3,$4,$5,0*
20,1,$1+$1,$4,$5,$6,$7,0*
20,1,$1+$1,$6,$7,$8,$9,0*
20,1,$1+$1,$8,$9,$2,$3,0*%
G04 Aperture macros list end*
%ADD10C,1.524000*%
%ADD11R,2.000000X1.651000*%
%ADD12O,2.000000X1.651000*%
%ADD13C,2.200000*%
%ADD14RoundRect,0.102000X-0.704000X-0.704000X0.704000X-0.704000X0.704000X0.704000X-0.704000X0.704000X0*%
%ADD15C,1.612000*%
%ADD16C,3.720000*%
%ADD17O,2.704000X5.204000*%
%ADD18O,2.454000X4.704000*%
%ADD19O,4.704000X2.454000*%
G04 APERTURE END LIST*
D10*
%TO.C,U2*%
X104500000Y-101114000D03*
X104500000Y-134500000D03*
X173446000Y-101114000D03*
X173446000Y-134500000D03*
D11*
X106207010Y-106377000D03*
D12*
X106207010Y-108917000D03*
X106207010Y-111457000D03*
X106207010Y-113997000D03*
X106207010Y-116537000D03*
X106207010Y-119077000D03*
X106207010Y-121617000D03*
X106207010Y-124157000D03*
X106207010Y-126697000D03*
X106207010Y-129237000D03*
D11*
X171866010Y-126697000D03*
D12*
X171866010Y-124157000D03*
X171866010Y-121617000D03*
X171866010Y-119077000D03*
X171866010Y-116537000D03*
X171866010Y-113997000D03*
X171866010Y-111457000D03*
X171866010Y-108917000D03*
%TD*%
D13*
%TO.C,U1*%
X149260000Y-72475000D03*
X149260000Y-91588500D03*
D14*
X145450000Y-92160000D03*
D15*
X142910000Y-92160000D03*
X140370000Y-92160000D03*
X137830000Y-92160000D03*
X135290000Y-92160000D03*
X132750000Y-92160000D03*
X130210000Y-92160000D03*
X127670000Y-92160000D03*
X125130000Y-92160000D03*
X122590000Y-92160000D03*
X120050000Y-92160000D03*
X117510000Y-92160000D03*
X114970000Y-92160000D03*
X112430000Y-92160000D03*
X109890000Y-92160000D03*
X107350000Y-92160000D03*
X117510000Y-71840000D03*
X120050000Y-71840000D03*
X122590000Y-71840000D03*
X125130000Y-71840000D03*
X127670000Y-71840000D03*
X130210000Y-71840000D03*
X132750000Y-71840000D03*
X135290000Y-71840000D03*
X137830000Y-71840000D03*
X140370000Y-71840000D03*
X142910000Y-71840000D03*
X145450000Y-71840000D03*
D16*
X103540000Y-90890000D03*
X103540000Y-73110000D03*
%TD*%
D17*
%TO.C,J1*%
X112000000Y-61000000D03*
D18*
X106000000Y-61000000D03*
D19*
X109000000Y-65700000D03*
%TD*%
M02*
