%TF.GenerationSoftware,KiCad,Pcbnew,10.0.0*%
%TF.CreationDate,2026-08-18T16:37:23-04:00*%
%TF.ProjectId,nano_core_v4,6e616e6f-5f63-46f7-9265-5f76342e6b69,rev?*%
%TF.SameCoordinates,Original*%
%TF.FileFunction,Soldermask,Top*%
%TF.FilePolarity,Negative*%
%FSLAX46Y46*%
G04 Gerber Fmt 4.6, Leading zero omitted, Abs format (unit mm)*
G04 Created by KiCad (PCBNEW 10.0.0) date 2026-08-18 16:37:23*
%MOMM*%
%LPD*%
G01*
G04 APERTURE LIST*
G04 Aperture macros list*
%AMRoundRect*
0 Rectangle with rounded corners*
0 $1 Rounding radius*
0 $2 $3 $4 $5 $6 $7 $8 $9 X,Y pos of 4 corners*
0 Add a 4 corners polygon primitive as box body*
4,1,4,$2,$3,$4,$5,$6,$7,$8,$9,$2,$3,0*
0 Add four circle primitives for the rounded corners*
1,1,$1+$1,$2,$3*
1,1,$1+$1,$4,$5*
1,1,$1+$1,$6,$7*
1,1,$1+$1,$8,$9*
0 Add four rect primitives between the rounded corners*
20,1,$1+$1,$2,$3,$4,$5,0*
20,1,$1+$1,$4,$5,$6,$7,0*
20,1,$1+$1,$6,$7,$8,$9,0*
20,1,$1+$1,$8,$9,$2,$3,0*%
G04 Aperture macros list end*
%ADD10R,0.850000X0.850000*%
%ADD11C,0.850000*%
%ADD12C,1.400000*%
%ADD13R,1.700000X1.700000*%
%ADD14C,1.700000*%
%ADD15RoundRect,0.102000X-0.200000X-0.500000X0.200000X-0.500000X0.200000X0.500000X-0.200000X0.500000X0*%
%ADD16RoundRect,0.102000X-1.000000X-0.650000X1.000000X-0.650000X1.000000X0.650000X-1.000000X0.650000X0*%
%ADD17O,3.220000X1.712000*%
%ADD18C,2.200000*%
%ADD19RoundRect,0.102000X-0.704000X0.704000X-0.704000X-0.704000X0.704000X-0.704000X0.704000X0.704000X0*%
%ADD20C,1.612000*%
%ADD21C,3.720000*%
%ADD22O,3.804000X1.604000*%
%ADD23O,1.604000X3.804000*%
G04 APERTURE END LIST*
D10*
%TO.C,J10*%
X145250000Y-118775000D03*
D11*
X146250000Y-118775000D03*
X147250000Y-118775000D03*
%TD*%
D12*
%TO.C,C9*%
X137740000Y-78975000D03*
X132660000Y-78975000D03*
%TD*%
%TO.C,R10*%
X133987500Y-99960000D03*
X133987500Y-105040000D03*
%TD*%
%TO.C,R7*%
X138975000Y-110000000D03*
X138975000Y-115080000D03*
%TD*%
D13*
%TO.C,J4*%
X182365000Y-118775000D03*
D14*
X179825000Y-118775000D03*
X177285000Y-118775000D03*
X174745000Y-118775000D03*
X172205000Y-118775000D03*
X169665000Y-118775000D03*
X167125000Y-118775000D03*
X164585000Y-118775000D03*
%TD*%
D15*
%TO.C,J3*%
X122800000Y-125550000D03*
X123800000Y-125550000D03*
X124800000Y-125550000D03*
X125800000Y-125550000D03*
X126800000Y-125550000D03*
X127800000Y-125550000D03*
X128800000Y-125550000D03*
X129800000Y-125550000D03*
X130800000Y-125550000D03*
X131800000Y-125550000D03*
X132800000Y-125550000D03*
X133800000Y-125550000D03*
D16*
X120000010Y-128250000D03*
X136599990Y-128250000D03*
%TD*%
D12*
%TO.C,R9*%
X138975000Y-99960000D03*
X138975000Y-105040000D03*
%TD*%
D13*
%TO.C,J1*%
X188425000Y-73125000D03*
D14*
X188425000Y-70585000D03*
%TD*%
D17*
%TO.C,U2*%
X186500000Y-84800000D03*
X190500000Y-86500000D03*
X186500000Y-88200000D03*
X190500000Y-89900000D03*
X186500000Y-91600000D03*
%TD*%
D12*
%TO.C,R4*%
X173500000Y-100000000D03*
X173500000Y-105080000D03*
%TD*%
%TO.C,C10*%
X137725000Y-68745000D03*
X137725000Y-73825000D03*
%TD*%
%TO.C,C2*%
X179465000Y-94400000D03*
X174385000Y-94400000D03*
%TD*%
D10*
%TO.C,J9*%
X121775000Y-118775000D03*
%TD*%
D13*
%TO.C,J11*%
X197475000Y-116825000D03*
D14*
X197475000Y-119365000D03*
%TD*%
D12*
%TO.C,C4*%
X178487500Y-105080000D03*
X178487500Y-100000000D03*
%TD*%
D18*
%TO.C,U1*%
X167215000Y-112185000D03*
X148101500Y-112185000D03*
D19*
X147530000Y-108375000D03*
D20*
X147530000Y-105835000D03*
X147530000Y-103295000D03*
X147530000Y-100755000D03*
X147530000Y-98215000D03*
X147530000Y-95675000D03*
X147530000Y-93135000D03*
X147530000Y-90595000D03*
X147530000Y-88055000D03*
X147530000Y-85515000D03*
X147530000Y-82975000D03*
X147530000Y-80435000D03*
X147530000Y-77895000D03*
X147530000Y-75355000D03*
X147530000Y-72815000D03*
X147530000Y-70275000D03*
X167850000Y-80435000D03*
X167850000Y-82975000D03*
X167850000Y-85515000D03*
X167850000Y-88055000D03*
X167850000Y-90595000D03*
X167850000Y-93135000D03*
X167850000Y-95675000D03*
X167850000Y-98215000D03*
X167850000Y-100755000D03*
X167850000Y-103295000D03*
X167850000Y-105835000D03*
X167850000Y-108375000D03*
D21*
X148800000Y-66465000D03*
X166580000Y-66465000D03*
%TD*%
D12*
%TO.C,R8*%
X143912500Y-110540000D03*
X143912500Y-105460000D03*
%TD*%
D10*
%TO.C,J8*%
X159675000Y-118775000D03*
D11*
X160675000Y-118775000D03*
X161675000Y-118775000D03*
%TD*%
D17*
%TO.C,U3*%
X132450000Y-91600000D03*
X128450000Y-89900000D03*
X132450000Y-88200000D03*
X128450000Y-86500000D03*
X132450000Y-84800000D03*
%TD*%
D10*
%TO.C,J7*%
X185410000Y-118775000D03*
%TD*%
D12*
%TO.C,C11*%
X132700000Y-68745000D03*
X132700000Y-73825000D03*
%TD*%
%TO.C,C1*%
X179540000Y-83000000D03*
X174460000Y-83000000D03*
%TD*%
%TO.C,C3*%
X173487500Y-115080000D03*
X173487500Y-110000000D03*
%TD*%
%TO.C,R5*%
X183475000Y-100000000D03*
X183475000Y-105080000D03*
%TD*%
%TO.C,C5*%
X133987500Y-115080000D03*
X133987500Y-110000000D03*
%TD*%
%TO.C,R2*%
X178475000Y-115080000D03*
X178475000Y-110000000D03*
%TD*%
%TO.C,R3*%
X189000000Y-105540000D03*
X189000000Y-110620000D03*
%TD*%
D15*
%TO.C,J2*%
X184949990Y-125550000D03*
X185949990Y-125550000D03*
X186949990Y-125550000D03*
X187949990Y-125550000D03*
X188949990Y-125550000D03*
X189949990Y-125550000D03*
X190949990Y-125550000D03*
X191949990Y-125550000D03*
X192949990Y-125550000D03*
X193949990Y-125550000D03*
X194949990Y-125550000D03*
X195949990Y-125550000D03*
D16*
X182150000Y-128250000D03*
X198749980Y-128250000D03*
%TD*%
D22*
%TO.C,J6*%
X176405000Y-73670000D03*
X176405000Y-67420000D03*
D23*
X171605000Y-70670000D03*
%TD*%
D12*
%TO.C,C8*%
X129000000Y-99960000D03*
X129000000Y-105040000D03*
%TD*%
%TO.C,R6*%
X129000000Y-115080000D03*
X129000000Y-110000000D03*
%TD*%
D13*
%TO.C,J5*%
X124685000Y-118775000D03*
D14*
X127225000Y-118775000D03*
X129765000Y-118775000D03*
X132305000Y-118775000D03*
X134845000Y-118775000D03*
X137385000Y-118775000D03*
X139925000Y-118775000D03*
X142465000Y-118775000D03*
%TD*%
D12*
%TO.C,R1*%
X183462500Y-115080000D03*
X183462500Y-110000000D03*
%TD*%
M02*
