M48
; DRILL file KiCad 10.0.0 date 2026-08-18T16:37:16
; FORMAT={-:-/ absolute / metric / decimal}
; #@! TF.CreationDate,2026-08-18T16:37:16-04:00
; #@! TF.GenerationSoftware,Kicad,Pcbnew,10.0.0
; #@! TF.FileFunction,Plated,1,2,PTH
FMAT,2
METRIC
; #@! TA.AperFunction,Plated,PTH,ComponentDrill
T1C0.500
; #@! TA.AperFunction,Plated,PTH,ComponentDrill
T2C0.700
; #@! TA.AperFunction,Plated,PTH,ComponentDrill
T3C0.800
; #@! TA.AperFunction,Plated,PTH,ComponentDrill
T4C0.900
; #@! TA.AperFunction,Plated,PTH,ComponentDrill
T5C1.000
; #@! TA.AperFunction,Plated,PTH,ComponentDrill
T6C2.500
%
G90
G05
T1
X121.775Y-118.775
X145.25Y-118.775
X146.25Y-118.775
X147.25Y-118.775
X159.675Y-118.775
X160.675Y-118.775
X161.675Y-118.775
X185.41Y-118.775
T2
X129.0Y-99.96
X129.0Y-105.04
X129.0Y-110.0
X129.0Y-115.08
X132.66Y-78.975
X132.7Y-68.745
X132.7Y-73.825
X133.987Y-99.96
X133.987Y-105.04
X133.987Y-110.0
X133.987Y-115.08
X137.725Y-68.745
X137.725Y-73.825
X137.74Y-78.975
X138.975Y-99.96
X138.975Y-105.04
X138.975Y-110.0
X138.975Y-115.08
X143.912Y-105.46
X143.912Y-110.54
X173.487Y-110.0
X173.487Y-115.08
X173.5Y-100.0
X173.5Y-105.08
X174.385Y-94.4
X174.46Y-83.0
X178.475Y-110.0
X178.475Y-115.08
X178.487Y-100.0
X178.487Y-105.08
X179.465Y-94.4
X179.54Y-83.0
X183.463Y-110.0
X183.463Y-115.08
X183.475Y-100.0
X183.475Y-105.08
X189.0Y-105.54
X189.0Y-110.62
T4
X147.53Y-70.275
X147.53Y-72.815
X147.53Y-75.355
X147.53Y-77.895
X147.53Y-80.435
X147.53Y-82.975
X147.53Y-85.515
X147.53Y-88.055
X147.53Y-90.595
X147.53Y-93.135
X147.53Y-95.675
X147.53Y-98.215
X147.53Y-100.755
X147.53Y-103.295
X147.53Y-105.835
X147.53Y-108.375
X167.85Y-80.435
X167.85Y-82.975
X167.85Y-85.515
X167.85Y-88.055
X167.85Y-90.595
X167.85Y-93.135
X167.85Y-95.675
X167.85Y-98.215
X167.85Y-100.755
X167.85Y-103.295
X167.85Y-105.835
X167.85Y-108.375
T5
X124.685Y-118.775
X127.225Y-118.775
X128.45Y-86.5
X128.45Y-89.9
X129.765Y-118.775
X132.305Y-118.775
X132.45Y-84.8
X132.45Y-88.2
X132.45Y-91.6
X134.845Y-118.775
X137.385Y-118.775
X139.925Y-118.775
X142.465Y-118.775
X164.585Y-118.775
X167.125Y-118.775
X169.665Y-118.775
X172.205Y-118.775
X174.745Y-118.775
X177.285Y-118.775
X179.825Y-118.775
X182.365Y-118.775
X186.5Y-84.8
X186.5Y-88.2
X186.5Y-91.6
X188.425Y-70.585
X188.425Y-73.125
X190.5Y-86.5
X190.5Y-89.9
X197.475Y-116.825
X197.475Y-119.365
T6
X148.8Y-66.465
X166.58Y-66.465
T3
G00X171.605Y-71.77
M15
G01X171.605Y-69.57
M16
G05
G00X177.505Y-67.42
M15
G01X175.305Y-67.42
M16
G05
G00X177.505Y-73.67
M15
G01X175.305Y-73.67
M16
G05
M30
