M48
; DRILL file {KiCad 9.0.6} date 2025-12-22T18:43:20-0500
; FORMAT={-:-/ absolute / metric / decimal}
; #@! TF.CreationDate,2025-12-22T18:43:20-05:00
; #@! TF.GenerationSoftware,Kicad,Pcbnew,9.0.6
; #@! TF.FileFunction,Plated,1,2,PTH
FMAT,2
METRIC
; #@! TA.AperFunction,Plated,PTH,ComponentDrill
T1C0.900
; #@! TA.AperFunction,Plated,PTH,ComponentDrill
T2C1.000
; #@! TA.AperFunction,Plated,PTH,ComponentDrill
T3C2.500
%
G90
G05
T1
X107.35Y-92.16
X109.89Y-92.16
X112.43Y-92.16
X114.97Y-92.16
X117.51Y-71.84
X117.51Y-92.16
X120.05Y-71.84
X120.05Y-92.16
X122.59Y-71.84
X122.59Y-92.16
X125.13Y-71.84
X125.13Y-92.16
X127.67Y-71.84
X127.67Y-92.16
X130.21Y-71.84
X130.21Y-92.16
X132.75Y-71.84
X132.75Y-92.16
X135.29Y-71.84
X135.29Y-92.16
X137.83Y-71.84
X137.83Y-92.16
X140.37Y-71.84
X140.37Y-92.16
X142.91Y-71.84
X142.91Y-92.16
X145.45Y-71.84
X145.45Y-92.16
T2
X106.207Y-106.377
X106.207Y-108.917
X106.207Y-111.457
X106.207Y-113.997
X106.207Y-116.537
X106.207Y-119.077
X106.207Y-121.617
X106.207Y-124.157
X106.207Y-126.697
X106.207Y-129.237
X171.866Y-108.917
X171.866Y-111.457
X171.866Y-113.997
X171.866Y-116.537
X171.866Y-119.077
X171.866Y-121.617
X171.866Y-124.157
X171.866Y-126.697
T3
X103.54Y-73.11
X103.54Y-90.89
T2
G00X106.0Y-62.0
M15
G01X106.0Y-60.0
M16
G05
G00X110.0Y-65.7
M15
G01X108.0Y-65.7
M16
G05
G00X112.0Y-62.25
M15
G01X112.0Y-59.75
M16
G05
M30
