%TF.GenerationSoftware,KiCad,Pcbnew,10.0.0*%
%TF.CreationDate,2026-08-18T16:37:23-04:00*%
%TF.ProjectId,nano_core_v4,6e616e6f-5f63-46f7-9265-5f76342e6b69,rev?*%
%TF.SameCoordinates,Original*%
%TF.FileFunction,Copper,L1,Top*%
%TF.FilePolarity,Positive*%
%FSLAX46Y46*%
G04 Gerber Fmt 4.6, Leading zero omitted, Abs format (unit mm)*
G04 Created by KiCad (PCBNEW 10.0.0) date 2026-08-18 16:37:23*
%MOMM*%
%LPD*%
G01*
G04 APERTURE LIST*
%TA.AperFunction,ComponentPad*%
%ADD10R,0.850000X0.850000*%
%TD*%
%TA.AperFunction,ComponentPad*%
%ADD11C,0.850000*%
%TD*%
%TA.AperFunction,ComponentPad*%
%ADD12C,1.400000*%
%TD*%
%TA.AperFunction,ComponentPad*%
%ADD13R,1.700000X1.700000*%
%TD*%
%TA.AperFunction,ComponentPad*%
%ADD14C,1.700000*%
%TD*%
%TA.AperFunction,SMDPad,CuDef*%
%ADD15R,0.400000X1.000000*%
%TD*%
%TA.AperFunction,SMDPad,CuDef*%
%ADD16R,2.000000X1.300000*%
%TD*%
%TA.AperFunction,ComponentPad*%
%ADD17O,3.016000X1.508000*%
%TD*%
%TA.AperFunction,ComponentPad*%
%ADD18R,1.408000X1.408000*%
%TD*%
%TA.AperFunction,ComponentPad*%
%ADD19C,1.408000*%
%TD*%
%TA.AperFunction,ComponentPad*%
%ADD20C,3.516000*%
%TD*%
%TA.AperFunction,ComponentPad*%
%ADD21O,3.600000X1.400000*%
%TD*%
%TA.AperFunction,ComponentPad*%
%ADD22O,1.400000X3.600000*%
%TD*%
%TA.AperFunction,Conductor*%
%ADD23C,0.200000*%
%TD*%
G04 APERTURE END LIST*
D10*
%TO.P,J10,1,Pin_1_1*%
%TO.N,/Y_CS*%
X145250000Y-118775000D03*
D11*
%TO.P,J10,2,Pin_2_2*%
%TO.N,/Y_CLK*%
X146250000Y-118775000D03*
%TO.P,J10,3,Pin_3_3*%
%TO.N,/Y_DO*%
X147250000Y-118775000D03*
%TD*%
D12*
%TO.P,C9,1*%
%TO.N,GND*%
X137740000Y-78975000D03*
%TO.P,C9,2*%
X132660000Y-78975000D03*
%TD*%
%TO.P,R10,1*%
%TO.N,Net-(C8-Pad1)*%
X133987500Y-99960000D03*
%TO.P,R10,2*%
%TO.N,/Y_36V*%
X133987500Y-105040000D03*
%TD*%
%TO.P,R7,1*%
%TO.N,GND*%
X138975000Y-110000000D03*
%TO.P,R7,2*%
%TO.N,Net-(C5-Pad1)*%
X138975000Y-115080000D03*
%TD*%
D13*
%TO.P,J4,1,Pin_1_1*%
%TO.N,GND*%
X182365000Y-118775000D03*
D14*
%TO.P,J4,2,Pin_2_2*%
%TO.N,+3.3V*%
X179825000Y-118775000D03*
%TO.P,J4,3,Pin_3_3*%
%TO.N,/X_NI*%
X177285000Y-118775000D03*
%TO.P,J4,4,Pin_4_4*%
%TO.N,/X_I*%
X174745000Y-118775000D03*
%TO.P,J4,5,Pin_5_5*%
%TO.N,/X_NB*%
X172205000Y-118775000D03*
%TO.P,J4,6,Pin_6_6*%
%TO.N,/X_B*%
X169665000Y-118775000D03*
%TO.P,J4,7,Pin_7_7*%
%TO.N,/X_NA*%
X167125000Y-118775000D03*
%TO.P,J4,8,Pin_8_8*%
%TO.N,/X_A*%
X164585000Y-118775000D03*
%TD*%
D15*
%TO.P,J3,1*%
%TO.N,/Y_36V*%
X122800000Y-125550000D03*
%TO.P,J3,2*%
%TO.N,GND*%
X123800000Y-125550000D03*
%TO.P,J3,3*%
%TO.N,+3.3V*%
X124800000Y-125550000D03*
%TO.P,J3,4*%
%TO.N,/Y_NI*%
X125800000Y-125550000D03*
%TO.P,J3,5*%
%TO.N,/Y_I*%
X126800000Y-125550000D03*
%TO.P,J3,6*%
%TO.N,/Y_NB*%
X127800000Y-125550000D03*
%TO.P,J3,7*%
%TO.N,/Y_B*%
X128800000Y-125550000D03*
%TO.P,J3,8*%
%TO.N,/Y_NA*%
X129800000Y-125550000D03*
%TO.P,J3,9*%
%TO.N,/Y_A*%
X130800000Y-125550000D03*
%TO.P,J3,10*%
%TO.N,/Y_CS*%
X131800000Y-125550000D03*
%TO.P,J3,11*%
%TO.N,/Y_CLK*%
X132800000Y-125550000D03*
%TO.P,J3,12*%
%TO.N,/Y_DO*%
X133800000Y-125550000D03*
D16*
%TO.P,J3,P1*%
%TO.N,unconnected-(J3-PadP1)*%
X120000010Y-128250000D03*
%TO.P,J3,P2*%
%TO.N,unconnected-(J3-PadP2)*%
X136599990Y-128250000D03*
%TD*%
D12*
%TO.P,R9,1*%
%TO.N,Net-(U3-INVERTING)*%
X138975000Y-99960000D03*
%TO.P,R9,2*%
%TO.N,/Y_36V*%
X138975000Y-105040000D03*
%TD*%
D13*
%TO.P,J1,1,Pin_1_1*%
%TO.N,+36V*%
X188425000Y-73125000D03*
D14*
%TO.P,J1,2,Pin_2_2*%
%TO.N,GND*%
X188425000Y-70585000D03*
%TD*%
D17*
%TO.P,U2,1,NONINVERTING_1*%
%TO.N,/X_SIG*%
X186500000Y-84800000D03*
%TO.P,U2,2,INVERTING_2*%
%TO.N,Net-(U2-INVERTING)*%
X190500000Y-86500000D03*
%TO.P,U2,3,GND_3*%
%TO.N,GND*%
X186500000Y-88200000D03*
%TO.P,U2,4,OUTPUT_4*%
%TO.N,/X_36V*%
X190500000Y-89900000D03*
%TO.P,U2,5,SUPPLY_VOLTAGE_5*%
%TO.N,+36V*%
X186500000Y-91600000D03*
%TD*%
D12*
%TO.P,R4,1*%
%TO.N,GND*%
X173500000Y-100000000D03*
%TO.P,R4,2*%
%TO.N,Net-(C4-Pad1)*%
X173500000Y-105080000D03*
%TD*%
%TO.P,C10,1*%
%TO.N,+3.3V*%
X137725000Y-68745000D03*
%TO.P,C10,2*%
%TO.N,GND*%
X137725000Y-73825000D03*
%TD*%
%TO.P,C2,1*%
%TO.N,+36V*%
X179465000Y-94400000D03*
%TO.P,C2,2*%
%TO.N,GND*%
X174385000Y-94400000D03*
%TD*%
D10*
%TO.P,J9,1,Pin_1_1*%
%TO.N,/Y_36V*%
X121775000Y-118775000D03*
%TD*%
D13*
%TO.P,J11,1,Pin_1_1*%
%TO.N,/SCL*%
X197475000Y-116825000D03*
D14*
%TO.P,J11,2,Pin_2_2*%
%TO.N,GND*%
X197475000Y-119365000D03*
%TD*%
D12*
%TO.P,C4,1*%
%TO.N,Net-(C4-Pad1)*%
X178487500Y-105080000D03*
%TO.P,C4,2*%
%TO.N,GND*%
X178487500Y-100000000D03*
%TD*%
D18*
%TO.P,U1,1,D4/PA14_1*%
%TO.N,unconnected-(U1-D4{slash}PA14-Pad1)*%
X147530000Y-108375000D03*
D19*
%TO.P,U1,2,D1/PB16_2*%
%TO.N,unconnected-(U1-D1{slash}PB16-Pad2)*%
X147530000Y-105835000D03*
%TO.P,U1,3,D0/PB17_3*%
%TO.N,unconnected-(U1-D0{slash}PB17-Pad3)*%
X147530000Y-103295000D03*
%TO.P,U1,4,MISO/PB22_4*%
%TO.N,/Y_DO*%
X147530000Y-100755000D03*
%TO.P,U1,5,MOSI/PB23_5*%
%TO.N,/Y_CLK*%
X147530000Y-98215000D03*
%TO.P,U1,6,SCK/PA17_6*%
%TO.N,/Y_CS*%
X147530000Y-95675000D03*
%TO.P,U1,7,A5/PA06_7*%
%TO.N,/Y_A*%
X147530000Y-93135000D03*
%TO.P,U1,8,A4/PA04_8*%
%TO.N,/Y_NA*%
X147530000Y-90595000D03*
%TO.P,U1,9,A3/PB09_9*%
%TO.N,/Y_B*%
X147530000Y-88055000D03*
%TO.P,U1,10,A2/PB08_10*%
%TO.N,/Y_NB*%
X147530000Y-85515000D03*
%TO.P,U1,11,A1/PA05_11*%
%TO.N,/Y_SIG*%
X147530000Y-82975000D03*
%TO.P,U1,12,A0/PA02_12*%
%TO.N,/X_SIG*%
X147530000Y-80435000D03*
%TO.P,U1,13,GND_13*%
%TO.N,GND*%
X147530000Y-77895000D03*
%TO.P,U1,14,AREF_14*%
%TO.N,unconnected-(U1-AREF-Pad14)*%
X147530000Y-75355000D03*
%TO.P,U1,15,3.3V_15*%
%TO.N,+3.3V*%
X147530000Y-72815000D03*
%TO.P,U1,16,RESET_16*%
%TO.N,unconnected-(U1-RESET-Pad16)*%
X147530000Y-70275000D03*
%TO.P,U1,17,VBAT_17*%
%TO.N,unconnected-(U1-VBAT-Pad17)*%
X167850000Y-80435000D03*
%TO.P,U1,18,EN_18*%
%TO.N,unconnected-(U1-EN-Pad18)*%
X167850000Y-82975000D03*
%TO.P,U1,19,VBUS_19*%
%TO.N,unconnected-(U1-VBUS-Pad19)*%
X167850000Y-85515000D03*
%TO.P,U1,20,D13/PA23_20*%
%TO.N,/X_NB*%
X167850000Y-88055000D03*
%TO.P,U1,21,D12/PA22_21*%
%TO.N,/X_B*%
X167850000Y-90595000D03*
%TO.P,U1,22,D11/PA21_22*%
%TO.N,/X_NA*%
X167850000Y-93135000D03*
%TO.P,U1,23,D10/PA20_23*%
%TO.N,/X_A*%
X167850000Y-95675000D03*
%TO.P,U1,24,D9/PA19_24*%
%TO.N,/X_CS*%
X167850000Y-98215000D03*
%TO.P,U1,25,D6/PA18_25*%
%TO.N,/X_CLK*%
X167850000Y-100755000D03*
%TO.P,U1,26,D5/PA16_26*%
%TO.N,/X_DO*%
X167850000Y-103295000D03*
%TO.P,U1,27,SCL/PA13_27*%
%TO.N,/SCL*%
X167850000Y-105835000D03*
%TO.P,U1,28,SDA/PA12_28*%
%TO.N,unconnected-(U1-SDA{slash}PA12-Pad28)*%
X167850000Y-108375000D03*
D20*
%TO.P,U1,P1*%
%TO.N,N/C*%
X148800000Y-66465000D03*
%TO.P,U1,P2*%
X166580000Y-66465000D03*
%TD*%
D12*
%TO.P,R8,1*%
%TO.N,GND*%
X143912500Y-110540000D03*
%TO.P,R8,2*%
%TO.N,Net-(U3-INVERTING)*%
X143912500Y-105460000D03*
%TD*%
D10*
%TO.P,J8,1,Pin_1_1*%
%TO.N,/X_CS*%
X159675000Y-118775000D03*
D11*
%TO.P,J8,2,Pin_2_2*%
%TO.N,/X_CLK*%
X160675000Y-118775000D03*
%TO.P,J8,3,Pin_3_3*%
%TO.N,/X_DO*%
X161675000Y-118775000D03*
%TD*%
D17*
%TO.P,U3,1,NONINVERTING_1*%
%TO.N,/Y_SIG*%
X132450000Y-91600000D03*
%TO.P,U3,2,INVERTING_2*%
%TO.N,Net-(U3-INVERTING)*%
X128450000Y-89900000D03*
%TO.P,U3,3,GND_3*%
%TO.N,GND*%
X132450000Y-88200000D03*
%TO.P,U3,4,OUTPUT_4*%
%TO.N,/Y_36V*%
X128450000Y-86500000D03*
%TO.P,U3,5,SUPPLY_VOLTAGE_5*%
%TO.N,+36V*%
X132450000Y-84800000D03*
%TD*%
D10*
%TO.P,J7,1,Pin_1_1*%
%TO.N,/X_36V*%
X185410000Y-118775000D03*
%TD*%
D12*
%TO.P,C11,1*%
%TO.N,+3.3V*%
X132700000Y-68745000D03*
%TO.P,C11,2*%
%TO.N,GND*%
X132700000Y-73825000D03*
%TD*%
%TO.P,C1,1*%
%TO.N,+36V*%
X179540000Y-83000000D03*
%TO.P,C1,2*%
%TO.N,GND*%
X174460000Y-83000000D03*
%TD*%
%TO.P,C3,1*%
%TO.N,Net-(C3-Pad1)*%
X173487500Y-115080000D03*
%TO.P,C3,2*%
%TO.N,GND*%
X173487500Y-110000000D03*
%TD*%
%TO.P,R5,1*%
%TO.N,Net-(C4-Pad1)*%
X183475000Y-100000000D03*
%TO.P,R5,2*%
%TO.N,/X_SIG*%
X183475000Y-105080000D03*
%TD*%
%TO.P,C5,1*%
%TO.N,Net-(C5-Pad1)*%
X133987500Y-115080000D03*
%TO.P,C5,2*%
%TO.N,GND*%
X133987500Y-110000000D03*
%TD*%
%TO.P,R2,1*%
%TO.N,Net-(C3-Pad1)*%
X178475000Y-115080000D03*
%TO.P,R2,2*%
%TO.N,/X_36V*%
X178475000Y-110000000D03*
%TD*%
%TO.P,R3,1*%
%TO.N,GND*%
X189000000Y-105540000D03*
%TO.P,R3,2*%
%TO.N,Net-(U2-INVERTING)*%
X189000000Y-110620000D03*
%TD*%
D15*
%TO.P,J2,1*%
%TO.N,/X_DO*%
X184949990Y-125550000D03*
%TO.P,J2,2*%
%TO.N,/X_CLK*%
X185949990Y-125550000D03*
%TO.P,J2,3*%
%TO.N,/X_CS*%
X186949990Y-125550000D03*
%TO.P,J2,4*%
%TO.N,/X_A*%
X187949990Y-125550000D03*
%TO.P,J2,5*%
%TO.N,/X_NA*%
X188949990Y-125550000D03*
%TO.P,J2,6*%
%TO.N,/X_B*%
X189949990Y-125550000D03*
%TO.P,J2,7*%
%TO.N,/X_NB*%
X190949990Y-125550000D03*
%TO.P,J2,8*%
%TO.N,/X_I*%
X191949990Y-125550000D03*
%TO.P,J2,9*%
%TO.N,/X_NI*%
X192949990Y-125550000D03*
%TO.P,J2,10*%
%TO.N,+3.3V*%
X193949990Y-125550000D03*
%TO.P,J2,11*%
%TO.N,GND*%
X194949990Y-125550000D03*
%TO.P,J2,12*%
%TO.N,/X_36V*%
X195949990Y-125550000D03*
D16*
%TO.P,J2,P1*%
%TO.N,unconnected-(J2-PadP1)*%
X182150000Y-128250000D03*
%TO.P,J2,P2*%
%TO.N,unconnected-(J2-PadP2)*%
X198749980Y-128250000D03*
%TD*%
D21*
%TO.P,J6,A*%
%TO.N,+36V*%
X176405000Y-73670000D03*
%TO.P,J6,B*%
%TO.N,GND*%
X176405000Y-67420000D03*
D22*
%TO.P,J6,C*%
%TO.N,unconnected-(J6-PadC)*%
X171605000Y-70670000D03*
%TD*%
D12*
%TO.P,C8,1*%
%TO.N,Net-(C8-Pad1)*%
X129000000Y-99960000D03*
%TO.P,C8,2*%
%TO.N,GND*%
X129000000Y-105040000D03*
%TD*%
%TO.P,R6,1*%
%TO.N,Net-(C5-Pad1)*%
X129000000Y-115080000D03*
%TO.P,R6,2*%
%TO.N,/Y_SIG*%
X129000000Y-110000000D03*
%TD*%
D13*
%TO.P,J5,1,Pin_1_1*%
%TO.N,GND*%
X124685000Y-118775000D03*
D14*
%TO.P,J5,2,Pin_2_2*%
%TO.N,+3.3V*%
X127225000Y-118775000D03*
%TO.P,J5,3,Pin_3_3*%
%TO.N,/Y_NI*%
X129765000Y-118775000D03*
%TO.P,J5,4,Pin_4_4*%
%TO.N,/Y_I*%
X132305000Y-118775000D03*
%TO.P,J5,5,Pin_5_5*%
%TO.N,/Y_NB*%
X134845000Y-118775000D03*
%TO.P,J5,6,Pin_6_6*%
%TO.N,/Y_B*%
X137385000Y-118775000D03*
%TO.P,J5,7,Pin_7_7*%
%TO.N,/Y_NA*%
X139925000Y-118775000D03*
%TO.P,J5,8,Pin_8_8*%
%TO.N,/Y_A*%
X142465000Y-118775000D03*
%TD*%
D12*
%TO.P,R1,1*%
%TO.N,Net-(U2-INVERTING)*%
X183462500Y-115080000D03*
%TO.P,R1,2*%
%TO.N,/X_36V*%
X183462500Y-110000000D03*
%TD*%
%TO.N,/Y_CS*%
D23*
X147530000Y-95675000D02*
X145525000Y-97680000D01*
X135400000Y-121675000D02*
X131800000Y-125275000D01*
X142350000Y-121675000D02*
X135400000Y-121675000D01*
X145525000Y-118500000D02*
X145250000Y-118775000D01*
X131800000Y-125275000D02*
X131800000Y-125550000D01*
X145525000Y-97680000D02*
X145525000Y-118500000D01*
X145250000Y-118775000D02*
X142350000Y-121675000D01*
%TO.N,/Y_CLK*%
X146250000Y-119376040D02*
X143551040Y-122075000D01*
X146250000Y-118775000D02*
X146250000Y-119376040D01*
X143551040Y-122075000D02*
X135825000Y-122075000D01*
X132800000Y-125100000D02*
X132800000Y-125550000D01*
X146250000Y-99495000D02*
X146250000Y-118775000D01*
X147530000Y-98215000D02*
X146250000Y-99495000D01*
X135825000Y-122075000D02*
X132800000Y-125100000D01*
%TO.N,/Y_DO*%
X149800000Y-103025000D02*
X147530000Y-100755000D01*
X147250000Y-119376040D02*
X143951040Y-122675000D01*
X143951040Y-122675000D02*
X136125000Y-122675000D01*
X147250000Y-118775000D02*
X147250000Y-119376040D01*
X149800000Y-116225000D02*
X149800000Y-103025000D01*
X136125000Y-122675000D02*
X133800000Y-125000000D01*
X147250000Y-118775000D02*
X149800000Y-116225000D01*
X133800000Y-125000000D02*
X133800000Y-125550000D01*
%TO.N,GND*%
X174460000Y-83000000D02*
X174460000Y-94325000D01*
X124685000Y-118775000D02*
X124685000Y-117980786D01*
X169355000Y-77895000D02*
X174460000Y-83000000D01*
X132660000Y-73865000D02*
X132700000Y-73825000D01*
X182365000Y-118775000D02*
X185540000Y-121950000D01*
X137725000Y-73825000D02*
X143460000Y-73825000D01*
X129696000Y-85446000D02*
X127259419Y-85446000D01*
X147530000Y-77895000D02*
X142755000Y-77895000D01*
X129000000Y-105040000D02*
X126300000Y-102340000D01*
X137725000Y-73825000D02*
X132700000Y-73825000D01*
X172500000Y-101000000D02*
X172500000Y-109012500D01*
X183000000Y-84700000D02*
X183000000Y-70700000D01*
X127259419Y-85446000D02*
X126300000Y-86405419D01*
X183000000Y-70500000D02*
X179920000Y-67420000D01*
X173500000Y-100000000D02*
X178487500Y-100000000D01*
X182365000Y-117555786D02*
X174809214Y-110000000D01*
X124685000Y-118775000D02*
X123800000Y-119660000D01*
X132450000Y-88200000D02*
X129696000Y-85446000D01*
X174385000Y-99115000D02*
X173500000Y-100000000D01*
X143460000Y-73825000D02*
X147530000Y-77895000D01*
X137740000Y-78975000D02*
X132660000Y-78975000D01*
X183889214Y-99000000D02*
X189000000Y-104110786D01*
X142755000Y-77895000D02*
X132450000Y-88200000D01*
X183000000Y-70700000D02*
X183000000Y-70500000D01*
X178487500Y-100000000D02*
X179487500Y-99000000D01*
X123800000Y-119660000D02*
X123800000Y-125550000D01*
X191649990Y-121950000D02*
X194949990Y-125250000D01*
X133960000Y-110000000D02*
X133987500Y-110000000D01*
X137725000Y-78960000D02*
X137740000Y-78975000D01*
X186500000Y-88200000D02*
X183000000Y-84700000D01*
X185540000Y-121950000D02*
X191649990Y-121950000D01*
X124685000Y-117980786D02*
X132665786Y-110000000D01*
X133987500Y-110000000D02*
X138975000Y-110000000D01*
X147530000Y-77895000D02*
X169355000Y-77895000D01*
X182365000Y-118775000D02*
X182365000Y-117555786D01*
X174460000Y-94325000D02*
X174385000Y-94400000D01*
X189000000Y-104110786D02*
X189000000Y-105540000D01*
X132665786Y-110000000D02*
X133987500Y-110000000D01*
X174305000Y-69520000D02*
X174305000Y-82845000D01*
X174385000Y-94400000D02*
X174385000Y-99115000D01*
X174809214Y-110000000D02*
X173487500Y-110000000D01*
X179920000Y-67420000D02*
X185260000Y-67420000D01*
X132660000Y-78975000D02*
X132660000Y-73865000D01*
X185260000Y-67420000D02*
X188425000Y-70585000D01*
X137725000Y-73825000D02*
X137725000Y-78960000D01*
X143372500Y-110000000D02*
X143912500Y-110540000D01*
X174305000Y-82845000D02*
X174460000Y-83000000D01*
X194949990Y-125250000D02*
X194949990Y-125550000D01*
X176405000Y-67420000D02*
X174305000Y-69520000D01*
X126300000Y-102340000D02*
X126300000Y-86405419D01*
X173500000Y-100000000D02*
X172500000Y-101000000D01*
X172500000Y-109012500D02*
X173487500Y-110000000D01*
X179920000Y-67420000D02*
X176405000Y-67420000D01*
X179487500Y-99000000D02*
X183889214Y-99000000D01*
%TO.N,Net-(C8-Pad1)*%
X133987500Y-99960000D02*
X129000000Y-99960000D01*
%TO.N,/Y_36V*%
X121775000Y-118775000D02*
X121775000Y-124525000D01*
X121775000Y-124525000D02*
X122800000Y-125550000D01*
X138975000Y-103533286D02*
X138975000Y-105040000D01*
X130258000Y-94816286D02*
X138975000Y-103533286D01*
X133987500Y-105040000D02*
X138975000Y-105040000D01*
X130258000Y-88308000D02*
X130258000Y-94816286D01*
X121775000Y-118775000D02*
X133987500Y-106562500D01*
X133987500Y-106562500D02*
X133987500Y-105040000D01*
X128450000Y-86500000D02*
X130258000Y-88308000D01*
X128450000Y-86500000D02*
X128450000Y-87125000D01*
%TO.N,Net-(C5-Pad1)*%
X133987500Y-115080000D02*
X129000000Y-115080000D01*
X138975000Y-115080000D02*
X133987500Y-115080000D01*
%TO.N,+3.3V*%
X191049990Y-122350000D02*
X193949990Y-125250000D01*
X124800000Y-121200000D02*
X124800000Y-125550000D01*
X137725000Y-68745000D02*
X132700000Y-68745000D01*
X141795000Y-72815000D02*
X137725000Y-68745000D01*
X179825000Y-118775000D02*
X183400000Y-122350000D01*
X147530000Y-72815000D02*
X141795000Y-72815000D01*
X193949990Y-125250000D02*
X193949990Y-125550000D01*
X183400000Y-122350000D02*
X191049990Y-122350000D01*
X127225000Y-118775000D02*
X124800000Y-121200000D01*
%TO.N,/X_NI*%
X190449990Y-122750000D02*
X192949990Y-125250000D01*
X177285000Y-118775000D02*
X181260000Y-122750000D01*
X192949990Y-125250000D02*
X192949990Y-125550000D01*
X181260000Y-122750000D02*
X190449990Y-122750000D01*
%TO.N,/X_I*%
X174745000Y-118775000D02*
X179120000Y-123150000D01*
X189849990Y-123150000D02*
X191949990Y-125250000D01*
X191949990Y-125250000D02*
X191949990Y-125550000D01*
X179120000Y-123150000D02*
X189849990Y-123150000D01*
%TO.N,/X_NB*%
X172205000Y-118775000D02*
X172100000Y-118670000D01*
X190949990Y-125250000D02*
X190949990Y-125550000D01*
X176980000Y-123550000D02*
X189249990Y-123550000D01*
X189249990Y-123550000D02*
X190949990Y-125250000D01*
X172100000Y-118670000D02*
X172100000Y-90250000D01*
X172205000Y-118775000D02*
X176980000Y-123550000D01*
X172100000Y-90250000D02*
X169905000Y-88055000D01*
X169905000Y-88055000D02*
X167850000Y-88055000D01*
%TO.N,/X_B*%
X169665000Y-118775000D02*
X171450000Y-116990000D01*
X171450000Y-116990000D02*
X171450000Y-91825000D01*
X170220000Y-90595000D02*
X167850000Y-90595000D01*
X174840000Y-123950000D02*
X188649990Y-123950000D01*
X171450000Y-91825000D02*
X170220000Y-90595000D01*
X188649990Y-123950000D02*
X189949990Y-125250000D01*
X169665000Y-118775000D02*
X174840000Y-123950000D01*
X189949990Y-125250000D02*
X189949990Y-125550000D01*
%TO.N,/X_NA*%
X169485000Y-93135000D02*
X167850000Y-93135000D01*
X167125000Y-118775000D02*
X172700000Y-124350000D01*
X188949990Y-125250000D02*
X188949990Y-125550000D01*
X170775000Y-115125000D02*
X170775000Y-94425000D01*
X167125000Y-118775000D02*
X170775000Y-115125000D01*
X172700000Y-124350000D02*
X188049990Y-124350000D01*
X170775000Y-94425000D02*
X169485000Y-93135000D01*
X188049990Y-124350000D02*
X188949990Y-125250000D01*
%TO.N,/X_A*%
X187949990Y-125250000D02*
X187949990Y-125550000D01*
X170560000Y-124750000D02*
X187449990Y-124750000D01*
X170075000Y-96700000D02*
X169050000Y-95675000D01*
X164585000Y-118775000D02*
X170560000Y-124750000D01*
X170075000Y-111475000D02*
X170075000Y-96700000D01*
X164585000Y-118775000D02*
X170075000Y-113285000D01*
X169050000Y-95675000D02*
X167850000Y-95675000D01*
X187449990Y-124750000D02*
X187949990Y-125250000D01*
X170075000Y-113285000D02*
X170075000Y-111475000D01*
%TO.N,/Y_NI*%
X125800000Y-122740000D02*
X125800000Y-125550000D01*
X129765000Y-118775000D02*
X125800000Y-122740000D01*
%TO.N,/Y_I*%
X132305000Y-118775000D02*
X126800000Y-124280000D01*
X126800000Y-124280000D02*
X126800000Y-125550000D01*
%TO.N,/Y_NB*%
X134275000Y-118775000D02*
X127800000Y-125250000D01*
X137844214Y-117625000D02*
X140650000Y-114819214D01*
X144535000Y-85515000D02*
X147530000Y-85515000D01*
X140650000Y-114819214D02*
X140650000Y-89400000D01*
X134845000Y-118775000D02*
X135995000Y-117625000D01*
X140650000Y-89400000D02*
X144535000Y-85515000D01*
X134845000Y-118775000D02*
X134275000Y-118775000D01*
X135995000Y-117625000D02*
X137844214Y-117625000D01*
X127800000Y-125250000D02*
X127800000Y-125550000D01*
%TO.N,/Y_B*%
X137385000Y-118775000D02*
X136235000Y-119925000D01*
X136235000Y-119925000D02*
X134125000Y-119925000D01*
X141600000Y-114560000D02*
X141600000Y-90200000D01*
X128800000Y-125250000D02*
X128800000Y-125550000D01*
X137385000Y-118775000D02*
X141600000Y-114560000D01*
X143745000Y-88055000D02*
X147530000Y-88055000D01*
X134125000Y-119925000D02*
X128800000Y-125250000D01*
X141600000Y-90200000D02*
X143745000Y-88055000D01*
%TO.N,/Y_NA*%
X137975000Y-120725000D02*
X134325000Y-120725000D01*
X144805000Y-90595000D02*
X147530000Y-90595000D01*
X134325000Y-120725000D02*
X129800000Y-125250000D01*
X139925000Y-118775000D02*
X142275000Y-116425000D01*
X139925000Y-118775000D02*
X137975000Y-120725000D01*
X142275000Y-93125000D02*
X144805000Y-90595000D01*
X142275000Y-116425000D02*
X142275000Y-93125000D01*
X129800000Y-125250000D02*
X129800000Y-125550000D01*
%TO.N,/Y_A*%
X130800000Y-124925000D02*
X130800000Y-125550000D01*
X134600000Y-121125000D02*
X130800000Y-124925000D01*
X142465000Y-118775000D02*
X145125000Y-116115000D01*
X142465000Y-118775000D02*
X140115000Y-121125000D01*
X147530000Y-93135000D02*
X145125000Y-95540000D01*
X140115000Y-121125000D02*
X134600000Y-121125000D01*
X145125000Y-116115000D02*
X145125000Y-95540000D01*
%TO.N,+36V*%
X179540000Y-84640000D02*
X186500000Y-91600000D01*
X182265000Y-91600000D02*
X186500000Y-91600000D01*
X179540000Y-83000000D02*
X179540000Y-84640000D01*
X177170000Y-73670000D02*
X179540000Y-76040000D01*
X179465000Y-94400000D02*
X182265000Y-91600000D01*
X176405000Y-73670000D02*
X177170000Y-73670000D01*
X179540000Y-76040000D02*
X179540000Y-83000000D01*
%TO.N,Net-(U2-INVERTING)*%
X192308000Y-107312000D02*
X192308000Y-88308000D01*
X189000000Y-110620000D02*
X192308000Y-107312000D01*
X183462500Y-115080000D02*
X184540000Y-115080000D01*
X184540000Y-115080000D02*
X189000000Y-110620000D01*
X192308000Y-88308000D02*
X190500000Y-86500000D01*
%TO.N,/X_36V*%
X183462500Y-110000000D02*
X181775000Y-111687500D01*
X195949990Y-125250000D02*
X195949990Y-125550000D01*
X181775000Y-111687500D02*
X181775000Y-115140000D01*
X189474990Y-118775000D02*
X195949990Y-125250000D01*
X185410000Y-118775000D02*
X189474990Y-118775000D01*
X178475000Y-110000000D02*
X183462500Y-110000000D01*
X181775000Y-115140000D02*
X185410000Y-118775000D01*
%TO.N,Net-(C4-Pad1)*%
X178487500Y-104987500D02*
X183475000Y-100000000D01*
X173500000Y-105080000D02*
X178487500Y-105080000D01*
X178487500Y-105080000D02*
X178487500Y-104987500D01*
%TO.N,/Y_SIG*%
X132450000Y-91600000D02*
X141075000Y-82975000D01*
X141075000Y-82975000D02*
X147530000Y-82975000D01*
%TO.N,/X_CS*%
X159675000Y-118775000D02*
X159675000Y-106390000D01*
X186949990Y-125790696D02*
X186949990Y-125550000D01*
X167025000Y-126750000D02*
X185990686Y-126750000D01*
X159675000Y-119400000D02*
X167025000Y-126750000D01*
X185990686Y-126750000D02*
X186949990Y-125790696D01*
X159675000Y-118775000D02*
X159675000Y-119400000D01*
X159675000Y-106390000D02*
X167850000Y-98215000D01*
%TO.N,/X_CLK*%
X160675000Y-107930000D02*
X167850000Y-100755000D01*
X160675000Y-118775000D02*
X160675000Y-118800305D01*
X185949990Y-126225010D02*
X185949990Y-125550000D01*
X160675000Y-118775000D02*
X160675000Y-107930000D01*
X168224695Y-126350000D02*
X185825000Y-126350000D01*
X160675000Y-118800305D02*
X168224695Y-126350000D01*
X185825000Y-126350000D02*
X185949990Y-126225010D01*
%TO.N,/X_DO*%
X161675000Y-118775000D02*
X161675000Y-109470000D01*
X161675000Y-118775000D02*
X168450000Y-125550000D01*
X161675000Y-109470000D02*
X167850000Y-103295000D01*
X168450000Y-125550000D02*
X184949990Y-125550000D01*
%TO.N,Net-(C3-Pad1)*%
X173487500Y-115080000D02*
X178475000Y-115080000D01*
%TD*%
M02*
