%TF.GenerationSoftware,KiCad,Pcbnew,10.0.0*%
%TF.CreationDate,2026-08-18T16:37:23-04:00*%
%TF.ProjectId,nano_core_v4,6e616e6f-5f63-46f7-9265-5f76342e6b69,rev?*%
%TF.SameCoordinates,Original*%
%TF.FileFunction,Legend,Top*%
%TF.FilePolarity,Positive*%
%FSLAX46Y46*%
G04 Gerber Fmt 4.6, Leading zero omitted, Abs format (unit mm)*
G04 Created by KiCad (PCBNEW 10.0.0) date 2026-08-18 16:37:23*
%MOMM*%
%LPD*%
G01*
G04 APERTURE LIST*
%ADD10C,0.100000*%
%ADD11C,0.250000*%
%ADD12C,0.375000*%
%ADD13C,0.500000*%
%ADD14C,0.150000*%
%ADD15C,0.120000*%
%ADD16C,0.152400*%
%ADD17C,0.127000*%
%ADD18C,0.200000*%
G04 APERTURE END LIST*
D10*
X118900000Y-63200000D02*
X124900000Y-63200000D01*
X124900000Y-113200000D01*
X118900000Y-113200000D01*
X118900000Y-63200000D01*
X193950000Y-63200000D02*
X199950000Y-63200000D01*
X199950000Y-113200000D01*
X193950000Y-113200000D01*
X193950000Y-63200000D01*
X122252580Y-120608646D02*
X122252580Y-121227693D01*
X122252580Y-121227693D02*
X121871628Y-120894360D01*
X121871628Y-120894360D02*
X121871628Y-121037217D01*
X121871628Y-121037217D02*
X121824009Y-121132455D01*
X121824009Y-121132455D02*
X121776390Y-121180074D01*
X121776390Y-121180074D02*
X121681152Y-121227693D01*
X121681152Y-121227693D02*
X121443057Y-121227693D01*
X121443057Y-121227693D02*
X121347819Y-121180074D01*
X121347819Y-121180074D02*
X121300200Y-121132455D01*
X121300200Y-121132455D02*
X121252580Y-121037217D01*
X121252580Y-121037217D02*
X121252580Y-120751503D01*
X121252580Y-120751503D02*
X121300200Y-120656265D01*
X121300200Y-120656265D02*
X121347819Y-120608646D01*
X122252580Y-122084836D02*
X122252580Y-121894360D01*
X122252580Y-121894360D02*
X122204961Y-121799122D01*
X122204961Y-121799122D02*
X122157342Y-121751503D01*
X122157342Y-121751503D02*
X122014485Y-121656265D01*
X122014485Y-121656265D02*
X121824009Y-121608646D01*
X121824009Y-121608646D02*
X121443057Y-121608646D01*
X121443057Y-121608646D02*
X121347819Y-121656265D01*
X121347819Y-121656265D02*
X121300200Y-121703884D01*
X121300200Y-121703884D02*
X121252580Y-121799122D01*
X121252580Y-121799122D02*
X121252580Y-121989598D01*
X121252580Y-121989598D02*
X121300200Y-122084836D01*
X121300200Y-122084836D02*
X121347819Y-122132455D01*
X121347819Y-122132455D02*
X121443057Y-122180074D01*
X121443057Y-122180074D02*
X121681152Y-122180074D01*
X121681152Y-122180074D02*
X121776390Y-122132455D01*
X121776390Y-122132455D02*
X121824009Y-122084836D01*
X121824009Y-122084836D02*
X121871628Y-121989598D01*
X121871628Y-121989598D02*
X121871628Y-121799122D01*
X121871628Y-121799122D02*
X121824009Y-121703884D01*
X121824009Y-121703884D02*
X121776390Y-121656265D01*
X121776390Y-121656265D02*
X121681152Y-121608646D01*
X122252580Y-122465789D02*
X121252580Y-122799122D01*
X121252580Y-122799122D02*
X122252580Y-123132455D01*
X125034961Y-121227693D02*
X125082580Y-121132455D01*
X125082580Y-121132455D02*
X125082580Y-120989598D01*
X125082580Y-120989598D02*
X125034961Y-120846741D01*
X125034961Y-120846741D02*
X124939723Y-120751503D01*
X124939723Y-120751503D02*
X124844485Y-120703884D01*
X124844485Y-120703884D02*
X124654009Y-120656265D01*
X124654009Y-120656265D02*
X124511152Y-120656265D01*
X124511152Y-120656265D02*
X124320676Y-120703884D01*
X124320676Y-120703884D02*
X124225438Y-120751503D01*
X124225438Y-120751503D02*
X124130200Y-120846741D01*
X124130200Y-120846741D02*
X124082580Y-120989598D01*
X124082580Y-120989598D02*
X124082580Y-121084836D01*
X124082580Y-121084836D02*
X124130200Y-121227693D01*
X124130200Y-121227693D02*
X124177819Y-121275312D01*
X124177819Y-121275312D02*
X124511152Y-121275312D01*
X124511152Y-121275312D02*
X124511152Y-121084836D01*
X124082580Y-121703884D02*
X125082580Y-121703884D01*
X125082580Y-121703884D02*
X124082580Y-122275312D01*
X124082580Y-122275312D02*
X125082580Y-122275312D01*
X124082580Y-122751503D02*
X125082580Y-122751503D01*
X125082580Y-122751503D02*
X125082580Y-122989598D01*
X125082580Y-122989598D02*
X125034961Y-123132455D01*
X125034961Y-123132455D02*
X124939723Y-123227693D01*
X124939723Y-123227693D02*
X124844485Y-123275312D01*
X124844485Y-123275312D02*
X124654009Y-123322931D01*
X124654009Y-123322931D02*
X124511152Y-123322931D01*
X124511152Y-123322931D02*
X124320676Y-123275312D01*
X124320676Y-123275312D02*
X124225438Y-123227693D01*
X124225438Y-123227693D02*
X124130200Y-123132455D01*
X124130200Y-123132455D02*
X124082580Y-122989598D01*
X124082580Y-122989598D02*
X124082580Y-122751503D01*
X127652580Y-120608646D02*
X127652580Y-121227693D01*
X127652580Y-121227693D02*
X127271628Y-120894360D01*
X127271628Y-120894360D02*
X127271628Y-121037217D01*
X127271628Y-121037217D02*
X127224009Y-121132455D01*
X127224009Y-121132455D02*
X127176390Y-121180074D01*
X127176390Y-121180074D02*
X127081152Y-121227693D01*
X127081152Y-121227693D02*
X126843057Y-121227693D01*
X126843057Y-121227693D02*
X126747819Y-121180074D01*
X126747819Y-121180074D02*
X126700200Y-121132455D01*
X126700200Y-121132455D02*
X126652580Y-121037217D01*
X126652580Y-121037217D02*
X126652580Y-120751503D01*
X126652580Y-120751503D02*
X126700200Y-120656265D01*
X126700200Y-120656265D02*
X126747819Y-120608646D01*
X126747819Y-121656265D02*
X126700200Y-121703884D01*
X126700200Y-121703884D02*
X126652580Y-121656265D01*
X126652580Y-121656265D02*
X126700200Y-121608646D01*
X126700200Y-121608646D02*
X126747819Y-121656265D01*
X126747819Y-121656265D02*
X126652580Y-121656265D01*
X127652580Y-122037217D02*
X127652580Y-122656264D01*
X127652580Y-122656264D02*
X127271628Y-122322931D01*
X127271628Y-122322931D02*
X127271628Y-122465788D01*
X127271628Y-122465788D02*
X127224009Y-122561026D01*
X127224009Y-122561026D02*
X127176390Y-122608645D01*
X127176390Y-122608645D02*
X127081152Y-122656264D01*
X127081152Y-122656264D02*
X126843057Y-122656264D01*
X126843057Y-122656264D02*
X126747819Y-122608645D01*
X126747819Y-122608645D02*
X126700200Y-122561026D01*
X126700200Y-122561026D02*
X126652580Y-122465788D01*
X126652580Y-122465788D02*
X126652580Y-122180074D01*
X126652580Y-122180074D02*
X126700200Y-122084836D01*
X126700200Y-122084836D02*
X126747819Y-122037217D01*
X127652580Y-122941979D02*
X126652580Y-123275312D01*
X126652580Y-123275312D02*
X127652580Y-123608645D01*
X129222580Y-120703884D02*
X130222580Y-120703884D01*
X130222580Y-120703884D02*
X129222580Y-121275312D01*
X129222580Y-121275312D02*
X130222580Y-121275312D01*
X129222580Y-121751503D02*
X130222580Y-121751503D01*
X131692580Y-120703884D02*
X132692580Y-120703884D01*
X134252580Y-120703884D02*
X135252580Y-120703884D01*
X135252580Y-120703884D02*
X134252580Y-121275312D01*
X134252580Y-121275312D02*
X135252580Y-121275312D01*
X134776390Y-122084836D02*
X134728771Y-122227693D01*
X134728771Y-122227693D02*
X134681152Y-122275312D01*
X134681152Y-122275312D02*
X134585914Y-122322931D01*
X134585914Y-122322931D02*
X134443057Y-122322931D01*
X134443057Y-122322931D02*
X134347819Y-122275312D01*
X134347819Y-122275312D02*
X134300200Y-122227693D01*
X134300200Y-122227693D02*
X134252580Y-122132455D01*
X134252580Y-122132455D02*
X134252580Y-121751503D01*
X134252580Y-121751503D02*
X135252580Y-121751503D01*
X135252580Y-121751503D02*
X135252580Y-122084836D01*
X135252580Y-122084836D02*
X135204961Y-122180074D01*
X135204961Y-122180074D02*
X135157342Y-122227693D01*
X135157342Y-122227693D02*
X135062104Y-122275312D01*
X135062104Y-122275312D02*
X134966866Y-122275312D01*
X134966866Y-122275312D02*
X134871628Y-122227693D01*
X134871628Y-122227693D02*
X134824009Y-122180074D01*
X134824009Y-122180074D02*
X134776390Y-122084836D01*
X134776390Y-122084836D02*
X134776390Y-121751503D01*
X137426390Y-121037217D02*
X137378771Y-121180074D01*
X137378771Y-121180074D02*
X137331152Y-121227693D01*
X137331152Y-121227693D02*
X137235914Y-121275312D01*
X137235914Y-121275312D02*
X137093057Y-121275312D01*
X137093057Y-121275312D02*
X136997819Y-121227693D01*
X136997819Y-121227693D02*
X136950200Y-121180074D01*
X136950200Y-121180074D02*
X136902580Y-121084836D01*
X136902580Y-121084836D02*
X136902580Y-120703884D01*
X136902580Y-120703884D02*
X137902580Y-120703884D01*
X137902580Y-120703884D02*
X137902580Y-121037217D01*
X137902580Y-121037217D02*
X137854961Y-121132455D01*
X137854961Y-121132455D02*
X137807342Y-121180074D01*
X137807342Y-121180074D02*
X137712104Y-121227693D01*
X137712104Y-121227693D02*
X137616866Y-121227693D01*
X137616866Y-121227693D02*
X137521628Y-121180074D01*
X137521628Y-121180074D02*
X137474009Y-121132455D01*
X137474009Y-121132455D02*
X137426390Y-121037217D01*
X137426390Y-121037217D02*
X137426390Y-120703884D01*
X139262580Y-120703884D02*
X140262580Y-120703884D01*
X140262580Y-120703884D02*
X139262580Y-121275312D01*
X139262580Y-121275312D02*
X140262580Y-121275312D01*
X139548295Y-121703884D02*
X139548295Y-122180074D01*
X139262580Y-121608646D02*
X140262580Y-121941979D01*
X140262580Y-121941979D02*
X139262580Y-122275312D01*
X142108295Y-120656265D02*
X142108295Y-121132455D01*
X141822580Y-120561027D02*
X142822580Y-120894360D01*
X142822580Y-120894360D02*
X141822580Y-121227693D01*
X144472819Y-121275312D02*
X144425200Y-121227693D01*
X144425200Y-121227693D02*
X144377580Y-121084836D01*
X144377580Y-121084836D02*
X144377580Y-120989598D01*
X144377580Y-120989598D02*
X144425200Y-120846741D01*
X144425200Y-120846741D02*
X144520438Y-120751503D01*
X144520438Y-120751503D02*
X144615676Y-120703884D01*
X144615676Y-120703884D02*
X144806152Y-120656265D01*
X144806152Y-120656265D02*
X144949009Y-120656265D01*
X144949009Y-120656265D02*
X145139485Y-120703884D01*
X145139485Y-120703884D02*
X145234723Y-120751503D01*
X145234723Y-120751503D02*
X145329961Y-120846741D01*
X145329961Y-120846741D02*
X145377580Y-120989598D01*
X145377580Y-120989598D02*
X145377580Y-121084836D01*
X145377580Y-121084836D02*
X145329961Y-121227693D01*
X145329961Y-121227693D02*
X145282342Y-121275312D01*
X144425200Y-121656265D02*
X144377580Y-121799122D01*
X144377580Y-121799122D02*
X144377580Y-122037217D01*
X144377580Y-122037217D02*
X144425200Y-122132455D01*
X144425200Y-122132455D02*
X144472819Y-122180074D01*
X144472819Y-122180074D02*
X144568057Y-122227693D01*
X144568057Y-122227693D02*
X144663295Y-122227693D01*
X144663295Y-122227693D02*
X144758533Y-122180074D01*
X144758533Y-122180074D02*
X144806152Y-122132455D01*
X144806152Y-122132455D02*
X144853771Y-122037217D01*
X144853771Y-122037217D02*
X144901390Y-121846741D01*
X144901390Y-121846741D02*
X144949009Y-121751503D01*
X144949009Y-121751503D02*
X144996628Y-121703884D01*
X144996628Y-121703884D02*
X145091866Y-121656265D01*
X145091866Y-121656265D02*
X145187104Y-121656265D01*
X145187104Y-121656265D02*
X145282342Y-121703884D01*
X145282342Y-121703884D02*
X145329961Y-121751503D01*
X145329961Y-121751503D02*
X145377580Y-121846741D01*
X145377580Y-121846741D02*
X145377580Y-122084836D01*
X145377580Y-122084836D02*
X145329961Y-122227693D01*
X145897819Y-121275312D02*
X145850200Y-121227693D01*
X145850200Y-121227693D02*
X145802580Y-121084836D01*
X145802580Y-121084836D02*
X145802580Y-120989598D01*
X145802580Y-120989598D02*
X145850200Y-120846741D01*
X145850200Y-120846741D02*
X145945438Y-120751503D01*
X145945438Y-120751503D02*
X146040676Y-120703884D01*
X146040676Y-120703884D02*
X146231152Y-120656265D01*
X146231152Y-120656265D02*
X146374009Y-120656265D01*
X146374009Y-120656265D02*
X146564485Y-120703884D01*
X146564485Y-120703884D02*
X146659723Y-120751503D01*
X146659723Y-120751503D02*
X146754961Y-120846741D01*
X146754961Y-120846741D02*
X146802580Y-120989598D01*
X146802580Y-120989598D02*
X146802580Y-121084836D01*
X146802580Y-121084836D02*
X146754961Y-121227693D01*
X146754961Y-121227693D02*
X146707342Y-121275312D01*
X145802580Y-122180074D02*
X145802580Y-121703884D01*
X145802580Y-121703884D02*
X146802580Y-121703884D01*
X145802580Y-122513408D02*
X146802580Y-122513408D01*
X145802580Y-123084836D02*
X146374009Y-122656265D01*
X146802580Y-123084836D02*
X146231152Y-122513408D01*
X147302580Y-120703884D02*
X148302580Y-120703884D01*
X148302580Y-120703884D02*
X148302580Y-120941979D01*
X148302580Y-120941979D02*
X148254961Y-121084836D01*
X148254961Y-121084836D02*
X148159723Y-121180074D01*
X148159723Y-121180074D02*
X148064485Y-121227693D01*
X148064485Y-121227693D02*
X147874009Y-121275312D01*
X147874009Y-121275312D02*
X147731152Y-121275312D01*
X147731152Y-121275312D02*
X147540676Y-121227693D01*
X147540676Y-121227693D02*
X147445438Y-121180074D01*
X147445438Y-121180074D02*
X147350200Y-121084836D01*
X147350200Y-121084836D02*
X147302580Y-120941979D01*
X147302580Y-120941979D02*
X147302580Y-120703884D01*
X148302580Y-121894360D02*
X148302580Y-122084836D01*
X148302580Y-122084836D02*
X148254961Y-122180074D01*
X148254961Y-122180074D02*
X148159723Y-122275312D01*
X148159723Y-122275312D02*
X147969247Y-122322931D01*
X147969247Y-122322931D02*
X147635914Y-122322931D01*
X147635914Y-122322931D02*
X147445438Y-122275312D01*
X147445438Y-122275312D02*
X147350200Y-122180074D01*
X147350200Y-122180074D02*
X147302580Y-122084836D01*
X147302580Y-122084836D02*
X147302580Y-121894360D01*
X147302580Y-121894360D02*
X147350200Y-121799122D01*
X147350200Y-121799122D02*
X147445438Y-121703884D01*
X147445438Y-121703884D02*
X147635914Y-121656265D01*
X147635914Y-121656265D02*
X147969247Y-121656265D01*
X147969247Y-121656265D02*
X148159723Y-121703884D01*
X148159723Y-121703884D02*
X148254961Y-121799122D01*
X148254961Y-121799122D02*
X148302580Y-121894360D01*
X158747819Y-121500312D02*
X158700200Y-121452693D01*
X158700200Y-121452693D02*
X158652580Y-121309836D01*
X158652580Y-121309836D02*
X158652580Y-121214598D01*
X158652580Y-121214598D02*
X158700200Y-121071741D01*
X158700200Y-121071741D02*
X158795438Y-120976503D01*
X158795438Y-120976503D02*
X158890676Y-120928884D01*
X158890676Y-120928884D02*
X159081152Y-120881265D01*
X159081152Y-120881265D02*
X159224009Y-120881265D01*
X159224009Y-120881265D02*
X159414485Y-120928884D01*
X159414485Y-120928884D02*
X159509723Y-120976503D01*
X159509723Y-120976503D02*
X159604961Y-121071741D01*
X159604961Y-121071741D02*
X159652580Y-121214598D01*
X159652580Y-121214598D02*
X159652580Y-121309836D01*
X159652580Y-121309836D02*
X159604961Y-121452693D01*
X159604961Y-121452693D02*
X159557342Y-121500312D01*
X158700200Y-121881265D02*
X158652580Y-122024122D01*
X158652580Y-122024122D02*
X158652580Y-122262217D01*
X158652580Y-122262217D02*
X158700200Y-122357455D01*
X158700200Y-122357455D02*
X158747819Y-122405074D01*
X158747819Y-122405074D02*
X158843057Y-122452693D01*
X158843057Y-122452693D02*
X158938295Y-122452693D01*
X158938295Y-122452693D02*
X159033533Y-122405074D01*
X159033533Y-122405074D02*
X159081152Y-122357455D01*
X159081152Y-122357455D02*
X159128771Y-122262217D01*
X159128771Y-122262217D02*
X159176390Y-122071741D01*
X159176390Y-122071741D02*
X159224009Y-121976503D01*
X159224009Y-121976503D02*
X159271628Y-121928884D01*
X159271628Y-121928884D02*
X159366866Y-121881265D01*
X159366866Y-121881265D02*
X159462104Y-121881265D01*
X159462104Y-121881265D02*
X159557342Y-121928884D01*
X159557342Y-121928884D02*
X159604961Y-121976503D01*
X159604961Y-121976503D02*
X159652580Y-122071741D01*
X159652580Y-122071741D02*
X159652580Y-122309836D01*
X159652580Y-122309836D02*
X159604961Y-122452693D01*
X160172819Y-121500312D02*
X160125200Y-121452693D01*
X160125200Y-121452693D02*
X160077580Y-121309836D01*
X160077580Y-121309836D02*
X160077580Y-121214598D01*
X160077580Y-121214598D02*
X160125200Y-121071741D01*
X160125200Y-121071741D02*
X160220438Y-120976503D01*
X160220438Y-120976503D02*
X160315676Y-120928884D01*
X160315676Y-120928884D02*
X160506152Y-120881265D01*
X160506152Y-120881265D02*
X160649009Y-120881265D01*
X160649009Y-120881265D02*
X160839485Y-120928884D01*
X160839485Y-120928884D02*
X160934723Y-120976503D01*
X160934723Y-120976503D02*
X161029961Y-121071741D01*
X161029961Y-121071741D02*
X161077580Y-121214598D01*
X161077580Y-121214598D02*
X161077580Y-121309836D01*
X161077580Y-121309836D02*
X161029961Y-121452693D01*
X161029961Y-121452693D02*
X160982342Y-121500312D01*
X160077580Y-122405074D02*
X160077580Y-121928884D01*
X160077580Y-121928884D02*
X161077580Y-121928884D01*
X160077580Y-122738408D02*
X161077580Y-122738408D01*
X160077580Y-123309836D02*
X160649009Y-122881265D01*
X161077580Y-123309836D02*
X160506152Y-122738408D01*
X161577580Y-120928884D02*
X162577580Y-120928884D01*
X162577580Y-120928884D02*
X162577580Y-121166979D01*
X162577580Y-121166979D02*
X162529961Y-121309836D01*
X162529961Y-121309836D02*
X162434723Y-121405074D01*
X162434723Y-121405074D02*
X162339485Y-121452693D01*
X162339485Y-121452693D02*
X162149009Y-121500312D01*
X162149009Y-121500312D02*
X162006152Y-121500312D01*
X162006152Y-121500312D02*
X161815676Y-121452693D01*
X161815676Y-121452693D02*
X161720438Y-121405074D01*
X161720438Y-121405074D02*
X161625200Y-121309836D01*
X161625200Y-121309836D02*
X161577580Y-121166979D01*
X161577580Y-121166979D02*
X161577580Y-120928884D01*
X162577580Y-122119360D02*
X162577580Y-122309836D01*
X162577580Y-122309836D02*
X162529961Y-122405074D01*
X162529961Y-122405074D02*
X162434723Y-122500312D01*
X162434723Y-122500312D02*
X162244247Y-122547931D01*
X162244247Y-122547931D02*
X161910914Y-122547931D01*
X161910914Y-122547931D02*
X161720438Y-122500312D01*
X161720438Y-122500312D02*
X161625200Y-122405074D01*
X161625200Y-122405074D02*
X161577580Y-122309836D01*
X161577580Y-122309836D02*
X161577580Y-122119360D01*
X161577580Y-122119360D02*
X161625200Y-122024122D01*
X161625200Y-122024122D02*
X161720438Y-121928884D01*
X161720438Y-121928884D02*
X161910914Y-121881265D01*
X161910914Y-121881265D02*
X162244247Y-121881265D01*
X162244247Y-121881265D02*
X162434723Y-121928884D01*
X162434723Y-121928884D02*
X162529961Y-122024122D01*
X162529961Y-122024122D02*
X162577580Y-122119360D01*
X164523295Y-120881265D02*
X164523295Y-121357455D01*
X164237580Y-120786027D02*
X165237580Y-121119360D01*
X165237580Y-121119360D02*
X164237580Y-121452693D01*
X166662580Y-120928884D02*
X167662580Y-120928884D01*
X167662580Y-120928884D02*
X166662580Y-121500312D01*
X166662580Y-121500312D02*
X167662580Y-121500312D01*
X166948295Y-121928884D02*
X166948295Y-122405074D01*
X166662580Y-121833646D02*
X167662580Y-122166979D01*
X167662580Y-122166979D02*
X166662580Y-122500312D01*
X169811390Y-121262217D02*
X169763771Y-121405074D01*
X169763771Y-121405074D02*
X169716152Y-121452693D01*
X169716152Y-121452693D02*
X169620914Y-121500312D01*
X169620914Y-121500312D02*
X169478057Y-121500312D01*
X169478057Y-121500312D02*
X169382819Y-121452693D01*
X169382819Y-121452693D02*
X169335200Y-121405074D01*
X169335200Y-121405074D02*
X169287580Y-121309836D01*
X169287580Y-121309836D02*
X169287580Y-120928884D01*
X169287580Y-120928884D02*
X170287580Y-120928884D01*
X170287580Y-120928884D02*
X170287580Y-121262217D01*
X170287580Y-121262217D02*
X170239961Y-121357455D01*
X170239961Y-121357455D02*
X170192342Y-121405074D01*
X170192342Y-121405074D02*
X170097104Y-121452693D01*
X170097104Y-121452693D02*
X170001866Y-121452693D01*
X170001866Y-121452693D02*
X169906628Y-121405074D01*
X169906628Y-121405074D02*
X169859009Y-121357455D01*
X169859009Y-121357455D02*
X169811390Y-121262217D01*
X169811390Y-121262217D02*
X169811390Y-120928884D01*
X171737580Y-120928884D02*
X172737580Y-120928884D01*
X172737580Y-120928884D02*
X171737580Y-121500312D01*
X171737580Y-121500312D02*
X172737580Y-121500312D01*
X172261390Y-122309836D02*
X172213771Y-122452693D01*
X172213771Y-122452693D02*
X172166152Y-122500312D01*
X172166152Y-122500312D02*
X172070914Y-122547931D01*
X172070914Y-122547931D02*
X171928057Y-122547931D01*
X171928057Y-122547931D02*
X171832819Y-122500312D01*
X171832819Y-122500312D02*
X171785200Y-122452693D01*
X171785200Y-122452693D02*
X171737580Y-122357455D01*
X171737580Y-122357455D02*
X171737580Y-121976503D01*
X171737580Y-121976503D02*
X172737580Y-121976503D01*
X172737580Y-121976503D02*
X172737580Y-122309836D01*
X172737580Y-122309836D02*
X172689961Y-122405074D01*
X172689961Y-122405074D02*
X172642342Y-122452693D01*
X172642342Y-122452693D02*
X172547104Y-122500312D01*
X172547104Y-122500312D02*
X172451866Y-122500312D01*
X172451866Y-122500312D02*
X172356628Y-122452693D01*
X172356628Y-122452693D02*
X172309009Y-122405074D01*
X172309009Y-122405074D02*
X172261390Y-122309836D01*
X172261390Y-122309836D02*
X172261390Y-121976503D01*
X174287580Y-120928884D02*
X175287580Y-120928884D01*
X176862580Y-120928884D02*
X177862580Y-120928884D01*
X177862580Y-120928884D02*
X176862580Y-121500312D01*
X176862580Y-121500312D02*
X177862580Y-121500312D01*
X176862580Y-121976503D02*
X177862580Y-121976503D01*
X180437580Y-120833646D02*
X180437580Y-121452693D01*
X180437580Y-121452693D02*
X180056628Y-121119360D01*
X180056628Y-121119360D02*
X180056628Y-121262217D01*
X180056628Y-121262217D02*
X180009009Y-121357455D01*
X180009009Y-121357455D02*
X179961390Y-121405074D01*
X179961390Y-121405074D02*
X179866152Y-121452693D01*
X179866152Y-121452693D02*
X179628057Y-121452693D01*
X179628057Y-121452693D02*
X179532819Y-121405074D01*
X179532819Y-121405074D02*
X179485200Y-121357455D01*
X179485200Y-121357455D02*
X179437580Y-121262217D01*
X179437580Y-121262217D02*
X179437580Y-120976503D01*
X179437580Y-120976503D02*
X179485200Y-120881265D01*
X179485200Y-120881265D02*
X179532819Y-120833646D01*
X179532819Y-121881265D02*
X179485200Y-121928884D01*
X179485200Y-121928884D02*
X179437580Y-121881265D01*
X179437580Y-121881265D02*
X179485200Y-121833646D01*
X179485200Y-121833646D02*
X179532819Y-121881265D01*
X179532819Y-121881265D02*
X179437580Y-121881265D01*
X180437580Y-122262217D02*
X180437580Y-122881264D01*
X180437580Y-122881264D02*
X180056628Y-122547931D01*
X180056628Y-122547931D02*
X180056628Y-122690788D01*
X180056628Y-122690788D02*
X180009009Y-122786026D01*
X180009009Y-122786026D02*
X179961390Y-122833645D01*
X179961390Y-122833645D02*
X179866152Y-122881264D01*
X179866152Y-122881264D02*
X179628057Y-122881264D01*
X179628057Y-122881264D02*
X179532819Y-122833645D01*
X179532819Y-122833645D02*
X179485200Y-122786026D01*
X179485200Y-122786026D02*
X179437580Y-122690788D01*
X179437580Y-122690788D02*
X179437580Y-122405074D01*
X179437580Y-122405074D02*
X179485200Y-122309836D01*
X179485200Y-122309836D02*
X179532819Y-122262217D01*
X180437580Y-123166979D02*
X179437580Y-123500312D01*
X179437580Y-123500312D02*
X180437580Y-123833645D01*
X182939961Y-121452693D02*
X182987580Y-121357455D01*
X182987580Y-121357455D02*
X182987580Y-121214598D01*
X182987580Y-121214598D02*
X182939961Y-121071741D01*
X182939961Y-121071741D02*
X182844723Y-120976503D01*
X182844723Y-120976503D02*
X182749485Y-120928884D01*
X182749485Y-120928884D02*
X182559009Y-120881265D01*
X182559009Y-120881265D02*
X182416152Y-120881265D01*
X182416152Y-120881265D02*
X182225676Y-120928884D01*
X182225676Y-120928884D02*
X182130438Y-120976503D01*
X182130438Y-120976503D02*
X182035200Y-121071741D01*
X182035200Y-121071741D02*
X181987580Y-121214598D01*
X181987580Y-121214598D02*
X181987580Y-121309836D01*
X181987580Y-121309836D02*
X182035200Y-121452693D01*
X182035200Y-121452693D02*
X182082819Y-121500312D01*
X182082819Y-121500312D02*
X182416152Y-121500312D01*
X182416152Y-121500312D02*
X182416152Y-121309836D01*
X181987580Y-121928884D02*
X182987580Y-121928884D01*
X182987580Y-121928884D02*
X181987580Y-122500312D01*
X181987580Y-122500312D02*
X182987580Y-122500312D01*
X181987580Y-122976503D02*
X182987580Y-122976503D01*
X182987580Y-122976503D02*
X182987580Y-123214598D01*
X182987580Y-123214598D02*
X182939961Y-123357455D01*
X182939961Y-123357455D02*
X182844723Y-123452693D01*
X182844723Y-123452693D02*
X182749485Y-123500312D01*
X182749485Y-123500312D02*
X182559009Y-123547931D01*
X182559009Y-123547931D02*
X182416152Y-123547931D01*
X182416152Y-123547931D02*
X182225676Y-123500312D01*
X182225676Y-123500312D02*
X182130438Y-123452693D01*
X182130438Y-123452693D02*
X182035200Y-123357455D01*
X182035200Y-123357455D02*
X181987580Y-123214598D01*
X181987580Y-123214598D02*
X181987580Y-122976503D01*
X186027580Y-120833646D02*
X186027580Y-121452693D01*
X186027580Y-121452693D02*
X185646628Y-121119360D01*
X185646628Y-121119360D02*
X185646628Y-121262217D01*
X185646628Y-121262217D02*
X185599009Y-121357455D01*
X185599009Y-121357455D02*
X185551390Y-121405074D01*
X185551390Y-121405074D02*
X185456152Y-121452693D01*
X185456152Y-121452693D02*
X185218057Y-121452693D01*
X185218057Y-121452693D02*
X185122819Y-121405074D01*
X185122819Y-121405074D02*
X185075200Y-121357455D01*
X185075200Y-121357455D02*
X185027580Y-121262217D01*
X185027580Y-121262217D02*
X185027580Y-120976503D01*
X185027580Y-120976503D02*
X185075200Y-120881265D01*
X185075200Y-120881265D02*
X185122819Y-120833646D01*
X186027580Y-122309836D02*
X186027580Y-122119360D01*
X186027580Y-122119360D02*
X185979961Y-122024122D01*
X185979961Y-122024122D02*
X185932342Y-121976503D01*
X185932342Y-121976503D02*
X185789485Y-121881265D01*
X185789485Y-121881265D02*
X185599009Y-121833646D01*
X185599009Y-121833646D02*
X185218057Y-121833646D01*
X185218057Y-121833646D02*
X185122819Y-121881265D01*
X185122819Y-121881265D02*
X185075200Y-121928884D01*
X185075200Y-121928884D02*
X185027580Y-122024122D01*
X185027580Y-122024122D02*
X185027580Y-122214598D01*
X185027580Y-122214598D02*
X185075200Y-122309836D01*
X185075200Y-122309836D02*
X185122819Y-122357455D01*
X185122819Y-122357455D02*
X185218057Y-122405074D01*
X185218057Y-122405074D02*
X185456152Y-122405074D01*
X185456152Y-122405074D02*
X185551390Y-122357455D01*
X185551390Y-122357455D02*
X185599009Y-122309836D01*
X185599009Y-122309836D02*
X185646628Y-122214598D01*
X185646628Y-122214598D02*
X185646628Y-122024122D01*
X185646628Y-122024122D02*
X185599009Y-121928884D01*
X185599009Y-121928884D02*
X185551390Y-121881265D01*
X185551390Y-121881265D02*
X185456152Y-121833646D01*
X186027580Y-122690789D02*
X185027580Y-123024122D01*
X185027580Y-123024122D02*
X186027580Y-123357455D01*
D11*
X122710901Y-128090809D02*
X122377568Y-128090809D01*
X122377568Y-128614619D02*
X122377568Y-127614619D01*
X122377568Y-127614619D02*
X122853758Y-127614619D01*
X123568044Y-128090809D02*
X123234711Y-128090809D01*
X123234711Y-128614619D02*
X123234711Y-127614619D01*
X123234711Y-127614619D02*
X123710901Y-127614619D01*
X124663282Y-128519380D02*
X124615663Y-128567000D01*
X124615663Y-128567000D02*
X124472806Y-128614619D01*
X124472806Y-128614619D02*
X124377568Y-128614619D01*
X124377568Y-128614619D02*
X124234711Y-128567000D01*
X124234711Y-128567000D02*
X124139473Y-128471761D01*
X124139473Y-128471761D02*
X124091854Y-128376523D01*
X124091854Y-128376523D02*
X124044235Y-128186047D01*
X124044235Y-128186047D02*
X124044235Y-128043190D01*
X124044235Y-128043190D02*
X124091854Y-127852714D01*
X124091854Y-127852714D02*
X124139473Y-127757476D01*
X124139473Y-127757476D02*
X124234711Y-127662238D01*
X124234711Y-127662238D02*
X124377568Y-127614619D01*
X124377568Y-127614619D02*
X124472806Y-127614619D01*
X124472806Y-127614619D02*
X124615663Y-127662238D01*
X124615663Y-127662238D02*
X124663282Y-127709857D01*
X126425187Y-128519380D02*
X126377568Y-128567000D01*
X126377568Y-128567000D02*
X126234711Y-128614619D01*
X126234711Y-128614619D02*
X126139473Y-128614619D01*
X126139473Y-128614619D02*
X125996616Y-128567000D01*
X125996616Y-128567000D02*
X125901378Y-128471761D01*
X125901378Y-128471761D02*
X125853759Y-128376523D01*
X125853759Y-128376523D02*
X125806140Y-128186047D01*
X125806140Y-128186047D02*
X125806140Y-128043190D01*
X125806140Y-128043190D02*
X125853759Y-127852714D01*
X125853759Y-127852714D02*
X125901378Y-127757476D01*
X125901378Y-127757476D02*
X125996616Y-127662238D01*
X125996616Y-127662238D02*
X126139473Y-127614619D01*
X126139473Y-127614619D02*
X126234711Y-127614619D01*
X126234711Y-127614619D02*
X126377568Y-127662238D01*
X126377568Y-127662238D02*
X126425187Y-127709857D01*
X127044235Y-127614619D02*
X127234711Y-127614619D01*
X127234711Y-127614619D02*
X127329949Y-127662238D01*
X127329949Y-127662238D02*
X127425187Y-127757476D01*
X127425187Y-127757476D02*
X127472806Y-127947952D01*
X127472806Y-127947952D02*
X127472806Y-128281285D01*
X127472806Y-128281285D02*
X127425187Y-128471761D01*
X127425187Y-128471761D02*
X127329949Y-128567000D01*
X127329949Y-128567000D02*
X127234711Y-128614619D01*
X127234711Y-128614619D02*
X127044235Y-128614619D01*
X127044235Y-128614619D02*
X126948997Y-128567000D01*
X126948997Y-128567000D02*
X126853759Y-128471761D01*
X126853759Y-128471761D02*
X126806140Y-128281285D01*
X126806140Y-128281285D02*
X126806140Y-127947952D01*
X126806140Y-127947952D02*
X126853759Y-127757476D01*
X126853759Y-127757476D02*
X126948997Y-127662238D01*
X126948997Y-127662238D02*
X127044235Y-127614619D01*
X127901378Y-128614619D02*
X127901378Y-127614619D01*
X127901378Y-127614619D02*
X128472806Y-128614619D01*
X128472806Y-128614619D02*
X128472806Y-127614619D01*
X128948997Y-128614619D02*
X128948997Y-127614619D01*
X128948997Y-127614619D02*
X129520425Y-128614619D01*
X129520425Y-128614619D02*
X129520425Y-127614619D01*
X129996616Y-128090809D02*
X130329949Y-128090809D01*
X130472806Y-128614619D02*
X129996616Y-128614619D01*
X129996616Y-128614619D02*
X129996616Y-127614619D01*
X129996616Y-127614619D02*
X130472806Y-127614619D01*
X131472806Y-128519380D02*
X131425187Y-128567000D01*
X131425187Y-128567000D02*
X131282330Y-128614619D01*
X131282330Y-128614619D02*
X131187092Y-128614619D01*
X131187092Y-128614619D02*
X131044235Y-128567000D01*
X131044235Y-128567000D02*
X130948997Y-128471761D01*
X130948997Y-128471761D02*
X130901378Y-128376523D01*
X130901378Y-128376523D02*
X130853759Y-128186047D01*
X130853759Y-128186047D02*
X130853759Y-128043190D01*
X130853759Y-128043190D02*
X130901378Y-127852714D01*
X130901378Y-127852714D02*
X130948997Y-127757476D01*
X130948997Y-127757476D02*
X131044235Y-127662238D01*
X131044235Y-127662238D02*
X131187092Y-127614619D01*
X131187092Y-127614619D02*
X131282330Y-127614619D01*
X131282330Y-127614619D02*
X131425187Y-127662238D01*
X131425187Y-127662238D02*
X131472806Y-127709857D01*
X131758521Y-127614619D02*
X132329949Y-127614619D01*
X132044235Y-128614619D02*
X132044235Y-127614619D01*
X132853759Y-127614619D02*
X133044235Y-127614619D01*
X133044235Y-127614619D02*
X133139473Y-127662238D01*
X133139473Y-127662238D02*
X133234711Y-127757476D01*
X133234711Y-127757476D02*
X133282330Y-127947952D01*
X133282330Y-127947952D02*
X133282330Y-128281285D01*
X133282330Y-128281285D02*
X133234711Y-128471761D01*
X133234711Y-128471761D02*
X133139473Y-128567000D01*
X133139473Y-128567000D02*
X133044235Y-128614619D01*
X133044235Y-128614619D02*
X132853759Y-128614619D01*
X132853759Y-128614619D02*
X132758521Y-128567000D01*
X132758521Y-128567000D02*
X132663283Y-128471761D01*
X132663283Y-128471761D02*
X132615664Y-128281285D01*
X132615664Y-128281285D02*
X132615664Y-127947952D01*
X132615664Y-127947952D02*
X132663283Y-127757476D01*
X132663283Y-127757476D02*
X132758521Y-127662238D01*
X132758521Y-127662238D02*
X132853759Y-127614619D01*
X134282330Y-128614619D02*
X133948997Y-128138428D01*
X133710902Y-128614619D02*
X133710902Y-127614619D01*
X133710902Y-127614619D02*
X134091854Y-127614619D01*
X134091854Y-127614619D02*
X134187092Y-127662238D01*
X134187092Y-127662238D02*
X134234711Y-127709857D01*
X134234711Y-127709857D02*
X134282330Y-127805095D01*
X134282330Y-127805095D02*
X134282330Y-127947952D01*
X134282330Y-127947952D02*
X134234711Y-128043190D01*
X134234711Y-128043190D02*
X134187092Y-128090809D01*
X134187092Y-128090809D02*
X134091854Y-128138428D01*
X134091854Y-128138428D02*
X133710902Y-128138428D01*
X128652568Y-96383666D02*
X129414473Y-96383666D01*
X129033520Y-96764619D02*
X129033520Y-96002714D01*
X152015663Y-126828064D02*
X152015663Y-125399492D01*
X152729949Y-126494731D02*
X152729949Y-125494731D01*
X152729949Y-125494731D02*
X153301377Y-126494731D01*
X153301377Y-126494731D02*
X153301377Y-125494731D01*
X153729949Y-126209016D02*
X154206139Y-126209016D01*
X153634711Y-126494731D02*
X153968044Y-125494731D01*
X153968044Y-125494731D02*
X154301377Y-126494731D01*
X154634711Y-126494731D02*
X154634711Y-125494731D01*
X154634711Y-125494731D02*
X155206139Y-126494731D01*
X155206139Y-126494731D02*
X155206139Y-125494731D01*
X155872806Y-125494731D02*
X156063282Y-125494731D01*
X156063282Y-125494731D02*
X156158520Y-125542350D01*
X156158520Y-125542350D02*
X156253758Y-125637588D01*
X156253758Y-125637588D02*
X156301377Y-125828064D01*
X156301377Y-125828064D02*
X156301377Y-126161397D01*
X156301377Y-126161397D02*
X156253758Y-126351873D01*
X156253758Y-126351873D02*
X156158520Y-126447112D01*
X156158520Y-126447112D02*
X156063282Y-126494731D01*
X156063282Y-126494731D02*
X155872806Y-126494731D01*
X155872806Y-126494731D02*
X155777568Y-126447112D01*
X155777568Y-126447112D02*
X155682330Y-126351873D01*
X155682330Y-126351873D02*
X155634711Y-126161397D01*
X155634711Y-126161397D02*
X155634711Y-125828064D01*
X155634711Y-125828064D02*
X155682330Y-125637588D01*
X155682330Y-125637588D02*
X155777568Y-125542350D01*
X155777568Y-125542350D02*
X155872806Y-125494731D01*
X156729949Y-126113778D02*
X157491854Y-126113778D01*
X158539472Y-126399492D02*
X158491853Y-126447112D01*
X158491853Y-126447112D02*
X158348996Y-126494731D01*
X158348996Y-126494731D02*
X158253758Y-126494731D01*
X158253758Y-126494731D02*
X158110901Y-126447112D01*
X158110901Y-126447112D02*
X158015663Y-126351873D01*
X158015663Y-126351873D02*
X157968044Y-126256635D01*
X157968044Y-126256635D02*
X157920425Y-126066159D01*
X157920425Y-126066159D02*
X157920425Y-125923302D01*
X157920425Y-125923302D02*
X157968044Y-125732826D01*
X157968044Y-125732826D02*
X158015663Y-125637588D01*
X158015663Y-125637588D02*
X158110901Y-125542350D01*
X158110901Y-125542350D02*
X158253758Y-125494731D01*
X158253758Y-125494731D02*
X158348996Y-125494731D01*
X158348996Y-125494731D02*
X158491853Y-125542350D01*
X158491853Y-125542350D02*
X158539472Y-125589969D01*
X159158520Y-125494731D02*
X159348996Y-125494731D01*
X159348996Y-125494731D02*
X159444234Y-125542350D01*
X159444234Y-125542350D02*
X159539472Y-125637588D01*
X159539472Y-125637588D02*
X159587091Y-125828064D01*
X159587091Y-125828064D02*
X159587091Y-126161397D01*
X159587091Y-126161397D02*
X159539472Y-126351873D01*
X159539472Y-126351873D02*
X159444234Y-126447112D01*
X159444234Y-126447112D02*
X159348996Y-126494731D01*
X159348996Y-126494731D02*
X159158520Y-126494731D01*
X159158520Y-126494731D02*
X159063282Y-126447112D01*
X159063282Y-126447112D02*
X158968044Y-126351873D01*
X158968044Y-126351873D02*
X158920425Y-126161397D01*
X158920425Y-126161397D02*
X158920425Y-125828064D01*
X158920425Y-125828064D02*
X158968044Y-125637588D01*
X158968044Y-125637588D02*
X159063282Y-125542350D01*
X159063282Y-125542350D02*
X159158520Y-125494731D01*
X160587091Y-126494731D02*
X160253758Y-126018540D01*
X160015663Y-126494731D02*
X160015663Y-125494731D01*
X160015663Y-125494731D02*
X160396615Y-125494731D01*
X160396615Y-125494731D02*
X160491853Y-125542350D01*
X160491853Y-125542350D02*
X160539472Y-125589969D01*
X160539472Y-125589969D02*
X160587091Y-125685207D01*
X160587091Y-125685207D02*
X160587091Y-125828064D01*
X160587091Y-125828064D02*
X160539472Y-125923302D01*
X160539472Y-125923302D02*
X160491853Y-125970921D01*
X160491853Y-125970921D02*
X160396615Y-126018540D01*
X160396615Y-126018540D02*
X160015663Y-126018540D01*
X161015663Y-125970921D02*
X161348996Y-125970921D01*
X161491853Y-126494731D02*
X161015663Y-126494731D01*
X161015663Y-126494731D02*
X161015663Y-125494731D01*
X161015663Y-125494731D02*
X161491853Y-125494731D01*
X162539473Y-125494731D02*
X162872806Y-126494731D01*
X162872806Y-126494731D02*
X163206139Y-125494731D01*
X163968044Y-125828064D02*
X163968044Y-126494731D01*
X163729949Y-125447112D02*
X163491854Y-126161397D01*
X163491854Y-126161397D02*
X164110901Y-126161397D01*
X152015663Y-128438008D02*
X152015663Y-127009436D01*
X153063282Y-127580865D02*
X153206139Y-127628484D01*
X153206139Y-127628484D02*
X153253758Y-127676103D01*
X153253758Y-127676103D02*
X153301377Y-127771341D01*
X153301377Y-127771341D02*
X153301377Y-127914198D01*
X153301377Y-127914198D02*
X153253758Y-128009436D01*
X153253758Y-128009436D02*
X153206139Y-128057056D01*
X153206139Y-128057056D02*
X153110901Y-128104675D01*
X153110901Y-128104675D02*
X152729949Y-128104675D01*
X152729949Y-128104675D02*
X152729949Y-127104675D01*
X152729949Y-127104675D02*
X153063282Y-127104675D01*
X153063282Y-127104675D02*
X153158520Y-127152294D01*
X153158520Y-127152294D02*
X153206139Y-127199913D01*
X153206139Y-127199913D02*
X153253758Y-127295151D01*
X153253758Y-127295151D02*
X153253758Y-127390389D01*
X153253758Y-127390389D02*
X153206139Y-127485627D01*
X153206139Y-127485627D02*
X153158520Y-127533246D01*
X153158520Y-127533246D02*
X153063282Y-127580865D01*
X153063282Y-127580865D02*
X152729949Y-127580865D01*
X153920425Y-127104675D02*
X154110901Y-127104675D01*
X154110901Y-127104675D02*
X154206139Y-127152294D01*
X154206139Y-127152294D02*
X154301377Y-127247532D01*
X154301377Y-127247532D02*
X154348996Y-127438008D01*
X154348996Y-127438008D02*
X154348996Y-127771341D01*
X154348996Y-127771341D02*
X154301377Y-127961817D01*
X154301377Y-127961817D02*
X154206139Y-128057056D01*
X154206139Y-128057056D02*
X154110901Y-128104675D01*
X154110901Y-128104675D02*
X153920425Y-128104675D01*
X153920425Y-128104675D02*
X153825187Y-128057056D01*
X153825187Y-128057056D02*
X153729949Y-127961817D01*
X153729949Y-127961817D02*
X153682330Y-127771341D01*
X153682330Y-127771341D02*
X153682330Y-127438008D01*
X153682330Y-127438008D02*
X153729949Y-127247532D01*
X153729949Y-127247532D02*
X153825187Y-127152294D01*
X153825187Y-127152294D02*
X153920425Y-127104675D01*
X154682330Y-127104675D02*
X154920425Y-128104675D01*
X154920425Y-128104675D02*
X155110901Y-127390389D01*
X155110901Y-127390389D02*
X155301377Y-128104675D01*
X155301377Y-128104675D02*
X155539473Y-127104675D01*
X155920425Y-127580865D02*
X156253758Y-127580865D01*
X156396615Y-128104675D02*
X155920425Y-128104675D01*
X155920425Y-128104675D02*
X155920425Y-127104675D01*
X155920425Y-127104675D02*
X156396615Y-127104675D01*
X156825187Y-128104675D02*
X156825187Y-127104675D01*
X156825187Y-127104675D02*
X157396615Y-128104675D01*
X157396615Y-128104675D02*
X157396615Y-127104675D01*
X158539473Y-127104675D02*
X159206139Y-127104675D01*
X159206139Y-127104675D02*
X158539473Y-128104675D01*
X158539473Y-128104675D02*
X159206139Y-128104675D01*
X159587092Y-128104675D02*
X159587092Y-127104675D01*
X159587092Y-127580865D02*
X160158520Y-127580865D01*
X160158520Y-128104675D02*
X160158520Y-127104675D01*
X160634711Y-127580865D02*
X160968044Y-127580865D01*
X161110901Y-128104675D02*
X160634711Y-128104675D01*
X160634711Y-128104675D02*
X160634711Y-127104675D01*
X160634711Y-127104675D02*
X161110901Y-127104675D01*
X161539473Y-128104675D02*
X161539473Y-127104675D01*
X161539473Y-127104675D02*
X162110901Y-128104675D01*
X162110901Y-128104675D02*
X162110901Y-127104675D01*
X163110901Y-127152294D02*
X163015663Y-127104675D01*
X163015663Y-127104675D02*
X162872806Y-127104675D01*
X162872806Y-127104675D02*
X162729949Y-127152294D01*
X162729949Y-127152294D02*
X162634711Y-127247532D01*
X162634711Y-127247532D02*
X162587092Y-127342770D01*
X162587092Y-127342770D02*
X162539473Y-127533246D01*
X162539473Y-127533246D02*
X162539473Y-127676103D01*
X162539473Y-127676103D02*
X162587092Y-127866579D01*
X162587092Y-127866579D02*
X162634711Y-127961817D01*
X162634711Y-127961817D02*
X162729949Y-128057056D01*
X162729949Y-128057056D02*
X162872806Y-128104675D01*
X162872806Y-128104675D02*
X162968044Y-128104675D01*
X162968044Y-128104675D02*
X163110901Y-128057056D01*
X163110901Y-128057056D02*
X163158520Y-128009436D01*
X163158520Y-128009436D02*
X163158520Y-127676103D01*
X163158520Y-127676103D02*
X162968044Y-127676103D01*
X152015663Y-130047952D02*
X152015663Y-128619380D01*
X153158520Y-128714619D02*
X152968044Y-128714619D01*
X152968044Y-128714619D02*
X152872806Y-128762238D01*
X152872806Y-128762238D02*
X152825187Y-128809857D01*
X152825187Y-128809857D02*
X152729949Y-128952714D01*
X152729949Y-128952714D02*
X152682330Y-129143190D01*
X152682330Y-129143190D02*
X152682330Y-129524142D01*
X152682330Y-129524142D02*
X152729949Y-129619380D01*
X152729949Y-129619380D02*
X152777568Y-129667000D01*
X152777568Y-129667000D02*
X152872806Y-129714619D01*
X152872806Y-129714619D02*
X153063282Y-129714619D01*
X153063282Y-129714619D02*
X153158520Y-129667000D01*
X153158520Y-129667000D02*
X153206139Y-129619380D01*
X153206139Y-129619380D02*
X153253758Y-129524142D01*
X153253758Y-129524142D02*
X153253758Y-129286047D01*
X153253758Y-129286047D02*
X153206139Y-129190809D01*
X153206139Y-129190809D02*
X153158520Y-129143190D01*
X153158520Y-129143190D02*
X153063282Y-129095571D01*
X153063282Y-129095571D02*
X152872806Y-129095571D01*
X152872806Y-129095571D02*
X152777568Y-129143190D01*
X152777568Y-129143190D02*
X152729949Y-129190809D01*
X152729949Y-129190809D02*
X152682330Y-129286047D01*
X153682330Y-129619380D02*
X153729949Y-129667000D01*
X153729949Y-129667000D02*
X153682330Y-129714619D01*
X153682330Y-129714619D02*
X153634711Y-129667000D01*
X153634711Y-129667000D02*
X153682330Y-129619380D01*
X153682330Y-129619380D02*
X153682330Y-129714619D01*
X154110901Y-128809857D02*
X154158520Y-128762238D01*
X154158520Y-128762238D02*
X154253758Y-128714619D01*
X154253758Y-128714619D02*
X154491853Y-128714619D01*
X154491853Y-128714619D02*
X154587091Y-128762238D01*
X154587091Y-128762238D02*
X154634710Y-128809857D01*
X154634710Y-128809857D02*
X154682329Y-128905095D01*
X154682329Y-128905095D02*
X154682329Y-129000333D01*
X154682329Y-129000333D02*
X154634710Y-129143190D01*
X154634710Y-129143190D02*
X154063282Y-129714619D01*
X154063282Y-129714619D02*
X154682329Y-129714619D01*
X155301377Y-128714619D02*
X155396615Y-128714619D01*
X155396615Y-128714619D02*
X155491853Y-128762238D01*
X155491853Y-128762238D02*
X155539472Y-128809857D01*
X155539472Y-128809857D02*
X155587091Y-128905095D01*
X155587091Y-128905095D02*
X155634710Y-129095571D01*
X155634710Y-129095571D02*
X155634710Y-129333666D01*
X155634710Y-129333666D02*
X155587091Y-129524142D01*
X155587091Y-129524142D02*
X155539472Y-129619380D01*
X155539472Y-129619380D02*
X155491853Y-129667000D01*
X155491853Y-129667000D02*
X155396615Y-129714619D01*
X155396615Y-129714619D02*
X155301377Y-129714619D01*
X155301377Y-129714619D02*
X155206139Y-129667000D01*
X155206139Y-129667000D02*
X155158520Y-129619380D01*
X155158520Y-129619380D02*
X155110901Y-129524142D01*
X155110901Y-129524142D02*
X155063282Y-129333666D01*
X155063282Y-129333666D02*
X155063282Y-129095571D01*
X155063282Y-129095571D02*
X155110901Y-128905095D01*
X155110901Y-128905095D02*
X155158520Y-128809857D01*
X155158520Y-128809857D02*
X155206139Y-128762238D01*
X155206139Y-128762238D02*
X155301377Y-128714619D01*
X156063282Y-129619380D02*
X156110901Y-129667000D01*
X156110901Y-129667000D02*
X156063282Y-129714619D01*
X156063282Y-129714619D02*
X156015663Y-129667000D01*
X156015663Y-129667000D02*
X156063282Y-129619380D01*
X156063282Y-129619380D02*
X156063282Y-129714619D01*
X156491853Y-128809857D02*
X156539472Y-128762238D01*
X156539472Y-128762238D02*
X156634710Y-128714619D01*
X156634710Y-128714619D02*
X156872805Y-128714619D01*
X156872805Y-128714619D02*
X156968043Y-128762238D01*
X156968043Y-128762238D02*
X157015662Y-128809857D01*
X157015662Y-128809857D02*
X157063281Y-128905095D01*
X157063281Y-128905095D02*
X157063281Y-129000333D01*
X157063281Y-129000333D02*
X157015662Y-129143190D01*
X157015662Y-129143190D02*
X156444234Y-129714619D01*
X156444234Y-129714619D02*
X157063281Y-129714619D01*
X157920424Y-128714619D02*
X157729948Y-128714619D01*
X157729948Y-128714619D02*
X157634710Y-128762238D01*
X157634710Y-128762238D02*
X157587091Y-128809857D01*
X157587091Y-128809857D02*
X157491853Y-128952714D01*
X157491853Y-128952714D02*
X157444234Y-129143190D01*
X157444234Y-129143190D02*
X157444234Y-129524142D01*
X157444234Y-129524142D02*
X157491853Y-129619380D01*
X157491853Y-129619380D02*
X157539472Y-129667000D01*
X157539472Y-129667000D02*
X157634710Y-129714619D01*
X157634710Y-129714619D02*
X157825186Y-129714619D01*
X157825186Y-129714619D02*
X157920424Y-129667000D01*
X157920424Y-129667000D02*
X157968043Y-129619380D01*
X157968043Y-129619380D02*
X158015662Y-129524142D01*
X158015662Y-129524142D02*
X158015662Y-129286047D01*
X158015662Y-129286047D02*
X157968043Y-129190809D01*
X157968043Y-129190809D02*
X157920424Y-129143190D01*
X157920424Y-129143190D02*
X157825186Y-129095571D01*
X157825186Y-129095571D02*
X157634710Y-129095571D01*
X157634710Y-129095571D02*
X157539472Y-129143190D01*
X157539472Y-129143190D02*
X157491853Y-129190809D01*
X157491853Y-129190809D02*
X157444234Y-129286047D01*
X173152568Y-116558666D02*
X173914473Y-116558666D01*
X173533520Y-116939619D02*
X173533520Y-116177714D01*
X174652568Y-70279675D02*
X174652568Y-69279675D01*
X174652568Y-69279675D02*
X175033520Y-69279675D01*
X175033520Y-69279675D02*
X175128758Y-69327294D01*
X175128758Y-69327294D02*
X175176377Y-69374913D01*
X175176377Y-69374913D02*
X175223996Y-69470151D01*
X175223996Y-69470151D02*
X175223996Y-69613008D01*
X175223996Y-69613008D02*
X175176377Y-69708246D01*
X175176377Y-69708246D02*
X175128758Y-69755865D01*
X175128758Y-69755865D02*
X175033520Y-69803484D01*
X175033520Y-69803484D02*
X174652568Y-69803484D01*
X175843044Y-69279675D02*
X176033520Y-69279675D01*
X176033520Y-69279675D02*
X176128758Y-69327294D01*
X176128758Y-69327294D02*
X176223996Y-69422532D01*
X176223996Y-69422532D02*
X176271615Y-69613008D01*
X176271615Y-69613008D02*
X176271615Y-69946341D01*
X176271615Y-69946341D02*
X176223996Y-70136817D01*
X176223996Y-70136817D02*
X176128758Y-70232056D01*
X176128758Y-70232056D02*
X176033520Y-70279675D01*
X176033520Y-70279675D02*
X175843044Y-70279675D01*
X175843044Y-70279675D02*
X175747806Y-70232056D01*
X175747806Y-70232056D02*
X175652568Y-70136817D01*
X175652568Y-70136817D02*
X175604949Y-69946341D01*
X175604949Y-69946341D02*
X175604949Y-69613008D01*
X175604949Y-69613008D02*
X175652568Y-69422532D01*
X175652568Y-69422532D02*
X175747806Y-69327294D01*
X175747806Y-69327294D02*
X175843044Y-69279675D01*
X176604949Y-69279675D02*
X176843044Y-70279675D01*
X176843044Y-70279675D02*
X177033520Y-69565389D01*
X177033520Y-69565389D02*
X177223996Y-70279675D01*
X177223996Y-70279675D02*
X177462092Y-69279675D01*
X177843044Y-69755865D02*
X178176377Y-69755865D01*
X178319234Y-70279675D02*
X177843044Y-70279675D01*
X177843044Y-70279675D02*
X177843044Y-69279675D01*
X177843044Y-69279675D02*
X178319234Y-69279675D01*
X179319234Y-70279675D02*
X178985901Y-69803484D01*
X178747806Y-70279675D02*
X178747806Y-69279675D01*
X178747806Y-69279675D02*
X179128758Y-69279675D01*
X179128758Y-69279675D02*
X179223996Y-69327294D01*
X179223996Y-69327294D02*
X179271615Y-69374913D01*
X179271615Y-69374913D02*
X179319234Y-69470151D01*
X179319234Y-69470151D02*
X179319234Y-69613008D01*
X179319234Y-69613008D02*
X179271615Y-69708246D01*
X179271615Y-69708246D02*
X179223996Y-69755865D01*
X179223996Y-69755865D02*
X179128758Y-69803484D01*
X179128758Y-69803484D02*
X178747806Y-69803484D01*
X174604949Y-71842000D02*
X174747806Y-71889619D01*
X174747806Y-71889619D02*
X174985901Y-71889619D01*
X174985901Y-71889619D02*
X175081139Y-71842000D01*
X175081139Y-71842000D02*
X175128758Y-71794380D01*
X175128758Y-71794380D02*
X175176377Y-71699142D01*
X175176377Y-71699142D02*
X175176377Y-71603904D01*
X175176377Y-71603904D02*
X175128758Y-71508666D01*
X175128758Y-71508666D02*
X175081139Y-71461047D01*
X175081139Y-71461047D02*
X174985901Y-71413428D01*
X174985901Y-71413428D02*
X174795425Y-71365809D01*
X174795425Y-71365809D02*
X174700187Y-71318190D01*
X174700187Y-71318190D02*
X174652568Y-71270571D01*
X174652568Y-71270571D02*
X174604949Y-71175333D01*
X174604949Y-71175333D02*
X174604949Y-71080095D01*
X174604949Y-71080095D02*
X174652568Y-70984857D01*
X174652568Y-70984857D02*
X174700187Y-70937238D01*
X174700187Y-70937238D02*
X174795425Y-70889619D01*
X174795425Y-70889619D02*
X175033520Y-70889619D01*
X175033520Y-70889619D02*
X175176377Y-70937238D01*
X175604949Y-70889619D02*
X175604949Y-71699142D01*
X175604949Y-71699142D02*
X175652568Y-71794380D01*
X175652568Y-71794380D02*
X175700187Y-71842000D01*
X175700187Y-71842000D02*
X175795425Y-71889619D01*
X175795425Y-71889619D02*
X175985901Y-71889619D01*
X175985901Y-71889619D02*
X176081139Y-71842000D01*
X176081139Y-71842000D02*
X176128758Y-71794380D01*
X176128758Y-71794380D02*
X176176377Y-71699142D01*
X176176377Y-71699142D02*
X176176377Y-70889619D01*
X176652568Y-71889619D02*
X176652568Y-70889619D01*
X176652568Y-70889619D02*
X177033520Y-70889619D01*
X177033520Y-70889619D02*
X177128758Y-70937238D01*
X177128758Y-70937238D02*
X177176377Y-70984857D01*
X177176377Y-70984857D02*
X177223996Y-71080095D01*
X177223996Y-71080095D02*
X177223996Y-71222952D01*
X177223996Y-71222952D02*
X177176377Y-71318190D01*
X177176377Y-71318190D02*
X177128758Y-71365809D01*
X177128758Y-71365809D02*
X177033520Y-71413428D01*
X177033520Y-71413428D02*
X176652568Y-71413428D01*
X177652568Y-71889619D02*
X177652568Y-70889619D01*
X177652568Y-70889619D02*
X178033520Y-70889619D01*
X178033520Y-70889619D02*
X178128758Y-70937238D01*
X178128758Y-70937238D02*
X178176377Y-70984857D01*
X178176377Y-70984857D02*
X178223996Y-71080095D01*
X178223996Y-71080095D02*
X178223996Y-71222952D01*
X178223996Y-71222952D02*
X178176377Y-71318190D01*
X178176377Y-71318190D02*
X178128758Y-71365809D01*
X178128758Y-71365809D02*
X178033520Y-71413428D01*
X178033520Y-71413428D02*
X177652568Y-71413428D01*
X179128758Y-71889619D02*
X178652568Y-71889619D01*
X178652568Y-71889619D02*
X178652568Y-70889619D01*
X179652568Y-71413428D02*
X179652568Y-71889619D01*
X179319235Y-70889619D02*
X179652568Y-71413428D01*
X179652568Y-71413428D02*
X179985901Y-70889619D01*
X174852568Y-85819731D02*
X174852568Y-84819731D01*
X174852568Y-84819731D02*
X175233520Y-84819731D01*
X175233520Y-84819731D02*
X175328758Y-84867350D01*
X175328758Y-84867350D02*
X175376377Y-84914969D01*
X175376377Y-84914969D02*
X175423996Y-85010207D01*
X175423996Y-85010207D02*
X175423996Y-85153064D01*
X175423996Y-85153064D02*
X175376377Y-85248302D01*
X175376377Y-85248302D02*
X175328758Y-85295921D01*
X175328758Y-85295921D02*
X175233520Y-85343540D01*
X175233520Y-85343540D02*
X174852568Y-85343540D01*
X176043044Y-84819731D02*
X176233520Y-84819731D01*
X176233520Y-84819731D02*
X176328758Y-84867350D01*
X176328758Y-84867350D02*
X176423996Y-84962588D01*
X176423996Y-84962588D02*
X176471615Y-85153064D01*
X176471615Y-85153064D02*
X176471615Y-85486397D01*
X176471615Y-85486397D02*
X176423996Y-85676873D01*
X176423996Y-85676873D02*
X176328758Y-85772112D01*
X176328758Y-85772112D02*
X176233520Y-85819731D01*
X176233520Y-85819731D02*
X176043044Y-85819731D01*
X176043044Y-85819731D02*
X175947806Y-85772112D01*
X175947806Y-85772112D02*
X175852568Y-85676873D01*
X175852568Y-85676873D02*
X175804949Y-85486397D01*
X175804949Y-85486397D02*
X175804949Y-85153064D01*
X175804949Y-85153064D02*
X175852568Y-84962588D01*
X175852568Y-84962588D02*
X175947806Y-84867350D01*
X175947806Y-84867350D02*
X176043044Y-84819731D01*
X176804949Y-84819731D02*
X177043044Y-85819731D01*
X177043044Y-85819731D02*
X177233520Y-85105445D01*
X177233520Y-85105445D02*
X177423996Y-85819731D01*
X177423996Y-85819731D02*
X177662092Y-84819731D01*
X178043044Y-85295921D02*
X178376377Y-85295921D01*
X178519234Y-85819731D02*
X178043044Y-85819731D01*
X178043044Y-85819731D02*
X178043044Y-84819731D01*
X178043044Y-84819731D02*
X178519234Y-84819731D01*
X179519234Y-85819731D02*
X179185901Y-85343540D01*
X178947806Y-85819731D02*
X178947806Y-84819731D01*
X178947806Y-84819731D02*
X179328758Y-84819731D01*
X179328758Y-84819731D02*
X179423996Y-84867350D01*
X179423996Y-84867350D02*
X179471615Y-84914969D01*
X179471615Y-84914969D02*
X179519234Y-85010207D01*
X179519234Y-85010207D02*
X179519234Y-85153064D01*
X179519234Y-85153064D02*
X179471615Y-85248302D01*
X179471615Y-85248302D02*
X179423996Y-85295921D01*
X179423996Y-85295921D02*
X179328758Y-85343540D01*
X179328758Y-85343540D02*
X178947806Y-85343540D01*
X174852568Y-87429675D02*
X174852568Y-86429675D01*
X174852568Y-86429675D02*
X175090663Y-86429675D01*
X175090663Y-86429675D02*
X175233520Y-86477294D01*
X175233520Y-86477294D02*
X175328758Y-86572532D01*
X175328758Y-86572532D02*
X175376377Y-86667770D01*
X175376377Y-86667770D02*
X175423996Y-86858246D01*
X175423996Y-86858246D02*
X175423996Y-87001103D01*
X175423996Y-87001103D02*
X175376377Y-87191579D01*
X175376377Y-87191579D02*
X175328758Y-87286817D01*
X175328758Y-87286817D02*
X175233520Y-87382056D01*
X175233520Y-87382056D02*
X175090663Y-87429675D01*
X175090663Y-87429675D02*
X174852568Y-87429675D01*
X175852568Y-86905865D02*
X176185901Y-86905865D01*
X176328758Y-87429675D02*
X175852568Y-87429675D01*
X175852568Y-87429675D02*
X175852568Y-86429675D01*
X175852568Y-86429675D02*
X176328758Y-86429675D01*
X177328758Y-87334436D02*
X177281139Y-87382056D01*
X177281139Y-87382056D02*
X177138282Y-87429675D01*
X177138282Y-87429675D02*
X177043044Y-87429675D01*
X177043044Y-87429675D02*
X176900187Y-87382056D01*
X176900187Y-87382056D02*
X176804949Y-87286817D01*
X176804949Y-87286817D02*
X176757330Y-87191579D01*
X176757330Y-87191579D02*
X176709711Y-87001103D01*
X176709711Y-87001103D02*
X176709711Y-86858246D01*
X176709711Y-86858246D02*
X176757330Y-86667770D01*
X176757330Y-86667770D02*
X176804949Y-86572532D01*
X176804949Y-86572532D02*
X176900187Y-86477294D01*
X176900187Y-86477294D02*
X177043044Y-86429675D01*
X177043044Y-86429675D02*
X177138282Y-86429675D01*
X177138282Y-86429675D02*
X177281139Y-86477294D01*
X177281139Y-86477294D02*
X177328758Y-86524913D01*
X177947806Y-86429675D02*
X178138282Y-86429675D01*
X178138282Y-86429675D02*
X178233520Y-86477294D01*
X178233520Y-86477294D02*
X178328758Y-86572532D01*
X178328758Y-86572532D02*
X178376377Y-86763008D01*
X178376377Y-86763008D02*
X178376377Y-87096341D01*
X178376377Y-87096341D02*
X178328758Y-87286817D01*
X178328758Y-87286817D02*
X178233520Y-87382056D01*
X178233520Y-87382056D02*
X178138282Y-87429675D01*
X178138282Y-87429675D02*
X177947806Y-87429675D01*
X177947806Y-87429675D02*
X177852568Y-87382056D01*
X177852568Y-87382056D02*
X177757330Y-87286817D01*
X177757330Y-87286817D02*
X177709711Y-87096341D01*
X177709711Y-87096341D02*
X177709711Y-86763008D01*
X177709711Y-86763008D02*
X177757330Y-86572532D01*
X177757330Y-86572532D02*
X177852568Y-86477294D01*
X177852568Y-86477294D02*
X177947806Y-86429675D01*
X178804949Y-86429675D02*
X178804949Y-87239198D01*
X178804949Y-87239198D02*
X178852568Y-87334436D01*
X178852568Y-87334436D02*
X178900187Y-87382056D01*
X178900187Y-87382056D02*
X178995425Y-87429675D01*
X178995425Y-87429675D02*
X179185901Y-87429675D01*
X179185901Y-87429675D02*
X179281139Y-87382056D01*
X179281139Y-87382056D02*
X179328758Y-87334436D01*
X179328758Y-87334436D02*
X179376377Y-87239198D01*
X179376377Y-87239198D02*
X179376377Y-86429675D01*
X179852568Y-87429675D02*
X179852568Y-86429675D01*
X179852568Y-86429675D02*
X180233520Y-86429675D01*
X180233520Y-86429675D02*
X180328758Y-86477294D01*
X180328758Y-86477294D02*
X180376377Y-86524913D01*
X180376377Y-86524913D02*
X180423996Y-86620151D01*
X180423996Y-86620151D02*
X180423996Y-86763008D01*
X180423996Y-86763008D02*
X180376377Y-86858246D01*
X180376377Y-86858246D02*
X180328758Y-86905865D01*
X180328758Y-86905865D02*
X180233520Y-86953484D01*
X180233520Y-86953484D02*
X179852568Y-86953484D01*
X181328758Y-87429675D02*
X180852568Y-87429675D01*
X180852568Y-87429675D02*
X180852568Y-86429675D01*
X181662092Y-87429675D02*
X181662092Y-86429675D01*
X182138282Y-87429675D02*
X182138282Y-86429675D01*
X182138282Y-86429675D02*
X182709710Y-87429675D01*
X182709710Y-87429675D02*
X182709710Y-86429675D01*
X183709710Y-86477294D02*
X183614472Y-86429675D01*
X183614472Y-86429675D02*
X183471615Y-86429675D01*
X183471615Y-86429675D02*
X183328758Y-86477294D01*
X183328758Y-86477294D02*
X183233520Y-86572532D01*
X183233520Y-86572532D02*
X183185901Y-86667770D01*
X183185901Y-86667770D02*
X183138282Y-86858246D01*
X183138282Y-86858246D02*
X183138282Y-87001103D01*
X183138282Y-87001103D02*
X183185901Y-87191579D01*
X183185901Y-87191579D02*
X183233520Y-87286817D01*
X183233520Y-87286817D02*
X183328758Y-87382056D01*
X183328758Y-87382056D02*
X183471615Y-87429675D01*
X183471615Y-87429675D02*
X183566853Y-87429675D01*
X183566853Y-87429675D02*
X183709710Y-87382056D01*
X183709710Y-87382056D02*
X183757329Y-87334436D01*
X183757329Y-87334436D02*
X183757329Y-87001103D01*
X183757329Y-87001103D02*
X183566853Y-87001103D01*
X175423996Y-88944380D02*
X175376377Y-88992000D01*
X175376377Y-88992000D02*
X175233520Y-89039619D01*
X175233520Y-89039619D02*
X175138282Y-89039619D01*
X175138282Y-89039619D02*
X174995425Y-88992000D01*
X174995425Y-88992000D02*
X174900187Y-88896761D01*
X174900187Y-88896761D02*
X174852568Y-88801523D01*
X174852568Y-88801523D02*
X174804949Y-88611047D01*
X174804949Y-88611047D02*
X174804949Y-88468190D01*
X174804949Y-88468190D02*
X174852568Y-88277714D01*
X174852568Y-88277714D02*
X174900187Y-88182476D01*
X174900187Y-88182476D02*
X174995425Y-88087238D01*
X174995425Y-88087238D02*
X175138282Y-88039619D01*
X175138282Y-88039619D02*
X175233520Y-88039619D01*
X175233520Y-88039619D02*
X175376377Y-88087238D01*
X175376377Y-88087238D02*
X175423996Y-88134857D01*
X175804949Y-88753904D02*
X176281139Y-88753904D01*
X175709711Y-89039619D02*
X176043044Y-88039619D01*
X176043044Y-88039619D02*
X176376377Y-89039619D01*
X176709711Y-89039619D02*
X176709711Y-88039619D01*
X176709711Y-88039619D02*
X177090663Y-88039619D01*
X177090663Y-88039619D02*
X177185901Y-88087238D01*
X177185901Y-88087238D02*
X177233520Y-88134857D01*
X177233520Y-88134857D02*
X177281139Y-88230095D01*
X177281139Y-88230095D02*
X177281139Y-88372952D01*
X177281139Y-88372952D02*
X177233520Y-88468190D01*
X177233520Y-88468190D02*
X177185901Y-88515809D01*
X177185901Y-88515809D02*
X177090663Y-88563428D01*
X177090663Y-88563428D02*
X176709711Y-88563428D01*
X177662092Y-88992000D02*
X177804949Y-89039619D01*
X177804949Y-89039619D02*
X178043044Y-89039619D01*
X178043044Y-89039619D02*
X178138282Y-88992000D01*
X178138282Y-88992000D02*
X178185901Y-88944380D01*
X178185901Y-88944380D02*
X178233520Y-88849142D01*
X178233520Y-88849142D02*
X178233520Y-88753904D01*
X178233520Y-88753904D02*
X178185901Y-88658666D01*
X178185901Y-88658666D02*
X178138282Y-88611047D01*
X178138282Y-88611047D02*
X178043044Y-88563428D01*
X178043044Y-88563428D02*
X177852568Y-88515809D01*
X177852568Y-88515809D02*
X177757330Y-88468190D01*
X177757330Y-88468190D02*
X177709711Y-88420571D01*
X177709711Y-88420571D02*
X177662092Y-88325333D01*
X177662092Y-88325333D02*
X177662092Y-88230095D01*
X177662092Y-88230095D02*
X177709711Y-88134857D01*
X177709711Y-88134857D02*
X177757330Y-88087238D01*
X177757330Y-88087238D02*
X177852568Y-88039619D01*
X177852568Y-88039619D02*
X178090663Y-88039619D01*
X178090663Y-88039619D02*
X178233520Y-88087238D01*
X178127568Y-106458666D02*
X178889473Y-106458666D01*
X178508520Y-106839619D02*
X178508520Y-106077714D01*
X180602568Y-94408666D02*
X181364473Y-94408666D01*
X180983520Y-94789619D02*
X180983520Y-94027714D01*
X184860901Y-128015809D02*
X184527568Y-128015809D01*
X184527568Y-128539619D02*
X184527568Y-127539619D01*
X184527568Y-127539619D02*
X185003758Y-127539619D01*
X185718044Y-128015809D02*
X185384711Y-128015809D01*
X185384711Y-128539619D02*
X185384711Y-127539619D01*
X185384711Y-127539619D02*
X185860901Y-127539619D01*
X186813282Y-128444380D02*
X186765663Y-128492000D01*
X186765663Y-128492000D02*
X186622806Y-128539619D01*
X186622806Y-128539619D02*
X186527568Y-128539619D01*
X186527568Y-128539619D02*
X186384711Y-128492000D01*
X186384711Y-128492000D02*
X186289473Y-128396761D01*
X186289473Y-128396761D02*
X186241854Y-128301523D01*
X186241854Y-128301523D02*
X186194235Y-128111047D01*
X186194235Y-128111047D02*
X186194235Y-127968190D01*
X186194235Y-127968190D02*
X186241854Y-127777714D01*
X186241854Y-127777714D02*
X186289473Y-127682476D01*
X186289473Y-127682476D02*
X186384711Y-127587238D01*
X186384711Y-127587238D02*
X186527568Y-127539619D01*
X186527568Y-127539619D02*
X186622806Y-127539619D01*
X186622806Y-127539619D02*
X186765663Y-127587238D01*
X186765663Y-127587238D02*
X186813282Y-127634857D01*
X188575187Y-128444380D02*
X188527568Y-128492000D01*
X188527568Y-128492000D02*
X188384711Y-128539619D01*
X188384711Y-128539619D02*
X188289473Y-128539619D01*
X188289473Y-128539619D02*
X188146616Y-128492000D01*
X188146616Y-128492000D02*
X188051378Y-128396761D01*
X188051378Y-128396761D02*
X188003759Y-128301523D01*
X188003759Y-128301523D02*
X187956140Y-128111047D01*
X187956140Y-128111047D02*
X187956140Y-127968190D01*
X187956140Y-127968190D02*
X188003759Y-127777714D01*
X188003759Y-127777714D02*
X188051378Y-127682476D01*
X188051378Y-127682476D02*
X188146616Y-127587238D01*
X188146616Y-127587238D02*
X188289473Y-127539619D01*
X188289473Y-127539619D02*
X188384711Y-127539619D01*
X188384711Y-127539619D02*
X188527568Y-127587238D01*
X188527568Y-127587238D02*
X188575187Y-127634857D01*
X189194235Y-127539619D02*
X189384711Y-127539619D01*
X189384711Y-127539619D02*
X189479949Y-127587238D01*
X189479949Y-127587238D02*
X189575187Y-127682476D01*
X189575187Y-127682476D02*
X189622806Y-127872952D01*
X189622806Y-127872952D02*
X189622806Y-128206285D01*
X189622806Y-128206285D02*
X189575187Y-128396761D01*
X189575187Y-128396761D02*
X189479949Y-128492000D01*
X189479949Y-128492000D02*
X189384711Y-128539619D01*
X189384711Y-128539619D02*
X189194235Y-128539619D01*
X189194235Y-128539619D02*
X189098997Y-128492000D01*
X189098997Y-128492000D02*
X189003759Y-128396761D01*
X189003759Y-128396761D02*
X188956140Y-128206285D01*
X188956140Y-128206285D02*
X188956140Y-127872952D01*
X188956140Y-127872952D02*
X189003759Y-127682476D01*
X189003759Y-127682476D02*
X189098997Y-127587238D01*
X189098997Y-127587238D02*
X189194235Y-127539619D01*
X190051378Y-128539619D02*
X190051378Y-127539619D01*
X190051378Y-127539619D02*
X190622806Y-128539619D01*
X190622806Y-128539619D02*
X190622806Y-127539619D01*
X191098997Y-128539619D02*
X191098997Y-127539619D01*
X191098997Y-127539619D02*
X191670425Y-128539619D01*
X191670425Y-128539619D02*
X191670425Y-127539619D01*
X192146616Y-128015809D02*
X192479949Y-128015809D01*
X192622806Y-128539619D02*
X192146616Y-128539619D01*
X192146616Y-128539619D02*
X192146616Y-127539619D01*
X192146616Y-127539619D02*
X192622806Y-127539619D01*
X193622806Y-128444380D02*
X193575187Y-128492000D01*
X193575187Y-128492000D02*
X193432330Y-128539619D01*
X193432330Y-128539619D02*
X193337092Y-128539619D01*
X193337092Y-128539619D02*
X193194235Y-128492000D01*
X193194235Y-128492000D02*
X193098997Y-128396761D01*
X193098997Y-128396761D02*
X193051378Y-128301523D01*
X193051378Y-128301523D02*
X193003759Y-128111047D01*
X193003759Y-128111047D02*
X193003759Y-127968190D01*
X193003759Y-127968190D02*
X193051378Y-127777714D01*
X193051378Y-127777714D02*
X193098997Y-127682476D01*
X193098997Y-127682476D02*
X193194235Y-127587238D01*
X193194235Y-127587238D02*
X193337092Y-127539619D01*
X193337092Y-127539619D02*
X193432330Y-127539619D01*
X193432330Y-127539619D02*
X193575187Y-127587238D01*
X193575187Y-127587238D02*
X193622806Y-127634857D01*
X193908521Y-127539619D02*
X194479949Y-127539619D01*
X194194235Y-128539619D02*
X194194235Y-127539619D01*
X195003759Y-127539619D02*
X195194235Y-127539619D01*
X195194235Y-127539619D02*
X195289473Y-127587238D01*
X195289473Y-127587238D02*
X195384711Y-127682476D01*
X195384711Y-127682476D02*
X195432330Y-127872952D01*
X195432330Y-127872952D02*
X195432330Y-128206285D01*
X195432330Y-128206285D02*
X195384711Y-128396761D01*
X195384711Y-128396761D02*
X195289473Y-128492000D01*
X195289473Y-128492000D02*
X195194235Y-128539619D01*
X195194235Y-128539619D02*
X195003759Y-128539619D01*
X195003759Y-128539619D02*
X194908521Y-128492000D01*
X194908521Y-128492000D02*
X194813283Y-128396761D01*
X194813283Y-128396761D02*
X194765664Y-128206285D01*
X194765664Y-128206285D02*
X194765664Y-127872952D01*
X194765664Y-127872952D02*
X194813283Y-127682476D01*
X194813283Y-127682476D02*
X194908521Y-127587238D01*
X194908521Y-127587238D02*
X195003759Y-127539619D01*
X196432330Y-128539619D02*
X196098997Y-128063428D01*
X195860902Y-128539619D02*
X195860902Y-127539619D01*
X195860902Y-127539619D02*
X196241854Y-127539619D01*
X196241854Y-127539619D02*
X196337092Y-127587238D01*
X196337092Y-127587238D02*
X196384711Y-127634857D01*
X196384711Y-127634857D02*
X196432330Y-127730095D01*
X196432330Y-127730095D02*
X196432330Y-127872952D01*
X196432330Y-127872952D02*
X196384711Y-127968190D01*
X196384711Y-127968190D02*
X196337092Y-128015809D01*
X196337092Y-128015809D02*
X196241854Y-128063428D01*
X196241854Y-128063428D02*
X195860902Y-128063428D01*
X186534711Y-65404675D02*
X187106139Y-65404675D01*
X186820425Y-66404675D02*
X186820425Y-65404675D01*
X187439473Y-65880865D02*
X187772806Y-65880865D01*
X187915663Y-66404675D02*
X187439473Y-66404675D01*
X187439473Y-66404675D02*
X187439473Y-65404675D01*
X187439473Y-65404675D02*
X187915663Y-65404675D01*
X188296616Y-66357056D02*
X188439473Y-66404675D01*
X188439473Y-66404675D02*
X188677568Y-66404675D01*
X188677568Y-66404675D02*
X188772806Y-66357056D01*
X188772806Y-66357056D02*
X188820425Y-66309436D01*
X188820425Y-66309436D02*
X188868044Y-66214198D01*
X188868044Y-66214198D02*
X188868044Y-66118960D01*
X188868044Y-66118960D02*
X188820425Y-66023722D01*
X188820425Y-66023722D02*
X188772806Y-65976103D01*
X188772806Y-65976103D02*
X188677568Y-65928484D01*
X188677568Y-65928484D02*
X188487092Y-65880865D01*
X188487092Y-65880865D02*
X188391854Y-65833246D01*
X188391854Y-65833246D02*
X188344235Y-65785627D01*
X188344235Y-65785627D02*
X188296616Y-65690389D01*
X188296616Y-65690389D02*
X188296616Y-65595151D01*
X188296616Y-65595151D02*
X188344235Y-65499913D01*
X188344235Y-65499913D02*
X188391854Y-65452294D01*
X188391854Y-65452294D02*
X188487092Y-65404675D01*
X188487092Y-65404675D02*
X188725187Y-65404675D01*
X188725187Y-65404675D02*
X188868044Y-65452294D01*
X189153759Y-65404675D02*
X189725187Y-65404675D01*
X189439473Y-66404675D02*
X189439473Y-65404675D01*
X186677568Y-68014619D02*
X186677568Y-67014619D01*
X186677568Y-67014619D02*
X187058520Y-67014619D01*
X187058520Y-67014619D02*
X187153758Y-67062238D01*
X187153758Y-67062238D02*
X187201377Y-67109857D01*
X187201377Y-67109857D02*
X187248996Y-67205095D01*
X187248996Y-67205095D02*
X187248996Y-67347952D01*
X187248996Y-67347952D02*
X187201377Y-67443190D01*
X187201377Y-67443190D02*
X187153758Y-67490809D01*
X187153758Y-67490809D02*
X187058520Y-67538428D01*
X187058520Y-67538428D02*
X186677568Y-67538428D01*
X187868044Y-67014619D02*
X188058520Y-67014619D01*
X188058520Y-67014619D02*
X188153758Y-67062238D01*
X188153758Y-67062238D02*
X188248996Y-67157476D01*
X188248996Y-67157476D02*
X188296615Y-67347952D01*
X188296615Y-67347952D02*
X188296615Y-67681285D01*
X188296615Y-67681285D02*
X188248996Y-67871761D01*
X188248996Y-67871761D02*
X188153758Y-67967000D01*
X188153758Y-67967000D02*
X188058520Y-68014619D01*
X188058520Y-68014619D02*
X187868044Y-68014619D01*
X187868044Y-68014619D02*
X187772806Y-67967000D01*
X187772806Y-67967000D02*
X187677568Y-67871761D01*
X187677568Y-67871761D02*
X187629949Y-67681285D01*
X187629949Y-67681285D02*
X187629949Y-67347952D01*
X187629949Y-67347952D02*
X187677568Y-67157476D01*
X187677568Y-67157476D02*
X187772806Y-67062238D01*
X187772806Y-67062238D02*
X187868044Y-67014619D01*
X188725187Y-68014619D02*
X188725187Y-67014619D01*
X189201377Y-68014619D02*
X189201377Y-67014619D01*
X189201377Y-67014619D02*
X189772805Y-68014619D01*
X189772805Y-68014619D02*
X189772805Y-67014619D01*
X190106139Y-67014619D02*
X190677567Y-67014619D01*
X190391853Y-68014619D02*
X190391853Y-67014619D01*
X191276377Y-70087238D02*
X191181139Y-70039619D01*
X191181139Y-70039619D02*
X191038282Y-70039619D01*
X191038282Y-70039619D02*
X190895425Y-70087238D01*
X190895425Y-70087238D02*
X190800187Y-70182476D01*
X190800187Y-70182476D02*
X190752568Y-70277714D01*
X190752568Y-70277714D02*
X190704949Y-70468190D01*
X190704949Y-70468190D02*
X190704949Y-70611047D01*
X190704949Y-70611047D02*
X190752568Y-70801523D01*
X190752568Y-70801523D02*
X190800187Y-70896761D01*
X190800187Y-70896761D02*
X190895425Y-70992000D01*
X190895425Y-70992000D02*
X191038282Y-71039619D01*
X191038282Y-71039619D02*
X191133520Y-71039619D01*
X191133520Y-71039619D02*
X191276377Y-70992000D01*
X191276377Y-70992000D02*
X191323996Y-70944380D01*
X191323996Y-70944380D02*
X191323996Y-70611047D01*
X191323996Y-70611047D02*
X191133520Y-70611047D01*
X191752568Y-71039619D02*
X191752568Y-70039619D01*
X191752568Y-70039619D02*
X192323996Y-71039619D01*
X192323996Y-71039619D02*
X192323996Y-70039619D01*
X192800187Y-71039619D02*
X192800187Y-70039619D01*
X192800187Y-70039619D02*
X193038282Y-70039619D01*
X193038282Y-70039619D02*
X193181139Y-70087238D01*
X193181139Y-70087238D02*
X193276377Y-70182476D01*
X193276377Y-70182476D02*
X193323996Y-70277714D01*
X193323996Y-70277714D02*
X193371615Y-70468190D01*
X193371615Y-70468190D02*
X193371615Y-70611047D01*
X193371615Y-70611047D02*
X193323996Y-70801523D01*
X193323996Y-70801523D02*
X193276377Y-70896761D01*
X193276377Y-70896761D02*
X193181139Y-70992000D01*
X193181139Y-70992000D02*
X193038282Y-71039619D01*
X193038282Y-71039619D02*
X192800187Y-71039619D01*
X190657330Y-72714619D02*
X191276377Y-72714619D01*
X191276377Y-72714619D02*
X190943044Y-73095571D01*
X190943044Y-73095571D02*
X191085901Y-73095571D01*
X191085901Y-73095571D02*
X191181139Y-73143190D01*
X191181139Y-73143190D02*
X191228758Y-73190809D01*
X191228758Y-73190809D02*
X191276377Y-73286047D01*
X191276377Y-73286047D02*
X191276377Y-73524142D01*
X191276377Y-73524142D02*
X191228758Y-73619380D01*
X191228758Y-73619380D02*
X191181139Y-73667000D01*
X191181139Y-73667000D02*
X191085901Y-73714619D01*
X191085901Y-73714619D02*
X190800187Y-73714619D01*
X190800187Y-73714619D02*
X190704949Y-73667000D01*
X190704949Y-73667000D02*
X190657330Y-73619380D01*
X192133520Y-72714619D02*
X191943044Y-72714619D01*
X191943044Y-72714619D02*
X191847806Y-72762238D01*
X191847806Y-72762238D02*
X191800187Y-72809857D01*
X191800187Y-72809857D02*
X191704949Y-72952714D01*
X191704949Y-72952714D02*
X191657330Y-73143190D01*
X191657330Y-73143190D02*
X191657330Y-73524142D01*
X191657330Y-73524142D02*
X191704949Y-73619380D01*
X191704949Y-73619380D02*
X191752568Y-73667000D01*
X191752568Y-73667000D02*
X191847806Y-73714619D01*
X191847806Y-73714619D02*
X192038282Y-73714619D01*
X192038282Y-73714619D02*
X192133520Y-73667000D01*
X192133520Y-73667000D02*
X192181139Y-73619380D01*
X192181139Y-73619380D02*
X192228758Y-73524142D01*
X192228758Y-73524142D02*
X192228758Y-73286047D01*
X192228758Y-73286047D02*
X192181139Y-73190809D01*
X192181139Y-73190809D02*
X192133520Y-73143190D01*
X192133520Y-73143190D02*
X192038282Y-73095571D01*
X192038282Y-73095571D02*
X191847806Y-73095571D01*
X191847806Y-73095571D02*
X191752568Y-73143190D01*
X191752568Y-73143190D02*
X191704949Y-73190809D01*
X191704949Y-73190809D02*
X191657330Y-73286047D01*
X192514473Y-72714619D02*
X192847806Y-73714619D01*
X192847806Y-73714619D02*
X193181139Y-72714619D01*
X193015663Y-119012238D02*
X192920425Y-118964619D01*
X192920425Y-118964619D02*
X192777568Y-118964619D01*
X192777568Y-118964619D02*
X192634711Y-119012238D01*
X192634711Y-119012238D02*
X192539473Y-119107476D01*
X192539473Y-119107476D02*
X192491854Y-119202714D01*
X192491854Y-119202714D02*
X192444235Y-119393190D01*
X192444235Y-119393190D02*
X192444235Y-119536047D01*
X192444235Y-119536047D02*
X192491854Y-119726523D01*
X192491854Y-119726523D02*
X192539473Y-119821761D01*
X192539473Y-119821761D02*
X192634711Y-119917000D01*
X192634711Y-119917000D02*
X192777568Y-119964619D01*
X192777568Y-119964619D02*
X192872806Y-119964619D01*
X192872806Y-119964619D02*
X193015663Y-119917000D01*
X193015663Y-119917000D02*
X193063282Y-119869380D01*
X193063282Y-119869380D02*
X193063282Y-119536047D01*
X193063282Y-119536047D02*
X192872806Y-119536047D01*
X193491854Y-119964619D02*
X193491854Y-118964619D01*
X193491854Y-118964619D02*
X194063282Y-119964619D01*
X194063282Y-119964619D02*
X194063282Y-118964619D01*
X194539473Y-119964619D02*
X194539473Y-118964619D01*
X194539473Y-118964619D02*
X194777568Y-118964619D01*
X194777568Y-118964619D02*
X194920425Y-119012238D01*
X194920425Y-119012238D02*
X195015663Y-119107476D01*
X195015663Y-119107476D02*
X195063282Y-119202714D01*
X195063282Y-119202714D02*
X195110901Y-119393190D01*
X195110901Y-119393190D02*
X195110901Y-119536047D01*
X195110901Y-119536047D02*
X195063282Y-119726523D01*
X195063282Y-119726523D02*
X195015663Y-119821761D01*
X195015663Y-119821761D02*
X194920425Y-119917000D01*
X194920425Y-119917000D02*
X194777568Y-119964619D01*
X194777568Y-119964619D02*
X194539473Y-119964619D01*
X192729949Y-117267000D02*
X192872806Y-117314619D01*
X192872806Y-117314619D02*
X193110901Y-117314619D01*
X193110901Y-117314619D02*
X193206139Y-117267000D01*
X193206139Y-117267000D02*
X193253758Y-117219380D01*
X193253758Y-117219380D02*
X193301377Y-117124142D01*
X193301377Y-117124142D02*
X193301377Y-117028904D01*
X193301377Y-117028904D02*
X193253758Y-116933666D01*
X193253758Y-116933666D02*
X193206139Y-116886047D01*
X193206139Y-116886047D02*
X193110901Y-116838428D01*
X193110901Y-116838428D02*
X192920425Y-116790809D01*
X192920425Y-116790809D02*
X192825187Y-116743190D01*
X192825187Y-116743190D02*
X192777568Y-116695571D01*
X192777568Y-116695571D02*
X192729949Y-116600333D01*
X192729949Y-116600333D02*
X192729949Y-116505095D01*
X192729949Y-116505095D02*
X192777568Y-116409857D01*
X192777568Y-116409857D02*
X192825187Y-116362238D01*
X192825187Y-116362238D02*
X192920425Y-116314619D01*
X192920425Y-116314619D02*
X193158520Y-116314619D01*
X193158520Y-116314619D02*
X193301377Y-116362238D01*
X194301377Y-117219380D02*
X194253758Y-117267000D01*
X194253758Y-117267000D02*
X194110901Y-117314619D01*
X194110901Y-117314619D02*
X194015663Y-117314619D01*
X194015663Y-117314619D02*
X193872806Y-117267000D01*
X193872806Y-117267000D02*
X193777568Y-117171761D01*
X193777568Y-117171761D02*
X193729949Y-117076523D01*
X193729949Y-117076523D02*
X193682330Y-116886047D01*
X193682330Y-116886047D02*
X193682330Y-116743190D01*
X193682330Y-116743190D02*
X193729949Y-116552714D01*
X193729949Y-116552714D02*
X193777568Y-116457476D01*
X193777568Y-116457476D02*
X193872806Y-116362238D01*
X193872806Y-116362238D02*
X194015663Y-116314619D01*
X194015663Y-116314619D02*
X194110901Y-116314619D01*
X194110901Y-116314619D02*
X194253758Y-116362238D01*
X194253758Y-116362238D02*
X194301377Y-116409857D01*
X195206139Y-117314619D02*
X194729949Y-117314619D01*
X194729949Y-117314619D02*
X194729949Y-116314619D01*
X121203904Y-91945050D02*
X121203904Y-91468860D01*
X121489619Y-92040288D02*
X120489619Y-91706955D01*
X120489619Y-91706955D02*
X121489619Y-91373622D01*
X121489619Y-91040288D02*
X120489619Y-91040288D01*
X120489619Y-91040288D02*
X121203904Y-90706955D01*
X121203904Y-90706955D02*
X120489619Y-90373622D01*
X120489619Y-90373622D02*
X121489619Y-90373622D01*
X121489619Y-89897431D02*
X120489619Y-89897431D01*
X120489619Y-89897431D02*
X120489619Y-89516479D01*
X120489619Y-89516479D02*
X120537238Y-89421241D01*
X120537238Y-89421241D02*
X120584857Y-89373622D01*
X120584857Y-89373622D02*
X120680095Y-89326003D01*
X120680095Y-89326003D02*
X120822952Y-89326003D01*
X120822952Y-89326003D02*
X120918190Y-89373622D01*
X120918190Y-89373622D02*
X120965809Y-89421241D01*
X120965809Y-89421241D02*
X121013428Y-89516479D01*
X121013428Y-89516479D02*
X121013428Y-89897431D01*
X121489619Y-88421241D02*
X121489619Y-88897431D01*
X121489619Y-88897431D02*
X120489619Y-88897431D01*
X121489619Y-88087907D02*
X120489619Y-88087907D01*
X120965809Y-87278384D02*
X120965809Y-87611717D01*
X121489619Y-87611717D02*
X120489619Y-87611717D01*
X120489619Y-87611717D02*
X120489619Y-87135527D01*
X121489619Y-86754574D02*
X120489619Y-86754574D01*
X120965809Y-86278384D02*
X120965809Y-85945051D01*
X121489619Y-85802194D02*
X121489619Y-86278384D01*
X121489619Y-86278384D02*
X120489619Y-86278384D01*
X120489619Y-86278384D02*
X120489619Y-85802194D01*
X121489619Y-84802194D02*
X121013428Y-85135527D01*
X121489619Y-85373622D02*
X120489619Y-85373622D01*
X120489619Y-85373622D02*
X120489619Y-84992670D01*
X120489619Y-84992670D02*
X120537238Y-84897432D01*
X120537238Y-84897432D02*
X120584857Y-84849813D01*
X120584857Y-84849813D02*
X120680095Y-84802194D01*
X120680095Y-84802194D02*
X120822952Y-84802194D01*
X120822952Y-84802194D02*
X120918190Y-84849813D01*
X120918190Y-84849813D02*
X120965809Y-84897432D01*
X120965809Y-84897432D02*
X121013428Y-84992670D01*
X121013428Y-84992670D02*
X121013428Y-85373622D01*
X128182056Y-80395050D02*
X128229675Y-80252193D01*
X128229675Y-80252193D02*
X128229675Y-80014098D01*
X128229675Y-80014098D02*
X128182056Y-79918860D01*
X128182056Y-79918860D02*
X128134436Y-79871241D01*
X128134436Y-79871241D02*
X128039198Y-79823622D01*
X128039198Y-79823622D02*
X127943960Y-79823622D01*
X127943960Y-79823622D02*
X127848722Y-79871241D01*
X127848722Y-79871241D02*
X127801103Y-79918860D01*
X127801103Y-79918860D02*
X127753484Y-80014098D01*
X127753484Y-80014098D02*
X127705865Y-80204574D01*
X127705865Y-80204574D02*
X127658246Y-80299812D01*
X127658246Y-80299812D02*
X127610627Y-80347431D01*
X127610627Y-80347431D02*
X127515389Y-80395050D01*
X127515389Y-80395050D02*
X127420151Y-80395050D01*
X127420151Y-80395050D02*
X127324913Y-80347431D01*
X127324913Y-80347431D02*
X127277294Y-80299812D01*
X127277294Y-80299812D02*
X127229675Y-80204574D01*
X127229675Y-80204574D02*
X127229675Y-79966479D01*
X127229675Y-79966479D02*
X127277294Y-79823622D01*
X127705865Y-79395050D02*
X127705865Y-79061717D01*
X128229675Y-78918860D02*
X128229675Y-79395050D01*
X128229675Y-79395050D02*
X127229675Y-79395050D01*
X127229675Y-79395050D02*
X127229675Y-78918860D01*
X128229675Y-78490288D02*
X127229675Y-78490288D01*
X127229675Y-78490288D02*
X128229675Y-77918860D01*
X128229675Y-77918860D02*
X127229675Y-77918860D01*
X128182056Y-77490288D02*
X128229675Y-77347431D01*
X128229675Y-77347431D02*
X128229675Y-77109336D01*
X128229675Y-77109336D02*
X128182056Y-77014098D01*
X128182056Y-77014098D02*
X128134436Y-76966479D01*
X128134436Y-76966479D02*
X128039198Y-76918860D01*
X128039198Y-76918860D02*
X127943960Y-76918860D01*
X127943960Y-76918860D02*
X127848722Y-76966479D01*
X127848722Y-76966479D02*
X127801103Y-77014098D01*
X127801103Y-77014098D02*
X127753484Y-77109336D01*
X127753484Y-77109336D02*
X127705865Y-77299812D01*
X127705865Y-77299812D02*
X127658246Y-77395050D01*
X127658246Y-77395050D02*
X127610627Y-77442669D01*
X127610627Y-77442669D02*
X127515389Y-77490288D01*
X127515389Y-77490288D02*
X127420151Y-77490288D01*
X127420151Y-77490288D02*
X127324913Y-77442669D01*
X127324913Y-77442669D02*
X127277294Y-77395050D01*
X127277294Y-77395050D02*
X127229675Y-77299812D01*
X127229675Y-77299812D02*
X127229675Y-77061717D01*
X127229675Y-77061717D02*
X127277294Y-76918860D01*
X127229675Y-76299812D02*
X127229675Y-76109336D01*
X127229675Y-76109336D02*
X127277294Y-76014098D01*
X127277294Y-76014098D02*
X127372532Y-75918860D01*
X127372532Y-75918860D02*
X127563008Y-75871241D01*
X127563008Y-75871241D02*
X127896341Y-75871241D01*
X127896341Y-75871241D02*
X128086817Y-75918860D01*
X128086817Y-75918860D02*
X128182056Y-76014098D01*
X128182056Y-76014098D02*
X128229675Y-76109336D01*
X128229675Y-76109336D02*
X128229675Y-76299812D01*
X128229675Y-76299812D02*
X128182056Y-76395050D01*
X128182056Y-76395050D02*
X128086817Y-76490288D01*
X128086817Y-76490288D02*
X127896341Y-76537907D01*
X127896341Y-76537907D02*
X127563008Y-76537907D01*
X127563008Y-76537907D02*
X127372532Y-76490288D01*
X127372532Y-76490288D02*
X127277294Y-76395050D01*
X127277294Y-76395050D02*
X127229675Y-76299812D01*
X128229675Y-74871241D02*
X127753484Y-75204574D01*
X128229675Y-75442669D02*
X127229675Y-75442669D01*
X127229675Y-75442669D02*
X127229675Y-75061717D01*
X127229675Y-75061717D02*
X127277294Y-74966479D01*
X127277294Y-74966479D02*
X127324913Y-74918860D01*
X127324913Y-74918860D02*
X127420151Y-74871241D01*
X127420151Y-74871241D02*
X127563008Y-74871241D01*
X127563008Y-74871241D02*
X127658246Y-74918860D01*
X127658246Y-74918860D02*
X127705865Y-74966479D01*
X127705865Y-74966479D02*
X127753484Y-75061717D01*
X127753484Y-75061717D02*
X127753484Y-75442669D01*
X129839619Y-80347431D02*
X128839619Y-80347431D01*
X128839619Y-80347431D02*
X128839619Y-80109336D01*
X128839619Y-80109336D02*
X128887238Y-79966479D01*
X128887238Y-79966479D02*
X128982476Y-79871241D01*
X128982476Y-79871241D02*
X129077714Y-79823622D01*
X129077714Y-79823622D02*
X129268190Y-79776003D01*
X129268190Y-79776003D02*
X129411047Y-79776003D01*
X129411047Y-79776003D02*
X129601523Y-79823622D01*
X129601523Y-79823622D02*
X129696761Y-79871241D01*
X129696761Y-79871241D02*
X129792000Y-79966479D01*
X129792000Y-79966479D02*
X129839619Y-80109336D01*
X129839619Y-80109336D02*
X129839619Y-80347431D01*
X129315809Y-79347431D02*
X129315809Y-79014098D01*
X129839619Y-78871241D02*
X129839619Y-79347431D01*
X129839619Y-79347431D02*
X128839619Y-79347431D01*
X128839619Y-79347431D02*
X128839619Y-78871241D01*
X129744380Y-77871241D02*
X129792000Y-77918860D01*
X129792000Y-77918860D02*
X129839619Y-78061717D01*
X129839619Y-78061717D02*
X129839619Y-78156955D01*
X129839619Y-78156955D02*
X129792000Y-78299812D01*
X129792000Y-78299812D02*
X129696761Y-78395050D01*
X129696761Y-78395050D02*
X129601523Y-78442669D01*
X129601523Y-78442669D02*
X129411047Y-78490288D01*
X129411047Y-78490288D02*
X129268190Y-78490288D01*
X129268190Y-78490288D02*
X129077714Y-78442669D01*
X129077714Y-78442669D02*
X128982476Y-78395050D01*
X128982476Y-78395050D02*
X128887238Y-78299812D01*
X128887238Y-78299812D02*
X128839619Y-78156955D01*
X128839619Y-78156955D02*
X128839619Y-78061717D01*
X128839619Y-78061717D02*
X128887238Y-77918860D01*
X128887238Y-77918860D02*
X128934857Y-77871241D01*
X128839619Y-77252193D02*
X128839619Y-77061717D01*
X128839619Y-77061717D02*
X128887238Y-76966479D01*
X128887238Y-76966479D02*
X128982476Y-76871241D01*
X128982476Y-76871241D02*
X129172952Y-76823622D01*
X129172952Y-76823622D02*
X129506285Y-76823622D01*
X129506285Y-76823622D02*
X129696761Y-76871241D01*
X129696761Y-76871241D02*
X129792000Y-76966479D01*
X129792000Y-76966479D02*
X129839619Y-77061717D01*
X129839619Y-77061717D02*
X129839619Y-77252193D01*
X129839619Y-77252193D02*
X129792000Y-77347431D01*
X129792000Y-77347431D02*
X129696761Y-77442669D01*
X129696761Y-77442669D02*
X129506285Y-77490288D01*
X129506285Y-77490288D02*
X129172952Y-77490288D01*
X129172952Y-77490288D02*
X128982476Y-77442669D01*
X128982476Y-77442669D02*
X128887238Y-77347431D01*
X128887238Y-77347431D02*
X128839619Y-77252193D01*
X128839619Y-76395050D02*
X129649142Y-76395050D01*
X129649142Y-76395050D02*
X129744380Y-76347431D01*
X129744380Y-76347431D02*
X129792000Y-76299812D01*
X129792000Y-76299812D02*
X129839619Y-76204574D01*
X129839619Y-76204574D02*
X129839619Y-76014098D01*
X129839619Y-76014098D02*
X129792000Y-75918860D01*
X129792000Y-75918860D02*
X129744380Y-75871241D01*
X129744380Y-75871241D02*
X129649142Y-75823622D01*
X129649142Y-75823622D02*
X128839619Y-75823622D01*
X129839619Y-75347431D02*
X128839619Y-75347431D01*
X128839619Y-75347431D02*
X128839619Y-74966479D01*
X128839619Y-74966479D02*
X128887238Y-74871241D01*
X128887238Y-74871241D02*
X128934857Y-74823622D01*
X128934857Y-74823622D02*
X129030095Y-74776003D01*
X129030095Y-74776003D02*
X129172952Y-74776003D01*
X129172952Y-74776003D02*
X129268190Y-74823622D01*
X129268190Y-74823622D02*
X129315809Y-74871241D01*
X129315809Y-74871241D02*
X129363428Y-74966479D01*
X129363428Y-74966479D02*
X129363428Y-75347431D01*
X129839619Y-73871241D02*
X129839619Y-74347431D01*
X129839619Y-74347431D02*
X128839619Y-74347431D01*
X129839619Y-73537907D02*
X128839619Y-73537907D01*
X129839619Y-73061717D02*
X128839619Y-73061717D01*
X128839619Y-73061717D02*
X129839619Y-72490289D01*
X129839619Y-72490289D02*
X128839619Y-72490289D01*
X128887238Y-71490289D02*
X128839619Y-71585527D01*
X128839619Y-71585527D02*
X128839619Y-71728384D01*
X128839619Y-71728384D02*
X128887238Y-71871241D01*
X128887238Y-71871241D02*
X128982476Y-71966479D01*
X128982476Y-71966479D02*
X129077714Y-72014098D01*
X129077714Y-72014098D02*
X129268190Y-72061717D01*
X129268190Y-72061717D02*
X129411047Y-72061717D01*
X129411047Y-72061717D02*
X129601523Y-72014098D01*
X129601523Y-72014098D02*
X129696761Y-71966479D01*
X129696761Y-71966479D02*
X129792000Y-71871241D01*
X129792000Y-71871241D02*
X129839619Y-71728384D01*
X129839619Y-71728384D02*
X129839619Y-71633146D01*
X129839619Y-71633146D02*
X129792000Y-71490289D01*
X129792000Y-71490289D02*
X129744380Y-71442670D01*
X129744380Y-71442670D02*
X129411047Y-71442670D01*
X129411047Y-71442670D02*
X129411047Y-71633146D01*
X129744380Y-69680765D02*
X129792000Y-69728384D01*
X129792000Y-69728384D02*
X129839619Y-69871241D01*
X129839619Y-69871241D02*
X129839619Y-69966479D01*
X129839619Y-69966479D02*
X129792000Y-70109336D01*
X129792000Y-70109336D02*
X129696761Y-70204574D01*
X129696761Y-70204574D02*
X129601523Y-70252193D01*
X129601523Y-70252193D02*
X129411047Y-70299812D01*
X129411047Y-70299812D02*
X129268190Y-70299812D01*
X129268190Y-70299812D02*
X129077714Y-70252193D01*
X129077714Y-70252193D02*
X128982476Y-70204574D01*
X128982476Y-70204574D02*
X128887238Y-70109336D01*
X128887238Y-70109336D02*
X128839619Y-69966479D01*
X128839619Y-69966479D02*
X128839619Y-69871241D01*
X128839619Y-69871241D02*
X128887238Y-69728384D01*
X128887238Y-69728384D02*
X128934857Y-69680765D01*
X129553904Y-69299812D02*
X129553904Y-68823622D01*
X129839619Y-69395050D02*
X128839619Y-69061717D01*
X128839619Y-69061717D02*
X129839619Y-68728384D01*
X129839619Y-68395050D02*
X128839619Y-68395050D01*
X128839619Y-68395050D02*
X128839619Y-68014098D01*
X128839619Y-68014098D02*
X128887238Y-67918860D01*
X128887238Y-67918860D02*
X128934857Y-67871241D01*
X128934857Y-67871241D02*
X129030095Y-67823622D01*
X129030095Y-67823622D02*
X129172952Y-67823622D01*
X129172952Y-67823622D02*
X129268190Y-67871241D01*
X129268190Y-67871241D02*
X129315809Y-67918860D01*
X129315809Y-67918860D02*
X129363428Y-68014098D01*
X129363428Y-68014098D02*
X129363428Y-68395050D01*
X129792000Y-67442669D02*
X129839619Y-67299812D01*
X129839619Y-67299812D02*
X129839619Y-67061717D01*
X129839619Y-67061717D02*
X129792000Y-66966479D01*
X129792000Y-66966479D02*
X129744380Y-66918860D01*
X129744380Y-66918860D02*
X129649142Y-66871241D01*
X129649142Y-66871241D02*
X129553904Y-66871241D01*
X129553904Y-66871241D02*
X129458666Y-66918860D01*
X129458666Y-66918860D02*
X129411047Y-66966479D01*
X129411047Y-66966479D02*
X129363428Y-67061717D01*
X129363428Y-67061717D02*
X129315809Y-67252193D01*
X129315809Y-67252193D02*
X129268190Y-67347431D01*
X129268190Y-67347431D02*
X129220571Y-67395050D01*
X129220571Y-67395050D02*
X129125333Y-67442669D01*
X129125333Y-67442669D02*
X129030095Y-67442669D01*
X129030095Y-67442669D02*
X128934857Y-67395050D01*
X128934857Y-67395050D02*
X128887238Y-67347431D01*
X128887238Y-67347431D02*
X128839619Y-67252193D01*
X128839619Y-67252193D02*
X128839619Y-67014098D01*
X128839619Y-67014098D02*
X128887238Y-66871241D01*
X134008666Y-117077431D02*
X134008666Y-116315527D01*
X134389619Y-116696479D02*
X133627714Y-116696479D01*
X181133666Y-83322431D02*
X181133666Y-82560527D01*
X181514619Y-82941479D02*
X180752714Y-82941479D01*
X197853904Y-91420050D02*
X197853904Y-90943860D01*
X198139619Y-91515288D02*
X197139619Y-91181955D01*
X197139619Y-91181955D02*
X198139619Y-90848622D01*
X198139619Y-90515288D02*
X197139619Y-90515288D01*
X197139619Y-90515288D02*
X197853904Y-90181955D01*
X197853904Y-90181955D02*
X197139619Y-89848622D01*
X197139619Y-89848622D02*
X198139619Y-89848622D01*
X198139619Y-89372431D02*
X197139619Y-89372431D01*
X197139619Y-89372431D02*
X197139619Y-88991479D01*
X197139619Y-88991479D02*
X197187238Y-88896241D01*
X197187238Y-88896241D02*
X197234857Y-88848622D01*
X197234857Y-88848622D02*
X197330095Y-88801003D01*
X197330095Y-88801003D02*
X197472952Y-88801003D01*
X197472952Y-88801003D02*
X197568190Y-88848622D01*
X197568190Y-88848622D02*
X197615809Y-88896241D01*
X197615809Y-88896241D02*
X197663428Y-88991479D01*
X197663428Y-88991479D02*
X197663428Y-89372431D01*
X198139619Y-87896241D02*
X198139619Y-88372431D01*
X198139619Y-88372431D02*
X197139619Y-88372431D01*
X198139619Y-87562907D02*
X197139619Y-87562907D01*
X197615809Y-86753384D02*
X197615809Y-87086717D01*
X198139619Y-87086717D02*
X197139619Y-87086717D01*
X197139619Y-87086717D02*
X197139619Y-86610527D01*
X198139619Y-86229574D02*
X197139619Y-86229574D01*
X197615809Y-85753384D02*
X197615809Y-85420051D01*
X198139619Y-85277194D02*
X198139619Y-85753384D01*
X198139619Y-85753384D02*
X197139619Y-85753384D01*
X197139619Y-85753384D02*
X197139619Y-85277194D01*
X198139619Y-84277194D02*
X197663428Y-84610527D01*
X198139619Y-84848622D02*
X197139619Y-84848622D01*
X197139619Y-84848622D02*
X197139619Y-84467670D01*
X197139619Y-84467670D02*
X197187238Y-84372432D01*
X197187238Y-84372432D02*
X197234857Y-84324813D01*
X197234857Y-84324813D02*
X197330095Y-84277194D01*
X197330095Y-84277194D02*
X197472952Y-84277194D01*
X197472952Y-84277194D02*
X197568190Y-84324813D01*
X197568190Y-84324813D02*
X197615809Y-84372432D01*
X197615809Y-84372432D02*
X197663428Y-84467670D01*
X197663428Y-84467670D02*
X197663428Y-84848622D01*
D12*
X138764577Y-128307642D02*
X138764577Y-129021928D01*
X138264577Y-127521928D02*
X138764577Y-128307642D01*
X138764577Y-128307642D02*
X139264577Y-127521928D01*
X139764576Y-128450500D02*
X140907434Y-128450500D01*
X141550291Y-128593357D02*
X142264577Y-128593357D01*
X141407434Y-129021928D02*
X141907434Y-127521928D01*
X141907434Y-127521928D02*
X142407434Y-129021928D01*
X142764576Y-127521928D02*
X143764576Y-129021928D01*
X143764576Y-127521928D02*
X142764576Y-129021928D01*
X144336004Y-129021928D02*
X144336004Y-127521928D01*
X144978862Y-128950500D02*
X145193148Y-129021928D01*
X145193148Y-129021928D02*
X145550290Y-129021928D01*
X145550290Y-129021928D02*
X145693148Y-128950500D01*
X145693148Y-128950500D02*
X145764576Y-128879071D01*
X145764576Y-128879071D02*
X145836005Y-128736214D01*
X145836005Y-128736214D02*
X145836005Y-128593357D01*
X145836005Y-128593357D02*
X145764576Y-128450500D01*
X145764576Y-128450500D02*
X145693148Y-128379071D01*
X145693148Y-128379071D02*
X145550290Y-128307642D01*
X145550290Y-128307642D02*
X145264576Y-128236214D01*
X145264576Y-128236214D02*
X145121719Y-128164785D01*
X145121719Y-128164785D02*
X145050290Y-128093357D01*
X145050290Y-128093357D02*
X144978862Y-127950500D01*
X144978862Y-127950500D02*
X144978862Y-127807642D01*
X144978862Y-127807642D02*
X145050290Y-127664785D01*
X145050290Y-127664785D02*
X145121719Y-127593357D01*
X145121719Y-127593357D02*
X145264576Y-127521928D01*
X145264576Y-127521928D02*
X145621719Y-127521928D01*
X145621719Y-127521928D02*
X145836005Y-127593357D01*
X172660995Y-127521928D02*
X173660995Y-129021928D01*
X173660995Y-127521928D02*
X172660995Y-129021928D01*
X174232423Y-128450500D02*
X175375281Y-128450500D01*
X176018138Y-128593357D02*
X176732424Y-128593357D01*
X175875281Y-129021928D02*
X176375281Y-127521928D01*
X176375281Y-127521928D02*
X176875281Y-129021928D01*
X177232423Y-127521928D02*
X178232423Y-129021928D01*
X178232423Y-127521928D02*
X177232423Y-129021928D01*
X178803851Y-129021928D02*
X178803851Y-127521928D01*
X179446709Y-128950500D02*
X179660995Y-129021928D01*
X179660995Y-129021928D02*
X180018137Y-129021928D01*
X180018137Y-129021928D02*
X180160995Y-128950500D01*
X180160995Y-128950500D02*
X180232423Y-128879071D01*
X180232423Y-128879071D02*
X180303852Y-128736214D01*
X180303852Y-128736214D02*
X180303852Y-128593357D01*
X180303852Y-128593357D02*
X180232423Y-128450500D01*
X180232423Y-128450500D02*
X180160995Y-128379071D01*
X180160995Y-128379071D02*
X180018137Y-128307642D01*
X180018137Y-128307642D02*
X179732423Y-128236214D01*
X179732423Y-128236214D02*
X179589566Y-128164785D01*
X179589566Y-128164785D02*
X179518137Y-128093357D01*
X179518137Y-128093357D02*
X179446709Y-127950500D01*
X179446709Y-127950500D02*
X179446709Y-127807642D01*
X179446709Y-127807642D02*
X179518137Y-127664785D01*
X179518137Y-127664785D02*
X179589566Y-127593357D01*
X179589566Y-127593357D02*
X179732423Y-127521928D01*
X179732423Y-127521928D02*
X180089566Y-127521928D01*
X180089566Y-127521928D02*
X180303852Y-127593357D01*
D13*
X156862921Y-106678572D02*
X156862921Y-105726191D01*
X157434350Y-106869048D02*
X155434350Y-106202382D01*
X155434350Y-106202382D02*
X157434350Y-105535715D01*
X157434350Y-104869048D02*
X155434350Y-104869048D01*
X155434350Y-104869048D02*
X155434350Y-104392858D01*
X155434350Y-104392858D02*
X155529588Y-104107143D01*
X155529588Y-104107143D02*
X155720064Y-103916667D01*
X155720064Y-103916667D02*
X155910540Y-103821429D01*
X155910540Y-103821429D02*
X156291492Y-103726191D01*
X156291492Y-103726191D02*
X156577207Y-103726191D01*
X156577207Y-103726191D02*
X156958159Y-103821429D01*
X156958159Y-103821429D02*
X157148635Y-103916667D01*
X157148635Y-103916667D02*
X157339112Y-104107143D01*
X157339112Y-104107143D02*
X157434350Y-104392858D01*
X157434350Y-104392858D02*
X157434350Y-104869048D01*
X156862921Y-102964286D02*
X156862921Y-102011905D01*
X157434350Y-103154762D02*
X155434350Y-102488096D01*
X155434350Y-102488096D02*
X157434350Y-101821429D01*
X156386731Y-100488095D02*
X156386731Y-101154762D01*
X157434350Y-101154762D02*
X155434350Y-101154762D01*
X155434350Y-101154762D02*
X155434350Y-100202381D01*
X157434350Y-98297619D02*
X156481969Y-98964286D01*
X157434350Y-99440476D02*
X155434350Y-99440476D01*
X155434350Y-99440476D02*
X155434350Y-98678571D01*
X155434350Y-98678571D02*
X155529588Y-98488095D01*
X155529588Y-98488095D02*
X155624826Y-98392857D01*
X155624826Y-98392857D02*
X155815302Y-98297619D01*
X155815302Y-98297619D02*
X156101016Y-98297619D01*
X156101016Y-98297619D02*
X156291492Y-98392857D01*
X156291492Y-98392857D02*
X156386731Y-98488095D01*
X156386731Y-98488095D02*
X156481969Y-98678571D01*
X156481969Y-98678571D02*
X156481969Y-99440476D01*
X155434350Y-97440476D02*
X157053397Y-97440476D01*
X157053397Y-97440476D02*
X157243873Y-97345238D01*
X157243873Y-97345238D02*
X157339112Y-97250000D01*
X157339112Y-97250000D02*
X157434350Y-97059524D01*
X157434350Y-97059524D02*
X157434350Y-96678571D01*
X157434350Y-96678571D02*
X157339112Y-96488095D01*
X157339112Y-96488095D02*
X157243873Y-96392857D01*
X157243873Y-96392857D02*
X157053397Y-96297619D01*
X157053397Y-96297619D02*
X155434350Y-96297619D01*
X157434350Y-95345238D02*
X155434350Y-95345238D01*
X155434350Y-94678571D02*
X155434350Y-93535714D01*
X157434350Y-94107143D02*
X155434350Y-94107143D01*
X156386731Y-90678570D02*
X156386731Y-91345237D01*
X157434350Y-91345237D02*
X155434350Y-91345237D01*
X155434350Y-91345237D02*
X155434350Y-90392856D01*
X156386731Y-89630951D02*
X156386731Y-88964284D01*
X157434350Y-88678570D02*
X157434350Y-89630951D01*
X157434350Y-89630951D02*
X155434350Y-89630951D01*
X155434350Y-89630951D02*
X155434350Y-88678570D01*
X156862921Y-87916665D02*
X156862921Y-86964284D01*
X157434350Y-88107141D02*
X155434350Y-87440475D01*
X155434350Y-87440475D02*
X157434350Y-86773808D01*
X155434350Y-86392855D02*
X155434350Y-85249998D01*
X157434350Y-85821427D02*
X155434350Y-85821427D01*
X157434350Y-84583331D02*
X155434350Y-84583331D01*
X156386731Y-84583331D02*
X156386731Y-83440474D01*
X157434350Y-83440474D02*
X155434350Y-83440474D01*
X156386731Y-82488093D02*
X156386731Y-81821426D01*
X157434350Y-81535712D02*
X157434350Y-82488093D01*
X157434350Y-82488093D02*
X155434350Y-82488093D01*
X155434350Y-82488093D02*
X155434350Y-81535712D01*
X157434350Y-79535712D02*
X156481969Y-80202379D01*
X157434350Y-80678569D02*
X155434350Y-80678569D01*
X155434350Y-80678569D02*
X155434350Y-79916664D01*
X155434350Y-79916664D02*
X155529588Y-79726188D01*
X155529588Y-79726188D02*
X155624826Y-79630950D01*
X155624826Y-79630950D02*
X155815302Y-79535712D01*
X155815302Y-79535712D02*
X156101016Y-79535712D01*
X156101016Y-79535712D02*
X156291492Y-79630950D01*
X156291492Y-79630950D02*
X156386731Y-79726188D01*
X156386731Y-79726188D02*
X156481969Y-79916664D01*
X156481969Y-79916664D02*
X156481969Y-80678569D01*
X157434350Y-77154759D02*
X155434350Y-77154759D01*
X155434350Y-77154759D02*
X156862921Y-76488092D01*
X156862921Y-76488092D02*
X155434350Y-75821426D01*
X155434350Y-75821426D02*
X157434350Y-75821426D01*
X156101016Y-74011902D02*
X157434350Y-74011902D01*
X155339112Y-74488093D02*
X156767683Y-74964283D01*
X156767683Y-74964283D02*
X156767683Y-73726188D01*
X160463761Y-98059524D02*
X160559000Y-98154762D01*
X160559000Y-98154762D02*
X160654238Y-98440476D01*
X160654238Y-98440476D02*
X160654238Y-98630952D01*
X160654238Y-98630952D02*
X160559000Y-98916667D01*
X160559000Y-98916667D02*
X160368523Y-99107143D01*
X160368523Y-99107143D02*
X160178047Y-99202381D01*
X160178047Y-99202381D02*
X159797095Y-99297619D01*
X159797095Y-99297619D02*
X159511380Y-99297619D01*
X159511380Y-99297619D02*
X159130428Y-99202381D01*
X159130428Y-99202381D02*
X158939952Y-99107143D01*
X158939952Y-99107143D02*
X158749476Y-98916667D01*
X158749476Y-98916667D02*
X158654238Y-98630952D01*
X158654238Y-98630952D02*
X158654238Y-98440476D01*
X158654238Y-98440476D02*
X158749476Y-98154762D01*
X158749476Y-98154762D02*
X158844714Y-98059524D01*
X158654238Y-96821429D02*
X158654238Y-96440476D01*
X158654238Y-96440476D02*
X158749476Y-96250000D01*
X158749476Y-96250000D02*
X158939952Y-96059524D01*
X158939952Y-96059524D02*
X159320904Y-95964286D01*
X159320904Y-95964286D02*
X159987571Y-95964286D01*
X159987571Y-95964286D02*
X160368523Y-96059524D01*
X160368523Y-96059524D02*
X160559000Y-96250000D01*
X160559000Y-96250000D02*
X160654238Y-96440476D01*
X160654238Y-96440476D02*
X160654238Y-96821429D01*
X160654238Y-96821429D02*
X160559000Y-97011905D01*
X160559000Y-97011905D02*
X160368523Y-97202381D01*
X160368523Y-97202381D02*
X159987571Y-97297619D01*
X159987571Y-97297619D02*
X159320904Y-97297619D01*
X159320904Y-97297619D02*
X158939952Y-97202381D01*
X158939952Y-97202381D02*
X158749476Y-97011905D01*
X158749476Y-97011905D02*
X158654238Y-96821429D01*
X160654238Y-95107143D02*
X158654238Y-95107143D01*
X158654238Y-95107143D02*
X160654238Y-93964286D01*
X160654238Y-93964286D02*
X158654238Y-93964286D01*
X158654238Y-93297619D02*
X158654238Y-92154762D01*
X160654238Y-92726191D02*
X158654238Y-92726191D01*
X160654238Y-90345238D02*
X159701857Y-91011905D01*
X160654238Y-91488095D02*
X158654238Y-91488095D01*
X158654238Y-91488095D02*
X158654238Y-90726190D01*
X158654238Y-90726190D02*
X158749476Y-90535714D01*
X158749476Y-90535714D02*
X158844714Y-90440476D01*
X158844714Y-90440476D02*
X159035190Y-90345238D01*
X159035190Y-90345238D02*
X159320904Y-90345238D01*
X159320904Y-90345238D02*
X159511380Y-90440476D01*
X159511380Y-90440476D02*
X159606619Y-90535714D01*
X159606619Y-90535714D02*
X159701857Y-90726190D01*
X159701857Y-90726190D02*
X159701857Y-91488095D01*
X158654238Y-89107143D02*
X158654238Y-88726190D01*
X158654238Y-88726190D02*
X158749476Y-88535714D01*
X158749476Y-88535714D02*
X158939952Y-88345238D01*
X158939952Y-88345238D02*
X159320904Y-88250000D01*
X159320904Y-88250000D02*
X159987571Y-88250000D01*
X159987571Y-88250000D02*
X160368523Y-88345238D01*
X160368523Y-88345238D02*
X160559000Y-88535714D01*
X160559000Y-88535714D02*
X160654238Y-88726190D01*
X160654238Y-88726190D02*
X160654238Y-89107143D01*
X160654238Y-89107143D02*
X160559000Y-89297619D01*
X160559000Y-89297619D02*
X160368523Y-89488095D01*
X160368523Y-89488095D02*
X159987571Y-89583333D01*
X159987571Y-89583333D02*
X159320904Y-89583333D01*
X159320904Y-89583333D02*
X158939952Y-89488095D01*
X158939952Y-89488095D02*
X158749476Y-89297619D01*
X158749476Y-89297619D02*
X158654238Y-89107143D01*
X160654238Y-86440476D02*
X160654238Y-87392857D01*
X160654238Y-87392857D02*
X158654238Y-87392857D01*
X160654238Y-84821428D02*
X160654238Y-85773809D01*
X160654238Y-85773809D02*
X158654238Y-85773809D01*
X159606619Y-84154761D02*
X159606619Y-83488094D01*
X160654238Y-83202380D02*
X160654238Y-84154761D01*
X160654238Y-84154761D02*
X158654238Y-84154761D01*
X158654238Y-84154761D02*
X158654238Y-83202380D01*
X160654238Y-81202380D02*
X159701857Y-81869047D01*
X160654238Y-82345237D02*
X158654238Y-82345237D01*
X158654238Y-82345237D02*
X158654238Y-81583332D01*
X158654238Y-81583332D02*
X158749476Y-81392856D01*
X158749476Y-81392856D02*
X158844714Y-81297618D01*
X158844714Y-81297618D02*
X159035190Y-81202380D01*
X159035190Y-81202380D02*
X159320904Y-81202380D01*
X159320904Y-81202380D02*
X159511380Y-81297618D01*
X159511380Y-81297618D02*
X159606619Y-81392856D01*
X159606619Y-81392856D02*
X159701857Y-81583332D01*
X159701857Y-81583332D02*
X159701857Y-82345237D01*
D14*
X135083333Y-79334580D02*
X135035714Y-79382200D01*
X135035714Y-79382200D02*
X134892857Y-79429819D01*
X134892857Y-79429819D02*
X134797619Y-79429819D01*
X134797619Y-79429819D02*
X134654762Y-79382200D01*
X134654762Y-79382200D02*
X134559524Y-79286961D01*
X134559524Y-79286961D02*
X134511905Y-79191723D01*
X134511905Y-79191723D02*
X134464286Y-79001247D01*
X134464286Y-79001247D02*
X134464286Y-78858390D01*
X134464286Y-78858390D02*
X134511905Y-78667914D01*
X134511905Y-78667914D02*
X134559524Y-78572676D01*
X134559524Y-78572676D02*
X134654762Y-78477438D01*
X134654762Y-78477438D02*
X134797619Y-78429819D01*
X134797619Y-78429819D02*
X134892857Y-78429819D01*
X134892857Y-78429819D02*
X135035714Y-78477438D01*
X135035714Y-78477438D02*
X135083333Y-78525057D01*
X135559524Y-79429819D02*
X135750000Y-79429819D01*
X135750000Y-79429819D02*
X135845238Y-79382200D01*
X135845238Y-79382200D02*
X135892857Y-79334580D01*
X135892857Y-79334580D02*
X135988095Y-79191723D01*
X135988095Y-79191723D02*
X136035714Y-79001247D01*
X136035714Y-79001247D02*
X136035714Y-78620295D01*
X136035714Y-78620295D02*
X135988095Y-78525057D01*
X135988095Y-78525057D02*
X135940476Y-78477438D01*
X135940476Y-78477438D02*
X135845238Y-78429819D01*
X135845238Y-78429819D02*
X135654762Y-78429819D01*
X135654762Y-78429819D02*
X135559524Y-78477438D01*
X135559524Y-78477438D02*
X135511905Y-78525057D01*
X135511905Y-78525057D02*
X135464286Y-78620295D01*
X135464286Y-78620295D02*
X135464286Y-78858390D01*
X135464286Y-78858390D02*
X135511905Y-78953628D01*
X135511905Y-78953628D02*
X135559524Y-79001247D01*
X135559524Y-79001247D02*
X135654762Y-79048866D01*
X135654762Y-79048866D02*
X135845238Y-79048866D01*
X135845238Y-79048866D02*
X135940476Y-79001247D01*
X135940476Y-79001247D02*
X135988095Y-78953628D01*
X135988095Y-78953628D02*
X136035714Y-78858390D01*
X140654819Y-79592857D02*
X140654819Y-80164285D01*
X140654819Y-79878571D02*
X139654819Y-79878571D01*
X139654819Y-79878571D02*
X139797676Y-79973809D01*
X139797676Y-79973809D02*
X139892914Y-80069047D01*
X139892914Y-80069047D02*
X139940533Y-80164285D01*
X139654819Y-78973809D02*
X139654819Y-78878571D01*
X139654819Y-78878571D02*
X139702438Y-78783333D01*
X139702438Y-78783333D02*
X139750057Y-78735714D01*
X139750057Y-78735714D02*
X139845295Y-78688095D01*
X139845295Y-78688095D02*
X140035771Y-78640476D01*
X140035771Y-78640476D02*
X140273866Y-78640476D01*
X140273866Y-78640476D02*
X140464342Y-78688095D01*
X140464342Y-78688095D02*
X140559580Y-78735714D01*
X140559580Y-78735714D02*
X140607200Y-78783333D01*
X140607200Y-78783333D02*
X140654819Y-78878571D01*
X140654819Y-78878571D02*
X140654819Y-78973809D01*
X140654819Y-78973809D02*
X140607200Y-79069047D01*
X140607200Y-79069047D02*
X140559580Y-79116666D01*
X140559580Y-79116666D02*
X140464342Y-79164285D01*
X140464342Y-79164285D02*
X140273866Y-79211904D01*
X140273866Y-79211904D02*
X140035771Y-79211904D01*
X140035771Y-79211904D02*
X139845295Y-79164285D01*
X139845295Y-79164285D02*
X139750057Y-79116666D01*
X139750057Y-79116666D02*
X139702438Y-79069047D01*
X139702438Y-79069047D02*
X139654819Y-78973809D01*
X139988152Y-78211904D02*
X140654819Y-78211904D01*
X140083390Y-78211904D02*
X140035771Y-78164285D01*
X140035771Y-78164285D02*
X139988152Y-78069047D01*
X139988152Y-78069047D02*
X139988152Y-77926190D01*
X139988152Y-77926190D02*
X140035771Y-77830952D01*
X140035771Y-77830952D02*
X140131009Y-77783333D01*
X140131009Y-77783333D02*
X140654819Y-77783333D01*
X134342319Y-103142857D02*
X133866128Y-103476190D01*
X134342319Y-103714285D02*
X133342319Y-103714285D01*
X133342319Y-103714285D02*
X133342319Y-103333333D01*
X133342319Y-103333333D02*
X133389938Y-103238095D01*
X133389938Y-103238095D02*
X133437557Y-103190476D01*
X133437557Y-103190476D02*
X133532795Y-103142857D01*
X133532795Y-103142857D02*
X133675652Y-103142857D01*
X133675652Y-103142857D02*
X133770890Y-103190476D01*
X133770890Y-103190476D02*
X133818509Y-103238095D01*
X133818509Y-103238095D02*
X133866128Y-103333333D01*
X133866128Y-103333333D02*
X133866128Y-103714285D01*
X134342319Y-102190476D02*
X134342319Y-102761904D01*
X134342319Y-102476190D02*
X133342319Y-102476190D01*
X133342319Y-102476190D02*
X133485176Y-102571428D01*
X133485176Y-102571428D02*
X133580414Y-102666666D01*
X133580414Y-102666666D02*
X133628033Y-102761904D01*
X133342319Y-101571428D02*
X133342319Y-101476190D01*
X133342319Y-101476190D02*
X133389938Y-101380952D01*
X133389938Y-101380952D02*
X133437557Y-101333333D01*
X133437557Y-101333333D02*
X133532795Y-101285714D01*
X133532795Y-101285714D02*
X133723271Y-101238095D01*
X133723271Y-101238095D02*
X133961366Y-101238095D01*
X133961366Y-101238095D02*
X134151842Y-101285714D01*
X134151842Y-101285714D02*
X134247080Y-101333333D01*
X134247080Y-101333333D02*
X134294700Y-101380952D01*
X134294700Y-101380952D02*
X134342319Y-101476190D01*
X134342319Y-101476190D02*
X134342319Y-101571428D01*
X134342319Y-101571428D02*
X134294700Y-101666666D01*
X134294700Y-101666666D02*
X134247080Y-101714285D01*
X134247080Y-101714285D02*
X134151842Y-101761904D01*
X134151842Y-101761904D02*
X133961366Y-101809523D01*
X133961366Y-101809523D02*
X133723271Y-101809523D01*
X133723271Y-101809523D02*
X133532795Y-101761904D01*
X133532795Y-101761904D02*
X133437557Y-101714285D01*
X133437557Y-101714285D02*
X133389938Y-101666666D01*
X133389938Y-101666666D02*
X133342319Y-101571428D01*
X132987500Y-97550057D02*
X133035119Y-97502438D01*
X133035119Y-97502438D02*
X133130357Y-97454819D01*
X133130357Y-97454819D02*
X133368452Y-97454819D01*
X133368452Y-97454819D02*
X133463690Y-97502438D01*
X133463690Y-97502438D02*
X133511309Y-97550057D01*
X133511309Y-97550057D02*
X133558928Y-97645295D01*
X133558928Y-97645295D02*
X133558928Y-97740533D01*
X133558928Y-97740533D02*
X133511309Y-97883390D01*
X133511309Y-97883390D02*
X132939881Y-98454819D01*
X132939881Y-98454819D02*
X133558928Y-98454819D01*
X133987500Y-98359580D02*
X134035119Y-98407200D01*
X134035119Y-98407200D02*
X133987500Y-98454819D01*
X133987500Y-98454819D02*
X133939881Y-98407200D01*
X133939881Y-98407200D02*
X133987500Y-98359580D01*
X133987500Y-98359580D02*
X133987500Y-98454819D01*
X134416071Y-97550057D02*
X134463690Y-97502438D01*
X134463690Y-97502438D02*
X134558928Y-97454819D01*
X134558928Y-97454819D02*
X134797023Y-97454819D01*
X134797023Y-97454819D02*
X134892261Y-97502438D01*
X134892261Y-97502438D02*
X134939880Y-97550057D01*
X134939880Y-97550057D02*
X134987499Y-97645295D01*
X134987499Y-97645295D02*
X134987499Y-97740533D01*
X134987499Y-97740533D02*
X134939880Y-97883390D01*
X134939880Y-97883390D02*
X134368452Y-98454819D01*
X134368452Y-98454819D02*
X134987499Y-98454819D01*
X139454819Y-112666666D02*
X138978628Y-112999999D01*
X139454819Y-113238094D02*
X138454819Y-113238094D01*
X138454819Y-113238094D02*
X138454819Y-112857142D01*
X138454819Y-112857142D02*
X138502438Y-112761904D01*
X138502438Y-112761904D02*
X138550057Y-112714285D01*
X138550057Y-112714285D02*
X138645295Y-112666666D01*
X138645295Y-112666666D02*
X138788152Y-112666666D01*
X138788152Y-112666666D02*
X138883390Y-112714285D01*
X138883390Y-112714285D02*
X138931009Y-112761904D01*
X138931009Y-112761904D02*
X138978628Y-112857142D01*
X138978628Y-112857142D02*
X138978628Y-113238094D01*
X138454819Y-112333332D02*
X138454819Y-111666666D01*
X138454819Y-111666666D02*
X139454819Y-112095237D01*
X137738095Y-107550057D02*
X137785714Y-107502438D01*
X137785714Y-107502438D02*
X137880952Y-107454819D01*
X137880952Y-107454819D02*
X138119047Y-107454819D01*
X138119047Y-107454819D02*
X138214285Y-107502438D01*
X138214285Y-107502438D02*
X138261904Y-107550057D01*
X138261904Y-107550057D02*
X138309523Y-107645295D01*
X138309523Y-107645295D02*
X138309523Y-107740533D01*
X138309523Y-107740533D02*
X138261904Y-107883390D01*
X138261904Y-107883390D02*
X137690476Y-108454819D01*
X137690476Y-108454819D02*
X138309523Y-108454819D01*
X138690476Y-107550057D02*
X138738095Y-107502438D01*
X138738095Y-107502438D02*
X138833333Y-107454819D01*
X138833333Y-107454819D02*
X139071428Y-107454819D01*
X139071428Y-107454819D02*
X139166666Y-107502438D01*
X139166666Y-107502438D02*
X139214285Y-107550057D01*
X139214285Y-107550057D02*
X139261904Y-107645295D01*
X139261904Y-107645295D02*
X139261904Y-107740533D01*
X139261904Y-107740533D02*
X139214285Y-107883390D01*
X139214285Y-107883390D02*
X138642857Y-108454819D01*
X138642857Y-108454819D02*
X139261904Y-108454819D01*
X139690476Y-108454819D02*
X139690476Y-107454819D01*
X140261904Y-108454819D02*
X139833333Y-107883390D01*
X140261904Y-107454819D02*
X139690476Y-108026247D01*
X139454819Y-102666666D02*
X138978628Y-102999999D01*
X139454819Y-103238094D02*
X138454819Y-103238094D01*
X138454819Y-103238094D02*
X138454819Y-102857142D01*
X138454819Y-102857142D02*
X138502438Y-102761904D01*
X138502438Y-102761904D02*
X138550057Y-102714285D01*
X138550057Y-102714285D02*
X138645295Y-102666666D01*
X138645295Y-102666666D02*
X138788152Y-102666666D01*
X138788152Y-102666666D02*
X138883390Y-102714285D01*
X138883390Y-102714285D02*
X138931009Y-102761904D01*
X138931009Y-102761904D02*
X138978628Y-102857142D01*
X138978628Y-102857142D02*
X138978628Y-103238094D01*
X139454819Y-102190475D02*
X139454819Y-101999999D01*
X139454819Y-101999999D02*
X139407200Y-101904761D01*
X139407200Y-101904761D02*
X139359580Y-101857142D01*
X139359580Y-101857142D02*
X139216723Y-101761904D01*
X139216723Y-101761904D02*
X139026247Y-101714285D01*
X139026247Y-101714285D02*
X138645295Y-101714285D01*
X138645295Y-101714285D02*
X138550057Y-101761904D01*
X138550057Y-101761904D02*
X138502438Y-101809523D01*
X138502438Y-101809523D02*
X138454819Y-101904761D01*
X138454819Y-101904761D02*
X138454819Y-102095237D01*
X138454819Y-102095237D02*
X138502438Y-102190475D01*
X138502438Y-102190475D02*
X138550057Y-102238094D01*
X138550057Y-102238094D02*
X138645295Y-102285713D01*
X138645295Y-102285713D02*
X138883390Y-102285713D01*
X138883390Y-102285713D02*
X138978628Y-102238094D01*
X138978628Y-102238094D02*
X139026247Y-102190475D01*
X139026247Y-102190475D02*
X139073866Y-102095237D01*
X139073866Y-102095237D02*
X139073866Y-101904761D01*
X139073866Y-101904761D02*
X139026247Y-101809523D01*
X139026247Y-101809523D02*
X138978628Y-101761904D01*
X138978628Y-101761904D02*
X138883390Y-101714285D01*
X138284523Y-98454819D02*
X137713095Y-98454819D01*
X137998809Y-98454819D02*
X137998809Y-97454819D01*
X137998809Y-97454819D02*
X137903571Y-97597676D01*
X137903571Y-97597676D02*
X137808333Y-97692914D01*
X137808333Y-97692914D02*
X137713095Y-97740533D01*
X139189285Y-97454819D02*
X138713095Y-97454819D01*
X138713095Y-97454819D02*
X138665476Y-97931009D01*
X138665476Y-97931009D02*
X138713095Y-97883390D01*
X138713095Y-97883390D02*
X138808333Y-97835771D01*
X138808333Y-97835771D02*
X139046428Y-97835771D01*
X139046428Y-97835771D02*
X139141666Y-97883390D01*
X139141666Y-97883390D02*
X139189285Y-97931009D01*
X139189285Y-97931009D02*
X139236904Y-98026247D01*
X139236904Y-98026247D02*
X139236904Y-98264342D01*
X139236904Y-98264342D02*
X139189285Y-98359580D01*
X139189285Y-98359580D02*
X139141666Y-98407200D01*
X139141666Y-98407200D02*
X139046428Y-98454819D01*
X139046428Y-98454819D02*
X138808333Y-98454819D01*
X138808333Y-98454819D02*
X138713095Y-98407200D01*
X138713095Y-98407200D02*
X138665476Y-98359580D01*
X139665476Y-98454819D02*
X139665476Y-97454819D01*
X140236904Y-98454819D02*
X139808333Y-97883390D01*
X140236904Y-97454819D02*
X139665476Y-98026247D01*
X186069065Y-88799925D02*
X186706486Y-88799925D01*
X186706486Y-88799925D02*
X186781476Y-88762430D01*
X186781476Y-88762430D02*
X186818972Y-88724934D01*
X186818972Y-88724934D02*
X186856467Y-88649944D01*
X186856467Y-88649944D02*
X186856467Y-88499962D01*
X186856467Y-88499962D02*
X186818972Y-88424972D01*
X186818972Y-88424972D02*
X186781476Y-88387476D01*
X186781476Y-88387476D02*
X186706486Y-88349981D01*
X186706486Y-88349981D02*
X186069065Y-88349981D01*
X186144056Y-88012523D02*
X186106560Y-87975028D01*
X186106560Y-87975028D02*
X186069065Y-87900037D01*
X186069065Y-87900037D02*
X186069065Y-87712561D01*
X186069065Y-87712561D02*
X186106560Y-87637570D01*
X186106560Y-87637570D02*
X186144056Y-87600075D01*
X186144056Y-87600075D02*
X186219046Y-87562579D01*
X186219046Y-87562579D02*
X186294037Y-87562579D01*
X186294037Y-87562579D02*
X186406523Y-87600075D01*
X186406523Y-87600075D02*
X186856467Y-88050019D01*
X186856467Y-88050019D02*
X186856467Y-87562579D01*
X195094065Y-90655944D02*
X195094065Y-90206000D01*
X195881467Y-90430972D02*
X195094065Y-90430972D01*
X195881467Y-89943533D02*
X195094065Y-89943533D01*
X195094065Y-89943533D02*
X195094065Y-89756056D01*
X195094065Y-89756056D02*
X195131560Y-89643570D01*
X195131560Y-89643570D02*
X195206551Y-89568580D01*
X195206551Y-89568580D02*
X195281542Y-89531084D01*
X195281542Y-89531084D02*
X195431523Y-89493589D01*
X195431523Y-89493589D02*
X195544009Y-89493589D01*
X195544009Y-89493589D02*
X195693990Y-89531084D01*
X195693990Y-89531084D02*
X195768981Y-89568580D01*
X195768981Y-89568580D02*
X195843972Y-89643570D01*
X195843972Y-89643570D02*
X195881467Y-89756056D01*
X195881467Y-89756056D02*
X195881467Y-89943533D01*
X195656495Y-89193626D02*
X195656495Y-88818673D01*
X195881467Y-89268617D02*
X195094065Y-89006150D01*
X195094065Y-89006150D02*
X195881467Y-88743682D01*
X195169056Y-88518710D02*
X195131560Y-88481215D01*
X195131560Y-88481215D02*
X195094065Y-88406224D01*
X195094065Y-88406224D02*
X195094065Y-88218748D01*
X195094065Y-88218748D02*
X195131560Y-88143757D01*
X195131560Y-88143757D02*
X195169056Y-88106262D01*
X195169056Y-88106262D02*
X195244046Y-88068766D01*
X195244046Y-88068766D02*
X195319037Y-88068766D01*
X195319037Y-88068766D02*
X195431523Y-88106262D01*
X195431523Y-88106262D02*
X195881467Y-88556206D01*
X195881467Y-88556206D02*
X195881467Y-88068766D01*
X195094065Y-87581327D02*
X195094065Y-87506336D01*
X195094065Y-87506336D02*
X195131560Y-87431345D01*
X195131560Y-87431345D02*
X195169056Y-87393850D01*
X195169056Y-87393850D02*
X195244046Y-87356355D01*
X195244046Y-87356355D02*
X195394028Y-87318859D01*
X195394028Y-87318859D02*
X195581504Y-87318859D01*
X195581504Y-87318859D02*
X195731486Y-87356355D01*
X195731486Y-87356355D02*
X195806476Y-87393850D01*
X195806476Y-87393850D02*
X195843972Y-87431345D01*
X195843972Y-87431345D02*
X195881467Y-87506336D01*
X195881467Y-87506336D02*
X195881467Y-87581327D01*
X195881467Y-87581327D02*
X195843972Y-87656317D01*
X195843972Y-87656317D02*
X195806476Y-87693813D01*
X195806476Y-87693813D02*
X195731486Y-87731308D01*
X195731486Y-87731308D02*
X195581504Y-87768803D01*
X195581504Y-87768803D02*
X195394028Y-87768803D01*
X195394028Y-87768803D02*
X195244046Y-87731308D01*
X195244046Y-87731308D02*
X195169056Y-87693813D01*
X195169056Y-87693813D02*
X195131560Y-87656317D01*
X195131560Y-87656317D02*
X195094065Y-87581327D01*
X195094065Y-86606448D02*
X195094065Y-86981401D01*
X195094065Y-86981401D02*
X195469018Y-87018896D01*
X195469018Y-87018896D02*
X195431523Y-86981401D01*
X195431523Y-86981401D02*
X195394028Y-86906410D01*
X195394028Y-86906410D02*
X195394028Y-86718934D01*
X195394028Y-86718934D02*
X195431523Y-86643943D01*
X195431523Y-86643943D02*
X195469018Y-86606448D01*
X195469018Y-86606448D02*
X195544009Y-86568952D01*
X195544009Y-86568952D02*
X195731486Y-86568952D01*
X195731486Y-86568952D02*
X195806476Y-86606448D01*
X195806476Y-86606448D02*
X195843972Y-86643943D01*
X195843972Y-86643943D02*
X195881467Y-86718934D01*
X195881467Y-86718934D02*
X195881467Y-86906410D01*
X195881467Y-86906410D02*
X195843972Y-86981401D01*
X195843972Y-86981401D02*
X195806476Y-87018896D01*
X195094065Y-86081513D02*
X195094065Y-86006522D01*
X195094065Y-86006522D02*
X195131560Y-85931531D01*
X195131560Y-85931531D02*
X195169056Y-85894036D01*
X195169056Y-85894036D02*
X195244046Y-85856541D01*
X195244046Y-85856541D02*
X195394028Y-85819045D01*
X195394028Y-85819045D02*
X195581504Y-85819045D01*
X195581504Y-85819045D02*
X195731486Y-85856541D01*
X195731486Y-85856541D02*
X195806476Y-85894036D01*
X195806476Y-85894036D02*
X195843972Y-85931531D01*
X195843972Y-85931531D02*
X195881467Y-86006522D01*
X195881467Y-86006522D02*
X195881467Y-86081513D01*
X195881467Y-86081513D02*
X195843972Y-86156503D01*
X195843972Y-86156503D02*
X195806476Y-86193999D01*
X195806476Y-86193999D02*
X195731486Y-86231494D01*
X195731486Y-86231494D02*
X195581504Y-86268989D01*
X195581504Y-86268989D02*
X195394028Y-86268989D01*
X195394028Y-86268989D02*
X195244046Y-86231494D01*
X195244046Y-86231494D02*
X195169056Y-86193999D01*
X195169056Y-86193999D02*
X195131560Y-86156503D01*
X195131560Y-86156503D02*
X195094065Y-86081513D01*
X173979819Y-102806656D02*
X173503628Y-103139989D01*
X173979819Y-103378084D02*
X172979819Y-103378084D01*
X172979819Y-103378084D02*
X172979819Y-102997132D01*
X172979819Y-102997132D02*
X173027438Y-102901894D01*
X173027438Y-102901894D02*
X173075057Y-102854275D01*
X173075057Y-102854275D02*
X173170295Y-102806656D01*
X173170295Y-102806656D02*
X173313152Y-102806656D01*
X173313152Y-102806656D02*
X173408390Y-102854275D01*
X173408390Y-102854275D02*
X173456009Y-102901894D01*
X173456009Y-102901894D02*
X173503628Y-102997132D01*
X173503628Y-102997132D02*
X173503628Y-103378084D01*
X173313152Y-101949513D02*
X173979819Y-101949513D01*
X172932200Y-102187608D02*
X173646485Y-102425703D01*
X173646485Y-102425703D02*
X173646485Y-101806656D01*
X172213095Y-97550057D02*
X172260714Y-97502438D01*
X172260714Y-97502438D02*
X172355952Y-97454819D01*
X172355952Y-97454819D02*
X172594047Y-97454819D01*
X172594047Y-97454819D02*
X172689285Y-97502438D01*
X172689285Y-97502438D02*
X172736904Y-97550057D01*
X172736904Y-97550057D02*
X172784523Y-97645295D01*
X172784523Y-97645295D02*
X172784523Y-97740533D01*
X172784523Y-97740533D02*
X172736904Y-97883390D01*
X172736904Y-97883390D02*
X172165476Y-98454819D01*
X172165476Y-98454819D02*
X172784523Y-98454819D01*
X173165476Y-97550057D02*
X173213095Y-97502438D01*
X173213095Y-97502438D02*
X173308333Y-97454819D01*
X173308333Y-97454819D02*
X173546428Y-97454819D01*
X173546428Y-97454819D02*
X173641666Y-97502438D01*
X173641666Y-97502438D02*
X173689285Y-97550057D01*
X173689285Y-97550057D02*
X173736904Y-97645295D01*
X173736904Y-97645295D02*
X173736904Y-97740533D01*
X173736904Y-97740533D02*
X173689285Y-97883390D01*
X173689285Y-97883390D02*
X173117857Y-98454819D01*
X173117857Y-98454819D02*
X173736904Y-98454819D01*
X174165476Y-98454819D02*
X174165476Y-97454819D01*
X174736904Y-98454819D02*
X174308333Y-97883390D01*
X174736904Y-97454819D02*
X174165476Y-98026247D01*
X138084580Y-71927857D02*
X138132200Y-71975476D01*
X138132200Y-71975476D02*
X138179819Y-72118333D01*
X138179819Y-72118333D02*
X138179819Y-72213571D01*
X138179819Y-72213571D02*
X138132200Y-72356428D01*
X138132200Y-72356428D02*
X138036961Y-72451666D01*
X138036961Y-72451666D02*
X137941723Y-72499285D01*
X137941723Y-72499285D02*
X137751247Y-72546904D01*
X137751247Y-72546904D02*
X137608390Y-72546904D01*
X137608390Y-72546904D02*
X137417914Y-72499285D01*
X137417914Y-72499285D02*
X137322676Y-72451666D01*
X137322676Y-72451666D02*
X137227438Y-72356428D01*
X137227438Y-72356428D02*
X137179819Y-72213571D01*
X137179819Y-72213571D02*
X137179819Y-72118333D01*
X137179819Y-72118333D02*
X137227438Y-71975476D01*
X137227438Y-71975476D02*
X137275057Y-71927857D01*
X138179819Y-70975476D02*
X138179819Y-71546904D01*
X138179819Y-71261190D02*
X137179819Y-71261190D01*
X137179819Y-71261190D02*
X137322676Y-71356428D01*
X137322676Y-71356428D02*
X137417914Y-71451666D01*
X137417914Y-71451666D02*
X137465533Y-71546904D01*
X137179819Y-70356428D02*
X137179819Y-70261190D01*
X137179819Y-70261190D02*
X137227438Y-70165952D01*
X137227438Y-70165952D02*
X137275057Y-70118333D01*
X137275057Y-70118333D02*
X137370295Y-70070714D01*
X137370295Y-70070714D02*
X137560771Y-70023095D01*
X137560771Y-70023095D02*
X137798866Y-70023095D01*
X137798866Y-70023095D02*
X137989342Y-70070714D01*
X137989342Y-70070714D02*
X138084580Y-70118333D01*
X138084580Y-70118333D02*
X138132200Y-70165952D01*
X138132200Y-70165952D02*
X138179819Y-70261190D01*
X138179819Y-70261190D02*
X138179819Y-70356428D01*
X138179819Y-70356428D02*
X138132200Y-70451666D01*
X138132200Y-70451666D02*
X138084580Y-70499285D01*
X138084580Y-70499285D02*
X137989342Y-70546904D01*
X137989342Y-70546904D02*
X137798866Y-70594523D01*
X137798866Y-70594523D02*
X137560771Y-70594523D01*
X137560771Y-70594523D02*
X137370295Y-70546904D01*
X137370295Y-70546904D02*
X137275057Y-70499285D01*
X137275057Y-70499285D02*
X137227438Y-70451666D01*
X137227438Y-70451666D02*
X137179819Y-70356428D01*
X136882142Y-76429819D02*
X136310714Y-76429819D01*
X136596428Y-76429819D02*
X136596428Y-75429819D01*
X136596428Y-75429819D02*
X136501190Y-75572676D01*
X136501190Y-75572676D02*
X136405952Y-75667914D01*
X136405952Y-75667914D02*
X136310714Y-75715533D01*
X137501190Y-75429819D02*
X137596428Y-75429819D01*
X137596428Y-75429819D02*
X137691666Y-75477438D01*
X137691666Y-75477438D02*
X137739285Y-75525057D01*
X137739285Y-75525057D02*
X137786904Y-75620295D01*
X137786904Y-75620295D02*
X137834523Y-75810771D01*
X137834523Y-75810771D02*
X137834523Y-76048866D01*
X137834523Y-76048866D02*
X137786904Y-76239342D01*
X137786904Y-76239342D02*
X137739285Y-76334580D01*
X137739285Y-76334580D02*
X137691666Y-76382200D01*
X137691666Y-76382200D02*
X137596428Y-76429819D01*
X137596428Y-76429819D02*
X137501190Y-76429819D01*
X137501190Y-76429819D02*
X137405952Y-76382200D01*
X137405952Y-76382200D02*
X137358333Y-76334580D01*
X137358333Y-76334580D02*
X137310714Y-76239342D01*
X137310714Y-76239342D02*
X137263095Y-76048866D01*
X137263095Y-76048866D02*
X137263095Y-75810771D01*
X137263095Y-75810771D02*
X137310714Y-75620295D01*
X137310714Y-75620295D02*
X137358333Y-75525057D01*
X137358333Y-75525057D02*
X137405952Y-75477438D01*
X137405952Y-75477438D02*
X137501190Y-75429819D01*
X138263095Y-75763152D02*
X138263095Y-76429819D01*
X138263095Y-75858390D02*
X138310714Y-75810771D01*
X138310714Y-75810771D02*
X138405952Y-75763152D01*
X138405952Y-75763152D02*
X138548809Y-75763152D01*
X138548809Y-75763152D02*
X138644047Y-75810771D01*
X138644047Y-75810771D02*
X138691666Y-75906009D01*
X138691666Y-75906009D02*
X138691666Y-76429819D01*
X176783333Y-94809580D02*
X176735714Y-94857200D01*
X176735714Y-94857200D02*
X176592857Y-94904819D01*
X176592857Y-94904819D02*
X176497619Y-94904819D01*
X176497619Y-94904819D02*
X176354762Y-94857200D01*
X176354762Y-94857200D02*
X176259524Y-94761961D01*
X176259524Y-94761961D02*
X176211905Y-94666723D01*
X176211905Y-94666723D02*
X176164286Y-94476247D01*
X176164286Y-94476247D02*
X176164286Y-94333390D01*
X176164286Y-94333390D02*
X176211905Y-94142914D01*
X176211905Y-94142914D02*
X176259524Y-94047676D01*
X176259524Y-94047676D02*
X176354762Y-93952438D01*
X176354762Y-93952438D02*
X176497619Y-93904819D01*
X176497619Y-93904819D02*
X176592857Y-93904819D01*
X176592857Y-93904819D02*
X176735714Y-93952438D01*
X176735714Y-93952438D02*
X176783333Y-94000057D01*
X177164286Y-94000057D02*
X177211905Y-93952438D01*
X177211905Y-93952438D02*
X177307143Y-93904819D01*
X177307143Y-93904819D02*
X177545238Y-93904819D01*
X177545238Y-93904819D02*
X177640476Y-93952438D01*
X177640476Y-93952438D02*
X177688095Y-94000057D01*
X177688095Y-94000057D02*
X177735714Y-94095295D01*
X177735714Y-94095295D02*
X177735714Y-94190533D01*
X177735714Y-94190533D02*
X177688095Y-94333390D01*
X177688095Y-94333390D02*
X177116667Y-94904819D01*
X177116667Y-94904819D02*
X177735714Y-94904819D01*
X172954819Y-95494047D02*
X172954819Y-96065475D01*
X172954819Y-95779761D02*
X171954819Y-95779761D01*
X171954819Y-95779761D02*
X172097676Y-95874999D01*
X172097676Y-95874999D02*
X172192914Y-95970237D01*
X172192914Y-95970237D02*
X172240533Y-96065475D01*
X171954819Y-94874999D02*
X171954819Y-94779761D01*
X171954819Y-94779761D02*
X172002438Y-94684523D01*
X172002438Y-94684523D02*
X172050057Y-94636904D01*
X172050057Y-94636904D02*
X172145295Y-94589285D01*
X172145295Y-94589285D02*
X172335771Y-94541666D01*
X172335771Y-94541666D02*
X172573866Y-94541666D01*
X172573866Y-94541666D02*
X172764342Y-94589285D01*
X172764342Y-94589285D02*
X172859580Y-94636904D01*
X172859580Y-94636904D02*
X172907200Y-94684523D01*
X172907200Y-94684523D02*
X172954819Y-94779761D01*
X172954819Y-94779761D02*
X172954819Y-94874999D01*
X172954819Y-94874999D02*
X172907200Y-94970237D01*
X172907200Y-94970237D02*
X172859580Y-95017856D01*
X172859580Y-95017856D02*
X172764342Y-95065475D01*
X172764342Y-95065475D02*
X172573866Y-95113094D01*
X172573866Y-95113094D02*
X172335771Y-95113094D01*
X172335771Y-95113094D02*
X172145295Y-95065475D01*
X172145295Y-95065475D02*
X172050057Y-95017856D01*
X172050057Y-95017856D02*
X172002438Y-94970237D01*
X172002438Y-94970237D02*
X171954819Y-94874999D01*
X171954819Y-93922618D02*
X171954819Y-93827380D01*
X171954819Y-93827380D02*
X172002438Y-93732142D01*
X172002438Y-93732142D02*
X172050057Y-93684523D01*
X172050057Y-93684523D02*
X172145295Y-93636904D01*
X172145295Y-93636904D02*
X172335771Y-93589285D01*
X172335771Y-93589285D02*
X172573866Y-93589285D01*
X172573866Y-93589285D02*
X172764342Y-93636904D01*
X172764342Y-93636904D02*
X172859580Y-93684523D01*
X172859580Y-93684523D02*
X172907200Y-93732142D01*
X172907200Y-93732142D02*
X172954819Y-93827380D01*
X172954819Y-93827380D02*
X172954819Y-93922618D01*
X172954819Y-93922618D02*
X172907200Y-94017856D01*
X172907200Y-94017856D02*
X172859580Y-94065475D01*
X172859580Y-94065475D02*
X172764342Y-94113094D01*
X172764342Y-94113094D02*
X172573866Y-94160713D01*
X172573866Y-94160713D02*
X172335771Y-94160713D01*
X172335771Y-94160713D02*
X172145295Y-94113094D01*
X172145295Y-94113094D02*
X172050057Y-94065475D01*
X172050057Y-94065475D02*
X172002438Y-94017856D01*
X172002438Y-94017856D02*
X171954819Y-93922618D01*
X172288152Y-93160713D02*
X172954819Y-93160713D01*
X172383390Y-93160713D02*
X172335771Y-93113094D01*
X172335771Y-93113094D02*
X172288152Y-93017856D01*
X172288152Y-93017856D02*
X172288152Y-92874999D01*
X172288152Y-92874999D02*
X172335771Y-92779761D01*
X172335771Y-92779761D02*
X172431009Y-92732142D01*
X172431009Y-92732142D02*
X172954819Y-92732142D01*
X196665476Y-113899819D02*
X196665476Y-114614104D01*
X196665476Y-114614104D02*
X196617857Y-114756961D01*
X196617857Y-114756961D02*
X196522619Y-114852200D01*
X196522619Y-114852200D02*
X196379762Y-114899819D01*
X196379762Y-114899819D02*
X196284524Y-114899819D01*
X197665476Y-114899819D02*
X197094048Y-114899819D01*
X197379762Y-114899819D02*
X197379762Y-113899819D01*
X197379762Y-113899819D02*
X197284524Y-114042676D01*
X197284524Y-114042676D02*
X197189286Y-114137914D01*
X197189286Y-114137914D02*
X197094048Y-114185533D01*
X198617857Y-114899819D02*
X198046429Y-114899819D01*
X198332143Y-114899819D02*
X198332143Y-113899819D01*
X198332143Y-113899819D02*
X198236905Y-114042676D01*
X198236905Y-114042676D02*
X198141667Y-114137914D01*
X198141667Y-114137914D02*
X198046429Y-114185533D01*
X178897080Y-102681656D02*
X178944700Y-102729275D01*
X178944700Y-102729275D02*
X178992319Y-102872132D01*
X178992319Y-102872132D02*
X178992319Y-102967370D01*
X178992319Y-102967370D02*
X178944700Y-103110227D01*
X178944700Y-103110227D02*
X178849461Y-103205465D01*
X178849461Y-103205465D02*
X178754223Y-103253084D01*
X178754223Y-103253084D02*
X178563747Y-103300703D01*
X178563747Y-103300703D02*
X178420890Y-103300703D01*
X178420890Y-103300703D02*
X178230414Y-103253084D01*
X178230414Y-103253084D02*
X178135176Y-103205465D01*
X178135176Y-103205465D02*
X178039938Y-103110227D01*
X178039938Y-103110227D02*
X177992319Y-102967370D01*
X177992319Y-102967370D02*
X177992319Y-102872132D01*
X177992319Y-102872132D02*
X178039938Y-102729275D01*
X178039938Y-102729275D02*
X178087557Y-102681656D01*
X178325652Y-101824513D02*
X178992319Y-101824513D01*
X177944700Y-102062608D02*
X178658985Y-102300703D01*
X178658985Y-102300703D02*
X178658985Y-101681656D01*
X177268452Y-98454819D02*
X176697024Y-98454819D01*
X176982738Y-98454819D02*
X176982738Y-97454819D01*
X176982738Y-97454819D02*
X176887500Y-97597676D01*
X176887500Y-97597676D02*
X176792262Y-97692914D01*
X176792262Y-97692914D02*
X176697024Y-97740533D01*
X177887500Y-97454819D02*
X177982738Y-97454819D01*
X177982738Y-97454819D02*
X178077976Y-97502438D01*
X178077976Y-97502438D02*
X178125595Y-97550057D01*
X178125595Y-97550057D02*
X178173214Y-97645295D01*
X178173214Y-97645295D02*
X178220833Y-97835771D01*
X178220833Y-97835771D02*
X178220833Y-98073866D01*
X178220833Y-98073866D02*
X178173214Y-98264342D01*
X178173214Y-98264342D02*
X178125595Y-98359580D01*
X178125595Y-98359580D02*
X178077976Y-98407200D01*
X178077976Y-98407200D02*
X177982738Y-98454819D01*
X177982738Y-98454819D02*
X177887500Y-98454819D01*
X177887500Y-98454819D02*
X177792262Y-98407200D01*
X177792262Y-98407200D02*
X177744643Y-98359580D01*
X177744643Y-98359580D02*
X177697024Y-98264342D01*
X177697024Y-98264342D02*
X177649405Y-98073866D01*
X177649405Y-98073866D02*
X177649405Y-97835771D01*
X177649405Y-97835771D02*
X177697024Y-97645295D01*
X177697024Y-97645295D02*
X177744643Y-97550057D01*
X177744643Y-97550057D02*
X177792262Y-97502438D01*
X177792262Y-97502438D02*
X177887500Y-97454819D01*
X178839881Y-97454819D02*
X178935119Y-97454819D01*
X178935119Y-97454819D02*
X179030357Y-97502438D01*
X179030357Y-97502438D02*
X179077976Y-97550057D01*
X179077976Y-97550057D02*
X179125595Y-97645295D01*
X179125595Y-97645295D02*
X179173214Y-97835771D01*
X179173214Y-97835771D02*
X179173214Y-98073866D01*
X179173214Y-98073866D02*
X179125595Y-98264342D01*
X179125595Y-98264342D02*
X179077976Y-98359580D01*
X179077976Y-98359580D02*
X179030357Y-98407200D01*
X179030357Y-98407200D02*
X178935119Y-98454819D01*
X178935119Y-98454819D02*
X178839881Y-98454819D01*
X178839881Y-98454819D02*
X178744643Y-98407200D01*
X178744643Y-98407200D02*
X178697024Y-98359580D01*
X178697024Y-98359580D02*
X178649405Y-98264342D01*
X178649405Y-98264342D02*
X178601786Y-98073866D01*
X178601786Y-98073866D02*
X178601786Y-97835771D01*
X178601786Y-97835771D02*
X178649405Y-97645295D01*
X178649405Y-97645295D02*
X178697024Y-97550057D01*
X178697024Y-97550057D02*
X178744643Y-97502438D01*
X178744643Y-97502438D02*
X178839881Y-97454819D01*
X179601786Y-97788152D02*
X179601786Y-98454819D01*
X179601786Y-97883390D02*
X179649405Y-97835771D01*
X179649405Y-97835771D02*
X179744643Y-97788152D01*
X179744643Y-97788152D02*
X179887500Y-97788152D01*
X179887500Y-97788152D02*
X179982738Y-97835771D01*
X179982738Y-97835771D02*
X180030357Y-97931009D01*
X180030357Y-97931009D02*
X180030357Y-98454819D01*
X169849819Y-67861904D02*
X170659342Y-67861904D01*
X170659342Y-67861904D02*
X170754580Y-67814285D01*
X170754580Y-67814285D02*
X170802200Y-67766666D01*
X170802200Y-67766666D02*
X170849819Y-67671428D01*
X170849819Y-67671428D02*
X170849819Y-67480952D01*
X170849819Y-67480952D02*
X170802200Y-67385714D01*
X170802200Y-67385714D02*
X170754580Y-67338095D01*
X170754580Y-67338095D02*
X170659342Y-67290476D01*
X170659342Y-67290476D02*
X169849819Y-67290476D01*
X170849819Y-66290476D02*
X170849819Y-66861904D01*
X170849819Y-66576190D02*
X169849819Y-66576190D01*
X169849819Y-66576190D02*
X169992676Y-66671428D01*
X169992676Y-66671428D02*
X170087914Y-66766666D01*
X170087914Y-66766666D02*
X170135533Y-66861904D01*
X144454819Y-108166666D02*
X143978628Y-108499999D01*
X144454819Y-108738094D02*
X143454819Y-108738094D01*
X143454819Y-108738094D02*
X143454819Y-108357142D01*
X143454819Y-108357142D02*
X143502438Y-108261904D01*
X143502438Y-108261904D02*
X143550057Y-108214285D01*
X143550057Y-108214285D02*
X143645295Y-108166666D01*
X143645295Y-108166666D02*
X143788152Y-108166666D01*
X143788152Y-108166666D02*
X143883390Y-108214285D01*
X143883390Y-108214285D02*
X143931009Y-108261904D01*
X143931009Y-108261904D02*
X143978628Y-108357142D01*
X143978628Y-108357142D02*
X143978628Y-108738094D01*
X143883390Y-107595237D02*
X143835771Y-107690475D01*
X143835771Y-107690475D02*
X143788152Y-107738094D01*
X143788152Y-107738094D02*
X143692914Y-107785713D01*
X143692914Y-107785713D02*
X143645295Y-107785713D01*
X143645295Y-107785713D02*
X143550057Y-107738094D01*
X143550057Y-107738094D02*
X143502438Y-107690475D01*
X143502438Y-107690475D02*
X143454819Y-107595237D01*
X143454819Y-107595237D02*
X143454819Y-107404761D01*
X143454819Y-107404761D02*
X143502438Y-107309523D01*
X143502438Y-107309523D02*
X143550057Y-107261904D01*
X143550057Y-107261904D02*
X143645295Y-107214285D01*
X143645295Y-107214285D02*
X143692914Y-107214285D01*
X143692914Y-107214285D02*
X143788152Y-107261904D01*
X143788152Y-107261904D02*
X143835771Y-107309523D01*
X143835771Y-107309523D02*
X143883390Y-107404761D01*
X143883390Y-107404761D02*
X143883390Y-107595237D01*
X143883390Y-107595237D02*
X143931009Y-107690475D01*
X143931009Y-107690475D02*
X143978628Y-107738094D01*
X143978628Y-107738094D02*
X144073866Y-107785713D01*
X144073866Y-107785713D02*
X144264342Y-107785713D01*
X144264342Y-107785713D02*
X144359580Y-107738094D01*
X144359580Y-107738094D02*
X144407200Y-107690475D01*
X144407200Y-107690475D02*
X144454819Y-107595237D01*
X144454819Y-107595237D02*
X144454819Y-107404761D01*
X144454819Y-107404761D02*
X144407200Y-107309523D01*
X144407200Y-107309523D02*
X144359580Y-107261904D01*
X144359580Y-107261904D02*
X144264342Y-107214285D01*
X144264342Y-107214285D02*
X144073866Y-107214285D01*
X144073866Y-107214285D02*
X143978628Y-107261904D01*
X143978628Y-107261904D02*
X143931009Y-107309523D01*
X143931009Y-107309523D02*
X143883390Y-107404761D01*
X142883928Y-103954819D02*
X142312500Y-103954819D01*
X142598214Y-103954819D02*
X142598214Y-102954819D01*
X142598214Y-102954819D02*
X142502976Y-103097676D01*
X142502976Y-103097676D02*
X142407738Y-103192914D01*
X142407738Y-103192914D02*
X142312500Y-103240533D01*
X143312500Y-103859580D02*
X143360119Y-103907200D01*
X143360119Y-103907200D02*
X143312500Y-103954819D01*
X143312500Y-103954819D02*
X143264881Y-103907200D01*
X143264881Y-103907200D02*
X143312500Y-103859580D01*
X143312500Y-103859580D02*
X143312500Y-103954819D01*
X144264880Y-102954819D02*
X143788690Y-102954819D01*
X143788690Y-102954819D02*
X143741071Y-103431009D01*
X143741071Y-103431009D02*
X143788690Y-103383390D01*
X143788690Y-103383390D02*
X143883928Y-103335771D01*
X143883928Y-103335771D02*
X144122023Y-103335771D01*
X144122023Y-103335771D02*
X144217261Y-103383390D01*
X144217261Y-103383390D02*
X144264880Y-103431009D01*
X144264880Y-103431009D02*
X144312499Y-103526247D01*
X144312499Y-103526247D02*
X144312499Y-103764342D01*
X144312499Y-103764342D02*
X144264880Y-103859580D01*
X144264880Y-103859580D02*
X144217261Y-103907200D01*
X144217261Y-103907200D02*
X144122023Y-103954819D01*
X144122023Y-103954819D02*
X143883928Y-103954819D01*
X143883928Y-103954819D02*
X143788690Y-103907200D01*
X143788690Y-103907200D02*
X143741071Y-103859580D01*
X144741071Y-103954819D02*
X144741071Y-102954819D01*
X145312499Y-103954819D02*
X144883928Y-103383390D01*
X145312499Y-102954819D02*
X144741071Y-103526247D01*
X132019065Y-88799925D02*
X132656486Y-88799925D01*
X132656486Y-88799925D02*
X132731476Y-88762430D01*
X132731476Y-88762430D02*
X132768972Y-88724934D01*
X132768972Y-88724934D02*
X132806467Y-88649944D01*
X132806467Y-88649944D02*
X132806467Y-88499962D01*
X132806467Y-88499962D02*
X132768972Y-88424972D01*
X132768972Y-88424972D02*
X132731476Y-88387476D01*
X132731476Y-88387476D02*
X132656486Y-88349981D01*
X132656486Y-88349981D02*
X132019065Y-88349981D01*
X132019065Y-88050019D02*
X132019065Y-87562579D01*
X132019065Y-87562579D02*
X132319028Y-87825047D01*
X132319028Y-87825047D02*
X132319028Y-87712561D01*
X132319028Y-87712561D02*
X132356523Y-87637570D01*
X132356523Y-87637570D02*
X132394018Y-87600075D01*
X132394018Y-87600075D02*
X132469009Y-87562579D01*
X132469009Y-87562579D02*
X132656486Y-87562579D01*
X132656486Y-87562579D02*
X132731476Y-87600075D01*
X132731476Y-87600075D02*
X132768972Y-87637570D01*
X132768972Y-87637570D02*
X132806467Y-87712561D01*
X132806467Y-87712561D02*
X132806467Y-87937533D01*
X132806467Y-87937533D02*
X132768972Y-88012523D01*
X132768972Y-88012523D02*
X132731476Y-88050019D01*
X122994065Y-90655944D02*
X122994065Y-90206000D01*
X123781467Y-90430972D02*
X122994065Y-90430972D01*
X123781467Y-89943533D02*
X122994065Y-89943533D01*
X122994065Y-89943533D02*
X122994065Y-89756056D01*
X122994065Y-89756056D02*
X123031560Y-89643570D01*
X123031560Y-89643570D02*
X123106551Y-89568580D01*
X123106551Y-89568580D02*
X123181542Y-89531084D01*
X123181542Y-89531084D02*
X123331523Y-89493589D01*
X123331523Y-89493589D02*
X123444009Y-89493589D01*
X123444009Y-89493589D02*
X123593990Y-89531084D01*
X123593990Y-89531084D02*
X123668981Y-89568580D01*
X123668981Y-89568580D02*
X123743972Y-89643570D01*
X123743972Y-89643570D02*
X123781467Y-89756056D01*
X123781467Y-89756056D02*
X123781467Y-89943533D01*
X123556495Y-89193626D02*
X123556495Y-88818673D01*
X123781467Y-89268617D02*
X122994065Y-89006150D01*
X122994065Y-89006150D02*
X123781467Y-88743682D01*
X123069056Y-88518710D02*
X123031560Y-88481215D01*
X123031560Y-88481215D02*
X122994065Y-88406224D01*
X122994065Y-88406224D02*
X122994065Y-88218748D01*
X122994065Y-88218748D02*
X123031560Y-88143757D01*
X123031560Y-88143757D02*
X123069056Y-88106262D01*
X123069056Y-88106262D02*
X123144046Y-88068766D01*
X123144046Y-88068766D02*
X123219037Y-88068766D01*
X123219037Y-88068766D02*
X123331523Y-88106262D01*
X123331523Y-88106262D02*
X123781467Y-88556206D01*
X123781467Y-88556206D02*
X123781467Y-88068766D01*
X122994065Y-87581327D02*
X122994065Y-87506336D01*
X122994065Y-87506336D02*
X123031560Y-87431345D01*
X123031560Y-87431345D02*
X123069056Y-87393850D01*
X123069056Y-87393850D02*
X123144046Y-87356355D01*
X123144046Y-87356355D02*
X123294028Y-87318859D01*
X123294028Y-87318859D02*
X123481504Y-87318859D01*
X123481504Y-87318859D02*
X123631486Y-87356355D01*
X123631486Y-87356355D02*
X123706476Y-87393850D01*
X123706476Y-87393850D02*
X123743972Y-87431345D01*
X123743972Y-87431345D02*
X123781467Y-87506336D01*
X123781467Y-87506336D02*
X123781467Y-87581327D01*
X123781467Y-87581327D02*
X123743972Y-87656317D01*
X123743972Y-87656317D02*
X123706476Y-87693813D01*
X123706476Y-87693813D02*
X123631486Y-87731308D01*
X123631486Y-87731308D02*
X123481504Y-87768803D01*
X123481504Y-87768803D02*
X123294028Y-87768803D01*
X123294028Y-87768803D02*
X123144046Y-87731308D01*
X123144046Y-87731308D02*
X123069056Y-87693813D01*
X123069056Y-87693813D02*
X123031560Y-87656317D01*
X123031560Y-87656317D02*
X122994065Y-87581327D01*
X122994065Y-86606448D02*
X122994065Y-86981401D01*
X122994065Y-86981401D02*
X123369018Y-87018896D01*
X123369018Y-87018896D02*
X123331523Y-86981401D01*
X123331523Y-86981401D02*
X123294028Y-86906410D01*
X123294028Y-86906410D02*
X123294028Y-86718934D01*
X123294028Y-86718934D02*
X123331523Y-86643943D01*
X123331523Y-86643943D02*
X123369018Y-86606448D01*
X123369018Y-86606448D02*
X123444009Y-86568952D01*
X123444009Y-86568952D02*
X123631486Y-86568952D01*
X123631486Y-86568952D02*
X123706476Y-86606448D01*
X123706476Y-86606448D02*
X123743972Y-86643943D01*
X123743972Y-86643943D02*
X123781467Y-86718934D01*
X123781467Y-86718934D02*
X123781467Y-86906410D01*
X123781467Y-86906410D02*
X123743972Y-86981401D01*
X123743972Y-86981401D02*
X123706476Y-87018896D01*
X122994065Y-86081513D02*
X122994065Y-86006522D01*
X122994065Y-86006522D02*
X123031560Y-85931531D01*
X123031560Y-85931531D02*
X123069056Y-85894036D01*
X123069056Y-85894036D02*
X123144046Y-85856541D01*
X123144046Y-85856541D02*
X123294028Y-85819045D01*
X123294028Y-85819045D02*
X123481504Y-85819045D01*
X123481504Y-85819045D02*
X123631486Y-85856541D01*
X123631486Y-85856541D02*
X123706476Y-85894036D01*
X123706476Y-85894036D02*
X123743972Y-85931531D01*
X123743972Y-85931531D02*
X123781467Y-86006522D01*
X123781467Y-86006522D02*
X123781467Y-86081513D01*
X123781467Y-86081513D02*
X123743972Y-86156503D01*
X123743972Y-86156503D02*
X123706476Y-86193999D01*
X123706476Y-86193999D02*
X123631486Y-86231494D01*
X123631486Y-86231494D02*
X123481504Y-86268989D01*
X123481504Y-86268989D02*
X123294028Y-86268989D01*
X123294028Y-86268989D02*
X123144046Y-86231494D01*
X123144046Y-86231494D02*
X123069056Y-86193999D01*
X123069056Y-86193999D02*
X123031560Y-86156503D01*
X123031560Y-86156503D02*
X122994065Y-86081513D01*
X132959580Y-71737857D02*
X133007200Y-71785476D01*
X133007200Y-71785476D02*
X133054819Y-71928333D01*
X133054819Y-71928333D02*
X133054819Y-72023571D01*
X133054819Y-72023571D02*
X133007200Y-72166428D01*
X133007200Y-72166428D02*
X132911961Y-72261666D01*
X132911961Y-72261666D02*
X132816723Y-72309285D01*
X132816723Y-72309285D02*
X132626247Y-72356904D01*
X132626247Y-72356904D02*
X132483390Y-72356904D01*
X132483390Y-72356904D02*
X132292914Y-72309285D01*
X132292914Y-72309285D02*
X132197676Y-72261666D01*
X132197676Y-72261666D02*
X132102438Y-72166428D01*
X132102438Y-72166428D02*
X132054819Y-72023571D01*
X132054819Y-72023571D02*
X132054819Y-71928333D01*
X132054819Y-71928333D02*
X132102438Y-71785476D01*
X132102438Y-71785476D02*
X132150057Y-71737857D01*
X133054819Y-70785476D02*
X133054819Y-71356904D01*
X133054819Y-71071190D02*
X132054819Y-71071190D01*
X132054819Y-71071190D02*
X132197676Y-71166428D01*
X132197676Y-71166428D02*
X132292914Y-71261666D01*
X132292914Y-71261666D02*
X132340533Y-71356904D01*
X133054819Y-69833095D02*
X133054819Y-70404523D01*
X133054819Y-70118809D02*
X132054819Y-70118809D01*
X132054819Y-70118809D02*
X132197676Y-70214047D01*
X132197676Y-70214047D02*
X132292914Y-70309285D01*
X132292914Y-70309285D02*
X132340533Y-70404523D01*
X131957142Y-76429819D02*
X131385714Y-76429819D01*
X131671428Y-76429819D02*
X131671428Y-75429819D01*
X131671428Y-75429819D02*
X131576190Y-75572676D01*
X131576190Y-75572676D02*
X131480952Y-75667914D01*
X131480952Y-75667914D02*
X131385714Y-75715533D01*
X132576190Y-75429819D02*
X132671428Y-75429819D01*
X132671428Y-75429819D02*
X132766666Y-75477438D01*
X132766666Y-75477438D02*
X132814285Y-75525057D01*
X132814285Y-75525057D02*
X132861904Y-75620295D01*
X132861904Y-75620295D02*
X132909523Y-75810771D01*
X132909523Y-75810771D02*
X132909523Y-76048866D01*
X132909523Y-76048866D02*
X132861904Y-76239342D01*
X132861904Y-76239342D02*
X132814285Y-76334580D01*
X132814285Y-76334580D02*
X132766666Y-76382200D01*
X132766666Y-76382200D02*
X132671428Y-76429819D01*
X132671428Y-76429819D02*
X132576190Y-76429819D01*
X132576190Y-76429819D02*
X132480952Y-76382200D01*
X132480952Y-76382200D02*
X132433333Y-76334580D01*
X132433333Y-76334580D02*
X132385714Y-76239342D01*
X132385714Y-76239342D02*
X132338095Y-76048866D01*
X132338095Y-76048866D02*
X132338095Y-75810771D01*
X132338095Y-75810771D02*
X132385714Y-75620295D01*
X132385714Y-75620295D02*
X132433333Y-75525057D01*
X132433333Y-75525057D02*
X132480952Y-75477438D01*
X132480952Y-75477438D02*
X132576190Y-75429819D01*
X133338095Y-75763152D02*
X133338095Y-76429819D01*
X133338095Y-75858390D02*
X133385714Y-75810771D01*
X133385714Y-75810771D02*
X133480952Y-75763152D01*
X133480952Y-75763152D02*
X133623809Y-75763152D01*
X133623809Y-75763152D02*
X133719047Y-75810771D01*
X133719047Y-75810771D02*
X133766666Y-75906009D01*
X133766666Y-75906009D02*
X133766666Y-76429819D01*
X176883333Y-83419580D02*
X176835714Y-83467200D01*
X176835714Y-83467200D02*
X176692857Y-83514819D01*
X176692857Y-83514819D02*
X176597619Y-83514819D01*
X176597619Y-83514819D02*
X176454762Y-83467200D01*
X176454762Y-83467200D02*
X176359524Y-83371961D01*
X176359524Y-83371961D02*
X176311905Y-83276723D01*
X176311905Y-83276723D02*
X176264286Y-83086247D01*
X176264286Y-83086247D02*
X176264286Y-82943390D01*
X176264286Y-82943390D02*
X176311905Y-82752914D01*
X176311905Y-82752914D02*
X176359524Y-82657676D01*
X176359524Y-82657676D02*
X176454762Y-82562438D01*
X176454762Y-82562438D02*
X176597619Y-82514819D01*
X176597619Y-82514819D02*
X176692857Y-82514819D01*
X176692857Y-82514819D02*
X176835714Y-82562438D01*
X176835714Y-82562438D02*
X176883333Y-82610057D01*
X177835714Y-83514819D02*
X177264286Y-83514819D01*
X177550000Y-83514819D02*
X177550000Y-82514819D01*
X177550000Y-82514819D02*
X177454762Y-82657676D01*
X177454762Y-82657676D02*
X177359524Y-82752914D01*
X177359524Y-82752914D02*
X177264286Y-82800533D01*
X172954819Y-84530238D02*
X172954819Y-85101666D01*
X172954819Y-84815952D02*
X171954819Y-84815952D01*
X171954819Y-84815952D02*
X172097676Y-84911190D01*
X172097676Y-84911190D02*
X172192914Y-85006428D01*
X172192914Y-85006428D02*
X172240533Y-85101666D01*
X171954819Y-83911190D02*
X171954819Y-83815952D01*
X171954819Y-83815952D02*
X172002438Y-83720714D01*
X172002438Y-83720714D02*
X172050057Y-83673095D01*
X172050057Y-83673095D02*
X172145295Y-83625476D01*
X172145295Y-83625476D02*
X172335771Y-83577857D01*
X172335771Y-83577857D02*
X172573866Y-83577857D01*
X172573866Y-83577857D02*
X172764342Y-83625476D01*
X172764342Y-83625476D02*
X172859580Y-83673095D01*
X172859580Y-83673095D02*
X172907200Y-83720714D01*
X172907200Y-83720714D02*
X172954819Y-83815952D01*
X172954819Y-83815952D02*
X172954819Y-83911190D01*
X172954819Y-83911190D02*
X172907200Y-84006428D01*
X172907200Y-84006428D02*
X172859580Y-84054047D01*
X172859580Y-84054047D02*
X172764342Y-84101666D01*
X172764342Y-84101666D02*
X172573866Y-84149285D01*
X172573866Y-84149285D02*
X172335771Y-84149285D01*
X172335771Y-84149285D02*
X172145295Y-84101666D01*
X172145295Y-84101666D02*
X172050057Y-84054047D01*
X172050057Y-84054047D02*
X172002438Y-84006428D01*
X172002438Y-84006428D02*
X171954819Y-83911190D01*
X171954819Y-82958809D02*
X171954819Y-82863571D01*
X171954819Y-82863571D02*
X172002438Y-82768333D01*
X172002438Y-82768333D02*
X172050057Y-82720714D01*
X172050057Y-82720714D02*
X172145295Y-82673095D01*
X172145295Y-82673095D02*
X172335771Y-82625476D01*
X172335771Y-82625476D02*
X172573866Y-82625476D01*
X172573866Y-82625476D02*
X172764342Y-82673095D01*
X172764342Y-82673095D02*
X172859580Y-82720714D01*
X172859580Y-82720714D02*
X172907200Y-82768333D01*
X172907200Y-82768333D02*
X172954819Y-82863571D01*
X172954819Y-82863571D02*
X172954819Y-82958809D01*
X172954819Y-82958809D02*
X172907200Y-83054047D01*
X172907200Y-83054047D02*
X172859580Y-83101666D01*
X172859580Y-83101666D02*
X172764342Y-83149285D01*
X172764342Y-83149285D02*
X172573866Y-83196904D01*
X172573866Y-83196904D02*
X172335771Y-83196904D01*
X172335771Y-83196904D02*
X172145295Y-83149285D01*
X172145295Y-83149285D02*
X172050057Y-83101666D01*
X172050057Y-83101666D02*
X172002438Y-83054047D01*
X172002438Y-83054047D02*
X171954819Y-82958809D01*
X171954819Y-82006428D02*
X171954819Y-81911190D01*
X171954819Y-81911190D02*
X172002438Y-81815952D01*
X172002438Y-81815952D02*
X172050057Y-81768333D01*
X172050057Y-81768333D02*
X172145295Y-81720714D01*
X172145295Y-81720714D02*
X172335771Y-81673095D01*
X172335771Y-81673095D02*
X172573866Y-81673095D01*
X172573866Y-81673095D02*
X172764342Y-81720714D01*
X172764342Y-81720714D02*
X172859580Y-81768333D01*
X172859580Y-81768333D02*
X172907200Y-81815952D01*
X172907200Y-81815952D02*
X172954819Y-81911190D01*
X172954819Y-81911190D02*
X172954819Y-82006428D01*
X172954819Y-82006428D02*
X172907200Y-82101666D01*
X172907200Y-82101666D02*
X172859580Y-82149285D01*
X172859580Y-82149285D02*
X172764342Y-82196904D01*
X172764342Y-82196904D02*
X172573866Y-82244523D01*
X172573866Y-82244523D02*
X172335771Y-82244523D01*
X172335771Y-82244523D02*
X172145295Y-82196904D01*
X172145295Y-82196904D02*
X172050057Y-82149285D01*
X172050057Y-82149285D02*
X172002438Y-82101666D01*
X172002438Y-82101666D02*
X171954819Y-82006428D01*
X172288152Y-80815952D02*
X172954819Y-80815952D01*
X172288152Y-81244523D02*
X172811961Y-81244523D01*
X172811961Y-81244523D02*
X172907200Y-81196904D01*
X172907200Y-81196904D02*
X172954819Y-81101666D01*
X172954819Y-81101666D02*
X172954819Y-80958809D01*
X172954819Y-80958809D02*
X172907200Y-80863571D01*
X172907200Y-80863571D02*
X172859580Y-80815952D01*
X173947080Y-112656666D02*
X173994700Y-112704285D01*
X173994700Y-112704285D02*
X174042319Y-112847142D01*
X174042319Y-112847142D02*
X174042319Y-112942380D01*
X174042319Y-112942380D02*
X173994700Y-113085237D01*
X173994700Y-113085237D02*
X173899461Y-113180475D01*
X173899461Y-113180475D02*
X173804223Y-113228094D01*
X173804223Y-113228094D02*
X173613747Y-113275713D01*
X173613747Y-113275713D02*
X173470890Y-113275713D01*
X173470890Y-113275713D02*
X173280414Y-113228094D01*
X173280414Y-113228094D02*
X173185176Y-113180475D01*
X173185176Y-113180475D02*
X173089938Y-113085237D01*
X173089938Y-113085237D02*
X173042319Y-112942380D01*
X173042319Y-112942380D02*
X173042319Y-112847142D01*
X173042319Y-112847142D02*
X173089938Y-112704285D01*
X173089938Y-112704285D02*
X173137557Y-112656666D01*
X173042319Y-112323332D02*
X173042319Y-111704285D01*
X173042319Y-111704285D02*
X173423271Y-112037618D01*
X173423271Y-112037618D02*
X173423271Y-111894761D01*
X173423271Y-111894761D02*
X173470890Y-111799523D01*
X173470890Y-111799523D02*
X173518509Y-111751904D01*
X173518509Y-111751904D02*
X173613747Y-111704285D01*
X173613747Y-111704285D02*
X173851842Y-111704285D01*
X173851842Y-111704285D02*
X173947080Y-111751904D01*
X173947080Y-111751904D02*
X173994700Y-111799523D01*
X173994700Y-111799523D02*
X174042319Y-111894761D01*
X174042319Y-111894761D02*
X174042319Y-112180475D01*
X174042319Y-112180475D02*
X173994700Y-112275713D01*
X173994700Y-112275713D02*
X173947080Y-112323332D01*
X171809524Y-107454819D02*
X171904762Y-107454819D01*
X171904762Y-107454819D02*
X172000000Y-107502438D01*
X172000000Y-107502438D02*
X172047619Y-107550057D01*
X172047619Y-107550057D02*
X172095238Y-107645295D01*
X172095238Y-107645295D02*
X172142857Y-107835771D01*
X172142857Y-107835771D02*
X172142857Y-108073866D01*
X172142857Y-108073866D02*
X172095238Y-108264342D01*
X172095238Y-108264342D02*
X172047619Y-108359580D01*
X172047619Y-108359580D02*
X172000000Y-108407200D01*
X172000000Y-108407200D02*
X171904762Y-108454819D01*
X171904762Y-108454819D02*
X171809524Y-108454819D01*
X171809524Y-108454819D02*
X171714286Y-108407200D01*
X171714286Y-108407200D02*
X171666667Y-108359580D01*
X171666667Y-108359580D02*
X171619048Y-108264342D01*
X171619048Y-108264342D02*
X171571429Y-108073866D01*
X171571429Y-108073866D02*
X171571429Y-107835771D01*
X171571429Y-107835771D02*
X171619048Y-107645295D01*
X171619048Y-107645295D02*
X171666667Y-107550057D01*
X171666667Y-107550057D02*
X171714286Y-107502438D01*
X171714286Y-107502438D02*
X171809524Y-107454819D01*
X172571429Y-108359580D02*
X172619048Y-108407200D01*
X172619048Y-108407200D02*
X172571429Y-108454819D01*
X172571429Y-108454819D02*
X172523810Y-108407200D01*
X172523810Y-108407200D02*
X172571429Y-108359580D01*
X172571429Y-108359580D02*
X172571429Y-108454819D01*
X173476190Y-107788152D02*
X173476190Y-108454819D01*
X173238095Y-107407200D02*
X173000000Y-108121485D01*
X173000000Y-108121485D02*
X173619047Y-108121485D01*
X173904762Y-107454819D02*
X174571428Y-107454819D01*
X174571428Y-107454819D02*
X174142857Y-108454819D01*
X175380952Y-107788152D02*
X175380952Y-108454819D01*
X174952381Y-107788152D02*
X174952381Y-108311961D01*
X174952381Y-108311961D02*
X175000000Y-108407200D01*
X175000000Y-108407200D02*
X175095238Y-108454819D01*
X175095238Y-108454819D02*
X175238095Y-108454819D01*
X175238095Y-108454819D02*
X175333333Y-108407200D01*
X175333333Y-108407200D02*
X175380952Y-108359580D01*
X183979819Y-102931656D02*
X183503628Y-103264989D01*
X183979819Y-103503084D02*
X182979819Y-103503084D01*
X182979819Y-103503084D02*
X182979819Y-103122132D01*
X182979819Y-103122132D02*
X183027438Y-103026894D01*
X183027438Y-103026894D02*
X183075057Y-102979275D01*
X183075057Y-102979275D02*
X183170295Y-102931656D01*
X183170295Y-102931656D02*
X183313152Y-102931656D01*
X183313152Y-102931656D02*
X183408390Y-102979275D01*
X183408390Y-102979275D02*
X183456009Y-103026894D01*
X183456009Y-103026894D02*
X183503628Y-103122132D01*
X183503628Y-103122132D02*
X183503628Y-103503084D01*
X182979819Y-102026894D02*
X182979819Y-102503084D01*
X182979819Y-102503084D02*
X183456009Y-102550703D01*
X183456009Y-102550703D02*
X183408390Y-102503084D01*
X183408390Y-102503084D02*
X183360771Y-102407846D01*
X183360771Y-102407846D02*
X183360771Y-102169751D01*
X183360771Y-102169751D02*
X183408390Y-102074513D01*
X183408390Y-102074513D02*
X183456009Y-102026894D01*
X183456009Y-102026894D02*
X183551247Y-101979275D01*
X183551247Y-101979275D02*
X183789342Y-101979275D01*
X183789342Y-101979275D02*
X183884580Y-102026894D01*
X183884580Y-102026894D02*
X183932200Y-102074513D01*
X183932200Y-102074513D02*
X183979819Y-102169751D01*
X183979819Y-102169751D02*
X183979819Y-102407846D01*
X183979819Y-102407846D02*
X183932200Y-102503084D01*
X183932200Y-102503084D02*
X183884580Y-102550703D01*
X182113095Y-97550057D02*
X182160714Y-97502438D01*
X182160714Y-97502438D02*
X182255952Y-97454819D01*
X182255952Y-97454819D02*
X182494047Y-97454819D01*
X182494047Y-97454819D02*
X182589285Y-97502438D01*
X182589285Y-97502438D02*
X182636904Y-97550057D01*
X182636904Y-97550057D02*
X182684523Y-97645295D01*
X182684523Y-97645295D02*
X182684523Y-97740533D01*
X182684523Y-97740533D02*
X182636904Y-97883390D01*
X182636904Y-97883390D02*
X182065476Y-98454819D01*
X182065476Y-98454819D02*
X182684523Y-98454819D01*
X183065476Y-97550057D02*
X183113095Y-97502438D01*
X183113095Y-97502438D02*
X183208333Y-97454819D01*
X183208333Y-97454819D02*
X183446428Y-97454819D01*
X183446428Y-97454819D02*
X183541666Y-97502438D01*
X183541666Y-97502438D02*
X183589285Y-97550057D01*
X183589285Y-97550057D02*
X183636904Y-97645295D01*
X183636904Y-97645295D02*
X183636904Y-97740533D01*
X183636904Y-97740533D02*
X183589285Y-97883390D01*
X183589285Y-97883390D02*
X183017857Y-98454819D01*
X183017857Y-98454819D02*
X183636904Y-98454819D01*
X184065476Y-98454819D02*
X184065476Y-97454819D01*
X184636904Y-98454819D02*
X184208333Y-97883390D01*
X184636904Y-97454819D02*
X184065476Y-98026247D01*
X134359580Y-112666666D02*
X134407200Y-112714285D01*
X134407200Y-112714285D02*
X134454819Y-112857142D01*
X134454819Y-112857142D02*
X134454819Y-112952380D01*
X134454819Y-112952380D02*
X134407200Y-113095237D01*
X134407200Y-113095237D02*
X134311961Y-113190475D01*
X134311961Y-113190475D02*
X134216723Y-113238094D01*
X134216723Y-113238094D02*
X134026247Y-113285713D01*
X134026247Y-113285713D02*
X133883390Y-113285713D01*
X133883390Y-113285713D02*
X133692914Y-113238094D01*
X133692914Y-113238094D02*
X133597676Y-113190475D01*
X133597676Y-113190475D02*
X133502438Y-113095237D01*
X133502438Y-113095237D02*
X133454819Y-112952380D01*
X133454819Y-112952380D02*
X133454819Y-112857142D01*
X133454819Y-112857142D02*
X133502438Y-112714285D01*
X133502438Y-112714285D02*
X133550057Y-112666666D01*
X133454819Y-111761904D02*
X133454819Y-112238094D01*
X133454819Y-112238094D02*
X133931009Y-112285713D01*
X133931009Y-112285713D02*
X133883390Y-112238094D01*
X133883390Y-112238094D02*
X133835771Y-112142856D01*
X133835771Y-112142856D02*
X133835771Y-111904761D01*
X133835771Y-111904761D02*
X133883390Y-111809523D01*
X133883390Y-111809523D02*
X133931009Y-111761904D01*
X133931009Y-111761904D02*
X134026247Y-111714285D01*
X134026247Y-111714285D02*
X134264342Y-111714285D01*
X134264342Y-111714285D02*
X134359580Y-111761904D01*
X134359580Y-111761904D02*
X134407200Y-111809523D01*
X134407200Y-111809523D02*
X134454819Y-111904761D01*
X134454819Y-111904761D02*
X134454819Y-112142856D01*
X134454819Y-112142856D02*
X134407200Y-112238094D01*
X134407200Y-112238094D02*
X134359580Y-112285713D01*
X132880952Y-108454819D02*
X132309524Y-108454819D01*
X132595238Y-108454819D02*
X132595238Y-107454819D01*
X132595238Y-107454819D02*
X132500000Y-107597676D01*
X132500000Y-107597676D02*
X132404762Y-107692914D01*
X132404762Y-107692914D02*
X132309524Y-107740533D01*
X133500000Y-107454819D02*
X133595238Y-107454819D01*
X133595238Y-107454819D02*
X133690476Y-107502438D01*
X133690476Y-107502438D02*
X133738095Y-107550057D01*
X133738095Y-107550057D02*
X133785714Y-107645295D01*
X133785714Y-107645295D02*
X133833333Y-107835771D01*
X133833333Y-107835771D02*
X133833333Y-108073866D01*
X133833333Y-108073866D02*
X133785714Y-108264342D01*
X133785714Y-108264342D02*
X133738095Y-108359580D01*
X133738095Y-108359580D02*
X133690476Y-108407200D01*
X133690476Y-108407200D02*
X133595238Y-108454819D01*
X133595238Y-108454819D02*
X133500000Y-108454819D01*
X133500000Y-108454819D02*
X133404762Y-108407200D01*
X133404762Y-108407200D02*
X133357143Y-108359580D01*
X133357143Y-108359580D02*
X133309524Y-108264342D01*
X133309524Y-108264342D02*
X133261905Y-108073866D01*
X133261905Y-108073866D02*
X133261905Y-107835771D01*
X133261905Y-107835771D02*
X133309524Y-107645295D01*
X133309524Y-107645295D02*
X133357143Y-107550057D01*
X133357143Y-107550057D02*
X133404762Y-107502438D01*
X133404762Y-107502438D02*
X133500000Y-107454819D01*
X134452381Y-107454819D02*
X134547619Y-107454819D01*
X134547619Y-107454819D02*
X134642857Y-107502438D01*
X134642857Y-107502438D02*
X134690476Y-107550057D01*
X134690476Y-107550057D02*
X134738095Y-107645295D01*
X134738095Y-107645295D02*
X134785714Y-107835771D01*
X134785714Y-107835771D02*
X134785714Y-108073866D01*
X134785714Y-108073866D02*
X134738095Y-108264342D01*
X134738095Y-108264342D02*
X134690476Y-108359580D01*
X134690476Y-108359580D02*
X134642857Y-108407200D01*
X134642857Y-108407200D02*
X134547619Y-108454819D01*
X134547619Y-108454819D02*
X134452381Y-108454819D01*
X134452381Y-108454819D02*
X134357143Y-108407200D01*
X134357143Y-108407200D02*
X134309524Y-108359580D01*
X134309524Y-108359580D02*
X134261905Y-108264342D01*
X134261905Y-108264342D02*
X134214286Y-108073866D01*
X134214286Y-108073866D02*
X134214286Y-107835771D01*
X134214286Y-107835771D02*
X134261905Y-107645295D01*
X134261905Y-107645295D02*
X134309524Y-107550057D01*
X134309524Y-107550057D02*
X134357143Y-107502438D01*
X134357143Y-107502438D02*
X134452381Y-107454819D01*
X135214286Y-107788152D02*
X135214286Y-108454819D01*
X135214286Y-107883390D02*
X135261905Y-107835771D01*
X135261905Y-107835771D02*
X135357143Y-107788152D01*
X135357143Y-107788152D02*
X135500000Y-107788152D01*
X135500000Y-107788152D02*
X135595238Y-107835771D01*
X135595238Y-107835771D02*
X135642857Y-107931009D01*
X135642857Y-107931009D02*
X135642857Y-108454819D01*
X178854819Y-112731666D02*
X178378628Y-113064999D01*
X178854819Y-113303094D02*
X177854819Y-113303094D01*
X177854819Y-113303094D02*
X177854819Y-112922142D01*
X177854819Y-112922142D02*
X177902438Y-112826904D01*
X177902438Y-112826904D02*
X177950057Y-112779285D01*
X177950057Y-112779285D02*
X178045295Y-112731666D01*
X178045295Y-112731666D02*
X178188152Y-112731666D01*
X178188152Y-112731666D02*
X178283390Y-112779285D01*
X178283390Y-112779285D02*
X178331009Y-112826904D01*
X178331009Y-112826904D02*
X178378628Y-112922142D01*
X178378628Y-112922142D02*
X178378628Y-113303094D01*
X177950057Y-112350713D02*
X177902438Y-112303094D01*
X177902438Y-112303094D02*
X177854819Y-112207856D01*
X177854819Y-112207856D02*
X177854819Y-111969761D01*
X177854819Y-111969761D02*
X177902438Y-111874523D01*
X177902438Y-111874523D02*
X177950057Y-111826904D01*
X177950057Y-111826904D02*
X178045295Y-111779285D01*
X178045295Y-111779285D02*
X178140533Y-111779285D01*
X178140533Y-111779285D02*
X178283390Y-111826904D01*
X178283390Y-111826904D02*
X178854819Y-112398332D01*
X178854819Y-112398332D02*
X178854819Y-111779285D01*
X177500000Y-107550057D02*
X177547619Y-107502438D01*
X177547619Y-107502438D02*
X177642857Y-107454819D01*
X177642857Y-107454819D02*
X177880952Y-107454819D01*
X177880952Y-107454819D02*
X177976190Y-107502438D01*
X177976190Y-107502438D02*
X178023809Y-107550057D01*
X178023809Y-107550057D02*
X178071428Y-107645295D01*
X178071428Y-107645295D02*
X178071428Y-107740533D01*
X178071428Y-107740533D02*
X178023809Y-107883390D01*
X178023809Y-107883390D02*
X177452381Y-108454819D01*
X177452381Y-108454819D02*
X178071428Y-108454819D01*
X178500000Y-108359580D02*
X178547619Y-108407200D01*
X178547619Y-108407200D02*
X178500000Y-108454819D01*
X178500000Y-108454819D02*
X178452381Y-108407200D01*
X178452381Y-108407200D02*
X178500000Y-108359580D01*
X178500000Y-108359580D02*
X178500000Y-108454819D01*
X178928571Y-107550057D02*
X178976190Y-107502438D01*
X178976190Y-107502438D02*
X179071428Y-107454819D01*
X179071428Y-107454819D02*
X179309523Y-107454819D01*
X179309523Y-107454819D02*
X179404761Y-107502438D01*
X179404761Y-107502438D02*
X179452380Y-107550057D01*
X179452380Y-107550057D02*
X179499999Y-107645295D01*
X179499999Y-107645295D02*
X179499999Y-107740533D01*
X179499999Y-107740533D02*
X179452380Y-107883390D01*
X179452380Y-107883390D02*
X178880952Y-108454819D01*
X178880952Y-108454819D02*
X179499999Y-108454819D01*
X189304819Y-108206676D02*
X188828628Y-108540009D01*
X189304819Y-108778104D02*
X188304819Y-108778104D01*
X188304819Y-108778104D02*
X188304819Y-108397152D01*
X188304819Y-108397152D02*
X188352438Y-108301914D01*
X188352438Y-108301914D02*
X188400057Y-108254295D01*
X188400057Y-108254295D02*
X188495295Y-108206676D01*
X188495295Y-108206676D02*
X188638152Y-108206676D01*
X188638152Y-108206676D02*
X188733390Y-108254295D01*
X188733390Y-108254295D02*
X188781009Y-108301914D01*
X188781009Y-108301914D02*
X188828628Y-108397152D01*
X188828628Y-108397152D02*
X188828628Y-108778104D01*
X188304819Y-107873342D02*
X188304819Y-107254295D01*
X188304819Y-107254295D02*
X188685771Y-107587628D01*
X188685771Y-107587628D02*
X188685771Y-107444771D01*
X188685771Y-107444771D02*
X188733390Y-107349533D01*
X188733390Y-107349533D02*
X188781009Y-107301914D01*
X188781009Y-107301914D02*
X188876247Y-107254295D01*
X188876247Y-107254295D02*
X189114342Y-107254295D01*
X189114342Y-107254295D02*
X189209580Y-107301914D01*
X189209580Y-107301914D02*
X189257200Y-107349533D01*
X189257200Y-107349533D02*
X189304819Y-107444771D01*
X189304819Y-107444771D02*
X189304819Y-107730485D01*
X189304819Y-107730485D02*
X189257200Y-107825723D01*
X189257200Y-107825723D02*
X189209580Y-107873342D01*
X188021428Y-103494819D02*
X187450000Y-103494819D01*
X187735714Y-103494819D02*
X187735714Y-102494819D01*
X187735714Y-102494819D02*
X187640476Y-102637676D01*
X187640476Y-102637676D02*
X187545238Y-102732914D01*
X187545238Y-102732914D02*
X187450000Y-102780533D01*
X188450000Y-103399580D02*
X188497619Y-103447200D01*
X188497619Y-103447200D02*
X188450000Y-103494819D01*
X188450000Y-103494819D02*
X188402381Y-103447200D01*
X188402381Y-103447200D02*
X188450000Y-103399580D01*
X188450000Y-103399580D02*
X188450000Y-103494819D01*
X189402380Y-102494819D02*
X188926190Y-102494819D01*
X188926190Y-102494819D02*
X188878571Y-102971009D01*
X188878571Y-102971009D02*
X188926190Y-102923390D01*
X188926190Y-102923390D02*
X189021428Y-102875771D01*
X189021428Y-102875771D02*
X189259523Y-102875771D01*
X189259523Y-102875771D02*
X189354761Y-102923390D01*
X189354761Y-102923390D02*
X189402380Y-102971009D01*
X189402380Y-102971009D02*
X189449999Y-103066247D01*
X189449999Y-103066247D02*
X189449999Y-103304342D01*
X189449999Y-103304342D02*
X189402380Y-103399580D01*
X189402380Y-103399580D02*
X189354761Y-103447200D01*
X189354761Y-103447200D02*
X189259523Y-103494819D01*
X189259523Y-103494819D02*
X189021428Y-103494819D01*
X189021428Y-103494819D02*
X188926190Y-103447200D01*
X188926190Y-103447200D02*
X188878571Y-103399580D01*
X189878571Y-103494819D02*
X189878571Y-102494819D01*
X190449999Y-103494819D02*
X190021428Y-102923390D01*
X190449999Y-102494819D02*
X189878571Y-103066247D01*
X129359580Y-102666666D02*
X129407200Y-102714285D01*
X129407200Y-102714285D02*
X129454819Y-102857142D01*
X129454819Y-102857142D02*
X129454819Y-102952380D01*
X129454819Y-102952380D02*
X129407200Y-103095237D01*
X129407200Y-103095237D02*
X129311961Y-103190475D01*
X129311961Y-103190475D02*
X129216723Y-103238094D01*
X129216723Y-103238094D02*
X129026247Y-103285713D01*
X129026247Y-103285713D02*
X128883390Y-103285713D01*
X128883390Y-103285713D02*
X128692914Y-103238094D01*
X128692914Y-103238094D02*
X128597676Y-103190475D01*
X128597676Y-103190475D02*
X128502438Y-103095237D01*
X128502438Y-103095237D02*
X128454819Y-102952380D01*
X128454819Y-102952380D02*
X128454819Y-102857142D01*
X128454819Y-102857142D02*
X128502438Y-102714285D01*
X128502438Y-102714285D02*
X128550057Y-102666666D01*
X128883390Y-102095237D02*
X128835771Y-102190475D01*
X128835771Y-102190475D02*
X128788152Y-102238094D01*
X128788152Y-102238094D02*
X128692914Y-102285713D01*
X128692914Y-102285713D02*
X128645295Y-102285713D01*
X128645295Y-102285713D02*
X128550057Y-102238094D01*
X128550057Y-102238094D02*
X128502438Y-102190475D01*
X128502438Y-102190475D02*
X128454819Y-102095237D01*
X128454819Y-102095237D02*
X128454819Y-101904761D01*
X128454819Y-101904761D02*
X128502438Y-101809523D01*
X128502438Y-101809523D02*
X128550057Y-101761904D01*
X128550057Y-101761904D02*
X128645295Y-101714285D01*
X128645295Y-101714285D02*
X128692914Y-101714285D01*
X128692914Y-101714285D02*
X128788152Y-101761904D01*
X128788152Y-101761904D02*
X128835771Y-101809523D01*
X128835771Y-101809523D02*
X128883390Y-101904761D01*
X128883390Y-101904761D02*
X128883390Y-102095237D01*
X128883390Y-102095237D02*
X128931009Y-102190475D01*
X128931009Y-102190475D02*
X128978628Y-102238094D01*
X128978628Y-102238094D02*
X129073866Y-102285713D01*
X129073866Y-102285713D02*
X129264342Y-102285713D01*
X129264342Y-102285713D02*
X129359580Y-102238094D01*
X129359580Y-102238094D02*
X129407200Y-102190475D01*
X129407200Y-102190475D02*
X129454819Y-102095237D01*
X129454819Y-102095237D02*
X129454819Y-101904761D01*
X129454819Y-101904761D02*
X129407200Y-101809523D01*
X129407200Y-101809523D02*
X129359580Y-101761904D01*
X129359580Y-101761904D02*
X129264342Y-101714285D01*
X129264342Y-101714285D02*
X129073866Y-101714285D01*
X129073866Y-101714285D02*
X128978628Y-101761904D01*
X128978628Y-101761904D02*
X128931009Y-101809523D01*
X128931009Y-101809523D02*
X128883390Y-101904761D01*
X127309524Y-97454819D02*
X127404762Y-97454819D01*
X127404762Y-97454819D02*
X127500000Y-97502438D01*
X127500000Y-97502438D02*
X127547619Y-97550057D01*
X127547619Y-97550057D02*
X127595238Y-97645295D01*
X127595238Y-97645295D02*
X127642857Y-97835771D01*
X127642857Y-97835771D02*
X127642857Y-98073866D01*
X127642857Y-98073866D02*
X127595238Y-98264342D01*
X127595238Y-98264342D02*
X127547619Y-98359580D01*
X127547619Y-98359580D02*
X127500000Y-98407200D01*
X127500000Y-98407200D02*
X127404762Y-98454819D01*
X127404762Y-98454819D02*
X127309524Y-98454819D01*
X127309524Y-98454819D02*
X127214286Y-98407200D01*
X127214286Y-98407200D02*
X127166667Y-98359580D01*
X127166667Y-98359580D02*
X127119048Y-98264342D01*
X127119048Y-98264342D02*
X127071429Y-98073866D01*
X127071429Y-98073866D02*
X127071429Y-97835771D01*
X127071429Y-97835771D02*
X127119048Y-97645295D01*
X127119048Y-97645295D02*
X127166667Y-97550057D01*
X127166667Y-97550057D02*
X127214286Y-97502438D01*
X127214286Y-97502438D02*
X127309524Y-97454819D01*
X128071429Y-98359580D02*
X128119048Y-98407200D01*
X128119048Y-98407200D02*
X128071429Y-98454819D01*
X128071429Y-98454819D02*
X128023810Y-98407200D01*
X128023810Y-98407200D02*
X128071429Y-98359580D01*
X128071429Y-98359580D02*
X128071429Y-98454819D01*
X128976190Y-97788152D02*
X128976190Y-98454819D01*
X128738095Y-97407200D02*
X128500000Y-98121485D01*
X128500000Y-98121485D02*
X129119047Y-98121485D01*
X129404762Y-97454819D02*
X130071428Y-97454819D01*
X130071428Y-97454819D02*
X129642857Y-98454819D01*
X130880952Y-97788152D02*
X130880952Y-98454819D01*
X130452381Y-97788152D02*
X130452381Y-98311961D01*
X130452381Y-98311961D02*
X130500000Y-98407200D01*
X130500000Y-98407200D02*
X130595238Y-98454819D01*
X130595238Y-98454819D02*
X130738095Y-98454819D01*
X130738095Y-98454819D02*
X130833333Y-98407200D01*
X130833333Y-98407200D02*
X130880952Y-98359580D01*
X129554819Y-112666666D02*
X129078628Y-112999999D01*
X129554819Y-113238094D02*
X128554819Y-113238094D01*
X128554819Y-113238094D02*
X128554819Y-112857142D01*
X128554819Y-112857142D02*
X128602438Y-112761904D01*
X128602438Y-112761904D02*
X128650057Y-112714285D01*
X128650057Y-112714285D02*
X128745295Y-112666666D01*
X128745295Y-112666666D02*
X128888152Y-112666666D01*
X128888152Y-112666666D02*
X128983390Y-112714285D01*
X128983390Y-112714285D02*
X129031009Y-112761904D01*
X129031009Y-112761904D02*
X129078628Y-112857142D01*
X129078628Y-112857142D02*
X129078628Y-113238094D01*
X128554819Y-111809523D02*
X128554819Y-111999999D01*
X128554819Y-111999999D02*
X128602438Y-112095237D01*
X128602438Y-112095237D02*
X128650057Y-112142856D01*
X128650057Y-112142856D02*
X128792914Y-112238094D01*
X128792914Y-112238094D02*
X128983390Y-112285713D01*
X128983390Y-112285713D02*
X129364342Y-112285713D01*
X129364342Y-112285713D02*
X129459580Y-112238094D01*
X129459580Y-112238094D02*
X129507200Y-112190475D01*
X129507200Y-112190475D02*
X129554819Y-112095237D01*
X129554819Y-112095237D02*
X129554819Y-111904761D01*
X129554819Y-111904761D02*
X129507200Y-111809523D01*
X129507200Y-111809523D02*
X129459580Y-111761904D01*
X129459580Y-111761904D02*
X129364342Y-111714285D01*
X129364342Y-111714285D02*
X129126247Y-111714285D01*
X129126247Y-111714285D02*
X129031009Y-111761904D01*
X129031009Y-111761904D02*
X128983390Y-111809523D01*
X128983390Y-111809523D02*
X128935771Y-111904761D01*
X128935771Y-111904761D02*
X128935771Y-112095237D01*
X128935771Y-112095237D02*
X128983390Y-112190475D01*
X128983390Y-112190475D02*
X129031009Y-112238094D01*
X129031009Y-112238094D02*
X129126247Y-112285713D01*
X127838095Y-107550057D02*
X127885714Y-107502438D01*
X127885714Y-107502438D02*
X127980952Y-107454819D01*
X127980952Y-107454819D02*
X128219047Y-107454819D01*
X128219047Y-107454819D02*
X128314285Y-107502438D01*
X128314285Y-107502438D02*
X128361904Y-107550057D01*
X128361904Y-107550057D02*
X128409523Y-107645295D01*
X128409523Y-107645295D02*
X128409523Y-107740533D01*
X128409523Y-107740533D02*
X128361904Y-107883390D01*
X128361904Y-107883390D02*
X127790476Y-108454819D01*
X127790476Y-108454819D02*
X128409523Y-108454819D01*
X128790476Y-107550057D02*
X128838095Y-107502438D01*
X128838095Y-107502438D02*
X128933333Y-107454819D01*
X128933333Y-107454819D02*
X129171428Y-107454819D01*
X129171428Y-107454819D02*
X129266666Y-107502438D01*
X129266666Y-107502438D02*
X129314285Y-107550057D01*
X129314285Y-107550057D02*
X129361904Y-107645295D01*
X129361904Y-107645295D02*
X129361904Y-107740533D01*
X129361904Y-107740533D02*
X129314285Y-107883390D01*
X129314285Y-107883390D02*
X128742857Y-108454819D01*
X128742857Y-108454819D02*
X129361904Y-108454819D01*
X129790476Y-108454819D02*
X129790476Y-107454819D01*
X130361904Y-108454819D02*
X129933333Y-107883390D01*
X130361904Y-107454819D02*
X129790476Y-108026247D01*
X183904819Y-112741666D02*
X183428628Y-113074999D01*
X183904819Y-113313094D02*
X182904819Y-113313094D01*
X182904819Y-113313094D02*
X182904819Y-112932142D01*
X182904819Y-112932142D02*
X182952438Y-112836904D01*
X182952438Y-112836904D02*
X183000057Y-112789285D01*
X183000057Y-112789285D02*
X183095295Y-112741666D01*
X183095295Y-112741666D02*
X183238152Y-112741666D01*
X183238152Y-112741666D02*
X183333390Y-112789285D01*
X183333390Y-112789285D02*
X183381009Y-112836904D01*
X183381009Y-112836904D02*
X183428628Y-112932142D01*
X183428628Y-112932142D02*
X183428628Y-113313094D01*
X183904819Y-111789285D02*
X183904819Y-112360713D01*
X183904819Y-112074999D02*
X182904819Y-112074999D01*
X182904819Y-112074999D02*
X183047676Y-112170237D01*
X183047676Y-112170237D02*
X183142914Y-112265475D01*
X183142914Y-112265475D02*
X183190533Y-112360713D01*
X182809523Y-108454819D02*
X182238095Y-108454819D01*
X182523809Y-108454819D02*
X182523809Y-107454819D01*
X182523809Y-107454819D02*
X182428571Y-107597676D01*
X182428571Y-107597676D02*
X182333333Y-107692914D01*
X182333333Y-107692914D02*
X182238095Y-107740533D01*
X183714285Y-107454819D02*
X183238095Y-107454819D01*
X183238095Y-107454819D02*
X183190476Y-107931009D01*
X183190476Y-107931009D02*
X183238095Y-107883390D01*
X183238095Y-107883390D02*
X183333333Y-107835771D01*
X183333333Y-107835771D02*
X183571428Y-107835771D01*
X183571428Y-107835771D02*
X183666666Y-107883390D01*
X183666666Y-107883390D02*
X183714285Y-107931009D01*
X183714285Y-107931009D02*
X183761904Y-108026247D01*
X183761904Y-108026247D02*
X183761904Y-108264342D01*
X183761904Y-108264342D02*
X183714285Y-108359580D01*
X183714285Y-108359580D02*
X183666666Y-108407200D01*
X183666666Y-108407200D02*
X183571428Y-108454819D01*
X183571428Y-108454819D02*
X183333333Y-108454819D01*
X183333333Y-108454819D02*
X183238095Y-108407200D01*
X183238095Y-108407200D02*
X183190476Y-108359580D01*
X184190476Y-108454819D02*
X184190476Y-107454819D01*
X184761904Y-108454819D02*
X184333333Y-107883390D01*
X184761904Y-107454819D02*
X184190476Y-108026247D01*
%TO.C,J10*%
D15*
X144515000Y-119520000D02*
X144515000Y-118775000D01*
X145250000Y-119520000D02*
X144515000Y-119520000D01*
X145985000Y-118030000D02*
X147860000Y-118030000D01*
X145985000Y-118089435D02*
X145985000Y-118030000D01*
X145985000Y-119520000D02*
X145985000Y-119460565D01*
X145985000Y-119520000D02*
X147860000Y-119520000D01*
X147860000Y-118364970D02*
X147860000Y-118030000D01*
X147860000Y-119520000D02*
X147860000Y-119185030D01*
%TO.C,C9*%
X137120000Y-78055000D02*
X133280000Y-78055000D01*
X137120000Y-79895000D02*
X133280000Y-79895000D01*
%TO.C,R10*%
X133067500Y-100580000D02*
X133067500Y-104420000D01*
X134907500Y-100580000D02*
X134907500Y-104420000D01*
%TO.C,R7*%
X138055000Y-110620000D02*
X138055000Y-114460000D01*
X139895000Y-110620000D02*
X139895000Y-114460000D01*
%TO.C,J4*%
X163205000Y-117395000D02*
X163205000Y-120155000D01*
X181095000Y-117395000D02*
X163205000Y-117395000D01*
X181095000Y-117395000D02*
X181095000Y-120155000D01*
X181095000Y-120155000D02*
X163205000Y-120155000D01*
X182365000Y-117395000D02*
X183745000Y-117395000D01*
X183745000Y-117395000D02*
X183745000Y-118775000D01*
%TO.C,J3*%
D16*
X119308400Y-125358400D02*
X119308400Y-127288800D01*
X119308400Y-129219200D02*
X119308400Y-130641600D01*
X119308400Y-130641600D02*
X137291600Y-130641600D01*
X121975400Y-123275600D02*
X122737400Y-124291600D01*
X121975400Y-123275600D02*
X123499400Y-123275600D01*
X122280200Y-125358400D02*
X119308400Y-125358400D01*
X123499400Y-123275600D02*
X122737400Y-124291600D01*
X137291600Y-125358400D02*
X134319800Y-125358400D01*
X137291600Y-127288800D02*
X137291600Y-125358400D01*
X137291600Y-130641600D02*
X137291600Y-129219200D01*
%TO.C,R9*%
D15*
X138055000Y-100580000D02*
X138055000Y-104420000D01*
X139895000Y-100580000D02*
X139895000Y-104420000D01*
%TO.C,J1*%
X187045000Y-71855000D02*
X187045000Y-69205000D01*
X189805000Y-69205000D02*
X187045000Y-69205000D01*
X189805000Y-71855000D02*
X187045000Y-71855000D01*
X189805000Y-71855000D02*
X189805000Y-69205000D01*
X189805000Y-73125000D02*
X189805000Y-74505000D01*
X189805000Y-74505000D02*
X188425000Y-74505000D01*
%TO.C,U2*%
D17*
X190025000Y-83000000D02*
X190025000Y-93400000D01*
X193400000Y-83500000D02*
X193400000Y-92900000D01*
X194775000Y-83000000D02*
X190025000Y-83000000D01*
X194775000Y-83000000D02*
X194775000Y-93400000D01*
X194775000Y-93400000D02*
X190025000Y-93400000D01*
%TO.C,R4*%
D15*
X172580000Y-100620000D02*
X172580000Y-104460000D01*
X174420000Y-100620000D02*
X174420000Y-104460000D01*
%TO.C,C10*%
X136805000Y-69365000D02*
X136805000Y-73205000D01*
X138645000Y-69365000D02*
X138645000Y-73205000D01*
%TO.C,C2*%
X178845000Y-93480000D02*
X175005000Y-93480000D01*
X178845000Y-95320000D02*
X175005000Y-95320000D01*
%TO.C,J9*%
X121030000Y-118040000D02*
X121775000Y-118040000D01*
X121030000Y-118775000D02*
X121030000Y-118040000D01*
X121030000Y-119510000D02*
X121030000Y-119385000D01*
X121030000Y-119510000D02*
X121089435Y-119510000D01*
X121030000Y-119510000D02*
X122520000Y-119510000D01*
X122460565Y-119510000D02*
X122520000Y-119510000D01*
X122520000Y-119510000D02*
X122520000Y-119385000D01*
%TO.C,J11*%
X196095000Y-115445000D02*
X197475000Y-115445000D01*
X196095000Y-116825000D02*
X196095000Y-115445000D01*
X196095000Y-118095000D02*
X196095000Y-120745000D01*
X196095000Y-118095000D02*
X198855000Y-118095000D01*
X196095000Y-120745000D02*
X198855000Y-120745000D01*
X198855000Y-118095000D02*
X198855000Y-120745000D01*
%TO.C,C4*%
X177567500Y-104460000D02*
X177567500Y-100620000D01*
X179407500Y-104460000D02*
X179407500Y-100620000D01*
%TO.C,U1*%
D17*
X146260000Y-63925000D02*
X169120000Y-63925000D01*
X146260000Y-114725000D02*
X146260000Y-63925000D01*
X169120000Y-63925000D02*
X169120000Y-114725000D01*
X169120000Y-114725000D02*
X146260000Y-114725000D01*
D18*
X145810000Y-108425000D02*
G75*
G02*
X145610000Y-108425000I-100000J0D01*
G01*
X145610000Y-108425000D02*
G75*
G02*
X145810000Y-108425000I100000J0D01*
G01*
%TO.C,R8*%
D15*
X142992500Y-109920000D02*
X142992500Y-106080000D01*
X144832500Y-109920000D02*
X144832500Y-106080000D01*
%TO.C,J8*%
X158940000Y-119520000D02*
X158940000Y-118775000D01*
X159675000Y-119520000D02*
X158940000Y-119520000D01*
X160410000Y-118030000D02*
X162285000Y-118030000D01*
X160410000Y-118089435D02*
X160410000Y-118030000D01*
X160410000Y-119520000D02*
X160410000Y-119460565D01*
X160410000Y-119520000D02*
X162285000Y-119520000D01*
X162285000Y-118364970D02*
X162285000Y-118030000D01*
X162285000Y-119520000D02*
X162285000Y-119185030D01*
%TO.C,U3*%
D17*
X124175000Y-83000000D02*
X128925000Y-83000000D01*
X124175000Y-93400000D02*
X124175000Y-83000000D01*
X124175000Y-93400000D02*
X128925000Y-93400000D01*
X125550000Y-92900000D02*
X125550000Y-83500000D01*
X128925000Y-93400000D02*
X128925000Y-83000000D01*
%TO.C,J7*%
D15*
X184665000Y-118040000D02*
X185410000Y-118040000D01*
X184665000Y-118775000D02*
X184665000Y-118040000D01*
X184665000Y-119510000D02*
X184665000Y-119385000D01*
X184665000Y-119510000D02*
X184724435Y-119510000D01*
X184665000Y-119510000D02*
X186155000Y-119510000D01*
X186095565Y-119510000D02*
X186155000Y-119510000D01*
X186155000Y-119510000D02*
X186155000Y-119385000D01*
%TO.C,C11*%
X131780000Y-69365000D02*
X131780000Y-73205000D01*
X133620000Y-69365000D02*
X133620000Y-73205000D01*
%TO.C,C1*%
X178920000Y-82080000D02*
X175080000Y-82080000D01*
X178920000Y-83920000D02*
X175080000Y-83920000D01*
%TO.C,C3*%
X172567500Y-114460000D02*
X172567500Y-110620000D01*
X174407500Y-114460000D02*
X174407500Y-110620000D01*
%TO.C,R5*%
X182555000Y-100620000D02*
X182555000Y-104460000D01*
X184395000Y-100620000D02*
X184395000Y-104460000D01*
%TO.C,C5*%
X133067500Y-114460000D02*
X133067500Y-110620000D01*
X134907500Y-114460000D02*
X134907500Y-110620000D01*
%TO.C,R2*%
X177555000Y-114460000D02*
X177555000Y-110620000D01*
X179395000Y-114460000D02*
X179395000Y-110620000D01*
%TO.C,R3*%
X188080000Y-106160000D02*
X188080000Y-110000000D01*
X189920000Y-106160000D02*
X189920000Y-110000000D01*
%TO.C,J2*%
D16*
X181458390Y-125358400D02*
X181458390Y-127288800D01*
X181458390Y-129219200D02*
X181458390Y-130641600D01*
X181458390Y-130641600D02*
X199441590Y-130641600D01*
X184125390Y-123275600D02*
X184887390Y-124291600D01*
X184125390Y-123275600D02*
X185649390Y-123275600D01*
X184430190Y-125358400D02*
X181458390Y-125358400D01*
X185649390Y-123275600D02*
X184887390Y-124291600D01*
X199441590Y-125358400D02*
X196469790Y-125358400D01*
X199441590Y-127288800D02*
X199441590Y-125358400D01*
X199441590Y-130641600D02*
X199441590Y-129219200D01*
%TO.C,J6*%
D17*
X171905000Y-59920000D02*
X171905000Y-68550000D01*
X171905000Y-59920000D02*
X180905000Y-59920000D01*
X171905000Y-74220000D02*
X171905000Y-72790000D01*
X174285000Y-74220000D02*
X171905000Y-74220000D01*
X180905000Y-59920000D02*
X180905000Y-74220000D01*
X180905000Y-74220000D02*
X178525000Y-74220000D01*
D18*
X176505000Y-74870000D02*
G75*
G02*
X176305000Y-74870000I-100000J0D01*
G01*
X176305000Y-74870000D02*
G75*
G02*
X176505000Y-74870000I100000J0D01*
G01*
%TO.C,C8*%
D15*
X128080000Y-100580000D02*
X128080000Y-104420000D01*
X129920000Y-100580000D02*
X129920000Y-104420000D01*
%TO.C,R6*%
X128080000Y-114460000D02*
X128080000Y-110620000D01*
X129920000Y-114460000D02*
X129920000Y-110620000D01*
%TO.C,J5*%
X123305000Y-120155000D02*
X123305000Y-118775000D01*
X124685000Y-120155000D02*
X123305000Y-120155000D01*
X125955000Y-117395000D02*
X143845000Y-117395000D01*
X125955000Y-120155000D02*
X125955000Y-117395000D01*
X125955000Y-120155000D02*
X143845000Y-120155000D01*
X143845000Y-120155000D02*
X143845000Y-117395000D01*
%TO.C,R1*%
X182542500Y-114460000D02*
X182542500Y-110620000D01*
X184382500Y-114460000D02*
X184382500Y-110620000D01*
%TD*%
M02*
