%TF.GenerationSoftware,KiCad,Pcbnew,9.0.6*%
%TF.CreationDate,2025-12-22T18:43:12-05:00*%
%TF.ProjectId,nano_core_v2,6e616e6f-5f63-46f7-9265-5f76322e6b69,rev?*%
%TF.SameCoordinates,Original*%
%TF.FileFunction,Copper,L1,Top*%
%TF.FilePolarity,Positive*%
%FSLAX46Y46*%
G04 Gerber Fmt 4.6, Leading zero omitted, Abs format (unit mm)*
G04 Created by KiCad (PCBNEW 9.0.6) date 2025-12-22 18:43:12*
%MOMM*%
%LPD*%
G01*
G04 APERTURE LIST*
G04 Aperture macros list*
%AMRoundRect*
0 Rectangle with rounded corners*
0 $1 Rounding radius*
0 $2 $3 $4 $5 $6 $7 $8 $9 X,Y pos of 4 corners*
0 Add a 4 corners polygon primitive as box body*
4,1,4,$2,$3,$4,$5,$6,$7,$8,$9,$2,$3,0*
0 Add four circle primitives for the rounded corners*
1,1,$1+$1,$2,$3*
1,1,$1+$1,$4,$5*
1,1,$1+$1,$6,$7*
1,1,$1+$1,$8,$9*
0 Add four rect primitives between the rounded corners*
20,1,$1+$1,$2,$3,$4,$5,0*
20,1,$1+$1,$4,$5,$6,$7,0*
20,1,$1+$1,$6,$7,$8,$9,0*
20,1,$1+$1,$8,$9,$2,$3,0*%
G04 Aperture macros list end*
%TA.AperFunction,ComponentPad*%
%ADD10R,2.000000X1.651000*%
%TD*%
%TA.AperFunction,ComponentPad*%
%ADD11O,2.000000X1.651000*%
%TD*%
%TA.AperFunction,ComponentPad*%
%ADD12R,1.408000X1.408000*%
%TD*%
%TA.AperFunction,ComponentPad*%
%ADD13C,1.408000*%
%TD*%
%TA.AperFunction,ComponentPad*%
%ADD14C,3.516000*%
%TD*%
%TA.AperFunction,ComponentPad*%
%ADD15O,2.500000X5.000000*%
%TD*%
%TA.AperFunction,ComponentPad*%
%ADD16O,2.250000X4.500000*%
%TD*%
%TA.AperFunction,ComponentPad*%
%ADD17O,4.500000X2.250000*%
%TD*%
%TA.AperFunction,SMDPad,CuDef*%
%ADD18R,0.990600X0.965200*%
%TD*%
%TA.AperFunction,SMDPad,CuDef*%
%ADD19RoundRect,0.132500X0.667500X-0.117500X0.667500X0.117500X-0.667500X0.117500X-0.667500X-0.117500X0*%
%TD*%
%TA.AperFunction,SMDPad,CuDef*%
%ADD20RoundRect,0.132500X-0.117500X-0.667500X0.117500X-0.667500X0.117500X0.667500X-0.117500X0.667500X0*%
%TD*%
%TA.AperFunction,SMDPad,CuDef*%
%ADD21R,1.000000X0.400000*%
%TD*%
%TA.AperFunction,SMDPad,CuDef*%
%ADD22R,1.300000X2.000000*%
%TD*%
%TA.AperFunction,SMDPad,CuDef*%
%ADD23RoundRect,0.156350X-0.143650X0.138650X-0.143650X-0.138650X0.143650X-0.138650X0.143650X0.138650X0*%
%TD*%
%TA.AperFunction,Conductor*%
%ADD24C,0.200000*%
%TD*%
G04 APERTURE END LIST*
D10*
%TO.P,U2,1,VS*%
%TO.N,Net-(U2-VS)*%
X106207010Y-106377000D03*
D11*
%TO.P,U2,2,G*%
%TO.N,Net-(J1-Pad2)*%
X106207010Y-108917000D03*
%TO.P,U2,3,EN*%
%TO.N,unconnected-(U2-EN-Pad3)*%
X106207010Y-111457000D03*
%TO.P,U2,4,R+*%
%TO.N,unconnected-(U2-R+-Pad4)*%
X106207010Y-113997000D03*
%TO.P,U2,5,R-*%
%TO.N,unconnected-(U2-R--Pad5)*%
X106207010Y-116537000D03*
%TO.P,U2,6,V1*%
%TO.N,Net-(U1-A0{slash}PA02)*%
X106207010Y-119077000D03*
%TO.P,U2,7,V2*%
%TO.N,Net-(U1-A1{slash}PA05)*%
X106207010Y-121617000D03*
%TO.P,U2,8,V3*%
%TO.N,unconnected-(U2-V3-Pad8)*%
X106207010Y-124157000D03*
%TO.P,U2,9,G*%
%TO.N,unconnected-(U2-G-Pad9)*%
X106207010Y-126697000D03*
%TO.P,U2,10,OS*%
%TO.N,Net-(U1-GND)*%
X106207010Y-129237000D03*
D10*
%TO.P,U2,11,G*%
%TO.N,unconnected-(U2-G-Pad11)*%
X171866010Y-126697000D03*
D11*
%TO.P,U2,12,1+*%
%TO.N,Net-(U2-1+)*%
X171866010Y-124157000D03*
%TO.P,U2,13,1-*%
%TO.N,Net-(U2-1-)*%
X171866010Y-121617000D03*
%TO.P,U2,14,2+*%
%TO.N,Net-(U2-2+)*%
X171866010Y-119077000D03*
%TO.P,U2,15,2-*%
%TO.N,Net-(U2-2-)*%
X171866010Y-116537000D03*
%TO.P,U2,16,3+*%
%TO.N,unconnected-(U2-3+-Pad16)*%
X171866010Y-113997000D03*
%TO.P,U2,17,3-*%
%TO.N,unconnected-(U2-3--Pad17)*%
X171866010Y-111457000D03*
%TO.P,U2,18,G*%
%TO.N,unconnected-(U2-G-Pad18)*%
X171866010Y-108917000D03*
%TD*%
D12*
%TO.P,U1,1,D4/PA14*%
%TO.N,unconnected-(U1-D4{slash}PA14-Pad1)*%
X145450000Y-92160000D03*
D13*
%TO.P,U1,2,D1/PB16*%
%TO.N,unconnected-(U1-D1{slash}PB16-Pad2)*%
X142910000Y-92160000D03*
%TO.P,U1,3,D0/PB17*%
%TO.N,unconnected-(U1-D0{slash}PB17-Pad3)*%
X140370000Y-92160000D03*
%TO.P,U1,4,MISO/PB22*%
%TO.N,Net-(U1-MISO{slash}PB22)*%
X137830000Y-92160000D03*
%TO.P,U1,5,MOSI/PB23*%
%TO.N,Net-(U1-MOSI{slash}PB23)*%
X135290000Y-92160000D03*
%TO.P,U1,6,SCK/PA17*%
%TO.N,Net-(U1-SCK{slash}PA17)*%
X132750000Y-92160000D03*
%TO.P,U1,7,A5/PA06*%
%TO.N,Net-(U1-A5{slash}PA06)*%
X130210000Y-92160000D03*
%TO.P,U1,8,A4/PA04*%
%TO.N,Net-(U1-A4{slash}PA04)*%
X127670000Y-92160000D03*
%TO.P,U1,9,A3/PB09*%
%TO.N,Net-(U1-A3{slash}PB09)*%
X125130000Y-92160000D03*
%TO.P,U1,10,A2/PB08*%
%TO.N,Net-(U1-A2{slash}PB08)*%
X122590000Y-92160000D03*
%TO.P,U1,11,A1/PA05*%
%TO.N,Net-(U1-A1{slash}PA05)*%
X120050000Y-92160000D03*
%TO.P,U1,12,A0/PA02*%
%TO.N,Net-(U1-A0{slash}PA02)*%
X117510000Y-92160000D03*
%TO.P,U1,13,GND*%
%TO.N,Net-(U1-GND)*%
X114970000Y-92160000D03*
%TO.P,U1,14,AREF*%
%TO.N,unconnected-(U1-AREF-Pad14)*%
X112430000Y-92160000D03*
%TO.P,U1,15,3.3V*%
%TO.N,Net-(U1-3.3V)*%
X109890000Y-92160000D03*
%TO.P,U1,16,RESET*%
%TO.N,unconnected-(U1-RESET-Pad16)*%
X107350000Y-92160000D03*
%TO.P,U1,17,VBAT*%
%TO.N,unconnected-(U1-VBAT-Pad17)*%
X117510000Y-71840000D03*
%TO.P,U1,18,EN*%
%TO.N,unconnected-(U1-EN-Pad18)*%
X120050000Y-71840000D03*
%TO.P,U1,19,VBUS*%
%TO.N,unconnected-(U1-VBUS-Pad19)*%
X122590000Y-71840000D03*
%TO.P,U1,20,D13/PA23*%
%TO.N,Net-(U1-D13{slash}PA23)*%
X125130000Y-71840000D03*
%TO.P,U1,21,D12/PA22*%
%TO.N,Net-(U1-D12{slash}PA22)*%
X127670000Y-71840000D03*
%TO.P,U1,22,D11/PA21*%
%TO.N,Net-(U1-D11{slash}PA21)*%
X130210000Y-71840000D03*
%TO.P,U1,23,D10/PA20*%
%TO.N,Net-(U1-D10{slash}PA20)*%
X132750000Y-71840000D03*
%TO.P,U1,24,D9/PA19*%
%TO.N,Net-(U1-D9{slash}PA19)*%
X135290000Y-71840000D03*
%TO.P,U1,25,D6/PA18*%
%TO.N,Net-(U1-D6{slash}PA18)*%
X137830000Y-71840000D03*
%TO.P,U1,26,D5/PA16*%
%TO.N,Net-(U1-D5{slash}PA16)*%
X140370000Y-71840000D03*
%TO.P,U1,27,SCL/PA13*%
%TO.N,unconnected-(U1-SCL{slash}PA13-Pad27)*%
X142910000Y-71840000D03*
%TO.P,U1,28,SDA/PA12*%
%TO.N,unconnected-(U1-SDA{slash}PA12-Pad28)*%
X145450000Y-71840000D03*
D14*
%TO.P,U1,P1*%
%TO.N,N/C*%
X103540000Y-90890000D03*
%TO.P,U1,P2*%
X103540000Y-73110000D03*
%TD*%
D15*
%TO.P,J1,1*%
%TO.N,Net-(U2-VS)*%
X112000000Y-61000000D03*
D16*
%TO.P,J1,2*%
%TO.N,Net-(J1-Pad2)*%
X106000000Y-61000000D03*
D17*
%TO.P,J1,3*%
%TO.N,unconnected-(J1-Pad3)*%
X109000000Y-65700000D03*
%TD*%
D18*
%TO.P,C1,1*%
%TO.N,Net-(U1-3.3V)*%
X118825000Y-78125300D03*
%TO.P,C1,2*%
%TO.N,Net-(C1-Pad2)*%
X118825000Y-79674700D03*
%TD*%
D19*
%TO.P,C6,2*%
%TO.N,Net-(C1-Pad2)*%
X114900000Y-85350000D03*
%TO.P,C6,1*%
%TO.N,Net-(U1-GND)*%
X114900000Y-88050000D03*
%TD*%
D20*
%TO.P,C5,2*%
%TO.N,Net-(U1-GND)*%
X112275000Y-119075000D03*
%TO.P,C5,1*%
%TO.N,Net-(U1-A0{slash}PA02)*%
X109575000Y-119075000D03*
%TD*%
%TO.P,C4,2*%
%TO.N,Net-(U1-GND)*%
X112325000Y-121625000D03*
%TO.P,C4,1*%
%TO.N,Net-(U1-A1{slash}PA05)*%
X109625000Y-121625000D03*
%TD*%
D21*
%TO.P,J3,1*%
%TO.N,unconnected-(J3-Pad1)*%
X169550000Y-91325000D03*
%TO.P,J3,2*%
%TO.N,Net-(U2-2-)*%
X169550000Y-90325000D03*
%TO.P,J3,3*%
%TO.N,Net-(U2-2+)*%
X169550000Y-89325000D03*
%TO.P,J3,4*%
%TO.N,Net-(U1-MISO{slash}PB22)*%
X169550000Y-88325000D03*
%TO.P,J3,5*%
%TO.N,Net-(U1-MOSI{slash}PB23)*%
X169550000Y-87325000D03*
%TO.P,J3,6*%
%TO.N,Net-(U1-SCK{slash}PA17)*%
X169550000Y-86325000D03*
%TO.P,J3,7*%
%TO.N,Net-(U1-A5{slash}PA06)*%
X169550000Y-85325000D03*
%TO.P,J3,8*%
%TO.N,Net-(C1-Pad2)*%
X169550000Y-84325000D03*
%TO.P,J3,9*%
%TO.N,Net-(U1-3.3V)*%
X169550000Y-83325000D03*
%TO.P,J3,10*%
%TO.N,Net-(U1-A4{slash}PA04)*%
X169550000Y-82325000D03*
%TO.P,J3,11*%
%TO.N,Net-(U1-A3{slash}PB09)*%
X169550000Y-81325000D03*
%TO.P,J3,12*%
%TO.N,Net-(U1-A2{slash}PB08)*%
X169550000Y-80325000D03*
D22*
%TO.P,J3,P1*%
%TO.N,unconnected-(J3-PadP1)*%
X172250000Y-94124990D03*
%TO.P,J3,P2*%
%TO.N,unconnected-(J3-PadP2)*%
X172250000Y-77525010D03*
%TD*%
D21*
%TO.P,J2,1*%
%TO.N,unconnected-(J2-Pad1)*%
X169550000Y-71175000D03*
%TO.P,J2,2*%
%TO.N,Net-(U2-1-)*%
X169550000Y-70175000D03*
%TO.P,J2,3*%
%TO.N,Net-(U2-1+)*%
X169550000Y-69175000D03*
%TO.P,J2,4*%
%TO.N,Net-(U1-D5{slash}PA16)*%
X169550000Y-68175000D03*
%TO.P,J2,5*%
%TO.N,Net-(U1-D6{slash}PA18)*%
X169550000Y-67175000D03*
%TO.P,J2,6*%
%TO.N,Net-(U1-D9{slash}PA19)*%
X169550000Y-66175000D03*
%TO.P,J2,7*%
%TO.N,Net-(U1-D10{slash}PA20)*%
X169550000Y-65175000D03*
%TO.P,J2,8*%
%TO.N,Net-(C1-Pad2)*%
X169550000Y-64175000D03*
%TO.P,J2,9*%
%TO.N,Net-(U1-3.3V)*%
X169550000Y-63175000D03*
%TO.P,J2,10*%
%TO.N,Net-(U1-D11{slash}PA21)*%
X169550000Y-62175000D03*
%TO.P,J2,11*%
%TO.N,Net-(U1-D12{slash}PA22)*%
X169550000Y-61175000D03*
%TO.P,J2,12*%
%TO.N,Net-(U1-D13{slash}PA23)*%
X169550000Y-60175000D03*
D22*
%TO.P,J2,P1*%
%TO.N,unconnected-(J2-PadP1)*%
X172250000Y-73974990D03*
%TO.P,J2,P2*%
%TO.N,unconnected-(J2-PadP2)*%
X172250000Y-57375010D03*
%TD*%
D23*
%TO.P,C2,1*%
%TO.N,Net-(U1-3.3V)*%
X122275000Y-78490000D03*
%TO.P,C2,2*%
%TO.N,Net-(C1-Pad2)*%
X122275000Y-79300000D03*
%TD*%
D24*
%TO.N,Net-(C1-Pad2)*%
X116275300Y-79674700D02*
X118825000Y-79674700D01*
X114900000Y-81050000D02*
X116275300Y-79674700D01*
X114900000Y-85350000D02*
X114900000Y-81050000D01*
%TO.N,Net-(U1-GND)*%
X114970000Y-88120000D02*
X114900000Y-88050000D01*
X114970000Y-92160000D02*
X114970000Y-88120000D01*
%TO.N,Net-(U1-3.3V)*%
X122275000Y-78490000D02*
X124981286Y-78490000D01*
X124981286Y-78490000D02*
X126210643Y-77260643D01*
X126210643Y-77260643D02*
X131215000Y-72256285D01*
X120915000Y-78490000D02*
X122275000Y-78490000D01*
X120550300Y-78125300D02*
X120915000Y-78490000D01*
X118825000Y-78125300D02*
X120550300Y-78125300D01*
X112399700Y-78125300D02*
X118825000Y-78125300D01*
X109890000Y-80635000D02*
X112399700Y-78125300D01*
%TO.N,Net-(C1-Pad2)*%
X127830000Y-79300000D02*
X131205000Y-75925000D01*
X122275000Y-79300000D02*
X127830000Y-79300000D01*
X120600300Y-79674700D02*
X120975000Y-79300000D01*
X120975000Y-79300000D02*
X122275000Y-79300000D01*
X118825000Y-79674700D02*
X120600300Y-79674700D01*
%TO.N,Net-(U1-GND)*%
X114970000Y-89220000D02*
X114925000Y-89175000D01*
%TO.N,Net-(U1-A1{slash}PA05)*%
X103300000Y-123425000D02*
X105108000Y-121617000D01*
X103300000Y-129600000D02*
X103300000Y-123425000D01*
X105108000Y-121617000D02*
X106207010Y-121617000D01*
X105575000Y-131875000D02*
X103300000Y-129600000D01*
X120050000Y-129525000D02*
X117700000Y-131875000D01*
X117700000Y-131875000D02*
X105575000Y-131875000D01*
%TO.N,Net-(U1-A0{slash}PA02)*%
X105202000Y-119077000D02*
X106207010Y-119077000D01*
X105100000Y-104200000D02*
X103300000Y-106000000D01*
X107675000Y-104200000D02*
X105100000Y-104200000D01*
X117510000Y-94365000D02*
X107675000Y-104200000D01*
X103300000Y-106000000D02*
X103300000Y-117175000D01*
X117510000Y-92160000D02*
X117510000Y-94365000D01*
X103300000Y-117175000D02*
X105202000Y-119077000D01*
%TO.N,Net-(U1-GND)*%
X115825000Y-127625000D02*
X114213000Y-129237000D01*
X115825000Y-120600000D02*
X115825000Y-127625000D01*
X114300000Y-119075000D02*
X115825000Y-120600000D01*
X114213000Y-129237000D02*
X112363000Y-129237000D01*
X112275000Y-119075000D02*
X114300000Y-119075000D01*
X112363000Y-129237000D02*
X106207010Y-129237000D01*
X113950000Y-127650000D02*
X112363000Y-129237000D01*
X113950000Y-122400000D02*
X113950000Y-127650000D01*
X113175000Y-121625000D02*
X113950000Y-122400000D01*
X112325000Y-121625000D02*
X113175000Y-121625000D01*
%TO.N,Net-(U1-A0{slash}PA02)*%
X109573000Y-119077000D02*
X109575000Y-119075000D01*
X106207010Y-119077000D02*
X109573000Y-119077000D01*
%TO.N,Net-(U1-3.3V)*%
X131215000Y-66660000D02*
X134700000Y-63175000D01*
X131215000Y-72256285D02*
X131215000Y-66660000D01*
X125871285Y-77600000D02*
X126210643Y-77260643D01*
X109890000Y-92160000D02*
X109890000Y-80635000D01*
X134700000Y-63175000D02*
X169550000Y-63175000D01*
X115325000Y-94775000D02*
X116300000Y-93800000D01*
X110800000Y-94775000D02*
X115325000Y-94775000D01*
X171375000Y-83325000D02*
X169550000Y-83325000D01*
X172675000Y-82025000D02*
X171375000Y-83325000D01*
X172675000Y-80225000D02*
X172675000Y-82025000D01*
X116300000Y-91948715D02*
X128798715Y-79450000D01*
X116300000Y-93800000D02*
X116300000Y-91948715D01*
X171900000Y-79450000D02*
X172675000Y-80225000D01*
X109890000Y-93865000D02*
X110800000Y-94775000D01*
X109890000Y-92160000D02*
X109890000Y-93865000D01*
X128798715Y-79450000D02*
X171900000Y-79450000D01*
%TO.N,Net-(C1-Pad2)*%
X174075000Y-75925000D02*
X131205000Y-75925000D01*
X174575000Y-76425000D02*
X174075000Y-75925000D01*
X174575000Y-83225000D02*
X174575000Y-76425000D01*
X173475000Y-84325000D02*
X174575000Y-83225000D01*
X169550000Y-84325000D02*
X173475000Y-84325000D01*
%TO.N,Net-(U2-2-)*%
X175147000Y-115528000D02*
X175147000Y-91847000D01*
X174112000Y-116537000D02*
X174125000Y-116550000D01*
X171866010Y-116537000D02*
X174112000Y-116537000D01*
X174125000Y-116550000D02*
X175147000Y-115528000D01*
X175147000Y-91847000D02*
X173625000Y-90325000D01*
X173625000Y-90325000D02*
X169550000Y-90325000D01*
%TO.N,Net-(U2-2+)*%
X174298000Y-119077000D02*
X171866010Y-119077000D01*
X173575000Y-89325000D02*
X175800000Y-91550000D01*
X175800000Y-91550000D02*
X175800000Y-117525000D01*
X175800000Y-117525000D02*
X175825000Y-117550000D01*
X169550000Y-89325000D02*
X173575000Y-89325000D01*
X175825000Y-117550000D02*
X174298000Y-119077000D01*
%TO.N,Net-(U1-MISO{slash}PB22)*%
X137830000Y-92160000D02*
X141665000Y-88325000D01*
X141665000Y-88325000D02*
X169550000Y-88325000D01*
%TO.N,Net-(U1-MOSI{slash}PB23)*%
X140125000Y-87325000D02*
X169550000Y-87325000D01*
X135290000Y-92160000D02*
X140125000Y-87325000D01*
%TO.N,Net-(U1-SCK{slash}PA17)*%
X138585000Y-86325000D02*
X169550000Y-86325000D01*
X132750000Y-92160000D02*
X138585000Y-86325000D01*
%TO.N,Net-(U1-A5{slash}PA06)*%
X130210000Y-92160000D02*
X137045000Y-85325000D01*
X137045000Y-85325000D02*
X169550000Y-85325000D01*
%TO.N,Net-(U1-A4{slash}PA04)*%
X137505000Y-82325000D02*
X169550000Y-82325000D01*
X127670000Y-92160000D02*
X137505000Y-82325000D01*
%TO.N,Net-(U1-A3{slash}PB09)*%
X135965000Y-81325000D02*
X169550000Y-81325000D01*
X125130000Y-92160000D02*
X135965000Y-81325000D01*
%TO.N,Net-(U1-A2{slash}PB08)*%
X122590000Y-92160000D02*
X134425000Y-80325000D01*
X134425000Y-80325000D02*
X169550000Y-80325000D01*
%TO.N,Net-(U1-A0{slash}PA02)*%
X117650000Y-92300000D02*
X117510000Y-92160000D01*
%TO.N,Net-(C1-Pad2)*%
X134975000Y-64175000D02*
X169550000Y-64175000D01*
X131205000Y-75925000D02*
X131745000Y-75385000D01*
X131745000Y-75385000D02*
X131745000Y-67405000D01*
X131745000Y-67405000D02*
X134975000Y-64175000D01*
%TO.N,Net-(U1-D10{slash}PA20)*%
X135500000Y-65175000D02*
X169550000Y-65175000D01*
X132750000Y-67925000D02*
X135500000Y-65175000D01*
X132750000Y-71840000D02*
X132750000Y-67925000D01*
%TO.N,Net-(U1-D11{slash}PA21)*%
X130210000Y-66390000D02*
X134425000Y-62175000D01*
X130210000Y-67875000D02*
X130210000Y-66390000D01*
X130210000Y-71840000D02*
X130210000Y-67875000D01*
X134425000Y-62175000D02*
X169550000Y-62175000D01*
%TO.N,Net-(U2-1-)*%
X174625000Y-70175000D02*
X169550000Y-70175000D01*
X176550000Y-72100000D02*
X174625000Y-70175000D01*
X174658000Y-121617000D02*
X176550000Y-119725000D01*
X176550000Y-119725000D02*
X176550000Y-72100000D01*
X171866010Y-121617000D02*
X174658000Y-121617000D01*
%TO.N,Net-(U2-1+)*%
X174468000Y-124157000D02*
X171866010Y-124157000D01*
X177375000Y-121250000D02*
X174468000Y-124157000D01*
X177375000Y-71575000D02*
X177375000Y-121250000D01*
X174975000Y-69175000D02*
X177375000Y-71575000D01*
X169550000Y-69175000D02*
X174975000Y-69175000D01*
%TO.N,Net-(U1-3.3V)*%
X169850000Y-63175000D02*
X169550000Y-63175000D01*
%TO.N,Net-(U1-D5{slash}PA16)*%
X140370000Y-69105000D02*
X141300000Y-68175000D01*
X140370000Y-71840000D02*
X140370000Y-69105000D01*
X141300000Y-68175000D02*
X169550000Y-68175000D01*
%TO.N,Net-(U1-D6{slash}PA18)*%
X138575000Y-67175000D02*
X169550000Y-67175000D01*
X137830000Y-67920000D02*
X138575000Y-67175000D01*
X137830000Y-71840000D02*
X137830000Y-67920000D01*
%TO.N,Net-(U1-D9{slash}PA19)*%
X136950000Y-66175000D02*
X169550000Y-66175000D01*
X135290000Y-67835000D02*
X136950000Y-66175000D01*
X135290000Y-71840000D02*
X135290000Y-67835000D01*
%TO.N,Net-(U1-D11{slash}PA21)*%
X130210000Y-67710000D02*
X130200000Y-67700000D01*
X130210000Y-67875000D02*
X130210000Y-67710000D01*
%TO.N,Net-(U1-D12{slash}PA22)*%
X134250000Y-61175000D02*
X169550000Y-61175000D01*
X127670000Y-67755000D02*
X134250000Y-61175000D01*
X127670000Y-71840000D02*
X127670000Y-67755000D01*
%TO.N,Net-(U1-D13{slash}PA23)*%
X125130000Y-67820000D02*
X132775000Y-60175000D01*
X125130000Y-71840000D02*
X125130000Y-67820000D01*
X132775000Y-60175000D02*
X169550000Y-60175000D01*
%TO.N,Net-(U1-A1{slash}PA05)*%
X106207010Y-121617000D02*
X109617000Y-121617000D01*
X109617000Y-121617000D02*
X109625000Y-121625000D01*
X120050000Y-92160000D02*
X120050000Y-129525000D01*
%TD*%
M02*
