%TF.GenerationSoftware,KiCad,Pcbnew,10.0.0*%
%TF.CreationDate,2026-08-18T16:39:21-04:00*%
%TF.ProjectId,sensor_head_v4,73656e73-6f72-45f6-9865-61645f76342e,rev?*%
%TF.SameCoordinates,Original*%
%TF.FileFunction,Legend,Top*%
%TF.FilePolarity,Positive*%
%FSLAX46Y46*%
G04 Gerber Fmt 4.6, Leading zero omitted, Abs format (unit mm)*
G04 Created by KiCad (PCBNEW 10.0.0) date 2026-08-18 16:39:21*
%MOMM*%
%LPD*%
G01*
G04 APERTURE LIST*
%ADD10C,0.125000*%
%ADD11C,0.150000*%
%ADD12C,0.250000*%
%ADD13C,0.120000*%
%ADD14C,0.100000*%
%ADD15C,0.127000*%
%ADD16C,0.406400*%
%ADD17C,0.010000*%
%TA.AperFunction,Profile*%
%ADD18C,0.050000*%
%TD*%
G04 APERTURE END LIST*
D10*
X145782309Y-114998716D02*
X145282309Y-114998716D01*
X145282309Y-114998716D02*
X145282309Y-114879668D01*
X145282309Y-114879668D02*
X145306119Y-114808240D01*
X145306119Y-114808240D02*
X145353738Y-114760621D01*
X145353738Y-114760621D02*
X145401357Y-114736811D01*
X145401357Y-114736811D02*
X145496595Y-114713002D01*
X145496595Y-114713002D02*
X145568023Y-114713002D01*
X145568023Y-114713002D02*
X145663261Y-114736811D01*
X145663261Y-114736811D02*
X145710880Y-114760621D01*
X145710880Y-114760621D02*
X145758500Y-114808240D01*
X145758500Y-114808240D02*
X145782309Y-114879668D01*
X145782309Y-114879668D02*
X145782309Y-114998716D01*
X145282309Y-114403478D02*
X145282309Y-114308240D01*
X145282309Y-114308240D02*
X145306119Y-114260621D01*
X145306119Y-114260621D02*
X145353738Y-114213002D01*
X145353738Y-114213002D02*
X145448976Y-114189192D01*
X145448976Y-114189192D02*
X145615642Y-114189192D01*
X145615642Y-114189192D02*
X145710880Y-114213002D01*
X145710880Y-114213002D02*
X145758500Y-114260621D01*
X145758500Y-114260621D02*
X145782309Y-114308240D01*
X145782309Y-114308240D02*
X145782309Y-114403478D01*
X145782309Y-114403478D02*
X145758500Y-114451097D01*
X145758500Y-114451097D02*
X145710880Y-114498716D01*
X145710880Y-114498716D02*
X145615642Y-114522525D01*
X145615642Y-114522525D02*
X145448976Y-114522525D01*
X145448976Y-114522525D02*
X145353738Y-114498716D01*
X145353738Y-114498716D02*
X145306119Y-114451097D01*
X145306119Y-114451097D02*
X145282309Y-114403478D01*
X146734690Y-114713002D02*
X146758500Y-114736811D01*
X146758500Y-114736811D02*
X146782309Y-114808240D01*
X146782309Y-114808240D02*
X146782309Y-114855859D01*
X146782309Y-114855859D02*
X146758500Y-114927287D01*
X146758500Y-114927287D02*
X146710880Y-114974906D01*
X146710880Y-114974906D02*
X146663261Y-114998716D01*
X146663261Y-114998716D02*
X146568023Y-115022525D01*
X146568023Y-115022525D02*
X146496595Y-115022525D01*
X146496595Y-115022525D02*
X146401357Y-114998716D01*
X146401357Y-114998716D02*
X146353738Y-114974906D01*
X146353738Y-114974906D02*
X146306119Y-114927287D01*
X146306119Y-114927287D02*
X146282309Y-114855859D01*
X146282309Y-114855859D02*
X146282309Y-114808240D01*
X146282309Y-114808240D02*
X146306119Y-114736811D01*
X146306119Y-114736811D02*
X146329928Y-114713002D01*
X146782309Y-114260621D02*
X146782309Y-114498716D01*
X146782309Y-114498716D02*
X146282309Y-114498716D01*
X146782309Y-114093954D02*
X146282309Y-114093954D01*
X146782309Y-113808240D02*
X146496595Y-114022525D01*
X146282309Y-113808240D02*
X146568023Y-114093954D01*
X147724690Y-114713002D02*
X147748500Y-114736811D01*
X147748500Y-114736811D02*
X147772309Y-114808240D01*
X147772309Y-114808240D02*
X147772309Y-114855859D01*
X147772309Y-114855859D02*
X147748500Y-114927287D01*
X147748500Y-114927287D02*
X147700880Y-114974906D01*
X147700880Y-114974906D02*
X147653261Y-114998716D01*
X147653261Y-114998716D02*
X147558023Y-115022525D01*
X147558023Y-115022525D02*
X147486595Y-115022525D01*
X147486595Y-115022525D02*
X147391357Y-114998716D01*
X147391357Y-114998716D02*
X147343738Y-114974906D01*
X147343738Y-114974906D02*
X147296119Y-114927287D01*
X147296119Y-114927287D02*
X147272309Y-114855859D01*
X147272309Y-114855859D02*
X147272309Y-114808240D01*
X147272309Y-114808240D02*
X147296119Y-114736811D01*
X147296119Y-114736811D02*
X147319928Y-114713002D01*
X147748500Y-114522525D02*
X147772309Y-114451097D01*
X147772309Y-114451097D02*
X147772309Y-114332049D01*
X147772309Y-114332049D02*
X147748500Y-114284430D01*
X147748500Y-114284430D02*
X147724690Y-114260621D01*
X147724690Y-114260621D02*
X147677071Y-114236811D01*
X147677071Y-114236811D02*
X147629452Y-114236811D01*
X147629452Y-114236811D02*
X147581833Y-114260621D01*
X147581833Y-114260621D02*
X147558023Y-114284430D01*
X147558023Y-114284430D02*
X147534214Y-114332049D01*
X147534214Y-114332049D02*
X147510404Y-114427287D01*
X147510404Y-114427287D02*
X147486595Y-114474906D01*
X147486595Y-114474906D02*
X147462785Y-114498716D01*
X147462785Y-114498716D02*
X147415166Y-114522525D01*
X147415166Y-114522525D02*
X147367547Y-114522525D01*
X147367547Y-114522525D02*
X147319928Y-114498716D01*
X147319928Y-114498716D02*
X147296119Y-114474906D01*
X147296119Y-114474906D02*
X147272309Y-114427287D01*
X147272309Y-114427287D02*
X147272309Y-114308240D01*
X147272309Y-114308240D02*
X147296119Y-114236811D01*
X148639452Y-115022525D02*
X148639452Y-114784430D01*
X148782309Y-115070144D02*
X148282309Y-114903478D01*
X148282309Y-114903478D02*
X148782309Y-114736811D01*
X149782309Y-114998716D02*
X149282309Y-114998716D01*
X149282309Y-114998716D02*
X149782309Y-114713002D01*
X149782309Y-114713002D02*
X149282309Y-114713002D01*
X149639452Y-114498715D02*
X149639452Y-114260620D01*
X149782309Y-114546334D02*
X149282309Y-114379668D01*
X149282309Y-114379668D02*
X149782309Y-114213001D01*
X150510404Y-114832049D02*
X150534214Y-114760621D01*
X150534214Y-114760621D02*
X150558023Y-114736811D01*
X150558023Y-114736811D02*
X150605642Y-114713002D01*
X150605642Y-114713002D02*
X150677071Y-114713002D01*
X150677071Y-114713002D02*
X150724690Y-114736811D01*
X150724690Y-114736811D02*
X150748500Y-114760621D01*
X150748500Y-114760621D02*
X150772309Y-114808240D01*
X150772309Y-114808240D02*
X150772309Y-114998716D01*
X150772309Y-114998716D02*
X150272309Y-114998716D01*
X150272309Y-114998716D02*
X150272309Y-114832049D01*
X150272309Y-114832049D02*
X150296119Y-114784430D01*
X150296119Y-114784430D02*
X150319928Y-114760621D01*
X150319928Y-114760621D02*
X150367547Y-114736811D01*
X150367547Y-114736811D02*
X150415166Y-114736811D01*
X150415166Y-114736811D02*
X150462785Y-114760621D01*
X150462785Y-114760621D02*
X150486595Y-114784430D01*
X150486595Y-114784430D02*
X150510404Y-114832049D01*
X150510404Y-114832049D02*
X150510404Y-114998716D01*
X151812309Y-114998716D02*
X151312309Y-114998716D01*
X151312309Y-114998716D02*
X151812309Y-114713002D01*
X151812309Y-114713002D02*
X151312309Y-114713002D01*
X151550404Y-114308239D02*
X151574214Y-114236811D01*
X151574214Y-114236811D02*
X151598023Y-114213001D01*
X151598023Y-114213001D02*
X151645642Y-114189192D01*
X151645642Y-114189192D02*
X151717071Y-114189192D01*
X151717071Y-114189192D02*
X151764690Y-114213001D01*
X151764690Y-114213001D02*
X151788500Y-114236811D01*
X151788500Y-114236811D02*
X151812309Y-114284430D01*
X151812309Y-114284430D02*
X151812309Y-114474906D01*
X151812309Y-114474906D02*
X151312309Y-114474906D01*
X151312309Y-114474906D02*
X151312309Y-114308239D01*
X151312309Y-114308239D02*
X151336119Y-114260620D01*
X151336119Y-114260620D02*
X151359928Y-114236811D01*
X151359928Y-114236811D02*
X151407547Y-114213001D01*
X151407547Y-114213001D02*
X151455166Y-114213001D01*
X151455166Y-114213001D02*
X151502785Y-114236811D01*
X151502785Y-114236811D02*
X151526595Y-114260620D01*
X151526595Y-114260620D02*
X151550404Y-114308239D01*
X151550404Y-114308239D02*
X151550404Y-114474906D01*
X152812309Y-114998716D02*
X152312309Y-114998716D01*
X153802309Y-114998716D02*
X153302309Y-114998716D01*
X153302309Y-114998716D02*
X153802309Y-114713002D01*
X153802309Y-114713002D02*
X153302309Y-114713002D01*
X153802309Y-114474906D02*
X153302309Y-114474906D01*
X154302309Y-115046335D02*
X154302309Y-114736811D01*
X154302309Y-114736811D02*
X154492785Y-114903478D01*
X154492785Y-114903478D02*
X154492785Y-114832049D01*
X154492785Y-114832049D02*
X154516595Y-114784430D01*
X154516595Y-114784430D02*
X154540404Y-114760621D01*
X154540404Y-114760621D02*
X154588023Y-114736811D01*
X154588023Y-114736811D02*
X154707071Y-114736811D01*
X154707071Y-114736811D02*
X154754690Y-114760621D01*
X154754690Y-114760621D02*
X154778500Y-114784430D01*
X154778500Y-114784430D02*
X154802309Y-114832049D01*
X154802309Y-114832049D02*
X154802309Y-114974906D01*
X154802309Y-114974906D02*
X154778500Y-115022525D01*
X154778500Y-115022525D02*
X154754690Y-115046335D01*
X154754690Y-114522526D02*
X154778500Y-114498716D01*
X154778500Y-114498716D02*
X154802309Y-114522526D01*
X154802309Y-114522526D02*
X154778500Y-114546335D01*
X154778500Y-114546335D02*
X154754690Y-114522526D01*
X154754690Y-114522526D02*
X154802309Y-114522526D01*
X154302309Y-114332050D02*
X154302309Y-114022526D01*
X154302309Y-114022526D02*
X154492785Y-114189193D01*
X154492785Y-114189193D02*
X154492785Y-114117764D01*
X154492785Y-114117764D02*
X154516595Y-114070145D01*
X154516595Y-114070145D02*
X154540404Y-114046336D01*
X154540404Y-114046336D02*
X154588023Y-114022526D01*
X154588023Y-114022526D02*
X154707071Y-114022526D01*
X154707071Y-114022526D02*
X154754690Y-114046336D01*
X154754690Y-114046336D02*
X154778500Y-114070145D01*
X154778500Y-114070145D02*
X154802309Y-114117764D01*
X154802309Y-114117764D02*
X154802309Y-114260621D01*
X154802309Y-114260621D02*
X154778500Y-114308240D01*
X154778500Y-114308240D02*
X154754690Y-114332050D01*
X154302309Y-113879669D02*
X154802309Y-113713003D01*
X154802309Y-113713003D02*
X154302309Y-113546336D01*
X155356119Y-114736811D02*
X155332309Y-114784430D01*
X155332309Y-114784430D02*
X155332309Y-114855859D01*
X155332309Y-114855859D02*
X155356119Y-114927287D01*
X155356119Y-114927287D02*
X155403738Y-114974906D01*
X155403738Y-114974906D02*
X155451357Y-114998716D01*
X155451357Y-114998716D02*
X155546595Y-115022525D01*
X155546595Y-115022525D02*
X155618023Y-115022525D01*
X155618023Y-115022525D02*
X155713261Y-114998716D01*
X155713261Y-114998716D02*
X155760880Y-114974906D01*
X155760880Y-114974906D02*
X155808500Y-114927287D01*
X155808500Y-114927287D02*
X155832309Y-114855859D01*
X155832309Y-114855859D02*
X155832309Y-114808240D01*
X155832309Y-114808240D02*
X155808500Y-114736811D01*
X155808500Y-114736811D02*
X155784690Y-114713002D01*
X155784690Y-114713002D02*
X155618023Y-114713002D01*
X155618023Y-114713002D02*
X155618023Y-114808240D01*
X155832309Y-114498716D02*
X155332309Y-114498716D01*
X155332309Y-114498716D02*
X155832309Y-114213002D01*
X155832309Y-114213002D02*
X155332309Y-114213002D01*
X155832309Y-113974906D02*
X155332309Y-113974906D01*
X155332309Y-113974906D02*
X155332309Y-113855858D01*
X155332309Y-113855858D02*
X155356119Y-113784430D01*
X155356119Y-113784430D02*
X155403738Y-113736811D01*
X155403738Y-113736811D02*
X155451357Y-113713001D01*
X155451357Y-113713001D02*
X155546595Y-113689192D01*
X155546595Y-113689192D02*
X155618023Y-113689192D01*
X155618023Y-113689192D02*
X155713261Y-113713001D01*
X155713261Y-113713001D02*
X155760880Y-113736811D01*
X155760880Y-113736811D02*
X155808500Y-113784430D01*
X155808500Y-113784430D02*
X155832309Y-113855858D01*
X155832309Y-113855858D02*
X155832309Y-113974906D01*
X156332309Y-115046335D02*
X156332309Y-114736811D01*
X156332309Y-114736811D02*
X156522785Y-114903478D01*
X156522785Y-114903478D02*
X156522785Y-114832049D01*
X156522785Y-114832049D02*
X156546595Y-114784430D01*
X156546595Y-114784430D02*
X156570404Y-114760621D01*
X156570404Y-114760621D02*
X156618023Y-114736811D01*
X156618023Y-114736811D02*
X156737071Y-114736811D01*
X156737071Y-114736811D02*
X156784690Y-114760621D01*
X156784690Y-114760621D02*
X156808500Y-114784430D01*
X156808500Y-114784430D02*
X156832309Y-114832049D01*
X156832309Y-114832049D02*
X156832309Y-114974906D01*
X156832309Y-114974906D02*
X156808500Y-115022525D01*
X156808500Y-115022525D02*
X156784690Y-115046335D01*
X156332309Y-114308240D02*
X156332309Y-114403478D01*
X156332309Y-114403478D02*
X156356119Y-114451097D01*
X156356119Y-114451097D02*
X156379928Y-114474907D01*
X156379928Y-114474907D02*
X156451357Y-114522526D01*
X156451357Y-114522526D02*
X156546595Y-114546335D01*
X156546595Y-114546335D02*
X156737071Y-114546335D01*
X156737071Y-114546335D02*
X156784690Y-114522526D01*
X156784690Y-114522526D02*
X156808500Y-114498716D01*
X156808500Y-114498716D02*
X156832309Y-114451097D01*
X156832309Y-114451097D02*
X156832309Y-114355859D01*
X156832309Y-114355859D02*
X156808500Y-114308240D01*
X156808500Y-114308240D02*
X156784690Y-114284431D01*
X156784690Y-114284431D02*
X156737071Y-114260621D01*
X156737071Y-114260621D02*
X156618023Y-114260621D01*
X156618023Y-114260621D02*
X156570404Y-114284431D01*
X156570404Y-114284431D02*
X156546595Y-114308240D01*
X156546595Y-114308240D02*
X156522785Y-114355859D01*
X156522785Y-114355859D02*
X156522785Y-114451097D01*
X156522785Y-114451097D02*
X156546595Y-114498716D01*
X156546595Y-114498716D02*
X156570404Y-114522526D01*
X156570404Y-114522526D02*
X156618023Y-114546335D01*
X156332309Y-114117764D02*
X156832309Y-113951098D01*
X156832309Y-113951098D02*
X156332309Y-113784431D01*
D11*
X139786128Y-115929887D02*
X139750414Y-116001316D01*
X139750414Y-116001316D02*
X139750414Y-116108458D01*
X139750414Y-116108458D02*
X139786128Y-116215601D01*
X139786128Y-116215601D02*
X139857557Y-116287030D01*
X139857557Y-116287030D02*
X139928985Y-116322744D01*
X139928985Y-116322744D02*
X140071842Y-116358458D01*
X140071842Y-116358458D02*
X140178985Y-116358458D01*
X140178985Y-116358458D02*
X140321842Y-116322744D01*
X140321842Y-116322744D02*
X140393271Y-116287030D01*
X140393271Y-116287030D02*
X140464700Y-116215601D01*
X140464700Y-116215601D02*
X140500414Y-116108458D01*
X140500414Y-116108458D02*
X140500414Y-116037030D01*
X140500414Y-116037030D02*
X140464700Y-115929887D01*
X140464700Y-115929887D02*
X140428985Y-115894173D01*
X140428985Y-115894173D02*
X140178985Y-115894173D01*
X140178985Y-115894173D02*
X140178985Y-116037030D01*
X140500414Y-115572744D02*
X139750414Y-115572744D01*
X139750414Y-115572744D02*
X140500414Y-115144173D01*
X140500414Y-115144173D02*
X139750414Y-115144173D01*
X140500414Y-114787030D02*
X139750414Y-114787030D01*
X139750414Y-114787030D02*
X139750414Y-114608459D01*
X139750414Y-114608459D02*
X139786128Y-114501316D01*
X139786128Y-114501316D02*
X139857557Y-114429887D01*
X139857557Y-114429887D02*
X139928985Y-114394173D01*
X139928985Y-114394173D02*
X140071842Y-114358459D01*
X140071842Y-114358459D02*
X140178985Y-114358459D01*
X140178985Y-114358459D02*
X140321842Y-114394173D01*
X140321842Y-114394173D02*
X140393271Y-114429887D01*
X140393271Y-114429887D02*
X140464700Y-114501316D01*
X140464700Y-114501316D02*
X140500414Y-114608459D01*
X140500414Y-114608459D02*
X140500414Y-114787030D01*
X161500414Y-116179888D02*
X161500414Y-115715602D01*
X161500414Y-115715602D02*
X161786128Y-115965602D01*
X161786128Y-115965602D02*
X161786128Y-115858459D01*
X161786128Y-115858459D02*
X161821842Y-115787031D01*
X161821842Y-115787031D02*
X161857557Y-115751316D01*
X161857557Y-115751316D02*
X161928985Y-115715602D01*
X161928985Y-115715602D02*
X162107557Y-115715602D01*
X162107557Y-115715602D02*
X162178985Y-115751316D01*
X162178985Y-115751316D02*
X162214700Y-115787031D01*
X162214700Y-115787031D02*
X162250414Y-115858459D01*
X162250414Y-115858459D02*
X162250414Y-116072745D01*
X162250414Y-116072745D02*
X162214700Y-116144173D01*
X162214700Y-116144173D02*
X162178985Y-116179888D01*
X161500414Y-115072745D02*
X161500414Y-115215602D01*
X161500414Y-115215602D02*
X161536128Y-115287030D01*
X161536128Y-115287030D02*
X161571842Y-115322745D01*
X161571842Y-115322745D02*
X161678985Y-115394173D01*
X161678985Y-115394173D02*
X161821842Y-115429887D01*
X161821842Y-115429887D02*
X162107557Y-115429887D01*
X162107557Y-115429887D02*
X162178985Y-115394173D01*
X162178985Y-115394173D02*
X162214700Y-115358459D01*
X162214700Y-115358459D02*
X162250414Y-115287030D01*
X162250414Y-115287030D02*
X162250414Y-115144173D01*
X162250414Y-115144173D02*
X162214700Y-115072745D01*
X162214700Y-115072745D02*
X162178985Y-115037030D01*
X162178985Y-115037030D02*
X162107557Y-115001316D01*
X162107557Y-115001316D02*
X161928985Y-115001316D01*
X161928985Y-115001316D02*
X161857557Y-115037030D01*
X161857557Y-115037030D02*
X161821842Y-115072745D01*
X161821842Y-115072745D02*
X161786128Y-115144173D01*
X161786128Y-115144173D02*
X161786128Y-115287030D01*
X161786128Y-115287030D02*
X161821842Y-115358459D01*
X161821842Y-115358459D02*
X161857557Y-115394173D01*
X161857557Y-115394173D02*
X161928985Y-115429887D01*
X161500414Y-114787030D02*
X162250414Y-114537030D01*
X162250414Y-114537030D02*
X161500414Y-114287030D01*
D12*
X145929949Y-119467000D02*
X146072806Y-119514619D01*
X146072806Y-119514619D02*
X146310901Y-119514619D01*
X146310901Y-119514619D02*
X146406139Y-119467000D01*
X146406139Y-119467000D02*
X146453758Y-119419380D01*
X146453758Y-119419380D02*
X146501377Y-119324142D01*
X146501377Y-119324142D02*
X146501377Y-119228904D01*
X146501377Y-119228904D02*
X146453758Y-119133666D01*
X146453758Y-119133666D02*
X146406139Y-119086047D01*
X146406139Y-119086047D02*
X146310901Y-119038428D01*
X146310901Y-119038428D02*
X146120425Y-118990809D01*
X146120425Y-118990809D02*
X146025187Y-118943190D01*
X146025187Y-118943190D02*
X145977568Y-118895571D01*
X145977568Y-118895571D02*
X145929949Y-118800333D01*
X145929949Y-118800333D02*
X145929949Y-118705095D01*
X145929949Y-118705095D02*
X145977568Y-118609857D01*
X145977568Y-118609857D02*
X146025187Y-118562238D01*
X146025187Y-118562238D02*
X146120425Y-118514619D01*
X146120425Y-118514619D02*
X146358520Y-118514619D01*
X146358520Y-118514619D02*
X146501377Y-118562238D01*
X146929949Y-118990809D02*
X147263282Y-118990809D01*
X147406139Y-119514619D02*
X146929949Y-119514619D01*
X146929949Y-119514619D02*
X146929949Y-118514619D01*
X146929949Y-118514619D02*
X147406139Y-118514619D01*
X147834711Y-119514619D02*
X147834711Y-118514619D01*
X147834711Y-118514619D02*
X148406139Y-119514619D01*
X148406139Y-119514619D02*
X148406139Y-118514619D01*
X148834711Y-119467000D02*
X148977568Y-119514619D01*
X148977568Y-119514619D02*
X149215663Y-119514619D01*
X149215663Y-119514619D02*
X149310901Y-119467000D01*
X149310901Y-119467000D02*
X149358520Y-119419380D01*
X149358520Y-119419380D02*
X149406139Y-119324142D01*
X149406139Y-119324142D02*
X149406139Y-119228904D01*
X149406139Y-119228904D02*
X149358520Y-119133666D01*
X149358520Y-119133666D02*
X149310901Y-119086047D01*
X149310901Y-119086047D02*
X149215663Y-119038428D01*
X149215663Y-119038428D02*
X149025187Y-118990809D01*
X149025187Y-118990809D02*
X148929949Y-118943190D01*
X148929949Y-118943190D02*
X148882330Y-118895571D01*
X148882330Y-118895571D02*
X148834711Y-118800333D01*
X148834711Y-118800333D02*
X148834711Y-118705095D01*
X148834711Y-118705095D02*
X148882330Y-118609857D01*
X148882330Y-118609857D02*
X148929949Y-118562238D01*
X148929949Y-118562238D02*
X149025187Y-118514619D01*
X149025187Y-118514619D02*
X149263282Y-118514619D01*
X149263282Y-118514619D02*
X149406139Y-118562238D01*
X150025187Y-118514619D02*
X150215663Y-118514619D01*
X150215663Y-118514619D02*
X150310901Y-118562238D01*
X150310901Y-118562238D02*
X150406139Y-118657476D01*
X150406139Y-118657476D02*
X150453758Y-118847952D01*
X150453758Y-118847952D02*
X150453758Y-119181285D01*
X150453758Y-119181285D02*
X150406139Y-119371761D01*
X150406139Y-119371761D02*
X150310901Y-119467000D01*
X150310901Y-119467000D02*
X150215663Y-119514619D01*
X150215663Y-119514619D02*
X150025187Y-119514619D01*
X150025187Y-119514619D02*
X149929949Y-119467000D01*
X149929949Y-119467000D02*
X149834711Y-119371761D01*
X149834711Y-119371761D02*
X149787092Y-119181285D01*
X149787092Y-119181285D02*
X149787092Y-118847952D01*
X149787092Y-118847952D02*
X149834711Y-118657476D01*
X149834711Y-118657476D02*
X149929949Y-118562238D01*
X149929949Y-118562238D02*
X150025187Y-118514619D01*
X151453758Y-119514619D02*
X151120425Y-119038428D01*
X150882330Y-119514619D02*
X150882330Y-118514619D01*
X150882330Y-118514619D02*
X151263282Y-118514619D01*
X151263282Y-118514619D02*
X151358520Y-118562238D01*
X151358520Y-118562238D02*
X151406139Y-118609857D01*
X151406139Y-118609857D02*
X151453758Y-118705095D01*
X151453758Y-118705095D02*
X151453758Y-118847952D01*
X151453758Y-118847952D02*
X151406139Y-118943190D01*
X151406139Y-118943190D02*
X151358520Y-118990809D01*
X151358520Y-118990809D02*
X151263282Y-119038428D01*
X151263282Y-119038428D02*
X150882330Y-119038428D01*
X152644235Y-119514619D02*
X152644235Y-118514619D01*
X152644235Y-118990809D02*
X153215663Y-118990809D01*
X153215663Y-119514619D02*
X153215663Y-118514619D01*
X153691854Y-118990809D02*
X154025187Y-118990809D01*
X154168044Y-119514619D02*
X153691854Y-119514619D01*
X153691854Y-119514619D02*
X153691854Y-118514619D01*
X153691854Y-118514619D02*
X154168044Y-118514619D01*
X154548997Y-119228904D02*
X155025187Y-119228904D01*
X154453759Y-119514619D02*
X154787092Y-118514619D01*
X154787092Y-118514619D02*
X155120425Y-119514619D01*
X155453759Y-119514619D02*
X155453759Y-118514619D01*
X155453759Y-118514619D02*
X155691854Y-118514619D01*
X155691854Y-118514619D02*
X155834711Y-118562238D01*
X155834711Y-118562238D02*
X155929949Y-118657476D01*
X155929949Y-118657476D02*
X155977568Y-118752714D01*
X155977568Y-118752714D02*
X156025187Y-118943190D01*
X156025187Y-118943190D02*
X156025187Y-119086047D01*
X156025187Y-119086047D02*
X155977568Y-119276523D01*
X155977568Y-119276523D02*
X155929949Y-119371761D01*
X155929949Y-119371761D02*
X155834711Y-119467000D01*
X155834711Y-119467000D02*
X155691854Y-119514619D01*
X155691854Y-119514619D02*
X155453759Y-119514619D01*
X146646428Y-86630865D02*
X146789285Y-86678484D01*
X146789285Y-86678484D02*
X146836904Y-86726103D01*
X146836904Y-86726103D02*
X146884523Y-86821341D01*
X146884523Y-86821341D02*
X146884523Y-86964198D01*
X146884523Y-86964198D02*
X146836904Y-87059436D01*
X146836904Y-87059436D02*
X146789285Y-87107056D01*
X146789285Y-87107056D02*
X146694047Y-87154675D01*
X146694047Y-87154675D02*
X146313095Y-87154675D01*
X146313095Y-87154675D02*
X146313095Y-86154675D01*
X146313095Y-86154675D02*
X146646428Y-86154675D01*
X146646428Y-86154675D02*
X146741666Y-86202294D01*
X146741666Y-86202294D02*
X146789285Y-86249913D01*
X146789285Y-86249913D02*
X146836904Y-86345151D01*
X146836904Y-86345151D02*
X146836904Y-86440389D01*
X146836904Y-86440389D02*
X146789285Y-86535627D01*
X146789285Y-86535627D02*
X146741666Y-86583246D01*
X146741666Y-86583246D02*
X146646428Y-86630865D01*
X146646428Y-86630865D02*
X146313095Y-86630865D01*
X147455952Y-87154675D02*
X147360714Y-87107056D01*
X147360714Y-87107056D02*
X147313095Y-87059436D01*
X147313095Y-87059436D02*
X147265476Y-86964198D01*
X147265476Y-86964198D02*
X147265476Y-86678484D01*
X147265476Y-86678484D02*
X147313095Y-86583246D01*
X147313095Y-86583246D02*
X147360714Y-86535627D01*
X147360714Y-86535627D02*
X147455952Y-86488008D01*
X147455952Y-86488008D02*
X147598809Y-86488008D01*
X147598809Y-86488008D02*
X147694047Y-86535627D01*
X147694047Y-86535627D02*
X147741666Y-86583246D01*
X147741666Y-86583246D02*
X147789285Y-86678484D01*
X147789285Y-86678484D02*
X147789285Y-86964198D01*
X147789285Y-86964198D02*
X147741666Y-87059436D01*
X147741666Y-87059436D02*
X147694047Y-87107056D01*
X147694047Y-87107056D02*
X147598809Y-87154675D01*
X147598809Y-87154675D02*
X147455952Y-87154675D01*
X148122619Y-86488008D02*
X148313095Y-87154675D01*
X148313095Y-87154675D02*
X148503571Y-86678484D01*
X148503571Y-86678484D02*
X148694047Y-87154675D01*
X148694047Y-87154675D02*
X148884523Y-86488008D01*
X149646428Y-87107056D02*
X149551190Y-87154675D01*
X149551190Y-87154675D02*
X149360714Y-87154675D01*
X149360714Y-87154675D02*
X149265476Y-87107056D01*
X149265476Y-87107056D02*
X149217857Y-87011817D01*
X149217857Y-87011817D02*
X149217857Y-86630865D01*
X149217857Y-86630865D02*
X149265476Y-86535627D01*
X149265476Y-86535627D02*
X149360714Y-86488008D01*
X149360714Y-86488008D02*
X149551190Y-86488008D01*
X149551190Y-86488008D02*
X149646428Y-86535627D01*
X149646428Y-86535627D02*
X149694047Y-86630865D01*
X149694047Y-86630865D02*
X149694047Y-86726103D01*
X149694047Y-86726103D02*
X149217857Y-86821341D01*
X150122619Y-86488008D02*
X150122619Y-87154675D01*
X150122619Y-86583246D02*
X150170238Y-86535627D01*
X150170238Y-86535627D02*
X150265476Y-86488008D01*
X150265476Y-86488008D02*
X150408333Y-86488008D01*
X150408333Y-86488008D02*
X150503571Y-86535627D01*
X150503571Y-86535627D02*
X150551190Y-86630865D01*
X150551190Y-86630865D02*
X150551190Y-87154675D01*
X151694048Y-86154675D02*
X152360714Y-86154675D01*
X152360714Y-86154675D02*
X151694048Y-87154675D01*
X151694048Y-87154675D02*
X152360714Y-87154675D01*
X152741667Y-87154675D02*
X152741667Y-86154675D01*
X153170238Y-87154675D02*
X153170238Y-86630865D01*
X153170238Y-86630865D02*
X153122619Y-86535627D01*
X153122619Y-86535627D02*
X153027381Y-86488008D01*
X153027381Y-86488008D02*
X152884524Y-86488008D01*
X152884524Y-86488008D02*
X152789286Y-86535627D01*
X152789286Y-86535627D02*
X152741667Y-86583246D01*
X154027381Y-87107056D02*
X153932143Y-87154675D01*
X153932143Y-87154675D02*
X153741667Y-87154675D01*
X153741667Y-87154675D02*
X153646429Y-87107056D01*
X153646429Y-87107056D02*
X153598810Y-87011817D01*
X153598810Y-87011817D02*
X153598810Y-86630865D01*
X153598810Y-86630865D02*
X153646429Y-86535627D01*
X153646429Y-86535627D02*
X153741667Y-86488008D01*
X153741667Y-86488008D02*
X153932143Y-86488008D01*
X153932143Y-86488008D02*
X154027381Y-86535627D01*
X154027381Y-86535627D02*
X154075000Y-86630865D01*
X154075000Y-86630865D02*
X154075000Y-86726103D01*
X154075000Y-86726103D02*
X153598810Y-86821341D01*
X154503572Y-86488008D02*
X154503572Y-87154675D01*
X154503572Y-86583246D02*
X154551191Y-86535627D01*
X154551191Y-86535627D02*
X154646429Y-86488008D01*
X154646429Y-86488008D02*
X154789286Y-86488008D01*
X154789286Y-86488008D02*
X154884524Y-86535627D01*
X154884524Y-86535627D02*
X154932143Y-86630865D01*
X154932143Y-86630865D02*
X154932143Y-87154675D01*
X155836905Y-86488008D02*
X155836905Y-87297532D01*
X155836905Y-87297532D02*
X155789286Y-87392770D01*
X155789286Y-87392770D02*
X155741667Y-87440389D01*
X155741667Y-87440389D02*
X155646429Y-87488008D01*
X155646429Y-87488008D02*
X155503572Y-87488008D01*
X155503572Y-87488008D02*
X155408334Y-87440389D01*
X155836905Y-87107056D02*
X155741667Y-87154675D01*
X155741667Y-87154675D02*
X155551191Y-87154675D01*
X155551191Y-87154675D02*
X155455953Y-87107056D01*
X155455953Y-87107056D02*
X155408334Y-87059436D01*
X155408334Y-87059436D02*
X155360715Y-86964198D01*
X155360715Y-86964198D02*
X155360715Y-86678484D01*
X155360715Y-86678484D02*
X155408334Y-86583246D01*
X155408334Y-86583246D02*
X155455953Y-86535627D01*
X155455953Y-86535627D02*
X155551191Y-86488008D01*
X155551191Y-86488008D02*
X155741667Y-86488008D01*
X155741667Y-86488008D02*
X155836905Y-86535627D01*
X148884524Y-87764619D02*
X148694048Y-87764619D01*
X148694048Y-87764619D02*
X148598810Y-87812238D01*
X148598810Y-87812238D02*
X148551191Y-87859857D01*
X148551191Y-87859857D02*
X148455953Y-88002714D01*
X148455953Y-88002714D02*
X148408334Y-88193190D01*
X148408334Y-88193190D02*
X148408334Y-88574142D01*
X148408334Y-88574142D02*
X148455953Y-88669380D01*
X148455953Y-88669380D02*
X148503572Y-88717000D01*
X148503572Y-88717000D02*
X148598810Y-88764619D01*
X148598810Y-88764619D02*
X148789286Y-88764619D01*
X148789286Y-88764619D02*
X148884524Y-88717000D01*
X148884524Y-88717000D02*
X148932143Y-88669380D01*
X148932143Y-88669380D02*
X148979762Y-88574142D01*
X148979762Y-88574142D02*
X148979762Y-88336047D01*
X148979762Y-88336047D02*
X148932143Y-88240809D01*
X148932143Y-88240809D02*
X148884524Y-88193190D01*
X148884524Y-88193190D02*
X148789286Y-88145571D01*
X148789286Y-88145571D02*
X148598810Y-88145571D01*
X148598810Y-88145571D02*
X148503572Y-88193190D01*
X148503572Y-88193190D02*
X148455953Y-88240809D01*
X148455953Y-88240809D02*
X148408334Y-88336047D01*
X149408334Y-88669380D02*
X149455953Y-88717000D01*
X149455953Y-88717000D02*
X149408334Y-88764619D01*
X149408334Y-88764619D02*
X149360715Y-88717000D01*
X149360715Y-88717000D02*
X149408334Y-88669380D01*
X149408334Y-88669380D02*
X149408334Y-88764619D01*
X149836905Y-87859857D02*
X149884524Y-87812238D01*
X149884524Y-87812238D02*
X149979762Y-87764619D01*
X149979762Y-87764619D02*
X150217857Y-87764619D01*
X150217857Y-87764619D02*
X150313095Y-87812238D01*
X150313095Y-87812238D02*
X150360714Y-87859857D01*
X150360714Y-87859857D02*
X150408333Y-87955095D01*
X150408333Y-87955095D02*
X150408333Y-88050333D01*
X150408333Y-88050333D02*
X150360714Y-88193190D01*
X150360714Y-88193190D02*
X149789286Y-88764619D01*
X149789286Y-88764619D02*
X150408333Y-88764619D01*
X151027381Y-87764619D02*
X151122619Y-87764619D01*
X151122619Y-87764619D02*
X151217857Y-87812238D01*
X151217857Y-87812238D02*
X151265476Y-87859857D01*
X151265476Y-87859857D02*
X151313095Y-87955095D01*
X151313095Y-87955095D02*
X151360714Y-88145571D01*
X151360714Y-88145571D02*
X151360714Y-88383666D01*
X151360714Y-88383666D02*
X151313095Y-88574142D01*
X151313095Y-88574142D02*
X151265476Y-88669380D01*
X151265476Y-88669380D02*
X151217857Y-88717000D01*
X151217857Y-88717000D02*
X151122619Y-88764619D01*
X151122619Y-88764619D02*
X151027381Y-88764619D01*
X151027381Y-88764619D02*
X150932143Y-88717000D01*
X150932143Y-88717000D02*
X150884524Y-88669380D01*
X150884524Y-88669380D02*
X150836905Y-88574142D01*
X150836905Y-88574142D02*
X150789286Y-88383666D01*
X150789286Y-88383666D02*
X150789286Y-88145571D01*
X150789286Y-88145571D02*
X150836905Y-87955095D01*
X150836905Y-87955095D02*
X150884524Y-87859857D01*
X150884524Y-87859857D02*
X150932143Y-87812238D01*
X150932143Y-87812238D02*
X151027381Y-87764619D01*
X151789286Y-88669380D02*
X151836905Y-88717000D01*
X151836905Y-88717000D02*
X151789286Y-88764619D01*
X151789286Y-88764619D02*
X151741667Y-88717000D01*
X151741667Y-88717000D02*
X151789286Y-88669380D01*
X151789286Y-88669380D02*
X151789286Y-88764619D01*
X152217857Y-87859857D02*
X152265476Y-87812238D01*
X152265476Y-87812238D02*
X152360714Y-87764619D01*
X152360714Y-87764619D02*
X152598809Y-87764619D01*
X152598809Y-87764619D02*
X152694047Y-87812238D01*
X152694047Y-87812238D02*
X152741666Y-87859857D01*
X152741666Y-87859857D02*
X152789285Y-87955095D01*
X152789285Y-87955095D02*
X152789285Y-88050333D01*
X152789285Y-88050333D02*
X152741666Y-88193190D01*
X152741666Y-88193190D02*
X152170238Y-88764619D01*
X152170238Y-88764619D02*
X152789285Y-88764619D01*
X153646428Y-87764619D02*
X153455952Y-87764619D01*
X153455952Y-87764619D02*
X153360714Y-87812238D01*
X153360714Y-87812238D02*
X153313095Y-87859857D01*
X153313095Y-87859857D02*
X153217857Y-88002714D01*
X153217857Y-88002714D02*
X153170238Y-88193190D01*
X153170238Y-88193190D02*
X153170238Y-88574142D01*
X153170238Y-88574142D02*
X153217857Y-88669380D01*
X153217857Y-88669380D02*
X153265476Y-88717000D01*
X153265476Y-88717000D02*
X153360714Y-88764619D01*
X153360714Y-88764619D02*
X153551190Y-88764619D01*
X153551190Y-88764619D02*
X153646428Y-88717000D01*
X153646428Y-88717000D02*
X153694047Y-88669380D01*
X153694047Y-88669380D02*
X153741666Y-88574142D01*
X153741666Y-88574142D02*
X153741666Y-88336047D01*
X153741666Y-88336047D02*
X153694047Y-88240809D01*
X153694047Y-88240809D02*
X153646428Y-88193190D01*
X153646428Y-88193190D02*
X153551190Y-88145571D01*
X153551190Y-88145571D02*
X153360714Y-88145571D01*
X153360714Y-88145571D02*
X153265476Y-88193190D01*
X153265476Y-88193190D02*
X153217857Y-88240809D01*
X153217857Y-88240809D02*
X153170238Y-88336047D01*
X144078904Y-95245050D02*
X144078904Y-94768860D01*
X144364619Y-95340288D02*
X143364619Y-95006955D01*
X143364619Y-95006955D02*
X144364619Y-94673622D01*
X144317000Y-94387907D02*
X144364619Y-94245050D01*
X144364619Y-94245050D02*
X144364619Y-94006955D01*
X144364619Y-94006955D02*
X144317000Y-93911717D01*
X144317000Y-93911717D02*
X144269380Y-93864098D01*
X144269380Y-93864098D02*
X144174142Y-93816479D01*
X144174142Y-93816479D02*
X144078904Y-93816479D01*
X144078904Y-93816479D02*
X143983666Y-93864098D01*
X143983666Y-93864098D02*
X143936047Y-93911717D01*
X143936047Y-93911717D02*
X143888428Y-94006955D01*
X143888428Y-94006955D02*
X143840809Y-94197431D01*
X143840809Y-94197431D02*
X143793190Y-94292669D01*
X143793190Y-94292669D02*
X143745571Y-94340288D01*
X143745571Y-94340288D02*
X143650333Y-94387907D01*
X143650333Y-94387907D02*
X143555095Y-94387907D01*
X143555095Y-94387907D02*
X143459857Y-94340288D01*
X143459857Y-94340288D02*
X143412238Y-94292669D01*
X143412238Y-94292669D02*
X143364619Y-94197431D01*
X143364619Y-94197431D02*
X143364619Y-93959336D01*
X143364619Y-93959336D02*
X143412238Y-93816479D01*
X143364619Y-92911717D02*
X143364619Y-93387907D01*
X143364619Y-93387907D02*
X143840809Y-93435526D01*
X143840809Y-93435526D02*
X143793190Y-93387907D01*
X143793190Y-93387907D02*
X143745571Y-93292669D01*
X143745571Y-93292669D02*
X143745571Y-93054574D01*
X143745571Y-93054574D02*
X143793190Y-92959336D01*
X143793190Y-92959336D02*
X143840809Y-92911717D01*
X143840809Y-92911717D02*
X143936047Y-92864098D01*
X143936047Y-92864098D02*
X144174142Y-92864098D01*
X144174142Y-92864098D02*
X144269380Y-92911717D01*
X144269380Y-92911717D02*
X144317000Y-92959336D01*
X144317000Y-92959336D02*
X144364619Y-93054574D01*
X144364619Y-93054574D02*
X144364619Y-93292669D01*
X144364619Y-93292669D02*
X144317000Y-93387907D01*
X144317000Y-93387907D02*
X144269380Y-93435526D01*
X143364619Y-92530764D02*
X143364619Y-91911717D01*
X143364619Y-91911717D02*
X143745571Y-92245050D01*
X143745571Y-92245050D02*
X143745571Y-92102193D01*
X143745571Y-92102193D02*
X143793190Y-92006955D01*
X143793190Y-92006955D02*
X143840809Y-91959336D01*
X143840809Y-91959336D02*
X143936047Y-91911717D01*
X143936047Y-91911717D02*
X144174142Y-91911717D01*
X144174142Y-91911717D02*
X144269380Y-91959336D01*
X144269380Y-91959336D02*
X144317000Y-92006955D01*
X144317000Y-92006955D02*
X144364619Y-92102193D01*
X144364619Y-92102193D02*
X144364619Y-92387907D01*
X144364619Y-92387907D02*
X144317000Y-92483145D01*
X144317000Y-92483145D02*
X144269380Y-92530764D01*
X144364619Y-90959336D02*
X144364619Y-91530764D01*
X144364619Y-91245050D02*
X143364619Y-91245050D01*
X143364619Y-91245050D02*
X143507476Y-91340288D01*
X143507476Y-91340288D02*
X143602714Y-91435526D01*
X143602714Y-91435526D02*
X143650333Y-91530764D01*
X144364619Y-90006955D02*
X144364619Y-90578383D01*
X144364619Y-90292669D02*
X143364619Y-90292669D01*
X143364619Y-90292669D02*
X143507476Y-90387907D01*
X143507476Y-90387907D02*
X143602714Y-90483145D01*
X143602714Y-90483145D02*
X143650333Y-90578383D01*
X158514619Y-94697431D02*
X157514619Y-94697431D01*
X157514619Y-94697431D02*
X157514619Y-94316479D01*
X157514619Y-94316479D02*
X157562238Y-94221241D01*
X157562238Y-94221241D02*
X157609857Y-94173622D01*
X157609857Y-94173622D02*
X157705095Y-94126003D01*
X157705095Y-94126003D02*
X157847952Y-94126003D01*
X157847952Y-94126003D02*
X157943190Y-94173622D01*
X157943190Y-94173622D02*
X157990809Y-94221241D01*
X157990809Y-94221241D02*
X158038428Y-94316479D01*
X158038428Y-94316479D02*
X158038428Y-94697431D01*
X157514619Y-93506955D02*
X157514619Y-93316479D01*
X157514619Y-93316479D02*
X157562238Y-93221241D01*
X157562238Y-93221241D02*
X157657476Y-93126003D01*
X157657476Y-93126003D02*
X157847952Y-93078384D01*
X157847952Y-93078384D02*
X158181285Y-93078384D01*
X158181285Y-93078384D02*
X158371761Y-93126003D01*
X158371761Y-93126003D02*
X158467000Y-93221241D01*
X158467000Y-93221241D02*
X158514619Y-93316479D01*
X158514619Y-93316479D02*
X158514619Y-93506955D01*
X158514619Y-93506955D02*
X158467000Y-93602193D01*
X158467000Y-93602193D02*
X158371761Y-93697431D01*
X158371761Y-93697431D02*
X158181285Y-93745050D01*
X158181285Y-93745050D02*
X157847952Y-93745050D01*
X157847952Y-93745050D02*
X157657476Y-93697431D01*
X157657476Y-93697431D02*
X157562238Y-93602193D01*
X157562238Y-93602193D02*
X157514619Y-93506955D01*
X158467000Y-92697431D02*
X158514619Y-92554574D01*
X158514619Y-92554574D02*
X158514619Y-92316479D01*
X158514619Y-92316479D02*
X158467000Y-92221241D01*
X158467000Y-92221241D02*
X158419380Y-92173622D01*
X158419380Y-92173622D02*
X158324142Y-92126003D01*
X158324142Y-92126003D02*
X158228904Y-92126003D01*
X158228904Y-92126003D02*
X158133666Y-92173622D01*
X158133666Y-92173622D02*
X158086047Y-92221241D01*
X158086047Y-92221241D02*
X158038428Y-92316479D01*
X158038428Y-92316479D02*
X157990809Y-92506955D01*
X157990809Y-92506955D02*
X157943190Y-92602193D01*
X157943190Y-92602193D02*
X157895571Y-92649812D01*
X157895571Y-92649812D02*
X157800333Y-92697431D01*
X157800333Y-92697431D02*
X157705095Y-92697431D01*
X157705095Y-92697431D02*
X157609857Y-92649812D01*
X157609857Y-92649812D02*
X157562238Y-92602193D01*
X157562238Y-92602193D02*
X157514619Y-92506955D01*
X157514619Y-92506955D02*
X157514619Y-92268860D01*
X157514619Y-92268860D02*
X157562238Y-92126003D01*
X158514619Y-91697431D02*
X157514619Y-91697431D01*
X158419380Y-90649813D02*
X158467000Y-90697432D01*
X158467000Y-90697432D02*
X158514619Y-90840289D01*
X158514619Y-90840289D02*
X158514619Y-90935527D01*
X158514619Y-90935527D02*
X158467000Y-91078384D01*
X158467000Y-91078384D02*
X158371761Y-91173622D01*
X158371761Y-91173622D02*
X158276523Y-91221241D01*
X158276523Y-91221241D02*
X158086047Y-91268860D01*
X158086047Y-91268860D02*
X157943190Y-91268860D01*
X157943190Y-91268860D02*
X157752714Y-91221241D01*
X157752714Y-91221241D02*
X157657476Y-91173622D01*
X157657476Y-91173622D02*
X157562238Y-91078384D01*
X157562238Y-91078384D02*
X157514619Y-90935527D01*
X157514619Y-90935527D02*
X157514619Y-90840289D01*
X157514619Y-90840289D02*
X157562238Y-90697432D01*
X157562238Y-90697432D02*
X157609857Y-90649813D01*
D11*
X143369819Y-112668333D02*
X144084104Y-112668333D01*
X144084104Y-112668333D02*
X144226961Y-112715952D01*
X144226961Y-112715952D02*
X144322200Y-112811190D01*
X144322200Y-112811190D02*
X144369819Y-112954047D01*
X144369819Y-112954047D02*
X144369819Y-113049285D01*
X144369819Y-111668333D02*
X144369819Y-112239761D01*
X144369819Y-111954047D02*
X143369819Y-111954047D01*
X143369819Y-111954047D02*
X143512676Y-112049285D01*
X143512676Y-112049285D02*
X143607914Y-112144523D01*
X143607914Y-112144523D02*
X143655533Y-112239761D01*
%TO.C,JP4*%
D13*
X149100000Y-97650000D02*
X149100000Y-96250000D01*
X149800000Y-95550000D02*
X150400000Y-95550000D01*
X150400000Y-98350000D02*
X149800000Y-98350000D01*
X151100000Y-96250000D02*
X151100000Y-97650000D01*
X149100000Y-96250000D02*
G75*
G02*
X149800000Y-95550000I699999J1D01*
G01*
X149800000Y-98350000D02*
G75*
G02*
X149100000Y-97650000I0J700000D01*
G01*
X150400000Y-95550000D02*
G75*
G02*
X151100000Y-96250000I1J-699999D01*
G01*
X151100000Y-97650000D02*
G75*
G02*
X150400000Y-98350000I-700000J0D01*
G01*
%TO.C,U4*%
D14*
X153025000Y-89250000D02*
X160025000Y-89250000D01*
X160025000Y-97250000D01*
X153025000Y-97250000D01*
X153025000Y-89250000D01*
X159525000Y-96250000D02*
G75*
G02*
X158525000Y-96250000I-500000J0D01*
G01*
X158525000Y-96250000D02*
G75*
G02*
X159525000Y-96250000I500000J0D01*
G01*
%TO.C,U3*%
D15*
X141750000Y-89500000D02*
X146150000Y-89500000D01*
X141750000Y-96000000D02*
X141750000Y-89500000D01*
X146150000Y-89500000D02*
X146150000Y-96000000D01*
X146150000Y-96000000D02*
X141750000Y-96000000D01*
D16*
X145575000Y-95350000D02*
G75*
G02*
X145375000Y-95350000I-100000J0D01*
G01*
X145375000Y-95350000D02*
G75*
G02*
X145575000Y-95350000I100000J0D01*
G01*
D17*
X141750000Y-89950000D02*
X140750000Y-89950000D01*
X140750000Y-89700000D01*
X141750000Y-89700000D01*
X141750000Y-89950000D01*
G36*
X141750000Y-89950000D02*
G01*
X140750000Y-89950000D01*
X140750000Y-89700000D01*
X141750000Y-89700000D01*
X141750000Y-89950000D01*
G37*
X141750000Y-90600000D02*
X140750000Y-90600000D01*
X140750000Y-90350000D01*
X141750000Y-90350000D01*
X141750000Y-90600000D01*
G36*
X141750000Y-90600000D02*
G01*
X140750000Y-90600000D01*
X140750000Y-90350000D01*
X141750000Y-90350000D01*
X141750000Y-90600000D01*
G37*
X141750000Y-91250000D02*
X140750000Y-91250000D01*
X140750000Y-91000000D01*
X141750000Y-91000000D01*
X141750000Y-91250000D01*
G36*
X141750000Y-91250000D02*
G01*
X140750000Y-91250000D01*
X140750000Y-91000000D01*
X141750000Y-91000000D01*
X141750000Y-91250000D01*
G37*
X141750000Y-91900000D02*
X140750000Y-91900000D01*
X140750000Y-91650000D01*
X141750000Y-91650000D01*
X141750000Y-91900000D01*
G36*
X141750000Y-91900000D02*
G01*
X140750000Y-91900000D01*
X140750000Y-91650000D01*
X141750000Y-91650000D01*
X141750000Y-91900000D01*
G37*
X141750000Y-92550000D02*
X140750000Y-92550000D01*
X140750000Y-92300000D01*
X141750000Y-92300000D01*
X141750000Y-92550000D01*
G36*
X141750000Y-92550000D02*
G01*
X140750000Y-92550000D01*
X140750000Y-92300000D01*
X141750000Y-92300000D01*
X141750000Y-92550000D01*
G37*
X141750000Y-93200000D02*
X140750000Y-93200000D01*
X140750000Y-92950000D01*
X141750000Y-92950000D01*
X141750000Y-93200000D01*
G36*
X141750000Y-93200000D02*
G01*
X140750000Y-93200000D01*
X140750000Y-92950000D01*
X141750000Y-92950000D01*
X141750000Y-93200000D01*
G37*
X141750000Y-93850000D02*
X140750000Y-93850000D01*
X140750000Y-93600000D01*
X141750000Y-93600000D01*
X141750000Y-93850000D01*
G36*
X141750000Y-93850000D02*
G01*
X140750000Y-93850000D01*
X140750000Y-93600000D01*
X141750000Y-93600000D01*
X141750000Y-93850000D01*
G37*
X141750000Y-94500000D02*
X140750000Y-94500000D01*
X140750000Y-94250000D01*
X141750000Y-94250000D01*
X141750000Y-94500000D01*
G36*
X141750000Y-94500000D02*
G01*
X140750000Y-94500000D01*
X140750000Y-94250000D01*
X141750000Y-94250000D01*
X141750000Y-94500000D01*
G37*
X141750000Y-95150000D02*
X140750000Y-95150000D01*
X140750000Y-94900000D01*
X141750000Y-94900000D01*
X141750000Y-95150000D01*
G36*
X141750000Y-95150000D02*
G01*
X140750000Y-95150000D01*
X140750000Y-94900000D01*
X141750000Y-94900000D01*
X141750000Y-95150000D01*
G37*
X141750000Y-95800000D02*
X140750000Y-95800000D01*
X140750000Y-95550000D01*
X141750000Y-95550000D01*
X141750000Y-95800000D01*
G36*
X141750000Y-95800000D02*
G01*
X140750000Y-95800000D01*
X140750000Y-95550000D01*
X141750000Y-95550000D01*
X141750000Y-95800000D01*
G37*
X147150000Y-89950000D02*
X146150000Y-89950000D01*
X146150000Y-89700000D01*
X147150000Y-89700000D01*
X147150000Y-89950000D01*
G36*
X147150000Y-89950000D02*
G01*
X146150000Y-89950000D01*
X146150000Y-89700000D01*
X147150000Y-89700000D01*
X147150000Y-89950000D01*
G37*
X147150000Y-90600000D02*
X146150000Y-90600000D01*
X146150000Y-90350000D01*
X147150000Y-90350000D01*
X147150000Y-90600000D01*
G36*
X147150000Y-90600000D02*
G01*
X146150000Y-90600000D01*
X146150000Y-90350000D01*
X147150000Y-90350000D01*
X147150000Y-90600000D01*
G37*
X147150000Y-91250000D02*
X146150000Y-91250000D01*
X146150000Y-91000000D01*
X147150000Y-91000000D01*
X147150000Y-91250000D01*
G36*
X147150000Y-91250000D02*
G01*
X146150000Y-91250000D01*
X146150000Y-91000000D01*
X147150000Y-91000000D01*
X147150000Y-91250000D01*
G37*
X147150000Y-91900000D02*
X146150000Y-91900000D01*
X146150000Y-91650000D01*
X147150000Y-91650000D01*
X147150000Y-91900000D01*
G36*
X147150000Y-91900000D02*
G01*
X146150000Y-91900000D01*
X146150000Y-91650000D01*
X147150000Y-91650000D01*
X147150000Y-91900000D01*
G37*
X147150000Y-92550000D02*
X146150000Y-92550000D01*
X146150000Y-92300000D01*
X147150000Y-92300000D01*
X147150000Y-92550000D01*
G36*
X147150000Y-92550000D02*
G01*
X146150000Y-92550000D01*
X146150000Y-92300000D01*
X147150000Y-92300000D01*
X147150000Y-92550000D01*
G37*
X147150000Y-93200000D02*
X146150000Y-93200000D01*
X146150000Y-92950000D01*
X147150000Y-92950000D01*
X147150000Y-93200000D01*
G36*
X147150000Y-93200000D02*
G01*
X146150000Y-93200000D01*
X146150000Y-92950000D01*
X147150000Y-92950000D01*
X147150000Y-93200000D01*
G37*
X147150000Y-93850000D02*
X146150000Y-93850000D01*
X146150000Y-93600000D01*
X147150000Y-93600000D01*
X147150000Y-93850000D01*
G36*
X147150000Y-93850000D02*
G01*
X146150000Y-93850000D01*
X146150000Y-93600000D01*
X147150000Y-93600000D01*
X147150000Y-93850000D01*
G37*
X147150000Y-94500000D02*
X146150000Y-94500000D01*
X146150000Y-94250000D01*
X147150000Y-94250000D01*
X147150000Y-94500000D01*
G36*
X147150000Y-94500000D02*
G01*
X146150000Y-94500000D01*
X146150000Y-94250000D01*
X147150000Y-94250000D01*
X147150000Y-94500000D01*
G37*
X147150000Y-95150000D02*
X146150000Y-95150000D01*
X146150000Y-94900000D01*
X147150000Y-94900000D01*
X147150000Y-95150000D01*
G36*
X147150000Y-95150000D02*
G01*
X146150000Y-95150000D01*
X146150000Y-94900000D01*
X147150000Y-94900000D01*
X147150000Y-95150000D01*
G37*
X147150000Y-95800000D02*
X146150000Y-95800000D01*
X146150000Y-95550000D01*
X147150000Y-95550000D01*
X147150000Y-95800000D01*
G36*
X147150000Y-95800000D02*
G01*
X146150000Y-95800000D01*
X146150000Y-95550000D01*
X147150000Y-95550000D01*
X147150000Y-95800000D01*
G37*
%TO.C,J3*%
D13*
X160345000Y-117470000D02*
X161725000Y-117470000D01*
X160345000Y-118850000D02*
X160345000Y-117470000D01*
X160345000Y-120120000D02*
X160345000Y-120230000D01*
X160345000Y-120120000D02*
X163105000Y-120120000D01*
X160345000Y-120230000D02*
X163105000Y-120230000D01*
X163105000Y-120120000D02*
X163105000Y-120230000D01*
%TO.C,J1*%
X144790000Y-113080000D02*
X144790000Y-112335000D01*
X145525000Y-113080000D02*
X144790000Y-113080000D01*
X146260000Y-111590000D02*
X157135000Y-111590000D01*
X146260000Y-111649435D02*
X146260000Y-111590000D01*
X146260000Y-113080000D02*
X146260000Y-113020565D01*
X146260000Y-113080000D02*
X157135000Y-113080000D01*
X157135000Y-111924970D02*
X157135000Y-111590000D01*
X157135000Y-113080000D02*
X157135000Y-112745030D01*
%TO.C,J4*%
X138895000Y-117470000D02*
X140275000Y-117470000D01*
X138895000Y-118850000D02*
X138895000Y-117470000D01*
X138895000Y-120120000D02*
X138895000Y-120230000D01*
X138895000Y-120120000D02*
X141655000Y-120120000D01*
X138895000Y-120230000D02*
X141655000Y-120230000D01*
X141655000Y-120120000D02*
X141655000Y-120230000D01*
%TO.C,JP3*%
X143800000Y-97900000D02*
X143800000Y-97300000D01*
X144500000Y-96600000D02*
X145900000Y-96600000D01*
X145900000Y-98600000D02*
X144500000Y-98600000D01*
X146600000Y-97300000D02*
X146600000Y-97900000D01*
X143800000Y-97300000D02*
G75*
G02*
X144500000Y-96600000I700000J0D01*
G01*
X144500000Y-98600000D02*
G75*
G02*
X143800000Y-97900000I0J700000D01*
G01*
X145900000Y-96600000D02*
G75*
G02*
X146600000Y-97300000I1J-699999D01*
G01*
X146600000Y-97900000D02*
G75*
G02*
X145900000Y-98600000I-699999J-1D01*
G01*
%TD*%
D18*
X138539942Y-86740002D02*
X138500000Y-119500000D01*
X138539942Y-86740002D02*
G75*
G02*
X140539942Y-84740042I1999958J2D01*
G01*
X140500000Y-121500000D02*
G75*
G02*
X138500000Y-119500000I0J2000000D01*
G01*
X140500000Y-121500000D02*
X161500000Y-121500000D01*
X140539942Y-84740002D02*
X161539942Y-84740002D01*
X145039942Y-86750000D02*
G75*
G02*
X142039942Y-86750000I-1500000J0D01*
G01*
X142039942Y-86750000D02*
G75*
G02*
X145039942Y-86750000I1500000J0D01*
G01*
X145039942Y-107750000D02*
G75*
G02*
X142039942Y-107750000I-1500000J0D01*
G01*
X142039942Y-107750000D02*
G75*
G02*
X145039942Y-107750000I1500000J0D01*
G01*
X160050000Y-86750000D02*
G75*
G02*
X157050000Y-86750000I-1500000J0D01*
G01*
X157050000Y-86750000D02*
G75*
G02*
X160050000Y-86750000I1500000J0D01*
G01*
X160050000Y-107750000D02*
G75*
G02*
X157050000Y-107750000I-1500000J0D01*
G01*
X157050000Y-107750000D02*
G75*
G02*
X160050000Y-107750000I1500000J0D01*
G01*
X161539942Y-84740002D02*
G75*
G02*
X163550023Y-86740001I10058J-1999998D01*
G01*
X163500000Y-119500000D02*
G75*
G02*
X161500000Y-121500000I-2000000J0D01*
G01*
X163550000Y-86740001D02*
X163500000Y-119500000D01*
M02*
