%TF.GenerationSoftware,KiCad,Pcbnew,10.0.0*%
%TF.CreationDate,2026-08-18T16:39:21-04:00*%
%TF.ProjectId,sensor_head_v4,73656e73-6f72-45f6-9865-61645f76342e,rev?*%
%TF.SameCoordinates,Original*%
%TF.FileFunction,Paste,Top*%
%TF.FilePolarity,Positive*%
%FSLAX46Y46*%
G04 Gerber Fmt 4.6, Leading zero omitted, Abs format (unit mm)*
G04 Created by KiCad (PCBNEW 10.0.0) date 2026-08-18 16:39:21*
%MOMM*%
%LPD*%
G01*
G04 APERTURE LIST*
G04 Aperture macros list*
%AMRoundRect*
0 Rectangle with rounded corners*
0 $1 Rounding radius*
0 $2 $3 $4 $5 $6 $7 $8 $9 X,Y pos of 4 corners*
0 Add a 4 corners polygon primitive as box body*
4,1,4,$2,$3,$4,$5,$6,$7,$8,$9,$2,$3,0*
0 Add four circle primitives for the rounded corners*
1,1,$1+$1,$2,$3*
1,1,$1+$1,$4,$5*
1,1,$1+$1,$6,$7*
1,1,$1+$1,$8,$9*
0 Add four rect primitives between the rounded corners*
20,1,$1+$1,$2,$3,$4,$5,0*
20,1,$1+$1,$4,$5,$6,$7,0*
20,1,$1+$1,$6,$7,$8,$9,0*
20,1,$1+$1,$8,$9,$2,$3,0*%
G04 Aperture macros list end*
%ADD10RoundRect,0.050000X0.825000X0.350000X-0.825000X0.350000X-0.825000X-0.350000X0.825000X-0.350000X0*%
%ADD11RoundRect,0.050000X-0.825000X-0.350000X0.825000X-0.350000X0.825000X0.350000X-0.825000X0.350000X0*%
%ADD12RoundRect,0.050000X0.350000X-0.825000X0.350000X0.825000X-0.350000X0.825000X-0.350000X-0.825000X0*%
%ADD13R,1.450000X0.350000*%
%TA.AperFunction,Profile*%
%ADD14C,0.050000*%
%TD*%
G04 APERTURE END LIST*
D10*
%TO.C,U4*%
X159150000Y-94520000D03*
D11*
X159150000Y-93250000D03*
X159150000Y-91980000D03*
D12*
X157160000Y-90125000D03*
X155890000Y-90125000D03*
D11*
X153900000Y-91980000D03*
X153900000Y-93250000D03*
X153900000Y-94520000D03*
D12*
X155890000Y-96375000D03*
X157160000Y-96375000D03*
%TD*%
D13*
%TO.C,U3*%
X146775000Y-95675000D03*
X146775000Y-95025000D03*
X146775000Y-94375000D03*
X146775000Y-93725000D03*
X146775000Y-93075000D03*
X146775000Y-92425000D03*
X146775000Y-91775000D03*
X146775000Y-91125000D03*
X146775000Y-90475000D03*
X146775000Y-89825000D03*
X141125000Y-89825000D03*
X141125000Y-90475000D03*
X141125000Y-91125000D03*
X141125000Y-91775000D03*
X141125000Y-92425000D03*
X141125000Y-93075000D03*
X141125000Y-93725000D03*
X141125000Y-94375000D03*
X141125000Y-95025000D03*
X141125000Y-95675000D03*
%TD*%
D14*
X138539942Y-86740002D02*
X138500000Y-119500000D01*
X138539942Y-86740002D02*
G75*
G02*
X140539942Y-84740042I1999958J2D01*
G01*
X140500000Y-121500000D02*
G75*
G02*
X138500000Y-119500000I0J2000000D01*
G01*
X140500000Y-121500000D02*
X161500000Y-121500000D01*
X140539942Y-84740002D02*
X161539942Y-84740002D01*
X145039942Y-86750000D02*
G75*
G02*
X142039942Y-86750000I-1500000J0D01*
G01*
X142039942Y-86750000D02*
G75*
G02*
X145039942Y-86750000I1500000J0D01*
G01*
X145039942Y-107750000D02*
G75*
G02*
X142039942Y-107750000I-1500000J0D01*
G01*
X142039942Y-107750000D02*
G75*
G02*
X145039942Y-107750000I1500000J0D01*
G01*
X160050000Y-86750000D02*
G75*
G02*
X157050000Y-86750000I-1500000J0D01*
G01*
X157050000Y-86750000D02*
G75*
G02*
X160050000Y-86750000I1500000J0D01*
G01*
X160050000Y-107750000D02*
G75*
G02*
X157050000Y-107750000I-1500000J0D01*
G01*
X157050000Y-107750000D02*
G75*
G02*
X160050000Y-107750000I1500000J0D01*
G01*
X161539942Y-84740002D02*
G75*
G02*
X163550023Y-86740001I10058J-1999998D01*
G01*
X163500000Y-119500000D02*
G75*
G02*
X161500000Y-121500000I-2000000J0D01*
G01*
X163550000Y-86740001D02*
X163500000Y-119500000D01*
M02*
