%TF.GenerationSoftware,KiCad,Pcbnew,10.0.0*%
%TF.CreationDate,2026-08-18T16:39:22-04:00*%
%TF.ProjectId,sensor_head_v4,73656e73-6f72-45f6-9865-61645f76342e,rev?*%
%TF.SameCoordinates,Original*%
%TF.FileFunction,AssemblyDrawing,Top*%
%FSLAX46Y46*%
G04 Gerber Fmt 4.6, Leading zero omitted, Abs format (unit mm)*
G04 Created by KiCad (PCBNEW 10.0.0) date 2026-08-18 16:39:22*
%MOMM*%
%LPD*%
G01*
G04 APERTURE LIST*
%ADD10C,0.150000*%
%ADD11C,0.114000*%
%ADD12C,0.100000*%
%TA.AperFunction,Profile*%
%ADD13C,0.050000*%
%TD*%
G04 APERTURE END LIST*
D10*
X160286904Y-98256133D02*
X160239285Y-98303752D01*
X160239285Y-98303752D02*
X160144047Y-98351371D01*
X160144047Y-98351371D02*
X159953571Y-98256133D01*
X159953571Y-98256133D02*
X159858333Y-98303752D01*
X159858333Y-98303752D02*
X159810714Y-98351371D01*
X160786904Y-100145180D02*
X160786904Y-99335657D01*
X160786904Y-99335657D02*
X160739285Y-99240419D01*
X160739285Y-99240419D02*
X160691666Y-99192800D01*
X160691666Y-99192800D02*
X160596428Y-99145180D01*
X160596428Y-99145180D02*
X160405952Y-99145180D01*
X160405952Y-99145180D02*
X160310714Y-99192800D01*
X160310714Y-99192800D02*
X160263095Y-99240419D01*
X160263095Y-99240419D02*
X160215476Y-99335657D01*
X160215476Y-99335657D02*
X160215476Y-100145180D01*
X159310714Y-99811847D02*
X159310714Y-99145180D01*
X159548809Y-100192800D02*
X159786904Y-99478514D01*
X159786904Y-99478514D02*
X159167857Y-99478514D01*
X161179819Y-119183333D02*
X161894104Y-119183333D01*
X161894104Y-119183333D02*
X162036961Y-119230952D01*
X162036961Y-119230952D02*
X162132200Y-119326190D01*
X162132200Y-119326190D02*
X162179819Y-119469047D01*
X162179819Y-119469047D02*
X162179819Y-119564285D01*
X161179819Y-118802380D02*
X161179819Y-118183333D01*
X161179819Y-118183333D02*
X161560771Y-118516666D01*
X161560771Y-118516666D02*
X161560771Y-118373809D01*
X161560771Y-118373809D02*
X161608390Y-118278571D01*
X161608390Y-118278571D02*
X161656009Y-118230952D01*
X161656009Y-118230952D02*
X161751247Y-118183333D01*
X161751247Y-118183333D02*
X161989342Y-118183333D01*
X161989342Y-118183333D02*
X162084580Y-118230952D01*
X162084580Y-118230952D02*
X162132200Y-118278571D01*
X162132200Y-118278571D02*
X162179819Y-118373809D01*
X162179819Y-118373809D02*
X162179819Y-118659523D01*
X162179819Y-118659523D02*
X162132200Y-118754761D01*
X162132200Y-118754761D02*
X162084580Y-118802380D01*
X158494580Y-117644524D02*
X158542200Y-117692143D01*
X158542200Y-117692143D02*
X158589819Y-117835000D01*
X158589819Y-117835000D02*
X158589819Y-117930238D01*
X158589819Y-117930238D02*
X158542200Y-118073095D01*
X158542200Y-118073095D02*
X158446961Y-118168333D01*
X158446961Y-118168333D02*
X158351723Y-118215952D01*
X158351723Y-118215952D02*
X158161247Y-118263571D01*
X158161247Y-118263571D02*
X158018390Y-118263571D01*
X158018390Y-118263571D02*
X157827914Y-118215952D01*
X157827914Y-118215952D02*
X157732676Y-118168333D01*
X157732676Y-118168333D02*
X157637438Y-118073095D01*
X157637438Y-118073095D02*
X157589819Y-117930238D01*
X157589819Y-117930238D02*
X157589819Y-117835000D01*
X157589819Y-117835000D02*
X157637438Y-117692143D01*
X157637438Y-117692143D02*
X157685057Y-117644524D01*
X158589819Y-117073095D02*
X158542200Y-117168333D01*
X158542200Y-117168333D02*
X158494580Y-117215952D01*
X158494580Y-117215952D02*
X158399342Y-117263571D01*
X158399342Y-117263571D02*
X158113628Y-117263571D01*
X158113628Y-117263571D02*
X158018390Y-117215952D01*
X158018390Y-117215952D02*
X157970771Y-117168333D01*
X157970771Y-117168333D02*
X157923152Y-117073095D01*
X157923152Y-117073095D02*
X157923152Y-116930238D01*
X157923152Y-116930238D02*
X157970771Y-116835000D01*
X157970771Y-116835000D02*
X158018390Y-116787381D01*
X158018390Y-116787381D02*
X158113628Y-116739762D01*
X158113628Y-116739762D02*
X158399342Y-116739762D01*
X158399342Y-116739762D02*
X158494580Y-116787381D01*
X158494580Y-116787381D02*
X158542200Y-116835000D01*
X158542200Y-116835000D02*
X158589819Y-116930238D01*
X158589819Y-116930238D02*
X158589819Y-117073095D01*
X157923152Y-116311190D02*
X158589819Y-116311190D01*
X158018390Y-116311190D02*
X157970771Y-116263571D01*
X157970771Y-116263571D02*
X157923152Y-116168333D01*
X157923152Y-116168333D02*
X157923152Y-116025476D01*
X157923152Y-116025476D02*
X157970771Y-115930238D01*
X157970771Y-115930238D02*
X158066009Y-115882619D01*
X158066009Y-115882619D02*
X158589819Y-115882619D01*
X157923152Y-115406428D02*
X158589819Y-115406428D01*
X158018390Y-115406428D02*
X157970771Y-115358809D01*
X157970771Y-115358809D02*
X157923152Y-115263571D01*
X157923152Y-115263571D02*
X157923152Y-115120714D01*
X157923152Y-115120714D02*
X157970771Y-115025476D01*
X157970771Y-115025476D02*
X158066009Y-114977857D01*
X158066009Y-114977857D02*
X158589819Y-114977857D01*
X158685057Y-114739762D02*
X158685057Y-113977857D01*
X157589819Y-113549285D02*
X157589819Y-113454047D01*
X157589819Y-113454047D02*
X157637438Y-113358809D01*
X157637438Y-113358809D02*
X157685057Y-113311190D01*
X157685057Y-113311190D02*
X157780295Y-113263571D01*
X157780295Y-113263571D02*
X157970771Y-113215952D01*
X157970771Y-113215952D02*
X158208866Y-113215952D01*
X158208866Y-113215952D02*
X158399342Y-113263571D01*
X158399342Y-113263571D02*
X158494580Y-113311190D01*
X158494580Y-113311190D02*
X158542200Y-113358809D01*
X158542200Y-113358809D02*
X158589819Y-113454047D01*
X158589819Y-113454047D02*
X158589819Y-113549285D01*
X158589819Y-113549285D02*
X158542200Y-113644523D01*
X158542200Y-113644523D02*
X158494580Y-113692142D01*
X158494580Y-113692142D02*
X158399342Y-113739761D01*
X158399342Y-113739761D02*
X158208866Y-113787380D01*
X158208866Y-113787380D02*
X157970771Y-113787380D01*
X157970771Y-113787380D02*
X157780295Y-113739761D01*
X157780295Y-113739761D02*
X157685057Y-113692142D01*
X157685057Y-113692142D02*
X157637438Y-113644523D01*
X157637438Y-113644523D02*
X157589819Y-113549285D01*
X158589819Y-112263571D02*
X158589819Y-112834999D01*
X158589819Y-112549285D02*
X157589819Y-112549285D01*
X157589819Y-112549285D02*
X157732676Y-112644523D01*
X157732676Y-112644523D02*
X157827914Y-112739761D01*
X157827914Y-112739761D02*
X157875533Y-112834999D01*
X158589819Y-111930237D02*
X157923152Y-111406428D01*
X157923152Y-111930237D02*
X158589819Y-111406428D01*
X158589819Y-110501666D02*
X158589819Y-111073094D01*
X158589819Y-110787380D02*
X157589819Y-110787380D01*
X157589819Y-110787380D02*
X157732676Y-110882618D01*
X157732676Y-110882618D02*
X157827914Y-110977856D01*
X157827914Y-110977856D02*
X157875533Y-111073094D01*
X157685057Y-110120713D02*
X157637438Y-110073094D01*
X157637438Y-110073094D02*
X157589819Y-109977856D01*
X157589819Y-109977856D02*
X157589819Y-109739761D01*
X157589819Y-109739761D02*
X157637438Y-109644523D01*
X157637438Y-109644523D02*
X157685057Y-109596904D01*
X157685057Y-109596904D02*
X157780295Y-109549285D01*
X157780295Y-109549285D02*
X157875533Y-109549285D01*
X157875533Y-109549285D02*
X158018390Y-109596904D01*
X158018390Y-109596904D02*
X158589819Y-110168332D01*
X158589819Y-110168332D02*
X158589819Y-109549285D01*
X158685057Y-109358809D02*
X158685057Y-108596904D01*
X158589819Y-108358808D02*
X157589819Y-108358808D01*
X157589819Y-108358808D02*
X157589819Y-107977856D01*
X157589819Y-107977856D02*
X157637438Y-107882618D01*
X157637438Y-107882618D02*
X157685057Y-107834999D01*
X157685057Y-107834999D02*
X157780295Y-107787380D01*
X157780295Y-107787380D02*
X157923152Y-107787380D01*
X157923152Y-107787380D02*
X158018390Y-107834999D01*
X158018390Y-107834999D02*
X158066009Y-107882618D01*
X158066009Y-107882618D02*
X158113628Y-107977856D01*
X158113628Y-107977856D02*
X158113628Y-108358808D01*
X158589819Y-107358808D02*
X157923152Y-107358808D01*
X157589819Y-107358808D02*
X157637438Y-107406427D01*
X157637438Y-107406427D02*
X157685057Y-107358808D01*
X157685057Y-107358808D02*
X157637438Y-107311189D01*
X157637438Y-107311189D02*
X157589819Y-107358808D01*
X157589819Y-107358808D02*
X157685057Y-107358808D01*
X157923152Y-106882618D02*
X158589819Y-106882618D01*
X158018390Y-106882618D02*
X157970771Y-106834999D01*
X157970771Y-106834999D02*
X157923152Y-106739761D01*
X157923152Y-106739761D02*
X157923152Y-106596904D01*
X157923152Y-106596904D02*
X157970771Y-106501666D01*
X157970771Y-106501666D02*
X158066009Y-106454047D01*
X158066009Y-106454047D02*
X158589819Y-106454047D01*
D11*
X150771666Y-111920662D02*
X150771666Y-112463519D01*
X150771666Y-112463519D02*
X150735475Y-112572091D01*
X150735475Y-112572091D02*
X150663094Y-112644472D01*
X150663094Y-112644472D02*
X150554523Y-112680662D01*
X150554523Y-112680662D02*
X150482142Y-112680662D01*
X151531666Y-112680662D02*
X151097380Y-112680662D01*
X151314523Y-112680662D02*
X151314523Y-111920662D01*
X151314523Y-111920662D02*
X151242142Y-112029233D01*
X151242142Y-112029233D02*
X151169761Y-112101614D01*
X151169761Y-112101614D02*
X151097380Y-112137805D01*
D10*
X139729819Y-119183333D02*
X140444104Y-119183333D01*
X140444104Y-119183333D02*
X140586961Y-119230952D01*
X140586961Y-119230952D02*
X140682200Y-119326190D01*
X140682200Y-119326190D02*
X140729819Y-119469047D01*
X140729819Y-119469047D02*
X140729819Y-119564285D01*
X140063152Y-118278571D02*
X140729819Y-118278571D01*
X139682200Y-118516666D02*
X140396485Y-118754761D01*
X140396485Y-118754761D02*
X140396485Y-118135714D01*
%TO.C,J3*%
D12*
X160455000Y-118215000D02*
X161090000Y-117580000D01*
X160455000Y-120120000D02*
X160455000Y-118215000D01*
X161090000Y-117580000D02*
X162995000Y-117580000D01*
X162995000Y-117580000D02*
X162995000Y-120120000D01*
X162995000Y-120120000D02*
X160455000Y-120120000D01*
%TO.C,J1*%
X145025000Y-111700000D02*
X157025000Y-111700000D01*
X145025000Y-112652500D02*
X145025000Y-111700000D01*
X145342500Y-112970000D02*
X145025000Y-112652500D01*
X157025000Y-111700000D02*
X157025000Y-112970000D01*
X157025000Y-112970000D02*
X145342500Y-112970000D01*
%TO.C,J4*%
X139005000Y-118215000D02*
X139640000Y-117580000D01*
X139005000Y-120120000D02*
X139005000Y-118215000D01*
X139640000Y-117580000D02*
X141545000Y-117580000D01*
X141545000Y-117580000D02*
X141545000Y-120120000D01*
X141545000Y-120120000D02*
X139005000Y-120120000D01*
%TD*%
D13*
X138539942Y-86740002D02*
X138500000Y-119500000D01*
X138539942Y-86740002D02*
G75*
G02*
X140539942Y-84740042I1999958J2D01*
G01*
X140500000Y-121500000D02*
G75*
G02*
X138500000Y-119500000I0J2000000D01*
G01*
X140500000Y-121500000D02*
X161500000Y-121500000D01*
X140539942Y-84740002D02*
X161539942Y-84740002D01*
X145039942Y-86750000D02*
G75*
G02*
X142039942Y-86750000I-1500000J0D01*
G01*
X142039942Y-86750000D02*
G75*
G02*
X145039942Y-86750000I1500000J0D01*
G01*
X145039942Y-107750000D02*
G75*
G02*
X142039942Y-107750000I-1500000J0D01*
G01*
X142039942Y-107750000D02*
G75*
G02*
X145039942Y-107750000I1500000J0D01*
G01*
X160050000Y-86750000D02*
G75*
G02*
X157050000Y-86750000I-1500000J0D01*
G01*
X157050000Y-86750000D02*
G75*
G02*
X160050000Y-86750000I1500000J0D01*
G01*
X160050000Y-107750000D02*
G75*
G02*
X157050000Y-107750000I-1500000J0D01*
G01*
X157050000Y-107750000D02*
G75*
G02*
X160050000Y-107750000I1500000J0D01*
G01*
X161539942Y-84740002D02*
G75*
G02*
X163550023Y-86740001I10058J-1999998D01*
G01*
X163500000Y-119500000D02*
G75*
G02*
X161500000Y-121500000I-2000000J0D01*
G01*
X163550000Y-86740001D02*
X163500000Y-119500000D01*
M02*
