%TF.GenerationSoftware,KiCad,Pcbnew,9.0.6*%
%TF.CreationDate,2026-01-10T10:45:27-05:00*%
%TF.ProjectId,sensor_head_v2,73656e73-6f72-45f6-9865-61645f76322e,rev?*%
%TF.SameCoordinates,Original*%
%TF.FileFunction,Copper,L1,Top*%
%TF.FilePolarity,Positive*%
%FSLAX46Y46*%
G04 Gerber Fmt 4.6, Leading zero omitted, Abs format (unit mm)*
G04 Created by KiCad (PCBNEW 9.0.6) date 2026-01-10 10:45:27*
%MOMM*%
%LPD*%
G01*
G04 APERTURE LIST*
G04 Aperture macros list*
%AMRoundRect*
0 Rectangle with rounded corners*
0 $1 Rounding radius*
0 $2 $3 $4 $5 $6 $7 $8 $9 X,Y pos of 4 corners*
0 Add a 4 corners polygon primitive as box body*
4,1,4,$2,$3,$4,$5,$6,$7,$8,$9,$2,$3,0*
0 Add four circle primitives for the rounded corners*
1,1,$1+$1,$2,$3*
1,1,$1+$1,$4,$5*
1,1,$1+$1,$6,$7*
1,1,$1+$1,$8,$9*
0 Add four rect primitives between the rounded corners*
20,1,$1+$1,$2,$3,$4,$5,0*
20,1,$1+$1,$4,$5,$6,$7,0*
20,1,$1+$1,$6,$7,$8,$9,0*
20,1,$1+$1,$8,$9,$2,$3,0*%
%AMFreePoly0*
4,1,23,0.500000,-0.750000,0.000000,-0.750000,0.000000,-0.745722,-0.065263,-0.745722,-0.191342,-0.711940,-0.304381,-0.646677,-0.396677,-0.554381,-0.461940,-0.441342,-0.495722,-0.315263,-0.495722,-0.250000,-0.500000,-0.250000,-0.500000,0.250000,-0.495722,0.250000,-0.495722,0.315263,-0.461940,0.441342,-0.396677,0.554381,-0.304381,0.646677,-0.191342,0.711940,-0.065263,0.745722,0.000000,0.745722,
0.000000,0.750000,0.500000,0.750000,0.500000,-0.750000,0.500000,-0.750000,$1*%
%AMFreePoly1*
4,1,23,0.000000,0.745722,0.065263,0.745722,0.191342,0.711940,0.304381,0.646677,0.396677,0.554381,0.461940,0.441342,0.495722,0.315263,0.495722,0.250000,0.500000,0.250000,0.500000,-0.250000,0.495722,-0.250000,0.495722,-0.315263,0.461940,-0.441342,0.396677,-0.554381,0.304381,-0.646677,0.191342,-0.711940,0.065263,-0.745722,0.000000,-0.745722,0.000000,-0.750000,-0.500000,-0.750000,
-0.500000,0.750000,0.000000,0.750000,0.000000,0.745722,0.000000,0.745722,$1*%
G04 Aperture macros list end*
%TA.AperFunction,SMDPad,CuDef*%
%ADD10FreePoly0,270.000000*%
%TD*%
%TA.AperFunction,SMDPad,CuDef*%
%ADD11FreePoly1,270.000000*%
%TD*%
%TA.AperFunction,ComponentPad*%
%ADD12R,1.700000X1.700000*%
%TD*%
%TA.AperFunction,ComponentPad*%
%ADD13C,1.700000*%
%TD*%
%TA.AperFunction,SMDPad,CuDef*%
%ADD14RoundRect,0.050000X-0.825000X-0.350000X0.825000X-0.350000X0.825000X0.350000X-0.825000X0.350000X0*%
%TD*%
%TA.AperFunction,SMDPad,CuDef*%
%ADD15RoundRect,0.050000X-0.350000X0.825000X-0.350000X-0.825000X0.350000X-0.825000X0.350000X0.825000X0*%
%TD*%
%TA.AperFunction,SMDPad,CuDef*%
%ADD16RoundRect,0.050000X0.350000X-0.825000X0.350000X0.825000X-0.350000X0.825000X-0.350000X-0.825000X0*%
%TD*%
%TA.AperFunction,SMDPad,CuDef*%
%ADD17R,0.400000X1.000000*%
%TD*%
%TA.AperFunction,SMDPad,CuDef*%
%ADD18R,2.000000X1.300000*%
%TD*%
%TA.AperFunction,SMDPad,CuDef*%
%ADD19R,0.350000X1.450000*%
%TD*%
%TA.AperFunction,Conductor*%
%ADD20C,0.200000*%
%TD*%
%TA.AperFunction,Profile*%
%ADD21C,0.050000*%
%TD*%
G04 APERTURE END LIST*
D10*
%TO.P,JP2,1,A*%
%TO.N,Net-(JP2-A)*%
X153750000Y-93350000D03*
D11*
%TO.P,JP2,2,B*%
%TO.N,Net-(J4-Pin_4)*%
X153750000Y-94650000D03*
%TD*%
D10*
%TO.P,JP1,1,A*%
%TO.N,Net-(JP1-A)*%
X156000000Y-93350000D03*
D11*
%TO.P,JP1,2,B*%
%TO.N,Net-(J4-Pin_4)*%
X156000000Y-94650000D03*
%TD*%
D12*
%TO.P,J4,1,Pin_1*%
%TO.N,Net-(J4-Pin_1)*%
X145260000Y-104390000D03*
D13*
%TO.P,J4,2,Pin_2*%
%TO.N,Net-(J4-Pin_2)*%
X145260000Y-106930000D03*
%TO.P,J4,3,Pin_3*%
%TO.N,Net-(J4-Pin_3)*%
X142720000Y-104390000D03*
%TO.P,J4,4,Pin_4*%
%TO.N,Net-(J4-Pin_4)*%
X142720000Y-106930000D03*
%TO.P,J4,5,Pin_5*%
%TO.N,Net-(J4-Pin_5)*%
X140180000Y-104390000D03*
%TO.P,J4,6,Pin_6*%
%TO.N,Net-(J4-Pin_6)*%
X140180000Y-106930000D03*
%TO.P,J4,7,Pin_7*%
%TO.N,Net-(J4-Pin_7)*%
X137640000Y-104390000D03*
%TO.P,J4,8,Pin_8*%
%TO.N,Net-(J4-Pin_8)*%
X137640000Y-106930000D03*
%TD*%
D14*
%TO.P,U1,10,NB*%
%TO.N,Net-(J4-Pin_7)*%
X148115000Y-79885000D03*
%TO.P,U1,9,B*%
%TO.N,Net-(J4-Pin_8)*%
X148115000Y-78615000D03*
D15*
%TO.P,U1,8,NA*%
%TO.N,Net-(J4-Pin_5)*%
X149970000Y-76625000D03*
%TO.P,U1,7,A*%
%TO.N,Net-(J4-Pin_6)*%
X151240000Y-76625000D03*
%TO.P,U1,6,VDD*%
%TO.N,Net-(J4-Pin_4)*%
X152510000Y-76625000D03*
D14*
%TO.P,U1,5,VDDA*%
%TO.N,Net-(JP1-A)*%
X154365000Y-78615000D03*
%TO.P,U1,4,VSS*%
%TO.N,Net-(J4-Pin_3)*%
X154365000Y-79885000D03*
D15*
%TO.P,U1,3,VDDD*%
%TO.N,unconnected-(U1-VDDD-Pad3)*%
X152510000Y-81875000D03*
%TO.P,U1,2,NI*%
%TO.N,Net-(J4-Pin_2)*%
X151240000Y-81875000D03*
D16*
%TO.P,U1,1,I*%
%TO.N,Net-(J4-Pin_1)*%
X149970000Y-81875000D03*
%TD*%
D12*
%TO.P,J3,1,Pin_1*%
%TO.N,Net-(J3-Pin_1)*%
X164420000Y-99430000D03*
D13*
%TO.P,J3,2,Pin_2*%
%TO.N,Net-(J3-Pin_2)*%
X164420000Y-101970000D03*
%TD*%
D17*
%TO.P,J1,1*%
%TO.N,Net-(U2-DO)*%
X151020000Y-103580000D03*
%TO.P,J1,2*%
%TO.N,Net-(U2-CLK)*%
X152020000Y-103580000D03*
%TO.P,J1,3*%
%TO.N,Net-(U2-~{CS})*%
X153020000Y-103580000D03*
%TO.P,J1,4*%
%TO.N,Net-(J4-Pin_4)*%
X154020000Y-103580000D03*
%TO.P,J1,5*%
%TO.N,Net-(J4-Pin_3)*%
X155020000Y-103580000D03*
%TO.P,J1,6*%
%TO.N,Net-(J4-Pin_6)*%
X156020000Y-103580000D03*
%TO.P,J1,7*%
%TO.N,Net-(J4-Pin_5)*%
X157020000Y-103580000D03*
%TO.P,J1,8*%
%TO.N,Net-(J4-Pin_8)*%
X158020000Y-103580000D03*
%TO.P,J1,9*%
%TO.N,Net-(J4-Pin_7)*%
X159020000Y-103580000D03*
%TO.P,J1,10*%
%TO.N,Net-(J3-Pin_1)*%
X160020000Y-103580000D03*
%TO.P,J1,11*%
%TO.N,Net-(J3-Pin_2)*%
X161020000Y-103580000D03*
%TO.P,J1,12*%
%TO.N,unconnected-(J1-Pad12)*%
X162020000Y-103580000D03*
D18*
%TO.P,J1,P1*%
%TO.N,unconnected-(J1-PadP1)*%
X148220010Y-106280000D03*
%TO.P,J1,P2*%
%TO.N,unconnected-(J1-PadP2)*%
X164819990Y-106280000D03*
%TD*%
D19*
%TO.P,U2,1*%
%TO.N,N/C*%
X154425000Y-85175000D03*
%TO.P,U2,2,MAG.INC*%
%TO.N,unconnected-(U2-MAG.INC-Pad2)*%
X153775000Y-85175000D03*
%TO.P,U2,3,MAG.DEC*%
%TO.N,unconnected-(U2-MAG.DEC-Pad3)*%
X153125000Y-85175000D03*
%TO.P,U2,4,A*%
%TO.N,unconnected-(U2-A-Pad4)*%
X152475000Y-85175000D03*
%TO.P,U2,5,B*%
%TO.N,unconnected-(U2-B-Pad5)*%
X151825000Y-85175000D03*
%TO.P,U2,6*%
%TO.N,N/C*%
X151175000Y-85175000D03*
%TO.P,U2,7,INDEX*%
%TO.N,unconnected-(U2-INDEX-Pad7)*%
X150525000Y-85175000D03*
%TO.P,U2,8,GND*%
%TO.N,Net-(J4-Pin_3)*%
X149875000Y-85175000D03*
%TO.P,U2,9,PROG*%
X149225000Y-85175000D03*
%TO.P,U2,10*%
%TO.N,N/C*%
X148575000Y-85175000D03*
%TO.P,U2,11*%
X148575000Y-90825000D03*
%TO.P,U2,12,DO*%
%TO.N,Net-(U2-DO)*%
X149225000Y-90825000D03*
%TO.P,U2,13,CLK*%
%TO.N,Net-(U2-CLK)*%
X149875000Y-90825000D03*
%TO.P,U2,14,~{CS}*%
%TO.N,Net-(U2-~{CS})*%
X150525000Y-90825000D03*
%TO.P,U2,15,PWM*%
%TO.N,unconnected-(U2-PWM-Pad15)*%
X151175000Y-90825000D03*
%TO.P,U2,16*%
%TO.N,N/C*%
X151825000Y-90825000D03*
%TO.P,U2,17*%
X152475000Y-90825000D03*
%TO.P,U2,18,3.3V*%
%TO.N,Net-(JP2-A)*%
X153125000Y-90825000D03*
%TO.P,U2,19,5V*%
X153775000Y-90825000D03*
%TO.P,U2,20*%
%TO.N,N/C*%
X154425000Y-90825000D03*
%TD*%
D20*
%TO.N,Net-(J4-Pin_8)*%
X158020000Y-104372000D02*
X158020000Y-104070000D01*
X137640000Y-108540000D02*
X138785000Y-109685000D01*
X138785000Y-109685000D02*
X152707000Y-109685000D01*
X137640000Y-106930000D02*
X137640000Y-108540000D01*
X152707000Y-109685000D02*
X158020000Y-104372000D01*
%TO.N,Net-(JP1-A)*%
X156000000Y-93350000D02*
X156000000Y-79205000D01*
X156000000Y-79205000D02*
X155410000Y-78615000D01*
%TO.N,Net-(J4-Pin_4)*%
X152909000Y-75211000D02*
X152510000Y-75610000D01*
X158149000Y-75840000D02*
X157520000Y-75211000D01*
X152510000Y-75610000D02*
X152510000Y-76625000D01*
X156000000Y-98059000D02*
X158149000Y-95910000D01*
X158149000Y-95910000D02*
X158149000Y-75840000D01*
X157520000Y-75211000D02*
X152909000Y-75211000D01*
X156000000Y-98059000D02*
X154020000Y-100039000D01*
X156000000Y-94650000D02*
X156000000Y-98059000D01*
X153750000Y-94650000D02*
X153750000Y-99769000D01*
X153750000Y-99769000D02*
X154020000Y-100039000D01*
%TO.N,Net-(JP2-A)*%
X153775000Y-93325000D02*
X153750000Y-93350000D01*
X153775000Y-90825000D02*
X153775000Y-93325000D01*
%TO.N,Net-(J4-Pin_4)*%
X154020000Y-100039000D02*
X154020000Y-103580000D01*
%TO.N,Net-(JP1-A)*%
X154365000Y-78615000D02*
X155410000Y-78615000D01*
%TO.N,Net-(J4-Pin_4)*%
X156380000Y-94910000D02*
X156450000Y-94840000D01*
%TO.N,Net-(JP2-A)*%
X153775000Y-93605000D02*
X153780000Y-93610000D01*
%TO.N,Net-(J4-Pin_7)*%
X136489000Y-107956100D02*
X136489000Y-105541000D01*
X136489000Y-105541000D02*
X137640000Y-104390000D01*
X138618900Y-110086000D02*
X136489000Y-107956100D01*
X159020000Y-104370000D02*
X153304000Y-110086000D01*
X159020000Y-103580000D02*
X159020000Y-104370000D01*
X153304000Y-110086000D02*
X138618900Y-110086000D01*
%TO.N,Net-(J4-Pin_6)*%
X156020000Y-104070000D02*
X156020000Y-104372000D01*
%TO.N,Net-(JP2-A)*%
X153125000Y-90825000D02*
X153775000Y-90825000D01*
%TO.N,Net-(J4-Pin_3)*%
X149875000Y-85175000D02*
X149225000Y-85175000D01*
X149875000Y-84250000D02*
X149875000Y-85175000D01*
X152493887Y-83563887D02*
X150561113Y-83563887D01*
X150561113Y-83563887D02*
X149875000Y-84250000D01*
%TO.N,Net-(J4-Pin_2)*%
X150840000Y-83150000D02*
X151240000Y-82750000D01*
X146990000Y-84360000D02*
X148200000Y-83150000D01*
X146990000Y-105200000D02*
X146990000Y-84360000D01*
X148200000Y-83150000D02*
X150840000Y-83150000D01*
X151240000Y-82750000D02*
X151240000Y-81875000D01*
%TO.N,Net-(J4-Pin_3)*%
X154365000Y-81692774D02*
X152493887Y-83563887D01*
X154365000Y-79885000D02*
X154365000Y-81692774D01*
X143669000Y-86003774D02*
X149787774Y-79885000D01*
X143669000Y-95990000D02*
X143669000Y-86003774D01*
X149787774Y-79885000D02*
X154365000Y-79885000D01*
%TO.N,Net-(J4-Pin_1)*%
X149970000Y-81875000D02*
X148725000Y-81875000D01*
X148725000Y-81875000D02*
X145260000Y-85340000D01*
%TO.N,Net-(J4-Pin_8)*%
X145411000Y-78161000D02*
X145865000Y-78615000D01*
X145411000Y-75879000D02*
X145411000Y-78161000D01*
X145865000Y-78615000D02*
X148115000Y-78615000D01*
X147288000Y-74002000D02*
X145411000Y-75879000D01*
X158296200Y-74002000D02*
X147288000Y-74002000D01*
X159401000Y-75106800D02*
X158296200Y-74002000D01*
X159401000Y-98129000D02*
X159401000Y-75106800D01*
X158020000Y-99510000D02*
X159401000Y-98129000D01*
X158020000Y-103580000D02*
X158020000Y-99510000D01*
%TO.N,Net-(J4-Pin_7)*%
X159020000Y-99710000D02*
X159020000Y-103580000D01*
X159802000Y-74912000D02*
X159802000Y-98928000D01*
X159802000Y-98928000D02*
X159020000Y-99710000D01*
X147019000Y-73601000D02*
X158491000Y-73601000D01*
X158491000Y-73601000D02*
X159802000Y-74912000D01*
X145010000Y-75610000D02*
X147019000Y-73601000D01*
X145010000Y-79130000D02*
X145010000Y-75610000D01*
X145765000Y-79885000D02*
X145010000Y-79130000D01*
X148115000Y-79885000D02*
X145765000Y-79885000D01*
%TO.N,Net-(J4-Pin_5)*%
X159000000Y-97580000D02*
X157020000Y-99560000D01*
X158130100Y-74403000D02*
X159000000Y-75272900D01*
X159000000Y-75272900D02*
X159000000Y-97580000D01*
X157020000Y-99560000D02*
X157020000Y-103580000D01*
X150597000Y-74403000D02*
X158130100Y-74403000D01*
X149970000Y-75030000D02*
X150597000Y-74403000D01*
X149970000Y-76625000D02*
X149970000Y-75030000D01*
%TO.N,Net-(J4-Pin_6)*%
X156020000Y-99510000D02*
X156020000Y-103580000D01*
X158550000Y-96980000D02*
X156020000Y-99510000D01*
X158550000Y-75390000D02*
X158550000Y-96980000D01*
X151700000Y-74810000D02*
X157970000Y-74810000D01*
X151240000Y-75270000D02*
X151700000Y-74810000D01*
X157970000Y-74810000D02*
X158550000Y-75390000D01*
X151240000Y-76625000D02*
X151240000Y-75270000D01*
%TO.N,Net-(J3-Pin_1)*%
X160020000Y-104790000D02*
X160306000Y-105076000D01*
X160020000Y-104070000D02*
X160020000Y-104790000D01*
X160306000Y-105076000D02*
X165154000Y-105076000D01*
X165949000Y-99739000D02*
X165640000Y-99430000D01*
X165949000Y-104281000D02*
X165949000Y-99739000D01*
X165640000Y-99430000D02*
X164420000Y-99430000D01*
X165154000Y-105076000D02*
X165949000Y-104281000D01*
%TO.N,Net-(J3-Pin_2)*%
X161325000Y-104675000D02*
X164015000Y-104675000D01*
X164420000Y-104270000D02*
X164420000Y-101970000D01*
X164015000Y-104675000D02*
X164420000Y-104270000D01*
X161020000Y-104370000D02*
X161325000Y-104675000D01*
X161020000Y-104070000D02*
X161020000Y-104370000D01*
%TO.N,Net-(U2-CLK)*%
X152020000Y-103337100D02*
X149875000Y-101192100D01*
X152020000Y-103580000D02*
X152020000Y-103337100D01*
X149875000Y-101160000D02*
X149875000Y-90825000D01*
X149875000Y-101192100D02*
X149875000Y-101160000D01*
X149882000Y-101167000D02*
X149875000Y-101160000D01*
%TO.N,Net-(U2-~{CS})*%
X150525000Y-90825000D02*
X150525000Y-100785000D01*
X153020000Y-103280000D02*
X153020000Y-103580000D01*
X150525000Y-100785000D02*
X153020000Y-103280000D01*
%TO.N,Net-(U2-DO)*%
X151020000Y-103580000D02*
X149225000Y-101785000D01*
X149225000Y-90825000D02*
X149225000Y-101785000D01*
%TO.N,Net-(J4-Pin_3)*%
X143669000Y-95691000D02*
X143669000Y-95990000D01*
X143669000Y-95691000D02*
X143680000Y-95680000D01*
X155020000Y-103580000D02*
X155020000Y-103882000D01*
%TO.N,Net-(J4-Pin_4)*%
X154020000Y-103580000D02*
X154020000Y-103880000D01*
%TO.N,Net-(J4-Pin_6)*%
X156020000Y-104372000D02*
X151509000Y-108883000D01*
%TO.N,Net-(J4-Pin_3)*%
X155020000Y-103882000D02*
X150420000Y-108482000D01*
%TO.N,Net-(J4-Pin_4)*%
X154020000Y-103880000D02*
X149819000Y-108081000D01*
%TO.N,Net-(J4-Pin_2)*%
X145561000Y-107231000D02*
X145260000Y-106930000D01*
%TO.N,Net-(J4-Pin_3)*%
X142720000Y-104957100D02*
X142720000Y-104390000D01*
%TO.N,Net-(J4-Pin_4)*%
X149819000Y-108081000D02*
X143871000Y-108081000D01*
%TO.N,Net-(J4-Pin_3)*%
X142720000Y-104390000D02*
X143669000Y-103441000D01*
X141569000Y-105541000D02*
X142720000Y-104390000D01*
X142644240Y-108482000D02*
X141569000Y-107406760D01*
X150420000Y-108482000D02*
X142644240Y-108482000D01*
%TO.N,Net-(J4-Pin_1)*%
X145260000Y-85340000D02*
X145260000Y-104390000D01*
%TO.N,Net-(J4-Pin_3)*%
X141569000Y-107406760D02*
X141569000Y-105541000D01*
%TO.N,Net-(J4-Pin_6)*%
X151509000Y-108883000D02*
X140743000Y-108883000D01*
%TO.N,Net-(J4-Pin_4)*%
X143871000Y-108081000D02*
X142720000Y-106930000D01*
%TO.N,Net-(J4-Pin_3)*%
X143669000Y-103441000D02*
X143669000Y-95990000D01*
%TO.N,Net-(J4-Pin_6)*%
X140180000Y-108320000D02*
X140180000Y-106930000D01*
%TO.N,Net-(J4-Pin_2)*%
X145260000Y-106930000D02*
X146990000Y-105200000D01*
%TO.N,Net-(J4-Pin_6)*%
X140743000Y-108883000D02*
X140180000Y-108320000D01*
%TO.N,Net-(J4-Pin_5)*%
X139029000Y-105541000D02*
X140180000Y-104390000D01*
X157020000Y-104070000D02*
X157020000Y-104370000D01*
X157020000Y-104370000D02*
X152106000Y-109284000D01*
X152106000Y-109284000D02*
X140576900Y-109284000D01*
X139029000Y-107736100D02*
X139029000Y-105541000D01*
X140576900Y-109284000D02*
X139029000Y-107736100D01*
%TD*%
D21*
X137000000Y-111000000D02*
G75*
G02*
X135000000Y-109000000I0J2000000D01*
G01*
X137000000Y-111000000D02*
X164550000Y-111000000D01*
X164550000Y-73000000D02*
G75*
G02*
X166550000Y-75000000I0J-2000000D01*
G01*
X138500000Y-95000000D02*
G75*
G02*
X135500000Y-95000000I-1500000J0D01*
G01*
X135500000Y-95000000D02*
G75*
G02*
X138500000Y-95000000I1500000J0D01*
G01*
X135000000Y-75000000D02*
G75*
G02*
X137000000Y-73000000I2000000J0D01*
G01*
X137000000Y-73000000D02*
X164550000Y-73000000D01*
X166050000Y-95000000D02*
G75*
G02*
X163050000Y-95000000I-1500000J0D01*
G01*
X163050000Y-95000000D02*
G75*
G02*
X166050000Y-95000000I1500000J0D01*
G01*
X138500000Y-75000000D02*
G75*
G02*
X135500000Y-75000000I-1500000J0D01*
G01*
X135500000Y-75000000D02*
G75*
G02*
X138500000Y-75000000I1500000J0D01*
G01*
X135000000Y-75000000D02*
X135000000Y-109000000D01*
X166550000Y-109000000D02*
G75*
G02*
X164550000Y-111000000I-2000000J0D01*
G01*
X166550000Y-109000000D02*
X166550000Y-75000000D01*
X166050000Y-75000000D02*
G75*
G02*
X163050000Y-75000000I-1500000J0D01*
G01*
X163050000Y-75000000D02*
G75*
G02*
X166050000Y-75000000I1500000J0D01*
G01*
M02*
