%TF.GenerationSoftware,KiCad,Pcbnew,10.0.0*%
%TF.CreationDate,2026-08-18T16:39:21-04:00*%
%TF.ProjectId,sensor_head_v4,73656e73-6f72-45f6-9865-61645f76342e,rev?*%
%TF.SameCoordinates,Original*%
%TF.FileFunction,Soldermask,Top*%
%TF.FilePolarity,Negative*%
%FSLAX46Y46*%
G04 Gerber Fmt 4.6, Leading zero omitted, Abs format (unit mm)*
G04 Created by KiCad (PCBNEW 10.0.0) date 2026-08-18 16:39:21*
%MOMM*%
%LPD*%
G01*
G04 APERTURE LIST*
G04 Aperture macros list*
%AMRoundRect*
0 Rectangle with rounded corners*
0 $1 Rounding radius*
0 $2 $3 $4 $5 $6 $7 $8 $9 X,Y pos of 4 corners*
0 Add a 4 corners polygon primitive as box body*
4,1,4,$2,$3,$4,$5,$6,$7,$8,$9,$2,$3,0*
0 Add four circle primitives for the rounded corners*
1,1,$1+$1,$2,$3*
1,1,$1+$1,$4,$5*
1,1,$1+$1,$6,$7*
1,1,$1+$1,$8,$9*
0 Add four rect primitives between the rounded corners*
20,1,$1+$1,$2,$3,$4,$5,0*
20,1,$1+$1,$4,$5,$6,$7,0*
20,1,$1+$1,$6,$7,$8,$9,0*
20,1,$1+$1,$8,$9,$2,$3,0*%
%AMFreePoly0*
4,1,23,0.500000,-0.750000,0.000000,-0.750000,0.000000,-0.745722,-0.065263,-0.745722,-0.191342,-0.711940,-0.304381,-0.646677,-0.396677,-0.554381,-0.461940,-0.441342,-0.495722,-0.315263,-0.495722,-0.250000,-0.500000,-0.250000,-0.500000,0.250000,-0.495722,0.250000,-0.495722,0.315263,-0.461940,0.441342,-0.396677,0.554381,-0.304381,0.646677,-0.191342,0.711940,-0.065263,0.745722,0.000000,0.745722,
0.000000,0.750000,0.500000,0.750000,0.500000,-0.750000,0.500000,-0.750000,$1*%
%AMFreePoly1*
4,1,23,0.000000,0.745722,0.065263,0.745722,0.191342,0.711940,0.304381,0.646677,0.396677,0.554381,0.461940,0.441342,0.495722,0.315263,0.495722,0.250000,0.500000,0.250000,0.500000,-0.250000,0.495722,-0.250000,0.495722,-0.315263,0.461940,-0.441342,0.396677,-0.554381,0.304381,-0.646677,0.191342,-0.711940,0.065263,-0.745722,0.000000,-0.745722,0.000000,-0.750000,-0.500000,-0.750000,
-0.500000,0.750000,0.000000,0.750000,0.000000,0.745722,0.000000,0.745722,$1*%
G04 Aperture macros list end*
%ADD10FreePoly0,270.000000*%
%ADD11FreePoly1,270.000000*%
%ADD12RoundRect,0.050000X0.825000X0.350000X-0.825000X0.350000X-0.825000X-0.350000X0.825000X-0.350000X0*%
%ADD13RoundRect,0.050000X-0.825000X-0.350000X0.825000X-0.350000X0.825000X0.350000X-0.825000X0.350000X0*%
%ADD14RoundRect,0.050000X0.350000X-0.825000X0.350000X0.825000X-0.350000X0.825000X-0.350000X-0.825000X0*%
%ADD15RoundRect,0.102000X0.725000X-0.175000X0.725000X0.175000X-0.725000X0.175000X-0.725000X-0.175000X0*%
%ADD16R,1.700000X1.700000*%
%ADD17R,0.850000X0.850000*%
%ADD18C,0.850000*%
%ADD19FreePoly0,180.000000*%
%ADD20FreePoly1,180.000000*%
%TA.AperFunction,Profile*%
%ADD21C,0.050000*%
%TD*%
G04 APERTURE END LIST*
%TO.C,JP4*%
G36*
X149350000Y-96800000D02*
G01*
X150850000Y-96800000D01*
X150850000Y-97100000D01*
X149350000Y-97100000D01*
X149350000Y-96800000D01*
G37*
%TO.C,JP3*%
G36*
X145050000Y-96850000D02*
G01*
X145350000Y-96850000D01*
X145350000Y-98350000D01*
X145050000Y-98350000D01*
X145050000Y-96850000D01*
G37*
%TD*%
D10*
%TO.C,JP4*%
X150100000Y-96300000D03*
D11*
X150100000Y-97600000D03*
%TD*%
D12*
%TO.C,U4*%
X159150000Y-94520000D03*
D13*
X159150000Y-93250000D03*
X159150000Y-91980000D03*
D14*
X157160000Y-90125000D03*
X155890000Y-90125000D03*
D13*
X153900000Y-91980000D03*
X153900000Y-93250000D03*
X153900000Y-94520000D03*
D14*
X155890000Y-96375000D03*
X157160000Y-96375000D03*
%TD*%
D15*
%TO.C,U3*%
X146775000Y-95675000D03*
X146775000Y-95025000D03*
X146775000Y-94375000D03*
X146775000Y-93725000D03*
X146775000Y-93075000D03*
X146775000Y-92425000D03*
X146775000Y-91775000D03*
X146775000Y-91125000D03*
X146775000Y-90475000D03*
X146775000Y-89825000D03*
X141125000Y-89825000D03*
X141125000Y-90475000D03*
X141125000Y-91125000D03*
X141125000Y-91775000D03*
X141125000Y-92425000D03*
X141125000Y-93075000D03*
X141125000Y-93725000D03*
X141125000Y-94375000D03*
X141125000Y-95025000D03*
X141125000Y-95675000D03*
%TD*%
D16*
%TO.C,J3*%
X161725000Y-118850000D03*
%TD*%
D17*
%TO.C,J1*%
X145525000Y-112335000D03*
D18*
X146525000Y-112335000D03*
X147525000Y-112335000D03*
X148525000Y-112335000D03*
X149525000Y-112335000D03*
X150525000Y-112335000D03*
X151525000Y-112335000D03*
X152525000Y-112335000D03*
X153525000Y-112335000D03*
X154525000Y-112335000D03*
X155525000Y-112335000D03*
X156525000Y-112335000D03*
%TD*%
D16*
%TO.C,J4*%
X140275000Y-118850000D03*
%TD*%
D19*
%TO.C,JP3*%
X145850000Y-97600000D03*
D20*
X144550000Y-97600000D03*
%TD*%
D21*
X138539942Y-86740002D02*
X138500000Y-119500000D01*
X138539942Y-86740002D02*
G75*
G02*
X140539942Y-84740042I1999958J2D01*
G01*
X140500000Y-121500000D02*
G75*
G02*
X138500000Y-119500000I0J2000000D01*
G01*
X140500000Y-121500000D02*
X161500000Y-121500000D01*
X140539942Y-84740002D02*
X161539942Y-84740002D01*
X145039942Y-86750000D02*
G75*
G02*
X142039942Y-86750000I-1500000J0D01*
G01*
X142039942Y-86750000D02*
G75*
G02*
X145039942Y-86750000I1500000J0D01*
G01*
X145039942Y-107750000D02*
G75*
G02*
X142039942Y-107750000I-1500000J0D01*
G01*
X142039942Y-107750000D02*
G75*
G02*
X145039942Y-107750000I1500000J0D01*
G01*
X160050000Y-86750000D02*
G75*
G02*
X157050000Y-86750000I-1500000J0D01*
G01*
X157050000Y-86750000D02*
G75*
G02*
X160050000Y-86750000I1500000J0D01*
G01*
X160050000Y-107750000D02*
G75*
G02*
X157050000Y-107750000I-1500000J0D01*
G01*
X157050000Y-107750000D02*
G75*
G02*
X160050000Y-107750000I1500000J0D01*
G01*
X161539942Y-84740002D02*
G75*
G02*
X163550023Y-86740001I10058J-1999998D01*
G01*
X163500000Y-119500000D02*
G75*
G02*
X161500000Y-121500000I-2000000J0D01*
G01*
X163550000Y-86740001D02*
X163500000Y-119500000D01*
M02*
