%TF.GenerationSoftware,KiCad,Pcbnew,9.0.6*%
%TF.CreationDate,2026-01-10T10:45:27-05:00*%
%TF.ProjectId,sensor_head_v2,73656e73-6f72-45f6-9865-61645f76322e,rev?*%
%TF.SameCoordinates,Original*%
%TF.FileFunction,Soldermask,Top*%
%TF.FilePolarity,Negative*%
%FSLAX46Y46*%
G04 Gerber Fmt 4.6, Leading zero omitted, Abs format (unit mm)*
G04 Created by KiCad (PCBNEW 9.0.6) date 2026-01-10 10:45:27*
%MOMM*%
%LPD*%
G01*
G04 APERTURE LIST*
G04 Aperture macros list*
%AMRoundRect*
0 Rectangle with rounded corners*
0 $1 Rounding radius*
0 $2 $3 $4 $5 $6 $7 $8 $9 X,Y pos of 4 corners*
0 Add a 4 corners polygon primitive as box body*
4,1,4,$2,$3,$4,$5,$6,$7,$8,$9,$2,$3,0*
0 Add four circle primitives for the rounded corners*
1,1,$1+$1,$2,$3*
1,1,$1+$1,$4,$5*
1,1,$1+$1,$6,$7*
1,1,$1+$1,$8,$9*
0 Add four rect primitives between the rounded corners*
20,1,$1+$1,$2,$3,$4,$5,0*
20,1,$1+$1,$4,$5,$6,$7,0*
20,1,$1+$1,$6,$7,$8,$9,0*
20,1,$1+$1,$8,$9,$2,$3,0*%
%AMFreePoly0*
4,1,23,0.500000,-0.750000,0.000000,-0.750000,0.000000,-0.745722,-0.065263,-0.745722,-0.191342,-0.711940,-0.304381,-0.646677,-0.396677,-0.554381,-0.461940,-0.441342,-0.495722,-0.315263,-0.495722,-0.250000,-0.500000,-0.250000,-0.500000,0.250000,-0.495722,0.250000,-0.495722,0.315263,-0.461940,0.441342,-0.396677,0.554381,-0.304381,0.646677,-0.191342,0.711940,-0.065263,0.745722,0.000000,0.745722,
0.000000,0.750000,0.500000,0.750000,0.500000,-0.750000,0.500000,-0.750000,$1*%
%AMFreePoly1*
4,1,23,0.000000,0.745722,0.065263,0.745722,0.191342,0.711940,0.304381,0.646677,0.396677,0.554381,0.461940,0.441342,0.495722,0.315263,0.495722,0.250000,0.500000,0.250000,0.500000,-0.250000,0.495722,-0.250000,0.495722,-0.315263,0.461940,-0.441342,0.396677,-0.554381,0.304381,-0.646677,0.191342,-0.711940,0.065263,-0.745722,0.000000,-0.745722,0.000000,-0.750000,-0.500000,-0.750000,
-0.500000,0.750000,0.000000,0.750000,0.000000,0.745722,0.000000,0.745722,$1*%
G04 Aperture macros list end*
%ADD10FreePoly0,270.000000*%
%ADD11FreePoly1,270.000000*%
%ADD12R,1.700000X1.700000*%
%ADD13C,1.700000*%
%ADD14RoundRect,0.050000X-0.825000X-0.350000X0.825000X-0.350000X0.825000X0.350000X-0.825000X0.350000X0*%
%ADD15RoundRect,0.050000X-0.350000X0.825000X-0.350000X-0.825000X0.350000X-0.825000X0.350000X0.825000X0*%
%ADD16RoundRect,0.050000X0.350000X-0.825000X0.350000X0.825000X-0.350000X0.825000X-0.350000X-0.825000X0*%
%ADD17RoundRect,0.102000X-0.200000X-0.500000X0.200000X-0.500000X0.200000X0.500000X-0.200000X0.500000X0*%
%ADD18RoundRect,0.102000X-1.000000X-0.650000X1.000000X-0.650000X1.000000X0.650000X-1.000000X0.650000X0*%
%ADD19RoundRect,0.102000X0.175000X0.725000X-0.175000X0.725000X-0.175000X-0.725000X0.175000X-0.725000X0*%
%TA.AperFunction,Profile*%
%ADD20C,0.050000*%
%TD*%
G04 APERTURE END LIST*
%TO.C,JP2*%
G36*
X154500000Y-93850000D02*
G01*
X153000000Y-93850000D01*
X153000000Y-94150000D01*
X154500000Y-94150000D01*
X154500000Y-93850000D01*
G37*
%TO.C,JP1*%
G36*
X156750000Y-93850000D02*
G01*
X155250000Y-93850000D01*
X155250000Y-94150000D01*
X156750000Y-94150000D01*
X156750000Y-93850000D01*
G37*
%TD*%
D10*
%TO.C,JP2*%
X153750000Y-93350000D03*
D11*
X153750000Y-94650000D03*
%TD*%
D10*
%TO.C,JP1*%
X156000000Y-93350000D03*
D11*
X156000000Y-94650000D03*
%TD*%
D12*
%TO.C,J4*%
X145260000Y-104390000D03*
D13*
X145260000Y-106930000D03*
X142720000Y-104390000D03*
X142720000Y-106930000D03*
X140180000Y-104390000D03*
X140180000Y-106930000D03*
X137640000Y-104390000D03*
X137640000Y-106930000D03*
%TD*%
D14*
%TO.C,U1*%
X148115000Y-79885000D03*
X148115000Y-78615000D03*
D15*
X149970000Y-76625000D03*
X151240000Y-76625000D03*
X152510000Y-76625000D03*
D14*
X154365000Y-78615000D03*
X154365000Y-79885000D03*
D15*
X152510000Y-81875000D03*
X151240000Y-81875000D03*
D16*
X149970000Y-81875000D03*
%TD*%
D12*
%TO.C,J3*%
X164420000Y-99430000D03*
D13*
X164420000Y-101970000D03*
%TD*%
D17*
%TO.C,J1*%
X151020000Y-103580000D03*
X152020000Y-103580000D03*
X153020000Y-103580000D03*
X154020000Y-103580000D03*
X155020000Y-103580000D03*
X156020000Y-103580000D03*
X157020000Y-103580000D03*
X158020000Y-103580000D03*
X159020000Y-103580000D03*
X160020000Y-103580000D03*
X161020000Y-103580000D03*
X162020000Y-103580000D03*
D18*
X148220010Y-106280000D03*
X164819990Y-106280000D03*
%TD*%
D19*
%TO.C,U2*%
X154425000Y-85175000D03*
X153775000Y-85175000D03*
X153125000Y-85175000D03*
X152475000Y-85175000D03*
X151825000Y-85175000D03*
X151175000Y-85175000D03*
X150525000Y-85175000D03*
X149875000Y-85175000D03*
X149225000Y-85175000D03*
X148575000Y-85175000D03*
X148575000Y-90825000D03*
X149225000Y-90825000D03*
X149875000Y-90825000D03*
X150525000Y-90825000D03*
X151175000Y-90825000D03*
X151825000Y-90825000D03*
X152475000Y-90825000D03*
X153125000Y-90825000D03*
X153775000Y-90825000D03*
X154425000Y-90825000D03*
%TD*%
D20*
X137000000Y-111000000D02*
G75*
G02*
X135000000Y-109000000I0J2000000D01*
G01*
X137000000Y-111000000D02*
X164550000Y-111000000D01*
X164550000Y-73000000D02*
G75*
G02*
X166550000Y-75000000I0J-2000000D01*
G01*
X138500000Y-95000000D02*
G75*
G02*
X135500000Y-95000000I-1500000J0D01*
G01*
X135500000Y-95000000D02*
G75*
G02*
X138500000Y-95000000I1500000J0D01*
G01*
X135000000Y-75000000D02*
G75*
G02*
X137000000Y-73000000I2000000J0D01*
G01*
X137000000Y-73000000D02*
X164550000Y-73000000D01*
X166050000Y-95000000D02*
G75*
G02*
X163050000Y-95000000I-1500000J0D01*
G01*
X163050000Y-95000000D02*
G75*
G02*
X166050000Y-95000000I1500000J0D01*
G01*
X138500000Y-75000000D02*
G75*
G02*
X135500000Y-75000000I-1500000J0D01*
G01*
X135500000Y-75000000D02*
G75*
G02*
X138500000Y-75000000I1500000J0D01*
G01*
X135000000Y-75000000D02*
X135000000Y-109000000D01*
X166550000Y-109000000D02*
G75*
G02*
X164550000Y-111000000I-2000000J0D01*
G01*
X166550000Y-109000000D02*
X166550000Y-75000000D01*
X166050000Y-75000000D02*
G75*
G02*
X163050000Y-75000000I-1500000J0D01*
G01*
X163050000Y-75000000D02*
G75*
G02*
X166050000Y-75000000I1500000J0D01*
G01*
M02*
