%TF.GenerationSoftware,KiCad,Pcbnew,9.0.6*%
%TF.CreationDate,2026-01-10T10:45:27-05:00*%
%TF.ProjectId,sensor_head_v2,73656e73-6f72-45f6-9865-61645f76322e,rev?*%
%TF.SameCoordinates,Original*%
%TF.FileFunction,Copper,L2,Bot*%
%TF.FilePolarity,Positive*%
%FSLAX46Y46*%
G04 Gerber Fmt 4.6, Leading zero omitted, Abs format (unit mm)*
G04 Created by KiCad (PCBNEW 9.0.6) date 2026-01-10 10:45:27*
%MOMM*%
%LPD*%
G01*
G04 APERTURE LIST*
%TA.AperFunction,ComponentPad*%
%ADD10R,1.700000X1.700000*%
%TD*%
%TA.AperFunction,ComponentPad*%
%ADD11C,1.700000*%
%TD*%
%TA.AperFunction,Profile*%
%ADD12C,0.050000*%
%TD*%
G04 APERTURE END LIST*
D10*
%TO.P,J4,1,Pin_1*%
%TO.N,Net-(J4-Pin_1)*%
X145260000Y-104390000D03*
D11*
%TO.P,J4,2,Pin_2*%
%TO.N,Net-(J4-Pin_2)*%
X145260000Y-106930000D03*
%TO.P,J4,3,Pin_3*%
%TO.N,Net-(J4-Pin_3)*%
X142720000Y-104390000D03*
%TO.P,J4,4,Pin_4*%
%TO.N,Net-(J4-Pin_4)*%
X142720000Y-106930000D03*
%TO.P,J4,5,Pin_5*%
%TO.N,Net-(J4-Pin_5)*%
X140180000Y-104390000D03*
%TO.P,J4,6,Pin_6*%
%TO.N,Net-(J4-Pin_6)*%
X140180000Y-106930000D03*
%TO.P,J4,7,Pin_7*%
%TO.N,Net-(J4-Pin_7)*%
X137640000Y-104390000D03*
%TO.P,J4,8,Pin_8*%
%TO.N,Net-(J4-Pin_8)*%
X137640000Y-106930000D03*
%TD*%
D10*
%TO.P,J3,1,Pin_1*%
%TO.N,Net-(J3-Pin_1)*%
X164420000Y-99430000D03*
D11*
%TO.P,J3,2,Pin_2*%
%TO.N,Net-(J3-Pin_2)*%
X164420000Y-101970000D03*
%TD*%
D12*
X137000000Y-111000000D02*
G75*
G02*
X135000000Y-109000000I0J2000000D01*
G01*
X137000000Y-111000000D02*
X164550000Y-111000000D01*
X164550000Y-73000000D02*
G75*
G02*
X166550000Y-75000000I0J-2000000D01*
G01*
X138500000Y-95000000D02*
G75*
G02*
X135500000Y-95000000I-1500000J0D01*
G01*
X135500000Y-95000000D02*
G75*
G02*
X138500000Y-95000000I1500000J0D01*
G01*
X135000000Y-75000000D02*
G75*
G02*
X137000000Y-73000000I2000000J0D01*
G01*
X137000000Y-73000000D02*
X164550000Y-73000000D01*
X166050000Y-95000000D02*
G75*
G02*
X163050000Y-95000000I-1500000J0D01*
G01*
X163050000Y-95000000D02*
G75*
G02*
X166050000Y-95000000I1500000J0D01*
G01*
X138500000Y-75000000D02*
G75*
G02*
X135500000Y-75000000I-1500000J0D01*
G01*
X135500000Y-75000000D02*
G75*
G02*
X138500000Y-75000000I1500000J0D01*
G01*
X135000000Y-75000000D02*
X135000000Y-109000000D01*
X166550000Y-109000000D02*
G75*
G02*
X164550000Y-111000000I-2000000J0D01*
G01*
X166550000Y-109000000D02*
X166550000Y-75000000D01*
X166050000Y-75000000D02*
G75*
G02*
X163050000Y-75000000I-1500000J0D01*
G01*
X163050000Y-75000000D02*
G75*
G02*
X166050000Y-75000000I1500000J0D01*
G01*
M02*
