ISO-10303-21;
HEADER;
/* Generated by software containing ST-Developer
 * from STEP Tools, Inc. (www.steptools.com) 
 */

FILE_DESCRIPTION(
/* description */ (''),
/* implementation_level */ '2;1');

FILE_NAME(
/* name */ 'PCB Base.step',
/* time_stamp */ '2026-08-18T16:26:04-04:00',
/* author */ (''),
/* organization */ (''),
/* preprocessor_version */ 'ST-DEVELOPER v20.1',
/* originating_system */ 'Autodesk Translation Framework v15.8.0.0',
/* authorisation */ '');

FILE_SCHEMA (('AUTOMOTIVE_DESIGN { 1 0 10303 214 3 1 1 }'));
ENDSEC;

DATA;
#10=MECHANICAL_DESIGN_GEOMETRIC_PRESENTATION_REPRESENTATION('',(#13),#409);
#11=SHAPE_REPRESENTATION_RELATIONSHIP('SRR','None',#416,#12);
#12=ADVANCED_BREP_SHAPE_REPRESENTATION('',(#14),#408);
#13=STYLED_ITEM('',(#425),#14);
#14=MANIFOLD_SOLID_BREP('Body1',#237);
#15=FACE_BOUND('',#44,.T.);
#16=FACE_BOUND('',#45,.T.);
#17=FACE_BOUND('',#46,.T.);
#18=FACE_BOUND('',#47,.T.);
#19=FACE_BOUND('',#57,.T.);
#20=FACE_BOUND('',#58,.T.);
#21=FACE_BOUND('',#59,.T.);
#22=FACE_BOUND('',#60,.T.);
#23=PLANE('',#254);
#24=PLANE('',#255);
#25=PLANE('',#271);
#26=PLANE('',#272);
#27=PLANE('',#273);
#28=PLANE('',#274);
#29=FACE_OUTER_BOUND('',#41,.T.);
#30=FACE_OUTER_BOUND('',#42,.T.);
#31=FACE_OUTER_BOUND('',#43,.T.);
#32=FACE_OUTER_BOUND('',#48,.T.);
#33=FACE_OUTER_BOUND('',#49,.T.);
#34=FACE_OUTER_BOUND('',#50,.T.);
#35=FACE_OUTER_BOUND('',#51,.T.);
#36=FACE_OUTER_BOUND('',#52,.T.);
#37=FACE_OUTER_BOUND('',#53,.T.);
#38=FACE_OUTER_BOUND('',#54,.T.);
#39=FACE_OUTER_BOUND('',#55,.T.);
#40=FACE_OUTER_BOUND('',#56,.T.);
#41=EDGE_LOOP('',(#159,#160,#161,#162));
#42=EDGE_LOOP('',(#163,#164,#165,#166));
#43=EDGE_LOOP('',(#167,#168,#169,#170,#171,#172));
#44=EDGE_LOOP('',(#173));
#45=EDGE_LOOP('',(#174));
#46=EDGE_LOOP('',(#175));
#47=EDGE_LOOP('',(#176));
#48=EDGE_LOOP('',(#177,#178,#179,#180));
#49=EDGE_LOOP('',(#181,#182,#183,#184));
#50=EDGE_LOOP('',(#185,#186,#187,#188));
#51=EDGE_LOOP('',(#189,#190,#191,#192));
#52=EDGE_LOOP('',(#193,#194,#195,#196));
#53=EDGE_LOOP('',(#197,#198,#199,#200));
#54=EDGE_LOOP('',(#201,#202,#203,#204));
#55=EDGE_LOOP('',(#205,#206,#207,#208));
#56=EDGE_LOOP('',(#209,#210,#211,#212,#213,#214));
#57=EDGE_LOOP('',(#215));
#58=EDGE_LOOP('',(#216));
#59=EDGE_LOOP('',(#217));
#60=EDGE_LOOP('',(#218));
#61=LINE('',#349,#79);
#62=LINE('',#352,#80);
#63=LINE('',#355,#81);
#64=LINE('',#357,#82);
#65=LINE('',#358,#83);
#66=LINE('',#361,#84);
#67=LINE('',#363,#85);
#68=LINE('',#365,#86);
#69=LINE('',#378,#87);
#70=LINE('',#382,#88);
#71=LINE('',#386,#89);
#72=LINE('',#390,#90);
#73=LINE('',#394,#91);
#74=LINE('',#397,#92);
#75=LINE('',#398,#93);
#76=LINE('',#401,#94);
#77=LINE('',#402,#95);
#78=LINE('',#404,#96);
#79=VECTOR('',#281,10.);
#80=VECTOR('',#284,10.);
#81=VECTOR('',#287,10.);
#82=VECTOR('',#288,10.);
#83=VECTOR('',#289,10.);
#84=VECTOR('',#292,10.);
#85=VECTOR('',#293,10.);
#86=VECTOR('',#294,10.);
#87=VECTOR('',#309,10.);
#88=VECTOR('',#314,1.25);
#89=VECTOR('',#319,1.25);
#90=VECTOR('',#324,1.25);
#91=VECTOR('',#329,1.25);
#92=VECTOR('',#332,10.);
#93=VECTOR('',#333,10.);
#94=VECTOR('',#336,10.);
#95=VECTOR('',#337,10.);
#96=VECTOR('',#340,10.);
#97=CIRCLE('',#252,3.);
#98=CIRCLE('',#253,3.);
#99=CIRCLE('',#256,3.);
#100=CIRCLE('',#257,1.25);
#101=CIRCLE('',#258,1.25);
#102=CIRCLE('',#259,1.25);
#103=CIRCLE('',#260,1.25);
#104=CIRCLE('',#262,3.);
#105=CIRCLE('',#264,1.25);
#106=CIRCLE('',#266,1.25);
#107=CIRCLE('',#268,1.25);
#108=CIRCLE('',#270,1.25);
#109=VERTEX_POINT('',#345);
#110=VERTEX_POINT('',#346);
#111=VERTEX_POINT('',#348);
#112=VERTEX_POINT('',#350);
#113=VERTEX_POINT('',#354);
#114=VERTEX_POINT('',#356);
#115=VERTEX_POINT('',#360);
#116=VERTEX_POINT('',#362);
#117=VERTEX_POINT('',#364);
#118=VERTEX_POINT('',#367);
#119=VERTEX_POINT('',#369);
#120=VERTEX_POINT('',#371);
#121=VERTEX_POINT('',#373);
#122=VERTEX_POINT('',#376);
#123=VERTEX_POINT('',#380);
#124=VERTEX_POINT('',#384);
#125=VERTEX_POINT('',#388);
#126=VERTEX_POINT('',#392);
#127=VERTEX_POINT('',#396);
#128=VERTEX_POINT('',#400);
#129=EDGE_CURVE('',#109,#110,#97,.T.);
#130=EDGE_CURVE('',#110,#111,#61,.T.);
#131=EDGE_CURVE('',#111,#112,#98,.T.);
#132=EDGE_CURVE('',#112,#109,#62,.T.);
#133=EDGE_CURVE('',#113,#112,#63,.T.);
#134=EDGE_CURVE('',#114,#113,#64,.T.);
#135=EDGE_CURVE('',#109,#114,#65,.T.);
#136=EDGE_CURVE('',#111,#115,#66,.T.);
#137=EDGE_CURVE('',#115,#116,#67,.T.);
#138=EDGE_CURVE('',#116,#117,#68,.T.);
#139=EDGE_CURVE('',#113,#117,#99,.T.);
#140=EDGE_CURVE('',#118,#118,#100,.T.);
#141=EDGE_CURVE('',#119,#119,#101,.T.);
#142=EDGE_CURVE('',#120,#120,#102,.T.);
#143=EDGE_CURVE('',#121,#121,#103,.T.);
#144=EDGE_CURVE('',#122,#114,#104,.T.);
#145=EDGE_CURVE('',#117,#122,#69,.T.);
#146=EDGE_CURVE('',#123,#123,#105,.T.);
#147=EDGE_CURVE('',#123,#121,#70,.T.);
#148=EDGE_CURVE('',#124,#124,#106,.T.);
#149=EDGE_CURVE('',#124,#120,#71,.T.);
#150=EDGE_CURVE('',#125,#125,#107,.T.);
#151=EDGE_CURVE('',#125,#119,#72,.T.);
#152=EDGE_CURVE('',#126,#126,#108,.T.);
#153=EDGE_CURVE('',#126,#118,#73,.T.);
#154=EDGE_CURVE('',#127,#110,#74,.T.);
#155=EDGE_CURVE('',#115,#127,#75,.T.);
#156=EDGE_CURVE('',#128,#127,#76,.T.);
#157=EDGE_CURVE('',#116,#128,#77,.T.);
#158=EDGE_CURVE('',#122,#128,#78,.T.);
#159=ORIENTED_EDGE('',*,*,#129,.T.);
#160=ORIENTED_EDGE('',*,*,#130,.T.);
#161=ORIENTED_EDGE('',*,*,#131,.T.);
#162=ORIENTED_EDGE('',*,*,#132,.T.);
#163=ORIENTED_EDGE('',*,*,#132,.F.);
#164=ORIENTED_EDGE('',*,*,#133,.F.);
#165=ORIENTED_EDGE('',*,*,#134,.F.);
#166=ORIENTED_EDGE('',*,*,#135,.F.);
#167=ORIENTED_EDGE('',*,*,#131,.F.);
#168=ORIENTED_EDGE('',*,*,#136,.T.);
#169=ORIENTED_EDGE('',*,*,#137,.T.);
#170=ORIENTED_EDGE('',*,*,#138,.T.);
#171=ORIENTED_EDGE('',*,*,#139,.F.);
#172=ORIENTED_EDGE('',*,*,#133,.T.);
#173=ORIENTED_EDGE('',*,*,#140,.F.);
#174=ORIENTED_EDGE('',*,*,#141,.F.);
#175=ORIENTED_EDGE('',*,*,#142,.F.);
#176=ORIENTED_EDGE('',*,*,#143,.F.);
#177=ORIENTED_EDGE('',*,*,#144,.T.);
#178=ORIENTED_EDGE('',*,*,#134,.T.);
#179=ORIENTED_EDGE('',*,*,#139,.T.);
#180=ORIENTED_EDGE('',*,*,#145,.T.);
#181=ORIENTED_EDGE('',*,*,#146,.F.);
#182=ORIENTED_EDGE('',*,*,#147,.T.);
#183=ORIENTED_EDGE('',*,*,#143,.T.);
#184=ORIENTED_EDGE('',*,*,#147,.F.);
#185=ORIENTED_EDGE('',*,*,#148,.F.);
#186=ORIENTED_EDGE('',*,*,#149,.T.);
#187=ORIENTED_EDGE('',*,*,#142,.T.);
#188=ORIENTED_EDGE('',*,*,#149,.F.);
#189=ORIENTED_EDGE('',*,*,#150,.F.);
#190=ORIENTED_EDGE('',*,*,#151,.T.);
#191=ORIENTED_EDGE('',*,*,#141,.T.);
#192=ORIENTED_EDGE('',*,*,#151,.F.);
#193=ORIENTED_EDGE('',*,*,#152,.F.);
#194=ORIENTED_EDGE('',*,*,#153,.T.);
#195=ORIENTED_EDGE('',*,*,#140,.T.);
#196=ORIENTED_EDGE('',*,*,#153,.F.);
#197=ORIENTED_EDGE('',*,*,#130,.F.);
#198=ORIENTED_EDGE('',*,*,#154,.F.);
#199=ORIENTED_EDGE('',*,*,#155,.F.);
#200=ORIENTED_EDGE('',*,*,#136,.F.);
#201=ORIENTED_EDGE('',*,*,#137,.F.);
#202=ORIENTED_EDGE('',*,*,#155,.T.);
#203=ORIENTED_EDGE('',*,*,#156,.F.);
#204=ORIENTED_EDGE('',*,*,#157,.F.);
#205=ORIENTED_EDGE('',*,*,#145,.F.);
#206=ORIENTED_EDGE('',*,*,#138,.F.);
#207=ORIENTED_EDGE('',*,*,#157,.T.);
#208=ORIENTED_EDGE('',*,*,#158,.F.);
#209=ORIENTED_EDGE('',*,*,#129,.F.);
#210=ORIENTED_EDGE('',*,*,#135,.T.);
#211=ORIENTED_EDGE('',*,*,#144,.F.);
#212=ORIENTED_EDGE('',*,*,#158,.T.);
#213=ORIENTED_EDGE('',*,*,#156,.T.);
#214=ORIENTED_EDGE('',*,*,#154,.T.);
#215=ORIENTED_EDGE('',*,*,#152,.T.);
#216=ORIENTED_EDGE('',*,*,#150,.T.);
#217=ORIENTED_EDGE('',*,*,#148,.T.);
#218=ORIENTED_EDGE('',*,*,#146,.T.);
#219=CYLINDRICAL_SURFACE('',#251,3.);
#220=CYLINDRICAL_SURFACE('',#261,3.);
#221=CYLINDRICAL_SURFACE('',#263,1.25);
#222=CYLINDRICAL_SURFACE('',#265,1.25);
#223=CYLINDRICAL_SURFACE('',#267,1.25);
#224=CYLINDRICAL_SURFACE('',#269,1.25);
#225=ADVANCED_FACE('',(#29),#219,.T.);
#226=ADVANCED_FACE('',(#30),#23,.T.);
#227=ADVANCED_FACE('',(#31,#15,#16,#17,#18),#24,.F.);
#228=ADVANCED_FACE('',(#32),#220,.T.);
#229=ADVANCED_FACE('',(#33),#221,.F.);
#230=ADVANCED_FACE('',(#34),#222,.F.);
#231=ADVANCED_FACE('',(#35),#223,.F.);
#232=ADVANCED_FACE('',(#36),#224,.F.);
#233=ADVANCED_FACE('',(#37),#25,.T.);
#234=ADVANCED_FACE('',(#38),#26,.T.);
#235=ADVANCED_FACE('',(#39),#27,.T.);
#236=ADVANCED_FACE('',(#40,#19,#20,#21,#22),#28,.T.);
#237=CLOSED_SHELL('',(#225,#226,#227,#228,#229,#230,#231,#232,#233,#234,
#235,#236));
#238=DERIVED_UNIT_ELEMENT(#240,1.);
#239=DERIVED_UNIT_ELEMENT(#411,-3.);
#240=(
MASS_UNIT()
NAMED_UNIT(*)
SI_UNIT(.KILO.,.GRAM.)
);
#241=DERIVED_UNIT((#238,#239));
#242=MEASURE_REPRESENTATION_ITEM('density measure',
POSITIVE_RATIO_MEASURE(7850.),#241);
#243=PROPERTY_DEFINITION_REPRESENTATION(#248,#245);
#244=PROPERTY_DEFINITION_REPRESENTATION(#249,#246);
#245=REPRESENTATION('material name',(#247),#408);
#246=REPRESENTATION('density',(#242),#408);
#247=DESCRIPTIVE_REPRESENTATION_ITEM('Steel','Steel');
#248=PROPERTY_DEFINITION('material property','material name',#418);
#249=PROPERTY_DEFINITION('material property','density of part',#418);
#250=AXIS2_PLACEMENT_3D('',#343,#275,#276);
#251=AXIS2_PLACEMENT_3D('',#344,#277,#278);
#252=AXIS2_PLACEMENT_3D('',#347,#279,#280);
#253=AXIS2_PLACEMENT_3D('',#351,#282,#283);
#254=AXIS2_PLACEMENT_3D('',#353,#285,#286);
#255=AXIS2_PLACEMENT_3D('',#359,#290,#291);
#256=AXIS2_PLACEMENT_3D('',#366,#295,#296);
#257=AXIS2_PLACEMENT_3D('',#368,#297,#298);
#258=AXIS2_PLACEMENT_3D('',#370,#299,#300);
#259=AXIS2_PLACEMENT_3D('',#372,#301,#302);
#260=AXIS2_PLACEMENT_3D('',#374,#303,#304);
#261=AXIS2_PLACEMENT_3D('',#375,#305,#306);
#262=AXIS2_PLACEMENT_3D('',#377,#307,#308);
#263=AXIS2_PLACEMENT_3D('',#379,#310,#311);
#264=AXIS2_PLACEMENT_3D('',#381,#312,#313);
#265=AXIS2_PLACEMENT_3D('',#383,#315,#316);
#266=AXIS2_PLACEMENT_3D('',#385,#317,#318);
#267=AXIS2_PLACEMENT_3D('',#387,#320,#321);
#268=AXIS2_PLACEMENT_3D('',#389,#322,#323);
#269=AXIS2_PLACEMENT_3D('',#391,#325,#326);
#270=AXIS2_PLACEMENT_3D('',#393,#327,#328);
#271=AXIS2_PLACEMENT_3D('',#395,#330,#331);
#272=AXIS2_PLACEMENT_3D('',#399,#334,#335);
#273=AXIS2_PLACEMENT_3D('',#403,#338,#339);
#274=AXIS2_PLACEMENT_3D('',#405,#341,#342);
#275=DIRECTION('axis',(0.,0.,1.));
#276=DIRECTION('refdir',(1.,0.,0.));
#277=DIRECTION('center_axis',(0.,0.,1.));
#278=DIRECTION('ref_axis',(-0.707106781186549,-0.707106781186546,0.));
#279=DIRECTION('center_axis',(0.,0.,-1.));
#280=DIRECTION('ref_axis',(-0.707106781186549,-0.707106781186546,0.));
#281=DIRECTION('',(0.,0.,-1.));
#282=DIRECTION('center_axis',(0.,0.,1.));
#283=DIRECTION('ref_axis',(-0.707106781186549,-0.707106781186546,0.));
#284=DIRECTION('',(0.,0.,1.));
#285=DIRECTION('center_axis',(0.,-1.,0.));
#286=DIRECTION('ref_axis',(1.,0.,0.));
#287=DIRECTION('',(-1.,0.,0.));
#288=DIRECTION('',(0.,0.,-1.));
#289=DIRECTION('',(1.,0.,0.));
#290=DIRECTION('center_axis',(0.,0.,1.));
#291=DIRECTION('ref_axis',(1.,0.,0.));
#292=DIRECTION('',(2.46716227694479E-16,1.,0.));
#293=DIRECTION('',(1.,9.39871343598016E-17,0.));
#294=DIRECTION('',(1.35693925231964E-15,-1.,0.));
#295=DIRECTION('center_axis',(0.,0.,1.));
#296=DIRECTION('ref_axis',(0.70710678118655,-0.707106781186545,0.));
#297=DIRECTION('center_axis',(0.,0.,-1.));
#298=DIRECTION('ref_axis',(1.,0.,0.));
#299=DIRECTION('center_axis',(0.,0.,-1.));
#300=DIRECTION('ref_axis',(1.,0.,0.));
#301=DIRECTION('center_axis',(0.,0.,-1.));
#302=DIRECTION('ref_axis',(1.,0.,0.));
#303=DIRECTION('center_axis',(0.,0.,-1.));
#304=DIRECTION('ref_axis',(1.,0.,0.));
#305=DIRECTION('center_axis',(0.,0.,1.));
#306=DIRECTION('ref_axis',(0.70710678118655,-0.707106781186545,0.));
#307=DIRECTION('center_axis',(0.,0.,-1.));
#308=DIRECTION('ref_axis',(0.70710678118655,-0.707106781186545,0.));
#309=DIRECTION('',(0.,0.,1.));
#310=DIRECTION('center_axis',(0.,0.,1.));
#311=DIRECTION('ref_axis',(1.,0.,0.));
#312=DIRECTION('center_axis',(0.,0.,-1.));
#313=DIRECTION('ref_axis',(1.,0.,0.));
#314=DIRECTION('',(0.,0.,-1.));
#315=DIRECTION('center_axis',(0.,0.,1.));
#316=DIRECTION('ref_axis',(1.,0.,0.));
#317=DIRECTION('center_axis',(0.,0.,-1.));
#318=DIRECTION('ref_axis',(1.,0.,0.));
#319=DIRECTION('',(0.,0.,-1.));
#320=DIRECTION('center_axis',(0.,0.,1.));
#321=DIRECTION('ref_axis',(1.,0.,0.));
#322=DIRECTION('center_axis',(0.,0.,-1.));
#323=DIRECTION('ref_axis',(1.,0.,0.));
#324=DIRECTION('',(0.,0.,-1.));
#325=DIRECTION('center_axis',(0.,0.,1.));
#326=DIRECTION('ref_axis',(1.,0.,0.));
#327=DIRECTION('center_axis',(0.,0.,-1.));
#328=DIRECTION('ref_axis',(1.,0.,0.));
#329=DIRECTION('',(0.,0.,-1.));
#330=DIRECTION('center_axis',(-1.,2.46716227694479E-16,0.));
#331=DIRECTION('ref_axis',(-2.46716227694479E-16,-1.,0.));
#332=DIRECTION('',(-2.46716227694479E-16,-1.,0.));
#333=DIRECTION('',(0.,0.,1.));
#334=DIRECTION('center_axis',(-9.39871343598016E-17,1.,0.));
#335=DIRECTION('ref_axis',(-1.,-9.39871343598016E-17,0.));
#336=DIRECTION('',(-1.,-9.39871343598016E-17,0.));
#337=DIRECTION('',(0.,0.,1.));
#338=DIRECTION('center_axis',(1.,1.35693925231964E-15,0.));
#339=DIRECTION('ref_axis',(-1.35693925231964E-15,1.,0.));
#340=DIRECTION('',(-1.35693925231964E-15,1.,0.));
#341=DIRECTION('center_axis',(0.,0.,1.));
#342=DIRECTION('ref_axis',(1.,0.,0.));
#343=CARTESIAN_POINT('',(0.,0.,0.));
#344=CARTESIAN_POINT('Origin',(-44.25,-33.,0.));
#345=CARTESIAN_POINT('',(-44.25,-36.,2.5));
#346=CARTESIAN_POINT('',(-47.25,-33.,2.5));
#347=CARTESIAN_POINT('Origin',(-44.25,-33.,2.5));
#348=CARTESIAN_POINT('',(-47.25,-33.,0.));
#349=CARTESIAN_POINT('',(-47.25,-33.,0.));
#350=CARTESIAN_POINT('',(-44.25,-36.,0.));
#351=CARTESIAN_POINT('Origin',(-44.25,-33.,0.));
#352=CARTESIAN_POINT('',(-44.25,-36.,0.));
#353=CARTESIAN_POINT('Origin',(-47.25,-36.,0.));
#354=CARTESIAN_POINT('',(44.2500000000001,-36.,0.));
#355=CARTESIAN_POINT('',(47.2500000000001,-36.,0.));
#356=CARTESIAN_POINT('',(44.2500000000001,-36.,2.5));
#357=CARTESIAN_POINT('',(44.2500000000001,-36.,0.));
#358=CARTESIAN_POINT('',(47.2500000000001,-36.,2.5));
#359=CARTESIAN_POINT('Origin',(1.77635683940025E-14,-1.77635683940025E-14,
0.));
#360=CARTESIAN_POINT('',(-47.25,36.,0.));
#361=CARTESIAN_POINT('',(-47.25,-36.,0.));
#362=CARTESIAN_POINT('',(47.25,36.,0.));
#363=CARTESIAN_POINT('',(-47.25,36.,0.));
#364=CARTESIAN_POINT('',(47.2500000000001,-33.,0.));
#365=CARTESIAN_POINT('',(47.25,36.,0.));
#366=CARTESIAN_POINT('Origin',(44.2500000000001,-33.,0.));
#367=CARTESIAN_POINT('',(42.,31.5,0.));
#368=CARTESIAN_POINT('Origin',(43.25,31.5,0.));
#369=CARTESIAN_POINT('',(-44.5,31.5,0.));
#370=CARTESIAN_POINT('Origin',(-43.25,31.5,0.));
#371=CARTESIAN_POINT('',(42.,-31.5,0.));
#372=CARTESIAN_POINT('Origin',(43.25,-31.5,0.));
#373=CARTESIAN_POINT('',(-44.5,-31.5,0.));
#374=CARTESIAN_POINT('Origin',(-43.25,-31.5,0.));
#375=CARTESIAN_POINT('Origin',(44.2500000000001,-33.,0.));
#376=CARTESIAN_POINT('',(47.2500000000001,-33.,2.5));
#377=CARTESIAN_POINT('Origin',(44.2500000000001,-33.,2.5));
#378=CARTESIAN_POINT('',(47.2500000000001,-33.,0.));
#379=CARTESIAN_POINT('Origin',(-43.25,-31.5,0.));
#380=CARTESIAN_POINT('',(-44.5,-31.5,2.5));
#381=CARTESIAN_POINT('Origin',(-43.25,-31.5,2.5));
#382=CARTESIAN_POINT('',(-44.5,-31.5,0.));
#383=CARTESIAN_POINT('Origin',(43.25,-31.5,0.));
#384=CARTESIAN_POINT('',(42.,-31.5,2.5));
#385=CARTESIAN_POINT('Origin',(43.25,-31.5,2.5));
#386=CARTESIAN_POINT('',(42.,-31.5,0.));
#387=CARTESIAN_POINT('Origin',(-43.25,31.5,0.));
#388=CARTESIAN_POINT('',(-44.5,31.5,2.5));
#389=CARTESIAN_POINT('Origin',(-43.25,31.5,2.5));
#390=CARTESIAN_POINT('',(-44.5,31.5,0.));
#391=CARTESIAN_POINT('Origin',(43.25,31.5,0.));
#392=CARTESIAN_POINT('',(42.,31.5,2.5));
#393=CARTESIAN_POINT('Origin',(43.25,31.5,2.5));
#394=CARTESIAN_POINT('',(42.,31.5,0.));
#395=CARTESIAN_POINT('Origin',(-47.25,36.,0.));
#396=CARTESIAN_POINT('',(-47.25,36.,2.5));
#397=CARTESIAN_POINT('',(-47.25,-36.,2.5));
#398=CARTESIAN_POINT('',(-47.25,36.,0.));
#399=CARTESIAN_POINT('Origin',(47.25,36.,0.));
#400=CARTESIAN_POINT('',(47.25,36.,2.5));
#401=CARTESIAN_POINT('',(-47.25,36.,2.5));
#402=CARTESIAN_POINT('',(47.25,36.,0.));
#403=CARTESIAN_POINT('Origin',(47.2500000000001,-36.,0.));
#404=CARTESIAN_POINT('',(47.25,36.,2.5));
#405=CARTESIAN_POINT('Origin',(1.77635683940025E-14,-1.77635683940025E-14,
2.5));
#406=UNCERTAINTY_MEASURE_WITH_UNIT(LENGTH_MEASURE(0.01),#410,
'DISTANCE_ACCURACY_VALUE',
'Maximum model space distance between geometric entities at asserted c
onnectivities');
#407=UNCERTAINTY_MEASURE_WITH_UNIT(LENGTH_MEASURE(0.01),#410,
'DISTANCE_ACCURACY_VALUE',
'Maximum model space distance between geometric entities at asserted c
onnectivities');
#408=(
GEOMETRIC_REPRESENTATION_CONTEXT(3)
GLOBAL_UNCERTAINTY_ASSIGNED_CONTEXT((#406))
GLOBAL_UNIT_ASSIGNED_CONTEXT((#410,#412,#413))
REPRESENTATION_CONTEXT('','3D')
);
#409=(
GEOMETRIC_REPRESENTATION_CONTEXT(3)
GLOBAL_UNCERTAINTY_ASSIGNED_CONTEXT((#407))
GLOBAL_UNIT_ASSIGNED_CONTEXT((#410,#412,#413))
REPRESENTATION_CONTEXT('','3D')
);
#410=(
LENGTH_UNIT()
NAMED_UNIT(*)
SI_UNIT(.MILLI.,.METRE.)
);
#411=(
LENGTH_UNIT()
NAMED_UNIT(*)
SI_UNIT($,.METRE.)
);
#412=(
NAMED_UNIT(*)
PLANE_ANGLE_UNIT()
SI_UNIT($,.RADIAN.)
);
#413=(
NAMED_UNIT(*)
SI_UNIT($,.STERADIAN.)
SOLID_ANGLE_UNIT()
);
#414=SHAPE_DEFINITION_REPRESENTATION(#415,#416);
#415=PRODUCT_DEFINITION_SHAPE('',$,#418);
#416=SHAPE_REPRESENTATION('',(#250),#408);
#417=PRODUCT_DEFINITION_CONTEXT('part definition',#422,'design');
#418=PRODUCT_DEFINITION('2026-07-11-17-10-09-856','PCB Base',#419,#417);
#419=PRODUCT_DEFINITION_FORMATION('',$,#424);
#420=PRODUCT_RELATED_PRODUCT_CATEGORY('PCB Base','PCB Base',(#424));
#421=APPLICATION_PROTOCOL_DEFINITION('international standard',
'automotive_design',2009,#422);
#422=APPLICATION_CONTEXT(
'Core Data for Automotive Mechanical Design Process');
#423=PRODUCT_CONTEXT('part definition',#422,'mechanical');
#424=PRODUCT('2026-07-11-17-10-09-856','PCB Base',$,(#423));
#425=PRESENTATION_STYLE_ASSIGNMENT((#426));
#426=SURFACE_STYLE_USAGE(.BOTH.,#427);
#427=SURFACE_SIDE_STYLE('',(#428));
#428=SURFACE_STYLE_FILL_AREA(#429);
#429=FILL_AREA_STYLE('Steel - Satin',(#430));
#430=FILL_AREA_STYLE_COLOUR('Steel - Satin',#431);
#431=COLOUR_RGB('Steel - Satin',0.627450980392157,0.627450980392157,0.627450980392157);
ENDSEC;
END-ISO-10303-21;
