ISO-10303-21;
HEADER;
/* Generated by software containing ST-Developer
 * from STEP Tools, Inc. (www.steptools.com) 
 */

FILE_DESCRIPTION(
/* description */ (''),
/* implementation_level */ '2;1');

FILE_NAME(
/* name */ 'PCB Front Panel.step',
/* time_stamp */ '2026-08-18T16:26:40-04:00',
/* author */ (''),
/* organization */ (''),
/* preprocessor_version */ 'ST-DEVELOPER v20.1',
/* originating_system */ 'Autodesk Translation Framework v15.8.0.0',
/* authorisation */ '');

FILE_SCHEMA (('AUTOMOTIVE_DESIGN { 1 0 10303 214 3 1 1 }'));
ENDSEC;

DATA;
#10=MECHANICAL_DESIGN_GEOMETRIC_PRESENTATION_REPRESENTATION('',(#13),#661);
#11=SHAPE_REPRESENTATION_RELATIONSHIP('SRR','None',#668,#12);
#12=ADVANCED_BREP_SHAPE_REPRESENTATION('',(#14),#660);
#13=STYLED_ITEM('',(#677),#14);
#14=MANIFOLD_SOLID_BREP('Body1',#393);
#15=FACE_BOUND('',#66,.T.);
#16=FACE_BOUND('',#72,.T.);
#17=PLANE('',#410);
#18=PLANE('',#414);
#19=PLANE('',#418);
#20=PLANE('',#422);
#21=PLANE('',#426);
#22=PLANE('',#430);
#23=PLANE('',#431);
#24=PLANE('',#432);
#25=PLANE('',#433);
#26=PLANE('',#434);
#27=PLANE('',#435);
#28=PLANE('',#436);
#29=PLANE('',#437);
#30=PLANE('',#438);
#31=FACE_OUTER_BOUND('',#51,.T.);
#32=FACE_OUTER_BOUND('',#52,.T.);
#33=FACE_OUTER_BOUND('',#53,.T.);
#34=FACE_OUTER_BOUND('',#54,.T.);
#35=FACE_OUTER_BOUND('',#55,.T.);
#36=FACE_OUTER_BOUND('',#56,.T.);
#37=FACE_OUTER_BOUND('',#57,.T.);
#38=FACE_OUTER_BOUND('',#58,.T.);
#39=FACE_OUTER_BOUND('',#59,.T.);
#40=FACE_OUTER_BOUND('',#60,.T.);
#41=FACE_OUTER_BOUND('',#61,.T.);
#42=FACE_OUTER_BOUND('',#62,.T.);
#43=FACE_OUTER_BOUND('',#63,.T.);
#44=FACE_OUTER_BOUND('',#64,.T.);
#45=FACE_OUTER_BOUND('',#65,.T.);
#46=FACE_OUTER_BOUND('',#67,.T.);
#47=FACE_OUTER_BOUND('',#68,.T.);
#48=FACE_OUTER_BOUND('',#69,.T.);
#49=FACE_OUTER_BOUND('',#70,.T.);
#50=FACE_OUTER_BOUND('',#71,.T.);
#51=EDGE_LOOP('',(#259,#260,#261,#262));
#52=EDGE_LOOP('',(#263,#264,#265,#266));
#53=EDGE_LOOP('',(#267,#268,#269,#270));
#54=EDGE_LOOP('',(#271,#272,#273,#274));
#55=EDGE_LOOP('',(#275,#276,#277,#278));
#56=EDGE_LOOP('',(#279,#280,#281,#282));
#57=EDGE_LOOP('',(#283,#284,#285,#286));
#58=EDGE_LOOP('',(#287,#288,#289,#290));
#59=EDGE_LOOP('',(#291,#292,#293,#294));
#60=EDGE_LOOP('',(#295,#296,#297,#298));
#61=EDGE_LOOP('',(#299,#300,#301,#302));
#62=EDGE_LOOP('',(#303,#304,#305,#306));
#63=EDGE_LOOP('',(#307,#308,#309,#310));
#64=EDGE_LOOP('',(#311,#312,#313,#314));
#65=EDGE_LOOP('',(#315,#316,#317,#318,#319,#320,#321,#322,#323,#324));
#66=EDGE_LOOP('',(#325,#326,#327,#328,#329,#330,#331,#332));
#67=EDGE_LOOP('',(#333,#334,#335,#336));
#68=EDGE_LOOP('',(#337,#338,#339,#340));
#69=EDGE_LOOP('',(#341,#342,#343,#344));
#70=EDGE_LOOP('',(#345,#346,#347,#348));
#71=EDGE_LOOP('',(#349,#350,#351,#352,#353,#354,#355,#356,#357,#358));
#72=EDGE_LOOP('',(#359,#360,#361,#362,#363,#364,#365,#366));
#73=LINE('',#553,#115);
#74=LINE('',#556,#116);
#75=LINE('',#559,#117);
#76=LINE('',#561,#118);
#77=LINE('',#562,#119);
#78=LINE('',#568,#120);
#79=LINE('',#571,#121);
#80=LINE('',#573,#122);
#81=LINE('',#574,#123);
#82=LINE('',#580,#124);
#83=LINE('',#583,#125);
#84=LINE('',#585,#126);
#85=LINE('',#586,#127);
#86=LINE('',#591,#128);
#87=LINE('',#594,#129);
#88=LINE('',#595,#130);
#89=LINE('',#601,#131);
#90=LINE('',#604,#132);
#91=LINE('',#607,#133);
#92=LINE('',#609,#134);
#93=LINE('',#610,#135);
#94=LINE('',#615,#136);
#95=LINE('',#619,#137);
#96=LINE('',#621,#138);
#97=LINE('',#622,#139);
#98=LINE('',#625,#140);
#99=LINE('',#627,#141);
#100=LINE('',#628,#142);
#101=LINE('',#631,#143);
#102=LINE('',#633,#144);
#103=LINE('',#634,#145);
#104=LINE('',#637,#146);
#105=LINE('',#639,#147);
#106=LINE('',#641,#148);
#107=LINE('',#642,#149);
#108=LINE('',#645,#150);
#109=LINE('',#646,#151);
#110=LINE('',#649,#152);
#111=LINE('',#650,#153);
#112=LINE('',#653,#154);
#113=LINE('',#654,#155);
#114=LINE('',#656,#156);
#115=VECTOR('',#445,10.);
#116=VECTOR('',#448,10.);
#117=VECTOR('',#451,10.);
#118=VECTOR('',#452,10.);
#119=VECTOR('',#453,10.);
#120=VECTOR('',#458,10.);
#121=VECTOR('',#461,10.);
#122=VECTOR('',#464,10.);
#123=VECTOR('',#465,10.);
#124=VECTOR('',#470,10.);
#125=VECTOR('',#473,10.);
#126=VECTOR('',#476,10.);
#127=VECTOR('',#477,10.);
#128=VECTOR('',#482,10.);
#129=VECTOR('',#487,10.);
#130=VECTOR('',#488,10.);
#131=VECTOR('',#493,10.);
#132=VECTOR('',#496,10.);
#133=VECTOR('',#499,10.);
#134=VECTOR('',#500,10.);
#135=VECTOR('',#501,10.);
#136=VECTOR('',#506,10.);
#137=VECTOR('',#511,10.);
#138=VECTOR('',#512,10.);
#139=VECTOR('',#513,10.);
#140=VECTOR('',#516,10.);
#141=VECTOR('',#517,10.);
#142=VECTOR('',#518,10.);
#143=VECTOR('',#521,10.);
#144=VECTOR('',#522,10.);
#145=VECTOR('',#523,10.);
#146=VECTOR('',#526,10.);
#147=VECTOR('',#527,10.);
#148=VECTOR('',#528,10.);
#149=VECTOR('',#529,10.);
#150=VECTOR('',#532,10.);
#151=VECTOR('',#533,10.);
#152=VECTOR('',#536,10.);
#153=VECTOR('',#537,10.);
#154=VECTOR('',#540,10.);
#155=VECTOR('',#541,10.);
#156=VECTOR('',#544,10.);
#157=CIRCLE('',#408,1.);
#158=CIRCLE('',#409,1.);
#159=CIRCLE('',#412,1.);
#160=CIRCLE('',#413,1.);
#161=CIRCLE('',#416,1.);
#162=CIRCLE('',#417,1.);
#163=CIRCLE('',#420,1.);
#164=CIRCLE('',#421,1.);
#165=CIRCLE('',#424,2.);
#166=CIRCLE('',#425,2.);
#167=CIRCLE('',#428,2.);
#168=CIRCLE('',#429,2.);
#169=VERTEX_POINT('',#549);
#170=VERTEX_POINT('',#550);
#171=VERTEX_POINT('',#552);
#172=VERTEX_POINT('',#554);
#173=VERTEX_POINT('',#558);
#174=VERTEX_POINT('',#560);
#175=VERTEX_POINT('',#564);
#176=VERTEX_POINT('',#565);
#177=VERTEX_POINT('',#567);
#178=VERTEX_POINT('',#569);
#179=VERTEX_POINT('',#576);
#180=VERTEX_POINT('',#577);
#181=VERTEX_POINT('',#579);
#182=VERTEX_POINT('',#581);
#183=VERTEX_POINT('',#588);
#184=VERTEX_POINT('',#590);
#185=VERTEX_POINT('',#597);
#186=VERTEX_POINT('',#598);
#187=VERTEX_POINT('',#600);
#188=VERTEX_POINT('',#602);
#189=VERTEX_POINT('',#606);
#190=VERTEX_POINT('',#608);
#191=VERTEX_POINT('',#612);
#192=VERTEX_POINT('',#614);
#193=VERTEX_POINT('',#618);
#194=VERTEX_POINT('',#620);
#195=VERTEX_POINT('',#624);
#196=VERTEX_POINT('',#626);
#197=VERTEX_POINT('',#630);
#198=VERTEX_POINT('',#632);
#199=VERTEX_POINT('',#636);
#200=VERTEX_POINT('',#638);
#201=VERTEX_POINT('',#640);
#202=VERTEX_POINT('',#644);
#203=VERTEX_POINT('',#648);
#204=VERTEX_POINT('',#652);
#205=EDGE_CURVE('',#169,#170,#157,.T.);
#206=EDGE_CURVE('',#170,#171,#73,.T.);
#207=EDGE_CURVE('',#171,#172,#158,.T.);
#208=EDGE_CURVE('',#172,#169,#74,.T.);
#209=EDGE_CURVE('',#173,#170,#75,.T.);
#210=EDGE_CURVE('',#174,#173,#76,.T.);
#211=EDGE_CURVE('',#171,#174,#77,.T.);
#212=EDGE_CURVE('',#175,#176,#159,.T.);
#213=EDGE_CURVE('',#176,#177,#78,.T.);
#214=EDGE_CURVE('',#177,#178,#160,.T.);
#215=EDGE_CURVE('',#178,#175,#79,.T.);
#216=EDGE_CURVE('',#177,#172,#80,.T.);
#217=EDGE_CURVE('',#169,#176,#81,.T.);
#218=EDGE_CURVE('',#179,#180,#161,.T.);
#219=EDGE_CURVE('',#180,#181,#82,.T.);
#220=EDGE_CURVE('',#181,#182,#162,.T.);
#221=EDGE_CURVE('',#182,#179,#83,.T.);
#222=EDGE_CURVE('',#181,#178,#84,.T.);
#223=EDGE_CURVE('',#175,#180,#85,.T.);
#224=EDGE_CURVE('',#173,#183,#163,.T.);
#225=EDGE_CURVE('',#183,#184,#86,.T.);
#226=EDGE_CURVE('',#184,#174,#164,.T.);
#227=EDGE_CURVE('',#184,#182,#87,.T.);
#228=EDGE_CURVE('',#179,#183,#88,.T.);
#229=EDGE_CURVE('',#185,#186,#165,.T.);
#230=EDGE_CURVE('',#186,#187,#89,.T.);
#231=EDGE_CURVE('',#187,#188,#166,.T.);
#232=EDGE_CURVE('',#188,#185,#90,.T.);
#233=EDGE_CURVE('',#189,#186,#91,.T.);
#234=EDGE_CURVE('',#190,#189,#92,.T.);
#235=EDGE_CURVE('',#187,#190,#93,.T.);
#236=EDGE_CURVE('',#189,#191,#167,.T.);
#237=EDGE_CURVE('',#191,#192,#94,.T.);
#238=EDGE_CURVE('',#192,#190,#168,.T.);
#239=EDGE_CURVE('',#193,#191,#95,.T.);
#240=EDGE_CURVE('',#194,#193,#96,.T.);
#241=EDGE_CURVE('',#192,#194,#97,.T.);
#242=EDGE_CURVE('',#195,#188,#98,.T.);
#243=EDGE_CURVE('',#196,#195,#99,.T.);
#244=EDGE_CURVE('',#185,#196,#100,.T.);
#245=EDGE_CURVE('',#197,#193,#101,.T.);
#246=EDGE_CURVE('',#198,#197,#102,.T.);
#247=EDGE_CURVE('',#194,#198,#103,.T.);
#248=EDGE_CURVE('',#198,#199,#104,.T.);
#249=EDGE_CURVE('',#199,#200,#105,.T.);
#250=EDGE_CURVE('',#200,#201,#106,.T.);
#251=EDGE_CURVE('',#201,#195,#107,.T.);
#252=EDGE_CURVE('',#202,#197,#108,.T.);
#253=EDGE_CURVE('',#199,#202,#109,.T.);
#254=EDGE_CURVE('',#203,#202,#110,.T.);
#255=EDGE_CURVE('',#200,#203,#111,.T.);
#256=EDGE_CURVE('',#204,#203,#112,.T.);
#257=EDGE_CURVE('',#201,#204,#113,.T.);
#258=EDGE_CURVE('',#196,#204,#114,.T.);
#259=ORIENTED_EDGE('',*,*,#205,.T.);
#260=ORIENTED_EDGE('',*,*,#206,.T.);
#261=ORIENTED_EDGE('',*,*,#207,.T.);
#262=ORIENTED_EDGE('',*,*,#208,.T.);
#263=ORIENTED_EDGE('',*,*,#206,.F.);
#264=ORIENTED_EDGE('',*,*,#209,.F.);
#265=ORIENTED_EDGE('',*,*,#210,.F.);
#266=ORIENTED_EDGE('',*,*,#211,.F.);
#267=ORIENTED_EDGE('',*,*,#212,.T.);
#268=ORIENTED_EDGE('',*,*,#213,.T.);
#269=ORIENTED_EDGE('',*,*,#214,.T.);
#270=ORIENTED_EDGE('',*,*,#215,.T.);
#271=ORIENTED_EDGE('',*,*,#208,.F.);
#272=ORIENTED_EDGE('',*,*,#216,.F.);
#273=ORIENTED_EDGE('',*,*,#213,.F.);
#274=ORIENTED_EDGE('',*,*,#217,.F.);
#275=ORIENTED_EDGE('',*,*,#218,.T.);
#276=ORIENTED_EDGE('',*,*,#219,.T.);
#277=ORIENTED_EDGE('',*,*,#220,.T.);
#278=ORIENTED_EDGE('',*,*,#221,.T.);
#279=ORIENTED_EDGE('',*,*,#215,.F.);
#280=ORIENTED_EDGE('',*,*,#222,.F.);
#281=ORIENTED_EDGE('',*,*,#219,.F.);
#282=ORIENTED_EDGE('',*,*,#223,.F.);
#283=ORIENTED_EDGE('',*,*,#224,.T.);
#284=ORIENTED_EDGE('',*,*,#225,.T.);
#285=ORIENTED_EDGE('',*,*,#226,.T.);
#286=ORIENTED_EDGE('',*,*,#210,.T.);
#287=ORIENTED_EDGE('',*,*,#221,.F.);
#288=ORIENTED_EDGE('',*,*,#227,.F.);
#289=ORIENTED_EDGE('',*,*,#225,.F.);
#290=ORIENTED_EDGE('',*,*,#228,.F.);
#291=ORIENTED_EDGE('',*,*,#229,.T.);
#292=ORIENTED_EDGE('',*,*,#230,.T.);
#293=ORIENTED_EDGE('',*,*,#231,.T.);
#294=ORIENTED_EDGE('',*,*,#232,.T.);
#295=ORIENTED_EDGE('',*,*,#230,.F.);
#296=ORIENTED_EDGE('',*,*,#233,.F.);
#297=ORIENTED_EDGE('',*,*,#234,.F.);
#298=ORIENTED_EDGE('',*,*,#235,.F.);
#299=ORIENTED_EDGE('',*,*,#236,.T.);
#300=ORIENTED_EDGE('',*,*,#237,.T.);
#301=ORIENTED_EDGE('',*,*,#238,.T.);
#302=ORIENTED_EDGE('',*,*,#234,.T.);
#303=ORIENTED_EDGE('',*,*,#237,.F.);
#304=ORIENTED_EDGE('',*,*,#239,.F.);
#305=ORIENTED_EDGE('',*,*,#240,.F.);
#306=ORIENTED_EDGE('',*,*,#241,.F.);
#307=ORIENTED_EDGE('',*,*,#232,.F.);
#308=ORIENTED_EDGE('',*,*,#242,.F.);
#309=ORIENTED_EDGE('',*,*,#243,.F.);
#310=ORIENTED_EDGE('',*,*,#244,.F.);
#311=ORIENTED_EDGE('',*,*,#240,.T.);
#312=ORIENTED_EDGE('',*,*,#245,.F.);
#313=ORIENTED_EDGE('',*,*,#246,.F.);
#314=ORIENTED_EDGE('',*,*,#247,.F.);
#315=ORIENTED_EDGE('',*,*,#242,.T.);
#316=ORIENTED_EDGE('',*,*,#231,.F.);
#317=ORIENTED_EDGE('',*,*,#235,.T.);
#318=ORIENTED_EDGE('',*,*,#238,.F.);
#319=ORIENTED_EDGE('',*,*,#241,.T.);
#320=ORIENTED_EDGE('',*,*,#247,.T.);
#321=ORIENTED_EDGE('',*,*,#248,.T.);
#322=ORIENTED_EDGE('',*,*,#249,.T.);
#323=ORIENTED_EDGE('',*,*,#250,.T.);
#324=ORIENTED_EDGE('',*,*,#251,.T.);
#325=ORIENTED_EDGE('',*,*,#211,.T.);
#326=ORIENTED_EDGE('',*,*,#226,.F.);
#327=ORIENTED_EDGE('',*,*,#227,.T.);
#328=ORIENTED_EDGE('',*,*,#220,.F.);
#329=ORIENTED_EDGE('',*,*,#222,.T.);
#330=ORIENTED_EDGE('',*,*,#214,.F.);
#331=ORIENTED_EDGE('',*,*,#216,.T.);
#332=ORIENTED_EDGE('',*,*,#207,.F.);
#333=ORIENTED_EDGE('',*,*,#248,.F.);
#334=ORIENTED_EDGE('',*,*,#246,.T.);
#335=ORIENTED_EDGE('',*,*,#252,.F.);
#336=ORIENTED_EDGE('',*,*,#253,.F.);
#337=ORIENTED_EDGE('',*,*,#249,.F.);
#338=ORIENTED_EDGE('',*,*,#253,.T.);
#339=ORIENTED_EDGE('',*,*,#254,.F.);
#340=ORIENTED_EDGE('',*,*,#255,.F.);
#341=ORIENTED_EDGE('',*,*,#250,.F.);
#342=ORIENTED_EDGE('',*,*,#255,.T.);
#343=ORIENTED_EDGE('',*,*,#256,.F.);
#344=ORIENTED_EDGE('',*,*,#257,.F.);
#345=ORIENTED_EDGE('',*,*,#243,.T.);
#346=ORIENTED_EDGE('',*,*,#251,.F.);
#347=ORIENTED_EDGE('',*,*,#257,.T.);
#348=ORIENTED_EDGE('',*,*,#258,.F.);
#349=ORIENTED_EDGE('',*,*,#244,.T.);
#350=ORIENTED_EDGE('',*,*,#258,.T.);
#351=ORIENTED_EDGE('',*,*,#256,.T.);
#352=ORIENTED_EDGE('',*,*,#254,.T.);
#353=ORIENTED_EDGE('',*,*,#252,.T.);
#354=ORIENTED_EDGE('',*,*,#245,.T.);
#355=ORIENTED_EDGE('',*,*,#239,.T.);
#356=ORIENTED_EDGE('',*,*,#236,.F.);
#357=ORIENTED_EDGE('',*,*,#233,.T.);
#358=ORIENTED_EDGE('',*,*,#229,.F.);
#359=ORIENTED_EDGE('',*,*,#209,.T.);
#360=ORIENTED_EDGE('',*,*,#205,.F.);
#361=ORIENTED_EDGE('',*,*,#217,.T.);
#362=ORIENTED_EDGE('',*,*,#212,.F.);
#363=ORIENTED_EDGE('',*,*,#223,.T.);
#364=ORIENTED_EDGE('',*,*,#218,.F.);
#365=ORIENTED_EDGE('',*,*,#228,.T.);
#366=ORIENTED_EDGE('',*,*,#224,.F.);
#367=CYLINDRICAL_SURFACE('',#407,1.);
#368=CYLINDRICAL_SURFACE('',#411,1.);
#369=CYLINDRICAL_SURFACE('',#415,1.);
#370=CYLINDRICAL_SURFACE('',#419,1.);
#371=CYLINDRICAL_SURFACE('',#423,2.);
#372=CYLINDRICAL_SURFACE('',#427,2.);
#373=ADVANCED_FACE('',(#31),#367,.F.);
#374=ADVANCED_FACE('',(#32),#17,.F.);
#375=ADVANCED_FACE('',(#33),#368,.F.);
#376=ADVANCED_FACE('',(#34),#18,.F.);
#377=ADVANCED_FACE('',(#35),#369,.F.);
#378=ADVANCED_FACE('',(#36),#19,.F.);
#379=ADVANCED_FACE('',(#37),#370,.F.);
#380=ADVANCED_FACE('',(#38),#20,.F.);
#381=ADVANCED_FACE('',(#39),#371,.F.);
#382=ADVANCED_FACE('',(#40),#21,.F.);
#383=ADVANCED_FACE('',(#41),#372,.F.);
#384=ADVANCED_FACE('',(#42),#22,.F.);
#385=ADVANCED_FACE('',(#43),#23,.F.);
#386=ADVANCED_FACE('',(#44),#24,.T.);
#387=ADVANCED_FACE('',(#45,#15),#25,.F.);
#388=ADVANCED_FACE('',(#46),#26,.T.);
#389=ADVANCED_FACE('',(#47),#27,.T.);
#390=ADVANCED_FACE('',(#48),#28,.T.);
#391=ADVANCED_FACE('',(#49),#29,.T.);
#392=ADVANCED_FACE('',(#50,#16),#30,.T.);
#393=CLOSED_SHELL('',(#373,#374,#375,#376,#377,#378,#379,#380,#381,#382,
#383,#384,#385,#386,#387,#388,#389,#390,#391,#392));
#394=DERIVED_UNIT_ELEMENT(#396,1.);
#395=DERIVED_UNIT_ELEMENT(#663,-3.);
#396=(
MASS_UNIT()
NAMED_UNIT(*)
SI_UNIT(.KILO.,.GRAM.)
);
#397=DERIVED_UNIT((#394,#395));
#398=MEASURE_REPRESENTATION_ITEM('density measure',
POSITIVE_RATIO_MEASURE(7850.),#397);
#399=PROPERTY_DEFINITION_REPRESENTATION(#404,#401);
#400=PROPERTY_DEFINITION_REPRESENTATION(#405,#402);
#401=REPRESENTATION('material name',(#403),#660);
#402=REPRESENTATION('density',(#398),#660);
#403=DESCRIPTIVE_REPRESENTATION_ITEM('Steel','Steel');
#404=PROPERTY_DEFINITION('material property','material name',#670);
#405=PROPERTY_DEFINITION('material property','density of part',#670);
#406=AXIS2_PLACEMENT_3D('',#547,#439,#440);
#407=AXIS2_PLACEMENT_3D('',#548,#441,#442);
#408=AXIS2_PLACEMENT_3D('',#551,#443,#444);
#409=AXIS2_PLACEMENT_3D('',#555,#446,#447);
#410=AXIS2_PLACEMENT_3D('',#557,#449,#450);
#411=AXIS2_PLACEMENT_3D('',#563,#454,#455);
#412=AXIS2_PLACEMENT_3D('',#566,#456,#457);
#413=AXIS2_PLACEMENT_3D('',#570,#459,#460);
#414=AXIS2_PLACEMENT_3D('',#572,#462,#463);
#415=AXIS2_PLACEMENT_3D('',#575,#466,#467);
#416=AXIS2_PLACEMENT_3D('',#578,#468,#469);
#417=AXIS2_PLACEMENT_3D('',#582,#471,#472);
#418=AXIS2_PLACEMENT_3D('',#584,#474,#475);
#419=AXIS2_PLACEMENT_3D('',#587,#478,#479);
#420=AXIS2_PLACEMENT_3D('',#589,#480,#481);
#421=AXIS2_PLACEMENT_3D('',#592,#483,#484);
#422=AXIS2_PLACEMENT_3D('',#593,#485,#486);
#423=AXIS2_PLACEMENT_3D('',#596,#489,#490);
#424=AXIS2_PLACEMENT_3D('',#599,#491,#492);
#425=AXIS2_PLACEMENT_3D('',#603,#494,#495);
#426=AXIS2_PLACEMENT_3D('',#605,#497,#498);
#427=AXIS2_PLACEMENT_3D('',#611,#502,#503);
#428=AXIS2_PLACEMENT_3D('',#613,#504,#505);
#429=AXIS2_PLACEMENT_3D('',#616,#507,#508);
#430=AXIS2_PLACEMENT_3D('',#617,#509,#510);
#431=AXIS2_PLACEMENT_3D('',#623,#514,#515);
#432=AXIS2_PLACEMENT_3D('',#629,#519,#520);
#433=AXIS2_PLACEMENT_3D('',#635,#524,#525);
#434=AXIS2_PLACEMENT_3D('',#643,#530,#531);
#435=AXIS2_PLACEMENT_3D('',#647,#534,#535);
#436=AXIS2_PLACEMENT_3D('',#651,#538,#539);
#437=AXIS2_PLACEMENT_3D('',#655,#542,#543);
#438=AXIS2_PLACEMENT_3D('',#657,#545,#546);
#439=DIRECTION('axis',(0.,0.,1.));
#440=DIRECTION('refdir',(1.,0.,0.));
#441=DIRECTION('center_axis',(0.,0.,-1.));
#442=DIRECTION('ref_axis',(0.707106781186548,-0.707106781186548,0.));
#443=DIRECTION('center_axis',(0.,0.,1.));
#444=DIRECTION('ref_axis',(0.707106781186548,-0.707106781186548,0.));
#445=DIRECTION('',(0.,0.,-1.));
#446=DIRECTION('center_axis',(0.,0.,-1.));
#447=DIRECTION('ref_axis',(0.707106781186548,-0.707106781186548,0.));
#448=DIRECTION('',(0.,0.,1.));
#449=DIRECTION('center_axis',(1.,0.,0.));
#450=DIRECTION('ref_axis',(0.,-1.,0.));
#451=DIRECTION('',(0.,-1.,0.));
#452=DIRECTION('',(0.,0.,1.));
#453=DIRECTION('',(0.,1.,0.));
#454=DIRECTION('center_axis',(0.,0.,-1.));
#455=DIRECTION('ref_axis',(-0.707106781186548,-0.707106781186547,0.));
#456=DIRECTION('center_axis',(0.,0.,1.));
#457=DIRECTION('ref_axis',(-0.707106781186548,-0.707106781186547,0.));
#458=DIRECTION('',(0.,0.,-1.));
#459=DIRECTION('center_axis',(0.,0.,-1.));
#460=DIRECTION('ref_axis',(-0.707106781186548,-0.707106781186547,0.));
#461=DIRECTION('',(0.,0.,1.));
#462=DIRECTION('center_axis',(0.,-1.,0.));
#463=DIRECTION('ref_axis',(-1.,0.,0.));
#464=DIRECTION('',(1.,0.,0.));
#465=DIRECTION('',(-1.,0.,0.));
#466=DIRECTION('center_axis',(0.,0.,-1.));
#467=DIRECTION('ref_axis',(-0.707106781186548,0.707106781186548,0.));
#468=DIRECTION('center_axis',(0.,0.,1.));
#469=DIRECTION('ref_axis',(-0.707106781186548,0.707106781186548,0.));
#470=DIRECTION('',(0.,0.,-1.));
#471=DIRECTION('center_axis',(0.,0.,-1.));
#472=DIRECTION('ref_axis',(-0.707106781186548,0.707106781186548,0.));
#473=DIRECTION('',(0.,0.,1.));
#474=DIRECTION('center_axis',(-1.,0.,0.));
#475=DIRECTION('ref_axis',(0.,1.,0.));
#476=DIRECTION('',(0.,-1.,0.));
#477=DIRECTION('',(0.,1.,0.));
#478=DIRECTION('center_axis',(0.,0.,-1.));
#479=DIRECTION('ref_axis',(0.707106781186547,0.707106781186548,0.));
#480=DIRECTION('center_axis',(0.,0.,1.));
#481=DIRECTION('ref_axis',(0.707106781186547,0.707106781186548,0.));
#482=DIRECTION('',(0.,0.,-1.));
#483=DIRECTION('center_axis',(0.,0.,-1.));
#484=DIRECTION('ref_axis',(0.707106781186547,0.707106781186548,0.));
#485=DIRECTION('center_axis',(-3.02788097625043E-16,1.,0.));
#486=DIRECTION('ref_axis',(1.,3.02788097625043E-16,0.));
#487=DIRECTION('',(-1.,-3.02788097625043E-16,0.));
#488=DIRECTION('',(1.,3.02788097625043E-16,0.));
#489=DIRECTION('center_axis',(0.,0.,-1.));
#490=DIRECTION('ref_axis',(0.707106781186547,0.707106781186548,0.));
#491=DIRECTION('center_axis',(0.,0.,1.));
#492=DIRECTION('ref_axis',(0.707106781186547,0.707106781186548,0.));
#493=DIRECTION('',(0.,0.,-1.));
#494=DIRECTION('center_axis',(0.,0.,-1.));
#495=DIRECTION('ref_axis',(0.707106781186547,0.707106781186548,0.));
#496=DIRECTION('',(0.,0.,1.));
#497=DIRECTION('center_axis',(0.,1.,0.));
#498=DIRECTION('ref_axis',(1.,0.,0.));
#499=DIRECTION('',(1.,0.,0.));
#500=DIRECTION('',(0.,0.,1.));
#501=DIRECTION('',(-1.,0.,0.));
#502=DIRECTION('center_axis',(0.,0.,-1.));
#503=DIRECTION('ref_axis',(-0.707106781186548,0.707106781186547,0.));
#504=DIRECTION('center_axis',(0.,0.,1.));
#505=DIRECTION('ref_axis',(-0.707106781186548,0.707106781186547,0.));
#506=DIRECTION('',(0.,0.,-1.));
#507=DIRECTION('center_axis',(0.,0.,-1.));
#508=DIRECTION('ref_axis',(-0.707106781186548,0.707106781186547,0.));
#509=DIRECTION('center_axis',(-1.,0.,0.));
#510=DIRECTION('ref_axis',(0.,1.,0.));
#511=DIRECTION('',(0.,1.,0.));
#512=DIRECTION('',(0.,0.,1.));
#513=DIRECTION('',(0.,-1.,0.));
#514=DIRECTION('center_axis',(1.,0.,0.));
#515=DIRECTION('ref_axis',(0.,-1.,0.));
#516=DIRECTION('',(0.,1.,0.));
#517=DIRECTION('',(0.,0.,-1.));
#518=DIRECTION('',(0.,-1.,0.));
#519=DIRECTION('center_axis',(0.,-1.,0.));
#520=DIRECTION('ref_axis',(1.,0.,0.));
#521=DIRECTION('',(1.,0.,0.));
#522=DIRECTION('',(0.,0.,1.));
#523=DIRECTION('',(-1.,0.,0.));
#524=DIRECTION('center_axis',(0.,0.,1.));
#525=DIRECTION('ref_axis',(1.,0.,0.));
#526=DIRECTION('',(0.,1.,0.));
#527=DIRECTION('',(1.,0.,0.));
#528=DIRECTION('',(0.,-1.,0.));
#529=DIRECTION('',(-1.,0.,0.));
#530=DIRECTION('center_axis',(-1.,0.,0.));
#531=DIRECTION('ref_axis',(0.,-1.,0.));
#532=DIRECTION('',(0.,-1.,0.));
#533=DIRECTION('',(0.,0.,1.));
#534=DIRECTION('center_axis',(0.,1.,0.));
#535=DIRECTION('ref_axis',(-1.,0.,0.));
#536=DIRECTION('',(-1.,0.,0.));
#537=DIRECTION('',(0.,0.,1.));
#538=DIRECTION('center_axis',(1.,0.,0.));
#539=DIRECTION('ref_axis',(0.,1.,0.));
#540=DIRECTION('',(0.,1.,0.));
#541=DIRECTION('',(0.,0.,1.));
#542=DIRECTION('center_axis',(0.,-1.,0.));
#543=DIRECTION('ref_axis',(1.,0.,0.));
#544=DIRECTION('',(1.,0.,0.));
#545=DIRECTION('center_axis',(0.,0.,1.));
#546=DIRECTION('ref_axis',(1.,0.,0.));
#547=CARTESIAN_POINT('',(0.,0.,0.));
#548=CARTESIAN_POINT('Origin',(6.25000000000001,-7.7,2.5));
#549=CARTESIAN_POINT('',(6.25000000000001,-8.7,2.5));
#550=CARTESIAN_POINT('',(7.25000000000001,-7.7,2.5));
#551=CARTESIAN_POINT('Origin',(6.25000000000001,-7.7,2.5));
#552=CARTESIAN_POINT('',(7.25000000000001,-7.7,0.));
#553=CARTESIAN_POINT('',(7.25000000000001,-7.7,2.5));
#554=CARTESIAN_POINT('',(6.25000000000001,-8.7,0.));
#555=CARTESIAN_POINT('Origin',(6.25000000000001,-7.7,0.));
#556=CARTESIAN_POINT('',(6.25000000000001,-8.7,2.5));
#557=CARTESIAN_POINT('Origin',(7.25000000000001,-1.7,2.5));
#558=CARTESIAN_POINT('',(7.25000000000001,-2.7,2.5));
#559=CARTESIAN_POINT('',(7.25000000000001,-0.85,2.5));
#560=CARTESIAN_POINT('',(7.25000000000001,-2.7,0.));
#561=CARTESIAN_POINT('',(7.25000000000001,-2.7,2.5));
#562=CARTESIAN_POINT('',(7.25000000000001,-0.85,0.));
#563=CARTESIAN_POINT('Origin',(-2.74999999999999,-7.7,2.5));
#564=CARTESIAN_POINT('',(-3.75,-7.7,2.5));
#565=CARTESIAN_POINT('',(-2.74999999999999,-8.7,2.5));
#566=CARTESIAN_POINT('Origin',(-2.74999999999999,-7.7,2.5));
#567=CARTESIAN_POINT('',(-2.74999999999999,-8.7,0.));
#568=CARTESIAN_POINT('',(-2.74999999999999,-8.7,2.5));
#569=CARTESIAN_POINT('',(-3.75,-7.7,0.));
#570=CARTESIAN_POINT('Origin',(-2.74999999999999,-7.7,0.));
#571=CARTESIAN_POINT('',(-3.75,-7.7,2.5));
#572=CARTESIAN_POINT('Origin',(7.25000000000001,-8.7,2.5));
#573=CARTESIAN_POINT('',(3.625,-8.7,0.));
#574=CARTESIAN_POINT('',(3.625,-8.7,2.5));
#575=CARTESIAN_POINT('Origin',(-2.74999999999999,-2.7,2.5));
#576=CARTESIAN_POINT('',(-2.75,-1.7,2.5));
#577=CARTESIAN_POINT('',(-3.75,-2.7,2.5));
#578=CARTESIAN_POINT('Origin',(-2.74999999999999,-2.7,2.5));
#579=CARTESIAN_POINT('',(-3.75,-2.7,0.));
#580=CARTESIAN_POINT('',(-3.75,-2.7,2.5));
#581=CARTESIAN_POINT('',(-2.75,-1.7,0.));
#582=CARTESIAN_POINT('Origin',(-2.74999999999999,-2.7,0.));
#583=CARTESIAN_POINT('',(-2.75,-1.7,2.5));
#584=CARTESIAN_POINT('Origin',(-3.75,-8.7,2.5));
#585=CARTESIAN_POINT('',(-3.75,-4.35,0.));
#586=CARTESIAN_POINT('',(-3.75,-4.35,2.5));
#587=CARTESIAN_POINT('Origin',(6.25000000000001,-2.7,2.5));
#588=CARTESIAN_POINT('',(6.25,-1.7,2.5));
#589=CARTESIAN_POINT('Origin',(6.25000000000001,-2.7,2.5));
#590=CARTESIAN_POINT('',(6.25,-1.7,0.));
#591=CARTESIAN_POINT('',(6.25000000000001,-1.7,2.5));
#592=CARTESIAN_POINT('Origin',(6.25000000000001,-2.7,0.));
#593=CARTESIAN_POINT('Origin',(-3.75,-1.7,2.5));
#594=CARTESIAN_POINT('',(-1.875,-1.7,0.));
#595=CARTESIAN_POINT('',(-1.875,-1.7,2.5));
#596=CARTESIAN_POINT('Origin',(-13.25,-8.7,2.5));
#597=CARTESIAN_POINT('',(-11.25,-8.7,2.5));
#598=CARTESIAN_POINT('',(-13.25,-6.7,2.5));
#599=CARTESIAN_POINT('Origin',(-13.25,-8.7,2.5));
#600=CARTESIAN_POINT('',(-13.25,-6.7,0.));
#601=CARTESIAN_POINT('',(-13.25,-6.7,2.5));
#602=CARTESIAN_POINT('',(-11.25,-8.7,0.));
#603=CARTESIAN_POINT('Origin',(-13.25,-8.7,0.));
#604=CARTESIAN_POINT('',(-11.25,-8.7,2.5));
#605=CARTESIAN_POINT('Origin',(-22.25,-6.7,2.5));
#606=CARTESIAN_POINT('',(-20.25,-6.7,2.5));
#607=CARTESIAN_POINT('',(-11.125,-6.7,2.5));
#608=CARTESIAN_POINT('',(-20.25,-6.7,0.));
#609=CARTESIAN_POINT('',(-20.25,-6.7,2.5));
#610=CARTESIAN_POINT('',(-11.125,-6.7,0.));
#611=CARTESIAN_POINT('Origin',(-20.25,-8.7,2.5));
#612=CARTESIAN_POINT('',(-22.25,-8.7,2.5));
#613=CARTESIAN_POINT('Origin',(-20.25,-8.7,2.5));
#614=CARTESIAN_POINT('',(-22.25,-8.7,0.));
#615=CARTESIAN_POINT('',(-22.25,-8.7,2.5));
#616=CARTESIAN_POINT('Origin',(-20.25,-8.7,0.));
#617=CARTESIAN_POINT('Origin',(-22.25,-23.2,2.5));
#618=CARTESIAN_POINT('',(-22.25,-23.2,2.5));
#619=CARTESIAN_POINT('',(-22.25,-11.6,2.5));
#620=CARTESIAN_POINT('',(-22.25,-23.2,0.));
#621=CARTESIAN_POINT('',(-22.25,-23.2,1.25));
#622=CARTESIAN_POINT('',(-22.25,-11.6,0.));
#623=CARTESIAN_POINT('Origin',(-11.25,-6.7,2.5));
#624=CARTESIAN_POINT('',(-11.25,-23.2,0.));
#625=CARTESIAN_POINT('',(-11.25,-3.35,0.));
#626=CARTESIAN_POINT('',(-11.25,-23.2,2.5));
#627=CARTESIAN_POINT('',(-11.25,-23.2,1.25));
#628=CARTESIAN_POINT('',(-11.25,-3.35,2.5));
#629=CARTESIAN_POINT('Origin',(-47.25,-23.2,0.));
#630=CARTESIAN_POINT('',(-47.25,-23.2,2.5));
#631=CARTESIAN_POINT('',(47.25,-23.2,2.5));
#632=CARTESIAN_POINT('',(-47.25,-23.2,0.));
#633=CARTESIAN_POINT('',(-47.25,-23.2,0.));
#634=CARTESIAN_POINT('',(47.25,-23.2,0.));
#635=CARTESIAN_POINT('Origin',(0.,0.,0.));
#636=CARTESIAN_POINT('',(-47.25,23.2,0.));
#637=CARTESIAN_POINT('',(-47.25,-23.2,0.));
#638=CARTESIAN_POINT('',(47.25,23.2,0.));
#639=CARTESIAN_POINT('',(-47.25,23.2,0.));
#640=CARTESIAN_POINT('',(47.25,-23.2,0.));
#641=CARTESIAN_POINT('',(47.25,23.2,0.));
#642=CARTESIAN_POINT('',(47.25,-23.2,0.));
#643=CARTESIAN_POINT('Origin',(-47.25,23.2,0.));
#644=CARTESIAN_POINT('',(-47.25,23.2,2.5));
#645=CARTESIAN_POINT('',(-47.25,-23.2,2.5));
#646=CARTESIAN_POINT('',(-47.25,23.2,0.));
#647=CARTESIAN_POINT('Origin',(47.25,23.2,0.));
#648=CARTESIAN_POINT('',(47.25,23.2,2.5));
#649=CARTESIAN_POINT('',(-47.25,23.2,2.5));
#650=CARTESIAN_POINT('',(47.25,23.2,0.));
#651=CARTESIAN_POINT('Origin',(47.25,-23.2,0.));
#652=CARTESIAN_POINT('',(47.25,-23.2,2.5));
#653=CARTESIAN_POINT('',(47.25,23.2,2.5));
#654=CARTESIAN_POINT('',(47.25,-23.2,0.));
#655=CARTESIAN_POINT('Origin',(-47.25,-23.2,0.));
#656=CARTESIAN_POINT('',(47.25,-23.2,2.5));
#657=CARTESIAN_POINT('Origin',(0.,0.,2.5));
#658=UNCERTAINTY_MEASURE_WITH_UNIT(LENGTH_MEASURE(0.01),#662,
'DISTANCE_ACCURACY_VALUE',
'Maximum model space distance between geometric entities at asserted c
onnectivities');
#659=UNCERTAINTY_MEASURE_WITH_UNIT(LENGTH_MEASURE(0.01),#662,
'DISTANCE_ACCURACY_VALUE',
'Maximum model space distance between geometric entities at asserted c
onnectivities');
#660=(
GEOMETRIC_REPRESENTATION_CONTEXT(3)
GLOBAL_UNCERTAINTY_ASSIGNED_CONTEXT((#658))
GLOBAL_UNIT_ASSIGNED_CONTEXT((#662,#664,#665))
REPRESENTATION_CONTEXT('','3D')
);
#661=(
GEOMETRIC_REPRESENTATION_CONTEXT(3)
GLOBAL_UNCERTAINTY_ASSIGNED_CONTEXT((#659))
GLOBAL_UNIT_ASSIGNED_CONTEXT((#662,#664,#665))
REPRESENTATION_CONTEXT('','3D')
);
#662=(
LENGTH_UNIT()
NAMED_UNIT(*)
SI_UNIT(.MILLI.,.METRE.)
);
#663=(
LENGTH_UNIT()
NAMED_UNIT(*)
SI_UNIT($,.METRE.)
);
#664=(
NAMED_UNIT(*)
PLANE_ANGLE_UNIT()
SI_UNIT($,.RADIAN.)
);
#665=(
NAMED_UNIT(*)
SI_UNIT($,.STERADIAN.)
SOLID_ANGLE_UNIT()
);
#666=SHAPE_DEFINITION_REPRESENTATION(#667,#668);
#667=PRODUCT_DEFINITION_SHAPE('',$,#670);
#668=SHAPE_REPRESENTATION('',(#406),#660);
#669=PRODUCT_DEFINITION_CONTEXT('part definition',#674,'design');
#670=PRODUCT_DEFINITION('2026-07-12-16-58-24-153','PCB Front Panel',#671,
#669);
#671=PRODUCT_DEFINITION_FORMATION('',$,#676);
#672=PRODUCT_RELATED_PRODUCT_CATEGORY('PCB Front Panel',
'PCB Front Panel',(#676));
#673=APPLICATION_PROTOCOL_DEFINITION('international standard',
'automotive_design',2009,#674);
#674=APPLICATION_CONTEXT(
'Core Data for Automotive Mechanical Design Process');
#675=PRODUCT_CONTEXT('part definition',#674,'mechanical');
#676=PRODUCT('2026-07-12-16-58-24-153','PCB Front Panel',$,(#675));
#677=PRESENTATION_STYLE_ASSIGNMENT((#678));
#678=SURFACE_STYLE_USAGE(.BOTH.,#679);
#679=SURFACE_SIDE_STYLE('',(#680));
#680=SURFACE_STYLE_FILL_AREA(#681);
#681=FILL_AREA_STYLE('Steel - Satin',(#682));
#682=FILL_AREA_STYLE_COLOUR('Steel - Satin',#683);
#683=COLOUR_RGB('Steel - Satin',0.627450980392157,0.627450980392157,0.627450980392157);
ENDSEC;
END-ISO-10303-21;
