ISO-10303-21;
HEADER;
/* Generated by software containing ST-Developer
 * from STEP Tools, Inc. (www.steptools.com) 
 */

FILE_DESCRIPTION(
/* description */ (''),
/* implementation_level */ '2;1');

FILE_NAME(
/* name */ 'Sample_Stage.step',
/* time_stamp */ '2026-08-18T16:12:00-04:00',
/* author */ (''),
/* organization */ (''),
/* preprocessor_version */ 'ST-DEVELOPER v20.1',
/* originating_system */ 'Autodesk Translation Framework v15.8.0.0',
/* authorisation */ '');

FILE_SCHEMA (('AUTOMOTIVE_DESIGN { 1 0 10303 214 3 1 1 }'));
ENDSEC;

DATA;
#10=MECHANICAL_DESIGN_GEOMETRIC_PRESENTATION_REPRESENTATION('',(#13),#669);
#11=SHAPE_REPRESENTATION_RELATIONSHIP('SRR','None',#676,#12);
#12=ADVANCED_BREP_SHAPE_REPRESENTATION('',(#14),#668);
#13=STYLED_ITEM('',(#685),#14);
#14=MANIFOLD_SOLID_BREP('Body1',#409);
#15=CYLINDRICAL_SURFACE('',#440,1.25);
#16=CYLINDRICAL_SURFACE('',#442,1.25);
#17=CYLINDRICAL_SURFACE('',#444,1.25);
#18=CYLINDRICAL_SURFACE('',#446,1.25);
#19=FACE_BOUND('',#60,.T.);
#20=FACE_BOUND('',#61,.T.);
#21=FACE_BOUND('',#69,.T.);
#22=FACE_BOUND('',#70,.T.);
#23=FACE_BOUND('',#79,.T.);
#24=FACE_BOUND('',#80,.T.);
#25=FACE_BOUND('',#81,.T.);
#26=FACE_BOUND('',#82,.T.);
#27=CIRCLE('',#428,1.25);
#28=CIRCLE('',#429,1.25);
#29=CIRCLE('',#437,1.25);
#30=CIRCLE('',#438,1.25);
#31=CIRCLE('',#441,1.25);
#32=CIRCLE('',#443,1.25);
#33=CIRCLE('',#445,1.25);
#34=CIRCLE('',#447,1.25);
#35=FACE_OUTER_BOUND('',#55,.T.);
#36=FACE_OUTER_BOUND('',#56,.T.);
#37=FACE_OUTER_BOUND('',#57,.T.);
#38=FACE_OUTER_BOUND('',#58,.T.);
#39=FACE_OUTER_BOUND('',#59,.T.);
#40=FACE_OUTER_BOUND('',#62,.T.);
#41=FACE_OUTER_BOUND('',#63,.T.);
#42=FACE_OUTER_BOUND('',#64,.T.);
#43=FACE_OUTER_BOUND('',#65,.T.);
#44=FACE_OUTER_BOUND('',#66,.T.);
#45=FACE_OUTER_BOUND('',#67,.T.);
#46=FACE_OUTER_BOUND('',#68,.T.);
#47=FACE_OUTER_BOUND('',#71,.T.);
#48=FACE_OUTER_BOUND('',#72,.T.);
#49=FACE_OUTER_BOUND('',#73,.T.);
#50=FACE_OUTER_BOUND('',#74,.T.);
#51=FACE_OUTER_BOUND('',#75,.T.);
#52=FACE_OUTER_BOUND('',#76,.T.);
#53=FACE_OUTER_BOUND('',#77,.T.);
#54=FACE_OUTER_BOUND('',#78,.T.);
#55=EDGE_LOOP('',(#265,#266,#267,#268));
#56=EDGE_LOOP('',(#269,#270,#271,#272));
#57=EDGE_LOOP('',(#273,#274,#275,#276));
#58=EDGE_LOOP('',(#277,#278,#279,#280,#281,#282,#283,#284,#285,#286,#287,
#288,#289,#290));
#59=EDGE_LOOP('',(#291,#292,#293,#294));
#60=EDGE_LOOP('',(#295));
#61=EDGE_LOOP('',(#296));
#62=EDGE_LOOP('',(#297,#298,#299,#300));
#63=EDGE_LOOP('',(#301,#302,#303,#304));
#64=EDGE_LOOP('',(#305,#306,#307,#308));
#65=EDGE_LOOP('',(#309,#310,#311,#312));
#66=EDGE_LOOP('',(#313,#314,#315,#316));
#67=EDGE_LOOP('',(#317,#318,#319,#320));
#68=EDGE_LOOP('',(#321,#322,#323,#324));
#69=EDGE_LOOP('',(#325));
#70=EDGE_LOOP('',(#326));
#71=EDGE_LOOP('',(#327,#328,#329,#330,#331,#332,#333,#334,#335,#336,#337,
#338,#339,#340));
#72=EDGE_LOOP('',(#341,#342,#343,#344));
#73=EDGE_LOOP('',(#345,#346,#347,#348));
#74=EDGE_LOOP('',(#349,#350,#351,#352));
#75=EDGE_LOOP('',(#353,#354,#355,#356));
#76=EDGE_LOOP('',(#357,#358,#359,#360));
#77=EDGE_LOOP('',(#361,#362,#363,#364));
#78=EDGE_LOOP('',(#365,#366,#367,#368));
#79=EDGE_LOOP('',(#369));
#80=EDGE_LOOP('',(#370));
#81=EDGE_LOOP('',(#371));
#82=EDGE_LOOP('',(#372));
#83=LINE('',#559,#129);
#84=LINE('',#561,#130);
#85=LINE('',#563,#131);
#86=LINE('',#564,#132);
#87=LINE('',#568,#133);
#88=LINE('',#570,#134);
#89=LINE('',#572,#135);
#90=LINE('',#573,#136);
#91=LINE('',#575,#137);
#92=LINE('',#576,#138);
#93=LINE('',#579,#139);
#94=LINE('',#581,#140);
#95=LINE('',#583,#141);
#96=LINE('',#585,#142);
#97=LINE('',#587,#143);
#98=LINE('',#589,#144);
#99=LINE('',#591,#145);
#100=LINE('',#593,#146);
#101=LINE('',#595,#147);
#102=LINE('',#597,#148);
#103=LINE('',#598,#149);
#104=LINE('',#601,#150);
#105=LINE('',#602,#151);
#106=LINE('',#610,#152);
#107=LINE('',#611,#153);
#108=LINE('',#612,#154);
#109=LINE('',#616,#155);
#110=LINE('',#617,#156);
#111=LINE('',#618,#157);
#112=LINE('',#620,#158);
#113=LINE('',#623,#159);
#114=LINE('',#624,#160);
#115=LINE('',#627,#161);
#116=LINE('',#628,#162);
#117=LINE('',#630,#163);
#118=LINE('',#633,#164);
#119=LINE('',#634,#165);
#120=LINE('',#641,#166);
#121=LINE('',#643,#167);
#122=LINE('',#644,#168);
#123=LINE('',#648,#169);
#124=LINE('',#652,#170);
#125=LINE('',#656,#171);
#126=LINE('',#660,#172);
#127=LINE('',#662,#173);
#128=LINE('',#664,#174);
#129=VECTOR('',#455,10.);
#130=VECTOR('',#456,10.);
#131=VECTOR('',#457,10.);
#132=VECTOR('',#458,10.);
#133=VECTOR('',#461,10.);
#134=VECTOR('',#462,10.);
#135=VECTOR('',#463,10.);
#136=VECTOR('',#464,10.);
#137=VECTOR('',#467,10.);
#138=VECTOR('',#468,10.);
#139=VECTOR('',#471,10.);
#140=VECTOR('',#472,10.);
#141=VECTOR('',#473,10.);
#142=VECTOR('',#474,10.);
#143=VECTOR('',#475,10.);
#144=VECTOR('',#476,10.);
#145=VECTOR('',#477,10.);
#146=VECTOR('',#478,10.);
#147=VECTOR('',#479,10.);
#148=VECTOR('',#480,10.);
#149=VECTOR('',#481,10.);
#150=VECTOR('',#484,10.);
#151=VECTOR('',#485,10.);
#152=VECTOR('',#492,10.);
#153=VECTOR('',#493,10.);
#154=VECTOR('',#494,10.);
#155=VECTOR('',#497,10.);
#156=VECTOR('',#498,10.);
#157=VECTOR('',#499,10.);
#158=VECTOR('',#502,10.);
#159=VECTOR('',#505,10.);
#160=VECTOR('',#506,10.);
#161=VECTOR('',#509,10.);
#162=VECTOR('',#510,10.);
#163=VECTOR('',#513,10.);
#164=VECTOR('',#516,10.);
#165=VECTOR('',#517,10.);
#166=VECTOR('',#524,10.);
#167=VECTOR('',#525,10.);
#168=VECTOR('',#526,10.);
#169=VECTOR('',#531,1.25);
#170=VECTOR('',#536,1.25);
#171=VECTOR('',#541,1.25);
#172=VECTOR('',#546,1.25);
#173=VECTOR('',#549,10.);
#174=VECTOR('',#552,10.);
#175=VERTEX_POINT('',#557);
#176=VERTEX_POINT('',#558);
#177=VERTEX_POINT('',#560);
#178=VERTEX_POINT('',#562);
#179=VERTEX_POINT('',#566);
#180=VERTEX_POINT('',#567);
#181=VERTEX_POINT('',#569);
#182=VERTEX_POINT('',#571);
#183=VERTEX_POINT('',#578);
#184=VERTEX_POINT('',#580);
#185=VERTEX_POINT('',#582);
#186=VERTEX_POINT('',#584);
#187=VERTEX_POINT('',#586);
#188=VERTEX_POINT('',#588);
#189=VERTEX_POINT('',#590);
#190=VERTEX_POINT('',#592);
#191=VERTEX_POINT('',#594);
#192=VERTEX_POINT('',#596);
#193=VERTEX_POINT('',#600);
#194=VERTEX_POINT('',#603);
#195=VERTEX_POINT('',#605);
#196=VERTEX_POINT('',#608);
#197=VERTEX_POINT('',#609);
#198=VERTEX_POINT('',#614);
#199=VERTEX_POINT('',#615);
#200=VERTEX_POINT('',#622);
#201=VERTEX_POINT('',#626);
#202=VERTEX_POINT('',#632);
#203=VERTEX_POINT('',#635);
#204=VERTEX_POINT('',#637);
#205=VERTEX_POINT('',#640);
#206=VERTEX_POINT('',#642);
#207=VERTEX_POINT('',#646);
#208=VERTEX_POINT('',#650);
#209=VERTEX_POINT('',#654);
#210=VERTEX_POINT('',#658);
#211=EDGE_CURVE('',#175,#176,#83,.T.);
#212=EDGE_CURVE('',#177,#175,#84,.T.);
#213=EDGE_CURVE('',#177,#178,#85,.T.);
#214=EDGE_CURVE('',#176,#178,#86,.T.);
#215=EDGE_CURVE('',#179,#180,#87,.T.);
#216=EDGE_CURVE('',#181,#179,#88,.T.);
#217=EDGE_CURVE('',#181,#182,#89,.T.);
#218=EDGE_CURVE('',#180,#182,#90,.T.);
#219=EDGE_CURVE('',#178,#181,#91,.T.);
#220=EDGE_CURVE('',#182,#177,#92,.T.);
#221=EDGE_CURVE('',#183,#175,#93,.T.);
#222=EDGE_CURVE('',#183,#184,#94,.T.);
#223=EDGE_CURVE('',#185,#184,#95,.T.);
#224=EDGE_CURVE('',#186,#185,#96,.T.);
#225=EDGE_CURVE('',#187,#186,#97,.T.);
#226=EDGE_CURVE('',#187,#188,#98,.T.);
#227=EDGE_CURVE('',#188,#189,#99,.T.);
#228=EDGE_CURVE('',#189,#190,#100,.T.);
#229=EDGE_CURVE('',#191,#190,#101,.T.);
#230=EDGE_CURVE('',#191,#192,#102,.T.);
#231=EDGE_CURVE('',#192,#180,#103,.T.);
#232=EDGE_CURVE('',#176,#193,#104,.T.);
#233=EDGE_CURVE('',#193,#183,#105,.T.);
#234=EDGE_CURVE('',#194,#194,#27,.T.);
#235=EDGE_CURVE('',#195,#195,#28,.T.);
#236=EDGE_CURVE('',#196,#197,#106,.T.);
#237=EDGE_CURVE('',#196,#188,#107,.T.);
#238=EDGE_CURVE('',#197,#187,#108,.T.);
#239=EDGE_CURVE('',#198,#199,#109,.T.);
#240=EDGE_CURVE('',#190,#198,#110,.T.);
#241=EDGE_CURVE('',#189,#199,#111,.T.);
#242=EDGE_CURVE('',#199,#196,#112,.T.);
#243=EDGE_CURVE('',#198,#200,#113,.T.);
#244=EDGE_CURVE('',#200,#191,#114,.T.);
#245=EDGE_CURVE('',#201,#200,#115,.T.);
#246=EDGE_CURVE('',#201,#192,#116,.T.);
#247=EDGE_CURVE('',#179,#201,#117,.T.);
#248=EDGE_CURVE('',#186,#202,#118,.T.);
#249=EDGE_CURVE('',#202,#197,#119,.T.);
#250=EDGE_CURVE('',#203,#203,#29,.T.);
#251=EDGE_CURVE('',#204,#204,#30,.T.);
#252=EDGE_CURVE('',#202,#205,#120,.T.);
#253=EDGE_CURVE('',#206,#205,#121,.T.);
#254=EDGE_CURVE('',#193,#206,#122,.T.);
#255=EDGE_CURVE('',#207,#207,#31,.T.);
#256=EDGE_CURVE('',#207,#204,#123,.T.);
#257=EDGE_CURVE('',#208,#208,#32,.T.);
#258=EDGE_CURVE('',#208,#203,#124,.T.);
#259=EDGE_CURVE('',#209,#209,#33,.T.);
#260=EDGE_CURVE('',#209,#195,#125,.T.);
#261=EDGE_CURVE('',#210,#210,#34,.T.);
#262=EDGE_CURVE('',#210,#194,#126,.T.);
#263=EDGE_CURVE('',#184,#206,#127,.T.);
#264=EDGE_CURVE('',#205,#185,#128,.T.);
#265=ORIENTED_EDGE('',*,*,#211,.F.);
#266=ORIENTED_EDGE('',*,*,#212,.F.);
#267=ORIENTED_EDGE('',*,*,#213,.T.);
#268=ORIENTED_EDGE('',*,*,#214,.F.);
#269=ORIENTED_EDGE('',*,*,#215,.F.);
#270=ORIENTED_EDGE('',*,*,#216,.F.);
#271=ORIENTED_EDGE('',*,*,#217,.T.);
#272=ORIENTED_EDGE('',*,*,#218,.F.);
#273=ORIENTED_EDGE('',*,*,#219,.F.);
#274=ORIENTED_EDGE('',*,*,#213,.F.);
#275=ORIENTED_EDGE('',*,*,#220,.F.);
#276=ORIENTED_EDGE('',*,*,#217,.F.);
#277=ORIENTED_EDGE('',*,*,#218,.T.);
#278=ORIENTED_EDGE('',*,*,#220,.T.);
#279=ORIENTED_EDGE('',*,*,#212,.T.);
#280=ORIENTED_EDGE('',*,*,#221,.F.);
#281=ORIENTED_EDGE('',*,*,#222,.T.);
#282=ORIENTED_EDGE('',*,*,#223,.F.);
#283=ORIENTED_EDGE('',*,*,#224,.F.);
#284=ORIENTED_EDGE('',*,*,#225,.F.);
#285=ORIENTED_EDGE('',*,*,#226,.T.);
#286=ORIENTED_EDGE('',*,*,#227,.T.);
#287=ORIENTED_EDGE('',*,*,#228,.T.);
#288=ORIENTED_EDGE('',*,*,#229,.F.);
#289=ORIENTED_EDGE('',*,*,#230,.T.);
#290=ORIENTED_EDGE('',*,*,#231,.T.);
#291=ORIENTED_EDGE('',*,*,#211,.T.);
#292=ORIENTED_EDGE('',*,*,#232,.T.);
#293=ORIENTED_EDGE('',*,*,#233,.T.);
#294=ORIENTED_EDGE('',*,*,#221,.T.);
#295=ORIENTED_EDGE('',*,*,#234,.F.);
#296=ORIENTED_EDGE('',*,*,#235,.F.);
#297=ORIENTED_EDGE('',*,*,#236,.F.);
#298=ORIENTED_EDGE('',*,*,#237,.T.);
#299=ORIENTED_EDGE('',*,*,#226,.F.);
#300=ORIENTED_EDGE('',*,*,#238,.F.);
#301=ORIENTED_EDGE('',*,*,#239,.F.);
#302=ORIENTED_EDGE('',*,*,#240,.F.);
#303=ORIENTED_EDGE('',*,*,#228,.F.);
#304=ORIENTED_EDGE('',*,*,#241,.T.);
#305=ORIENTED_EDGE('',*,*,#242,.F.);
#306=ORIENTED_EDGE('',*,*,#241,.F.);
#307=ORIENTED_EDGE('',*,*,#227,.F.);
#308=ORIENTED_EDGE('',*,*,#237,.F.);
#309=ORIENTED_EDGE('',*,*,#240,.T.);
#310=ORIENTED_EDGE('',*,*,#243,.T.);
#311=ORIENTED_EDGE('',*,*,#244,.T.);
#312=ORIENTED_EDGE('',*,*,#229,.T.);
#313=ORIENTED_EDGE('',*,*,#230,.F.);
#314=ORIENTED_EDGE('',*,*,#244,.F.);
#315=ORIENTED_EDGE('',*,*,#245,.F.);
#316=ORIENTED_EDGE('',*,*,#246,.T.);
#317=ORIENTED_EDGE('',*,*,#215,.T.);
#318=ORIENTED_EDGE('',*,*,#231,.F.);
#319=ORIENTED_EDGE('',*,*,#246,.F.);
#320=ORIENTED_EDGE('',*,*,#247,.F.);
#321=ORIENTED_EDGE('',*,*,#238,.T.);
#322=ORIENTED_EDGE('',*,*,#225,.T.);
#323=ORIENTED_EDGE('',*,*,#248,.T.);
#324=ORIENTED_EDGE('',*,*,#249,.T.);
#325=ORIENTED_EDGE('',*,*,#250,.F.);
#326=ORIENTED_EDGE('',*,*,#251,.F.);
#327=ORIENTED_EDGE('',*,*,#216,.T.);
#328=ORIENTED_EDGE('',*,*,#247,.T.);
#329=ORIENTED_EDGE('',*,*,#245,.T.);
#330=ORIENTED_EDGE('',*,*,#243,.F.);
#331=ORIENTED_EDGE('',*,*,#239,.T.);
#332=ORIENTED_EDGE('',*,*,#242,.T.);
#333=ORIENTED_EDGE('',*,*,#236,.T.);
#334=ORIENTED_EDGE('',*,*,#249,.F.);
#335=ORIENTED_EDGE('',*,*,#252,.T.);
#336=ORIENTED_EDGE('',*,*,#253,.F.);
#337=ORIENTED_EDGE('',*,*,#254,.F.);
#338=ORIENTED_EDGE('',*,*,#232,.F.);
#339=ORIENTED_EDGE('',*,*,#214,.T.);
#340=ORIENTED_EDGE('',*,*,#219,.T.);
#341=ORIENTED_EDGE('',*,*,#255,.F.);
#342=ORIENTED_EDGE('',*,*,#256,.T.);
#343=ORIENTED_EDGE('',*,*,#251,.T.);
#344=ORIENTED_EDGE('',*,*,#256,.F.);
#345=ORIENTED_EDGE('',*,*,#257,.F.);
#346=ORIENTED_EDGE('',*,*,#258,.T.);
#347=ORIENTED_EDGE('',*,*,#250,.T.);
#348=ORIENTED_EDGE('',*,*,#258,.F.);
#349=ORIENTED_EDGE('',*,*,#259,.F.);
#350=ORIENTED_EDGE('',*,*,#260,.T.);
#351=ORIENTED_EDGE('',*,*,#235,.T.);
#352=ORIENTED_EDGE('',*,*,#260,.F.);
#353=ORIENTED_EDGE('',*,*,#261,.F.);
#354=ORIENTED_EDGE('',*,*,#262,.T.);
#355=ORIENTED_EDGE('',*,*,#234,.T.);
#356=ORIENTED_EDGE('',*,*,#262,.F.);
#357=ORIENTED_EDGE('',*,*,#233,.F.);
#358=ORIENTED_EDGE('',*,*,#254,.T.);
#359=ORIENTED_EDGE('',*,*,#263,.F.);
#360=ORIENTED_EDGE('',*,*,#222,.F.);
#361=ORIENTED_EDGE('',*,*,#248,.F.);
#362=ORIENTED_EDGE('',*,*,#224,.T.);
#363=ORIENTED_EDGE('',*,*,#264,.F.);
#364=ORIENTED_EDGE('',*,*,#252,.F.);
#365=ORIENTED_EDGE('',*,*,#253,.T.);
#366=ORIENTED_EDGE('',*,*,#264,.T.);
#367=ORIENTED_EDGE('',*,*,#223,.T.);
#368=ORIENTED_EDGE('',*,*,#263,.T.);
#369=ORIENTED_EDGE('',*,*,#261,.T.);
#370=ORIENTED_EDGE('',*,*,#259,.T.);
#371=ORIENTED_EDGE('',*,*,#257,.T.);
#372=ORIENTED_EDGE('',*,*,#255,.T.);
#373=PLANE('',#423);
#374=PLANE('',#424);
#375=PLANE('',#425);
#376=PLANE('',#426);
#377=PLANE('',#427);
#378=PLANE('',#430);
#379=PLANE('',#431);
#380=PLANE('',#432);
#381=PLANE('',#433);
#382=PLANE('',#434);
#383=PLANE('',#435);
#384=PLANE('',#436);
#385=PLANE('',#439);
#386=PLANE('',#448);
#387=PLANE('',#449);
#388=PLANE('',#450);
#389=ADVANCED_FACE('',(#35),#373,.F.);
#390=ADVANCED_FACE('',(#36),#374,.F.);
#391=ADVANCED_FACE('',(#37),#375,.F.);
#392=ADVANCED_FACE('',(#38),#376,.T.);
#393=ADVANCED_FACE('',(#39,#19,#20),#377,.F.);
#394=ADVANCED_FACE('',(#40),#378,.F.);
#395=ADVANCED_FACE('',(#41),#379,.F.);
#396=ADVANCED_FACE('',(#42),#380,.F.);
#397=ADVANCED_FACE('',(#43),#381,.F.);
#398=ADVANCED_FACE('',(#44),#382,.F.);
#399=ADVANCED_FACE('',(#45),#383,.F.);
#400=ADVANCED_FACE('',(#46,#21,#22),#384,.F.);
#401=ADVANCED_FACE('',(#47),#385,.T.);
#402=ADVANCED_FACE('',(#48),#15,.F.);
#403=ADVANCED_FACE('',(#49),#16,.F.);
#404=ADVANCED_FACE('',(#50),#17,.F.);
#405=ADVANCED_FACE('',(#51),#18,.F.);
#406=ADVANCED_FACE('',(#52),#386,.T.);
#407=ADVANCED_FACE('',(#53),#387,.T.);
#408=ADVANCED_FACE('',(#54,#23,#24,#25,#26),#388,.T.);
#409=CLOSED_SHELL('',(#389,#390,#391,#392,#393,#394,#395,#396,#397,#398,
#399,#400,#401,#402,#403,#404,#405,#406,#407,#408));
#410=DERIVED_UNIT_ELEMENT(#412,1.);
#411=DERIVED_UNIT_ELEMENT(#671,-3.);
#412=(
MASS_UNIT()
NAMED_UNIT(*)
SI_UNIT(.KILO.,.GRAM.)
);
#413=DERIVED_UNIT((#410,#411));
#414=MEASURE_REPRESENTATION_ITEM('density measure',
POSITIVE_RATIO_MEASURE(7850.),#413);
#415=PROPERTY_DEFINITION_REPRESENTATION(#420,#417);
#416=PROPERTY_DEFINITION_REPRESENTATION(#421,#418);
#417=REPRESENTATION('material name',(#419),#668);
#418=REPRESENTATION('density',(#414),#668);
#419=DESCRIPTIVE_REPRESENTATION_ITEM('Steel','Steel');
#420=PROPERTY_DEFINITION('material property','material name',#678);
#421=PROPERTY_DEFINITION('material property','density of part',#678);
#422=AXIS2_PLACEMENT_3D('',#555,#451,#452);
#423=AXIS2_PLACEMENT_3D('',#556,#453,#454);
#424=AXIS2_PLACEMENT_3D('',#565,#459,#460);
#425=AXIS2_PLACEMENT_3D('',#574,#465,#466);
#426=AXIS2_PLACEMENT_3D('',#577,#469,#470);
#427=AXIS2_PLACEMENT_3D('',#599,#482,#483);
#428=AXIS2_PLACEMENT_3D('',#604,#486,#487);
#429=AXIS2_PLACEMENT_3D('',#606,#488,#489);
#430=AXIS2_PLACEMENT_3D('',#607,#490,#491);
#431=AXIS2_PLACEMENT_3D('',#613,#495,#496);
#432=AXIS2_PLACEMENT_3D('',#619,#500,#501);
#433=AXIS2_PLACEMENT_3D('',#621,#503,#504);
#434=AXIS2_PLACEMENT_3D('',#625,#507,#508);
#435=AXIS2_PLACEMENT_3D('',#629,#511,#512);
#436=AXIS2_PLACEMENT_3D('',#631,#514,#515);
#437=AXIS2_PLACEMENT_3D('',#636,#518,#519);
#438=AXIS2_PLACEMENT_3D('',#638,#520,#521);
#439=AXIS2_PLACEMENT_3D('',#639,#522,#523);
#440=AXIS2_PLACEMENT_3D('',#645,#527,#528);
#441=AXIS2_PLACEMENT_3D('',#647,#529,#530);
#442=AXIS2_PLACEMENT_3D('',#649,#532,#533);
#443=AXIS2_PLACEMENT_3D('',#651,#534,#535);
#444=AXIS2_PLACEMENT_3D('',#653,#537,#538);
#445=AXIS2_PLACEMENT_3D('',#655,#539,#540);
#446=AXIS2_PLACEMENT_3D('',#657,#542,#543);
#447=AXIS2_PLACEMENT_3D('',#659,#544,#545);
#448=AXIS2_PLACEMENT_3D('',#661,#547,#548);
#449=AXIS2_PLACEMENT_3D('',#663,#550,#551);
#450=AXIS2_PLACEMENT_3D('',#665,#553,#554);
#451=DIRECTION('axis',(0.,0.,1.));
#452=DIRECTION('refdir',(1.,0.,0.));
#453=DIRECTION('center_axis',(-1.,0.,0.));
#454=DIRECTION('ref_axis',(0.,-1.,0.));
#455=DIRECTION('',(0.,-1.,0.));
#456=DIRECTION('',(0.,0.,-1.));
#457=DIRECTION('',(0.,-1.,0.));
#458=DIRECTION('',(0.,0.,1.));
#459=DIRECTION('center_axis',(1.,0.,0.));
#460=DIRECTION('ref_axis',(0.,1.,0.));
#461=DIRECTION('',(0.,1.,0.));
#462=DIRECTION('',(0.,0.,-1.));
#463=DIRECTION('',(0.,1.,0.));
#464=DIRECTION('',(0.,0.,1.));
#465=DIRECTION('center_axis',(0.,0.,1.));
#466=DIRECTION('ref_axis',(1.,0.,0.));
#467=DIRECTION('',(1.,0.,0.));
#468=DIRECTION('',(-1.,8.13350201190591E-17,0.));
#469=DIRECTION('center_axis',(8.13350201190591E-17,1.,0.));
#470=DIRECTION('ref_axis',(-1.,8.13350201190591E-17,0.));
#471=DIRECTION('',(1.,-8.13350201190591E-17,0.));
#472=DIRECTION('',(0.,0.,1.));
#473=DIRECTION('',(-1.,8.13350201190591E-17,0.));
#474=DIRECTION('',(0.,0.,1.));
#475=DIRECTION('',(1.,-8.13350201190591E-17,0.));
#476=DIRECTION('',(0.,0.,1.));
#477=DIRECTION('',(-1.,8.13350201190591E-17,0.));
#478=DIRECTION('',(0.,0.,-1.));
#479=DIRECTION('',(1.,-8.13350201190591E-17,0.));
#480=DIRECTION('',(0.447213595499958,-3.63741267875059E-17,0.894427190999916));
#481=DIRECTION('',(-1.,8.13350201190591E-17,-1.92153985031277E-16));
#482=DIRECTION('center_axis',(0.,0.,1.));
#483=DIRECTION('ref_axis',(1.,0.,0.));
#484=DIRECTION('',(-1.,0.,0.));
#485=DIRECTION('',(8.13350201190591E-17,1.,0.));
#486=DIRECTION('center_axis',(0.,0.,-1.));
#487=DIRECTION('ref_axis',(1.,0.,0.));
#488=DIRECTION('center_axis',(0.,0.,-1.));
#489=DIRECTION('ref_axis',(1.,0.,0.));
#490=DIRECTION('center_axis',(1.,0.,0.));
#491=DIRECTION('ref_axis',(0.,1.,0.));
#492=DIRECTION('',(0.,0.,-1.));
#493=DIRECTION('',(0.,1.,0.));
#494=DIRECTION('',(0.,1.,0.));
#495=DIRECTION('center_axis',(-1.,0.,0.));
#496=DIRECTION('ref_axis',(0.,-1.,0.));
#497=DIRECTION('',(0.,0.,1.));
#498=DIRECTION('',(0.,-1.,0.));
#499=DIRECTION('',(0.,-1.,0.));
#500=DIRECTION('center_axis',(0.,0.,1.));
#501=DIRECTION('ref_axis',(1.,0.,0.));
#502=DIRECTION('',(1.,0.,0.));
#503=DIRECTION('center_axis',(0.,0.,1.));
#504=DIRECTION('ref_axis',(1.,0.,0.));
#505=DIRECTION('',(-1.,0.,0.));
#506=DIRECTION('',(0.,1.,0.));
#507=DIRECTION('center_axis',(0.894427190999916,0.,-0.447213595499958));
#508=DIRECTION('ref_axis',(-0.447213595499958,0.,-0.894427190999916));
#509=DIRECTION('',(-0.447213595499958,0.,-0.894427190999916));
#510=DIRECTION('',(0.,1.,0.));
#511=DIRECTION('center_axis',(-1.92153985031277E-16,0.,1.));
#512=DIRECTION('ref_axis',(1.,0.,1.92153985031277E-16));
#513=DIRECTION('',(1.,0.,1.92153985031277E-16));
#514=DIRECTION('center_axis',(0.,0.,1.));
#515=DIRECTION('ref_axis',(1.,0.,0.));
#516=DIRECTION('',(4.88010120714354E-16,-1.,0.));
#517=DIRECTION('',(-1.,0.,0.));
#518=DIRECTION('center_axis',(0.,0.,-1.));
#519=DIRECTION('ref_axis',(1.,0.,0.));
#520=DIRECTION('center_axis',(0.,0.,-1.));
#521=DIRECTION('ref_axis',(1.,0.,0.));
#522=DIRECTION('center_axis',(0.,-1.,0.));
#523=DIRECTION('ref_axis',(1.,0.,0.));
#524=DIRECTION('',(0.,0.,1.));
#525=DIRECTION('',(1.,0.,0.));
#526=DIRECTION('',(0.,0.,1.));
#527=DIRECTION('center_axis',(0.,0.,1.));
#528=DIRECTION('ref_axis',(1.,0.,0.));
#529=DIRECTION('center_axis',(0.,0.,-1.));
#530=DIRECTION('ref_axis',(1.,0.,0.));
#531=DIRECTION('',(0.,0.,-1.));
#532=DIRECTION('center_axis',(0.,0.,1.));
#533=DIRECTION('ref_axis',(1.,0.,0.));
#534=DIRECTION('center_axis',(0.,0.,-1.));
#535=DIRECTION('ref_axis',(1.,0.,0.));
#536=DIRECTION('',(0.,0.,-1.));
#537=DIRECTION('center_axis',(0.,0.,1.));
#538=DIRECTION('ref_axis',(1.,0.,0.));
#539=DIRECTION('center_axis',(0.,0.,-1.));
#540=DIRECTION('ref_axis',(1.,0.,0.));
#541=DIRECTION('',(0.,0.,-1.));
#542=DIRECTION('center_axis',(0.,0.,1.));
#543=DIRECTION('ref_axis',(1.,0.,0.));
#544=DIRECTION('center_axis',(0.,0.,-1.));
#545=DIRECTION('ref_axis',(1.,0.,0.));
#546=DIRECTION('',(0.,0.,-1.));
#547=DIRECTION('center_axis',(-1.,8.13350201190591E-17,0.));
#548=DIRECTION('ref_axis',(-8.13350201190591E-17,-1.,0.));
#549=DIRECTION('',(-8.13350201190591E-17,-1.,0.));
#550=DIRECTION('center_axis',(1.,4.88010120714354E-16,0.));
#551=DIRECTION('ref_axis',(-4.88010120714354E-16,1.,0.));
#552=DIRECTION('',(-4.88010120714354E-16,1.,0.));
#553=DIRECTION('center_axis',(0.,0.,1.));
#554=DIRECTION('ref_axis',(1.,0.,0.));
#555=CARTESIAN_POINT('',(0.,0.,0.));
#556=CARTESIAN_POINT('Origin',(-7.9,27.3,6.93889390390723E-17));
#557=CARTESIAN_POINT('',(-7.9,27.3,6.93889390390723E-17));
#558=CARTESIAN_POINT('',(-7.9,-27.3,6.93889390390723E-17));
#559=CARTESIAN_POINT('',(-7.9,13.65,0.));
#560=CARTESIAN_POINT('',(-7.9,27.3,0.8));
#561=CARTESIAN_POINT('',(-7.9,27.3,3.46944695195361E-17));
#562=CARTESIAN_POINT('',(-7.9,-27.3,0.8));
#563=CARTESIAN_POINT('',(-7.9,27.3,0.8));
#564=CARTESIAN_POINT('',(-7.9,-27.3,3.46944695195361E-17));
#565=CARTESIAN_POINT('Origin',(3.1,-27.3,6.93889390390723E-17));
#566=CARTESIAN_POINT('',(3.1,-27.3,0.3));
#567=CARTESIAN_POINT('',(3.1,27.3,0.3));
#568=CARTESIAN_POINT('',(3.1,-27.3,0.3));
#569=CARTESIAN_POINT('',(3.1,-27.3,0.8));
#570=CARTESIAN_POINT('',(3.1,-27.3,3.46944695195361E-17));
#571=CARTESIAN_POINT('',(3.1,27.3,0.8));
#572=CARTESIAN_POINT('',(3.1,-27.3,0.8));
#573=CARTESIAN_POINT('',(3.1,27.3,3.46944695195361E-17));
#574=CARTESIAN_POINT('Origin',(-5.5,-8.88178419700125E-15,0.8));
#575=CARTESIAN_POINT('',(-16.4,-27.3,0.8));
#576=CARTESIAN_POINT('',(10.9,27.3,0.8));
#577=CARTESIAN_POINT('Origin',(27.3,27.3,0.));
#578=CARTESIAN_POINT('',(-27.3,27.3,0.));
#579=CARTESIAN_POINT('',(-27.3,27.3,0.));
#580=CARTESIAN_POINT('',(-27.3,27.3,3.));
#581=CARTESIAN_POINT('',(-27.3,27.3,0.));
#582=CARTESIAN_POINT('',(27.3,27.3,3.));
#583=CARTESIAN_POINT('',(-27.3,27.3,3.));
#584=CARTESIAN_POINT('',(27.3,27.3,0.));
#585=CARTESIAN_POINT('',(27.3,27.3,0.));
#586=CARTESIAN_POINT('',(14.6,27.3,0.));
#587=CARTESIAN_POINT('',(-27.3,27.3,0.));
#588=CARTESIAN_POINT('',(14.6,27.3,1.6));
#589=CARTESIAN_POINT('',(14.6,27.3,0.));
#590=CARTESIAN_POINT('',(3.6,27.3,1.6));
#591=CARTESIAN_POINT('',(18.2,27.3,1.6));
#592=CARTESIAN_POINT('',(3.6,27.3,0.));
#593=CARTESIAN_POINT('',(3.6,27.3,0.));
#594=CARTESIAN_POINT('',(3.1,27.3,0.));
#595=CARTESIAN_POINT('',(-27.3,27.3,0.));
#596=CARTESIAN_POINT('',(3.25,27.3,0.3));
#597=CARTESIAN_POINT('',(5.595,27.3,4.99));
#598=CARTESIAN_POINT('',(12.025,27.3,0.300000000000002));
#599=CARTESIAN_POINT('Origin',(4.44089209850063E-15,-8.88178419700125E-15,
0.));
#600=CARTESIAN_POINT('',(-27.3,-27.3,0.));
#601=CARTESIAN_POINT('',(27.3,-27.3,0.));
#602=CARTESIAN_POINT('',(-27.3,-27.3,0.));
#603=CARTESIAN_POINT('',(-24.1,-20.5,0.));
#604=CARTESIAN_POINT('Origin',(-22.85,-20.5,0.));
#605=CARTESIAN_POINT('',(-24.1,20.5,0.));
#606=CARTESIAN_POINT('Origin',(-22.85,20.5,0.));
#607=CARTESIAN_POINT('Origin',(14.6,-27.7,0.));
#608=CARTESIAN_POINT('',(14.6,-27.3,1.6));
#609=CARTESIAN_POINT('',(14.6,-27.3,0.));
#610=CARTESIAN_POINT('',(14.6,-27.3,0.));
#611=CARTESIAN_POINT('',(14.6,-27.7,1.6));
#612=CARTESIAN_POINT('',(14.6,-13.85,0.));
#613=CARTESIAN_POINT('Origin',(3.6,27.3,0.));
#614=CARTESIAN_POINT('',(3.6,-27.3,0.));
#615=CARTESIAN_POINT('',(3.6,-27.3,1.6));
#616=CARTESIAN_POINT('',(3.6,-27.3,0.));
#617=CARTESIAN_POINT('',(3.6,13.65,0.));
#618=CARTESIAN_POINT('',(3.6,27.3,1.6));
#619=CARTESIAN_POINT('Origin',(9.1,-0.200000000000005,1.6));
#620=CARTESIAN_POINT('',(-9.10000000000001,-27.3,1.6));
#621=CARTESIAN_POINT('Origin',(4.44089209850063E-15,-8.88178419700125E-15,
0.));
#622=CARTESIAN_POINT('',(3.1,-27.3,0.));
#623=CARTESIAN_POINT('',(27.3,-27.3,0.));
#624=CARTESIAN_POINT('',(3.1,-13.65,6.93889390390723E-17));
#625=CARTESIAN_POINT('Origin',(3.25,-27.3,0.3));
#626=CARTESIAN_POINT('',(3.25,-27.3,0.3));
#627=CARTESIAN_POINT('',(0.134999999999998,-27.3,-5.93000000000001));
#628=CARTESIAN_POINT('',(3.25,-27.3,0.3));
#629=CARTESIAN_POINT('Origin',(-3.25,-27.3,0.299999999999999));
#630=CARTESIAN_POINT('',(-15.275,-27.3,0.299999999999996));
#631=CARTESIAN_POINT('Origin',(4.44089209850063E-15,-8.88178419700125E-15,
0.));
#632=CARTESIAN_POINT('',(27.3,-27.3,0.));
#633=CARTESIAN_POINT('',(27.3,27.3,0.));
#634=CARTESIAN_POINT('',(27.3,-27.3,0.));
#635=CARTESIAN_POINT('',(21.6,20.5,0.));
#636=CARTESIAN_POINT('Origin',(22.85,20.5,0.));
#637=CARTESIAN_POINT('',(21.6,-20.5,0.));
#638=CARTESIAN_POINT('Origin',(22.85,-20.5,0.));
#639=CARTESIAN_POINT('Origin',(-27.3,-27.3,0.));
#640=CARTESIAN_POINT('',(27.3,-27.3,3.));
#641=CARTESIAN_POINT('',(27.3,-27.3,0.));
#642=CARTESIAN_POINT('',(-27.3,-27.3,3.));
#643=CARTESIAN_POINT('',(27.3,-27.3,3.));
#644=CARTESIAN_POINT('',(-27.3,-27.3,0.));
#645=CARTESIAN_POINT('Origin',(22.85,-20.5,0.));
#646=CARTESIAN_POINT('',(21.6,-20.5,3.));
#647=CARTESIAN_POINT('Origin',(22.85,-20.5,3.));
#648=CARTESIAN_POINT('',(21.6,-20.5,0.));
#649=CARTESIAN_POINT('Origin',(22.85,20.5,0.));
#650=CARTESIAN_POINT('',(21.6,20.5,3.));
#651=CARTESIAN_POINT('Origin',(22.85,20.5,3.));
#652=CARTESIAN_POINT('',(21.6,20.5,0.));
#653=CARTESIAN_POINT('Origin',(-22.85,20.5,0.));
#654=CARTESIAN_POINT('',(-24.1,20.5,3.));
#655=CARTESIAN_POINT('Origin',(-22.85,20.5,3.));
#656=CARTESIAN_POINT('',(-24.1,20.5,0.));
#657=CARTESIAN_POINT('Origin',(-22.85,-20.5,0.));
#658=CARTESIAN_POINT('',(-24.1,-20.5,3.));
#659=CARTESIAN_POINT('Origin',(-22.85,-20.5,3.));
#660=CARTESIAN_POINT('',(-24.1,-20.5,0.));
#661=CARTESIAN_POINT('Origin',(-27.3,27.3,0.));
#662=CARTESIAN_POINT('',(-27.3,-27.3,3.));
#663=CARTESIAN_POINT('Origin',(27.3,-27.3,0.));
#664=CARTESIAN_POINT('',(27.3,27.3,3.));
#665=CARTESIAN_POINT('Origin',(4.44089209850063E-15,-8.88178419700125E-15,
3.));
#666=UNCERTAINTY_MEASURE_WITH_UNIT(LENGTH_MEASURE(0.01),#670,
'DISTANCE_ACCURACY_VALUE',
'Maximum model space distance between geometric entities at asserted c
onnectivities');
#667=UNCERTAINTY_MEASURE_WITH_UNIT(LENGTH_MEASURE(0.01),#670,
'DISTANCE_ACCURACY_VALUE',
'Maximum model space distance between geometric entities at asserted c
onnectivities');
#668=(
GEOMETRIC_REPRESENTATION_CONTEXT(3)
GLOBAL_UNCERTAINTY_ASSIGNED_CONTEXT((#666))
GLOBAL_UNIT_ASSIGNED_CONTEXT((#670,#672,#673))
REPRESENTATION_CONTEXT('','3D')
);
#669=(
GEOMETRIC_REPRESENTATION_CONTEXT(3)
GLOBAL_UNCERTAINTY_ASSIGNED_CONTEXT((#667))
GLOBAL_UNIT_ASSIGNED_CONTEXT((#670,#672,#673))
REPRESENTATION_CONTEXT('','3D')
);
#670=(
LENGTH_UNIT()
NAMED_UNIT(*)
SI_UNIT(.MILLI.,.METRE.)
);
#671=(
LENGTH_UNIT()
NAMED_UNIT(*)
SI_UNIT($,.METRE.)
);
#672=(
NAMED_UNIT(*)
PLANE_ANGLE_UNIT()
SI_UNIT($,.RADIAN.)
);
#673=(
NAMED_UNIT(*)
SI_UNIT($,.STERADIAN.)
SOLID_ANGLE_UNIT()
);
#674=SHAPE_DEFINITION_REPRESENTATION(#675,#676);
#675=PRODUCT_DEFINITION_SHAPE('',$,#678);
#676=SHAPE_REPRESENTATION('',(#422),#668);
#677=PRODUCT_DEFINITION_CONTEXT('part definition',#682,'design');
#678=PRODUCT_DEFINITION('2026-04-23-15-36-49-562','Sample_Stage_Prelim',
#679,#677);
#679=PRODUCT_DEFINITION_FORMATION('',$,#684);
#680=PRODUCT_RELATED_PRODUCT_CATEGORY('Sample_Stage_Prelim',
'Sample_Stage_Prelim',(#684));
#681=APPLICATION_PROTOCOL_DEFINITION('international standard',
'automotive_design',2009,#682);
#682=APPLICATION_CONTEXT(
'Core Data for Automotive Mechanical Design Process');
#683=PRODUCT_CONTEXT('part definition',#682,'mechanical');
#684=PRODUCT('2026-04-23-15-36-49-562','Sample_Stage_Prelim',$,(#683));
#685=PRESENTATION_STYLE_ASSIGNMENT((#686));
#686=SURFACE_STYLE_USAGE(.BOTH.,#687);
#687=SURFACE_SIDE_STYLE('',(#688));
#688=SURFACE_STYLE_FILL_AREA(#689);
#689=FILL_AREA_STYLE('Steel - Satin',(#690));
#690=FILL_AREA_STYLE_COLOUR('Steel - Satin',#691);
#691=COLOUR_RGB('Steel - Satin',0.627450980392157,0.627450980392157,0.627450980392157);
ENDSEC;
END-ISO-10303-21;
