ISO-10303-21;
HEADER;
/* Generated by software containing ST-Developer
 * from STEP Tools, Inc. (www.steptools.com) 
 */

FILE_DESCRIPTION(
/* description */ (''),
/* implementation_level */ '2;1');

FILE_NAME(
/* name */ 'X_Stage_Prelim.step',
/* time_stamp */ '2026-08-18T16:03:09-04:00',
/* author */ (''),
/* organization */ (''),
/* preprocessor_version */ 'ST-DEVELOPER v20.1',
/* originating_system */ 'Autodesk Translation Framework v15.8.0.0',
/* authorisation */ '');

FILE_SCHEMA (('AUTOMOTIVE_DESIGN { 1 0 10303 214 3 1 1 }'));
ENDSEC;

DATA;
#10=MECHANICAL_DESIGN_GEOMETRIC_PRESENTATION_REPRESENTATION('',(#13),#1071);
#11=SHAPE_REPRESENTATION_RELATIONSHIP('SRR','None',#1078,#12);
#12=ADVANCED_BREP_SHAPE_REPRESENTATION('',(#14),#1070);
#13=STYLED_ITEM('',(#1087),#14);
#14=MANIFOLD_SOLID_BREP('Body1',#643);
#15=CYLINDRICAL_SURFACE('',#674,1.5);
#16=CYLINDRICAL_SURFACE('',#677,1.5);
#17=CYLINDRICAL_SURFACE('',#680,1.5);
#18=CYLINDRICAL_SURFACE('',#683,1.5);
#19=CYLINDRICAL_SURFACE('',#686,1.5);
#20=CYLINDRICAL_SURFACE('',#689,1.5);
#21=CYLINDRICAL_SURFACE('',#700,1.5);
#22=CYLINDRICAL_SURFACE('',#702,1.5);
#23=CYLINDRICAL_SURFACE('',#704,1.5);
#24=CYLINDRICAL_SURFACE('',#706,1.5);
#25=FACE_BOUND('',#104,.T.);
#26=FACE_BOUND('',#105,.T.);
#27=FACE_BOUND('',#106,.T.);
#28=FACE_BOUND('',#107,.T.);
#29=FACE_BOUND('',#110,.T.);
#30=FACE_BOUND('',#111,.T.);
#31=FACE_BOUND('',#127,.T.);
#32=FACE_BOUND('',#128,.T.);
#33=FACE_BOUND('',#130,.T.);
#34=FACE_BOUND('',#131,.T.);
#35=FACE_BOUND('',#141,.T.);
#36=FACE_BOUND('',#142,.T.);
#37=FACE_BOUND('',#143,.T.);
#38=FACE_BOUND('',#144,.T.);
#39=CIRCLE('',#666,1.5);
#40=CIRCLE('',#667,1.5);
#41=CIRCLE('',#668,1.5);
#42=CIRCLE('',#669,1.5);
#43=CIRCLE('',#672,1.5);
#44=CIRCLE('',#673,1.5);
#45=CIRCLE('',#675,1.5);
#46=CIRCLE('',#678,1.5);
#47=CIRCLE('',#681,1.5);
#48=CIRCLE('',#684,1.5);
#49=CIRCLE('',#687,1.5);
#50=CIRCLE('',#690,1.5);
#51=CIRCLE('',#695,1.5);
#52=CIRCLE('',#696,1.5);
#53=CIRCLE('',#698,1.5);
#54=CIRCLE('',#699,1.5);
#55=CIRCLE('',#701,1.5);
#56=CIRCLE('',#703,1.5);
#57=CIRCLE('',#705,1.5);
#58=CIRCLE('',#707,1.5);
#59=FACE_OUTER_BOUND('',#95,.T.);
#60=FACE_OUTER_BOUND('',#96,.T.);
#61=FACE_OUTER_BOUND('',#97,.T.);
#62=FACE_OUTER_BOUND('',#98,.T.);
#63=FACE_OUTER_BOUND('',#99,.T.);
#64=FACE_OUTER_BOUND('',#100,.T.);
#65=FACE_OUTER_BOUND('',#101,.T.);
#66=FACE_OUTER_BOUND('',#102,.T.);
#67=FACE_OUTER_BOUND('',#103,.T.);
#68=FACE_OUTER_BOUND('',#108,.T.);
#69=FACE_OUTER_BOUND('',#109,.T.);
#70=FACE_OUTER_BOUND('',#112,.T.);
#71=FACE_OUTER_BOUND('',#113,.T.);
#72=FACE_OUTER_BOUND('',#114,.T.);
#73=FACE_OUTER_BOUND('',#115,.T.);
#74=FACE_OUTER_BOUND('',#116,.T.);
#75=FACE_OUTER_BOUND('',#117,.T.);
#76=FACE_OUTER_BOUND('',#118,.T.);
#77=FACE_OUTER_BOUND('',#119,.T.);
#78=FACE_OUTER_BOUND('',#120,.T.);
#79=FACE_OUTER_BOUND('',#121,.T.);
#80=FACE_OUTER_BOUND('',#122,.T.);
#81=FACE_OUTER_BOUND('',#123,.T.);
#82=FACE_OUTER_BOUND('',#124,.T.);
#83=FACE_OUTER_BOUND('',#125,.T.);
#84=FACE_OUTER_BOUND('',#126,.T.);
#85=FACE_OUTER_BOUND('',#129,.T.);
#86=FACE_OUTER_BOUND('',#132,.T.);
#87=FACE_OUTER_BOUND('',#133,.T.);
#88=FACE_OUTER_BOUND('',#134,.T.);
#89=FACE_OUTER_BOUND('',#135,.T.);
#90=FACE_OUTER_BOUND('',#136,.T.);
#91=FACE_OUTER_BOUND('',#137,.T.);
#92=FACE_OUTER_BOUND('',#138,.T.);
#93=FACE_OUTER_BOUND('',#139,.T.);
#94=FACE_OUTER_BOUND('',#140,.T.);
#95=EDGE_LOOP('',(#413,#414,#415,#416));
#96=EDGE_LOOP('',(#417,#418,#419,#420));
#97=EDGE_LOOP('',(#421,#422,#423,#424));
#98=EDGE_LOOP('',(#425,#426,#427,#428));
#99=EDGE_LOOP('',(#429,#430,#431,#432));
#100=EDGE_LOOP('',(#433,#434,#435,#436));
#101=EDGE_LOOP('',(#437,#438,#439,#440));
#102=EDGE_LOOP('',(#441,#442,#443,#444));
#103=EDGE_LOOP('',(#445,#446,#447,#448));
#104=EDGE_LOOP('',(#449));
#105=EDGE_LOOP('',(#450));
#106=EDGE_LOOP('',(#451));
#107=EDGE_LOOP('',(#452));
#108=EDGE_LOOP('',(#453,#454,#455,#456,#457,#458,#459,#460,#461,#462,#463,
#464));
#109=EDGE_LOOP('',(#465,#466,#467,#468));
#110=EDGE_LOOP('',(#469));
#111=EDGE_LOOP('',(#470));
#112=EDGE_LOOP('',(#471,#472,#473,#474));
#113=EDGE_LOOP('',(#475));
#114=EDGE_LOOP('',(#476,#477,#478,#479));
#115=EDGE_LOOP('',(#480));
#116=EDGE_LOOP('',(#481,#482,#483,#484));
#117=EDGE_LOOP('',(#485));
#118=EDGE_LOOP('',(#486,#487,#488,#489));
#119=EDGE_LOOP('',(#490));
#120=EDGE_LOOP('',(#491,#492,#493,#494));
#121=EDGE_LOOP('',(#495));
#122=EDGE_LOOP('',(#496,#497,#498,#499));
#123=EDGE_LOOP('',(#500));
#124=EDGE_LOOP('',(#501,#502,#503,#504,#505,#506));
#125=EDGE_LOOP('',(#507,#508,#509,#510,#511,#512));
#126=EDGE_LOOP('',(#513,#514,#515,#516));
#127=EDGE_LOOP('',(#517));
#128=EDGE_LOOP('',(#518));
#129=EDGE_LOOP('',(#519,#520,#521,#522));
#130=EDGE_LOOP('',(#523));
#131=EDGE_LOOP('',(#524));
#132=EDGE_LOOP('',(#525,#526,#527,#528));
#133=EDGE_LOOP('',(#529,#530,#531,#532));
#134=EDGE_LOOP('',(#533,#534,#535,#536));
#135=EDGE_LOOP('',(#537,#538,#539,#540));
#136=EDGE_LOOP('',(#541,#542,#543,#544));
#137=EDGE_LOOP('',(#545,#546,#547,#548,#549,#550,#551,#552));
#138=EDGE_LOOP('',(#553,#554,#555,#556));
#139=EDGE_LOOP('',(#557,#558,#559,#560,#561,#562,#563,#564,#565,#566,#567,
#568,#569,#570,#571,#572));
#140=EDGE_LOOP('',(#573,#574,#575,#576));
#141=EDGE_LOOP('',(#577));
#142=EDGE_LOOP('',(#578));
#143=EDGE_LOOP('',(#579));
#144=EDGE_LOOP('',(#580));
#145=LINE('',#895,#209);
#146=LINE('',#897,#210);
#147=LINE('',#899,#211);
#148=LINE('',#900,#212);
#149=LINE('',#904,#213);
#150=LINE('',#906,#214);
#151=LINE('',#908,#215);
#152=LINE('',#909,#216);
#153=LINE('',#911,#217);
#154=LINE('',#912,#218);
#155=LINE('',#916,#219);
#156=LINE('',#918,#220);
#157=LINE('',#920,#221);
#158=LINE('',#921,#222);
#159=LINE('',#925,#223);
#160=LINE('',#927,#224);
#161=LINE('',#929,#225);
#162=LINE('',#930,#226);
#163=LINE('',#932,#227);
#164=LINE('',#933,#228);
#165=LINE('',#936,#229);
#166=LINE('',#938,#230);
#167=LINE('',#939,#231);
#168=LINE('',#942,#232);
#169=LINE('',#944,#233);
#170=LINE('',#945,#234);
#171=LINE('',#947,#235);
#172=LINE('',#948,#236);
#173=LINE('',#959,#237);
#174=LINE('',#961,#238);
#175=LINE('',#962,#239);
#176=LINE('',#965,#240);
#177=LINE('',#967,#241);
#178=LINE('',#968,#242);
#179=LINE('',#975,#243);
#180=LINE('',#980,#244);
#181=LINE('',#985,#245);
#182=LINE('',#990,#246);
#183=LINE('',#995,#247);
#184=LINE('',#1000,#248);
#185=LINE('',#1006,#249);
#186=LINE('',#1007,#250);
#187=LINE('',#1008,#251);
#188=LINE('',#1012,#252);
#189=LINE('',#1013,#253);
#190=LINE('',#1014,#254);
#191=LINE('',#1017,#255);
#192=LINE('',#1019,#256);
#193=LINE('',#1020,#257);
#194=LINE('',#1027,#258);
#195=LINE('',#1029,#259);
#196=LINE('',#1030,#260);
#197=LINE('',#1037,#261);
#198=LINE('',#1041,#262);
#199=LINE('',#1045,#263);
#200=LINE('',#1049,#264);
#201=LINE('',#1054,#265);
#202=LINE('',#1055,#266);
#203=LINE('',#1056,#267);
#204=LINE('',#1059,#268);
#205=LINE('',#1060,#269);
#206=LINE('',#1063,#270);
#207=LINE('',#1064,#271);
#208=LINE('',#1066,#272);
#209=VECTOR('',#717,10.);
#210=VECTOR('',#718,10.);
#211=VECTOR('',#719,10.);
#212=VECTOR('',#720,10.);
#213=VECTOR('',#723,10.);
#214=VECTOR('',#724,10.);
#215=VECTOR('',#725,10.);
#216=VECTOR('',#726,10.);
#217=VECTOR('',#729,10.);
#218=VECTOR('',#730,10.);
#219=VECTOR('',#733,10.);
#220=VECTOR('',#734,10.);
#221=VECTOR('',#735,10.);
#222=VECTOR('',#736,10.);
#223=VECTOR('',#739,10.);
#224=VECTOR('',#740,10.);
#225=VECTOR('',#741,10.);
#226=VECTOR('',#742,10.);
#227=VECTOR('',#745,10.);
#228=VECTOR('',#746,10.);
#229=VECTOR('',#749,10.);
#230=VECTOR('',#750,10.);
#231=VECTOR('',#751,10.);
#232=VECTOR('',#754,10.);
#233=VECTOR('',#755,10.);
#234=VECTOR('',#756,10.);
#235=VECTOR('',#759,10.);
#236=VECTOR('',#760,10.);
#237=VECTOR('',#771,10.);
#238=VECTOR('',#772,10.);
#239=VECTOR('',#773,10.);
#240=VECTOR('',#776,10.);
#241=VECTOR('',#777,10.);
#242=VECTOR('',#778,10.);
#243=VECTOR('',#785,1.5);
#244=VECTOR('',#792,1.5);
#245=VECTOR('',#799,1.5);
#246=VECTOR('',#806,1.5);
#247=VECTOR('',#813,1.5);
#248=VECTOR('',#820,1.5);
#249=VECTOR('',#827,10.);
#250=VECTOR('',#828,10.);
#251=VECTOR('',#829,10.);
#252=VECTOR('',#832,10.);
#253=VECTOR('',#833,10.);
#254=VECTOR('',#834,10.);
#255=VECTOR('',#837,10.);
#256=VECTOR('',#838,10.);
#257=VECTOR('',#839,10.);
#258=VECTOR('',#846,10.);
#259=VECTOR('',#847,10.);
#260=VECTOR('',#848,10.);
#261=VECTOR('',#855,1.5);
#262=VECTOR('',#860,1.5);
#263=VECTOR('',#865,1.5);
#264=VECTOR('',#870,1.5);
#265=VECTOR('',#875,10.);
#266=VECTOR('',#876,10.);
#267=VECTOR('',#877,10.);
#268=VECTOR('',#880,10.);
#269=VECTOR('',#881,10.);
#270=VECTOR('',#884,10.);
#271=VECTOR('',#885,10.);
#272=VECTOR('',#888,10.);
#273=VERTEX_POINT('',#893);
#274=VERTEX_POINT('',#894);
#275=VERTEX_POINT('',#896);
#276=VERTEX_POINT('',#898);
#277=VERTEX_POINT('',#902);
#278=VERTEX_POINT('',#903);
#279=VERTEX_POINT('',#905);
#280=VERTEX_POINT('',#907);
#281=VERTEX_POINT('',#914);
#282=VERTEX_POINT('',#915);
#283=VERTEX_POINT('',#917);
#284=VERTEX_POINT('',#919);
#285=VERTEX_POINT('',#923);
#286=VERTEX_POINT('',#924);
#287=VERTEX_POINT('',#926);
#288=VERTEX_POINT('',#928);
#289=VERTEX_POINT('',#935);
#290=VERTEX_POINT('',#937);
#291=VERTEX_POINT('',#941);
#292=VERTEX_POINT('',#943);
#293=VERTEX_POINT('',#949);
#294=VERTEX_POINT('',#951);
#295=VERTEX_POINT('',#953);
#296=VERTEX_POINT('',#955);
#297=VERTEX_POINT('',#958);
#298=VERTEX_POINT('',#960);
#299=VERTEX_POINT('',#964);
#300=VERTEX_POINT('',#966);
#301=VERTEX_POINT('',#969);
#302=VERTEX_POINT('',#971);
#303=VERTEX_POINT('',#974);
#304=VERTEX_POINT('',#979);
#305=VERTEX_POINT('',#984);
#306=VERTEX_POINT('',#989);
#307=VERTEX_POINT('',#994);
#308=VERTEX_POINT('',#999);
#309=VERTEX_POINT('',#1004);
#310=VERTEX_POINT('',#1005);
#311=VERTEX_POINT('',#1010);
#312=VERTEX_POINT('',#1011);
#313=VERTEX_POINT('',#1016);
#314=VERTEX_POINT('',#1018);
#315=VERTEX_POINT('',#1021);
#316=VERTEX_POINT('',#1023);
#317=VERTEX_POINT('',#1026);
#318=VERTEX_POINT('',#1028);
#319=VERTEX_POINT('',#1031);
#320=VERTEX_POINT('',#1033);
#321=VERTEX_POINT('',#1036);
#322=VERTEX_POINT('',#1040);
#323=VERTEX_POINT('',#1044);
#324=VERTEX_POINT('',#1048);
#325=VERTEX_POINT('',#1052);
#326=VERTEX_POINT('',#1053);
#327=VERTEX_POINT('',#1058);
#328=VERTEX_POINT('',#1062);
#329=EDGE_CURVE('',#273,#274,#145,.T.);
#330=EDGE_CURVE('',#275,#273,#146,.T.);
#331=EDGE_CURVE('',#275,#276,#147,.T.);
#332=EDGE_CURVE('',#274,#276,#148,.T.);
#333=EDGE_CURVE('',#277,#278,#149,.T.);
#334=EDGE_CURVE('',#279,#277,#150,.T.);
#335=EDGE_CURVE('',#279,#280,#151,.T.);
#336=EDGE_CURVE('',#278,#280,#152,.T.);
#337=EDGE_CURVE('',#276,#279,#153,.T.);
#338=EDGE_CURVE('',#280,#275,#154,.T.);
#339=EDGE_CURVE('',#281,#282,#155,.T.);
#340=EDGE_CURVE('',#283,#281,#156,.T.);
#341=EDGE_CURVE('',#283,#284,#157,.T.);
#342=EDGE_CURVE('',#282,#284,#158,.T.);
#343=EDGE_CURVE('',#285,#286,#159,.T.);
#344=EDGE_CURVE('',#287,#285,#160,.T.);
#345=EDGE_CURVE('',#287,#288,#161,.T.);
#346=EDGE_CURVE('',#286,#288,#162,.T.);
#347=EDGE_CURVE('',#284,#287,#163,.T.);
#348=EDGE_CURVE('',#288,#283,#164,.T.);
#349=EDGE_CURVE('',#286,#289,#165,.T.);
#350=EDGE_CURVE('',#289,#290,#166,.T.);
#351=EDGE_CURVE('',#290,#285,#167,.T.);
#352=EDGE_CURVE('',#274,#291,#168,.T.);
#353=EDGE_CURVE('',#291,#292,#169,.T.);
#354=EDGE_CURVE('',#292,#273,#170,.T.);
#355=EDGE_CURVE('',#278,#281,#171,.T.);
#356=EDGE_CURVE('',#282,#277,#172,.T.);
#357=EDGE_CURVE('',#293,#293,#39,.T.);
#358=EDGE_CURVE('',#294,#294,#40,.T.);
#359=EDGE_CURVE('',#295,#295,#41,.T.);
#360=EDGE_CURVE('',#296,#296,#42,.T.);
#361=EDGE_CURVE('',#297,#292,#173,.T.);
#362=EDGE_CURVE('',#297,#298,#174,.T.);
#363=EDGE_CURVE('',#298,#289,#175,.T.);
#364=EDGE_CURVE('',#297,#299,#176,.T.);
#365=EDGE_CURVE('',#299,#300,#177,.T.);
#366=EDGE_CURVE('',#300,#298,#178,.T.);
#367=EDGE_CURVE('',#301,#301,#43,.T.);
#368=EDGE_CURVE('',#302,#302,#44,.T.);
#369=EDGE_CURVE('',#302,#303,#179,.T.);
#370=EDGE_CURVE('',#303,#303,#45,.T.);
#371=EDGE_CURVE('',#294,#304,#180,.T.);
#372=EDGE_CURVE('',#304,#304,#46,.T.);
#373=EDGE_CURVE('',#301,#305,#181,.T.);
#374=EDGE_CURVE('',#305,#305,#47,.T.);
#375=EDGE_CURVE('',#295,#306,#182,.T.);
#376=EDGE_CURVE('',#306,#306,#48,.T.);
#377=EDGE_CURVE('',#293,#307,#183,.T.);
#378=EDGE_CURVE('',#307,#307,#49,.T.);
#379=EDGE_CURVE('',#296,#308,#184,.T.);
#380=EDGE_CURVE('',#308,#308,#50,.T.);
#381=EDGE_CURVE('',#309,#310,#185,.T.);
#382=EDGE_CURVE('',#309,#290,#186,.T.);
#383=EDGE_CURVE('',#310,#300,#187,.T.);
#384=EDGE_CURVE('',#311,#312,#188,.T.);
#385=EDGE_CURVE('',#311,#299,#189,.T.);
#386=EDGE_CURVE('',#312,#291,#190,.T.);
#387=EDGE_CURVE('',#310,#313,#191,.T.);
#388=EDGE_CURVE('',#313,#314,#192,.T.);
#389=EDGE_CURVE('',#314,#309,#193,.T.);
#390=EDGE_CURVE('',#315,#315,#51,.T.);
#391=EDGE_CURVE('',#316,#316,#52,.T.);
#392=EDGE_CURVE('',#312,#317,#194,.T.);
#393=EDGE_CURVE('',#317,#318,#195,.T.);
#394=EDGE_CURVE('',#318,#311,#196,.T.);
#395=EDGE_CURVE('',#319,#319,#53,.T.);
#396=EDGE_CURVE('',#320,#320,#54,.T.);
#397=EDGE_CURVE('',#316,#321,#197,.T.);
#398=EDGE_CURVE('',#321,#321,#55,.T.);
#399=EDGE_CURVE('',#319,#322,#198,.T.);
#400=EDGE_CURVE('',#322,#322,#56,.T.);
#401=EDGE_CURVE('',#315,#323,#199,.T.);
#402=EDGE_CURVE('',#323,#323,#57,.T.);
#403=EDGE_CURVE('',#320,#324,#200,.T.);
#404=EDGE_CURVE('',#324,#324,#58,.T.);
#405=EDGE_CURVE('',#325,#326,#201,.T.);
#406=EDGE_CURVE('',#325,#314,#202,.T.);
#407=EDGE_CURVE('',#326,#313,#203,.T.);
#408=EDGE_CURVE('',#326,#327,#204,.T.);
#409=EDGE_CURVE('',#327,#318,#205,.T.);
#410=EDGE_CURVE('',#327,#328,#206,.T.);
#411=EDGE_CURVE('',#328,#317,#207,.T.);
#412=EDGE_CURVE('',#328,#325,#208,.T.);
#413=ORIENTED_EDGE('',*,*,#329,.F.);
#414=ORIENTED_EDGE('',*,*,#330,.F.);
#415=ORIENTED_EDGE('',*,*,#331,.T.);
#416=ORIENTED_EDGE('',*,*,#332,.F.);
#417=ORIENTED_EDGE('',*,*,#333,.F.);
#418=ORIENTED_EDGE('',*,*,#334,.F.);
#419=ORIENTED_EDGE('',*,*,#335,.T.);
#420=ORIENTED_EDGE('',*,*,#336,.F.);
#421=ORIENTED_EDGE('',*,*,#337,.F.);
#422=ORIENTED_EDGE('',*,*,#331,.F.);
#423=ORIENTED_EDGE('',*,*,#338,.F.);
#424=ORIENTED_EDGE('',*,*,#335,.F.);
#425=ORIENTED_EDGE('',*,*,#339,.F.);
#426=ORIENTED_EDGE('',*,*,#340,.F.);
#427=ORIENTED_EDGE('',*,*,#341,.T.);
#428=ORIENTED_EDGE('',*,*,#342,.F.);
#429=ORIENTED_EDGE('',*,*,#343,.F.);
#430=ORIENTED_EDGE('',*,*,#344,.F.);
#431=ORIENTED_EDGE('',*,*,#345,.T.);
#432=ORIENTED_EDGE('',*,*,#346,.F.);
#433=ORIENTED_EDGE('',*,*,#347,.F.);
#434=ORIENTED_EDGE('',*,*,#341,.F.);
#435=ORIENTED_EDGE('',*,*,#348,.F.);
#436=ORIENTED_EDGE('',*,*,#345,.F.);
#437=ORIENTED_EDGE('',*,*,#343,.T.);
#438=ORIENTED_EDGE('',*,*,#349,.T.);
#439=ORIENTED_EDGE('',*,*,#350,.T.);
#440=ORIENTED_EDGE('',*,*,#351,.T.);
#441=ORIENTED_EDGE('',*,*,#329,.T.);
#442=ORIENTED_EDGE('',*,*,#352,.T.);
#443=ORIENTED_EDGE('',*,*,#353,.T.);
#444=ORIENTED_EDGE('',*,*,#354,.T.);
#445=ORIENTED_EDGE('',*,*,#333,.T.);
#446=ORIENTED_EDGE('',*,*,#355,.T.);
#447=ORIENTED_EDGE('',*,*,#339,.T.);
#448=ORIENTED_EDGE('',*,*,#356,.T.);
#449=ORIENTED_EDGE('',*,*,#357,.T.);
#450=ORIENTED_EDGE('',*,*,#358,.T.);
#451=ORIENTED_EDGE('',*,*,#359,.T.);
#452=ORIENTED_EDGE('',*,*,#360,.T.);
#453=ORIENTED_EDGE('',*,*,#336,.T.);
#454=ORIENTED_EDGE('',*,*,#338,.T.);
#455=ORIENTED_EDGE('',*,*,#330,.T.);
#456=ORIENTED_EDGE('',*,*,#354,.F.);
#457=ORIENTED_EDGE('',*,*,#361,.F.);
#458=ORIENTED_EDGE('',*,*,#362,.T.);
#459=ORIENTED_EDGE('',*,*,#363,.T.);
#460=ORIENTED_EDGE('',*,*,#349,.F.);
#461=ORIENTED_EDGE('',*,*,#346,.T.);
#462=ORIENTED_EDGE('',*,*,#348,.T.);
#463=ORIENTED_EDGE('',*,*,#340,.T.);
#464=ORIENTED_EDGE('',*,*,#355,.F.);
#465=ORIENTED_EDGE('',*,*,#362,.F.);
#466=ORIENTED_EDGE('',*,*,#364,.T.);
#467=ORIENTED_EDGE('',*,*,#365,.T.);
#468=ORIENTED_EDGE('',*,*,#366,.T.);
#469=ORIENTED_EDGE('',*,*,#367,.T.);
#470=ORIENTED_EDGE('',*,*,#368,.T.);
#471=ORIENTED_EDGE('',*,*,#368,.F.);
#472=ORIENTED_EDGE('',*,*,#369,.T.);
#473=ORIENTED_EDGE('',*,*,#370,.T.);
#474=ORIENTED_EDGE('',*,*,#369,.F.);
#475=ORIENTED_EDGE('',*,*,#370,.F.);
#476=ORIENTED_EDGE('',*,*,#358,.F.);
#477=ORIENTED_EDGE('',*,*,#371,.T.);
#478=ORIENTED_EDGE('',*,*,#372,.T.);
#479=ORIENTED_EDGE('',*,*,#371,.F.);
#480=ORIENTED_EDGE('',*,*,#372,.F.);
#481=ORIENTED_EDGE('',*,*,#367,.F.);
#482=ORIENTED_EDGE('',*,*,#373,.T.);
#483=ORIENTED_EDGE('',*,*,#374,.T.);
#484=ORIENTED_EDGE('',*,*,#373,.F.);
#485=ORIENTED_EDGE('',*,*,#374,.F.);
#486=ORIENTED_EDGE('',*,*,#359,.F.);
#487=ORIENTED_EDGE('',*,*,#375,.T.);
#488=ORIENTED_EDGE('',*,*,#376,.T.);
#489=ORIENTED_EDGE('',*,*,#375,.F.);
#490=ORIENTED_EDGE('',*,*,#376,.F.);
#491=ORIENTED_EDGE('',*,*,#357,.F.);
#492=ORIENTED_EDGE('',*,*,#377,.T.);
#493=ORIENTED_EDGE('',*,*,#378,.T.);
#494=ORIENTED_EDGE('',*,*,#377,.F.);
#495=ORIENTED_EDGE('',*,*,#378,.F.);
#496=ORIENTED_EDGE('',*,*,#360,.F.);
#497=ORIENTED_EDGE('',*,*,#379,.T.);
#498=ORIENTED_EDGE('',*,*,#380,.T.);
#499=ORIENTED_EDGE('',*,*,#379,.F.);
#500=ORIENTED_EDGE('',*,*,#380,.F.);
#501=ORIENTED_EDGE('',*,*,#381,.F.);
#502=ORIENTED_EDGE('',*,*,#382,.T.);
#503=ORIENTED_EDGE('',*,*,#350,.F.);
#504=ORIENTED_EDGE('',*,*,#363,.F.);
#505=ORIENTED_EDGE('',*,*,#366,.F.);
#506=ORIENTED_EDGE('',*,*,#383,.F.);
#507=ORIENTED_EDGE('',*,*,#384,.F.);
#508=ORIENTED_EDGE('',*,*,#385,.T.);
#509=ORIENTED_EDGE('',*,*,#364,.F.);
#510=ORIENTED_EDGE('',*,*,#361,.T.);
#511=ORIENTED_EDGE('',*,*,#353,.F.);
#512=ORIENTED_EDGE('',*,*,#386,.F.);
#513=ORIENTED_EDGE('',*,*,#381,.T.);
#514=ORIENTED_EDGE('',*,*,#387,.T.);
#515=ORIENTED_EDGE('',*,*,#388,.T.);
#516=ORIENTED_EDGE('',*,*,#389,.T.);
#517=ORIENTED_EDGE('',*,*,#390,.T.);
#518=ORIENTED_EDGE('',*,*,#391,.T.);
#519=ORIENTED_EDGE('',*,*,#384,.T.);
#520=ORIENTED_EDGE('',*,*,#392,.T.);
#521=ORIENTED_EDGE('',*,*,#393,.T.);
#522=ORIENTED_EDGE('',*,*,#394,.T.);
#523=ORIENTED_EDGE('',*,*,#395,.T.);
#524=ORIENTED_EDGE('',*,*,#396,.T.);
#525=ORIENTED_EDGE('',*,*,#391,.F.);
#526=ORIENTED_EDGE('',*,*,#397,.T.);
#527=ORIENTED_EDGE('',*,*,#398,.T.);
#528=ORIENTED_EDGE('',*,*,#397,.F.);
#529=ORIENTED_EDGE('',*,*,#395,.F.);
#530=ORIENTED_EDGE('',*,*,#399,.T.);
#531=ORIENTED_EDGE('',*,*,#400,.T.);
#532=ORIENTED_EDGE('',*,*,#399,.F.);
#533=ORIENTED_EDGE('',*,*,#390,.F.);
#534=ORIENTED_EDGE('',*,*,#401,.T.);
#535=ORIENTED_EDGE('',*,*,#402,.T.);
#536=ORIENTED_EDGE('',*,*,#401,.F.);
#537=ORIENTED_EDGE('',*,*,#396,.F.);
#538=ORIENTED_EDGE('',*,*,#403,.T.);
#539=ORIENTED_EDGE('',*,*,#404,.T.);
#540=ORIENTED_EDGE('',*,*,#403,.F.);
#541=ORIENTED_EDGE('',*,*,#405,.F.);
#542=ORIENTED_EDGE('',*,*,#406,.T.);
#543=ORIENTED_EDGE('',*,*,#388,.F.);
#544=ORIENTED_EDGE('',*,*,#407,.F.);
#545=ORIENTED_EDGE('',*,*,#408,.F.);
#546=ORIENTED_EDGE('',*,*,#407,.T.);
#547=ORIENTED_EDGE('',*,*,#387,.F.);
#548=ORIENTED_EDGE('',*,*,#383,.T.);
#549=ORIENTED_EDGE('',*,*,#365,.F.);
#550=ORIENTED_EDGE('',*,*,#385,.F.);
#551=ORIENTED_EDGE('',*,*,#394,.F.);
#552=ORIENTED_EDGE('',*,*,#409,.F.);
#553=ORIENTED_EDGE('',*,*,#410,.F.);
#554=ORIENTED_EDGE('',*,*,#409,.T.);
#555=ORIENTED_EDGE('',*,*,#393,.F.);
#556=ORIENTED_EDGE('',*,*,#411,.F.);
#557=ORIENTED_EDGE('',*,*,#334,.T.);
#558=ORIENTED_EDGE('',*,*,#356,.F.);
#559=ORIENTED_EDGE('',*,*,#342,.T.);
#560=ORIENTED_EDGE('',*,*,#347,.T.);
#561=ORIENTED_EDGE('',*,*,#344,.T.);
#562=ORIENTED_EDGE('',*,*,#351,.F.);
#563=ORIENTED_EDGE('',*,*,#382,.F.);
#564=ORIENTED_EDGE('',*,*,#389,.F.);
#565=ORIENTED_EDGE('',*,*,#406,.F.);
#566=ORIENTED_EDGE('',*,*,#412,.F.);
#567=ORIENTED_EDGE('',*,*,#411,.T.);
#568=ORIENTED_EDGE('',*,*,#392,.F.);
#569=ORIENTED_EDGE('',*,*,#386,.T.);
#570=ORIENTED_EDGE('',*,*,#352,.F.);
#571=ORIENTED_EDGE('',*,*,#332,.T.);
#572=ORIENTED_EDGE('',*,*,#337,.T.);
#573=ORIENTED_EDGE('',*,*,#412,.T.);
#574=ORIENTED_EDGE('',*,*,#405,.T.);
#575=ORIENTED_EDGE('',*,*,#408,.T.);
#576=ORIENTED_EDGE('',*,*,#410,.T.);
#577=ORIENTED_EDGE('',*,*,#404,.F.);
#578=ORIENTED_EDGE('',*,*,#402,.F.);
#579=ORIENTED_EDGE('',*,*,#400,.F.);
#580=ORIENTED_EDGE('',*,*,#398,.F.);
#581=PLANE('',#657);
#582=PLANE('',#658);
#583=PLANE('',#659);
#584=PLANE('',#660);
#585=PLANE('',#661);
#586=PLANE('',#662);
#587=PLANE('',#663);
#588=PLANE('',#664);
#589=PLANE('',#665);
#590=PLANE('',#670);
#591=PLANE('',#671);
#592=PLANE('',#676);
#593=PLANE('',#679);
#594=PLANE('',#682);
#595=PLANE('',#685);
#596=PLANE('',#688);
#597=PLANE('',#691);
#598=PLANE('',#692);
#599=PLANE('',#693);
#600=PLANE('',#694);
#601=PLANE('',#697);
#602=PLANE('',#708);
#603=PLANE('',#709);
#604=PLANE('',#710);
#605=PLANE('',#711);
#606=PLANE('',#712);
#607=ADVANCED_FACE('',(#59),#581,.F.);
#608=ADVANCED_FACE('',(#60),#582,.F.);
#609=ADVANCED_FACE('',(#61),#583,.F.);
#610=ADVANCED_FACE('',(#62),#584,.F.);
#611=ADVANCED_FACE('',(#63),#585,.F.);
#612=ADVANCED_FACE('',(#64),#586,.F.);
#613=ADVANCED_FACE('',(#65),#587,.T.);
#614=ADVANCED_FACE('',(#66),#588,.T.);
#615=ADVANCED_FACE('',(#67,#25,#26,#27,#28),#589,.T.);
#616=ADVANCED_FACE('',(#68),#590,.T.);
#617=ADVANCED_FACE('',(#69,#29,#30),#591,.T.);
#618=ADVANCED_FACE('',(#70),#15,.F.);
#619=ADVANCED_FACE('',(#71),#592,.T.);
#620=ADVANCED_FACE('',(#72),#16,.F.);
#621=ADVANCED_FACE('',(#73),#593,.T.);
#622=ADVANCED_FACE('',(#74),#17,.F.);
#623=ADVANCED_FACE('',(#75),#594,.T.);
#624=ADVANCED_FACE('',(#76),#18,.F.);
#625=ADVANCED_FACE('',(#77),#595,.T.);
#626=ADVANCED_FACE('',(#78),#19,.F.);
#627=ADVANCED_FACE('',(#79),#596,.T.);
#628=ADVANCED_FACE('',(#80),#20,.F.);
#629=ADVANCED_FACE('',(#81),#597,.T.);
#630=ADVANCED_FACE('',(#82),#598,.T.);
#631=ADVANCED_FACE('',(#83),#599,.T.);
#632=ADVANCED_FACE('',(#84,#31,#32),#600,.T.);
#633=ADVANCED_FACE('',(#85,#33,#34),#601,.T.);
#634=ADVANCED_FACE('',(#86),#21,.F.);
#635=ADVANCED_FACE('',(#87),#22,.F.);
#636=ADVANCED_FACE('',(#88),#23,.F.);
#637=ADVANCED_FACE('',(#89),#24,.F.);
#638=ADVANCED_FACE('',(#90),#602,.T.);
#639=ADVANCED_FACE('',(#91),#603,.T.);
#640=ADVANCED_FACE('',(#92),#604,.T.);
#641=ADVANCED_FACE('',(#93),#605,.T.);
#642=ADVANCED_FACE('',(#94,#35,#36,#37,#38),#606,.F.);
#643=CLOSED_SHELL('',(#607,#608,#609,#610,#611,#612,#613,#614,#615,#616,
#617,#618,#619,#620,#621,#622,#623,#624,#625,#626,#627,#628,#629,#630,#631,
#632,#633,#634,#635,#636,#637,#638,#639,#640,#641,#642));
#644=DERIVED_UNIT_ELEMENT(#646,1.);
#645=DERIVED_UNIT_ELEMENT(#1073,-3.);
#646=(
MASS_UNIT()
NAMED_UNIT(*)
SI_UNIT(.KILO.,.GRAM.)
);
#647=DERIVED_UNIT((#644,#645));
#648=MEASURE_REPRESENTATION_ITEM('density measure',
POSITIVE_RATIO_MEASURE(7850.),#647);
#649=PROPERTY_DEFINITION_REPRESENTATION(#654,#651);
#650=PROPERTY_DEFINITION_REPRESENTATION(#655,#652);
#651=REPRESENTATION('material name',(#653),#1070);
#652=REPRESENTATION('density',(#648),#1070);
#653=DESCRIPTIVE_REPRESENTATION_ITEM('Steel','Steel');
#654=PROPERTY_DEFINITION('material property','material name',#1080);
#655=PROPERTY_DEFINITION('material property','density of part',#1080);
#656=AXIS2_PLACEMENT_3D('',#891,#713,#714);
#657=AXIS2_PLACEMENT_3D('',#892,#715,#716);
#658=AXIS2_PLACEMENT_3D('',#901,#721,#722);
#659=AXIS2_PLACEMENT_3D('',#910,#727,#728);
#660=AXIS2_PLACEMENT_3D('',#913,#731,#732);
#661=AXIS2_PLACEMENT_3D('',#922,#737,#738);
#662=AXIS2_PLACEMENT_3D('',#931,#743,#744);
#663=AXIS2_PLACEMENT_3D('',#934,#747,#748);
#664=AXIS2_PLACEMENT_3D('',#940,#752,#753);
#665=AXIS2_PLACEMENT_3D('',#946,#757,#758);
#666=AXIS2_PLACEMENT_3D('',#950,#761,#762);
#667=AXIS2_PLACEMENT_3D('',#952,#763,#764);
#668=AXIS2_PLACEMENT_3D('',#954,#765,#766);
#669=AXIS2_PLACEMENT_3D('',#956,#767,#768);
#670=AXIS2_PLACEMENT_3D('',#957,#769,#770);
#671=AXIS2_PLACEMENT_3D('',#963,#774,#775);
#672=AXIS2_PLACEMENT_3D('',#970,#779,#780);
#673=AXIS2_PLACEMENT_3D('',#972,#781,#782);
#674=AXIS2_PLACEMENT_3D('',#973,#783,#784);
#675=AXIS2_PLACEMENT_3D('',#976,#786,#787);
#676=AXIS2_PLACEMENT_3D('',#977,#788,#789);
#677=AXIS2_PLACEMENT_3D('',#978,#790,#791);
#678=AXIS2_PLACEMENT_3D('',#981,#793,#794);
#679=AXIS2_PLACEMENT_3D('',#982,#795,#796);
#680=AXIS2_PLACEMENT_3D('',#983,#797,#798);
#681=AXIS2_PLACEMENT_3D('',#986,#800,#801);
#682=AXIS2_PLACEMENT_3D('',#987,#802,#803);
#683=AXIS2_PLACEMENT_3D('',#988,#804,#805);
#684=AXIS2_PLACEMENT_3D('',#991,#807,#808);
#685=AXIS2_PLACEMENT_3D('',#992,#809,#810);
#686=AXIS2_PLACEMENT_3D('',#993,#811,#812);
#687=AXIS2_PLACEMENT_3D('',#996,#814,#815);
#688=AXIS2_PLACEMENT_3D('',#997,#816,#817);
#689=AXIS2_PLACEMENT_3D('',#998,#818,#819);
#690=AXIS2_PLACEMENT_3D('',#1001,#821,#822);
#691=AXIS2_PLACEMENT_3D('',#1002,#823,#824);
#692=AXIS2_PLACEMENT_3D('',#1003,#825,#826);
#693=AXIS2_PLACEMENT_3D('',#1009,#830,#831);
#694=AXIS2_PLACEMENT_3D('',#1015,#835,#836);
#695=AXIS2_PLACEMENT_3D('',#1022,#840,#841);
#696=AXIS2_PLACEMENT_3D('',#1024,#842,#843);
#697=AXIS2_PLACEMENT_3D('',#1025,#844,#845);
#698=AXIS2_PLACEMENT_3D('',#1032,#849,#850);
#699=AXIS2_PLACEMENT_3D('',#1034,#851,#852);
#700=AXIS2_PLACEMENT_3D('',#1035,#853,#854);
#701=AXIS2_PLACEMENT_3D('',#1038,#856,#857);
#702=AXIS2_PLACEMENT_3D('',#1039,#858,#859);
#703=AXIS2_PLACEMENT_3D('',#1042,#861,#862);
#704=AXIS2_PLACEMENT_3D('',#1043,#863,#864);
#705=AXIS2_PLACEMENT_3D('',#1046,#866,#867);
#706=AXIS2_PLACEMENT_3D('',#1047,#868,#869);
#707=AXIS2_PLACEMENT_3D('',#1050,#871,#872);
#708=AXIS2_PLACEMENT_3D('',#1051,#873,#874);
#709=AXIS2_PLACEMENT_3D('',#1057,#878,#879);
#710=AXIS2_PLACEMENT_3D('',#1061,#882,#883);
#711=AXIS2_PLACEMENT_3D('',#1065,#886,#887);
#712=AXIS2_PLACEMENT_3D('',#1067,#889,#890);
#713=DIRECTION('axis',(0.,0.,1.));
#714=DIRECTION('refdir',(1.,0.,0.));
#715=DIRECTION('center_axis',(1.,7.52693576017055E-17,0.));
#716=DIRECTION('ref_axis',(7.52693576017055E-17,-1.,0.));
#717=DIRECTION('',(7.52693576017055E-17,-1.,0.));
#718=DIRECTION('',(0.,0.,1.));
#719=DIRECTION('',(7.52693576017055E-17,-1.,0.));
#720=DIRECTION('',(0.,0.,-1.));
#721=DIRECTION('center_axis',(-1.,0.,0.));
#722=DIRECTION('ref_axis',(0.,1.,0.));
#723=DIRECTION('',(0.,1.,0.));
#724=DIRECTION('',(0.,0.,1.));
#725=DIRECTION('',(0.,1.,0.));
#726=DIRECTION('',(0.,0.,-1.));
#727=DIRECTION('center_axis',(0.,0.,-1.));
#728=DIRECTION('ref_axis',(-1.,0.,0.));
#729=DIRECTION('',(-1.,0.,0.));
#730=DIRECTION('',(1.,0.,0.));
#731=DIRECTION('center_axis',(1.,0.,0.));
#732=DIRECTION('ref_axis',(0.,-1.,0.));
#733=DIRECTION('',(0.,-1.,0.));
#734=DIRECTION('',(0.,0.,1.));
#735=DIRECTION('',(0.,-1.,0.));
#736=DIRECTION('',(0.,0.,-1.));
#737=DIRECTION('center_axis',(-1.,-7.52693576017055E-17,0.));
#738=DIRECTION('ref_axis',(-7.52693576017055E-17,1.,0.));
#739=DIRECTION('',(-7.52693576017055E-17,1.,0.));
#740=DIRECTION('',(0.,0.,1.));
#741=DIRECTION('',(-7.52693576017055E-17,1.,0.));
#742=DIRECTION('',(0.,0.,-1.));
#743=DIRECTION('center_axis',(0.,0.,-1.));
#744=DIRECTION('ref_axis',(-1.,0.,0.));
#745=DIRECTION('',(-1.,0.,0.));
#746=DIRECTION('',(1.,0.,0.));
#747=DIRECTION('center_axis',(0.,0.,1.));
#748=DIRECTION('ref_axis',(-1.,0.,0.));
#749=DIRECTION('',(-1.,0.,0.));
#750=DIRECTION('',(0.,-1.,0.));
#751=DIRECTION('',(1.,0.,0.));
#752=DIRECTION('center_axis',(0.,0.,1.));
#753=DIRECTION('ref_axis',(-1.,0.,0.));
#754=DIRECTION('',(1.,0.,0.));
#755=DIRECTION('',(-7.52693576017055E-17,1.,0.));
#756=DIRECTION('',(-1.,0.,0.));
#757=DIRECTION('center_axis',(0.,0.,1.));
#758=DIRECTION('ref_axis',(-1.,0.,0.));
#759=DIRECTION('',(-1.,0.,0.));
#760=DIRECTION('',(1.,0.,0.));
#761=DIRECTION('center_axis',(0.,0.,-1.));
#762=DIRECTION('ref_axis',(-1.,0.,0.));
#763=DIRECTION('center_axis',(0.,0.,-1.));
#764=DIRECTION('ref_axis',(-1.,0.,0.));
#765=DIRECTION('center_axis',(0.,0.,-1.));
#766=DIRECTION('ref_axis',(-1.,0.,0.));
#767=DIRECTION('center_axis',(0.,0.,-1.));
#768=DIRECTION('ref_axis',(-1.,0.,0.));
#769=DIRECTION('center_axis',(0.,1.,0.));
#770=DIRECTION('ref_axis',(-1.,0.,0.));
#771=DIRECTION('',(0.,0.,1.));
#772=DIRECTION('',(-1.,0.,0.));
#773=DIRECTION('',(0.,0.,1.));
#774=DIRECTION('center_axis',(0.,0.,1.));
#775=DIRECTION('ref_axis',(1.,0.,0.));
#776=DIRECTION('',(-1.14287664299648E-15,1.,0.));
#777=DIRECTION('',(-1.,0.,0.));
#778=DIRECTION('',(0.,-1.,0.));
#779=DIRECTION('center_axis',(0.,0.,-1.));
#780=DIRECTION('ref_axis',(-1.,0.,0.));
#781=DIRECTION('center_axis',(0.,0.,-1.));
#782=DIRECTION('ref_axis',(-1.,0.,0.));
#783=DIRECTION('center_axis',(0.,0.,-1.));
#784=DIRECTION('ref_axis',(-1.,0.,0.));
#785=DIRECTION('',(0.,0.,-1.));
#786=DIRECTION('center_axis',(0.,0.,-1.));
#787=DIRECTION('ref_axis',(-1.,0.,0.));
#788=DIRECTION('center_axis',(0.,0.,1.));
#789=DIRECTION('ref_axis',(-1.,0.,0.));
#790=DIRECTION('center_axis',(0.,0.,-1.));
#791=DIRECTION('ref_axis',(-1.,0.,0.));
#792=DIRECTION('',(0.,0.,-1.));
#793=DIRECTION('center_axis',(0.,0.,-1.));
#794=DIRECTION('ref_axis',(-1.,0.,0.));
#795=DIRECTION('center_axis',(0.,0.,1.));
#796=DIRECTION('ref_axis',(-1.,0.,0.));
#797=DIRECTION('center_axis',(0.,0.,-1.));
#798=DIRECTION('ref_axis',(-1.,0.,0.));
#799=DIRECTION('',(0.,0.,-1.));
#800=DIRECTION('center_axis',(0.,0.,-1.));
#801=DIRECTION('ref_axis',(-1.,0.,0.));
#802=DIRECTION('center_axis',(0.,0.,1.));
#803=DIRECTION('ref_axis',(-1.,0.,0.));
#804=DIRECTION('center_axis',(0.,0.,-1.));
#805=DIRECTION('ref_axis',(-1.,0.,0.));
#806=DIRECTION('',(0.,0.,-1.));
#807=DIRECTION('center_axis',(0.,0.,-1.));
#808=DIRECTION('ref_axis',(-1.,0.,0.));
#809=DIRECTION('center_axis',(0.,0.,1.));
#810=DIRECTION('ref_axis',(-1.,0.,0.));
#811=DIRECTION('center_axis',(0.,0.,-1.));
#812=DIRECTION('ref_axis',(-1.,0.,0.));
#813=DIRECTION('',(0.,0.,-1.));
#814=DIRECTION('center_axis',(0.,0.,-1.));
#815=DIRECTION('ref_axis',(-1.,0.,0.));
#816=DIRECTION('center_axis',(0.,0.,1.));
#817=DIRECTION('ref_axis',(-1.,0.,0.));
#818=DIRECTION('center_axis',(0.,0.,-1.));
#819=DIRECTION('ref_axis',(-1.,0.,0.));
#820=DIRECTION('',(0.,0.,-1.));
#821=DIRECTION('center_axis',(0.,0.,-1.));
#822=DIRECTION('ref_axis',(-1.,0.,0.));
#823=DIRECTION('center_axis',(0.,0.,1.));
#824=DIRECTION('ref_axis',(-1.,0.,0.));
#825=DIRECTION('center_axis',(-1.,0.,0.));
#826=DIRECTION('ref_axis',(0.,-1.,0.));
#827=DIRECTION('',(0.,1.,0.));
#828=DIRECTION('',(0.,0.,1.));
#829=DIRECTION('',(0.,0.,1.));
#830=DIRECTION('center_axis',(1.,1.14287664299648E-15,0.));
#831=DIRECTION('ref_axis',(-1.14287664299648E-15,1.,0.));
#832=DIRECTION('',(1.14287664299648E-15,-1.,0.));
#833=DIRECTION('',(0.,0.,1.));
#834=DIRECTION('',(0.,0.,1.));
#835=DIRECTION('center_axis',(0.,0.,1.));
#836=DIRECTION('ref_axis',(1.,0.,0.));
#837=DIRECTION('',(-1.,0.,0.));
#838=DIRECTION('',(7.34706413354883E-16,-1.,0.));
#839=DIRECTION('',(1.,0.,0.));
#840=DIRECTION('center_axis',(0.,0.,-1.));
#841=DIRECTION('ref_axis',(1.,0.,0.));
#842=DIRECTION('center_axis',(0.,0.,-1.));
#843=DIRECTION('ref_axis',(1.,0.,0.));
#844=DIRECTION('center_axis',(0.,0.,1.));
#845=DIRECTION('ref_axis',(1.,0.,0.));
#846=DIRECTION('',(1.,0.,0.));
#847=DIRECTION('',(-1.22451068892481E-15,1.,0.));
#848=DIRECTION('',(-1.,0.,0.));
#849=DIRECTION('center_axis',(0.,0.,-1.));
#850=DIRECTION('ref_axis',(1.,0.,0.));
#851=DIRECTION('center_axis',(0.,0.,-1.));
#852=DIRECTION('ref_axis',(1.,0.,0.));
#853=DIRECTION('center_axis',(0.,0.,1.));
#854=DIRECTION('ref_axis',(1.,0.,0.));
#855=DIRECTION('',(0.,0.,-1.));
#856=DIRECTION('center_axis',(0.,0.,-1.));
#857=DIRECTION('ref_axis',(1.,0.,0.));
#858=DIRECTION('center_axis',(0.,0.,1.));
#859=DIRECTION('ref_axis',(1.,0.,0.));
#860=DIRECTION('',(0.,0.,-1.));
#861=DIRECTION('center_axis',(0.,0.,-1.));
#862=DIRECTION('ref_axis',(1.,0.,0.));
#863=DIRECTION('center_axis',(0.,0.,1.));
#864=DIRECTION('ref_axis',(1.,0.,0.));
#865=DIRECTION('',(0.,0.,-1.));
#866=DIRECTION('center_axis',(0.,0.,-1.));
#867=DIRECTION('ref_axis',(1.,0.,0.));
#868=DIRECTION('center_axis',(0.,0.,1.));
#869=DIRECTION('ref_axis',(1.,0.,0.));
#870=DIRECTION('',(0.,0.,-1.));
#871=DIRECTION('center_axis',(0.,0.,-1.));
#872=DIRECTION('ref_axis',(1.,0.,0.));
#873=DIRECTION('center_axis',(-1.,-7.34706413354883E-16,0.));
#874=DIRECTION('ref_axis',(7.34706413354883E-16,-1.,0.));
#875=DIRECTION('',(-7.34706413354883E-16,1.,0.));
#876=DIRECTION('',(0.,0.,1.));
#877=DIRECTION('',(0.,0.,1.));
#878=DIRECTION('center_axis',(0.,1.,0.));
#879=DIRECTION('ref_axis',(-1.,0.,0.));
#880=DIRECTION('',(1.,0.,0.));
#881=DIRECTION('',(0.,0.,1.));
#882=DIRECTION('center_axis',(1.,1.22451068892481E-15,0.));
#883=DIRECTION('ref_axis',(-1.22451068892481E-15,1.,0.));
#884=DIRECTION('',(1.22451068892481E-15,-1.,0.));
#885=DIRECTION('',(0.,0.,1.));
#886=DIRECTION('center_axis',(0.,-1.,0.));
#887=DIRECTION('ref_axis',(1.,0.,0.));
#888=DIRECTION('',(-1.,0.,0.));
#889=DIRECTION('center_axis',(0.,0.,1.));
#890=DIRECTION('ref_axis',(1.,0.,0.));
#891=CARTESIAN_POINT('',(0.,0.,0.));
#892=CARTESIAN_POINT('Origin',(10.73,2.29999999999995,8.));
#893=CARTESIAN_POINT('',(10.73,2.29999999999995,8.));
#894=CARTESIAN_POINT('',(10.73,-27.2000000000001,8.));
#895=CARTESIAN_POINT('',(10.73,-5.07500000000005,8.));
#896=CARTESIAN_POINT('',(10.73,2.29999999999995,7.));
#897=CARTESIAN_POINT('',(10.73,2.29999999999995,7.));
#898=CARTESIAN_POINT('',(10.73,-27.2000000000001,7.));
#899=CARTESIAN_POINT('',(10.73,2.29999999999995,7.));
#900=CARTESIAN_POINT('',(10.73,-27.2,4.));
#901=CARTESIAN_POINT('Origin',(9.73000000000001,-27.2000000000001,8.));
#902=CARTESIAN_POINT('',(9.73000000000001,-27.2000000000001,8.));
#903=CARTESIAN_POINT('',(9.73000000000001,2.29999999999995,8.));
#904=CARTESIAN_POINT('',(9.73000000000001,-19.8250000000001,8.));
#905=CARTESIAN_POINT('',(9.73000000000001,-27.2000000000001,7.));
#906=CARTESIAN_POINT('',(9.73000000000001,-27.2,4.));
#907=CARTESIAN_POINT('',(9.73000000000001,2.29999999999995,7.));
#908=CARTESIAN_POINT('',(9.73000000000001,-27.2000000000001,7.));
#909=CARTESIAN_POINT('',(9.73000000000001,2.29999999999995,7.));
#910=CARTESIAN_POINT('Origin',(10.23,-12.4500000000001,7.));
#911=CARTESIAN_POINT('',(-8.48499999999999,-27.2,7.));
#912=CARTESIAN_POINT('',(11.365,2.29999999999995,7.));
#913=CARTESIAN_POINT('Origin',(-9.73000000000002,2.29999999999995,8.));
#914=CARTESIAN_POINT('',(-9.73000000000002,2.29999999999995,8.));
#915=CARTESIAN_POINT('',(-9.73000000000002,-27.2000000000001,8.));
#916=CARTESIAN_POINT('',(-9.73000000000002,-5.07500000000005,8.));
#917=CARTESIAN_POINT('',(-9.73000000000002,2.29999999999995,7.));
#918=CARTESIAN_POINT('',(-9.73000000000002,2.29999999999995,7.));
#919=CARTESIAN_POINT('',(-9.73000000000002,-27.2000000000001,7.));
#920=CARTESIAN_POINT('',(-9.73000000000002,2.29999999999995,7.));
#921=CARTESIAN_POINT('',(-9.73000000000002,-27.2,4.));
#922=CARTESIAN_POINT('Origin',(-10.73,-27.2000000000001,8.));
#923=CARTESIAN_POINT('',(-10.73,-27.2000000000001,8.));
#924=CARTESIAN_POINT('',(-10.73,2.29999999999995,8.));
#925=CARTESIAN_POINT('',(-10.73,-19.8250000000001,8.));
#926=CARTESIAN_POINT('',(-10.73,-27.2000000000001,7.));
#927=CARTESIAN_POINT('',(-10.73,-27.2,4.));
#928=CARTESIAN_POINT('',(-10.73,2.29999999999995,7.));
#929=CARTESIAN_POINT('',(-10.73,-27.2000000000001,7.));
#930=CARTESIAN_POINT('',(-10.73,2.29999999999995,7.));
#931=CARTESIAN_POINT('Origin',(-10.23,-12.4500000000001,7.));
#932=CARTESIAN_POINT('',(-18.715,-27.2,7.));
#933=CARTESIAN_POINT('',(1.135,2.29999999999995,7.));
#934=CARTESIAN_POINT('Origin',(0.,-12.4500000000001,8.));
#935=CARTESIAN_POINT('',(-12.5,2.29999999999995,8.));
#936=CARTESIAN_POINT('',(12.5,2.29999999999995,8.));
#937=CARTESIAN_POINT('',(-12.5,-27.2000000000001,8.));
#938=CARTESIAN_POINT('',(-12.5,2.29999999999995,8.));
#939=CARTESIAN_POINT('',(-12.5,-27.2000000000001,8.));
#940=CARTESIAN_POINT('Origin',(0.,-12.4500000000001,8.));
#941=CARTESIAN_POINT('',(12.5,-27.2000000000001,8.));
#942=CARTESIAN_POINT('',(-12.5,-27.2000000000001,8.));
#943=CARTESIAN_POINT('',(12.5,2.29999999999995,8.));
#944=CARTESIAN_POINT('',(12.5,-27.2000000000001,8.));
#945=CARTESIAN_POINT('',(12.5,2.29999999999995,8.));
#946=CARTESIAN_POINT('Origin',(0.,-12.4500000000001,8.));
#947=CARTESIAN_POINT('',(12.5,2.29999999999995,8.));
#948=CARTESIAN_POINT('',(-12.5,-27.2000000000001,8.));
#949=CARTESIAN_POINT('',(9.,0.299999999999994,8.));
#950=CARTESIAN_POINT('Origin',(7.5,0.299999999999992,8.));
#951=CARTESIAN_POINT('',(-6.,0.299999999999994,8.));
#952=CARTESIAN_POINT('Origin',(-7.5,0.299999999999992,8.));
#953=CARTESIAN_POINT('',(9.,-20.7,8.));
#954=CARTESIAN_POINT('Origin',(7.5,-20.7,8.));
#955=CARTESIAN_POINT('',(-6.,-20.7,8.));
#956=CARTESIAN_POINT('Origin',(-7.5,-20.7,8.));
#957=CARTESIAN_POINT('Origin',(12.5,2.29999999999995,6.));
#958=CARTESIAN_POINT('',(12.5,2.29999999999995,6.3));
#959=CARTESIAN_POINT('',(12.5,2.29999999999995,6.));
#960=CARTESIAN_POINT('',(-12.5,2.29999999999995,6.3));
#961=CARTESIAN_POINT('',(6.25000000000001,2.29999999999995,6.3));
#962=CARTESIAN_POINT('',(-12.5,2.29999999999995,6.));
#963=CARTESIAN_POINT('Origin',(1.55431223447522E-14,-3.10862446895044E-14,
6.3));
#964=CARTESIAN_POINT('',(12.5,27.2,6.3));
#965=CARTESIAN_POINT('',(12.5,27.2,6.3));
#966=CARTESIAN_POINT('',(-12.5,27.2,6.3));
#967=CARTESIAN_POINT('',(-12.5,27.2,6.3));
#968=CARTESIAN_POINT('',(-12.5,-27.2000000000001,6.3));
#969=CARTESIAN_POINT('',(-3.5,24.7,6.3));
#970=CARTESIAN_POINT('Origin',(-5.,24.7,6.3));
#971=CARTESIAN_POINT('',(6.5,24.7,6.3));
#972=CARTESIAN_POINT('Origin',(5.,24.7,6.3));
#973=CARTESIAN_POINT('Origin',(5.,24.7,6.));
#974=CARTESIAN_POINT('',(6.5,24.7,3.));
#975=CARTESIAN_POINT('',(6.5,24.7,6.));
#976=CARTESIAN_POINT('Origin',(5.,24.7,3.));
#977=CARTESIAN_POINT('Origin',(5.,24.7,3.));
#978=CARTESIAN_POINT('Origin',(-7.5,0.299999999999992,6.));
#979=CARTESIAN_POINT('',(-6.,0.299999999999992,3.));
#980=CARTESIAN_POINT('',(-6.,0.299999999999992,6.));
#981=CARTESIAN_POINT('Origin',(-7.5,0.299999999999992,3.));
#982=CARTESIAN_POINT('Origin',(-7.5,0.299999999999992,3.));
#983=CARTESIAN_POINT('Origin',(-5.,24.7,6.));
#984=CARTESIAN_POINT('',(-3.5,24.7,3.));
#985=CARTESIAN_POINT('',(-3.5,24.7,6.));
#986=CARTESIAN_POINT('Origin',(-5.,24.7,3.));
#987=CARTESIAN_POINT('Origin',(-5.,24.7,3.));
#988=CARTESIAN_POINT('Origin',(7.5,-20.7,6.));
#989=CARTESIAN_POINT('',(9.,-20.7,3.));
#990=CARTESIAN_POINT('',(9.,-20.7,6.));
#991=CARTESIAN_POINT('Origin',(7.5,-20.7,3.));
#992=CARTESIAN_POINT('Origin',(7.5,-20.7,3.));
#993=CARTESIAN_POINT('Origin',(7.5,0.299999999999992,6.));
#994=CARTESIAN_POINT('',(9.,0.299999999999992,3.));
#995=CARTESIAN_POINT('',(9.,0.299999999999992,6.));
#996=CARTESIAN_POINT('Origin',(7.5,0.299999999999992,3.));
#997=CARTESIAN_POINT('Origin',(7.5,0.299999999999992,3.));
#998=CARTESIAN_POINT('Origin',(-7.5,-20.7,6.));
#999=CARTESIAN_POINT('',(-6.,-20.7,3.));
#1000=CARTESIAN_POINT('',(-6.,-20.7,6.));
#1001=CARTESIAN_POINT('Origin',(-7.5,-20.7,3.));
#1002=CARTESIAN_POINT('Origin',(-7.5,-20.7,3.));
#1003=CARTESIAN_POINT('Origin',(-12.5,27.2,3.));
#1004=CARTESIAN_POINT('',(-12.5,-27.2000000000001,3.));
#1005=CARTESIAN_POINT('',(-12.5,27.2,3.));
#1006=CARTESIAN_POINT('',(-12.5,13.6,3.));
#1007=CARTESIAN_POINT('',(-12.5,-27.2000000000001,3.));
#1008=CARTESIAN_POINT('',(-12.5,27.2,3.));
#1009=CARTESIAN_POINT('Origin',(12.5,-27.2000000000001,3.));
#1010=CARTESIAN_POINT('',(12.5,27.2,3.));
#1011=CARTESIAN_POINT('',(12.5,-27.2000000000001,3.));
#1012=CARTESIAN_POINT('',(12.5,-13.6,3.));
#1013=CARTESIAN_POINT('',(12.5,27.2,3.));
#1014=CARTESIAN_POINT('',(12.5,-27.2000000000001,3.));
#1015=CARTESIAN_POINT('Origin',(8.88178419700125E-15,-8.88178419700125E-15,
3.));
#1016=CARTESIAN_POINT('',(-27.2,27.2,3.));
#1017=CARTESIAN_POINT('',(-27.2,27.2,3.));
#1018=CARTESIAN_POINT('',(-27.2,-27.2,3.));
#1019=CARTESIAN_POINT('',(-27.2,-27.2,3.));
#1020=CARTESIAN_POINT('',(27.2,-27.2,3.));
#1021=CARTESIAN_POINT('',(-21.6,-17.5,3.));
#1022=CARTESIAN_POINT('Origin',(-20.1,-17.5,3.));
#1023=CARTESIAN_POINT('',(-21.6,17.5,3.));
#1024=CARTESIAN_POINT('Origin',(-20.1,17.5,3.));
#1025=CARTESIAN_POINT('Origin',(8.88178419700125E-15,-8.88178419700125E-15,
3.));
#1026=CARTESIAN_POINT('',(27.2,-27.2,3.));
#1027=CARTESIAN_POINT('',(27.2,-27.2,3.));
#1028=CARTESIAN_POINT('',(27.2,27.2,3.));
#1029=CARTESIAN_POINT('',(27.2,27.2,3.));
#1030=CARTESIAN_POINT('',(-27.2,27.2,3.));
#1031=CARTESIAN_POINT('',(18.6,17.5,3.));
#1032=CARTESIAN_POINT('Origin',(20.1,17.5,3.));
#1033=CARTESIAN_POINT('',(18.6,-17.5,3.));
#1034=CARTESIAN_POINT('Origin',(20.1,-17.5,3.));
#1035=CARTESIAN_POINT('Origin',(-20.1,17.5,0.));
#1036=CARTESIAN_POINT('',(-21.6,17.5,0.));
#1037=CARTESIAN_POINT('',(-21.6,17.5,0.));
#1038=CARTESIAN_POINT('Origin',(-20.1,17.5,0.));
#1039=CARTESIAN_POINT('Origin',(20.1,17.5,0.));
#1040=CARTESIAN_POINT('',(18.6,17.5,0.));
#1041=CARTESIAN_POINT('',(18.6,17.5,0.));
#1042=CARTESIAN_POINT('Origin',(20.1,17.5,0.));
#1043=CARTESIAN_POINT('Origin',(-20.1,-17.5,0.));
#1044=CARTESIAN_POINT('',(-21.6,-17.5,0.));
#1045=CARTESIAN_POINT('',(-21.6,-17.5,0.));
#1046=CARTESIAN_POINT('Origin',(-20.1,-17.5,0.));
#1047=CARTESIAN_POINT('Origin',(20.1,-17.5,0.));
#1048=CARTESIAN_POINT('',(18.6,-17.5,0.));
#1049=CARTESIAN_POINT('',(18.6,-17.5,0.));
#1050=CARTESIAN_POINT('Origin',(20.1,-17.5,0.));
#1051=CARTESIAN_POINT('Origin',(-27.2,27.2,0.));
#1052=CARTESIAN_POINT('',(-27.2,-27.2,0.));
#1053=CARTESIAN_POINT('',(-27.2,27.2,0.));
#1054=CARTESIAN_POINT('',(-27.2,-27.2,0.));
#1055=CARTESIAN_POINT('',(-27.2,-27.2,0.));
#1056=CARTESIAN_POINT('',(-27.2,27.2,0.));
#1057=CARTESIAN_POINT('Origin',(27.2,27.2,0.));
#1058=CARTESIAN_POINT('',(27.2,27.2,0.));
#1059=CARTESIAN_POINT('',(-27.2,27.2,0.));
#1060=CARTESIAN_POINT('',(27.2,27.2,0.));
#1061=CARTESIAN_POINT('Origin',(27.2,-27.2,0.));
#1062=CARTESIAN_POINT('',(27.2,-27.2,0.));
#1063=CARTESIAN_POINT('',(27.2,27.2,0.));
#1064=CARTESIAN_POINT('',(27.2,-27.2,0.));
#1065=CARTESIAN_POINT('Origin',(-27.2,-27.2,0.));
#1066=CARTESIAN_POINT('',(27.2,-27.2,0.));
#1067=CARTESIAN_POINT('Origin',(8.88178419700125E-15,-8.88178419700125E-15,
0.));
#1068=UNCERTAINTY_MEASURE_WITH_UNIT(LENGTH_MEASURE(0.01),#1072,
'DISTANCE_ACCURACY_VALUE',
'Maximum model space distance between geometric entities at asserted c
onnectivities');
#1069=UNCERTAINTY_MEASURE_WITH_UNIT(LENGTH_MEASURE(0.01),#1072,
'DISTANCE_ACCURACY_VALUE',
'Maximum model space distance between geometric entities at asserted c
onnectivities');
#1070=(
GEOMETRIC_REPRESENTATION_CONTEXT(3)
GLOBAL_UNCERTAINTY_ASSIGNED_CONTEXT((#1068))
GLOBAL_UNIT_ASSIGNED_CONTEXT((#1072,#1074,#1075))
REPRESENTATION_CONTEXT('','3D')
);
#1071=(
GEOMETRIC_REPRESENTATION_CONTEXT(3)
GLOBAL_UNCERTAINTY_ASSIGNED_CONTEXT((#1069))
GLOBAL_UNIT_ASSIGNED_CONTEXT((#1072,#1074,#1075))
REPRESENTATION_CONTEXT('','3D')
);
#1072=(
LENGTH_UNIT()
NAMED_UNIT(*)
SI_UNIT(.MILLI.,.METRE.)
);
#1073=(
LENGTH_UNIT()
NAMED_UNIT(*)
SI_UNIT($,.METRE.)
);
#1074=(
NAMED_UNIT(*)
PLANE_ANGLE_UNIT()
SI_UNIT($,.RADIAN.)
);
#1075=(
NAMED_UNIT(*)
SI_UNIT($,.STERADIAN.)
SOLID_ANGLE_UNIT()
);
#1076=SHAPE_DEFINITION_REPRESENTATION(#1077,#1078);
#1077=PRODUCT_DEFINITION_SHAPE('',$,#1080);
#1078=SHAPE_REPRESENTATION('',(#656),#1070);
#1079=PRODUCT_DEFINITION_CONTEXT('part definition',#1084,'design');
#1080=PRODUCT_DEFINITION('2026-04-23-15-36-49-562','X_Stage_Prelim',#1081,
#1079);
#1081=PRODUCT_DEFINITION_FORMATION('',$,#1086);
#1082=PRODUCT_RELATED_PRODUCT_CATEGORY('X_Stage_Prelim',
'X_Stage_Prelim',(#1086));
#1083=APPLICATION_PROTOCOL_DEFINITION('international standard',
'automotive_design',2009,#1084);
#1084=APPLICATION_CONTEXT(
'Core Data for Automotive Mechanical Design Process');
#1085=PRODUCT_CONTEXT('part definition',#1084,'mechanical');
#1086=PRODUCT('2026-04-23-15-36-49-562','X_Stage_Prelim',$,(#1085));
#1087=PRESENTATION_STYLE_ASSIGNMENT((#1088));
#1088=SURFACE_STYLE_USAGE(.BOTH.,#1089);
#1089=SURFACE_SIDE_STYLE('',(#1090));
#1090=SURFACE_STYLE_FILL_AREA(#1091);
#1091=FILL_AREA_STYLE('Steel - Satin',(#1092));
#1092=FILL_AREA_STYLE_COLOUR('Steel - Satin',#1093);
#1093=COLOUR_RGB('Steel - Satin',0.627450980392157,0.627450980392157,0.627450980392157);
ENDSEC;
END-ISO-10303-21;
