ISO-10303-21;
HEADER;
/* Generated by software containing ST-Developer
 * from STEP Tools, Inc. (www.steptools.com) 
 */

FILE_DESCRIPTION(
/* description */ (''),
/* implementation_level */ '2;1');

FILE_NAME(
/* name */ 'Y_Stage.step',
/* time_stamp */ '2026-08-18T16:11:06-04:00',
/* author */ (''),
/* organization */ (''),
/* preprocessor_version */ 'ST-DEVELOPER v20.1',
/* originating_system */ 'Autodesk Translation Framework v15.8.0.0',
/* authorisation */ '');

FILE_SCHEMA (('AUTOMOTIVE_DESIGN { 1 0 10303 214 3 1 1 }'));
ENDSEC;

DATA;
#10=MECHANICAL_DESIGN_GEOMETRIC_PRESENTATION_REPRESENTATION('',(#13),#1671);
#11=SHAPE_REPRESENTATION_RELATIONSHIP('SRR','None',#1678,#12);
#12=ADVANCED_BREP_SHAPE_REPRESENTATION('',(#14),#1670);
#13=STYLED_ITEM('',(#1687),#14);
#14=MANIFOLD_SOLID_BREP('Body1',#1003);
#15=CYLINDRICAL_SURFACE('',#1036,2.25);
#16=CYLINDRICAL_SURFACE('',#1041,2.25);
#17=CYLINDRICAL_SURFACE('',#1046,2.25);
#18=CYLINDRICAL_SURFACE('',#1051,2.25);
#19=CYLINDRICAL_SURFACE('',#1056,1.25);
#20=CYLINDRICAL_SURFACE('',#1057,1.25);
#21=CYLINDRICAL_SURFACE('',#1058,1.25);
#22=CYLINDRICAL_SURFACE('',#1059,1.25);
#23=CYLINDRICAL_SURFACE('',#1077,1.5);
#24=CYLINDRICAL_SURFACE('',#1080,1.5);
#25=CYLINDRICAL_SURFACE('',#1083,1.5);
#26=CYLINDRICAL_SURFACE('',#1086,1.5);
#27=CYLINDRICAL_SURFACE('',#1089,1.5);
#28=CYLINDRICAL_SURFACE('',#1092,1.5);
#29=CYLINDRICAL_SURFACE('',#1103,1.5);
#30=CYLINDRICAL_SURFACE('',#1104,1.5);
#31=CYLINDRICAL_SURFACE('',#1105,1.5);
#32=CYLINDRICAL_SURFACE('',#1106,1.5);
#33=FACE_BOUND('',#160,.T.);
#34=FACE_BOUND('',#161,.T.);
#35=FACE_BOUND('',#162,.T.);
#36=FACE_BOUND('',#163,.T.);
#37=FACE_BOUND('',#165,.T.);
#38=FACE_BOUND('',#166,.T.);
#39=FACE_BOUND('',#167,.T.);
#40=FACE_BOUND('',#168,.T.);
#41=FACE_BOUND('',#172,.T.);
#42=FACE_BOUND('',#175,.T.);
#43=FACE_BOUND('',#178,.T.);
#44=FACE_BOUND('',#181,.T.);
#45=FACE_BOUND('',#195,.T.);
#46=FACE_BOUND('',#196,.T.);
#47=FACE_BOUND('',#197,.T.);
#48=FACE_BOUND('',#198,.T.);
#49=FACE_BOUND('',#201,.T.);
#50=FACE_BOUND('',#202,.T.);
#51=FACE_BOUND('',#218,.T.);
#52=FACE_BOUND('',#219,.T.);
#53=FACE_BOUND('',#220,.T.);
#54=FACE_BOUND('',#221,.T.);
#55=FACE_BOUND('',#223,.T.);
#56=FACE_BOUND('',#224,.T.);
#57=FACE_BOUND('',#225,.T.);
#58=FACE_BOUND('',#226,.T.);
#59=CIRCLE('',#1026,1.25);
#60=CIRCLE('',#1027,1.25);
#61=CIRCLE('',#1028,1.5);
#62=CIRCLE('',#1029,1.5);
#63=CIRCLE('',#1031,1.25);
#64=CIRCLE('',#1032,1.25);
#65=CIRCLE('',#1033,1.5);
#66=CIRCLE('',#1034,1.5);
#67=CIRCLE('',#1037,2.25);
#68=CIRCLE('',#1038,2.25);
#69=CIRCLE('',#1040,1.25);
#70=CIRCLE('',#1042,2.25);
#71=CIRCLE('',#1043,2.25);
#72=CIRCLE('',#1045,1.25);
#73=CIRCLE('',#1047,2.25);
#74=CIRCLE('',#1048,2.25);
#75=CIRCLE('',#1050,1.25);
#76=CIRCLE('',#1052,2.25);
#77=CIRCLE('',#1053,2.25);
#78=CIRCLE('',#1055,1.25);
#79=CIRCLE('',#1069,1.5);
#80=CIRCLE('',#1070,1.5);
#81=CIRCLE('',#1071,1.5);
#82=CIRCLE('',#1072,1.5);
#83=CIRCLE('',#1075,1.5);
#84=CIRCLE('',#1076,1.5);
#85=CIRCLE('',#1078,1.5);
#86=CIRCLE('',#1081,1.5);
#87=CIRCLE('',#1084,1.5);
#88=CIRCLE('',#1087,1.5);
#89=CIRCLE('',#1090,1.5);
#90=CIRCLE('',#1093,1.5);
#91=CIRCLE('',#1098,1.5);
#92=CIRCLE('',#1099,1.5);
#93=CIRCLE('',#1101,1.5);
#94=CIRCLE('',#1102,1.5);
#95=FACE_OUTER_BOUND('',#151,.T.);
#96=FACE_OUTER_BOUND('',#152,.T.);
#97=FACE_OUTER_BOUND('',#153,.T.);
#98=FACE_OUTER_BOUND('',#154,.T.);
#99=FACE_OUTER_BOUND('',#155,.T.);
#100=FACE_OUTER_BOUND('',#156,.T.);
#101=FACE_OUTER_BOUND('',#157,.T.);
#102=FACE_OUTER_BOUND('',#158,.T.);
#103=FACE_OUTER_BOUND('',#159,.T.);
#104=FACE_OUTER_BOUND('',#164,.T.);
#105=FACE_OUTER_BOUND('',#169,.T.);
#106=FACE_OUTER_BOUND('',#170,.T.);
#107=FACE_OUTER_BOUND('',#171,.T.);
#108=FACE_OUTER_BOUND('',#173,.T.);
#109=FACE_OUTER_BOUND('',#174,.T.);
#110=FACE_OUTER_BOUND('',#176,.T.);
#111=FACE_OUTER_BOUND('',#177,.T.);
#112=FACE_OUTER_BOUND('',#179,.T.);
#113=FACE_OUTER_BOUND('',#180,.T.);
#114=FACE_OUTER_BOUND('',#182,.T.);
#115=FACE_OUTER_BOUND('',#183,.T.);
#116=FACE_OUTER_BOUND('',#184,.T.);
#117=FACE_OUTER_BOUND('',#185,.T.);
#118=FACE_OUTER_BOUND('',#186,.T.);
#119=FACE_OUTER_BOUND('',#187,.T.);
#120=FACE_OUTER_BOUND('',#188,.T.);
#121=FACE_OUTER_BOUND('',#189,.T.);
#122=FACE_OUTER_BOUND('',#190,.T.);
#123=FACE_OUTER_BOUND('',#191,.T.);
#124=FACE_OUTER_BOUND('',#192,.T.);
#125=FACE_OUTER_BOUND('',#193,.T.);
#126=FACE_OUTER_BOUND('',#194,.T.);
#127=FACE_OUTER_BOUND('',#199,.T.);
#128=FACE_OUTER_BOUND('',#200,.T.);
#129=FACE_OUTER_BOUND('',#203,.T.);
#130=FACE_OUTER_BOUND('',#204,.T.);
#131=FACE_OUTER_BOUND('',#205,.T.);
#132=FACE_OUTER_BOUND('',#206,.T.);
#133=FACE_OUTER_BOUND('',#207,.T.);
#134=FACE_OUTER_BOUND('',#208,.T.);
#135=FACE_OUTER_BOUND('',#209,.T.);
#136=FACE_OUTER_BOUND('',#210,.T.);
#137=FACE_OUTER_BOUND('',#211,.T.);
#138=FACE_OUTER_BOUND('',#212,.T.);
#139=FACE_OUTER_BOUND('',#213,.T.);
#140=FACE_OUTER_BOUND('',#214,.T.);
#141=FACE_OUTER_BOUND('',#215,.T.);
#142=FACE_OUTER_BOUND('',#216,.T.);
#143=FACE_OUTER_BOUND('',#217,.T.);
#144=FACE_OUTER_BOUND('',#222,.T.);
#145=FACE_OUTER_BOUND('',#227,.T.);
#146=FACE_OUTER_BOUND('',#228,.T.);
#147=FACE_OUTER_BOUND('',#229,.T.);
#148=FACE_OUTER_BOUND('',#230,.T.);
#149=FACE_OUTER_BOUND('',#231,.T.);
#150=FACE_OUTER_BOUND('',#232,.T.);
#151=EDGE_LOOP('',(#645,#646,#647,#648));
#152=EDGE_LOOP('',(#649,#650,#651,#652));
#153=EDGE_LOOP('',(#653,#654,#655,#656));
#154=EDGE_LOOP('',(#657,#658,#659,#660,#661,#662,#663,#664,#665,#666,#667,
#668));
#155=EDGE_LOOP('',(#669,#670,#671,#672));
#156=EDGE_LOOP('',(#673,#674,#675,#676));
#157=EDGE_LOOP('',(#677,#678,#679,#680));
#158=EDGE_LOOP('',(#681,#682,#683,#684));
#159=EDGE_LOOP('',(#685,#686,#687,#688));
#160=EDGE_LOOP('',(#689));
#161=EDGE_LOOP('',(#690));
#162=EDGE_LOOP('',(#691));
#163=EDGE_LOOP('',(#692));
#164=EDGE_LOOP('',(#693,#694,#695,#696));
#165=EDGE_LOOP('',(#697));
#166=EDGE_LOOP('',(#698));
#167=EDGE_LOOP('',(#699));
#168=EDGE_LOOP('',(#700));
#169=EDGE_LOOP('',(#701,#702,#703,#704,#705,#706,#707,#708,#709,#710,#711,
#712));
#170=EDGE_LOOP('',(#713,#714,#715,#716));
#171=EDGE_LOOP('',(#717));
#172=EDGE_LOOP('',(#718));
#173=EDGE_LOOP('',(#719,#720,#721,#722));
#174=EDGE_LOOP('',(#723));
#175=EDGE_LOOP('',(#724));
#176=EDGE_LOOP('',(#725,#726,#727,#728));
#177=EDGE_LOOP('',(#729));
#178=EDGE_LOOP('',(#730));
#179=EDGE_LOOP('',(#731,#732,#733,#734));
#180=EDGE_LOOP('',(#735));
#181=EDGE_LOOP('',(#736));
#182=EDGE_LOOP('',(#737,#738,#739,#740));
#183=EDGE_LOOP('',(#741,#742,#743,#744));
#184=EDGE_LOOP('',(#745,#746,#747,#748));
#185=EDGE_LOOP('',(#749,#750,#751,#752));
#186=EDGE_LOOP('',(#753,#754,#755,#756));
#187=EDGE_LOOP('',(#757,#758,#759,#760));
#188=EDGE_LOOP('',(#761,#762,#763,#764));
#189=EDGE_LOOP('',(#765,#766,#767,#768));
#190=EDGE_LOOP('',(#769,#770,#771,#772));
#191=EDGE_LOOP('',(#773,#774,#775,#776));
#192=EDGE_LOOP('',(#777,#778,#779,#780));
#193=EDGE_LOOP('',(#781,#782,#783,#784));
#194=EDGE_LOOP('',(#785,#786,#787,#788));
#195=EDGE_LOOP('',(#789));
#196=EDGE_LOOP('',(#790));
#197=EDGE_LOOP('',(#791));
#198=EDGE_LOOP('',(#792));
#199=EDGE_LOOP('',(#793,#794,#795,#796,#797,#798,#799,#800,#801,#802,#803,
#804));
#200=EDGE_LOOP('',(#805,#806,#807,#808));
#201=EDGE_LOOP('',(#809));
#202=EDGE_LOOP('',(#810));
#203=EDGE_LOOP('',(#811,#812,#813,#814));
#204=EDGE_LOOP('',(#815));
#205=EDGE_LOOP('',(#816,#817,#818,#819));
#206=EDGE_LOOP('',(#820));
#207=EDGE_LOOP('',(#821,#822,#823,#824));
#208=EDGE_LOOP('',(#825));
#209=EDGE_LOOP('',(#826,#827,#828,#829));
#210=EDGE_LOOP('',(#830));
#211=EDGE_LOOP('',(#831,#832,#833,#834));
#212=EDGE_LOOP('',(#835));
#213=EDGE_LOOP('',(#836,#837,#838,#839));
#214=EDGE_LOOP('',(#840));
#215=EDGE_LOOP('',(#841,#842,#843,#844,#845,#846));
#216=EDGE_LOOP('',(#847,#848,#849,#850,#851,#852));
#217=EDGE_LOOP('',(#853,#854,#855,#856));
#218=EDGE_LOOP('',(#857));
#219=EDGE_LOOP('',(#858));
#220=EDGE_LOOP('',(#859));
#221=EDGE_LOOP('',(#860));
#222=EDGE_LOOP('',(#861,#862,#863,#864));
#223=EDGE_LOOP('',(#865));
#224=EDGE_LOOP('',(#866));
#225=EDGE_LOOP('',(#867));
#226=EDGE_LOOP('',(#868));
#227=EDGE_LOOP('',(#869,#870,#871,#872));
#228=EDGE_LOOP('',(#873,#874,#875,#876));
#229=EDGE_LOOP('',(#877,#878,#879,#880));
#230=EDGE_LOOP('',(#881,#882,#883,#884));
#231=EDGE_LOOP('',(#885,#886,#887,#888,#889,#890,#891,#892));
#232=EDGE_LOOP('',(#893,#894,#895,#896,#897,#898,#899,#900,#901,#902,#903,
#904,#905,#906,#907,#908));
#233=LINE('',#1395,#329);
#234=LINE('',#1397,#330);
#235=LINE('',#1399,#331);
#236=LINE('',#1400,#332);
#237=LINE('',#1404,#333);
#238=LINE('',#1406,#334);
#239=LINE('',#1408,#335);
#240=LINE('',#1409,#336);
#241=LINE('',#1411,#337);
#242=LINE('',#1412,#338);
#243=LINE('',#1415,#339);
#244=LINE('',#1417,#340);
#245=LINE('',#1419,#341);
#246=LINE('',#1421,#342);
#247=LINE('',#1423,#343);
#248=LINE('',#1425,#344);
#249=LINE('',#1427,#345);
#250=LINE('',#1429,#346);
#251=LINE('',#1430,#347);
#252=LINE('',#1433,#348);
#253=LINE('',#1434,#349);
#254=LINE('',#1437,#350);
#255=LINE('',#1439,#351);
#256=LINE('',#1440,#352);
#257=LINE('',#1443,#353);
#258=LINE('',#1444,#354);
#259=LINE('',#1446,#355);
#260=LINE('',#1449,#356);
#261=LINE('',#1450,#357);
#262=LINE('',#1461,#358);
#263=LINE('',#1462,#359);
#264=LINE('',#1473,#360);
#265=LINE('',#1475,#361);
#266=LINE('',#1476,#362);
#267=LINE('',#1481,#363);
#268=LINE('',#1490,#364);
#269=LINE('',#1499,#365);
#270=LINE('',#1508,#366);
#271=LINE('',#1514,#367);
#272=LINE('',#1516,#368);
#273=LINE('',#1518,#369);
#274=LINE('',#1520,#370);
#275=LINE('',#1524,#371);
#276=LINE('',#1526,#372);
#277=LINE('',#1528,#373);
#278=LINE('',#1529,#374);
#279=LINE('',#1533,#375);
#280=LINE('',#1535,#376);
#281=LINE('',#1537,#377);
#282=LINE('',#1538,#378);
#283=LINE('',#1540,#379);
#284=LINE('',#1541,#380);
#285=LINE('',#1545,#381);
#286=LINE('',#1547,#382);
#287=LINE('',#1549,#383);
#288=LINE('',#1550,#384);
#289=LINE('',#1554,#385);
#290=LINE('',#1556,#386);
#291=LINE('',#1558,#387);
#292=LINE('',#1559,#388);
#293=LINE('',#1561,#389);
#294=LINE('',#1562,#390);
#295=LINE('',#1565,#391);
#296=LINE('',#1567,#392);
#297=LINE('',#1568,#393);
#298=LINE('',#1571,#394);
#299=LINE('',#1573,#395);
#300=LINE('',#1574,#396);
#301=LINE('',#1576,#397);
#302=LINE('',#1577,#398);
#303=LINE('',#1588,#399);
#304=LINE('',#1590,#400);
#305=LINE('',#1591,#401);
#306=LINE('',#1594,#402);
#307=LINE('',#1596,#403);
#308=LINE('',#1597,#404);
#309=LINE('',#1604,#405);
#310=LINE('',#1609,#406);
#311=LINE('',#1614,#407);
#312=LINE('',#1619,#408);
#313=LINE('',#1624,#409);
#314=LINE('',#1629,#410);
#315=LINE('',#1635,#411);
#316=LINE('',#1636,#412);
#317=LINE('',#1637,#413);
#318=LINE('',#1641,#414);
#319=LINE('',#1642,#415);
#320=LINE('',#1643,#416);
#321=LINE('',#1645,#417);
#322=LINE('',#1646,#418);
#323=LINE('',#1652,#419);
#324=LINE('',#1653,#420);
#325=LINE('',#1659,#421);
#326=LINE('',#1661,#422);
#327=LINE('',#1663,#423);
#328=LINE('',#1665,#424);
#329=VECTOR('',#1113,10.);
#330=VECTOR('',#1114,10.);
#331=VECTOR('',#1115,10.);
#332=VECTOR('',#1116,10.);
#333=VECTOR('',#1119,10.);
#334=VECTOR('',#1120,10.);
#335=VECTOR('',#1121,10.);
#336=VECTOR('',#1122,10.);
#337=VECTOR('',#1125,10.);
#338=VECTOR('',#1126,10.);
#339=VECTOR('',#1129,10.);
#340=VECTOR('',#1130,10.);
#341=VECTOR('',#1131,10.);
#342=VECTOR('',#1132,10.);
#343=VECTOR('',#1133,10.);
#344=VECTOR('',#1134,10.);
#345=VECTOR('',#1135,10.);
#346=VECTOR('',#1136,10.);
#347=VECTOR('',#1137,10.);
#348=VECTOR('',#1140,10.);
#349=VECTOR('',#1141,10.);
#350=VECTOR('',#1144,10.);
#351=VECTOR('',#1145,10.);
#352=VECTOR('',#1146,10.);
#353=VECTOR('',#1149,10.);
#354=VECTOR('',#1150,10.);
#355=VECTOR('',#1153,10.);
#356=VECTOR('',#1156,10.);
#357=VECTOR('',#1157,10.);
#358=VECTOR('',#1168,10.);
#359=VECTOR('',#1169,10.);
#360=VECTOR('',#1180,10.);
#361=VECTOR('',#1181,10.);
#362=VECTOR('',#1182,10.);
#363=VECTOR('',#1187,2.25);
#364=VECTOR('',#1198,2.25);
#365=VECTOR('',#1209,2.25);
#366=VECTOR('',#1220,2.25);
#367=VECTOR('',#1229,1.25);
#368=VECTOR('',#1232,1.25);
#369=VECTOR('',#1235,1.25);
#370=VECTOR('',#1238,1.25);
#371=VECTOR('',#1241,10.);
#372=VECTOR('',#1242,10.);
#373=VECTOR('',#1243,10.);
#374=VECTOR('',#1244,10.);
#375=VECTOR('',#1247,10.);
#376=VECTOR('',#1248,10.);
#377=VECTOR('',#1249,10.);
#378=VECTOR('',#1250,10.);
#379=VECTOR('',#1253,10.);
#380=VECTOR('',#1254,10.);
#381=VECTOR('',#1257,10.);
#382=VECTOR('',#1258,10.);
#383=VECTOR('',#1259,10.);
#384=VECTOR('',#1260,10.);
#385=VECTOR('',#1263,10.);
#386=VECTOR('',#1264,10.);
#387=VECTOR('',#1265,10.);
#388=VECTOR('',#1266,10.);
#389=VECTOR('',#1269,10.);
#390=VECTOR('',#1270,10.);
#391=VECTOR('',#1273,10.);
#392=VECTOR('',#1274,10.);
#393=VECTOR('',#1275,10.);
#394=VECTOR('',#1278,10.);
#395=VECTOR('',#1279,10.);
#396=VECTOR('',#1280,10.);
#397=VECTOR('',#1283,10.);
#398=VECTOR('',#1284,10.);
#399=VECTOR('',#1295,10.);
#400=VECTOR('',#1296,10.);
#401=VECTOR('',#1297,10.);
#402=VECTOR('',#1300,10.);
#403=VECTOR('',#1301,10.);
#404=VECTOR('',#1302,10.);
#405=VECTOR('',#1309,1.5);
#406=VECTOR('',#1316,1.5);
#407=VECTOR('',#1323,1.5);
#408=VECTOR('',#1330,1.5);
#409=VECTOR('',#1337,1.5);
#410=VECTOR('',#1344,1.5);
#411=VECTOR('',#1351,10.);
#412=VECTOR('',#1352,10.);
#413=VECTOR('',#1353,10.);
#414=VECTOR('',#1356,10.);
#415=VECTOR('',#1357,10.);
#416=VECTOR('',#1358,10.);
#417=VECTOR('',#1361,10.);
#418=VECTOR('',#1362,10.);
#419=VECTOR('',#1369,10.);
#420=VECTOR('',#1370,10.);
#421=VECTOR('',#1377,1.5);
#422=VECTOR('',#1380,1.5);
#423=VECTOR('',#1383,1.5);
#424=VECTOR('',#1386,1.5);
#425=VERTEX_POINT('',#1393);
#426=VERTEX_POINT('',#1394);
#427=VERTEX_POINT('',#1396);
#428=VERTEX_POINT('',#1398);
#429=VERTEX_POINT('',#1402);
#430=VERTEX_POINT('',#1403);
#431=VERTEX_POINT('',#1405);
#432=VERTEX_POINT('',#1407);
#433=VERTEX_POINT('',#1414);
#434=VERTEX_POINT('',#1416);
#435=VERTEX_POINT('',#1418);
#436=VERTEX_POINT('',#1420);
#437=VERTEX_POINT('',#1422);
#438=VERTEX_POINT('',#1424);
#439=VERTEX_POINT('',#1426);
#440=VERTEX_POINT('',#1428);
#441=VERTEX_POINT('',#1432);
#442=VERTEX_POINT('',#1436);
#443=VERTEX_POINT('',#1438);
#444=VERTEX_POINT('',#1442);
#445=VERTEX_POINT('',#1448);
#446=VERTEX_POINT('',#1451);
#447=VERTEX_POINT('',#1453);
#448=VERTEX_POINT('',#1455);
#449=VERTEX_POINT('',#1457);
#450=VERTEX_POINT('',#1460);
#451=VERTEX_POINT('',#1463);
#452=VERTEX_POINT('',#1465);
#453=VERTEX_POINT('',#1467);
#454=VERTEX_POINT('',#1469);
#455=VERTEX_POINT('',#1472);
#456=VERTEX_POINT('',#1474);
#457=VERTEX_POINT('',#1478);
#458=VERTEX_POINT('',#1480);
#459=VERTEX_POINT('',#1484);
#460=VERTEX_POINT('',#1487);
#461=VERTEX_POINT('',#1489);
#462=VERTEX_POINT('',#1493);
#463=VERTEX_POINT('',#1496);
#464=VERTEX_POINT('',#1498);
#465=VERTEX_POINT('',#1502);
#466=VERTEX_POINT('',#1505);
#467=VERTEX_POINT('',#1507);
#468=VERTEX_POINT('',#1511);
#469=VERTEX_POINT('',#1522);
#470=VERTEX_POINT('',#1523);
#471=VERTEX_POINT('',#1525);
#472=VERTEX_POINT('',#1527);
#473=VERTEX_POINT('',#1531);
#474=VERTEX_POINT('',#1532);
#475=VERTEX_POINT('',#1534);
#476=VERTEX_POINT('',#1536);
#477=VERTEX_POINT('',#1543);
#478=VERTEX_POINT('',#1544);
#479=VERTEX_POINT('',#1546);
#480=VERTEX_POINT('',#1548);
#481=VERTEX_POINT('',#1552);
#482=VERTEX_POINT('',#1553);
#483=VERTEX_POINT('',#1555);
#484=VERTEX_POINT('',#1557);
#485=VERTEX_POINT('',#1564);
#486=VERTEX_POINT('',#1566);
#487=VERTEX_POINT('',#1570);
#488=VERTEX_POINT('',#1572);
#489=VERTEX_POINT('',#1578);
#490=VERTEX_POINT('',#1580);
#491=VERTEX_POINT('',#1582);
#492=VERTEX_POINT('',#1584);
#493=VERTEX_POINT('',#1587);
#494=VERTEX_POINT('',#1589);
#495=VERTEX_POINT('',#1593);
#496=VERTEX_POINT('',#1595);
#497=VERTEX_POINT('',#1598);
#498=VERTEX_POINT('',#1600);
#499=VERTEX_POINT('',#1603);
#500=VERTEX_POINT('',#1608);
#501=VERTEX_POINT('',#1613);
#502=VERTEX_POINT('',#1618);
#503=VERTEX_POINT('',#1623);
#504=VERTEX_POINT('',#1628);
#505=VERTEX_POINT('',#1633);
#506=VERTEX_POINT('',#1634);
#507=VERTEX_POINT('',#1639);
#508=VERTEX_POINT('',#1640);
#509=VERTEX_POINT('',#1647);
#510=VERTEX_POINT('',#1649);
#511=VERTEX_POINT('',#1654);
#512=VERTEX_POINT('',#1656);
#513=EDGE_CURVE('',#425,#426,#233,.T.);
#514=EDGE_CURVE('',#427,#425,#234,.T.);
#515=EDGE_CURVE('',#427,#428,#235,.T.);
#516=EDGE_CURVE('',#426,#428,#236,.T.);
#517=EDGE_CURVE('',#429,#430,#237,.T.);
#518=EDGE_CURVE('',#431,#429,#238,.T.);
#519=EDGE_CURVE('',#431,#432,#239,.T.);
#520=EDGE_CURVE('',#430,#432,#240,.T.);
#521=EDGE_CURVE('',#428,#431,#241,.T.);
#522=EDGE_CURVE('',#432,#427,#242,.T.);
#523=EDGE_CURVE('',#433,#425,#243,.T.);
#524=EDGE_CURVE('',#433,#434,#244,.T.);
#525=EDGE_CURVE('',#434,#435,#245,.T.);
#526=EDGE_CURVE('',#435,#436,#246,.T.);
#527=EDGE_CURVE('',#437,#436,#247,.T.);
#528=EDGE_CURVE('',#437,#438,#248,.T.);
#529=EDGE_CURVE('',#439,#438,#249,.T.);
#530=EDGE_CURVE('',#440,#439,#250,.T.);
#531=EDGE_CURVE('',#430,#440,#251,.T.);
#532=EDGE_CURVE('',#426,#441,#252,.T.);
#533=EDGE_CURVE('',#441,#433,#253,.T.);
#534=EDGE_CURVE('',#436,#442,#254,.T.);
#535=EDGE_CURVE('',#435,#443,#255,.T.);
#536=EDGE_CURVE('',#442,#443,#256,.T.);
#537=EDGE_CURVE('',#444,#441,#257,.T.);
#538=EDGE_CURVE('',#444,#434,#258,.T.);
#539=EDGE_CURVE('',#443,#444,#259,.T.);
#540=EDGE_CURVE('',#440,#445,#260,.T.);
#541=EDGE_CURVE('',#445,#429,#261,.T.);
#542=EDGE_CURVE('',#446,#446,#59,.T.);
#543=EDGE_CURVE('',#447,#447,#60,.T.);
#544=EDGE_CURVE('',#448,#448,#61,.T.);
#545=EDGE_CURVE('',#449,#449,#62,.T.);
#546=EDGE_CURVE('',#442,#450,#262,.T.);
#547=EDGE_CURVE('',#450,#437,#263,.T.);
#548=EDGE_CURVE('',#451,#451,#63,.T.);
#549=EDGE_CURVE('',#452,#452,#64,.T.);
#550=EDGE_CURVE('',#453,#453,#65,.T.);
#551=EDGE_CURVE('',#454,#454,#66,.T.);
#552=EDGE_CURVE('',#445,#455,#264,.T.);
#553=EDGE_CURVE('',#456,#455,#265,.T.);
#554=EDGE_CURVE('',#450,#456,#266,.T.);
#555=EDGE_CURVE('',#457,#457,#67,.T.);
#556=EDGE_CURVE('',#457,#458,#267,.T.);
#557=EDGE_CURVE('',#458,#458,#68,.T.);
#558=EDGE_CURVE('',#459,#459,#69,.T.);
#559=EDGE_CURVE('',#460,#460,#70,.T.);
#560=EDGE_CURVE('',#460,#461,#268,.T.);
#561=EDGE_CURVE('',#461,#461,#71,.T.);
#562=EDGE_CURVE('',#462,#462,#72,.T.);
#563=EDGE_CURVE('',#463,#463,#73,.T.);
#564=EDGE_CURVE('',#463,#464,#269,.T.);
#565=EDGE_CURVE('',#464,#464,#74,.T.);
#566=EDGE_CURVE('',#465,#465,#75,.T.);
#567=EDGE_CURVE('',#466,#466,#76,.T.);
#568=EDGE_CURVE('',#466,#467,#270,.T.);
#569=EDGE_CURVE('',#467,#467,#77,.T.);
#570=EDGE_CURVE('',#468,#468,#78,.T.);
#571=EDGE_CURVE('',#446,#468,#271,.T.);
#572=EDGE_CURVE('',#447,#462,#272,.T.);
#573=EDGE_CURVE('',#451,#465,#273,.T.);
#574=EDGE_CURVE('',#452,#459,#274,.T.);
#575=EDGE_CURVE('',#469,#470,#275,.T.);
#576=EDGE_CURVE('',#471,#469,#276,.T.);
#577=EDGE_CURVE('',#471,#472,#277,.T.);
#578=EDGE_CURVE('',#470,#472,#278,.T.);
#579=EDGE_CURVE('',#473,#474,#279,.T.);
#580=EDGE_CURVE('',#475,#473,#280,.T.);
#581=EDGE_CURVE('',#475,#476,#281,.T.);
#582=EDGE_CURVE('',#474,#476,#282,.T.);
#583=EDGE_CURVE('',#472,#475,#283,.T.);
#584=EDGE_CURVE('',#476,#471,#284,.T.);
#585=EDGE_CURVE('',#477,#478,#285,.T.);
#586=EDGE_CURVE('',#479,#477,#286,.T.);
#587=EDGE_CURVE('',#479,#480,#287,.T.);
#588=EDGE_CURVE('',#478,#480,#288,.T.);
#589=EDGE_CURVE('',#481,#482,#289,.T.);
#590=EDGE_CURVE('',#483,#481,#290,.T.);
#591=EDGE_CURVE('',#483,#484,#291,.T.);
#592=EDGE_CURVE('',#482,#484,#292,.T.);
#593=EDGE_CURVE('',#480,#483,#293,.T.);
#594=EDGE_CURVE('',#484,#479,#294,.T.);
#595=EDGE_CURVE('',#482,#485,#295,.T.);
#596=EDGE_CURVE('',#485,#486,#296,.T.);
#597=EDGE_CURVE('',#486,#481,#297,.T.);
#598=EDGE_CURVE('',#470,#487,#298,.T.);
#599=EDGE_CURVE('',#487,#488,#299,.T.);
#600=EDGE_CURVE('',#488,#469,#300,.T.);
#601=EDGE_CURVE('',#474,#477,#301,.T.);
#602=EDGE_CURVE('',#478,#473,#302,.T.);
#603=EDGE_CURVE('',#489,#489,#79,.T.);
#604=EDGE_CURVE('',#490,#490,#80,.T.);
#605=EDGE_CURVE('',#491,#491,#81,.T.);
#606=EDGE_CURVE('',#492,#492,#82,.T.);
#607=EDGE_CURVE('',#493,#488,#303,.T.);
#608=EDGE_CURVE('',#493,#494,#304,.T.);
#609=EDGE_CURVE('',#494,#485,#305,.T.);
#610=EDGE_CURVE('',#493,#495,#306,.T.);
#611=EDGE_CURVE('',#495,#496,#307,.T.);
#612=EDGE_CURVE('',#496,#494,#308,.T.);
#613=EDGE_CURVE('',#497,#497,#83,.T.);
#614=EDGE_CURVE('',#498,#498,#84,.T.);
#615=EDGE_CURVE('',#498,#499,#309,.T.);
#616=EDGE_CURVE('',#499,#499,#85,.T.);
#617=EDGE_CURVE('',#489,#500,#310,.T.);
#618=EDGE_CURVE('',#500,#500,#86,.T.);
#619=EDGE_CURVE('',#497,#501,#311,.T.);
#620=EDGE_CURVE('',#501,#501,#87,.T.);
#621=EDGE_CURVE('',#492,#502,#312,.T.);
#622=EDGE_CURVE('',#502,#502,#88,.T.);
#623=EDGE_CURVE('',#490,#503,#313,.T.);
#624=EDGE_CURVE('',#503,#503,#89,.T.);
#625=EDGE_CURVE('',#491,#504,#314,.T.);
#626=EDGE_CURVE('',#504,#504,#90,.T.);
#627=EDGE_CURVE('',#505,#506,#315,.T.);
#628=EDGE_CURVE('',#505,#486,#316,.T.);
#629=EDGE_CURVE('',#506,#496,#317,.T.);
#630=EDGE_CURVE('',#507,#508,#318,.T.);
#631=EDGE_CURVE('',#507,#495,#319,.T.);
#632=EDGE_CURVE('',#508,#487,#320,.T.);
#633=EDGE_CURVE('',#506,#456,#321,.T.);
#634=EDGE_CURVE('',#455,#505,#322,.T.);
#635=EDGE_CURVE('',#509,#509,#91,.T.);
#636=EDGE_CURVE('',#510,#510,#92,.T.);
#637=EDGE_CURVE('',#508,#439,#323,.T.);
#638=EDGE_CURVE('',#438,#507,#324,.T.);
#639=EDGE_CURVE('',#511,#511,#93,.T.);
#640=EDGE_CURVE('',#512,#512,#94,.T.);
#641=EDGE_CURVE('',#510,#449,#325,.T.);
#642=EDGE_CURVE('',#511,#454,#326,.T.);
#643=EDGE_CURVE('',#512,#448,#327,.T.);
#644=EDGE_CURVE('',#509,#453,#328,.T.);
#645=ORIENTED_EDGE('',*,*,#513,.F.);
#646=ORIENTED_EDGE('',*,*,#514,.F.);
#647=ORIENTED_EDGE('',*,*,#515,.T.);
#648=ORIENTED_EDGE('',*,*,#516,.F.);
#649=ORIENTED_EDGE('',*,*,#517,.F.);
#650=ORIENTED_EDGE('',*,*,#518,.F.);
#651=ORIENTED_EDGE('',*,*,#519,.T.);
#652=ORIENTED_EDGE('',*,*,#520,.F.);
#653=ORIENTED_EDGE('',*,*,#519,.F.);
#654=ORIENTED_EDGE('',*,*,#521,.F.);
#655=ORIENTED_EDGE('',*,*,#515,.F.);
#656=ORIENTED_EDGE('',*,*,#522,.F.);
#657=ORIENTED_EDGE('',*,*,#520,.T.);
#658=ORIENTED_EDGE('',*,*,#522,.T.);
#659=ORIENTED_EDGE('',*,*,#514,.T.);
#660=ORIENTED_EDGE('',*,*,#523,.F.);
#661=ORIENTED_EDGE('',*,*,#524,.T.);
#662=ORIENTED_EDGE('',*,*,#525,.T.);
#663=ORIENTED_EDGE('',*,*,#526,.T.);
#664=ORIENTED_EDGE('',*,*,#527,.F.);
#665=ORIENTED_EDGE('',*,*,#528,.T.);
#666=ORIENTED_EDGE('',*,*,#529,.F.);
#667=ORIENTED_EDGE('',*,*,#530,.F.);
#668=ORIENTED_EDGE('',*,*,#531,.F.);
#669=ORIENTED_EDGE('',*,*,#513,.T.);
#670=ORIENTED_EDGE('',*,*,#532,.T.);
#671=ORIENTED_EDGE('',*,*,#533,.T.);
#672=ORIENTED_EDGE('',*,*,#523,.T.);
#673=ORIENTED_EDGE('',*,*,#534,.F.);
#674=ORIENTED_EDGE('',*,*,#526,.F.);
#675=ORIENTED_EDGE('',*,*,#535,.T.);
#676=ORIENTED_EDGE('',*,*,#536,.F.);
#677=ORIENTED_EDGE('',*,*,#533,.F.);
#678=ORIENTED_EDGE('',*,*,#537,.F.);
#679=ORIENTED_EDGE('',*,*,#538,.T.);
#680=ORIENTED_EDGE('',*,*,#524,.F.);
#681=ORIENTED_EDGE('',*,*,#539,.F.);
#682=ORIENTED_EDGE('',*,*,#535,.F.);
#683=ORIENTED_EDGE('',*,*,#525,.F.);
#684=ORIENTED_EDGE('',*,*,#538,.F.);
#685=ORIENTED_EDGE('',*,*,#517,.T.);
#686=ORIENTED_EDGE('',*,*,#531,.T.);
#687=ORIENTED_EDGE('',*,*,#540,.T.);
#688=ORIENTED_EDGE('',*,*,#541,.T.);
#689=ORIENTED_EDGE('',*,*,#542,.T.);
#690=ORIENTED_EDGE('',*,*,#543,.T.);
#691=ORIENTED_EDGE('',*,*,#544,.F.);
#692=ORIENTED_EDGE('',*,*,#545,.F.);
#693=ORIENTED_EDGE('',*,*,#534,.T.);
#694=ORIENTED_EDGE('',*,*,#546,.T.);
#695=ORIENTED_EDGE('',*,*,#547,.T.);
#696=ORIENTED_EDGE('',*,*,#527,.T.);
#697=ORIENTED_EDGE('',*,*,#548,.T.);
#698=ORIENTED_EDGE('',*,*,#549,.T.);
#699=ORIENTED_EDGE('',*,*,#550,.F.);
#700=ORIENTED_EDGE('',*,*,#551,.F.);
#701=ORIENTED_EDGE('',*,*,#518,.T.);
#702=ORIENTED_EDGE('',*,*,#541,.F.);
#703=ORIENTED_EDGE('',*,*,#552,.T.);
#704=ORIENTED_EDGE('',*,*,#553,.F.);
#705=ORIENTED_EDGE('',*,*,#554,.F.);
#706=ORIENTED_EDGE('',*,*,#546,.F.);
#707=ORIENTED_EDGE('',*,*,#536,.T.);
#708=ORIENTED_EDGE('',*,*,#539,.T.);
#709=ORIENTED_EDGE('',*,*,#537,.T.);
#710=ORIENTED_EDGE('',*,*,#532,.F.);
#711=ORIENTED_EDGE('',*,*,#516,.T.);
#712=ORIENTED_EDGE('',*,*,#521,.T.);
#713=ORIENTED_EDGE('',*,*,#555,.F.);
#714=ORIENTED_EDGE('',*,*,#556,.T.);
#715=ORIENTED_EDGE('',*,*,#557,.T.);
#716=ORIENTED_EDGE('',*,*,#556,.F.);
#717=ORIENTED_EDGE('',*,*,#557,.F.);
#718=ORIENTED_EDGE('',*,*,#558,.F.);
#719=ORIENTED_EDGE('',*,*,#559,.F.);
#720=ORIENTED_EDGE('',*,*,#560,.T.);
#721=ORIENTED_EDGE('',*,*,#561,.T.);
#722=ORIENTED_EDGE('',*,*,#560,.F.);
#723=ORIENTED_EDGE('',*,*,#561,.F.);
#724=ORIENTED_EDGE('',*,*,#562,.F.);
#725=ORIENTED_EDGE('',*,*,#563,.F.);
#726=ORIENTED_EDGE('',*,*,#564,.T.);
#727=ORIENTED_EDGE('',*,*,#565,.T.);
#728=ORIENTED_EDGE('',*,*,#564,.F.);
#729=ORIENTED_EDGE('',*,*,#565,.F.);
#730=ORIENTED_EDGE('',*,*,#566,.F.);
#731=ORIENTED_EDGE('',*,*,#567,.F.);
#732=ORIENTED_EDGE('',*,*,#568,.T.);
#733=ORIENTED_EDGE('',*,*,#569,.T.);
#734=ORIENTED_EDGE('',*,*,#568,.F.);
#735=ORIENTED_EDGE('',*,*,#569,.F.);
#736=ORIENTED_EDGE('',*,*,#570,.F.);
#737=ORIENTED_EDGE('',*,*,#542,.F.);
#738=ORIENTED_EDGE('',*,*,#571,.T.);
#739=ORIENTED_EDGE('',*,*,#570,.T.);
#740=ORIENTED_EDGE('',*,*,#571,.F.);
#741=ORIENTED_EDGE('',*,*,#543,.F.);
#742=ORIENTED_EDGE('',*,*,#572,.T.);
#743=ORIENTED_EDGE('',*,*,#562,.T.);
#744=ORIENTED_EDGE('',*,*,#572,.F.);
#745=ORIENTED_EDGE('',*,*,#548,.F.);
#746=ORIENTED_EDGE('',*,*,#573,.T.);
#747=ORIENTED_EDGE('',*,*,#566,.T.);
#748=ORIENTED_EDGE('',*,*,#573,.F.);
#749=ORIENTED_EDGE('',*,*,#549,.F.);
#750=ORIENTED_EDGE('',*,*,#574,.T.);
#751=ORIENTED_EDGE('',*,*,#558,.T.);
#752=ORIENTED_EDGE('',*,*,#574,.F.);
#753=ORIENTED_EDGE('',*,*,#575,.F.);
#754=ORIENTED_EDGE('',*,*,#576,.F.);
#755=ORIENTED_EDGE('',*,*,#577,.T.);
#756=ORIENTED_EDGE('',*,*,#578,.F.);
#757=ORIENTED_EDGE('',*,*,#579,.F.);
#758=ORIENTED_EDGE('',*,*,#580,.F.);
#759=ORIENTED_EDGE('',*,*,#581,.T.);
#760=ORIENTED_EDGE('',*,*,#582,.F.);
#761=ORIENTED_EDGE('',*,*,#583,.F.);
#762=ORIENTED_EDGE('',*,*,#577,.F.);
#763=ORIENTED_EDGE('',*,*,#584,.F.);
#764=ORIENTED_EDGE('',*,*,#581,.F.);
#765=ORIENTED_EDGE('',*,*,#585,.F.);
#766=ORIENTED_EDGE('',*,*,#586,.F.);
#767=ORIENTED_EDGE('',*,*,#587,.T.);
#768=ORIENTED_EDGE('',*,*,#588,.F.);
#769=ORIENTED_EDGE('',*,*,#589,.F.);
#770=ORIENTED_EDGE('',*,*,#590,.F.);
#771=ORIENTED_EDGE('',*,*,#591,.T.);
#772=ORIENTED_EDGE('',*,*,#592,.F.);
#773=ORIENTED_EDGE('',*,*,#593,.F.);
#774=ORIENTED_EDGE('',*,*,#587,.F.);
#775=ORIENTED_EDGE('',*,*,#594,.F.);
#776=ORIENTED_EDGE('',*,*,#591,.F.);
#777=ORIENTED_EDGE('',*,*,#589,.T.);
#778=ORIENTED_EDGE('',*,*,#595,.T.);
#779=ORIENTED_EDGE('',*,*,#596,.T.);
#780=ORIENTED_EDGE('',*,*,#597,.T.);
#781=ORIENTED_EDGE('',*,*,#575,.T.);
#782=ORIENTED_EDGE('',*,*,#598,.T.);
#783=ORIENTED_EDGE('',*,*,#599,.T.);
#784=ORIENTED_EDGE('',*,*,#600,.T.);
#785=ORIENTED_EDGE('',*,*,#579,.T.);
#786=ORIENTED_EDGE('',*,*,#601,.T.);
#787=ORIENTED_EDGE('',*,*,#585,.T.);
#788=ORIENTED_EDGE('',*,*,#602,.T.);
#789=ORIENTED_EDGE('',*,*,#603,.T.);
#790=ORIENTED_EDGE('',*,*,#604,.T.);
#791=ORIENTED_EDGE('',*,*,#605,.T.);
#792=ORIENTED_EDGE('',*,*,#606,.T.);
#793=ORIENTED_EDGE('',*,*,#582,.T.);
#794=ORIENTED_EDGE('',*,*,#584,.T.);
#795=ORIENTED_EDGE('',*,*,#576,.T.);
#796=ORIENTED_EDGE('',*,*,#600,.F.);
#797=ORIENTED_EDGE('',*,*,#607,.F.);
#798=ORIENTED_EDGE('',*,*,#608,.T.);
#799=ORIENTED_EDGE('',*,*,#609,.T.);
#800=ORIENTED_EDGE('',*,*,#595,.F.);
#801=ORIENTED_EDGE('',*,*,#592,.T.);
#802=ORIENTED_EDGE('',*,*,#594,.T.);
#803=ORIENTED_EDGE('',*,*,#586,.T.);
#804=ORIENTED_EDGE('',*,*,#601,.F.);
#805=ORIENTED_EDGE('',*,*,#608,.F.);
#806=ORIENTED_EDGE('',*,*,#610,.T.);
#807=ORIENTED_EDGE('',*,*,#611,.T.);
#808=ORIENTED_EDGE('',*,*,#612,.T.);
#809=ORIENTED_EDGE('',*,*,#613,.T.);
#810=ORIENTED_EDGE('',*,*,#614,.T.);
#811=ORIENTED_EDGE('',*,*,#614,.F.);
#812=ORIENTED_EDGE('',*,*,#615,.T.);
#813=ORIENTED_EDGE('',*,*,#616,.T.);
#814=ORIENTED_EDGE('',*,*,#615,.F.);
#815=ORIENTED_EDGE('',*,*,#616,.F.);
#816=ORIENTED_EDGE('',*,*,#603,.F.);
#817=ORIENTED_EDGE('',*,*,#617,.T.);
#818=ORIENTED_EDGE('',*,*,#618,.T.);
#819=ORIENTED_EDGE('',*,*,#617,.F.);
#820=ORIENTED_EDGE('',*,*,#618,.F.);
#821=ORIENTED_EDGE('',*,*,#613,.F.);
#822=ORIENTED_EDGE('',*,*,#619,.T.);
#823=ORIENTED_EDGE('',*,*,#620,.T.);
#824=ORIENTED_EDGE('',*,*,#619,.F.);
#825=ORIENTED_EDGE('',*,*,#620,.F.);
#826=ORIENTED_EDGE('',*,*,#606,.F.);
#827=ORIENTED_EDGE('',*,*,#621,.T.);
#828=ORIENTED_EDGE('',*,*,#622,.T.);
#829=ORIENTED_EDGE('',*,*,#621,.F.);
#830=ORIENTED_EDGE('',*,*,#622,.F.);
#831=ORIENTED_EDGE('',*,*,#604,.F.);
#832=ORIENTED_EDGE('',*,*,#623,.T.);
#833=ORIENTED_EDGE('',*,*,#624,.T.);
#834=ORIENTED_EDGE('',*,*,#623,.F.);
#835=ORIENTED_EDGE('',*,*,#624,.F.);
#836=ORIENTED_EDGE('',*,*,#605,.F.);
#837=ORIENTED_EDGE('',*,*,#625,.T.);
#838=ORIENTED_EDGE('',*,*,#626,.T.);
#839=ORIENTED_EDGE('',*,*,#625,.F.);
#840=ORIENTED_EDGE('',*,*,#626,.F.);
#841=ORIENTED_EDGE('',*,*,#627,.F.);
#842=ORIENTED_EDGE('',*,*,#628,.T.);
#843=ORIENTED_EDGE('',*,*,#596,.F.);
#844=ORIENTED_EDGE('',*,*,#609,.F.);
#845=ORIENTED_EDGE('',*,*,#612,.F.);
#846=ORIENTED_EDGE('',*,*,#629,.F.);
#847=ORIENTED_EDGE('',*,*,#630,.F.);
#848=ORIENTED_EDGE('',*,*,#631,.T.);
#849=ORIENTED_EDGE('',*,*,#610,.F.);
#850=ORIENTED_EDGE('',*,*,#607,.T.);
#851=ORIENTED_EDGE('',*,*,#599,.F.);
#852=ORIENTED_EDGE('',*,*,#632,.F.);
#853=ORIENTED_EDGE('',*,*,#627,.T.);
#854=ORIENTED_EDGE('',*,*,#633,.T.);
#855=ORIENTED_EDGE('',*,*,#553,.T.);
#856=ORIENTED_EDGE('',*,*,#634,.T.);
#857=ORIENTED_EDGE('',*,*,#563,.T.);
#858=ORIENTED_EDGE('',*,*,#567,.T.);
#859=ORIENTED_EDGE('',*,*,#635,.T.);
#860=ORIENTED_EDGE('',*,*,#636,.T.);
#861=ORIENTED_EDGE('',*,*,#630,.T.);
#862=ORIENTED_EDGE('',*,*,#637,.T.);
#863=ORIENTED_EDGE('',*,*,#529,.T.);
#864=ORIENTED_EDGE('',*,*,#638,.T.);
#865=ORIENTED_EDGE('',*,*,#555,.T.);
#866=ORIENTED_EDGE('',*,*,#559,.T.);
#867=ORIENTED_EDGE('',*,*,#639,.T.);
#868=ORIENTED_EDGE('',*,*,#640,.T.);
#869=ORIENTED_EDGE('',*,*,#636,.F.);
#870=ORIENTED_EDGE('',*,*,#641,.T.);
#871=ORIENTED_EDGE('',*,*,#545,.T.);
#872=ORIENTED_EDGE('',*,*,#641,.F.);
#873=ORIENTED_EDGE('',*,*,#639,.F.);
#874=ORIENTED_EDGE('',*,*,#642,.T.);
#875=ORIENTED_EDGE('',*,*,#551,.T.);
#876=ORIENTED_EDGE('',*,*,#642,.F.);
#877=ORIENTED_EDGE('',*,*,#640,.F.);
#878=ORIENTED_EDGE('',*,*,#643,.T.);
#879=ORIENTED_EDGE('',*,*,#544,.T.);
#880=ORIENTED_EDGE('',*,*,#643,.F.);
#881=ORIENTED_EDGE('',*,*,#635,.F.);
#882=ORIENTED_EDGE('',*,*,#644,.T.);
#883=ORIENTED_EDGE('',*,*,#550,.T.);
#884=ORIENTED_EDGE('',*,*,#644,.F.);
#885=ORIENTED_EDGE('',*,*,#547,.F.);
#886=ORIENTED_EDGE('',*,*,#554,.T.);
#887=ORIENTED_EDGE('',*,*,#633,.F.);
#888=ORIENTED_EDGE('',*,*,#629,.T.);
#889=ORIENTED_EDGE('',*,*,#611,.F.);
#890=ORIENTED_EDGE('',*,*,#631,.F.);
#891=ORIENTED_EDGE('',*,*,#638,.F.);
#892=ORIENTED_EDGE('',*,*,#528,.F.);
#893=ORIENTED_EDGE('',*,*,#580,.T.);
#894=ORIENTED_EDGE('',*,*,#602,.F.);
#895=ORIENTED_EDGE('',*,*,#588,.T.);
#896=ORIENTED_EDGE('',*,*,#593,.T.);
#897=ORIENTED_EDGE('',*,*,#590,.T.);
#898=ORIENTED_EDGE('',*,*,#597,.F.);
#899=ORIENTED_EDGE('',*,*,#628,.F.);
#900=ORIENTED_EDGE('',*,*,#634,.F.);
#901=ORIENTED_EDGE('',*,*,#552,.F.);
#902=ORIENTED_EDGE('',*,*,#540,.F.);
#903=ORIENTED_EDGE('',*,*,#530,.T.);
#904=ORIENTED_EDGE('',*,*,#637,.F.);
#905=ORIENTED_EDGE('',*,*,#632,.T.);
#906=ORIENTED_EDGE('',*,*,#598,.F.);
#907=ORIENTED_EDGE('',*,*,#578,.T.);
#908=ORIENTED_EDGE('',*,*,#583,.T.);
#909=PLANE('',#1017);
#910=PLANE('',#1018);
#911=PLANE('',#1019);
#912=PLANE('',#1020);
#913=PLANE('',#1021);
#914=PLANE('',#1022);
#915=PLANE('',#1023);
#916=PLANE('',#1024);
#917=PLANE('',#1025);
#918=PLANE('',#1030);
#919=PLANE('',#1035);
#920=PLANE('',#1039);
#921=PLANE('',#1044);
#922=PLANE('',#1049);
#923=PLANE('',#1054);
#924=PLANE('',#1060);
#925=PLANE('',#1061);
#926=PLANE('',#1062);
#927=PLANE('',#1063);
#928=PLANE('',#1064);
#929=PLANE('',#1065);
#930=PLANE('',#1066);
#931=PLANE('',#1067);
#932=PLANE('',#1068);
#933=PLANE('',#1073);
#934=PLANE('',#1074);
#935=PLANE('',#1079);
#936=PLANE('',#1082);
#937=PLANE('',#1085);
#938=PLANE('',#1088);
#939=PLANE('',#1091);
#940=PLANE('',#1094);
#941=PLANE('',#1095);
#942=PLANE('',#1096);
#943=PLANE('',#1097);
#944=PLANE('',#1100);
#945=PLANE('',#1107);
#946=PLANE('',#1108);
#947=ADVANCED_FACE('',(#95),#909,.F.);
#948=ADVANCED_FACE('',(#96),#910,.F.);
#949=ADVANCED_FACE('',(#97),#911,.F.);
#950=ADVANCED_FACE('',(#98),#912,.T.);
#951=ADVANCED_FACE('',(#99),#913,.F.);
#952=ADVANCED_FACE('',(#100),#914,.F.);
#953=ADVANCED_FACE('',(#101),#915,.F.);
#954=ADVANCED_FACE('',(#102),#916,.F.);
#955=ADVANCED_FACE('',(#103,#33,#34,#35,#36),#917,.F.);
#956=ADVANCED_FACE('',(#104,#37,#38,#39,#40),#918,.F.);
#957=ADVANCED_FACE('',(#105),#919,.T.);
#958=ADVANCED_FACE('',(#106),#15,.F.);
#959=ADVANCED_FACE('',(#107,#41),#920,.T.);
#960=ADVANCED_FACE('',(#108),#16,.F.);
#961=ADVANCED_FACE('',(#109,#42),#921,.T.);
#962=ADVANCED_FACE('',(#110),#17,.F.);
#963=ADVANCED_FACE('',(#111,#43),#922,.T.);
#964=ADVANCED_FACE('',(#112),#18,.F.);
#965=ADVANCED_FACE('',(#113,#44),#923,.T.);
#966=ADVANCED_FACE('',(#114),#19,.F.);
#967=ADVANCED_FACE('',(#115),#20,.F.);
#968=ADVANCED_FACE('',(#116),#21,.F.);
#969=ADVANCED_FACE('',(#117),#22,.F.);
#970=ADVANCED_FACE('',(#118),#924,.F.);
#971=ADVANCED_FACE('',(#119),#925,.F.);
#972=ADVANCED_FACE('',(#120),#926,.F.);
#973=ADVANCED_FACE('',(#121),#927,.F.);
#974=ADVANCED_FACE('',(#122),#928,.F.);
#975=ADVANCED_FACE('',(#123),#929,.F.);
#976=ADVANCED_FACE('',(#124),#930,.T.);
#977=ADVANCED_FACE('',(#125),#931,.T.);
#978=ADVANCED_FACE('',(#126,#45,#46,#47,#48),#932,.T.);
#979=ADVANCED_FACE('',(#127),#933,.T.);
#980=ADVANCED_FACE('',(#128,#49,#50),#934,.T.);
#981=ADVANCED_FACE('',(#129),#23,.F.);
#982=ADVANCED_FACE('',(#130),#935,.T.);
#983=ADVANCED_FACE('',(#131),#24,.F.);
#984=ADVANCED_FACE('',(#132),#936,.T.);
#985=ADVANCED_FACE('',(#133),#25,.F.);
#986=ADVANCED_FACE('',(#134),#937,.T.);
#987=ADVANCED_FACE('',(#135),#26,.F.);
#988=ADVANCED_FACE('',(#136),#938,.T.);
#989=ADVANCED_FACE('',(#137),#27,.F.);
#990=ADVANCED_FACE('',(#138),#939,.T.);
#991=ADVANCED_FACE('',(#139),#28,.F.);
#992=ADVANCED_FACE('',(#140),#940,.T.);
#993=ADVANCED_FACE('',(#141),#941,.T.);
#994=ADVANCED_FACE('',(#142),#942,.T.);
#995=ADVANCED_FACE('',(#143,#51,#52,#53,#54),#943,.T.);
#996=ADVANCED_FACE('',(#144,#55,#56,#57,#58),#944,.T.);
#997=ADVANCED_FACE('',(#145),#29,.F.);
#998=ADVANCED_FACE('',(#146),#30,.F.);
#999=ADVANCED_FACE('',(#147),#31,.F.);
#1000=ADVANCED_FACE('',(#148),#32,.F.);
#1001=ADVANCED_FACE('',(#149),#945,.T.);
#1002=ADVANCED_FACE('',(#150),#946,.T.);
#1003=CLOSED_SHELL('',(#947,#948,#949,#950,#951,#952,#953,#954,#955,#956,
#957,#958,#959,#960,#961,#962,#963,#964,#965,#966,#967,#968,#969,#970,#971,
#972,#973,#974,#975,#976,#977,#978,#979,#980,#981,#982,#983,#984,#985,#986,
#987,#988,#989,#990,#991,#992,#993,#994,#995,#996,#997,#998,#999,#1000,
#1001,#1002));
#1004=DERIVED_UNIT_ELEMENT(#1006,1.);
#1005=DERIVED_UNIT_ELEMENT(#1673,-3.);
#1006=(
MASS_UNIT()
NAMED_UNIT(*)
SI_UNIT(.KILO.,.GRAM.)
);
#1007=DERIVED_UNIT((#1004,#1005));
#1008=MEASURE_REPRESENTATION_ITEM('density measure',
POSITIVE_RATIO_MEASURE(7850.),#1007);
#1009=PROPERTY_DEFINITION_REPRESENTATION(#1014,#1011);
#1010=PROPERTY_DEFINITION_REPRESENTATION(#1015,#1012);
#1011=REPRESENTATION('material name',(#1013),#1670);
#1012=REPRESENTATION('density',(#1008),#1670);
#1013=DESCRIPTIVE_REPRESENTATION_ITEM('Steel','Steel');
#1014=PROPERTY_DEFINITION('material property','material name',#1680);
#1015=PROPERTY_DEFINITION('material property','density of part',#1680);
#1016=AXIS2_PLACEMENT_3D('',#1391,#1109,#1110);
#1017=AXIS2_PLACEMENT_3D('',#1392,#1111,#1112);
#1018=AXIS2_PLACEMENT_3D('',#1401,#1117,#1118);
#1019=AXIS2_PLACEMENT_3D('',#1410,#1123,#1124);
#1020=AXIS2_PLACEMENT_3D('',#1413,#1127,#1128);
#1021=AXIS2_PLACEMENT_3D('',#1431,#1138,#1139);
#1022=AXIS2_PLACEMENT_3D('',#1435,#1142,#1143);
#1023=AXIS2_PLACEMENT_3D('',#1441,#1147,#1148);
#1024=AXIS2_PLACEMENT_3D('',#1445,#1151,#1152);
#1025=AXIS2_PLACEMENT_3D('',#1447,#1154,#1155);
#1026=AXIS2_PLACEMENT_3D('',#1452,#1158,#1159);
#1027=AXIS2_PLACEMENT_3D('',#1454,#1160,#1161);
#1028=AXIS2_PLACEMENT_3D('',#1456,#1162,#1163);
#1029=AXIS2_PLACEMENT_3D('',#1458,#1164,#1165);
#1030=AXIS2_PLACEMENT_3D('',#1459,#1166,#1167);
#1031=AXIS2_PLACEMENT_3D('',#1464,#1170,#1171);
#1032=AXIS2_PLACEMENT_3D('',#1466,#1172,#1173);
#1033=AXIS2_PLACEMENT_3D('',#1468,#1174,#1175);
#1034=AXIS2_PLACEMENT_3D('',#1470,#1176,#1177);
#1035=AXIS2_PLACEMENT_3D('',#1471,#1178,#1179);
#1036=AXIS2_PLACEMENT_3D('',#1477,#1183,#1184);
#1037=AXIS2_PLACEMENT_3D('',#1479,#1185,#1186);
#1038=AXIS2_PLACEMENT_3D('',#1482,#1188,#1189);
#1039=AXIS2_PLACEMENT_3D('',#1483,#1190,#1191);
#1040=AXIS2_PLACEMENT_3D('',#1485,#1192,#1193);
#1041=AXIS2_PLACEMENT_3D('',#1486,#1194,#1195);
#1042=AXIS2_PLACEMENT_3D('',#1488,#1196,#1197);
#1043=AXIS2_PLACEMENT_3D('',#1491,#1199,#1200);
#1044=AXIS2_PLACEMENT_3D('',#1492,#1201,#1202);
#1045=AXIS2_PLACEMENT_3D('',#1494,#1203,#1204);
#1046=AXIS2_PLACEMENT_3D('',#1495,#1205,#1206);
#1047=AXIS2_PLACEMENT_3D('',#1497,#1207,#1208);
#1048=AXIS2_PLACEMENT_3D('',#1500,#1210,#1211);
#1049=AXIS2_PLACEMENT_3D('',#1501,#1212,#1213);
#1050=AXIS2_PLACEMENT_3D('',#1503,#1214,#1215);
#1051=AXIS2_PLACEMENT_3D('',#1504,#1216,#1217);
#1052=AXIS2_PLACEMENT_3D('',#1506,#1218,#1219);
#1053=AXIS2_PLACEMENT_3D('',#1509,#1221,#1222);
#1054=AXIS2_PLACEMENT_3D('',#1510,#1223,#1224);
#1055=AXIS2_PLACEMENT_3D('',#1512,#1225,#1226);
#1056=AXIS2_PLACEMENT_3D('',#1513,#1227,#1228);
#1057=AXIS2_PLACEMENT_3D('',#1515,#1230,#1231);
#1058=AXIS2_PLACEMENT_3D('',#1517,#1233,#1234);
#1059=AXIS2_PLACEMENT_3D('',#1519,#1236,#1237);
#1060=AXIS2_PLACEMENT_3D('',#1521,#1239,#1240);
#1061=AXIS2_PLACEMENT_3D('',#1530,#1245,#1246);
#1062=AXIS2_PLACEMENT_3D('',#1539,#1251,#1252);
#1063=AXIS2_PLACEMENT_3D('',#1542,#1255,#1256);
#1064=AXIS2_PLACEMENT_3D('',#1551,#1261,#1262);
#1065=AXIS2_PLACEMENT_3D('',#1560,#1267,#1268);
#1066=AXIS2_PLACEMENT_3D('',#1563,#1271,#1272);
#1067=AXIS2_PLACEMENT_3D('',#1569,#1276,#1277);
#1068=AXIS2_PLACEMENT_3D('',#1575,#1281,#1282);
#1069=AXIS2_PLACEMENT_3D('',#1579,#1285,#1286);
#1070=AXIS2_PLACEMENT_3D('',#1581,#1287,#1288);
#1071=AXIS2_PLACEMENT_3D('',#1583,#1289,#1290);
#1072=AXIS2_PLACEMENT_3D('',#1585,#1291,#1292);
#1073=AXIS2_PLACEMENT_3D('',#1586,#1293,#1294);
#1074=AXIS2_PLACEMENT_3D('',#1592,#1298,#1299);
#1075=AXIS2_PLACEMENT_3D('',#1599,#1303,#1304);
#1076=AXIS2_PLACEMENT_3D('',#1601,#1305,#1306);
#1077=AXIS2_PLACEMENT_3D('',#1602,#1307,#1308);
#1078=AXIS2_PLACEMENT_3D('',#1605,#1310,#1311);
#1079=AXIS2_PLACEMENT_3D('',#1606,#1312,#1313);
#1080=AXIS2_PLACEMENT_3D('',#1607,#1314,#1315);
#1081=AXIS2_PLACEMENT_3D('',#1610,#1317,#1318);
#1082=AXIS2_PLACEMENT_3D('',#1611,#1319,#1320);
#1083=AXIS2_PLACEMENT_3D('',#1612,#1321,#1322);
#1084=AXIS2_PLACEMENT_3D('',#1615,#1324,#1325);
#1085=AXIS2_PLACEMENT_3D('',#1616,#1326,#1327);
#1086=AXIS2_PLACEMENT_3D('',#1617,#1328,#1329);
#1087=AXIS2_PLACEMENT_3D('',#1620,#1331,#1332);
#1088=AXIS2_PLACEMENT_3D('',#1621,#1333,#1334);
#1089=AXIS2_PLACEMENT_3D('',#1622,#1335,#1336);
#1090=AXIS2_PLACEMENT_3D('',#1625,#1338,#1339);
#1091=AXIS2_PLACEMENT_3D('',#1626,#1340,#1341);
#1092=AXIS2_PLACEMENT_3D('',#1627,#1342,#1343);
#1093=AXIS2_PLACEMENT_3D('',#1630,#1345,#1346);
#1094=AXIS2_PLACEMENT_3D('',#1631,#1347,#1348);
#1095=AXIS2_PLACEMENT_3D('',#1632,#1349,#1350);
#1096=AXIS2_PLACEMENT_3D('',#1638,#1354,#1355);
#1097=AXIS2_PLACEMENT_3D('',#1644,#1359,#1360);
#1098=AXIS2_PLACEMENT_3D('',#1648,#1363,#1364);
#1099=AXIS2_PLACEMENT_3D('',#1650,#1365,#1366);
#1100=AXIS2_PLACEMENT_3D('',#1651,#1367,#1368);
#1101=AXIS2_PLACEMENT_3D('',#1655,#1371,#1372);
#1102=AXIS2_PLACEMENT_3D('',#1657,#1373,#1374);
#1103=AXIS2_PLACEMENT_3D('',#1658,#1375,#1376);
#1104=AXIS2_PLACEMENT_3D('',#1660,#1378,#1379);
#1105=AXIS2_PLACEMENT_3D('',#1662,#1381,#1382);
#1106=AXIS2_PLACEMENT_3D('',#1664,#1384,#1385);
#1107=AXIS2_PLACEMENT_3D('',#1666,#1387,#1388);
#1108=AXIS2_PLACEMENT_3D('',#1667,#1389,#1390);
#1109=DIRECTION('axis',(0.,0.,1.));
#1110=DIRECTION('refdir',(1.,0.,0.));
#1111=DIRECTION('center_axis',(0.,1.,0.));
#1112=DIRECTION('ref_axis',(-1.,0.,0.));
#1113=DIRECTION('',(-1.,0.,0.));
#1114=DIRECTION('',(0.,0.,-1.));
#1115=DIRECTION('',(-1.,0.,0.));
#1116=DIRECTION('',(0.,0.,1.));
#1117=DIRECTION('center_axis',(0.,-1.,0.));
#1118=DIRECTION('ref_axis',(1.,0.,0.));
#1119=DIRECTION('',(1.,0.,0.));
#1120=DIRECTION('',(0.,0.,-1.));
#1121=DIRECTION('',(1.,0.,0.));
#1122=DIRECTION('',(0.,0.,1.));
#1123=DIRECTION('center_axis',(0.,0.,1.));
#1124=DIRECTION('ref_axis',(1.,0.,0.));
#1125=DIRECTION('',(7.34706413354883E-16,-1.,0.));
#1126=DIRECTION('',(-1.22451068892481E-15,1.,0.));
#1127=DIRECTION('center_axis',(1.,1.22451068892481E-15,0.));
#1128=DIRECTION('ref_axis',(-1.22451068892481E-15,1.,0.));
#1129=DIRECTION('',(1.22451068892481E-15,-1.,0.));
#1130=DIRECTION('',(0.,0.,1.));
#1131=DIRECTION('',(-1.22451068892481E-15,1.,0.));
#1132=DIRECTION('',(0.,0.,-1.));
#1133=DIRECTION('',(1.22451068892481E-15,-1.,0.));
#1134=DIRECTION('',(0.,0.,1.));
#1135=DIRECTION('',(-1.22451068892481E-15,1.,0.));
#1136=DIRECTION('',(0.,0.,1.));
#1137=DIRECTION('',(1.22451068892481E-15,-1.,0.));
#1138=DIRECTION('center_axis',(0.,0.,1.));
#1139=DIRECTION('ref_axis',(1.,0.,0.));
#1140=DIRECTION('',(-7.34706413354883E-16,1.,0.));
#1141=DIRECTION('',(1.,-2.04085114820801E-17,0.));
#1142=DIRECTION('center_axis',(0.,1.,0.));
#1143=DIRECTION('ref_axis',(-1.,0.,0.));
#1144=DIRECTION('',(-1.,0.,0.));
#1145=DIRECTION('',(-1.,0.,0.));
#1146=DIRECTION('',(0.,0.,1.));
#1147=DIRECTION('center_axis',(-2.04085114820801E-17,-1.,0.));
#1148=DIRECTION('ref_axis',(1.,-2.04085114820801E-17,0.));
#1149=DIRECTION('',(0.,0.,-1.));
#1150=DIRECTION('',(1.,-2.04085114820801E-17,0.));
#1151=DIRECTION('center_axis',(0.,0.,1.));
#1152=DIRECTION('ref_axis',(1.,0.,0.));
#1153=DIRECTION('',(7.34706413354883E-16,-1.,0.));
#1154=DIRECTION('center_axis',(0.,0.,1.));
#1155=DIRECTION('ref_axis',(1.,0.,0.));
#1156=DIRECTION('',(-1.,0.,0.));
#1157=DIRECTION('',(-7.34706413354883E-16,1.,0.));
#1158=DIRECTION('center_axis',(0.,0.,1.));
#1159=DIRECTION('ref_axis',(1.,0.,0.));
#1160=DIRECTION('center_axis',(0.,0.,1.));
#1161=DIRECTION('ref_axis',(1.,0.,0.));
#1162=DIRECTION('center_axis',(0.,0.,-1.));
#1163=DIRECTION('ref_axis',(1.,0.,0.));
#1164=DIRECTION('center_axis',(0.,0.,-1.));
#1165=DIRECTION('ref_axis',(1.,0.,0.));
#1166=DIRECTION('center_axis',(0.,0.,1.));
#1167=DIRECTION('ref_axis',(1.,0.,0.));
#1168=DIRECTION('',(-7.34706413354883E-16,1.,0.));
#1169=DIRECTION('',(1.,0.,0.));
#1170=DIRECTION('center_axis',(0.,0.,1.));
#1171=DIRECTION('ref_axis',(1.,0.,0.));
#1172=DIRECTION('center_axis',(0.,0.,1.));
#1173=DIRECTION('ref_axis',(1.,0.,0.));
#1174=DIRECTION('center_axis',(0.,0.,-1.));
#1175=DIRECTION('ref_axis',(1.,0.,0.));
#1176=DIRECTION('center_axis',(0.,0.,-1.));
#1177=DIRECTION('ref_axis',(1.,0.,0.));
#1178=DIRECTION('center_axis',(-1.,-7.34706413354883E-16,0.));
#1179=DIRECTION('ref_axis',(7.34706413354883E-16,-1.,0.));
#1180=DIRECTION('',(0.,0.,1.));
#1181=DIRECTION('',(7.34706413354883E-16,-1.,0.));
#1182=DIRECTION('',(0.,0.,1.));
#1183=DIRECTION('center_axis',(0.,0.,-1.));
#1184=DIRECTION('ref_axis',(-1.,0.,0.));
#1185=DIRECTION('center_axis',(0.,0.,-1.));
#1186=DIRECTION('ref_axis',(-1.,0.,0.));
#1187=DIRECTION('',(0.,0.,-1.));
#1188=DIRECTION('center_axis',(0.,0.,-1.));
#1189=DIRECTION('ref_axis',(-1.,0.,0.));
#1190=DIRECTION('center_axis',(0.,0.,1.));
#1191=DIRECTION('ref_axis',(-1.,0.,0.));
#1192=DIRECTION('center_axis',(0.,0.,1.));
#1193=DIRECTION('ref_axis',(1.,0.,0.));
#1194=DIRECTION('center_axis',(0.,0.,-1.));
#1195=DIRECTION('ref_axis',(-1.,0.,0.));
#1196=DIRECTION('center_axis',(0.,0.,-1.));
#1197=DIRECTION('ref_axis',(-1.,0.,0.));
#1198=DIRECTION('',(0.,0.,-1.));
#1199=DIRECTION('center_axis',(0.,0.,-1.));
#1200=DIRECTION('ref_axis',(-1.,0.,0.));
#1201=DIRECTION('center_axis',(0.,0.,1.));
#1202=DIRECTION('ref_axis',(-1.,0.,0.));
#1203=DIRECTION('center_axis',(0.,0.,1.));
#1204=DIRECTION('ref_axis',(1.,0.,0.));
#1205=DIRECTION('center_axis',(0.,0.,-1.));
#1206=DIRECTION('ref_axis',(-1.,0.,0.));
#1207=DIRECTION('center_axis',(0.,0.,-1.));
#1208=DIRECTION('ref_axis',(-1.,0.,0.));
#1209=DIRECTION('',(0.,0.,-1.));
#1210=DIRECTION('center_axis',(0.,0.,-1.));
#1211=DIRECTION('ref_axis',(-1.,0.,0.));
#1212=DIRECTION('center_axis',(0.,0.,1.));
#1213=DIRECTION('ref_axis',(-1.,0.,0.));
#1214=DIRECTION('center_axis',(0.,0.,1.));
#1215=DIRECTION('ref_axis',(1.,0.,0.));
#1216=DIRECTION('center_axis',(0.,0.,-1.));
#1217=DIRECTION('ref_axis',(-1.,0.,0.));
#1218=DIRECTION('center_axis',(0.,0.,-1.));
#1219=DIRECTION('ref_axis',(-1.,0.,0.));
#1220=DIRECTION('',(0.,0.,-1.));
#1221=DIRECTION('center_axis',(0.,0.,-1.));
#1222=DIRECTION('ref_axis',(-1.,0.,0.));
#1223=DIRECTION('center_axis',(0.,0.,1.));
#1224=DIRECTION('ref_axis',(-1.,0.,0.));
#1225=DIRECTION('center_axis',(0.,0.,1.));
#1226=DIRECTION('ref_axis',(1.,0.,0.));
#1227=DIRECTION('center_axis',(0.,0.,1.));
#1228=DIRECTION('ref_axis',(1.,0.,0.));
#1229=DIRECTION('',(0.,0.,1.));
#1230=DIRECTION('center_axis',(0.,0.,1.));
#1231=DIRECTION('ref_axis',(1.,0.,0.));
#1232=DIRECTION('',(0.,0.,1.));
#1233=DIRECTION('center_axis',(0.,0.,1.));
#1234=DIRECTION('ref_axis',(1.,0.,0.));
#1235=DIRECTION('',(0.,0.,1.));
#1236=DIRECTION('center_axis',(0.,0.,1.));
#1237=DIRECTION('ref_axis',(1.,0.,0.));
#1238=DIRECTION('',(0.,0.,1.));
#1239=DIRECTION('center_axis',(1.,7.52693576017055E-17,0.));
#1240=DIRECTION('ref_axis',(7.52693576017055E-17,-1.,0.));
#1241=DIRECTION('',(7.52693576017055E-17,-1.,0.));
#1242=DIRECTION('',(0.,0.,1.));
#1243=DIRECTION('',(7.52693576017055E-17,-1.,0.));
#1244=DIRECTION('',(0.,0.,-1.));
#1245=DIRECTION('center_axis',(-1.,0.,0.));
#1246=DIRECTION('ref_axis',(0.,1.,0.));
#1247=DIRECTION('',(0.,1.,0.));
#1248=DIRECTION('',(0.,0.,1.));
#1249=DIRECTION('',(0.,1.,0.));
#1250=DIRECTION('',(0.,0.,-1.));
#1251=DIRECTION('center_axis',(0.,0.,-1.));
#1252=DIRECTION('ref_axis',(-1.,0.,0.));
#1253=DIRECTION('',(-1.,0.,0.));
#1254=DIRECTION('',(1.,0.,0.));
#1255=DIRECTION('center_axis',(1.,0.,0.));
#1256=DIRECTION('ref_axis',(0.,-1.,0.));
#1257=DIRECTION('',(0.,-1.,0.));
#1258=DIRECTION('',(0.,0.,1.));
#1259=DIRECTION('',(0.,-1.,0.));
#1260=DIRECTION('',(0.,0.,-1.));
#1261=DIRECTION('center_axis',(-1.,-7.52693576017055E-17,0.));
#1262=DIRECTION('ref_axis',(-7.52693576017055E-17,1.,0.));
#1263=DIRECTION('',(-7.52693576017055E-17,1.,0.));
#1264=DIRECTION('',(0.,0.,1.));
#1265=DIRECTION('',(-7.52693576017055E-17,1.,0.));
#1266=DIRECTION('',(0.,0.,-1.));
#1267=DIRECTION('center_axis',(0.,0.,-1.));
#1268=DIRECTION('ref_axis',(-1.,0.,0.));
#1269=DIRECTION('',(-1.,0.,0.));
#1270=DIRECTION('',(1.,0.,0.));
#1271=DIRECTION('center_axis',(0.,0.,1.));
#1272=DIRECTION('ref_axis',(-1.,0.,0.));
#1273=DIRECTION('',(-1.,0.,0.));
#1274=DIRECTION('',(0.,-1.,0.));
#1275=DIRECTION('',(1.,0.,0.));
#1276=DIRECTION('center_axis',(0.,0.,1.));
#1277=DIRECTION('ref_axis',(-1.,0.,0.));
#1278=DIRECTION('',(1.,0.,0.));
#1279=DIRECTION('',(-7.52693576017055E-17,1.,0.));
#1280=DIRECTION('',(-1.,0.,0.));
#1281=DIRECTION('center_axis',(0.,0.,1.));
#1282=DIRECTION('ref_axis',(-1.,0.,0.));
#1283=DIRECTION('',(-1.,0.,0.));
#1284=DIRECTION('',(1.,0.,0.));
#1285=DIRECTION('center_axis',(0.,0.,-1.));
#1286=DIRECTION('ref_axis',(-1.,0.,0.));
#1287=DIRECTION('center_axis',(0.,0.,-1.));
#1288=DIRECTION('ref_axis',(-1.,0.,0.));
#1289=DIRECTION('center_axis',(0.,0.,-1.));
#1290=DIRECTION('ref_axis',(-1.,0.,0.));
#1291=DIRECTION('center_axis',(0.,0.,-1.));
#1292=DIRECTION('ref_axis',(-1.,0.,0.));
#1293=DIRECTION('center_axis',(0.,1.,0.));
#1294=DIRECTION('ref_axis',(-1.,0.,0.));
#1295=DIRECTION('',(0.,0.,1.));
#1296=DIRECTION('',(-1.,0.,0.));
#1297=DIRECTION('',(0.,0.,1.));
#1298=DIRECTION('center_axis',(0.,0.,1.));
#1299=DIRECTION('ref_axis',(1.,0.,0.));
#1300=DIRECTION('',(-1.14287664299648E-15,1.,0.));
#1301=DIRECTION('',(-1.,0.,0.));
#1302=DIRECTION('',(0.,-1.,0.));
#1303=DIRECTION('center_axis',(0.,0.,-1.));
#1304=DIRECTION('ref_axis',(-1.,0.,0.));
#1305=DIRECTION('center_axis',(0.,0.,-1.));
#1306=DIRECTION('ref_axis',(-1.,0.,0.));
#1307=DIRECTION('center_axis',(0.,0.,-1.));
#1308=DIRECTION('ref_axis',(-1.,0.,0.));
#1309=DIRECTION('',(0.,0.,-1.));
#1310=DIRECTION('center_axis',(0.,0.,-1.));
#1311=DIRECTION('ref_axis',(-1.,0.,0.));
#1312=DIRECTION('center_axis',(0.,0.,1.));
#1313=DIRECTION('ref_axis',(-1.,0.,0.));
#1314=DIRECTION('center_axis',(0.,0.,-1.));
#1315=DIRECTION('ref_axis',(-1.,0.,0.));
#1316=DIRECTION('',(0.,0.,-1.));
#1317=DIRECTION('center_axis',(0.,0.,-1.));
#1318=DIRECTION('ref_axis',(-1.,0.,0.));
#1319=DIRECTION('center_axis',(0.,0.,1.));
#1320=DIRECTION('ref_axis',(-1.,0.,0.));
#1321=DIRECTION('center_axis',(0.,0.,-1.));
#1322=DIRECTION('ref_axis',(-1.,0.,0.));
#1323=DIRECTION('',(0.,0.,-1.));
#1324=DIRECTION('center_axis',(0.,0.,-1.));
#1325=DIRECTION('ref_axis',(-1.,0.,0.));
#1326=DIRECTION('center_axis',(0.,0.,1.));
#1327=DIRECTION('ref_axis',(-1.,0.,0.));
#1328=DIRECTION('center_axis',(0.,0.,-1.));
#1329=DIRECTION('ref_axis',(-1.,0.,0.));
#1330=DIRECTION('',(0.,0.,-1.));
#1331=DIRECTION('center_axis',(0.,0.,-1.));
#1332=DIRECTION('ref_axis',(-1.,0.,0.));
#1333=DIRECTION('center_axis',(0.,0.,1.));
#1334=DIRECTION('ref_axis',(-1.,0.,0.));
#1335=DIRECTION('center_axis',(0.,0.,-1.));
#1336=DIRECTION('ref_axis',(-1.,0.,0.));
#1337=DIRECTION('',(0.,0.,-1.));
#1338=DIRECTION('center_axis',(0.,0.,-1.));
#1339=DIRECTION('ref_axis',(-1.,0.,0.));
#1340=DIRECTION('center_axis',(0.,0.,1.));
#1341=DIRECTION('ref_axis',(-1.,0.,0.));
#1342=DIRECTION('center_axis',(0.,0.,-1.));
#1343=DIRECTION('ref_axis',(-1.,0.,0.));
#1344=DIRECTION('',(0.,0.,-1.));
#1345=DIRECTION('center_axis',(0.,0.,-1.));
#1346=DIRECTION('ref_axis',(-1.,0.,0.));
#1347=DIRECTION('center_axis',(0.,0.,1.));
#1348=DIRECTION('ref_axis',(-1.,0.,0.));
#1349=DIRECTION('center_axis',(-1.,0.,0.));
#1350=DIRECTION('ref_axis',(0.,-1.,0.));
#1351=DIRECTION('',(0.,1.,0.));
#1352=DIRECTION('',(0.,0.,1.));
#1353=DIRECTION('',(0.,0.,1.));
#1354=DIRECTION('center_axis',(1.,1.14287664299648E-15,0.));
#1355=DIRECTION('ref_axis',(-1.14287664299648E-15,1.,0.));
#1356=DIRECTION('',(1.14287664299648E-15,-1.,0.));
#1357=DIRECTION('',(0.,0.,1.));
#1358=DIRECTION('',(0.,0.,1.));
#1359=DIRECTION('center_axis',(0.,0.,1.));
#1360=DIRECTION('ref_axis',(1.,0.,0.));
#1361=DIRECTION('',(-1.,0.,0.));
#1362=DIRECTION('',(1.,0.,0.));
#1363=DIRECTION('center_axis',(0.,0.,-1.));
#1364=DIRECTION('ref_axis',(1.,0.,0.));
#1365=DIRECTION('center_axis',(0.,0.,-1.));
#1366=DIRECTION('ref_axis',(1.,0.,0.));
#1367=DIRECTION('center_axis',(0.,0.,1.));
#1368=DIRECTION('ref_axis',(1.,0.,0.));
#1369=DIRECTION('',(1.,0.,0.));
#1370=DIRECTION('',(-1.,0.,0.));
#1371=DIRECTION('center_axis',(0.,0.,-1.));
#1372=DIRECTION('ref_axis',(1.,0.,0.));
#1373=DIRECTION('center_axis',(0.,0.,-1.));
#1374=DIRECTION('ref_axis',(1.,0.,0.));
#1375=DIRECTION('center_axis',(0.,0.,1.));
#1376=DIRECTION('ref_axis',(1.,0.,0.));
#1377=DIRECTION('',(0.,0.,-1.));
#1378=DIRECTION('center_axis',(0.,0.,1.));
#1379=DIRECTION('ref_axis',(1.,0.,0.));
#1380=DIRECTION('',(0.,0.,-1.));
#1381=DIRECTION('center_axis',(0.,0.,1.));
#1382=DIRECTION('ref_axis',(1.,0.,0.));
#1383=DIRECTION('',(0.,0.,-1.));
#1384=DIRECTION('center_axis',(0.,0.,1.));
#1385=DIRECTION('ref_axis',(1.,0.,0.));
#1386=DIRECTION('',(0.,0.,-1.));
#1387=DIRECTION('center_axis',(0.,1.,0.));
#1388=DIRECTION('ref_axis',(-1.,0.,0.));
#1389=DIRECTION('center_axis',(0.,-1.,0.));
#1390=DIRECTION('ref_axis',(1.,0.,0.));
#1391=CARTESIAN_POINT('',(0.,0.,0.));
#1392=CARTESIAN_POINT('Origin',(27.2,2.99999999999999,0.));
#1393=CARTESIAN_POINT('',(27.2,2.99999999999999,0.));
#1394=CARTESIAN_POINT('',(-27.2,2.99999999999999,0.));
#1395=CARTESIAN_POINT('',(13.6,2.99999999999999,0.));
#1396=CARTESIAN_POINT('',(27.2,2.99999999999999,0.8));
#1397=CARTESIAN_POINT('',(27.2,2.99999999999999,0.));
#1398=CARTESIAN_POINT('',(-27.2,2.99999999999999,0.8));
#1399=CARTESIAN_POINT('',(27.2,2.99999999999999,0.8));
#1400=CARTESIAN_POINT('',(-27.2,2.99999999999999,0.));
#1401=CARTESIAN_POINT('Origin',(-27.2,-8.50000000000001,0.));
#1402=CARTESIAN_POINT('',(-27.2,-8.50000000000001,0.));
#1403=CARTESIAN_POINT('',(27.2,-8.50000000000001,0.));
#1404=CARTESIAN_POINT('',(-13.6,-8.50000000000001,0.));
#1405=CARTESIAN_POINT('',(-27.2,-8.50000000000001,0.8));
#1406=CARTESIAN_POINT('',(-27.2,-8.50000000000001,0.));
#1407=CARTESIAN_POINT('',(27.2,-8.50000000000001,0.8));
#1408=CARTESIAN_POINT('',(-27.2,-8.50000000000001,0.8));
#1409=CARTESIAN_POINT('',(27.2,-8.50000000000001,0.));
#1410=CARTESIAN_POINT('Origin',(-2.22044604925031E-14,-2.75000000000001,
0.8));
#1411=CARTESIAN_POINT('',(-27.2,12.225,0.8));
#1412=CARTESIAN_POINT('',(27.2,-14.975,0.8));
#1413=CARTESIAN_POINT('Origin',(27.2,-27.2,0.));
#1414=CARTESIAN_POINT('',(27.2,3.49999999999999,0.));
#1415=CARTESIAN_POINT('',(27.2,27.2,0.));
#1416=CARTESIAN_POINT('',(27.2,3.49999999999999,1.6));
#1417=CARTESIAN_POINT('',(27.2,3.49999999999999,0.));
#1418=CARTESIAN_POINT('',(27.2,14.5,1.6));
#1419=CARTESIAN_POINT('',(27.2,-9.09999999999999,1.6));
#1420=CARTESIAN_POINT('',(27.2,14.5,0.));
#1421=CARTESIAN_POINT('',(27.2,14.5,0.));
#1422=CARTESIAN_POINT('',(27.2,27.2,0.));
#1423=CARTESIAN_POINT('',(27.2,27.2,0.));
#1424=CARTESIAN_POINT('',(27.2,27.2,4.));
#1425=CARTESIAN_POINT('',(27.2,27.2,0.));
#1426=CARTESIAN_POINT('',(27.2,-27.2,4.));
#1427=CARTESIAN_POINT('',(27.2,27.2,4.));
#1428=CARTESIAN_POINT('',(27.2,-27.2,0.));
#1429=CARTESIAN_POINT('',(27.2,-27.2,0.));
#1430=CARTESIAN_POINT('',(27.2,27.2,0.));
#1431=CARTESIAN_POINT('Origin',(8.88178419700125E-15,-8.88178419700125E-15,
0.));
#1432=CARTESIAN_POINT('',(-27.2,3.49999999999999,0.));
#1433=CARTESIAN_POINT('',(-27.2,-27.2,0.));
#1434=CARTESIAN_POINT('',(-13.6,3.49999999999999,0.));
#1435=CARTESIAN_POINT('Origin',(27.2,14.5,0.));
#1436=CARTESIAN_POINT('',(-27.2,14.5,0.));
#1437=CARTESIAN_POINT('',(13.6,14.5,0.));
#1438=CARTESIAN_POINT('',(-27.2,14.5,1.6));
#1439=CARTESIAN_POINT('',(-27.2,14.5,1.6));
#1440=CARTESIAN_POINT('',(-27.2,14.5,0.));
#1441=CARTESIAN_POINT('Origin',(-27.2,3.49999999999999,0.));
#1442=CARTESIAN_POINT('',(-27.2,3.49999999999999,1.6));
#1443=CARTESIAN_POINT('',(-27.2,3.49999999999999,0.));
#1444=CARTESIAN_POINT('',(27.2,3.49999999999999,1.6));
#1445=CARTESIAN_POINT('Origin',(-8.88178419700125E-15,8.99999999999999,
1.6));
#1446=CARTESIAN_POINT('',(-27.2,18.1,1.6));
#1447=CARTESIAN_POINT('Origin',(8.88178419700125E-15,-8.88178419700125E-15,
0.));
#1448=CARTESIAN_POINT('',(-27.2,-27.2,0.));
#1449=CARTESIAN_POINT('',(27.2,-27.2,0.));
#1450=CARTESIAN_POINT('',(-27.2,-27.2,0.));
#1451=CARTESIAN_POINT('',(-21.75,-22.85,0.));
#1452=CARTESIAN_POINT('Origin',(-20.5,-22.85,0.));
#1453=CARTESIAN_POINT('',(19.25,-22.85,0.));
#1454=CARTESIAN_POINT('Origin',(20.5,-22.85,0.));
#1455=CARTESIAN_POINT('',(18.6,-17.5,0.));
#1456=CARTESIAN_POINT('Origin',(20.1,-17.5,0.));
#1457=CARTESIAN_POINT('',(-21.6,-17.5,0.));
#1458=CARTESIAN_POINT('Origin',(-20.1,-17.5,0.));
#1459=CARTESIAN_POINT('Origin',(8.88178419700125E-15,-8.88178419700125E-15,
0.));
#1460=CARTESIAN_POINT('',(-27.2,27.2,0.));
#1461=CARTESIAN_POINT('',(-27.2,-27.2,0.));
#1462=CARTESIAN_POINT('',(-27.2,27.2,0.));
#1463=CARTESIAN_POINT('',(-21.75,22.85,0.));
#1464=CARTESIAN_POINT('Origin',(-20.5,22.85,0.));
#1465=CARTESIAN_POINT('',(19.25,22.85,0.));
#1466=CARTESIAN_POINT('Origin',(20.5,22.85,0.));
#1467=CARTESIAN_POINT('',(-21.6,17.5,0.));
#1468=CARTESIAN_POINT('Origin',(-20.1,17.5,0.));
#1469=CARTESIAN_POINT('',(18.6,17.5,0.));
#1470=CARTESIAN_POINT('Origin',(20.1,17.5,0.));
#1471=CARTESIAN_POINT('Origin',(-27.2,27.2,0.));
#1472=CARTESIAN_POINT('',(-27.2,-27.2,4.));
#1473=CARTESIAN_POINT('',(-27.2,-27.2,0.));
#1474=CARTESIAN_POINT('',(-27.2,27.2,4.));
#1475=CARTESIAN_POINT('',(-27.2,-27.2,4.));
#1476=CARTESIAN_POINT('',(-27.2,27.2,0.));
#1477=CARTESIAN_POINT('Origin',(20.5,22.85,4.));
#1478=CARTESIAN_POINT('',(22.75,22.85,4.));
#1479=CARTESIAN_POINT('Origin',(20.5,22.85,4.));
#1480=CARTESIAN_POINT('',(22.75,22.85,2.85));
#1481=CARTESIAN_POINT('',(22.75,22.85,4.));
#1482=CARTESIAN_POINT('Origin',(20.5,22.85,2.85));
#1483=CARTESIAN_POINT('Origin',(20.5,22.85,2.85));
#1484=CARTESIAN_POINT('',(19.25,22.85,2.85));
#1485=CARTESIAN_POINT('Origin',(20.5,22.85,2.85));
#1486=CARTESIAN_POINT('Origin',(20.5,-22.85,4.));
#1487=CARTESIAN_POINT('',(22.75,-22.85,4.));
#1488=CARTESIAN_POINT('Origin',(20.5,-22.85,4.));
#1489=CARTESIAN_POINT('',(22.75,-22.85,2.85));
#1490=CARTESIAN_POINT('',(22.75,-22.85,4.));
#1491=CARTESIAN_POINT('Origin',(20.5,-22.85,2.85));
#1492=CARTESIAN_POINT('Origin',(20.5,-22.85,2.85));
#1493=CARTESIAN_POINT('',(19.25,-22.85,2.85));
#1494=CARTESIAN_POINT('Origin',(20.5,-22.85,2.85));
#1495=CARTESIAN_POINT('Origin',(-20.5,22.85,4.));
#1496=CARTESIAN_POINT('',(-18.25,22.85,4.));
#1497=CARTESIAN_POINT('Origin',(-20.5,22.85,4.));
#1498=CARTESIAN_POINT('',(-18.25,22.85,2.85));
#1499=CARTESIAN_POINT('',(-18.25,22.85,4.));
#1500=CARTESIAN_POINT('Origin',(-20.5,22.85,2.85));
#1501=CARTESIAN_POINT('Origin',(-20.5,22.85,2.85));
#1502=CARTESIAN_POINT('',(-21.75,22.85,2.85));
#1503=CARTESIAN_POINT('Origin',(-20.5,22.85,2.85));
#1504=CARTESIAN_POINT('Origin',(-20.5,-22.85,4.));
#1505=CARTESIAN_POINT('',(-18.25,-22.85,4.));
#1506=CARTESIAN_POINT('Origin',(-20.5,-22.85,4.));
#1507=CARTESIAN_POINT('',(-18.25,-22.85,2.85));
#1508=CARTESIAN_POINT('',(-18.25,-22.85,4.));
#1509=CARTESIAN_POINT('Origin',(-20.5,-22.85,2.85));
#1510=CARTESIAN_POINT('Origin',(-20.5,-22.85,2.85));
#1511=CARTESIAN_POINT('',(-21.75,-22.85,2.85));
#1512=CARTESIAN_POINT('Origin',(-20.5,-22.85,2.85));
#1513=CARTESIAN_POINT('Origin',(-20.5,-22.85,0.));
#1514=CARTESIAN_POINT('',(-21.75,-22.85,0.));
#1515=CARTESIAN_POINT('Origin',(20.5,-22.85,0.));
#1516=CARTESIAN_POINT('',(19.25,-22.85,0.));
#1517=CARTESIAN_POINT('Origin',(-20.5,22.85,0.));
#1518=CARTESIAN_POINT('',(-21.75,22.85,0.));
#1519=CARTESIAN_POINT('Origin',(20.5,22.85,0.));
#1520=CARTESIAN_POINT('',(19.25,22.85,0.));
#1521=CARTESIAN_POINT('Origin',(10.73,2.29999999999995,9.));
#1522=CARTESIAN_POINT('',(10.73,2.29999999999995,9.));
#1523=CARTESIAN_POINT('',(10.73,-27.2000000000001,9.));
#1524=CARTESIAN_POINT('',(10.73,-5.07500000000005,9.));
#1525=CARTESIAN_POINT('',(10.73,2.29999999999995,8.));
#1526=CARTESIAN_POINT('',(10.73,2.29999999999995,8.));
#1527=CARTESIAN_POINT('',(10.73,-27.2000000000001,8.));
#1528=CARTESIAN_POINT('',(10.73,2.29999999999995,8.));
#1529=CARTESIAN_POINT('',(10.73,-27.2,4.5));
#1530=CARTESIAN_POINT('Origin',(9.73000000000001,-27.2000000000001,9.));
#1531=CARTESIAN_POINT('',(9.73000000000001,-27.2000000000001,9.));
#1532=CARTESIAN_POINT('',(9.73000000000001,2.29999999999995,9.));
#1533=CARTESIAN_POINT('',(9.73000000000001,-19.8250000000001,9.));
#1534=CARTESIAN_POINT('',(9.73000000000001,-27.2000000000001,8.));
#1535=CARTESIAN_POINT('',(9.73000000000001,-27.2,4.5));
#1536=CARTESIAN_POINT('',(9.73000000000001,2.29999999999995,8.));
#1537=CARTESIAN_POINT('',(9.73000000000001,-27.2000000000001,8.));
#1538=CARTESIAN_POINT('',(9.73000000000001,2.29999999999995,8.));
#1539=CARTESIAN_POINT('Origin',(10.23,-12.4500000000001,8.));
#1540=CARTESIAN_POINT('',(-8.48499999999999,-27.2,8.));
#1541=CARTESIAN_POINT('',(11.365,2.29999999999995,8.));
#1542=CARTESIAN_POINT('Origin',(-9.73000000000002,2.29999999999995,9.));
#1543=CARTESIAN_POINT('',(-9.73000000000002,2.29999999999995,9.));
#1544=CARTESIAN_POINT('',(-9.73000000000002,-27.2000000000001,9.));
#1545=CARTESIAN_POINT('',(-9.73000000000002,-5.07500000000005,9.));
#1546=CARTESIAN_POINT('',(-9.73000000000002,2.29999999999995,8.));
#1547=CARTESIAN_POINT('',(-9.73000000000002,2.29999999999995,8.));
#1548=CARTESIAN_POINT('',(-9.73000000000002,-27.2000000000001,8.));
#1549=CARTESIAN_POINT('',(-9.73000000000002,2.29999999999995,8.));
#1550=CARTESIAN_POINT('',(-9.73000000000002,-27.2,4.5));
#1551=CARTESIAN_POINT('Origin',(-10.73,-27.2000000000001,9.));
#1552=CARTESIAN_POINT('',(-10.73,-27.2000000000001,9.));
#1553=CARTESIAN_POINT('',(-10.73,2.29999999999995,9.));
#1554=CARTESIAN_POINT('',(-10.73,-19.8250000000001,9.));
#1555=CARTESIAN_POINT('',(-10.73,-27.2000000000001,8.));
#1556=CARTESIAN_POINT('',(-10.73,-27.2,4.5));
#1557=CARTESIAN_POINT('',(-10.73,2.29999999999995,8.));
#1558=CARTESIAN_POINT('',(-10.73,-27.2000000000001,8.));
#1559=CARTESIAN_POINT('',(-10.73,2.29999999999995,8.));
#1560=CARTESIAN_POINT('Origin',(-10.23,-12.4500000000001,8.));
#1561=CARTESIAN_POINT('',(-18.715,-27.2,8.));
#1562=CARTESIAN_POINT('',(1.135,2.29999999999995,8.));
#1563=CARTESIAN_POINT('Origin',(0.,-12.4500000000001,9.));
#1564=CARTESIAN_POINT('',(-12.5,2.29999999999995,9.));
#1565=CARTESIAN_POINT('',(12.5,2.29999999999995,9.));
#1566=CARTESIAN_POINT('',(-12.5,-27.2000000000001,9.));
#1567=CARTESIAN_POINT('',(-12.5,2.29999999999995,9.));
#1568=CARTESIAN_POINT('',(-12.5,-27.2000000000001,9.));
#1569=CARTESIAN_POINT('Origin',(0.,-12.4500000000001,9.));
#1570=CARTESIAN_POINT('',(12.5,-27.2000000000001,9.));
#1571=CARTESIAN_POINT('',(-12.5,-27.2000000000001,9.));
#1572=CARTESIAN_POINT('',(12.5,2.29999999999995,9.));
#1573=CARTESIAN_POINT('',(12.5,-27.2000000000001,9.));
#1574=CARTESIAN_POINT('',(12.5,2.29999999999995,9.));
#1575=CARTESIAN_POINT('Origin',(0.,-12.4500000000001,9.));
#1576=CARTESIAN_POINT('',(12.5,2.29999999999995,9.));
#1577=CARTESIAN_POINT('',(-12.5,-27.2000000000001,9.));
#1578=CARTESIAN_POINT('',(-6.,0.299999999999994,9.));
#1579=CARTESIAN_POINT('Origin',(-7.5,0.299999999999992,9.));
#1580=CARTESIAN_POINT('',(9.,0.299999999999994,9.));
#1581=CARTESIAN_POINT('Origin',(7.5,0.299999999999992,9.));
#1582=CARTESIAN_POINT('',(-6.,-20.7,9.));
#1583=CARTESIAN_POINT('Origin',(-7.5,-20.7,9.));
#1584=CARTESIAN_POINT('',(9.,-20.7,9.));
#1585=CARTESIAN_POINT('Origin',(7.5,-20.7,9.));
#1586=CARTESIAN_POINT('Origin',(12.5,2.29999999999995,7.));
#1587=CARTESIAN_POINT('',(12.5,2.29999999999995,7.3));
#1588=CARTESIAN_POINT('',(12.5,2.29999999999995,7.));
#1589=CARTESIAN_POINT('',(-12.5,2.29999999999995,7.3));
#1590=CARTESIAN_POINT('',(6.25000000000001,2.29999999999995,7.3));
#1591=CARTESIAN_POINT('',(-12.5,2.29999999999995,7.));
#1592=CARTESIAN_POINT('Origin',(1.55431223447522E-14,-3.10862446895044E-14,
7.3));
#1593=CARTESIAN_POINT('',(12.5,27.2,7.3));
#1594=CARTESIAN_POINT('',(12.5,27.2,7.3));
#1595=CARTESIAN_POINT('',(-12.5,27.2,7.3));
#1596=CARTESIAN_POINT('',(-12.5,27.2,7.3));
#1597=CARTESIAN_POINT('',(-12.5,-27.2000000000001,7.3));
#1598=CARTESIAN_POINT('',(-3.5,24.7,7.3));
#1599=CARTESIAN_POINT('Origin',(-5.,24.7,7.3));
#1600=CARTESIAN_POINT('',(6.5,24.7,7.3));
#1601=CARTESIAN_POINT('Origin',(5.,24.7,7.3));
#1602=CARTESIAN_POINT('Origin',(5.,24.7,7.));
#1603=CARTESIAN_POINT('',(6.5,24.7,4.));
#1604=CARTESIAN_POINT('',(6.5,24.7,7.));
#1605=CARTESIAN_POINT('Origin',(5.,24.7,4.));
#1606=CARTESIAN_POINT('Origin',(5.,24.7,4.));
#1607=CARTESIAN_POINT('Origin',(-7.5,0.299999999999992,7.));
#1608=CARTESIAN_POINT('',(-6.,0.299999999999992,4.));
#1609=CARTESIAN_POINT('',(-6.,0.299999999999992,7.));
#1610=CARTESIAN_POINT('Origin',(-7.5,0.299999999999992,4.));
#1611=CARTESIAN_POINT('Origin',(-7.5,0.299999999999992,4.));
#1612=CARTESIAN_POINT('Origin',(-5.,24.7,7.));
#1613=CARTESIAN_POINT('',(-3.5,24.7,4.));
#1614=CARTESIAN_POINT('',(-3.5,24.7,7.));
#1615=CARTESIAN_POINT('Origin',(-5.,24.7,4.));
#1616=CARTESIAN_POINT('Origin',(-5.,24.7,4.));
#1617=CARTESIAN_POINT('Origin',(7.5,-20.7,7.));
#1618=CARTESIAN_POINT('',(9.,-20.7,4.));
#1619=CARTESIAN_POINT('',(9.,-20.7,7.));
#1620=CARTESIAN_POINT('Origin',(7.5,-20.7,4.));
#1621=CARTESIAN_POINT('Origin',(7.5,-20.7,4.));
#1622=CARTESIAN_POINT('Origin',(7.5,0.299999999999992,7.));
#1623=CARTESIAN_POINT('',(9.,0.299999999999992,4.));
#1624=CARTESIAN_POINT('',(9.,0.299999999999992,7.));
#1625=CARTESIAN_POINT('Origin',(7.5,0.299999999999992,4.));
#1626=CARTESIAN_POINT('Origin',(7.5,0.299999999999992,4.));
#1627=CARTESIAN_POINT('Origin',(-7.5,-20.7,7.));
#1628=CARTESIAN_POINT('',(-6.,-20.7,4.));
#1629=CARTESIAN_POINT('',(-6.,-20.7,7.));
#1630=CARTESIAN_POINT('Origin',(-7.5,-20.7,4.));
#1631=CARTESIAN_POINT('Origin',(-7.5,-20.7,4.));
#1632=CARTESIAN_POINT('Origin',(-12.5,27.2,4.));
#1633=CARTESIAN_POINT('',(-12.5,-27.2000000000001,4.));
#1634=CARTESIAN_POINT('',(-12.5,27.2,4.));
#1635=CARTESIAN_POINT('',(-12.5,13.6,4.));
#1636=CARTESIAN_POINT('',(-12.5,-27.2000000000001,4.));
#1637=CARTESIAN_POINT('',(-12.5,27.2,4.));
#1638=CARTESIAN_POINT('Origin',(12.5,-27.2000000000001,4.));
#1639=CARTESIAN_POINT('',(12.5,27.2,4.));
#1640=CARTESIAN_POINT('',(12.5,-27.2000000000001,4.));
#1641=CARTESIAN_POINT('',(12.5,-13.6,4.));
#1642=CARTESIAN_POINT('',(12.5,27.2,4.));
#1643=CARTESIAN_POINT('',(12.5,-27.2000000000001,4.));
#1644=CARTESIAN_POINT('Origin',(8.88178419700125E-15,-8.88178419700125E-15,
4.));
#1645=CARTESIAN_POINT('',(-27.2,27.2,4.));
#1646=CARTESIAN_POINT('',(27.2,-27.2,4.));
#1647=CARTESIAN_POINT('',(-21.6,17.5,4.));
#1648=CARTESIAN_POINT('Origin',(-20.1,17.5,4.));
#1649=CARTESIAN_POINT('',(-21.6,-17.5,4.));
#1650=CARTESIAN_POINT('Origin',(-20.1,-17.5,4.));
#1651=CARTESIAN_POINT('Origin',(8.88178419700125E-15,-8.88178419700125E-15,
4.));
#1652=CARTESIAN_POINT('',(27.2,-27.2,4.));
#1653=CARTESIAN_POINT('',(-27.2,27.2,4.));
#1654=CARTESIAN_POINT('',(18.6,17.5,4.));
#1655=CARTESIAN_POINT('Origin',(20.1,17.5,4.));
#1656=CARTESIAN_POINT('',(18.6,-17.5,4.));
#1657=CARTESIAN_POINT('Origin',(20.1,-17.5,4.));
#1658=CARTESIAN_POINT('Origin',(-20.1,-17.5,0.));
#1659=CARTESIAN_POINT('',(-21.6,-17.5,0.));
#1660=CARTESIAN_POINT('Origin',(20.1,17.5,0.));
#1661=CARTESIAN_POINT('',(18.6,17.5,0.));
#1662=CARTESIAN_POINT('Origin',(20.1,-17.5,0.));
#1663=CARTESIAN_POINT('',(18.6,-17.5,0.));
#1664=CARTESIAN_POINT('Origin',(-20.1,17.5,0.));
#1665=CARTESIAN_POINT('',(-21.6,17.5,0.));
#1666=CARTESIAN_POINT('Origin',(27.2,27.2,0.));
#1667=CARTESIAN_POINT('Origin',(-27.2,-27.2,0.));
#1668=UNCERTAINTY_MEASURE_WITH_UNIT(LENGTH_MEASURE(0.01),#1672,
'DISTANCE_ACCURACY_VALUE',
'Maximum model space distance between geometric entities at asserted c
onnectivities');
#1669=UNCERTAINTY_MEASURE_WITH_UNIT(LENGTH_MEASURE(0.01),#1672,
'DISTANCE_ACCURACY_VALUE',
'Maximum model space distance between geometric entities at asserted c
onnectivities');
#1670=(
GEOMETRIC_REPRESENTATION_CONTEXT(3)
GLOBAL_UNCERTAINTY_ASSIGNED_CONTEXT((#1668))
GLOBAL_UNIT_ASSIGNED_CONTEXT((#1672,#1674,#1675))
REPRESENTATION_CONTEXT('','3D')
);
#1671=(
GEOMETRIC_REPRESENTATION_CONTEXT(3)
GLOBAL_UNCERTAINTY_ASSIGNED_CONTEXT((#1669))
GLOBAL_UNIT_ASSIGNED_CONTEXT((#1672,#1674,#1675))
REPRESENTATION_CONTEXT('','3D')
);
#1672=(
LENGTH_UNIT()
NAMED_UNIT(*)
SI_UNIT(.MILLI.,.METRE.)
);
#1673=(
LENGTH_UNIT()
NAMED_UNIT(*)
SI_UNIT($,.METRE.)
);
#1674=(
NAMED_UNIT(*)
PLANE_ANGLE_UNIT()
SI_UNIT($,.RADIAN.)
);
#1675=(
NAMED_UNIT(*)
SI_UNIT($,.STERADIAN.)
SOLID_ANGLE_UNIT()
);
#1676=SHAPE_DEFINITION_REPRESENTATION(#1677,#1678);
#1677=PRODUCT_DEFINITION_SHAPE('',$,#1680);
#1678=SHAPE_REPRESENTATION('',(#1016),#1670);
#1679=PRODUCT_DEFINITION_CONTEXT('part definition',#1684,'design');
#1680=PRODUCT_DEFINITION('2026-04-23-15-36-49-562','Y_Stage_Prelim',#1681,
#1679);
#1681=PRODUCT_DEFINITION_FORMATION('',$,#1686);
#1682=PRODUCT_RELATED_PRODUCT_CATEGORY('Y_Stage_Prelim',
'Y_Stage_Prelim',(#1686));
#1683=APPLICATION_PROTOCOL_DEFINITION('international standard',
'automotive_design',2009,#1684);
#1684=APPLICATION_CONTEXT(
'Core Data for Automotive Mechanical Design Process');
#1685=PRODUCT_CONTEXT('part definition',#1684,'mechanical');
#1686=PRODUCT('2026-04-23-15-36-49-562','Y_Stage_Prelim',$,(#1685));
#1687=PRESENTATION_STYLE_ASSIGNMENT((#1688));
#1688=SURFACE_STYLE_USAGE(.BOTH.,#1689);
#1689=SURFACE_SIDE_STYLE('',(#1690));
#1690=SURFACE_STYLE_FILL_AREA(#1691);
#1691=FILL_AREA_STYLE('Steel - Satin',(#1692));
#1692=FILL_AREA_STYLE_COLOUR('Steel - Satin',#1693);
#1693=COLOUR_RGB('Steel - Satin',0.627450980392157,0.627450980392157,0.627450980392157);
ENDSEC;
END-ISO-10303-21;
