%TF.GenerationSoftware,KiCad,Pcbnew,9.0.4*%
%TF.CreationDate,2025-09-21T19:32:40-04:00*%
%TF.ProjectId,Nanopositioner_V10,4e616e6f-706f-4736-9974-696f6e65725f,rev?*%
%TF.SameCoordinates,Original*%
%TF.FileFunction,Soldermask,Bot*%
%TF.FilePolarity,Negative*%
%FSLAX46Y46*%
G04 Gerber Fmt 4.6, Leading zero omitted, Abs format (unit mm)*
G04 Created by KiCad (PCBNEW 9.0.4) date 2025-09-21 19:32:40*
%MOMM*%
%LPD*%
G01*
G04 APERTURE LIST*
G04 Aperture macros list*
%AMRoundRect*
0 Rectangle with rounded corners*
0 $1 Rounding radius*
0 $2 $3 $4 $5 $6 $7 $8 $9 X,Y pos of 4 corners*
0 Add a 4 corners polygon primitive as box body*
4,1,4,$2,$3,$4,$5,$6,$7,$8,$9,$2,$3,0*
0 Add four circle primitives for the rounded corners*
1,1,$1+$1,$2,$3*
1,1,$1+$1,$4,$5*
1,1,$1+$1,$6,$7*
1,1,$1+$1,$8,$9*
0 Add four rect primitives between the rounded corners*
20,1,$1+$1,$2,$3,$4,$5,0*
20,1,$1+$1,$4,$5,$6,$7,0*
20,1,$1+$1,$6,$7,$8,$9,0*
20,1,$1+$1,$8,$9,$2,$3,0*%
G04 Aperture macros list end*
%ADD10C,1.700000*%
%ADD11R,1.700000X1.700000*%
%ADD12C,1.524000*%
%ADD13O,2.000000X1.651000*%
%ADD14R,2.000000X1.651000*%
%ADD15C,1.612000*%
%ADD16RoundRect,0.102000X-0.704000X-0.704000X0.704000X-0.704000X0.704000X0.704000X-0.704000X0.704000X0*%
%ADD17C,3.720000*%
%ADD18C,2.200000*%
%ADD19C,2.388400*%
%ADD20O,2.704000X5.204000*%
%ADD21O,2.454000X4.704000*%
%ADD22O,4.704000X2.454000*%
%TA.AperFunction,Profile*%
%ADD23C,0.050000*%
%TD*%
G04 APERTURE END LIST*
D10*
%TO.C,U3*%
X169200000Y-81080000D03*
X166660000Y-81080000D03*
X169200000Y-78540000D03*
X166660000Y-78540000D03*
X169200000Y-76000000D03*
X166660000Y-76000000D03*
X169200000Y-73460000D03*
X166660000Y-73460000D03*
X169200000Y-70920000D03*
X166660000Y-70920000D03*
X169200000Y-68380000D03*
X166660000Y-68380000D03*
X169200000Y-65840000D03*
D11*
X166660000Y-65840000D03*
%TD*%
D12*
%TO.C,U1*%
X104942990Y-131123000D03*
X173888990Y-131123000D03*
X173888990Y-97737000D03*
X104942990Y-97737000D03*
D13*
X172309000Y-110620000D03*
X172309000Y-113160000D03*
D14*
X172309000Y-123320000D03*
D13*
X172309000Y-120780000D03*
X172309000Y-115700000D03*
X172309000Y-118240000D03*
X172309000Y-108080000D03*
X172309000Y-105540000D03*
X106650000Y-115700000D03*
X106650000Y-113160000D03*
D14*
X106650000Y-103000000D03*
D13*
X106650000Y-105540000D03*
X106650000Y-110620000D03*
X106650000Y-108080000D03*
X106650000Y-118240000D03*
X106650000Y-120780000D03*
X106650000Y-125860000D03*
X106650000Y-123320000D03*
%TD*%
D15*
%TO.C,U2*%
X108103500Y-83172500D03*
X110643500Y-83172500D03*
X113183500Y-83172500D03*
X115723500Y-83172500D03*
X118263500Y-83172500D03*
X120803500Y-83172500D03*
X123343500Y-83172500D03*
X125883500Y-83172500D03*
X128423500Y-83172500D03*
X130963500Y-83172500D03*
X133503500Y-83172500D03*
X136043500Y-83172500D03*
X138583500Y-83172500D03*
X141123500Y-83172500D03*
X143663500Y-83172500D03*
D16*
X146203500Y-83172500D03*
D15*
X118263500Y-62852500D03*
X120803500Y-62852500D03*
X123343500Y-62852500D03*
X125883500Y-62852500D03*
X128423500Y-62852500D03*
X130963500Y-62852500D03*
X133503500Y-62852500D03*
X136043500Y-62852500D03*
X138583500Y-62852500D03*
X141123500Y-62852500D03*
X143663500Y-62852500D03*
X146203500Y-62852500D03*
D17*
X104293500Y-81902500D03*
X104293500Y-64122500D03*
D18*
X150013500Y-63487500D03*
X150013500Y-82601000D03*
D19*
X148870500Y-69512500D03*
X148870500Y-73012500D03*
X148870500Y-76512500D03*
%TD*%
D20*
%TO.C,J1*%
X112610000Y-52020000D03*
D21*
X106610000Y-52020000D03*
D22*
X109610000Y-56720000D03*
%TD*%
D23*
X104000000Y-140000000D02*
G75*
G02*
X101000000Y-137000000I0J3000000D01*
G01*
X179000000Y-137000000D02*
G75*
G02*
X176000000Y-140000000I-3000000J0D01*
G01*
X101000000Y-44000000D02*
G75*
G02*
X104000000Y-41000000I3000000J0D01*
G01*
X176000000Y-41000000D02*
G75*
G02*
X179000000Y-44000000I0J-3000000D01*
G01*
X101000000Y-137000000D02*
X101000000Y-44000000D01*
X176000000Y-140000000D02*
X104000000Y-140000000D01*
X179000000Y-44000000D02*
X179000000Y-137000000D01*
X104000000Y-41000000D02*
X176000000Y-41000000D01*
X105500000Y-137000000D02*
G75*
G02*
X102500000Y-137000000I-1500000J0D01*
G01*
X102500000Y-137000000D02*
G75*
G02*
X105500000Y-137000000I1500000J0D01*
G01*
X177500000Y-137000000D02*
G75*
G02*
X174500000Y-137000000I-1500000J0D01*
G01*
X174500000Y-137000000D02*
G75*
G02*
X177500000Y-137000000I1500000J0D01*
G01*
X177500000Y-44000000D02*
G75*
G02*
X174500000Y-44000000I-1500000J0D01*
G01*
X174500000Y-44000000D02*
G75*
G02*
X177500000Y-44000000I1500000J0D01*
G01*
X105500000Y-44000000D02*
G75*
G02*
X102500000Y-44000000I-1500000J0D01*
G01*
X102500000Y-44000000D02*
G75*
G02*
X105500000Y-44000000I1500000J0D01*
G01*
M02*
