%TF.GenerationSoftware,KiCad,Pcbnew,9.0.4*%
%TF.CreationDate,2025-09-21T19:32:40-04:00*%
%TF.ProjectId,Nanopositioner_V10,4e616e6f-706f-4736-9974-696f6e65725f,rev?*%
%TF.SameCoordinates,Original*%
%TF.FileFunction,AssemblyDrawing,Bot*%
%FSLAX46Y46*%
G04 Gerber Fmt 4.6, Leading zero omitted, Abs format (unit mm)*
G04 Created by KiCad (PCBNEW 9.0.4) date 2025-09-21 19:32:40*
%MOMM*%
%LPD*%
G01*
G04 APERTURE LIST*
%ADD10C,0.047222*%
%ADD11C,0.100000*%
%ADD12C,0.055556*%
%ADD13C,0.039111*%
%ADD14C,0.097667*%
%ADD15C,0.060678*%
%ADD16C,0.138889*%
%ADD17C,0.125000*%
%TA.AperFunction,Profile*%
%ADD18C,0.050000*%
%TD*%
G04 APERTURE END LIST*
D10*
X169092063Y-81339695D02*
X168768254Y-81339695D01*
X168930158Y-81339695D02*
X168930158Y-80773029D01*
X168930158Y-80773029D02*
X168876190Y-80853981D01*
X168876190Y-80853981D02*
X168822222Y-80907949D01*
X168822222Y-80907949D02*
X168768254Y-80934933D01*
X169577777Y-80961917D02*
X169577777Y-81339695D01*
X169442856Y-80746045D02*
X169307936Y-81150806D01*
X169307936Y-81150806D02*
X169658729Y-81150806D01*
D11*
%TO.C,U3*%
X170050000Y-81080000D02*
G75*
G02*
X168350000Y-81080000I-850000J0D01*
G01*
X168350000Y-81080000D02*
G75*
G02*
X170050000Y-81080000I850000J0D01*
G01*
D10*
X166552063Y-81339695D02*
X166228254Y-81339695D01*
X166390158Y-81339695D02*
X166390158Y-80773029D01*
X166390158Y-80773029D02*
X166336190Y-80853981D01*
X166336190Y-80853981D02*
X166282222Y-80907949D01*
X166282222Y-80907949D02*
X166228254Y-80934933D01*
X166740952Y-80773029D02*
X167091745Y-80773029D01*
X167091745Y-80773029D02*
X166902856Y-80988901D01*
X166902856Y-80988901D02*
X166983809Y-80988901D01*
X166983809Y-80988901D02*
X167037777Y-81015885D01*
X167037777Y-81015885D02*
X167064761Y-81042870D01*
X167064761Y-81042870D02*
X167091745Y-81096838D01*
X167091745Y-81096838D02*
X167091745Y-81231758D01*
X167091745Y-81231758D02*
X167064761Y-81285726D01*
X167064761Y-81285726D02*
X167037777Y-81312711D01*
X167037777Y-81312711D02*
X166983809Y-81339695D01*
X166983809Y-81339695D02*
X166821904Y-81339695D01*
X166821904Y-81339695D02*
X166767936Y-81312711D01*
X166767936Y-81312711D02*
X166740952Y-81285726D01*
D11*
X167510000Y-81080000D02*
G75*
G02*
X165810000Y-81080000I-850000J0D01*
G01*
X165810000Y-81080000D02*
G75*
G02*
X167510000Y-81080000I850000J0D01*
G01*
D10*
X169092063Y-78799695D02*
X168768254Y-78799695D01*
X168930158Y-78799695D02*
X168930158Y-78233029D01*
X168930158Y-78233029D02*
X168876190Y-78313981D01*
X168876190Y-78313981D02*
X168822222Y-78367949D01*
X168822222Y-78367949D02*
X168768254Y-78394933D01*
X169307936Y-78286997D02*
X169334920Y-78260013D01*
X169334920Y-78260013D02*
X169388888Y-78233029D01*
X169388888Y-78233029D02*
X169523809Y-78233029D01*
X169523809Y-78233029D02*
X169577777Y-78260013D01*
X169577777Y-78260013D02*
X169604761Y-78286997D01*
X169604761Y-78286997D02*
X169631745Y-78340965D01*
X169631745Y-78340965D02*
X169631745Y-78394933D01*
X169631745Y-78394933D02*
X169604761Y-78475885D01*
X169604761Y-78475885D02*
X169280952Y-78799695D01*
X169280952Y-78799695D02*
X169631745Y-78799695D01*
D11*
X170050000Y-78540000D02*
G75*
G02*
X168350000Y-78540000I-850000J0D01*
G01*
X168350000Y-78540000D02*
G75*
G02*
X170050000Y-78540000I850000J0D01*
G01*
D10*
X166552063Y-78799695D02*
X166228254Y-78799695D01*
X166390158Y-78799695D02*
X166390158Y-78233029D01*
X166390158Y-78233029D02*
X166336190Y-78313981D01*
X166336190Y-78313981D02*
X166282222Y-78367949D01*
X166282222Y-78367949D02*
X166228254Y-78394933D01*
X167091745Y-78799695D02*
X166767936Y-78799695D01*
X166929840Y-78799695D02*
X166929840Y-78233029D01*
X166929840Y-78233029D02*
X166875872Y-78313981D01*
X166875872Y-78313981D02*
X166821904Y-78367949D01*
X166821904Y-78367949D02*
X166767936Y-78394933D01*
D11*
X167510000Y-78540000D02*
G75*
G02*
X165810000Y-78540000I-850000J0D01*
G01*
X165810000Y-78540000D02*
G75*
G02*
X167510000Y-78540000I850000J0D01*
G01*
D10*
X169092063Y-76259695D02*
X168768254Y-76259695D01*
X168930158Y-76259695D02*
X168930158Y-75693029D01*
X168930158Y-75693029D02*
X168876190Y-75773981D01*
X168876190Y-75773981D02*
X168822222Y-75827949D01*
X168822222Y-75827949D02*
X168768254Y-75854933D01*
X169442856Y-75693029D02*
X169496825Y-75693029D01*
X169496825Y-75693029D02*
X169550793Y-75720013D01*
X169550793Y-75720013D02*
X169577777Y-75746997D01*
X169577777Y-75746997D02*
X169604761Y-75800965D01*
X169604761Y-75800965D02*
X169631745Y-75908901D01*
X169631745Y-75908901D02*
X169631745Y-76043822D01*
X169631745Y-76043822D02*
X169604761Y-76151758D01*
X169604761Y-76151758D02*
X169577777Y-76205726D01*
X169577777Y-76205726D02*
X169550793Y-76232711D01*
X169550793Y-76232711D02*
X169496825Y-76259695D01*
X169496825Y-76259695D02*
X169442856Y-76259695D01*
X169442856Y-76259695D02*
X169388888Y-76232711D01*
X169388888Y-76232711D02*
X169361904Y-76205726D01*
X169361904Y-76205726D02*
X169334920Y-76151758D01*
X169334920Y-76151758D02*
X169307936Y-76043822D01*
X169307936Y-76043822D02*
X169307936Y-75908901D01*
X169307936Y-75908901D02*
X169334920Y-75800965D01*
X169334920Y-75800965D02*
X169361904Y-75746997D01*
X169361904Y-75746997D02*
X169388888Y-75720013D01*
X169388888Y-75720013D02*
X169442856Y-75693029D01*
D11*
X170050000Y-76000000D02*
G75*
G02*
X168350000Y-76000000I-850000J0D01*
G01*
X168350000Y-76000000D02*
G75*
G02*
X170050000Y-76000000I850000J0D01*
G01*
D10*
X166552063Y-76259695D02*
X166659999Y-76259695D01*
X166659999Y-76259695D02*
X166713968Y-76232711D01*
X166713968Y-76232711D02*
X166740952Y-76205726D01*
X166740952Y-76205726D02*
X166794920Y-76124774D01*
X166794920Y-76124774D02*
X166821904Y-76016838D01*
X166821904Y-76016838D02*
X166821904Y-75800965D01*
X166821904Y-75800965D02*
X166794920Y-75746997D01*
X166794920Y-75746997D02*
X166767936Y-75720013D01*
X166767936Y-75720013D02*
X166713968Y-75693029D01*
X166713968Y-75693029D02*
X166606031Y-75693029D01*
X166606031Y-75693029D02*
X166552063Y-75720013D01*
X166552063Y-75720013D02*
X166525079Y-75746997D01*
X166525079Y-75746997D02*
X166498095Y-75800965D01*
X166498095Y-75800965D02*
X166498095Y-75935885D01*
X166498095Y-75935885D02*
X166525079Y-75989854D01*
X166525079Y-75989854D02*
X166552063Y-76016838D01*
X166552063Y-76016838D02*
X166606031Y-76043822D01*
X166606031Y-76043822D02*
X166713968Y-76043822D01*
X166713968Y-76043822D02*
X166767936Y-76016838D01*
X166767936Y-76016838D02*
X166794920Y-75989854D01*
X166794920Y-75989854D02*
X166821904Y-75935885D01*
D11*
X167510000Y-76000000D02*
G75*
G02*
X165810000Y-76000000I-850000J0D01*
G01*
X165810000Y-76000000D02*
G75*
G02*
X167510000Y-76000000I850000J0D01*
G01*
D10*
X169146031Y-73395885D02*
X169092063Y-73368901D01*
X169092063Y-73368901D02*
X169065079Y-73341917D01*
X169065079Y-73341917D02*
X169038095Y-73287949D01*
X169038095Y-73287949D02*
X169038095Y-73260965D01*
X169038095Y-73260965D02*
X169065079Y-73206997D01*
X169065079Y-73206997D02*
X169092063Y-73180013D01*
X169092063Y-73180013D02*
X169146031Y-73153029D01*
X169146031Y-73153029D02*
X169253968Y-73153029D01*
X169253968Y-73153029D02*
X169307936Y-73180013D01*
X169307936Y-73180013D02*
X169334920Y-73206997D01*
X169334920Y-73206997D02*
X169361904Y-73260965D01*
X169361904Y-73260965D02*
X169361904Y-73287949D01*
X169361904Y-73287949D02*
X169334920Y-73341917D01*
X169334920Y-73341917D02*
X169307936Y-73368901D01*
X169307936Y-73368901D02*
X169253968Y-73395885D01*
X169253968Y-73395885D02*
X169146031Y-73395885D01*
X169146031Y-73395885D02*
X169092063Y-73422870D01*
X169092063Y-73422870D02*
X169065079Y-73449854D01*
X169065079Y-73449854D02*
X169038095Y-73503822D01*
X169038095Y-73503822D02*
X169038095Y-73611758D01*
X169038095Y-73611758D02*
X169065079Y-73665726D01*
X169065079Y-73665726D02*
X169092063Y-73692711D01*
X169092063Y-73692711D02*
X169146031Y-73719695D01*
X169146031Y-73719695D02*
X169253968Y-73719695D01*
X169253968Y-73719695D02*
X169307936Y-73692711D01*
X169307936Y-73692711D02*
X169334920Y-73665726D01*
X169334920Y-73665726D02*
X169361904Y-73611758D01*
X169361904Y-73611758D02*
X169361904Y-73503822D01*
X169361904Y-73503822D02*
X169334920Y-73449854D01*
X169334920Y-73449854D02*
X169307936Y-73422870D01*
X169307936Y-73422870D02*
X169253968Y-73395885D01*
D11*
X170050000Y-73460000D02*
G75*
G02*
X168350000Y-73460000I-850000J0D01*
G01*
X168350000Y-73460000D02*
G75*
G02*
X170050000Y-73460000I850000J0D01*
G01*
D10*
X166471111Y-73153029D02*
X166848888Y-73153029D01*
X166848888Y-73153029D02*
X166606031Y-73719695D01*
D11*
X167510000Y-73460000D02*
G75*
G02*
X165810000Y-73460000I-850000J0D01*
G01*
X165810000Y-73460000D02*
G75*
G02*
X167510000Y-73460000I850000J0D01*
G01*
D10*
X169307936Y-70613029D02*
X169199999Y-70613029D01*
X169199999Y-70613029D02*
X169146031Y-70640013D01*
X169146031Y-70640013D02*
X169119047Y-70666997D01*
X169119047Y-70666997D02*
X169065079Y-70747949D01*
X169065079Y-70747949D02*
X169038095Y-70855885D01*
X169038095Y-70855885D02*
X169038095Y-71071758D01*
X169038095Y-71071758D02*
X169065079Y-71125726D01*
X169065079Y-71125726D02*
X169092063Y-71152711D01*
X169092063Y-71152711D02*
X169146031Y-71179695D01*
X169146031Y-71179695D02*
X169253968Y-71179695D01*
X169253968Y-71179695D02*
X169307936Y-71152711D01*
X169307936Y-71152711D02*
X169334920Y-71125726D01*
X169334920Y-71125726D02*
X169361904Y-71071758D01*
X169361904Y-71071758D02*
X169361904Y-70936838D01*
X169361904Y-70936838D02*
X169334920Y-70882870D01*
X169334920Y-70882870D02*
X169307936Y-70855885D01*
X169307936Y-70855885D02*
X169253968Y-70828901D01*
X169253968Y-70828901D02*
X169146031Y-70828901D01*
X169146031Y-70828901D02*
X169092063Y-70855885D01*
X169092063Y-70855885D02*
X169065079Y-70882870D01*
X169065079Y-70882870D02*
X169038095Y-70936838D01*
D11*
X170050000Y-70920000D02*
G75*
G02*
X168350000Y-70920000I-850000J0D01*
G01*
X168350000Y-70920000D02*
G75*
G02*
X170050000Y-70920000I850000J0D01*
G01*
D10*
X166794920Y-70613029D02*
X166525079Y-70613029D01*
X166525079Y-70613029D02*
X166498095Y-70882870D01*
X166498095Y-70882870D02*
X166525079Y-70855885D01*
X166525079Y-70855885D02*
X166579047Y-70828901D01*
X166579047Y-70828901D02*
X166713968Y-70828901D01*
X166713968Y-70828901D02*
X166767936Y-70855885D01*
X166767936Y-70855885D02*
X166794920Y-70882870D01*
X166794920Y-70882870D02*
X166821904Y-70936838D01*
X166821904Y-70936838D02*
X166821904Y-71071758D01*
X166821904Y-71071758D02*
X166794920Y-71125726D01*
X166794920Y-71125726D02*
X166767936Y-71152711D01*
X166767936Y-71152711D02*
X166713968Y-71179695D01*
X166713968Y-71179695D02*
X166579047Y-71179695D01*
X166579047Y-71179695D02*
X166525079Y-71152711D01*
X166525079Y-71152711D02*
X166498095Y-71125726D01*
D11*
X167510000Y-70920000D02*
G75*
G02*
X165810000Y-70920000I-850000J0D01*
G01*
X165810000Y-70920000D02*
G75*
G02*
X167510000Y-70920000I850000J0D01*
G01*
D10*
X169307936Y-68261917D02*
X169307936Y-68639695D01*
X169173015Y-68046045D02*
X169038095Y-68450806D01*
X169038095Y-68450806D02*
X169388888Y-68450806D01*
D11*
X170050000Y-68380000D02*
G75*
G02*
X168350000Y-68380000I-850000J0D01*
G01*
X168350000Y-68380000D02*
G75*
G02*
X170050000Y-68380000I850000J0D01*
G01*
D10*
X166471111Y-68073029D02*
X166821904Y-68073029D01*
X166821904Y-68073029D02*
X166633015Y-68288901D01*
X166633015Y-68288901D02*
X166713968Y-68288901D01*
X166713968Y-68288901D02*
X166767936Y-68315885D01*
X166767936Y-68315885D02*
X166794920Y-68342870D01*
X166794920Y-68342870D02*
X166821904Y-68396838D01*
X166821904Y-68396838D02*
X166821904Y-68531758D01*
X166821904Y-68531758D02*
X166794920Y-68585726D01*
X166794920Y-68585726D02*
X166767936Y-68612711D01*
X166767936Y-68612711D02*
X166713968Y-68639695D01*
X166713968Y-68639695D02*
X166552063Y-68639695D01*
X166552063Y-68639695D02*
X166498095Y-68612711D01*
X166498095Y-68612711D02*
X166471111Y-68585726D01*
D11*
X167510000Y-68380000D02*
G75*
G02*
X165810000Y-68380000I-850000J0D01*
G01*
X165810000Y-68380000D02*
G75*
G02*
X167510000Y-68380000I850000J0D01*
G01*
D10*
X169038095Y-65586997D02*
X169065079Y-65560013D01*
X169065079Y-65560013D02*
X169119047Y-65533029D01*
X169119047Y-65533029D02*
X169253968Y-65533029D01*
X169253968Y-65533029D02*
X169307936Y-65560013D01*
X169307936Y-65560013D02*
X169334920Y-65586997D01*
X169334920Y-65586997D02*
X169361904Y-65640965D01*
X169361904Y-65640965D02*
X169361904Y-65694933D01*
X169361904Y-65694933D02*
X169334920Y-65775885D01*
X169334920Y-65775885D02*
X169011111Y-66099695D01*
X169011111Y-66099695D02*
X169361904Y-66099695D01*
D11*
X170050000Y-65840000D02*
G75*
G02*
X168350000Y-65840000I-850000J0D01*
G01*
X168350000Y-65840000D02*
G75*
G02*
X170050000Y-65840000I850000J0D01*
G01*
D10*
X166821904Y-66099695D02*
X166498095Y-66099695D01*
X166659999Y-66099695D02*
X166659999Y-65533029D01*
X166659999Y-65533029D02*
X166606031Y-65613981D01*
X166606031Y-65613981D02*
X166552063Y-65667949D01*
X166552063Y-65667949D02*
X166498095Y-65694933D01*
D11*
X165810000Y-64990000D02*
X165810000Y-66690000D01*
X167510000Y-66690000D01*
X167510000Y-64990000D01*
X165810000Y-64990000D01*
%TD*%
%TO.C,U1*%
X105704990Y-131123000D02*
G75*
G02*
X104180990Y-131123000I-762000J0D01*
G01*
X104180990Y-131123000D02*
G75*
G02*
X105704990Y-131123000I762000J0D01*
G01*
X174650990Y-131123000D02*
G75*
G02*
X173126990Y-131123000I-762000J0D01*
G01*
X173126990Y-131123000D02*
G75*
G02*
X174650990Y-131123000I762000J0D01*
G01*
X174650990Y-97737000D02*
G75*
G02*
X173126990Y-97737000I-762000J0D01*
G01*
X173126990Y-97737000D02*
G75*
G02*
X174650990Y-97737000I762000J0D01*
G01*
X105704990Y-97737000D02*
G75*
G02*
X104180990Y-97737000I-762000J0D01*
G01*
X104180990Y-97737000D02*
G75*
G02*
X105704990Y-97737000I762000J0D01*
G01*
D12*
X172182016Y-110925524D02*
X171801064Y-110925524D01*
X171991540Y-110925524D02*
X171991540Y-110258858D01*
X171991540Y-110258858D02*
X171928048Y-110354096D01*
X171928048Y-110354096D02*
X171864556Y-110417588D01*
X171864556Y-110417588D02*
X171801064Y-110449334D01*
X172753444Y-110258858D02*
X172626460Y-110258858D01*
X172626460Y-110258858D02*
X172562968Y-110290604D01*
X172562968Y-110290604D02*
X172531222Y-110322350D01*
X172531222Y-110322350D02*
X172467730Y-110417588D01*
X172467730Y-110417588D02*
X172435984Y-110544572D01*
X172435984Y-110544572D02*
X172435984Y-110798540D01*
X172435984Y-110798540D02*
X172467730Y-110862032D01*
X172467730Y-110862032D02*
X172499476Y-110893778D01*
X172499476Y-110893778D02*
X172562968Y-110925524D01*
X172562968Y-110925524D02*
X172689952Y-110925524D01*
X172689952Y-110925524D02*
X172753444Y-110893778D01*
X172753444Y-110893778D02*
X172785190Y-110862032D01*
X172785190Y-110862032D02*
X172816936Y-110798540D01*
X172816936Y-110798540D02*
X172816936Y-110639810D01*
X172816936Y-110639810D02*
X172785190Y-110576318D01*
X172785190Y-110576318D02*
X172753444Y-110544572D01*
X172753444Y-110544572D02*
X172689952Y-110512826D01*
X172689952Y-110512826D02*
X172562968Y-110512826D01*
X172562968Y-110512826D02*
X172499476Y-110544572D01*
X172499476Y-110544572D02*
X172467730Y-110576318D01*
X172467730Y-110576318D02*
X172435984Y-110639810D01*
D11*
X172134500Y-111445500D02*
X172483500Y-111445500D01*
X172483500Y-109794500D02*
G75*
G02*
X172483500Y-111445500I0J-825500D01*
G01*
X172483500Y-109794500D02*
X172134500Y-109794500D01*
X172134500Y-109794500D02*
G75*
G03*
X172134500Y-111445500I0J-825500D01*
G01*
D12*
X172182016Y-113465524D02*
X171801064Y-113465524D01*
X171991540Y-113465524D02*
X171991540Y-112798858D01*
X171991540Y-112798858D02*
X171928048Y-112894096D01*
X171928048Y-112894096D02*
X171864556Y-112957588D01*
X171864556Y-112957588D02*
X171801064Y-112989334D01*
X172785190Y-112798858D02*
X172467730Y-112798858D01*
X172467730Y-112798858D02*
X172435984Y-113116318D01*
X172435984Y-113116318D02*
X172467730Y-113084572D01*
X172467730Y-113084572D02*
X172531222Y-113052826D01*
X172531222Y-113052826D02*
X172689952Y-113052826D01*
X172689952Y-113052826D02*
X172753444Y-113084572D01*
X172753444Y-113084572D02*
X172785190Y-113116318D01*
X172785190Y-113116318D02*
X172816936Y-113179810D01*
X172816936Y-113179810D02*
X172816936Y-113338540D01*
X172816936Y-113338540D02*
X172785190Y-113402032D01*
X172785190Y-113402032D02*
X172753444Y-113433778D01*
X172753444Y-113433778D02*
X172689952Y-113465524D01*
X172689952Y-113465524D02*
X172531222Y-113465524D01*
X172531222Y-113465524D02*
X172467730Y-113433778D01*
X172467730Y-113433778D02*
X172435984Y-113402032D01*
D11*
X172134500Y-113985500D02*
X172483500Y-113985500D01*
X172483500Y-112334500D02*
G75*
G02*
X172483500Y-113985500I0J-825500D01*
G01*
X172483500Y-112334500D02*
X172134500Y-112334500D01*
X172134500Y-112334500D02*
G75*
G03*
X172134500Y-113985500I0J-825500D01*
G01*
D12*
X172182016Y-123625524D02*
X171801064Y-123625524D01*
X171991540Y-123625524D02*
X171991540Y-122958858D01*
X171991540Y-122958858D02*
X171928048Y-123054096D01*
X171928048Y-123054096D02*
X171864556Y-123117588D01*
X171864556Y-123117588D02*
X171801064Y-123149334D01*
X172816936Y-123625524D02*
X172435984Y-123625524D01*
X172626460Y-123625524D02*
X172626460Y-122958858D01*
X172626460Y-122958858D02*
X172562968Y-123054096D01*
X172562968Y-123054096D02*
X172499476Y-123117588D01*
X172499476Y-123117588D02*
X172435984Y-123149334D01*
D11*
X171309000Y-122494500D02*
X171309000Y-124145500D01*
X173309000Y-124145500D01*
X173309000Y-122494500D01*
X171309000Y-122494500D01*
D12*
X172182016Y-121085524D02*
X171801064Y-121085524D01*
X171991540Y-121085524D02*
X171991540Y-120418858D01*
X171991540Y-120418858D02*
X171928048Y-120514096D01*
X171928048Y-120514096D02*
X171864556Y-120577588D01*
X171864556Y-120577588D02*
X171801064Y-120609334D01*
X172435984Y-120482350D02*
X172467730Y-120450604D01*
X172467730Y-120450604D02*
X172531222Y-120418858D01*
X172531222Y-120418858D02*
X172689952Y-120418858D01*
X172689952Y-120418858D02*
X172753444Y-120450604D01*
X172753444Y-120450604D02*
X172785190Y-120482350D01*
X172785190Y-120482350D02*
X172816936Y-120545842D01*
X172816936Y-120545842D02*
X172816936Y-120609334D01*
X172816936Y-120609334D02*
X172785190Y-120704572D01*
X172785190Y-120704572D02*
X172404238Y-121085524D01*
X172404238Y-121085524D02*
X172816936Y-121085524D01*
D11*
X172134500Y-121605500D02*
X172483500Y-121605500D01*
X172483500Y-119954500D02*
G75*
G02*
X172483500Y-121605500I0J-825500D01*
G01*
X172483500Y-119954500D02*
X172134500Y-119954500D01*
X172134500Y-119954500D02*
G75*
G03*
X172134500Y-121605500I0J-825500D01*
G01*
D12*
X172182016Y-116005524D02*
X171801064Y-116005524D01*
X171991540Y-116005524D02*
X171991540Y-115338858D01*
X171991540Y-115338858D02*
X171928048Y-115434096D01*
X171928048Y-115434096D02*
X171864556Y-115497588D01*
X171864556Y-115497588D02*
X171801064Y-115529334D01*
X172753444Y-115561080D02*
X172753444Y-116005524D01*
X172594714Y-115307112D02*
X172435984Y-115783302D01*
X172435984Y-115783302D02*
X172848682Y-115783302D01*
D11*
X172134500Y-116525500D02*
X172483500Y-116525500D01*
X172483500Y-114874500D02*
G75*
G02*
X172483500Y-116525500I0J-825500D01*
G01*
X172483500Y-114874500D02*
X172134500Y-114874500D01*
X172134500Y-114874500D02*
G75*
G03*
X172134500Y-116525500I0J-825500D01*
G01*
D12*
X172182016Y-118545524D02*
X171801064Y-118545524D01*
X171991540Y-118545524D02*
X171991540Y-117878858D01*
X171991540Y-117878858D02*
X171928048Y-117974096D01*
X171928048Y-117974096D02*
X171864556Y-118037588D01*
X171864556Y-118037588D02*
X171801064Y-118069334D01*
X172404238Y-117878858D02*
X172816936Y-117878858D01*
X172816936Y-117878858D02*
X172594714Y-118132826D01*
X172594714Y-118132826D02*
X172689952Y-118132826D01*
X172689952Y-118132826D02*
X172753444Y-118164572D01*
X172753444Y-118164572D02*
X172785190Y-118196318D01*
X172785190Y-118196318D02*
X172816936Y-118259810D01*
X172816936Y-118259810D02*
X172816936Y-118418540D01*
X172816936Y-118418540D02*
X172785190Y-118482032D01*
X172785190Y-118482032D02*
X172753444Y-118513778D01*
X172753444Y-118513778D02*
X172689952Y-118545524D01*
X172689952Y-118545524D02*
X172499476Y-118545524D01*
X172499476Y-118545524D02*
X172435984Y-118513778D01*
X172435984Y-118513778D02*
X172404238Y-118482032D01*
D11*
X172134500Y-119065500D02*
X172483500Y-119065500D01*
X172483500Y-117414500D02*
G75*
G02*
X172483500Y-119065500I0J-825500D01*
G01*
X172483500Y-117414500D02*
X172134500Y-117414500D01*
X172134500Y-117414500D02*
G75*
G03*
X172134500Y-119065500I0J-825500D01*
G01*
D12*
X172182016Y-108385524D02*
X171801064Y-108385524D01*
X171991540Y-108385524D02*
X171991540Y-107718858D01*
X171991540Y-107718858D02*
X171928048Y-107814096D01*
X171928048Y-107814096D02*
X171864556Y-107877588D01*
X171864556Y-107877588D02*
X171801064Y-107909334D01*
X172404238Y-107718858D02*
X172848682Y-107718858D01*
X172848682Y-107718858D02*
X172562968Y-108385524D01*
D11*
X172134500Y-108905500D02*
X172483500Y-108905500D01*
X172483500Y-107254500D02*
G75*
G02*
X172483500Y-108905500I0J-825500D01*
G01*
X172483500Y-107254500D02*
X172134500Y-107254500D01*
X172134500Y-107254500D02*
G75*
G03*
X172134500Y-108905500I0J-825500D01*
G01*
D12*
X172182016Y-105845524D02*
X171801064Y-105845524D01*
X171991540Y-105845524D02*
X171991540Y-105178858D01*
X171991540Y-105178858D02*
X171928048Y-105274096D01*
X171928048Y-105274096D02*
X171864556Y-105337588D01*
X171864556Y-105337588D02*
X171801064Y-105369334D01*
X172562968Y-105464572D02*
X172499476Y-105432826D01*
X172499476Y-105432826D02*
X172467730Y-105401080D01*
X172467730Y-105401080D02*
X172435984Y-105337588D01*
X172435984Y-105337588D02*
X172435984Y-105305842D01*
X172435984Y-105305842D02*
X172467730Y-105242350D01*
X172467730Y-105242350D02*
X172499476Y-105210604D01*
X172499476Y-105210604D02*
X172562968Y-105178858D01*
X172562968Y-105178858D02*
X172689952Y-105178858D01*
X172689952Y-105178858D02*
X172753444Y-105210604D01*
X172753444Y-105210604D02*
X172785190Y-105242350D01*
X172785190Y-105242350D02*
X172816936Y-105305842D01*
X172816936Y-105305842D02*
X172816936Y-105337588D01*
X172816936Y-105337588D02*
X172785190Y-105401080D01*
X172785190Y-105401080D02*
X172753444Y-105432826D01*
X172753444Y-105432826D02*
X172689952Y-105464572D01*
X172689952Y-105464572D02*
X172562968Y-105464572D01*
X172562968Y-105464572D02*
X172499476Y-105496318D01*
X172499476Y-105496318D02*
X172467730Y-105528064D01*
X172467730Y-105528064D02*
X172435984Y-105591556D01*
X172435984Y-105591556D02*
X172435984Y-105718540D01*
X172435984Y-105718540D02*
X172467730Y-105782032D01*
X172467730Y-105782032D02*
X172499476Y-105813778D01*
X172499476Y-105813778D02*
X172562968Y-105845524D01*
X172562968Y-105845524D02*
X172689952Y-105845524D01*
X172689952Y-105845524D02*
X172753444Y-105813778D01*
X172753444Y-105813778D02*
X172785190Y-105782032D01*
X172785190Y-105782032D02*
X172816936Y-105718540D01*
X172816936Y-105718540D02*
X172816936Y-105591556D01*
X172816936Y-105591556D02*
X172785190Y-105528064D01*
X172785190Y-105528064D02*
X172753444Y-105496318D01*
X172753444Y-105496318D02*
X172689952Y-105464572D01*
D11*
X172134500Y-106365500D02*
X172483500Y-106365500D01*
X172483500Y-104714500D02*
G75*
G02*
X172483500Y-106365500I0J-825500D01*
G01*
X172483500Y-104714500D02*
X172134500Y-104714500D01*
X172134500Y-104714500D02*
G75*
G03*
X172134500Y-106365500I0J-825500D01*
G01*
D12*
X106776984Y-115338858D02*
X106650000Y-115338858D01*
X106650000Y-115338858D02*
X106586508Y-115370604D01*
X106586508Y-115370604D02*
X106554762Y-115402350D01*
X106554762Y-115402350D02*
X106491270Y-115497588D01*
X106491270Y-115497588D02*
X106459524Y-115624572D01*
X106459524Y-115624572D02*
X106459524Y-115878540D01*
X106459524Y-115878540D02*
X106491270Y-115942032D01*
X106491270Y-115942032D02*
X106523016Y-115973778D01*
X106523016Y-115973778D02*
X106586508Y-116005524D01*
X106586508Y-116005524D02*
X106713492Y-116005524D01*
X106713492Y-116005524D02*
X106776984Y-115973778D01*
X106776984Y-115973778D02*
X106808730Y-115942032D01*
X106808730Y-115942032D02*
X106840476Y-115878540D01*
X106840476Y-115878540D02*
X106840476Y-115719810D01*
X106840476Y-115719810D02*
X106808730Y-115656318D01*
X106808730Y-115656318D02*
X106776984Y-115624572D01*
X106776984Y-115624572D02*
X106713492Y-115592826D01*
X106713492Y-115592826D02*
X106586508Y-115592826D01*
X106586508Y-115592826D02*
X106523016Y-115624572D01*
X106523016Y-115624572D02*
X106491270Y-115656318D01*
X106491270Y-115656318D02*
X106459524Y-115719810D01*
D11*
X106824500Y-114874500D02*
X106475500Y-114874500D01*
X106475500Y-116525500D02*
G75*
G02*
X106475500Y-114874500I0J825500D01*
G01*
X106475500Y-116525500D02*
X106824500Y-116525500D01*
X106824500Y-116525500D02*
G75*
G03*
X106824500Y-114874500I0J825500D01*
G01*
D12*
X106808730Y-112798858D02*
X106491270Y-112798858D01*
X106491270Y-112798858D02*
X106459524Y-113116318D01*
X106459524Y-113116318D02*
X106491270Y-113084572D01*
X106491270Y-113084572D02*
X106554762Y-113052826D01*
X106554762Y-113052826D02*
X106713492Y-113052826D01*
X106713492Y-113052826D02*
X106776984Y-113084572D01*
X106776984Y-113084572D02*
X106808730Y-113116318D01*
X106808730Y-113116318D02*
X106840476Y-113179810D01*
X106840476Y-113179810D02*
X106840476Y-113338540D01*
X106840476Y-113338540D02*
X106808730Y-113402032D01*
X106808730Y-113402032D02*
X106776984Y-113433778D01*
X106776984Y-113433778D02*
X106713492Y-113465524D01*
X106713492Y-113465524D02*
X106554762Y-113465524D01*
X106554762Y-113465524D02*
X106491270Y-113433778D01*
X106491270Y-113433778D02*
X106459524Y-113402032D01*
D11*
X106824500Y-112334500D02*
X106475500Y-112334500D01*
X106475500Y-113985500D02*
G75*
G02*
X106475500Y-112334500I0J825500D01*
G01*
X106475500Y-113985500D02*
X106824500Y-113985500D01*
X106824500Y-113985500D02*
G75*
G03*
X106824500Y-112334500I0J825500D01*
G01*
D12*
X106840476Y-103305524D02*
X106459524Y-103305524D01*
X106650000Y-103305524D02*
X106650000Y-102638858D01*
X106650000Y-102638858D02*
X106586508Y-102734096D01*
X106586508Y-102734096D02*
X106523016Y-102797588D01*
X106523016Y-102797588D02*
X106459524Y-102829334D01*
D11*
X105650000Y-102174500D02*
X105650000Y-103825500D01*
X107650000Y-103825500D01*
X107650000Y-102174500D01*
X105650000Y-102174500D01*
D12*
X106459524Y-105242350D02*
X106491270Y-105210604D01*
X106491270Y-105210604D02*
X106554762Y-105178858D01*
X106554762Y-105178858D02*
X106713492Y-105178858D01*
X106713492Y-105178858D02*
X106776984Y-105210604D01*
X106776984Y-105210604D02*
X106808730Y-105242350D01*
X106808730Y-105242350D02*
X106840476Y-105305842D01*
X106840476Y-105305842D02*
X106840476Y-105369334D01*
X106840476Y-105369334D02*
X106808730Y-105464572D01*
X106808730Y-105464572D02*
X106427778Y-105845524D01*
X106427778Y-105845524D02*
X106840476Y-105845524D01*
D11*
X106824500Y-104714500D02*
X106475500Y-104714500D01*
X106475500Y-106365500D02*
G75*
G02*
X106475500Y-104714500I0J825500D01*
G01*
X106475500Y-106365500D02*
X106824500Y-106365500D01*
X106824500Y-106365500D02*
G75*
G03*
X106824500Y-104714500I0J825500D01*
G01*
D12*
X106776984Y-110481080D02*
X106776984Y-110925524D01*
X106618254Y-110227112D02*
X106459524Y-110703302D01*
X106459524Y-110703302D02*
X106872222Y-110703302D01*
D11*
X106824500Y-109794500D02*
X106475500Y-109794500D01*
X106475500Y-111445500D02*
G75*
G02*
X106475500Y-109794500I0J825500D01*
G01*
X106475500Y-111445500D02*
X106824500Y-111445500D01*
X106824500Y-111445500D02*
G75*
G03*
X106824500Y-109794500I0J825500D01*
G01*
D12*
X106427778Y-107718858D02*
X106840476Y-107718858D01*
X106840476Y-107718858D02*
X106618254Y-107972826D01*
X106618254Y-107972826D02*
X106713492Y-107972826D01*
X106713492Y-107972826D02*
X106776984Y-108004572D01*
X106776984Y-108004572D02*
X106808730Y-108036318D01*
X106808730Y-108036318D02*
X106840476Y-108099810D01*
X106840476Y-108099810D02*
X106840476Y-108258540D01*
X106840476Y-108258540D02*
X106808730Y-108322032D01*
X106808730Y-108322032D02*
X106776984Y-108353778D01*
X106776984Y-108353778D02*
X106713492Y-108385524D01*
X106713492Y-108385524D02*
X106523016Y-108385524D01*
X106523016Y-108385524D02*
X106459524Y-108353778D01*
X106459524Y-108353778D02*
X106427778Y-108322032D01*
D11*
X106824500Y-107254500D02*
X106475500Y-107254500D01*
X106475500Y-108905500D02*
G75*
G02*
X106475500Y-107254500I0J825500D01*
G01*
X106475500Y-108905500D02*
X106824500Y-108905500D01*
X106824500Y-108905500D02*
G75*
G03*
X106824500Y-107254500I0J825500D01*
G01*
D12*
X106427778Y-117878858D02*
X106872222Y-117878858D01*
X106872222Y-117878858D02*
X106586508Y-118545524D01*
D11*
X106824500Y-117414500D02*
X106475500Y-117414500D01*
X106475500Y-119065500D02*
G75*
G02*
X106475500Y-117414500I0J825500D01*
G01*
X106475500Y-119065500D02*
X106824500Y-119065500D01*
X106824500Y-119065500D02*
G75*
G03*
X106824500Y-117414500I0J825500D01*
G01*
D12*
X106586508Y-120704572D02*
X106523016Y-120672826D01*
X106523016Y-120672826D02*
X106491270Y-120641080D01*
X106491270Y-120641080D02*
X106459524Y-120577588D01*
X106459524Y-120577588D02*
X106459524Y-120545842D01*
X106459524Y-120545842D02*
X106491270Y-120482350D01*
X106491270Y-120482350D02*
X106523016Y-120450604D01*
X106523016Y-120450604D02*
X106586508Y-120418858D01*
X106586508Y-120418858D02*
X106713492Y-120418858D01*
X106713492Y-120418858D02*
X106776984Y-120450604D01*
X106776984Y-120450604D02*
X106808730Y-120482350D01*
X106808730Y-120482350D02*
X106840476Y-120545842D01*
X106840476Y-120545842D02*
X106840476Y-120577588D01*
X106840476Y-120577588D02*
X106808730Y-120641080D01*
X106808730Y-120641080D02*
X106776984Y-120672826D01*
X106776984Y-120672826D02*
X106713492Y-120704572D01*
X106713492Y-120704572D02*
X106586508Y-120704572D01*
X106586508Y-120704572D02*
X106523016Y-120736318D01*
X106523016Y-120736318D02*
X106491270Y-120768064D01*
X106491270Y-120768064D02*
X106459524Y-120831556D01*
X106459524Y-120831556D02*
X106459524Y-120958540D01*
X106459524Y-120958540D02*
X106491270Y-121022032D01*
X106491270Y-121022032D02*
X106523016Y-121053778D01*
X106523016Y-121053778D02*
X106586508Y-121085524D01*
X106586508Y-121085524D02*
X106713492Y-121085524D01*
X106713492Y-121085524D02*
X106776984Y-121053778D01*
X106776984Y-121053778D02*
X106808730Y-121022032D01*
X106808730Y-121022032D02*
X106840476Y-120958540D01*
X106840476Y-120958540D02*
X106840476Y-120831556D01*
X106840476Y-120831556D02*
X106808730Y-120768064D01*
X106808730Y-120768064D02*
X106776984Y-120736318D01*
X106776984Y-120736318D02*
X106713492Y-120704572D01*
D11*
X106824500Y-119954500D02*
X106475500Y-119954500D01*
X106475500Y-121605500D02*
G75*
G02*
X106475500Y-119954500I0J825500D01*
G01*
X106475500Y-121605500D02*
X106824500Y-121605500D01*
X106824500Y-121605500D02*
G75*
G03*
X106824500Y-119954500I0J825500D01*
G01*
D12*
X106523016Y-126165524D02*
X106142064Y-126165524D01*
X106332540Y-126165524D02*
X106332540Y-125498858D01*
X106332540Y-125498858D02*
X106269048Y-125594096D01*
X106269048Y-125594096D02*
X106205556Y-125657588D01*
X106205556Y-125657588D02*
X106142064Y-125689334D01*
X106935714Y-125498858D02*
X106999206Y-125498858D01*
X106999206Y-125498858D02*
X107062698Y-125530604D01*
X107062698Y-125530604D02*
X107094444Y-125562350D01*
X107094444Y-125562350D02*
X107126190Y-125625842D01*
X107126190Y-125625842D02*
X107157936Y-125752826D01*
X107157936Y-125752826D02*
X107157936Y-125911556D01*
X107157936Y-125911556D02*
X107126190Y-126038540D01*
X107126190Y-126038540D02*
X107094444Y-126102032D01*
X107094444Y-126102032D02*
X107062698Y-126133778D01*
X107062698Y-126133778D02*
X106999206Y-126165524D01*
X106999206Y-126165524D02*
X106935714Y-126165524D01*
X106935714Y-126165524D02*
X106872222Y-126133778D01*
X106872222Y-126133778D02*
X106840476Y-126102032D01*
X106840476Y-126102032D02*
X106808730Y-126038540D01*
X106808730Y-126038540D02*
X106776984Y-125911556D01*
X106776984Y-125911556D02*
X106776984Y-125752826D01*
X106776984Y-125752826D02*
X106808730Y-125625842D01*
X106808730Y-125625842D02*
X106840476Y-125562350D01*
X106840476Y-125562350D02*
X106872222Y-125530604D01*
X106872222Y-125530604D02*
X106935714Y-125498858D01*
D11*
X106824500Y-125034500D02*
X106475500Y-125034500D01*
X106475500Y-126685500D02*
G75*
G02*
X106475500Y-125034500I0J825500D01*
G01*
X106475500Y-126685500D02*
X106824500Y-126685500D01*
X106824500Y-126685500D02*
G75*
G03*
X106824500Y-125034500I0J825500D01*
G01*
D12*
X106523016Y-123625524D02*
X106650000Y-123625524D01*
X106650000Y-123625524D02*
X106713492Y-123593778D01*
X106713492Y-123593778D02*
X106745238Y-123562032D01*
X106745238Y-123562032D02*
X106808730Y-123466794D01*
X106808730Y-123466794D02*
X106840476Y-123339810D01*
X106840476Y-123339810D02*
X106840476Y-123085842D01*
X106840476Y-123085842D02*
X106808730Y-123022350D01*
X106808730Y-123022350D02*
X106776984Y-122990604D01*
X106776984Y-122990604D02*
X106713492Y-122958858D01*
X106713492Y-122958858D02*
X106586508Y-122958858D01*
X106586508Y-122958858D02*
X106523016Y-122990604D01*
X106523016Y-122990604D02*
X106491270Y-123022350D01*
X106491270Y-123022350D02*
X106459524Y-123085842D01*
X106459524Y-123085842D02*
X106459524Y-123244572D01*
X106459524Y-123244572D02*
X106491270Y-123308064D01*
X106491270Y-123308064D02*
X106523016Y-123339810D01*
X106523016Y-123339810D02*
X106586508Y-123371556D01*
X106586508Y-123371556D02*
X106713492Y-123371556D01*
X106713492Y-123371556D02*
X106776984Y-123339810D01*
X106776984Y-123339810D02*
X106808730Y-123308064D01*
X106808730Y-123308064D02*
X106840476Y-123244572D01*
D11*
X106824500Y-122494500D02*
X106475500Y-122494500D01*
X106475500Y-124145500D02*
G75*
G02*
X106475500Y-122494500I0J825500D01*
G01*
X106475500Y-124145500D02*
X106824500Y-124145500D01*
X106824500Y-124145500D02*
G75*
G03*
X106824500Y-122494500I0J825500D01*
G01*
%TD*%
D13*
X108014103Y-83387589D02*
X107745912Y-83387589D01*
X107880007Y-83387589D02*
X107880007Y-82918256D01*
X107880007Y-82918256D02*
X107835309Y-82985303D01*
X107835309Y-82985303D02*
X107790611Y-83030002D01*
X107790611Y-83030002D02*
X107745912Y-83052351D01*
X108416388Y-82918256D02*
X108326991Y-82918256D01*
X108326991Y-82918256D02*
X108282293Y-82940605D01*
X108282293Y-82940605D02*
X108259944Y-82962954D01*
X108259944Y-82962954D02*
X108215245Y-83030002D01*
X108215245Y-83030002D02*
X108192896Y-83119398D01*
X108192896Y-83119398D02*
X108192896Y-83298192D01*
X108192896Y-83298192D02*
X108215245Y-83342890D01*
X108215245Y-83342890D02*
X108237595Y-83365240D01*
X108237595Y-83365240D02*
X108282293Y-83387589D01*
X108282293Y-83387589D02*
X108371690Y-83387589D01*
X108371690Y-83387589D02*
X108416388Y-83365240D01*
X108416388Y-83365240D02*
X108438737Y-83342890D01*
X108438737Y-83342890D02*
X108461087Y-83298192D01*
X108461087Y-83298192D02*
X108461087Y-83186446D01*
X108461087Y-83186446D02*
X108438737Y-83141748D01*
X108438737Y-83141748D02*
X108416388Y-83119398D01*
X108416388Y-83119398D02*
X108371690Y-83097049D01*
X108371690Y-83097049D02*
X108282293Y-83097049D01*
X108282293Y-83097049D02*
X108237595Y-83119398D01*
X108237595Y-83119398D02*
X108215245Y-83141748D01*
X108215245Y-83141748D02*
X108192896Y-83186446D01*
D11*
%TO.C,U2*%
X108807500Y-83172500D02*
G75*
G02*
X107399500Y-83172500I-704000J0D01*
G01*
X107399500Y-83172500D02*
G75*
G02*
X108807500Y-83172500I704000J0D01*
G01*
D13*
X110554103Y-83387589D02*
X110285912Y-83387589D01*
X110420007Y-83387589D02*
X110420007Y-82918256D01*
X110420007Y-82918256D02*
X110375309Y-82985303D01*
X110375309Y-82985303D02*
X110330611Y-83030002D01*
X110330611Y-83030002D02*
X110285912Y-83052351D01*
X110978737Y-82918256D02*
X110755245Y-82918256D01*
X110755245Y-82918256D02*
X110732896Y-83141748D01*
X110732896Y-83141748D02*
X110755245Y-83119398D01*
X110755245Y-83119398D02*
X110799944Y-83097049D01*
X110799944Y-83097049D02*
X110911690Y-83097049D01*
X110911690Y-83097049D02*
X110956388Y-83119398D01*
X110956388Y-83119398D02*
X110978737Y-83141748D01*
X110978737Y-83141748D02*
X111001087Y-83186446D01*
X111001087Y-83186446D02*
X111001087Y-83298192D01*
X111001087Y-83298192D02*
X110978737Y-83342890D01*
X110978737Y-83342890D02*
X110956388Y-83365240D01*
X110956388Y-83365240D02*
X110911690Y-83387589D01*
X110911690Y-83387589D02*
X110799944Y-83387589D01*
X110799944Y-83387589D02*
X110755245Y-83365240D01*
X110755245Y-83365240D02*
X110732896Y-83342890D01*
D11*
X111347500Y-83172500D02*
G75*
G02*
X109939500Y-83172500I-704000J0D01*
G01*
X109939500Y-83172500D02*
G75*
G02*
X111347500Y-83172500I704000J0D01*
G01*
D13*
X113094103Y-83387589D02*
X112825912Y-83387589D01*
X112960007Y-83387589D02*
X112960007Y-82918256D01*
X112960007Y-82918256D02*
X112915309Y-82985303D01*
X112915309Y-82985303D02*
X112870611Y-83030002D01*
X112870611Y-83030002D02*
X112825912Y-83052351D01*
X113496388Y-83074700D02*
X113496388Y-83387589D01*
X113384642Y-82895907D02*
X113272896Y-83231144D01*
X113272896Y-83231144D02*
X113563436Y-83231144D01*
D11*
X113887500Y-83172500D02*
G75*
G02*
X112479500Y-83172500I-704000J0D01*
G01*
X112479500Y-83172500D02*
G75*
G02*
X113887500Y-83172500I704000J0D01*
G01*
D13*
X115634103Y-83387589D02*
X115365912Y-83387589D01*
X115500007Y-83387589D02*
X115500007Y-82918256D01*
X115500007Y-82918256D02*
X115455309Y-82985303D01*
X115455309Y-82985303D02*
X115410611Y-83030002D01*
X115410611Y-83030002D02*
X115365912Y-83052351D01*
X115790547Y-82918256D02*
X116081087Y-82918256D01*
X116081087Y-82918256D02*
X115924642Y-83097049D01*
X115924642Y-83097049D02*
X115991690Y-83097049D01*
X115991690Y-83097049D02*
X116036388Y-83119398D01*
X116036388Y-83119398D02*
X116058737Y-83141748D01*
X116058737Y-83141748D02*
X116081087Y-83186446D01*
X116081087Y-83186446D02*
X116081087Y-83298192D01*
X116081087Y-83298192D02*
X116058737Y-83342890D01*
X116058737Y-83342890D02*
X116036388Y-83365240D01*
X116036388Y-83365240D02*
X115991690Y-83387589D01*
X115991690Y-83387589D02*
X115857595Y-83387589D01*
X115857595Y-83387589D02*
X115812896Y-83365240D01*
X115812896Y-83365240D02*
X115790547Y-83342890D01*
D11*
X116427500Y-83172500D02*
G75*
G02*
X115019500Y-83172500I-704000J0D01*
G01*
X115019500Y-83172500D02*
G75*
G02*
X116427500Y-83172500I704000J0D01*
G01*
D13*
X118174103Y-83387589D02*
X117905912Y-83387589D01*
X118040007Y-83387589D02*
X118040007Y-82918256D01*
X118040007Y-82918256D02*
X117995309Y-82985303D01*
X117995309Y-82985303D02*
X117950611Y-83030002D01*
X117950611Y-83030002D02*
X117905912Y-83052351D01*
X118352896Y-82962954D02*
X118375245Y-82940605D01*
X118375245Y-82940605D02*
X118419944Y-82918256D01*
X118419944Y-82918256D02*
X118531690Y-82918256D01*
X118531690Y-82918256D02*
X118576388Y-82940605D01*
X118576388Y-82940605D02*
X118598737Y-82962954D01*
X118598737Y-82962954D02*
X118621087Y-83007652D01*
X118621087Y-83007652D02*
X118621087Y-83052351D01*
X118621087Y-83052351D02*
X118598737Y-83119398D01*
X118598737Y-83119398D02*
X118330547Y-83387589D01*
X118330547Y-83387589D02*
X118621087Y-83387589D01*
D11*
X118967500Y-83172500D02*
G75*
G02*
X117559500Y-83172500I-704000J0D01*
G01*
X117559500Y-83172500D02*
G75*
G02*
X118967500Y-83172500I704000J0D01*
G01*
D13*
X120714103Y-83387589D02*
X120445912Y-83387589D01*
X120580007Y-83387589D02*
X120580007Y-82918256D01*
X120580007Y-82918256D02*
X120535309Y-82985303D01*
X120535309Y-82985303D02*
X120490611Y-83030002D01*
X120490611Y-83030002D02*
X120445912Y-83052351D01*
X121161087Y-83387589D02*
X120892896Y-83387589D01*
X121026991Y-83387589D02*
X121026991Y-82918256D01*
X121026991Y-82918256D02*
X120982293Y-82985303D01*
X120982293Y-82985303D02*
X120937595Y-83030002D01*
X120937595Y-83030002D02*
X120892896Y-83052351D01*
D11*
X121507500Y-83172500D02*
G75*
G02*
X120099500Y-83172500I-704000J0D01*
G01*
X120099500Y-83172500D02*
G75*
G02*
X121507500Y-83172500I704000J0D01*
G01*
D13*
X123254103Y-83387589D02*
X122985912Y-83387589D01*
X123120007Y-83387589D02*
X123120007Y-82918256D01*
X123120007Y-82918256D02*
X123075309Y-82985303D01*
X123075309Y-82985303D02*
X123030611Y-83030002D01*
X123030611Y-83030002D02*
X122985912Y-83052351D01*
X123544642Y-82918256D02*
X123589341Y-82918256D01*
X123589341Y-82918256D02*
X123634039Y-82940605D01*
X123634039Y-82940605D02*
X123656388Y-82962954D01*
X123656388Y-82962954D02*
X123678737Y-83007652D01*
X123678737Y-83007652D02*
X123701087Y-83097049D01*
X123701087Y-83097049D02*
X123701087Y-83208795D01*
X123701087Y-83208795D02*
X123678737Y-83298192D01*
X123678737Y-83298192D02*
X123656388Y-83342890D01*
X123656388Y-83342890D02*
X123634039Y-83365240D01*
X123634039Y-83365240D02*
X123589341Y-83387589D01*
X123589341Y-83387589D02*
X123544642Y-83387589D01*
X123544642Y-83387589D02*
X123499944Y-83365240D01*
X123499944Y-83365240D02*
X123477595Y-83342890D01*
X123477595Y-83342890D02*
X123455245Y-83298192D01*
X123455245Y-83298192D02*
X123432896Y-83208795D01*
X123432896Y-83208795D02*
X123432896Y-83097049D01*
X123432896Y-83097049D02*
X123455245Y-83007652D01*
X123455245Y-83007652D02*
X123477595Y-82962954D01*
X123477595Y-82962954D02*
X123499944Y-82940605D01*
X123499944Y-82940605D02*
X123544642Y-82918256D01*
D11*
X124047500Y-83172500D02*
G75*
G02*
X122639500Y-83172500I-704000J0D01*
G01*
X122639500Y-83172500D02*
G75*
G02*
X124047500Y-83172500I704000J0D01*
G01*
D13*
X125794103Y-83387589D02*
X125883499Y-83387589D01*
X125883499Y-83387589D02*
X125928198Y-83365240D01*
X125928198Y-83365240D02*
X125950547Y-83342890D01*
X125950547Y-83342890D02*
X125995245Y-83275843D01*
X125995245Y-83275843D02*
X126017595Y-83186446D01*
X126017595Y-83186446D02*
X126017595Y-83007652D01*
X126017595Y-83007652D02*
X125995245Y-82962954D01*
X125995245Y-82962954D02*
X125972896Y-82940605D01*
X125972896Y-82940605D02*
X125928198Y-82918256D01*
X125928198Y-82918256D02*
X125838801Y-82918256D01*
X125838801Y-82918256D02*
X125794103Y-82940605D01*
X125794103Y-82940605D02*
X125771753Y-82962954D01*
X125771753Y-82962954D02*
X125749404Y-83007652D01*
X125749404Y-83007652D02*
X125749404Y-83119398D01*
X125749404Y-83119398D02*
X125771753Y-83164097D01*
X125771753Y-83164097D02*
X125794103Y-83186446D01*
X125794103Y-83186446D02*
X125838801Y-83208795D01*
X125838801Y-83208795D02*
X125928198Y-83208795D01*
X125928198Y-83208795D02*
X125972896Y-83186446D01*
X125972896Y-83186446D02*
X125995245Y-83164097D01*
X125995245Y-83164097D02*
X126017595Y-83119398D01*
D11*
X126587500Y-83172500D02*
G75*
G02*
X125179500Y-83172500I-704000J0D01*
G01*
X125179500Y-83172500D02*
G75*
G02*
X126587500Y-83172500I704000J0D01*
G01*
D13*
X128378801Y-83119398D02*
X128334103Y-83097049D01*
X128334103Y-83097049D02*
X128311753Y-83074700D01*
X128311753Y-83074700D02*
X128289404Y-83030002D01*
X128289404Y-83030002D02*
X128289404Y-83007652D01*
X128289404Y-83007652D02*
X128311753Y-82962954D01*
X128311753Y-82962954D02*
X128334103Y-82940605D01*
X128334103Y-82940605D02*
X128378801Y-82918256D01*
X128378801Y-82918256D02*
X128468198Y-82918256D01*
X128468198Y-82918256D02*
X128512896Y-82940605D01*
X128512896Y-82940605D02*
X128535245Y-82962954D01*
X128535245Y-82962954D02*
X128557595Y-83007652D01*
X128557595Y-83007652D02*
X128557595Y-83030002D01*
X128557595Y-83030002D02*
X128535245Y-83074700D01*
X128535245Y-83074700D02*
X128512896Y-83097049D01*
X128512896Y-83097049D02*
X128468198Y-83119398D01*
X128468198Y-83119398D02*
X128378801Y-83119398D01*
X128378801Y-83119398D02*
X128334103Y-83141748D01*
X128334103Y-83141748D02*
X128311753Y-83164097D01*
X128311753Y-83164097D02*
X128289404Y-83208795D01*
X128289404Y-83208795D02*
X128289404Y-83298192D01*
X128289404Y-83298192D02*
X128311753Y-83342890D01*
X128311753Y-83342890D02*
X128334103Y-83365240D01*
X128334103Y-83365240D02*
X128378801Y-83387589D01*
X128378801Y-83387589D02*
X128468198Y-83387589D01*
X128468198Y-83387589D02*
X128512896Y-83365240D01*
X128512896Y-83365240D02*
X128535245Y-83342890D01*
X128535245Y-83342890D02*
X128557595Y-83298192D01*
X128557595Y-83298192D02*
X128557595Y-83208795D01*
X128557595Y-83208795D02*
X128535245Y-83164097D01*
X128535245Y-83164097D02*
X128512896Y-83141748D01*
X128512896Y-83141748D02*
X128468198Y-83119398D01*
D11*
X129127500Y-83172500D02*
G75*
G02*
X127719500Y-83172500I-704000J0D01*
G01*
X127719500Y-83172500D02*
G75*
G02*
X129127500Y-83172500I704000J0D01*
G01*
D13*
X130807055Y-82918256D02*
X131119944Y-82918256D01*
X131119944Y-82918256D02*
X130918801Y-83387589D01*
D11*
X131667500Y-83172500D02*
G75*
G02*
X130259500Y-83172500I-704000J0D01*
G01*
X130259500Y-83172500D02*
G75*
G02*
X131667500Y-83172500I704000J0D01*
G01*
D13*
X133592896Y-82918256D02*
X133503499Y-82918256D01*
X133503499Y-82918256D02*
X133458801Y-82940605D01*
X133458801Y-82940605D02*
X133436452Y-82962954D01*
X133436452Y-82962954D02*
X133391753Y-83030002D01*
X133391753Y-83030002D02*
X133369404Y-83119398D01*
X133369404Y-83119398D02*
X133369404Y-83298192D01*
X133369404Y-83298192D02*
X133391753Y-83342890D01*
X133391753Y-83342890D02*
X133414103Y-83365240D01*
X133414103Y-83365240D02*
X133458801Y-83387589D01*
X133458801Y-83387589D02*
X133548198Y-83387589D01*
X133548198Y-83387589D02*
X133592896Y-83365240D01*
X133592896Y-83365240D02*
X133615245Y-83342890D01*
X133615245Y-83342890D02*
X133637595Y-83298192D01*
X133637595Y-83298192D02*
X133637595Y-83186446D01*
X133637595Y-83186446D02*
X133615245Y-83141748D01*
X133615245Y-83141748D02*
X133592896Y-83119398D01*
X133592896Y-83119398D02*
X133548198Y-83097049D01*
X133548198Y-83097049D02*
X133458801Y-83097049D01*
X133458801Y-83097049D02*
X133414103Y-83119398D01*
X133414103Y-83119398D02*
X133391753Y-83141748D01*
X133391753Y-83141748D02*
X133369404Y-83186446D01*
D11*
X134207500Y-83172500D02*
G75*
G02*
X132799500Y-83172500I-704000J0D01*
G01*
X132799500Y-83172500D02*
G75*
G02*
X134207500Y-83172500I704000J0D01*
G01*
D13*
X136155245Y-82918256D02*
X135931753Y-82918256D01*
X135931753Y-82918256D02*
X135909404Y-83141748D01*
X135909404Y-83141748D02*
X135931753Y-83119398D01*
X135931753Y-83119398D02*
X135976452Y-83097049D01*
X135976452Y-83097049D02*
X136088198Y-83097049D01*
X136088198Y-83097049D02*
X136132896Y-83119398D01*
X136132896Y-83119398D02*
X136155245Y-83141748D01*
X136155245Y-83141748D02*
X136177595Y-83186446D01*
X136177595Y-83186446D02*
X136177595Y-83298192D01*
X136177595Y-83298192D02*
X136155245Y-83342890D01*
X136155245Y-83342890D02*
X136132896Y-83365240D01*
X136132896Y-83365240D02*
X136088198Y-83387589D01*
X136088198Y-83387589D02*
X135976452Y-83387589D01*
X135976452Y-83387589D02*
X135931753Y-83365240D01*
X135931753Y-83365240D02*
X135909404Y-83342890D01*
D11*
X136747500Y-83172500D02*
G75*
G02*
X135339500Y-83172500I-704000J0D01*
G01*
X135339500Y-83172500D02*
G75*
G02*
X136747500Y-83172500I704000J0D01*
G01*
D13*
X138672896Y-83074700D02*
X138672896Y-83387589D01*
X138561150Y-82895907D02*
X138449404Y-83231144D01*
X138449404Y-83231144D02*
X138739944Y-83231144D01*
D11*
X139287500Y-83172500D02*
G75*
G02*
X137879500Y-83172500I-704000J0D01*
G01*
X137879500Y-83172500D02*
G75*
G02*
X139287500Y-83172500I704000J0D01*
G01*
D13*
X140967055Y-82918256D02*
X141257595Y-82918256D01*
X141257595Y-82918256D02*
X141101150Y-83097049D01*
X141101150Y-83097049D02*
X141168198Y-83097049D01*
X141168198Y-83097049D02*
X141212896Y-83119398D01*
X141212896Y-83119398D02*
X141235245Y-83141748D01*
X141235245Y-83141748D02*
X141257595Y-83186446D01*
X141257595Y-83186446D02*
X141257595Y-83298192D01*
X141257595Y-83298192D02*
X141235245Y-83342890D01*
X141235245Y-83342890D02*
X141212896Y-83365240D01*
X141212896Y-83365240D02*
X141168198Y-83387589D01*
X141168198Y-83387589D02*
X141034103Y-83387589D01*
X141034103Y-83387589D02*
X140989404Y-83365240D01*
X140989404Y-83365240D02*
X140967055Y-83342890D01*
D11*
X141827500Y-83172500D02*
G75*
G02*
X140419500Y-83172500I-704000J0D01*
G01*
X140419500Y-83172500D02*
G75*
G02*
X141827500Y-83172500I704000J0D01*
G01*
D13*
X143529404Y-82962954D02*
X143551753Y-82940605D01*
X143551753Y-82940605D02*
X143596452Y-82918256D01*
X143596452Y-82918256D02*
X143708198Y-82918256D01*
X143708198Y-82918256D02*
X143752896Y-82940605D01*
X143752896Y-82940605D02*
X143775245Y-82962954D01*
X143775245Y-82962954D02*
X143797595Y-83007652D01*
X143797595Y-83007652D02*
X143797595Y-83052351D01*
X143797595Y-83052351D02*
X143775245Y-83119398D01*
X143775245Y-83119398D02*
X143507055Y-83387589D01*
X143507055Y-83387589D02*
X143797595Y-83387589D01*
D11*
X144367500Y-83172500D02*
G75*
G02*
X142959500Y-83172500I-704000J0D01*
G01*
X142959500Y-83172500D02*
G75*
G02*
X144367500Y-83172500I704000J0D01*
G01*
D13*
X146337595Y-83387589D02*
X146069404Y-83387589D01*
X146203499Y-83387589D02*
X146203499Y-82918256D01*
X146203499Y-82918256D02*
X146158801Y-82985303D01*
X146158801Y-82985303D02*
X146114103Y-83030002D01*
X146114103Y-83030002D02*
X146069404Y-83052351D01*
D11*
X145499500Y-82468500D02*
X145499500Y-83876500D01*
X146907500Y-83876500D01*
X146907500Y-82468500D01*
X145499500Y-82468500D01*
D13*
X118174103Y-63067589D02*
X117905912Y-63067589D01*
X118040007Y-63067589D02*
X118040007Y-62598256D01*
X118040007Y-62598256D02*
X117995309Y-62665303D01*
X117995309Y-62665303D02*
X117950611Y-62710002D01*
X117950611Y-62710002D02*
X117905912Y-62732351D01*
X118330547Y-62598256D02*
X118643436Y-62598256D01*
X118643436Y-62598256D02*
X118442293Y-63067589D01*
D11*
X118967500Y-62852500D02*
G75*
G02*
X117559500Y-62852500I-704000J0D01*
G01*
X117559500Y-62852500D02*
G75*
G02*
X118967500Y-62852500I704000J0D01*
G01*
D13*
X120714103Y-63067589D02*
X120445912Y-63067589D01*
X120580007Y-63067589D02*
X120580007Y-62598256D01*
X120580007Y-62598256D02*
X120535309Y-62665303D01*
X120535309Y-62665303D02*
X120490611Y-62710002D01*
X120490611Y-62710002D02*
X120445912Y-62732351D01*
X120982293Y-62799398D02*
X120937595Y-62777049D01*
X120937595Y-62777049D02*
X120915245Y-62754700D01*
X120915245Y-62754700D02*
X120892896Y-62710002D01*
X120892896Y-62710002D02*
X120892896Y-62687652D01*
X120892896Y-62687652D02*
X120915245Y-62642954D01*
X120915245Y-62642954D02*
X120937595Y-62620605D01*
X120937595Y-62620605D02*
X120982293Y-62598256D01*
X120982293Y-62598256D02*
X121071690Y-62598256D01*
X121071690Y-62598256D02*
X121116388Y-62620605D01*
X121116388Y-62620605D02*
X121138737Y-62642954D01*
X121138737Y-62642954D02*
X121161087Y-62687652D01*
X121161087Y-62687652D02*
X121161087Y-62710002D01*
X121161087Y-62710002D02*
X121138737Y-62754700D01*
X121138737Y-62754700D02*
X121116388Y-62777049D01*
X121116388Y-62777049D02*
X121071690Y-62799398D01*
X121071690Y-62799398D02*
X120982293Y-62799398D01*
X120982293Y-62799398D02*
X120937595Y-62821748D01*
X120937595Y-62821748D02*
X120915245Y-62844097D01*
X120915245Y-62844097D02*
X120892896Y-62888795D01*
X120892896Y-62888795D02*
X120892896Y-62978192D01*
X120892896Y-62978192D02*
X120915245Y-63022890D01*
X120915245Y-63022890D02*
X120937595Y-63045240D01*
X120937595Y-63045240D02*
X120982293Y-63067589D01*
X120982293Y-63067589D02*
X121071690Y-63067589D01*
X121071690Y-63067589D02*
X121116388Y-63045240D01*
X121116388Y-63045240D02*
X121138737Y-63022890D01*
X121138737Y-63022890D02*
X121161087Y-62978192D01*
X121161087Y-62978192D02*
X121161087Y-62888795D01*
X121161087Y-62888795D02*
X121138737Y-62844097D01*
X121138737Y-62844097D02*
X121116388Y-62821748D01*
X121116388Y-62821748D02*
X121071690Y-62799398D01*
D11*
X121507500Y-62852500D02*
G75*
G02*
X120099500Y-62852500I-704000J0D01*
G01*
X120099500Y-62852500D02*
G75*
G02*
X121507500Y-62852500I704000J0D01*
G01*
D13*
X123254103Y-63067589D02*
X122985912Y-63067589D01*
X123120007Y-63067589D02*
X123120007Y-62598256D01*
X123120007Y-62598256D02*
X123075309Y-62665303D01*
X123075309Y-62665303D02*
X123030611Y-62710002D01*
X123030611Y-62710002D02*
X122985912Y-62732351D01*
X123477595Y-63067589D02*
X123566991Y-63067589D01*
X123566991Y-63067589D02*
X123611690Y-63045240D01*
X123611690Y-63045240D02*
X123634039Y-63022890D01*
X123634039Y-63022890D02*
X123678737Y-62955843D01*
X123678737Y-62955843D02*
X123701087Y-62866446D01*
X123701087Y-62866446D02*
X123701087Y-62687652D01*
X123701087Y-62687652D02*
X123678737Y-62642954D01*
X123678737Y-62642954D02*
X123656388Y-62620605D01*
X123656388Y-62620605D02*
X123611690Y-62598256D01*
X123611690Y-62598256D02*
X123522293Y-62598256D01*
X123522293Y-62598256D02*
X123477595Y-62620605D01*
X123477595Y-62620605D02*
X123455245Y-62642954D01*
X123455245Y-62642954D02*
X123432896Y-62687652D01*
X123432896Y-62687652D02*
X123432896Y-62799398D01*
X123432896Y-62799398D02*
X123455245Y-62844097D01*
X123455245Y-62844097D02*
X123477595Y-62866446D01*
X123477595Y-62866446D02*
X123522293Y-62888795D01*
X123522293Y-62888795D02*
X123611690Y-62888795D01*
X123611690Y-62888795D02*
X123656388Y-62866446D01*
X123656388Y-62866446D02*
X123678737Y-62844097D01*
X123678737Y-62844097D02*
X123701087Y-62799398D01*
D11*
X124047500Y-62852500D02*
G75*
G02*
X122639500Y-62852500I-704000J0D01*
G01*
X122639500Y-62852500D02*
G75*
G02*
X124047500Y-62852500I704000J0D01*
G01*
D13*
X125525912Y-62642954D02*
X125548261Y-62620605D01*
X125548261Y-62620605D02*
X125592960Y-62598256D01*
X125592960Y-62598256D02*
X125704706Y-62598256D01*
X125704706Y-62598256D02*
X125749404Y-62620605D01*
X125749404Y-62620605D02*
X125771753Y-62642954D01*
X125771753Y-62642954D02*
X125794103Y-62687652D01*
X125794103Y-62687652D02*
X125794103Y-62732351D01*
X125794103Y-62732351D02*
X125771753Y-62799398D01*
X125771753Y-62799398D02*
X125503563Y-63067589D01*
X125503563Y-63067589D02*
X125794103Y-63067589D01*
X126084642Y-62598256D02*
X126129341Y-62598256D01*
X126129341Y-62598256D02*
X126174039Y-62620605D01*
X126174039Y-62620605D02*
X126196388Y-62642954D01*
X126196388Y-62642954D02*
X126218737Y-62687652D01*
X126218737Y-62687652D02*
X126241087Y-62777049D01*
X126241087Y-62777049D02*
X126241087Y-62888795D01*
X126241087Y-62888795D02*
X126218737Y-62978192D01*
X126218737Y-62978192D02*
X126196388Y-63022890D01*
X126196388Y-63022890D02*
X126174039Y-63045240D01*
X126174039Y-63045240D02*
X126129341Y-63067589D01*
X126129341Y-63067589D02*
X126084642Y-63067589D01*
X126084642Y-63067589D02*
X126039944Y-63045240D01*
X126039944Y-63045240D02*
X126017595Y-63022890D01*
X126017595Y-63022890D02*
X125995245Y-62978192D01*
X125995245Y-62978192D02*
X125972896Y-62888795D01*
X125972896Y-62888795D02*
X125972896Y-62777049D01*
X125972896Y-62777049D02*
X125995245Y-62687652D01*
X125995245Y-62687652D02*
X126017595Y-62642954D01*
X126017595Y-62642954D02*
X126039944Y-62620605D01*
X126039944Y-62620605D02*
X126084642Y-62598256D01*
D11*
X126587500Y-62852500D02*
G75*
G02*
X125179500Y-62852500I-704000J0D01*
G01*
X125179500Y-62852500D02*
G75*
G02*
X126587500Y-62852500I704000J0D01*
G01*
D13*
X128065912Y-62642954D02*
X128088261Y-62620605D01*
X128088261Y-62620605D02*
X128132960Y-62598256D01*
X128132960Y-62598256D02*
X128244706Y-62598256D01*
X128244706Y-62598256D02*
X128289404Y-62620605D01*
X128289404Y-62620605D02*
X128311753Y-62642954D01*
X128311753Y-62642954D02*
X128334103Y-62687652D01*
X128334103Y-62687652D02*
X128334103Y-62732351D01*
X128334103Y-62732351D02*
X128311753Y-62799398D01*
X128311753Y-62799398D02*
X128043563Y-63067589D01*
X128043563Y-63067589D02*
X128334103Y-63067589D01*
X128781087Y-63067589D02*
X128512896Y-63067589D01*
X128646991Y-63067589D02*
X128646991Y-62598256D01*
X128646991Y-62598256D02*
X128602293Y-62665303D01*
X128602293Y-62665303D02*
X128557595Y-62710002D01*
X128557595Y-62710002D02*
X128512896Y-62732351D01*
D11*
X129127500Y-62852500D02*
G75*
G02*
X127719500Y-62852500I-704000J0D01*
G01*
X127719500Y-62852500D02*
G75*
G02*
X129127500Y-62852500I704000J0D01*
G01*
D13*
X130605912Y-62642954D02*
X130628261Y-62620605D01*
X130628261Y-62620605D02*
X130672960Y-62598256D01*
X130672960Y-62598256D02*
X130784706Y-62598256D01*
X130784706Y-62598256D02*
X130829404Y-62620605D01*
X130829404Y-62620605D02*
X130851753Y-62642954D01*
X130851753Y-62642954D02*
X130874103Y-62687652D01*
X130874103Y-62687652D02*
X130874103Y-62732351D01*
X130874103Y-62732351D02*
X130851753Y-62799398D01*
X130851753Y-62799398D02*
X130583563Y-63067589D01*
X130583563Y-63067589D02*
X130874103Y-63067589D01*
X131052896Y-62642954D02*
X131075245Y-62620605D01*
X131075245Y-62620605D02*
X131119944Y-62598256D01*
X131119944Y-62598256D02*
X131231690Y-62598256D01*
X131231690Y-62598256D02*
X131276388Y-62620605D01*
X131276388Y-62620605D02*
X131298737Y-62642954D01*
X131298737Y-62642954D02*
X131321087Y-62687652D01*
X131321087Y-62687652D02*
X131321087Y-62732351D01*
X131321087Y-62732351D02*
X131298737Y-62799398D01*
X131298737Y-62799398D02*
X131030547Y-63067589D01*
X131030547Y-63067589D02*
X131321087Y-63067589D01*
D11*
X131667500Y-62852500D02*
G75*
G02*
X130259500Y-62852500I-704000J0D01*
G01*
X130259500Y-62852500D02*
G75*
G02*
X131667500Y-62852500I704000J0D01*
G01*
D13*
X133145912Y-62642954D02*
X133168261Y-62620605D01*
X133168261Y-62620605D02*
X133212960Y-62598256D01*
X133212960Y-62598256D02*
X133324706Y-62598256D01*
X133324706Y-62598256D02*
X133369404Y-62620605D01*
X133369404Y-62620605D02*
X133391753Y-62642954D01*
X133391753Y-62642954D02*
X133414103Y-62687652D01*
X133414103Y-62687652D02*
X133414103Y-62732351D01*
X133414103Y-62732351D02*
X133391753Y-62799398D01*
X133391753Y-62799398D02*
X133123563Y-63067589D01*
X133123563Y-63067589D02*
X133414103Y-63067589D01*
X133570547Y-62598256D02*
X133861087Y-62598256D01*
X133861087Y-62598256D02*
X133704642Y-62777049D01*
X133704642Y-62777049D02*
X133771690Y-62777049D01*
X133771690Y-62777049D02*
X133816388Y-62799398D01*
X133816388Y-62799398D02*
X133838737Y-62821748D01*
X133838737Y-62821748D02*
X133861087Y-62866446D01*
X133861087Y-62866446D02*
X133861087Y-62978192D01*
X133861087Y-62978192D02*
X133838737Y-63022890D01*
X133838737Y-63022890D02*
X133816388Y-63045240D01*
X133816388Y-63045240D02*
X133771690Y-63067589D01*
X133771690Y-63067589D02*
X133637595Y-63067589D01*
X133637595Y-63067589D02*
X133592896Y-63045240D01*
X133592896Y-63045240D02*
X133570547Y-63022890D01*
D11*
X134207500Y-62852500D02*
G75*
G02*
X132799500Y-62852500I-704000J0D01*
G01*
X132799500Y-62852500D02*
G75*
G02*
X134207500Y-62852500I704000J0D01*
G01*
D13*
X135685912Y-62642954D02*
X135708261Y-62620605D01*
X135708261Y-62620605D02*
X135752960Y-62598256D01*
X135752960Y-62598256D02*
X135864706Y-62598256D01*
X135864706Y-62598256D02*
X135909404Y-62620605D01*
X135909404Y-62620605D02*
X135931753Y-62642954D01*
X135931753Y-62642954D02*
X135954103Y-62687652D01*
X135954103Y-62687652D02*
X135954103Y-62732351D01*
X135954103Y-62732351D02*
X135931753Y-62799398D01*
X135931753Y-62799398D02*
X135663563Y-63067589D01*
X135663563Y-63067589D02*
X135954103Y-63067589D01*
X136356388Y-62754700D02*
X136356388Y-63067589D01*
X136244642Y-62575907D02*
X136132896Y-62911144D01*
X136132896Y-62911144D02*
X136423436Y-62911144D01*
D11*
X136747500Y-62852500D02*
G75*
G02*
X135339500Y-62852500I-704000J0D01*
G01*
X135339500Y-62852500D02*
G75*
G02*
X136747500Y-62852500I704000J0D01*
G01*
D13*
X138225912Y-62642954D02*
X138248261Y-62620605D01*
X138248261Y-62620605D02*
X138292960Y-62598256D01*
X138292960Y-62598256D02*
X138404706Y-62598256D01*
X138404706Y-62598256D02*
X138449404Y-62620605D01*
X138449404Y-62620605D02*
X138471753Y-62642954D01*
X138471753Y-62642954D02*
X138494103Y-62687652D01*
X138494103Y-62687652D02*
X138494103Y-62732351D01*
X138494103Y-62732351D02*
X138471753Y-62799398D01*
X138471753Y-62799398D02*
X138203563Y-63067589D01*
X138203563Y-63067589D02*
X138494103Y-63067589D01*
X138918737Y-62598256D02*
X138695245Y-62598256D01*
X138695245Y-62598256D02*
X138672896Y-62821748D01*
X138672896Y-62821748D02*
X138695245Y-62799398D01*
X138695245Y-62799398D02*
X138739944Y-62777049D01*
X138739944Y-62777049D02*
X138851690Y-62777049D01*
X138851690Y-62777049D02*
X138896388Y-62799398D01*
X138896388Y-62799398D02*
X138918737Y-62821748D01*
X138918737Y-62821748D02*
X138941087Y-62866446D01*
X138941087Y-62866446D02*
X138941087Y-62978192D01*
X138941087Y-62978192D02*
X138918737Y-63022890D01*
X138918737Y-63022890D02*
X138896388Y-63045240D01*
X138896388Y-63045240D02*
X138851690Y-63067589D01*
X138851690Y-63067589D02*
X138739944Y-63067589D01*
X138739944Y-63067589D02*
X138695245Y-63045240D01*
X138695245Y-63045240D02*
X138672896Y-63022890D01*
D11*
X139287500Y-62852500D02*
G75*
G02*
X137879500Y-62852500I-704000J0D01*
G01*
X137879500Y-62852500D02*
G75*
G02*
X139287500Y-62852500I704000J0D01*
G01*
D13*
X140765912Y-62642954D02*
X140788261Y-62620605D01*
X140788261Y-62620605D02*
X140832960Y-62598256D01*
X140832960Y-62598256D02*
X140944706Y-62598256D01*
X140944706Y-62598256D02*
X140989404Y-62620605D01*
X140989404Y-62620605D02*
X141011753Y-62642954D01*
X141011753Y-62642954D02*
X141034103Y-62687652D01*
X141034103Y-62687652D02*
X141034103Y-62732351D01*
X141034103Y-62732351D02*
X141011753Y-62799398D01*
X141011753Y-62799398D02*
X140743563Y-63067589D01*
X140743563Y-63067589D02*
X141034103Y-63067589D01*
X141436388Y-62598256D02*
X141346991Y-62598256D01*
X141346991Y-62598256D02*
X141302293Y-62620605D01*
X141302293Y-62620605D02*
X141279944Y-62642954D01*
X141279944Y-62642954D02*
X141235245Y-62710002D01*
X141235245Y-62710002D02*
X141212896Y-62799398D01*
X141212896Y-62799398D02*
X141212896Y-62978192D01*
X141212896Y-62978192D02*
X141235245Y-63022890D01*
X141235245Y-63022890D02*
X141257595Y-63045240D01*
X141257595Y-63045240D02*
X141302293Y-63067589D01*
X141302293Y-63067589D02*
X141391690Y-63067589D01*
X141391690Y-63067589D02*
X141436388Y-63045240D01*
X141436388Y-63045240D02*
X141458737Y-63022890D01*
X141458737Y-63022890D02*
X141481087Y-62978192D01*
X141481087Y-62978192D02*
X141481087Y-62866446D01*
X141481087Y-62866446D02*
X141458737Y-62821748D01*
X141458737Y-62821748D02*
X141436388Y-62799398D01*
X141436388Y-62799398D02*
X141391690Y-62777049D01*
X141391690Y-62777049D02*
X141302293Y-62777049D01*
X141302293Y-62777049D02*
X141257595Y-62799398D01*
X141257595Y-62799398D02*
X141235245Y-62821748D01*
X141235245Y-62821748D02*
X141212896Y-62866446D01*
D11*
X141827500Y-62852500D02*
G75*
G02*
X140419500Y-62852500I-704000J0D01*
G01*
X140419500Y-62852500D02*
G75*
G02*
X141827500Y-62852500I704000J0D01*
G01*
D13*
X143305912Y-62642954D02*
X143328261Y-62620605D01*
X143328261Y-62620605D02*
X143372960Y-62598256D01*
X143372960Y-62598256D02*
X143484706Y-62598256D01*
X143484706Y-62598256D02*
X143529404Y-62620605D01*
X143529404Y-62620605D02*
X143551753Y-62642954D01*
X143551753Y-62642954D02*
X143574103Y-62687652D01*
X143574103Y-62687652D02*
X143574103Y-62732351D01*
X143574103Y-62732351D02*
X143551753Y-62799398D01*
X143551753Y-62799398D02*
X143283563Y-63067589D01*
X143283563Y-63067589D02*
X143574103Y-63067589D01*
X143730547Y-62598256D02*
X144043436Y-62598256D01*
X144043436Y-62598256D02*
X143842293Y-63067589D01*
D11*
X144367500Y-62852500D02*
G75*
G02*
X142959500Y-62852500I-704000J0D01*
G01*
X142959500Y-62852500D02*
G75*
G02*
X144367500Y-62852500I704000J0D01*
G01*
D13*
X145845912Y-62642954D02*
X145868261Y-62620605D01*
X145868261Y-62620605D02*
X145912960Y-62598256D01*
X145912960Y-62598256D02*
X146024706Y-62598256D01*
X146024706Y-62598256D02*
X146069404Y-62620605D01*
X146069404Y-62620605D02*
X146091753Y-62642954D01*
X146091753Y-62642954D02*
X146114103Y-62687652D01*
X146114103Y-62687652D02*
X146114103Y-62732351D01*
X146114103Y-62732351D02*
X146091753Y-62799398D01*
X146091753Y-62799398D02*
X145823563Y-63067589D01*
X145823563Y-63067589D02*
X146114103Y-63067589D01*
X146382293Y-62799398D02*
X146337595Y-62777049D01*
X146337595Y-62777049D02*
X146315245Y-62754700D01*
X146315245Y-62754700D02*
X146292896Y-62710002D01*
X146292896Y-62710002D02*
X146292896Y-62687652D01*
X146292896Y-62687652D02*
X146315245Y-62642954D01*
X146315245Y-62642954D02*
X146337595Y-62620605D01*
X146337595Y-62620605D02*
X146382293Y-62598256D01*
X146382293Y-62598256D02*
X146471690Y-62598256D01*
X146471690Y-62598256D02*
X146516388Y-62620605D01*
X146516388Y-62620605D02*
X146538737Y-62642954D01*
X146538737Y-62642954D02*
X146561087Y-62687652D01*
X146561087Y-62687652D02*
X146561087Y-62710002D01*
X146561087Y-62710002D02*
X146538737Y-62754700D01*
X146538737Y-62754700D02*
X146516388Y-62777049D01*
X146516388Y-62777049D02*
X146471690Y-62799398D01*
X146471690Y-62799398D02*
X146382293Y-62799398D01*
X146382293Y-62799398D02*
X146337595Y-62821748D01*
X146337595Y-62821748D02*
X146315245Y-62844097D01*
X146315245Y-62844097D02*
X146292896Y-62888795D01*
X146292896Y-62888795D02*
X146292896Y-62978192D01*
X146292896Y-62978192D02*
X146315245Y-63022890D01*
X146315245Y-63022890D02*
X146337595Y-63045240D01*
X146337595Y-63045240D02*
X146382293Y-63067589D01*
X146382293Y-63067589D02*
X146471690Y-63067589D01*
X146471690Y-63067589D02*
X146516388Y-63045240D01*
X146516388Y-63045240D02*
X146538737Y-63022890D01*
X146538737Y-63022890D02*
X146561087Y-62978192D01*
X146561087Y-62978192D02*
X146561087Y-62888795D01*
X146561087Y-62888795D02*
X146538737Y-62844097D01*
X146538737Y-62844097D02*
X146516388Y-62821748D01*
X146516388Y-62821748D02*
X146471690Y-62799398D01*
D11*
X146907500Y-62852500D02*
G75*
G02*
X145499500Y-62852500I-704000J0D01*
G01*
X145499500Y-62852500D02*
G75*
G02*
X146907500Y-62852500I704000J0D01*
G01*
D14*
X103428452Y-82439610D02*
X103428452Y-81267610D01*
X103428452Y-81267610D02*
X103874928Y-81267610D01*
X103874928Y-81267610D02*
X103986547Y-81323420D01*
X103986547Y-81323420D02*
X104042357Y-81379229D01*
X104042357Y-81379229D02*
X104098166Y-81490848D01*
X104098166Y-81490848D02*
X104098166Y-81658277D01*
X104098166Y-81658277D02*
X104042357Y-81769896D01*
X104042357Y-81769896D02*
X103986547Y-81825705D01*
X103986547Y-81825705D02*
X103874928Y-81881515D01*
X103874928Y-81881515D02*
X103428452Y-81881515D01*
X105214357Y-82439610D02*
X104544643Y-82439610D01*
X104879500Y-82439610D02*
X104879500Y-81267610D01*
X104879500Y-81267610D02*
X104767881Y-81435039D01*
X104767881Y-81435039D02*
X104656262Y-81546658D01*
X104656262Y-81546658D02*
X104544643Y-81602467D01*
D11*
X106051500Y-81902500D02*
G75*
G02*
X102535500Y-81902500I-1758000J0D01*
G01*
X102535500Y-81902500D02*
G75*
G02*
X106051500Y-81902500I1758000J0D01*
G01*
D14*
X103428452Y-64659610D02*
X103428452Y-63487610D01*
X103428452Y-63487610D02*
X103874928Y-63487610D01*
X103874928Y-63487610D02*
X103986547Y-63543420D01*
X103986547Y-63543420D02*
X104042357Y-63599229D01*
X104042357Y-63599229D02*
X104098166Y-63710848D01*
X104098166Y-63710848D02*
X104098166Y-63878277D01*
X104098166Y-63878277D02*
X104042357Y-63989896D01*
X104042357Y-63989896D02*
X103986547Y-64045705D01*
X103986547Y-64045705D02*
X103874928Y-64101515D01*
X103874928Y-64101515D02*
X103428452Y-64101515D01*
X104544643Y-63599229D02*
X104600452Y-63543420D01*
X104600452Y-63543420D02*
X104712071Y-63487610D01*
X104712071Y-63487610D02*
X104991119Y-63487610D01*
X104991119Y-63487610D02*
X105102738Y-63543420D01*
X105102738Y-63543420D02*
X105158547Y-63599229D01*
X105158547Y-63599229D02*
X105214357Y-63710848D01*
X105214357Y-63710848D02*
X105214357Y-63822467D01*
X105214357Y-63822467D02*
X105158547Y-63989896D01*
X105158547Y-63989896D02*
X104488833Y-64659610D01*
X104488833Y-64659610D02*
X105214357Y-64659610D01*
D11*
X106051500Y-64122500D02*
G75*
G02*
X102535500Y-64122500I-1758000J0D01*
G01*
X102535500Y-64122500D02*
G75*
G02*
X106051500Y-64122500I1758000J0D01*
G01*
X151113500Y-63487500D02*
G75*
G02*
X148913500Y-63487500I-1100000J0D01*
G01*
X148913500Y-63487500D02*
G75*
G02*
X151113500Y-63487500I1100000J0D01*
G01*
X151113500Y-82601000D02*
G75*
G02*
X148913500Y-82601000I-1100000J0D01*
G01*
X148913500Y-82601000D02*
G75*
G02*
X151113500Y-82601000I1100000J0D01*
G01*
D15*
X148315732Y-69187406D02*
X148350405Y-69152733D01*
X148350405Y-69152733D02*
X148419751Y-69118060D01*
X148419751Y-69118060D02*
X148593116Y-69118060D01*
X148593116Y-69118060D02*
X148662462Y-69152733D01*
X148662462Y-69152733D02*
X148697135Y-69187406D01*
X148697135Y-69187406D02*
X148731808Y-69256752D01*
X148731808Y-69256752D02*
X148731808Y-69326098D01*
X148731808Y-69326098D02*
X148697135Y-69430117D01*
X148697135Y-69430117D02*
X148281059Y-69846193D01*
X148281059Y-69846193D02*
X148731808Y-69846193D01*
X149078538Y-69846193D02*
X149217230Y-69846193D01*
X149217230Y-69846193D02*
X149286576Y-69811520D01*
X149286576Y-69811520D02*
X149321249Y-69776847D01*
X149321249Y-69776847D02*
X149390595Y-69672828D01*
X149390595Y-69672828D02*
X149425268Y-69534136D01*
X149425268Y-69534136D02*
X149425268Y-69256752D01*
X149425268Y-69256752D02*
X149390595Y-69187406D01*
X149390595Y-69187406D02*
X149355922Y-69152733D01*
X149355922Y-69152733D02*
X149286576Y-69118060D01*
X149286576Y-69118060D02*
X149147884Y-69118060D01*
X149147884Y-69118060D02*
X149078538Y-69152733D01*
X149078538Y-69152733D02*
X149043865Y-69187406D01*
X149043865Y-69187406D02*
X149009192Y-69256752D01*
X149009192Y-69256752D02*
X149009192Y-69430117D01*
X149009192Y-69430117D02*
X149043865Y-69499463D01*
X149043865Y-69499463D02*
X149078538Y-69534136D01*
X149078538Y-69534136D02*
X149147884Y-69568809D01*
X149147884Y-69568809D02*
X149286576Y-69568809D01*
X149286576Y-69568809D02*
X149355922Y-69534136D01*
X149355922Y-69534136D02*
X149390595Y-69499463D01*
X149390595Y-69499463D02*
X149425268Y-69430117D01*
D11*
X149962700Y-69512500D02*
G75*
G02*
X147778300Y-69512500I-1092200J0D01*
G01*
X147778300Y-69512500D02*
G75*
G02*
X149962700Y-69512500I1092200J0D01*
G01*
D15*
X148281059Y-72618060D02*
X148731808Y-72618060D01*
X148731808Y-72618060D02*
X148489097Y-72895444D01*
X148489097Y-72895444D02*
X148593116Y-72895444D01*
X148593116Y-72895444D02*
X148662462Y-72930117D01*
X148662462Y-72930117D02*
X148697135Y-72964790D01*
X148697135Y-72964790D02*
X148731808Y-73034136D01*
X148731808Y-73034136D02*
X148731808Y-73207501D01*
X148731808Y-73207501D02*
X148697135Y-73276847D01*
X148697135Y-73276847D02*
X148662462Y-73311520D01*
X148662462Y-73311520D02*
X148593116Y-73346193D01*
X148593116Y-73346193D02*
X148385078Y-73346193D01*
X148385078Y-73346193D02*
X148315732Y-73311520D01*
X148315732Y-73311520D02*
X148281059Y-73276847D01*
X149182557Y-72618060D02*
X149251903Y-72618060D01*
X149251903Y-72618060D02*
X149321249Y-72652733D01*
X149321249Y-72652733D02*
X149355922Y-72687406D01*
X149355922Y-72687406D02*
X149390595Y-72756752D01*
X149390595Y-72756752D02*
X149425268Y-72895444D01*
X149425268Y-72895444D02*
X149425268Y-73068809D01*
X149425268Y-73068809D02*
X149390595Y-73207501D01*
X149390595Y-73207501D02*
X149355922Y-73276847D01*
X149355922Y-73276847D02*
X149321249Y-73311520D01*
X149321249Y-73311520D02*
X149251903Y-73346193D01*
X149251903Y-73346193D02*
X149182557Y-73346193D01*
X149182557Y-73346193D02*
X149113211Y-73311520D01*
X149113211Y-73311520D02*
X149078538Y-73276847D01*
X149078538Y-73276847D02*
X149043865Y-73207501D01*
X149043865Y-73207501D02*
X149009192Y-73068809D01*
X149009192Y-73068809D02*
X149009192Y-72895444D01*
X149009192Y-72895444D02*
X149043865Y-72756752D01*
X149043865Y-72756752D02*
X149078538Y-72687406D01*
X149078538Y-72687406D02*
X149113211Y-72652733D01*
X149113211Y-72652733D02*
X149182557Y-72618060D01*
D11*
X149962700Y-73012500D02*
G75*
G02*
X147778300Y-73012500I-1092200J0D01*
G01*
X147778300Y-73012500D02*
G75*
G02*
X149962700Y-73012500I1092200J0D01*
G01*
D15*
X148281059Y-76118060D02*
X148731808Y-76118060D01*
X148731808Y-76118060D02*
X148489097Y-76395444D01*
X148489097Y-76395444D02*
X148593116Y-76395444D01*
X148593116Y-76395444D02*
X148662462Y-76430117D01*
X148662462Y-76430117D02*
X148697135Y-76464790D01*
X148697135Y-76464790D02*
X148731808Y-76534136D01*
X148731808Y-76534136D02*
X148731808Y-76707501D01*
X148731808Y-76707501D02*
X148697135Y-76776847D01*
X148697135Y-76776847D02*
X148662462Y-76811520D01*
X148662462Y-76811520D02*
X148593116Y-76846193D01*
X148593116Y-76846193D02*
X148385078Y-76846193D01*
X148385078Y-76846193D02*
X148315732Y-76811520D01*
X148315732Y-76811520D02*
X148281059Y-76776847D01*
X149425268Y-76846193D02*
X149009192Y-76846193D01*
X149217230Y-76846193D02*
X149217230Y-76118060D01*
X149217230Y-76118060D02*
X149147884Y-76222079D01*
X149147884Y-76222079D02*
X149078538Y-76291425D01*
X149078538Y-76291425D02*
X149009192Y-76326098D01*
D11*
X149962700Y-76512500D02*
G75*
G02*
X147778300Y-76512500I-1092200J0D01*
G01*
X147778300Y-76512500D02*
G75*
G02*
X149962700Y-76512500I1092200J0D01*
G01*
%TD*%
D16*
X113373809Y-51543809D02*
X113373809Y-52496189D01*
X113373809Y-52019999D02*
X111707143Y-52019999D01*
X111707143Y-52019999D02*
X111945238Y-52178729D01*
X111945238Y-52178729D02*
X112103968Y-52337459D01*
X112103968Y-52337459D02*
X112183333Y-52496189D01*
D11*
X113860000Y-53270000D02*
X113860000Y-50770000D01*
X111360000Y-50770000D02*
G75*
G02*
X113860000Y-50770000I1250000J0D01*
G01*
X111360000Y-50770000D02*
X111360000Y-53270000D01*
X111360000Y-53270000D02*
G75*
G03*
X113860000Y-53270000I1250000J0D01*
G01*
D17*
X105940285Y-52448570D02*
X105868857Y-52377142D01*
X105868857Y-52377142D02*
X105797428Y-52234285D01*
X105797428Y-52234285D02*
X105797428Y-51877142D01*
X105797428Y-51877142D02*
X105868857Y-51734285D01*
X105868857Y-51734285D02*
X105940285Y-51662856D01*
X105940285Y-51662856D02*
X106083142Y-51591427D01*
X106083142Y-51591427D02*
X106226000Y-51591427D01*
X106226000Y-51591427D02*
X106440285Y-51662856D01*
X106440285Y-51662856D02*
X107297428Y-52519999D01*
X107297428Y-52519999D02*
X107297428Y-51591427D01*
D11*
X107735000Y-53145000D02*
X107735000Y-50895000D01*
X105485000Y-50895000D02*
G75*
G02*
X107735000Y-50895000I1125000J0D01*
G01*
X105485000Y-50895000D02*
X105485000Y-53145000D01*
X105485000Y-53145000D02*
G75*
G03*
X107735000Y-53145000I1125000J0D01*
G01*
D17*
X109110000Y-55907428D02*
X110038572Y-55907428D01*
X110038572Y-55907428D02*
X109538572Y-56478857D01*
X109538572Y-56478857D02*
X109752857Y-56478857D01*
X109752857Y-56478857D02*
X109895715Y-56550285D01*
X109895715Y-56550285D02*
X109967143Y-56621714D01*
X109967143Y-56621714D02*
X110038572Y-56764571D01*
X110038572Y-56764571D02*
X110038572Y-57121714D01*
X110038572Y-57121714D02*
X109967143Y-57264571D01*
X109967143Y-57264571D02*
X109895715Y-57336000D01*
X109895715Y-57336000D02*
X109752857Y-57407428D01*
X109752857Y-57407428D02*
X109324286Y-57407428D01*
X109324286Y-57407428D02*
X109181429Y-57336000D01*
X109181429Y-57336000D02*
X109110000Y-57264571D01*
D11*
X110735000Y-55595000D02*
X108485000Y-55595000D01*
X108485000Y-57845000D02*
G75*
G02*
X108485000Y-55595000I0J1125000D01*
G01*
X108485000Y-57845000D02*
X110735000Y-57845000D01*
X110735000Y-57845000D02*
G75*
G03*
X110735000Y-55595000I0J1125000D01*
G01*
D18*
X104000000Y-140000000D02*
G75*
G02*
X101000000Y-137000000I0J3000000D01*
G01*
X179000000Y-137000000D02*
G75*
G02*
X176000000Y-140000000I-3000000J0D01*
G01*
X101000000Y-44000000D02*
G75*
G02*
X104000000Y-41000000I3000000J0D01*
G01*
X176000000Y-41000000D02*
G75*
G02*
X179000000Y-44000000I0J-3000000D01*
G01*
X101000000Y-137000000D02*
X101000000Y-44000000D01*
X176000000Y-140000000D02*
X104000000Y-140000000D01*
X179000000Y-44000000D02*
X179000000Y-137000000D01*
X104000000Y-41000000D02*
X176000000Y-41000000D01*
X105500000Y-137000000D02*
G75*
G02*
X102500000Y-137000000I-1500000J0D01*
G01*
X102500000Y-137000000D02*
G75*
G02*
X105500000Y-137000000I1500000J0D01*
G01*
X177500000Y-137000000D02*
G75*
G02*
X174500000Y-137000000I-1500000J0D01*
G01*
X174500000Y-137000000D02*
G75*
G02*
X177500000Y-137000000I1500000J0D01*
G01*
X177500000Y-44000000D02*
G75*
G02*
X174500000Y-44000000I-1500000J0D01*
G01*
X174500000Y-44000000D02*
G75*
G02*
X177500000Y-44000000I1500000J0D01*
G01*
X105500000Y-44000000D02*
G75*
G02*
X102500000Y-44000000I-1500000J0D01*
G01*
X102500000Y-44000000D02*
G75*
G02*
X105500000Y-44000000I1500000J0D01*
G01*
M02*
