%TF.GenerationSoftware,KiCad,Pcbnew,9.0.4*%
%TF.CreationDate,2025-09-21T19:32:39-04:00*%
%TF.ProjectId,Nanopositioner_V10,4e616e6f-706f-4736-9974-696f6e65725f,rev?*%
%TF.SameCoordinates,Original*%
%TF.FileFunction,Legend,Top*%
%TF.FilePolarity,Positive*%
%FSLAX46Y46*%
G04 Gerber Fmt 4.6, Leading zero omitted, Abs format (unit mm)*
G04 Created by KiCad (PCBNEW 9.0.4) date 2025-09-21 19:32:39*
%MOMM*%
%LPD*%
G01*
G04 APERTURE LIST*
%ADD10C,0.300000*%
%ADD11C,0.100000*%
%ADD12C,0.190500*%
%ADD13C,0.150000*%
%ADD14C,0.254000*%
%ADD15C,0.304800*%
%ADD16C,0.120000*%
%ADD17C,0.508000*%
%ADD18C,0.200000*%
%ADD19C,0.203200*%
%ADD20C,0.127000*%
%ADD21C,0.400000*%
%TA.AperFunction,Profile*%
%ADD22C,0.050000*%
%TD*%
G04 APERTURE END LIST*
D10*
X155019748Y-50616528D02*
X155019748Y-47759385D01*
X156448320Y-49949862D02*
X156448320Y-47949862D01*
X156448320Y-47949862D02*
X157591177Y-49949862D01*
X157591177Y-49949862D02*
X157591177Y-47949862D01*
X158448320Y-49378433D02*
X159400701Y-49378433D01*
X158257844Y-49949862D02*
X158924510Y-47949862D01*
X158924510Y-47949862D02*
X159591177Y-49949862D01*
X160257844Y-49949862D02*
X160257844Y-47949862D01*
X160257844Y-47949862D02*
X161400701Y-49949862D01*
X161400701Y-49949862D02*
X161400701Y-47949862D01*
X162734034Y-47949862D02*
X163114987Y-47949862D01*
X163114987Y-47949862D02*
X163305463Y-48045100D01*
X163305463Y-48045100D02*
X163495939Y-48235576D01*
X163495939Y-48235576D02*
X163591177Y-48616528D01*
X163591177Y-48616528D02*
X163591177Y-49283195D01*
X163591177Y-49283195D02*
X163495939Y-49664147D01*
X163495939Y-49664147D02*
X163305463Y-49854624D01*
X163305463Y-49854624D02*
X163114987Y-49949862D01*
X163114987Y-49949862D02*
X162734034Y-49949862D01*
X162734034Y-49949862D02*
X162543558Y-49854624D01*
X162543558Y-49854624D02*
X162353082Y-49664147D01*
X162353082Y-49664147D02*
X162257844Y-49283195D01*
X162257844Y-49283195D02*
X162257844Y-48616528D01*
X162257844Y-48616528D02*
X162353082Y-48235576D01*
X162353082Y-48235576D02*
X162543558Y-48045100D01*
X162543558Y-48045100D02*
X162734034Y-47949862D01*
X164448320Y-49187957D02*
X165972130Y-49187957D01*
X168067367Y-49759385D02*
X167972129Y-49854624D01*
X167972129Y-49854624D02*
X167686415Y-49949862D01*
X167686415Y-49949862D02*
X167495939Y-49949862D01*
X167495939Y-49949862D02*
X167210224Y-49854624D01*
X167210224Y-49854624D02*
X167019748Y-49664147D01*
X167019748Y-49664147D02*
X166924510Y-49473671D01*
X166924510Y-49473671D02*
X166829272Y-49092719D01*
X166829272Y-49092719D02*
X166829272Y-48807004D01*
X166829272Y-48807004D02*
X166924510Y-48426052D01*
X166924510Y-48426052D02*
X167019748Y-48235576D01*
X167019748Y-48235576D02*
X167210224Y-48045100D01*
X167210224Y-48045100D02*
X167495939Y-47949862D01*
X167495939Y-47949862D02*
X167686415Y-47949862D01*
X167686415Y-47949862D02*
X167972129Y-48045100D01*
X167972129Y-48045100D02*
X168067367Y-48140338D01*
X169305462Y-47949862D02*
X169686415Y-47949862D01*
X169686415Y-47949862D02*
X169876891Y-48045100D01*
X169876891Y-48045100D02*
X170067367Y-48235576D01*
X170067367Y-48235576D02*
X170162605Y-48616528D01*
X170162605Y-48616528D02*
X170162605Y-49283195D01*
X170162605Y-49283195D02*
X170067367Y-49664147D01*
X170067367Y-49664147D02*
X169876891Y-49854624D01*
X169876891Y-49854624D02*
X169686415Y-49949862D01*
X169686415Y-49949862D02*
X169305462Y-49949862D01*
X169305462Y-49949862D02*
X169114986Y-49854624D01*
X169114986Y-49854624D02*
X168924510Y-49664147D01*
X168924510Y-49664147D02*
X168829272Y-49283195D01*
X168829272Y-49283195D02*
X168829272Y-48616528D01*
X168829272Y-48616528D02*
X168924510Y-48235576D01*
X168924510Y-48235576D02*
X169114986Y-48045100D01*
X169114986Y-48045100D02*
X169305462Y-47949862D01*
X172162605Y-49949862D02*
X171495938Y-48997481D01*
X171019748Y-49949862D02*
X171019748Y-47949862D01*
X171019748Y-47949862D02*
X171781653Y-47949862D01*
X171781653Y-47949862D02*
X171972129Y-48045100D01*
X171972129Y-48045100D02*
X172067367Y-48140338D01*
X172067367Y-48140338D02*
X172162605Y-48330814D01*
X172162605Y-48330814D02*
X172162605Y-48616528D01*
X172162605Y-48616528D02*
X172067367Y-48807004D01*
X172067367Y-48807004D02*
X171972129Y-48902243D01*
X171972129Y-48902243D02*
X171781653Y-48997481D01*
X171781653Y-48997481D02*
X171019748Y-48997481D01*
X173019748Y-48902243D02*
X173686415Y-48902243D01*
X173972129Y-49949862D02*
X173019748Y-49949862D01*
X173019748Y-49949862D02*
X173019748Y-47949862D01*
X173019748Y-47949862D02*
X173972129Y-47949862D01*
X155019748Y-53836416D02*
X155019748Y-50979273D01*
X157114987Y-52122131D02*
X157400701Y-52217369D01*
X157400701Y-52217369D02*
X157495939Y-52312607D01*
X157495939Y-52312607D02*
X157591177Y-52503083D01*
X157591177Y-52503083D02*
X157591177Y-52788797D01*
X157591177Y-52788797D02*
X157495939Y-52979273D01*
X157495939Y-52979273D02*
X157400701Y-53074512D01*
X157400701Y-53074512D02*
X157210225Y-53169750D01*
X157210225Y-53169750D02*
X156448320Y-53169750D01*
X156448320Y-53169750D02*
X156448320Y-51169750D01*
X156448320Y-51169750D02*
X157114987Y-51169750D01*
X157114987Y-51169750D02*
X157305463Y-51264988D01*
X157305463Y-51264988D02*
X157400701Y-51360226D01*
X157400701Y-51360226D02*
X157495939Y-51550702D01*
X157495939Y-51550702D02*
X157495939Y-51741178D01*
X157495939Y-51741178D02*
X157400701Y-51931654D01*
X157400701Y-51931654D02*
X157305463Y-52026892D01*
X157305463Y-52026892D02*
X157114987Y-52122131D01*
X157114987Y-52122131D02*
X156448320Y-52122131D01*
X158734034Y-53169750D02*
X158543558Y-53074512D01*
X158543558Y-53074512D02*
X158448320Y-52979273D01*
X158448320Y-52979273D02*
X158353082Y-52788797D01*
X158353082Y-52788797D02*
X158353082Y-52217369D01*
X158353082Y-52217369D02*
X158448320Y-52026892D01*
X158448320Y-52026892D02*
X158543558Y-51931654D01*
X158543558Y-51931654D02*
X158734034Y-51836416D01*
X158734034Y-51836416D02*
X159019749Y-51836416D01*
X159019749Y-51836416D02*
X159210225Y-51931654D01*
X159210225Y-51931654D02*
X159305463Y-52026892D01*
X159305463Y-52026892D02*
X159400701Y-52217369D01*
X159400701Y-52217369D02*
X159400701Y-52788797D01*
X159400701Y-52788797D02*
X159305463Y-52979273D01*
X159305463Y-52979273D02*
X159210225Y-53074512D01*
X159210225Y-53074512D02*
X159019749Y-53169750D01*
X159019749Y-53169750D02*
X158734034Y-53169750D01*
X160067368Y-51836416D02*
X160448320Y-53169750D01*
X160448320Y-53169750D02*
X160829273Y-52217369D01*
X160829273Y-52217369D02*
X161210225Y-53169750D01*
X161210225Y-53169750D02*
X161591177Y-51836416D01*
X163114987Y-53074512D02*
X162924511Y-53169750D01*
X162924511Y-53169750D02*
X162543558Y-53169750D01*
X162543558Y-53169750D02*
X162353082Y-53074512D01*
X162353082Y-53074512D02*
X162257844Y-52884035D01*
X162257844Y-52884035D02*
X162257844Y-52122131D01*
X162257844Y-52122131D02*
X162353082Y-51931654D01*
X162353082Y-51931654D02*
X162543558Y-51836416D01*
X162543558Y-51836416D02*
X162924511Y-51836416D01*
X162924511Y-51836416D02*
X163114987Y-51931654D01*
X163114987Y-51931654D02*
X163210225Y-52122131D01*
X163210225Y-52122131D02*
X163210225Y-52312607D01*
X163210225Y-52312607D02*
X162257844Y-52503083D01*
X164067368Y-51836416D02*
X164067368Y-53169750D01*
X164067368Y-52026892D02*
X164162606Y-51931654D01*
X164162606Y-51931654D02*
X164353082Y-51836416D01*
X164353082Y-51836416D02*
X164638797Y-51836416D01*
X164638797Y-51836416D02*
X164829273Y-51931654D01*
X164829273Y-51931654D02*
X164924511Y-52122131D01*
X164924511Y-52122131D02*
X164924511Y-53169750D01*
X167210226Y-51169750D02*
X168543559Y-51169750D01*
X168543559Y-51169750D02*
X167210226Y-53169750D01*
X167210226Y-53169750D02*
X168543559Y-53169750D01*
X169305464Y-53169750D02*
X169305464Y-51169750D01*
X170162607Y-53169750D02*
X170162607Y-52122131D01*
X170162607Y-52122131D02*
X170067369Y-51931654D01*
X170067369Y-51931654D02*
X169876893Y-51836416D01*
X169876893Y-51836416D02*
X169591178Y-51836416D01*
X169591178Y-51836416D02*
X169400702Y-51931654D01*
X169400702Y-51931654D02*
X169305464Y-52026892D01*
X171876893Y-53074512D02*
X171686417Y-53169750D01*
X171686417Y-53169750D02*
X171305464Y-53169750D01*
X171305464Y-53169750D02*
X171114988Y-53074512D01*
X171114988Y-53074512D02*
X171019750Y-52884035D01*
X171019750Y-52884035D02*
X171019750Y-52122131D01*
X171019750Y-52122131D02*
X171114988Y-51931654D01*
X171114988Y-51931654D02*
X171305464Y-51836416D01*
X171305464Y-51836416D02*
X171686417Y-51836416D01*
X171686417Y-51836416D02*
X171876893Y-51931654D01*
X171876893Y-51931654D02*
X171972131Y-52122131D01*
X171972131Y-52122131D02*
X171972131Y-52312607D01*
X171972131Y-52312607D02*
X171019750Y-52503083D01*
X172829274Y-51836416D02*
X172829274Y-53169750D01*
X172829274Y-52026892D02*
X172924512Y-51931654D01*
X172924512Y-51931654D02*
X173114988Y-51836416D01*
X173114988Y-51836416D02*
X173400703Y-51836416D01*
X173400703Y-51836416D02*
X173591179Y-51931654D01*
X173591179Y-51931654D02*
X173686417Y-52122131D01*
X173686417Y-52122131D02*
X173686417Y-53169750D01*
X175495941Y-51836416D02*
X175495941Y-53455464D01*
X175495941Y-53455464D02*
X175400703Y-53645940D01*
X175400703Y-53645940D02*
X175305465Y-53741178D01*
X175305465Y-53741178D02*
X175114988Y-53836416D01*
X175114988Y-53836416D02*
X174829274Y-53836416D01*
X174829274Y-53836416D02*
X174638798Y-53741178D01*
X175495941Y-53074512D02*
X175305465Y-53169750D01*
X175305465Y-53169750D02*
X174924512Y-53169750D01*
X174924512Y-53169750D02*
X174734036Y-53074512D01*
X174734036Y-53074512D02*
X174638798Y-52979273D01*
X174638798Y-52979273D02*
X174543560Y-52788797D01*
X174543560Y-52788797D02*
X174543560Y-52217369D01*
X174543560Y-52217369D02*
X174638798Y-52026892D01*
X174638798Y-52026892D02*
X174734036Y-51931654D01*
X174734036Y-51931654D02*
X174924512Y-51836416D01*
X174924512Y-51836416D02*
X175305465Y-51836416D01*
X175305465Y-51836416D02*
X175495941Y-51931654D01*
X155019748Y-57056304D02*
X155019748Y-54199161D01*
X156829272Y-54389638D02*
X157019749Y-54389638D01*
X157019749Y-54389638D02*
X157210225Y-54484876D01*
X157210225Y-54484876D02*
X157305463Y-54580114D01*
X157305463Y-54580114D02*
X157400701Y-54770590D01*
X157400701Y-54770590D02*
X157495939Y-55151542D01*
X157495939Y-55151542D02*
X157495939Y-55627733D01*
X157495939Y-55627733D02*
X157400701Y-56008685D01*
X157400701Y-56008685D02*
X157305463Y-56199161D01*
X157305463Y-56199161D02*
X157210225Y-56294400D01*
X157210225Y-56294400D02*
X157019749Y-56389638D01*
X157019749Y-56389638D02*
X156829272Y-56389638D01*
X156829272Y-56389638D02*
X156638796Y-56294400D01*
X156638796Y-56294400D02*
X156543558Y-56199161D01*
X156543558Y-56199161D02*
X156448320Y-56008685D01*
X156448320Y-56008685D02*
X156353082Y-55627733D01*
X156353082Y-55627733D02*
X156353082Y-55151542D01*
X156353082Y-55151542D02*
X156448320Y-54770590D01*
X156448320Y-54770590D02*
X156543558Y-54580114D01*
X156543558Y-54580114D02*
X156638796Y-54484876D01*
X156638796Y-54484876D02*
X156829272Y-54389638D01*
X158448320Y-56389638D02*
X158829272Y-56389638D01*
X158829272Y-56389638D02*
X159019749Y-56294400D01*
X159019749Y-56294400D02*
X159114987Y-56199161D01*
X159114987Y-56199161D02*
X159305463Y-55913447D01*
X159305463Y-55913447D02*
X159400701Y-55532495D01*
X159400701Y-55532495D02*
X159400701Y-54770590D01*
X159400701Y-54770590D02*
X159305463Y-54580114D01*
X159305463Y-54580114D02*
X159210225Y-54484876D01*
X159210225Y-54484876D02*
X159019749Y-54389638D01*
X159019749Y-54389638D02*
X158638796Y-54389638D01*
X158638796Y-54389638D02*
X158448320Y-54484876D01*
X158448320Y-54484876D02*
X158353082Y-54580114D01*
X158353082Y-54580114D02*
X158257844Y-54770590D01*
X158257844Y-54770590D02*
X158257844Y-55246780D01*
X158257844Y-55246780D02*
X158353082Y-55437257D01*
X158353082Y-55437257D02*
X158448320Y-55532495D01*
X158448320Y-55532495D02*
X158638796Y-55627733D01*
X158638796Y-55627733D02*
X159019749Y-55627733D01*
X159019749Y-55627733D02*
X159210225Y-55532495D01*
X159210225Y-55532495D02*
X159305463Y-55437257D01*
X159305463Y-55437257D02*
X159400701Y-55246780D01*
X160257844Y-56199161D02*
X160353082Y-56294400D01*
X160353082Y-56294400D02*
X160257844Y-56389638D01*
X160257844Y-56389638D02*
X160162606Y-56294400D01*
X160162606Y-56294400D02*
X160257844Y-56199161D01*
X160257844Y-56199161D02*
X160257844Y-56389638D01*
X161114987Y-54580114D02*
X161210225Y-54484876D01*
X161210225Y-54484876D02*
X161400701Y-54389638D01*
X161400701Y-54389638D02*
X161876892Y-54389638D01*
X161876892Y-54389638D02*
X162067368Y-54484876D01*
X162067368Y-54484876D02*
X162162606Y-54580114D01*
X162162606Y-54580114D02*
X162257844Y-54770590D01*
X162257844Y-54770590D02*
X162257844Y-54961066D01*
X162257844Y-54961066D02*
X162162606Y-55246780D01*
X162162606Y-55246780D02*
X161019749Y-56389638D01*
X161019749Y-56389638D02*
X162257844Y-56389638D01*
X164162606Y-56389638D02*
X163019749Y-56389638D01*
X163591177Y-56389638D02*
X163591177Y-54389638D01*
X163591177Y-54389638D02*
X163400701Y-54675352D01*
X163400701Y-54675352D02*
X163210225Y-54865828D01*
X163210225Y-54865828D02*
X163019749Y-54961066D01*
X165019749Y-56199161D02*
X165114987Y-56294400D01*
X165114987Y-56294400D02*
X165019749Y-56389638D01*
X165019749Y-56389638D02*
X164924511Y-56294400D01*
X164924511Y-56294400D02*
X165019749Y-56199161D01*
X165019749Y-56199161D02*
X165019749Y-56389638D01*
X165876892Y-54580114D02*
X165972130Y-54484876D01*
X165972130Y-54484876D02*
X166162606Y-54389638D01*
X166162606Y-54389638D02*
X166638797Y-54389638D01*
X166638797Y-54389638D02*
X166829273Y-54484876D01*
X166829273Y-54484876D02*
X166924511Y-54580114D01*
X166924511Y-54580114D02*
X167019749Y-54770590D01*
X167019749Y-54770590D02*
X167019749Y-54961066D01*
X167019749Y-54961066D02*
X166924511Y-55246780D01*
X166924511Y-55246780D02*
X165781654Y-56389638D01*
X165781654Y-56389638D02*
X167019749Y-56389638D01*
X168257844Y-54389638D02*
X168448321Y-54389638D01*
X168448321Y-54389638D02*
X168638797Y-54484876D01*
X168638797Y-54484876D02*
X168734035Y-54580114D01*
X168734035Y-54580114D02*
X168829273Y-54770590D01*
X168829273Y-54770590D02*
X168924511Y-55151542D01*
X168924511Y-55151542D02*
X168924511Y-55627733D01*
X168924511Y-55627733D02*
X168829273Y-56008685D01*
X168829273Y-56008685D02*
X168734035Y-56199161D01*
X168734035Y-56199161D02*
X168638797Y-56294400D01*
X168638797Y-56294400D02*
X168448321Y-56389638D01*
X168448321Y-56389638D02*
X168257844Y-56389638D01*
X168257844Y-56389638D02*
X168067368Y-56294400D01*
X168067368Y-56294400D02*
X167972130Y-56199161D01*
X167972130Y-56199161D02*
X167876892Y-56008685D01*
X167876892Y-56008685D02*
X167781654Y-55627733D01*
X167781654Y-55627733D02*
X167781654Y-55151542D01*
X167781654Y-55151542D02*
X167876892Y-54770590D01*
X167876892Y-54770590D02*
X167972130Y-54580114D01*
X167972130Y-54580114D02*
X168067368Y-54484876D01*
X168067368Y-54484876D02*
X168257844Y-54389638D01*
X169686416Y-54580114D02*
X169781654Y-54484876D01*
X169781654Y-54484876D02*
X169972130Y-54389638D01*
X169972130Y-54389638D02*
X170448321Y-54389638D01*
X170448321Y-54389638D02*
X170638797Y-54484876D01*
X170638797Y-54484876D02*
X170734035Y-54580114D01*
X170734035Y-54580114D02*
X170829273Y-54770590D01*
X170829273Y-54770590D02*
X170829273Y-54961066D01*
X170829273Y-54961066D02*
X170734035Y-55246780D01*
X170734035Y-55246780D02*
X169591178Y-56389638D01*
X169591178Y-56389638D02*
X170829273Y-56389638D01*
X172638797Y-54389638D02*
X171686416Y-54389638D01*
X171686416Y-54389638D02*
X171591178Y-55342019D01*
X171591178Y-55342019D02*
X171686416Y-55246780D01*
X171686416Y-55246780D02*
X171876892Y-55151542D01*
X171876892Y-55151542D02*
X172353083Y-55151542D01*
X172353083Y-55151542D02*
X172543559Y-55246780D01*
X172543559Y-55246780D02*
X172638797Y-55342019D01*
X172638797Y-55342019D02*
X172734035Y-55532495D01*
X172734035Y-55532495D02*
X172734035Y-56008685D01*
X172734035Y-56008685D02*
X172638797Y-56199161D01*
X172638797Y-56199161D02*
X172543559Y-56294400D01*
X172543559Y-56294400D02*
X172353083Y-56389638D01*
X172353083Y-56389638D02*
X171876892Y-56389638D01*
X171876892Y-56389638D02*
X171686416Y-56294400D01*
X171686416Y-56294400D02*
X171591178Y-56199161D01*
X117681653Y-53377257D02*
X117681653Y-50377257D01*
X117681653Y-50377257D02*
X118824510Y-50377257D01*
X118824510Y-50377257D02*
X119110225Y-50520114D01*
X119110225Y-50520114D02*
X119253082Y-50662971D01*
X119253082Y-50662971D02*
X119395939Y-50948685D01*
X119395939Y-50948685D02*
X119395939Y-51377257D01*
X119395939Y-51377257D02*
X119253082Y-51662971D01*
X119253082Y-51662971D02*
X119110225Y-51805828D01*
X119110225Y-51805828D02*
X118824510Y-51948685D01*
X118824510Y-51948685D02*
X117681653Y-51948685D01*
X121253082Y-50377257D02*
X121824510Y-50377257D01*
X121824510Y-50377257D02*
X122110225Y-50520114D01*
X122110225Y-50520114D02*
X122395939Y-50805828D01*
X122395939Y-50805828D02*
X122538796Y-51377257D01*
X122538796Y-51377257D02*
X122538796Y-52377257D01*
X122538796Y-52377257D02*
X122395939Y-52948685D01*
X122395939Y-52948685D02*
X122110225Y-53234400D01*
X122110225Y-53234400D02*
X121824510Y-53377257D01*
X121824510Y-53377257D02*
X121253082Y-53377257D01*
X121253082Y-53377257D02*
X120967368Y-53234400D01*
X120967368Y-53234400D02*
X120681653Y-52948685D01*
X120681653Y-52948685D02*
X120538796Y-52377257D01*
X120538796Y-52377257D02*
X120538796Y-51377257D01*
X120538796Y-51377257D02*
X120681653Y-50805828D01*
X120681653Y-50805828D02*
X120967368Y-50520114D01*
X120967368Y-50520114D02*
X121253082Y-50377257D01*
X123538796Y-50377257D02*
X124253082Y-53377257D01*
X124253082Y-53377257D02*
X124824510Y-51234400D01*
X124824510Y-51234400D02*
X125395939Y-53377257D01*
X125395939Y-53377257D02*
X126110225Y-50377257D01*
X127253081Y-51805828D02*
X128253081Y-51805828D01*
X128681653Y-53377257D02*
X127253081Y-53377257D01*
X127253081Y-53377257D02*
X127253081Y-50377257D01*
X127253081Y-50377257D02*
X128681653Y-50377257D01*
X131681653Y-53377257D02*
X130681653Y-51948685D01*
X129967367Y-53377257D02*
X129967367Y-50377257D01*
X129967367Y-50377257D02*
X131110224Y-50377257D01*
X131110224Y-50377257D02*
X131395939Y-50520114D01*
X131395939Y-50520114D02*
X131538796Y-50662971D01*
X131538796Y-50662971D02*
X131681653Y-50948685D01*
X131681653Y-50948685D02*
X131681653Y-51377257D01*
X131681653Y-51377257D02*
X131538796Y-51662971D01*
X131538796Y-51662971D02*
X131395939Y-51805828D01*
X131395939Y-51805828D02*
X131110224Y-51948685D01*
X131110224Y-51948685D02*
X129967367Y-51948685D01*
X136110224Y-54520114D02*
X135967367Y-54377257D01*
X135967367Y-54377257D02*
X135681653Y-53948685D01*
X135681653Y-53948685D02*
X135538796Y-53662971D01*
X135538796Y-53662971D02*
X135395938Y-53234400D01*
X135395938Y-53234400D02*
X135253081Y-52520114D01*
X135253081Y-52520114D02*
X135253081Y-51948685D01*
X135253081Y-51948685D02*
X135395938Y-51234400D01*
X135395938Y-51234400D02*
X135538796Y-50805828D01*
X135538796Y-50805828D02*
X135681653Y-50520114D01*
X135681653Y-50520114D02*
X135967367Y-50091542D01*
X135967367Y-50091542D02*
X136110224Y-49948685D01*
X137110224Y-50662971D02*
X137253081Y-50520114D01*
X137253081Y-50520114D02*
X137538796Y-50377257D01*
X137538796Y-50377257D02*
X138253081Y-50377257D01*
X138253081Y-50377257D02*
X138538796Y-50520114D01*
X138538796Y-50520114D02*
X138681653Y-50662971D01*
X138681653Y-50662971D02*
X138824510Y-50948685D01*
X138824510Y-50948685D02*
X138824510Y-51234400D01*
X138824510Y-51234400D02*
X138681653Y-51662971D01*
X138681653Y-51662971D02*
X136967367Y-53377257D01*
X136967367Y-53377257D02*
X138824510Y-53377257D01*
X141395939Y-51377257D02*
X141395939Y-53377257D01*
X140681653Y-50234400D02*
X139967367Y-52377257D01*
X139967367Y-52377257D02*
X141824510Y-52377257D01*
X142538796Y-50377257D02*
X143538796Y-53377257D01*
X143538796Y-53377257D02*
X144538796Y-50377257D01*
X145253082Y-54520114D02*
X145395939Y-54377257D01*
X145395939Y-54377257D02*
X145681653Y-53948685D01*
X145681653Y-53948685D02*
X145824511Y-53662971D01*
X145824511Y-53662971D02*
X145967368Y-53234400D01*
X145967368Y-53234400D02*
X146110225Y-52520114D01*
X146110225Y-52520114D02*
X146110225Y-51948685D01*
X146110225Y-51948685D02*
X145967368Y-51234400D01*
X145967368Y-51234400D02*
X145824511Y-50805828D01*
X145824511Y-50805828D02*
X145681653Y-50520114D01*
X145681653Y-50520114D02*
X145395939Y-50091542D01*
X145395939Y-50091542D02*
X145253082Y-49948685D01*
D11*
X159493884Y-68874086D02*
X159493884Y-67874086D01*
X159493884Y-67874086D02*
X159731979Y-67874086D01*
X159731979Y-67874086D02*
X159874836Y-67921705D01*
X159874836Y-67921705D02*
X159970074Y-68016943D01*
X159970074Y-68016943D02*
X160017693Y-68112181D01*
X160017693Y-68112181D02*
X160065312Y-68302657D01*
X160065312Y-68302657D02*
X160065312Y-68445514D01*
X160065312Y-68445514D02*
X160017693Y-68635990D01*
X160017693Y-68635990D02*
X159970074Y-68731228D01*
X159970074Y-68731228D02*
X159874836Y-68826467D01*
X159874836Y-68826467D02*
X159731979Y-68874086D01*
X159731979Y-68874086D02*
X159493884Y-68874086D01*
X160684360Y-67874086D02*
X160874836Y-67874086D01*
X160874836Y-67874086D02*
X160970074Y-67921705D01*
X160970074Y-67921705D02*
X161065312Y-68016943D01*
X161065312Y-68016943D02*
X161112931Y-68207419D01*
X161112931Y-68207419D02*
X161112931Y-68540752D01*
X161112931Y-68540752D02*
X161065312Y-68731228D01*
X161065312Y-68731228D02*
X160970074Y-68826467D01*
X160970074Y-68826467D02*
X160874836Y-68874086D01*
X160874836Y-68874086D02*
X160684360Y-68874086D01*
X160684360Y-68874086D02*
X160589122Y-68826467D01*
X160589122Y-68826467D02*
X160493884Y-68731228D01*
X160493884Y-68731228D02*
X160446265Y-68540752D01*
X160446265Y-68540752D02*
X160446265Y-68207419D01*
X160446265Y-68207419D02*
X160493884Y-68016943D01*
X160493884Y-68016943D02*
X160589122Y-67921705D01*
X160589122Y-67921705D02*
X160684360Y-67874086D01*
X162589122Y-69255038D02*
X162541503Y-69207419D01*
X162541503Y-69207419D02*
X162446265Y-69064562D01*
X162446265Y-69064562D02*
X162398646Y-68969324D01*
X162398646Y-68969324D02*
X162351027Y-68826467D01*
X162351027Y-68826467D02*
X162303408Y-68588371D01*
X162303408Y-68588371D02*
X162303408Y-68397895D01*
X162303408Y-68397895D02*
X162351027Y-68159800D01*
X162351027Y-68159800D02*
X162398646Y-68016943D01*
X162398646Y-68016943D02*
X162446265Y-67921705D01*
X162446265Y-67921705D02*
X162541503Y-67778847D01*
X162541503Y-67778847D02*
X162589122Y-67731228D01*
X162874837Y-67874086D02*
X163541503Y-68874086D01*
X163541503Y-67874086D02*
X162874837Y-68874086D01*
X163827218Y-69255038D02*
X163874837Y-69207419D01*
X163874837Y-69207419D02*
X163970075Y-69064562D01*
X163970075Y-69064562D02*
X164017694Y-68969324D01*
X164017694Y-68969324D02*
X164065313Y-68826467D01*
X164065313Y-68826467D02*
X164112932Y-68588371D01*
X164112932Y-68588371D02*
X164112932Y-68397895D01*
X164112932Y-68397895D02*
X164065313Y-68159800D01*
X164065313Y-68159800D02*
X164017694Y-68016943D01*
X164017694Y-68016943D02*
X163970075Y-67921705D01*
X163970075Y-67921705D02*
X163874837Y-67778847D01*
X163874837Y-67778847D02*
X163827218Y-67731228D01*
X159303407Y-71300513D02*
X159255788Y-71348133D01*
X159255788Y-71348133D02*
X159112931Y-71395752D01*
X159112931Y-71395752D02*
X159017693Y-71395752D01*
X159017693Y-71395752D02*
X158874836Y-71348133D01*
X158874836Y-71348133D02*
X158779598Y-71252894D01*
X158779598Y-71252894D02*
X158731979Y-71157656D01*
X158731979Y-71157656D02*
X158684360Y-70967180D01*
X158684360Y-70967180D02*
X158684360Y-70824323D01*
X158684360Y-70824323D02*
X158731979Y-70633847D01*
X158731979Y-70633847D02*
X158779598Y-70538609D01*
X158779598Y-70538609D02*
X158874836Y-70443371D01*
X158874836Y-70443371D02*
X159017693Y-70395752D01*
X159017693Y-70395752D02*
X159112931Y-70395752D01*
X159112931Y-70395752D02*
X159255788Y-70443371D01*
X159255788Y-70443371D02*
X159303407Y-70490990D01*
X160208169Y-71395752D02*
X159731979Y-71395752D01*
X159731979Y-71395752D02*
X159731979Y-70395752D01*
X160541503Y-71395752D02*
X160541503Y-70395752D01*
X161112931Y-71395752D02*
X160684360Y-70824323D01*
X161112931Y-70395752D02*
X160541503Y-70967180D01*
X162589122Y-71776704D02*
X162541503Y-71729085D01*
X162541503Y-71729085D02*
X162446265Y-71586228D01*
X162446265Y-71586228D02*
X162398646Y-71490990D01*
X162398646Y-71490990D02*
X162351027Y-71348133D01*
X162351027Y-71348133D02*
X162303408Y-71110037D01*
X162303408Y-71110037D02*
X162303408Y-70919561D01*
X162303408Y-70919561D02*
X162351027Y-70681466D01*
X162351027Y-70681466D02*
X162398646Y-70538609D01*
X162398646Y-70538609D02*
X162446265Y-70443371D01*
X162446265Y-70443371D02*
X162541503Y-70300513D01*
X162541503Y-70300513D02*
X162589122Y-70252894D01*
X162874837Y-70395752D02*
X163541503Y-71395752D01*
X163541503Y-70395752D02*
X162874837Y-71395752D01*
X163827218Y-71776704D02*
X163874837Y-71729085D01*
X163874837Y-71729085D02*
X163970075Y-71586228D01*
X163970075Y-71586228D02*
X164017694Y-71490990D01*
X164017694Y-71490990D02*
X164065313Y-71348133D01*
X164065313Y-71348133D02*
X164112932Y-71110037D01*
X164112932Y-71110037D02*
X164112932Y-70919561D01*
X164112932Y-70919561D02*
X164065313Y-70681466D01*
X164065313Y-70681466D02*
X164017694Y-70538609D01*
X164017694Y-70538609D02*
X163970075Y-70443371D01*
X163970075Y-70443371D02*
X163874837Y-70300513D01*
X163874837Y-70300513D02*
X163827218Y-70252894D01*
X160160550Y-73822180D02*
X160112931Y-73869800D01*
X160112931Y-73869800D02*
X159970074Y-73917419D01*
X159970074Y-73917419D02*
X159874836Y-73917419D01*
X159874836Y-73917419D02*
X159731979Y-73869800D01*
X159731979Y-73869800D02*
X159636741Y-73774561D01*
X159636741Y-73774561D02*
X159589122Y-73679323D01*
X159589122Y-73679323D02*
X159541503Y-73488847D01*
X159541503Y-73488847D02*
X159541503Y-73345990D01*
X159541503Y-73345990D02*
X159589122Y-73155514D01*
X159589122Y-73155514D02*
X159636741Y-73060276D01*
X159636741Y-73060276D02*
X159731979Y-72965038D01*
X159731979Y-72965038D02*
X159874836Y-72917419D01*
X159874836Y-72917419D02*
X159970074Y-72917419D01*
X159970074Y-72917419D02*
X160112931Y-72965038D01*
X160112931Y-72965038D02*
X160160550Y-73012657D01*
X160541503Y-73869800D02*
X160684360Y-73917419D01*
X160684360Y-73917419D02*
X160922455Y-73917419D01*
X160922455Y-73917419D02*
X161017693Y-73869800D01*
X161017693Y-73869800D02*
X161065312Y-73822180D01*
X161065312Y-73822180D02*
X161112931Y-73726942D01*
X161112931Y-73726942D02*
X161112931Y-73631704D01*
X161112931Y-73631704D02*
X161065312Y-73536466D01*
X161065312Y-73536466D02*
X161017693Y-73488847D01*
X161017693Y-73488847D02*
X160922455Y-73441228D01*
X160922455Y-73441228D02*
X160731979Y-73393609D01*
X160731979Y-73393609D02*
X160636741Y-73345990D01*
X160636741Y-73345990D02*
X160589122Y-73298371D01*
X160589122Y-73298371D02*
X160541503Y-73203133D01*
X160541503Y-73203133D02*
X160541503Y-73107895D01*
X160541503Y-73107895D02*
X160589122Y-73012657D01*
X160589122Y-73012657D02*
X160636741Y-72965038D01*
X160636741Y-72965038D02*
X160731979Y-72917419D01*
X160731979Y-72917419D02*
X160970074Y-72917419D01*
X160970074Y-72917419D02*
X161112931Y-72965038D01*
X162589122Y-74298371D02*
X162541503Y-74250752D01*
X162541503Y-74250752D02*
X162446265Y-74107895D01*
X162446265Y-74107895D02*
X162398646Y-74012657D01*
X162398646Y-74012657D02*
X162351027Y-73869800D01*
X162351027Y-73869800D02*
X162303408Y-73631704D01*
X162303408Y-73631704D02*
X162303408Y-73441228D01*
X162303408Y-73441228D02*
X162351027Y-73203133D01*
X162351027Y-73203133D02*
X162398646Y-73060276D01*
X162398646Y-73060276D02*
X162446265Y-72965038D01*
X162446265Y-72965038D02*
X162541503Y-72822180D01*
X162541503Y-72822180D02*
X162589122Y-72774561D01*
X162874837Y-72917419D02*
X163541503Y-73917419D01*
X163541503Y-72917419D02*
X162874837Y-73917419D01*
X163827218Y-74298371D02*
X163874837Y-74250752D01*
X163874837Y-74250752D02*
X163970075Y-74107895D01*
X163970075Y-74107895D02*
X164017694Y-74012657D01*
X164017694Y-74012657D02*
X164065313Y-73869800D01*
X164065313Y-73869800D02*
X164112932Y-73631704D01*
X164112932Y-73631704D02*
X164112932Y-73441228D01*
X164112932Y-73441228D02*
X164065313Y-73203133D01*
X164065313Y-73203133D02*
X164017694Y-73060276D01*
X164017694Y-73060276D02*
X163970075Y-72965038D01*
X163970075Y-72965038D02*
X163874837Y-72822180D01*
X163874837Y-72822180D02*
X163827218Y-72774561D01*
X159636741Y-75439086D02*
X160255788Y-75439086D01*
X160255788Y-75439086D02*
X159922455Y-75820038D01*
X159922455Y-75820038D02*
X160065312Y-75820038D01*
X160065312Y-75820038D02*
X160160550Y-75867657D01*
X160160550Y-75867657D02*
X160208169Y-75915276D01*
X160208169Y-75915276D02*
X160255788Y-76010514D01*
X160255788Y-76010514D02*
X160255788Y-76248609D01*
X160255788Y-76248609D02*
X160208169Y-76343847D01*
X160208169Y-76343847D02*
X160160550Y-76391467D01*
X160160550Y-76391467D02*
X160065312Y-76439086D01*
X160065312Y-76439086D02*
X159779598Y-76439086D01*
X159779598Y-76439086D02*
X159684360Y-76391467D01*
X159684360Y-76391467D02*
X159636741Y-76343847D01*
X160541503Y-75439086D02*
X160874836Y-76439086D01*
X160874836Y-76439086D02*
X161208169Y-75439086D01*
X162589122Y-76820038D02*
X162541503Y-76772419D01*
X162541503Y-76772419D02*
X162446265Y-76629562D01*
X162446265Y-76629562D02*
X162398646Y-76534324D01*
X162398646Y-76534324D02*
X162351027Y-76391467D01*
X162351027Y-76391467D02*
X162303408Y-76153371D01*
X162303408Y-76153371D02*
X162303408Y-75962895D01*
X162303408Y-75962895D02*
X162351027Y-75724800D01*
X162351027Y-75724800D02*
X162398646Y-75581943D01*
X162398646Y-75581943D02*
X162446265Y-75486705D01*
X162446265Y-75486705D02*
X162541503Y-75343847D01*
X162541503Y-75343847D02*
X162589122Y-75296228D01*
X162874837Y-75439086D02*
X163541503Y-76439086D01*
X163541503Y-75439086D02*
X162874837Y-76439086D01*
X163827218Y-76820038D02*
X163874837Y-76772419D01*
X163874837Y-76772419D02*
X163970075Y-76629562D01*
X163970075Y-76629562D02*
X164017694Y-76534324D01*
X164017694Y-76534324D02*
X164065313Y-76391467D01*
X164065313Y-76391467D02*
X164112932Y-76153371D01*
X164112932Y-76153371D02*
X164112932Y-75962895D01*
X164112932Y-75962895D02*
X164065313Y-75724800D01*
X164065313Y-75724800D02*
X164017694Y-75581943D01*
X164017694Y-75581943D02*
X163970075Y-75486705D01*
X163970075Y-75486705D02*
X163874837Y-75343847D01*
X163874837Y-75343847D02*
X163827218Y-75296228D01*
X162303409Y-77960752D02*
X162970075Y-78960752D01*
X162970075Y-77960752D02*
X162303409Y-78960752D01*
X163351028Y-78579799D02*
X164112933Y-78579799D01*
X163731980Y-78960752D02*
X163731980Y-78198847D01*
X162684361Y-81006228D02*
X162684361Y-81482419D01*
X162351028Y-80482419D02*
X162684361Y-81006228D01*
X162684361Y-81006228D02*
X163017694Y-80482419D01*
X163351028Y-81101466D02*
X164112933Y-81101466D01*
X163731980Y-81482419D02*
X163731980Y-80720514D01*
X171773884Y-68847419D02*
X171773884Y-67847419D01*
X171773884Y-67847419D02*
X172011979Y-67847419D01*
X172011979Y-67847419D02*
X172154836Y-67895038D01*
X172154836Y-67895038D02*
X172250074Y-67990276D01*
X172250074Y-67990276D02*
X172297693Y-68085514D01*
X172297693Y-68085514D02*
X172345312Y-68275990D01*
X172345312Y-68275990D02*
X172345312Y-68418847D01*
X172345312Y-68418847D02*
X172297693Y-68609323D01*
X172297693Y-68609323D02*
X172250074Y-68704561D01*
X172250074Y-68704561D02*
X172154836Y-68799800D01*
X172154836Y-68799800D02*
X172011979Y-68847419D01*
X172011979Y-68847419D02*
X171773884Y-68847419D01*
X172964360Y-67847419D02*
X173154836Y-67847419D01*
X173154836Y-67847419D02*
X173250074Y-67895038D01*
X173250074Y-67895038D02*
X173345312Y-67990276D01*
X173345312Y-67990276D02*
X173392931Y-68180752D01*
X173392931Y-68180752D02*
X173392931Y-68514085D01*
X173392931Y-68514085D02*
X173345312Y-68704561D01*
X173345312Y-68704561D02*
X173250074Y-68799800D01*
X173250074Y-68799800D02*
X173154836Y-68847419D01*
X173154836Y-68847419D02*
X172964360Y-68847419D01*
X172964360Y-68847419D02*
X172869122Y-68799800D01*
X172869122Y-68799800D02*
X172773884Y-68704561D01*
X172773884Y-68704561D02*
X172726265Y-68514085D01*
X172726265Y-68514085D02*
X172726265Y-68180752D01*
X172726265Y-68180752D02*
X172773884Y-67990276D01*
X172773884Y-67990276D02*
X172869122Y-67895038D01*
X172869122Y-67895038D02*
X172964360Y-67847419D01*
X174869122Y-69228371D02*
X174821503Y-69180752D01*
X174821503Y-69180752D02*
X174726265Y-69037895D01*
X174726265Y-69037895D02*
X174678646Y-68942657D01*
X174678646Y-68942657D02*
X174631027Y-68799800D01*
X174631027Y-68799800D02*
X174583408Y-68561704D01*
X174583408Y-68561704D02*
X174583408Y-68371228D01*
X174583408Y-68371228D02*
X174631027Y-68133133D01*
X174631027Y-68133133D02*
X174678646Y-67990276D01*
X174678646Y-67990276D02*
X174726265Y-67895038D01*
X174726265Y-67895038D02*
X174821503Y-67752180D01*
X174821503Y-67752180D02*
X174869122Y-67704561D01*
X175440551Y-68371228D02*
X175440551Y-68847419D01*
X175107218Y-67847419D02*
X175440551Y-68371228D01*
X175440551Y-68371228D02*
X175773884Y-67847419D01*
X176011980Y-69228371D02*
X176059599Y-69180752D01*
X176059599Y-69180752D02*
X176154837Y-69037895D01*
X176154837Y-69037895D02*
X176202456Y-68942657D01*
X176202456Y-68942657D02*
X176250075Y-68799800D01*
X176250075Y-68799800D02*
X176297694Y-68561704D01*
X176297694Y-68561704D02*
X176297694Y-68371228D01*
X176297694Y-68371228D02*
X176250075Y-68133133D01*
X176250075Y-68133133D02*
X176202456Y-67990276D01*
X176202456Y-67990276D02*
X176154837Y-67895038D01*
X176154837Y-67895038D02*
X176059599Y-67752180D01*
X176059599Y-67752180D02*
X176011980Y-67704561D01*
X171678646Y-75422419D02*
X172297693Y-75422419D01*
X172297693Y-75422419D02*
X171964360Y-75803371D01*
X171964360Y-75803371D02*
X172107217Y-75803371D01*
X172107217Y-75803371D02*
X172202455Y-75850990D01*
X172202455Y-75850990D02*
X172250074Y-75898609D01*
X172250074Y-75898609D02*
X172297693Y-75993847D01*
X172297693Y-75993847D02*
X172297693Y-76231942D01*
X172297693Y-76231942D02*
X172250074Y-76327180D01*
X172250074Y-76327180D02*
X172202455Y-76374800D01*
X172202455Y-76374800D02*
X172107217Y-76422419D01*
X172107217Y-76422419D02*
X171821503Y-76422419D01*
X171821503Y-76422419D02*
X171726265Y-76374800D01*
X171726265Y-76374800D02*
X171678646Y-76327180D01*
X172583408Y-75422419D02*
X172916741Y-76422419D01*
X172916741Y-76422419D02*
X173250074Y-75422419D01*
X174631027Y-76803371D02*
X174583408Y-76755752D01*
X174583408Y-76755752D02*
X174488170Y-76612895D01*
X174488170Y-76612895D02*
X174440551Y-76517657D01*
X174440551Y-76517657D02*
X174392932Y-76374800D01*
X174392932Y-76374800D02*
X174345313Y-76136704D01*
X174345313Y-76136704D02*
X174345313Y-75946228D01*
X174345313Y-75946228D02*
X174392932Y-75708133D01*
X174392932Y-75708133D02*
X174440551Y-75565276D01*
X174440551Y-75565276D02*
X174488170Y-75470038D01*
X174488170Y-75470038D02*
X174583408Y-75327180D01*
X174583408Y-75327180D02*
X174631027Y-75279561D01*
X175202456Y-75946228D02*
X175202456Y-76422419D01*
X174869123Y-75422419D02*
X175202456Y-75946228D01*
X175202456Y-75946228D02*
X175535789Y-75422419D01*
X175773885Y-76803371D02*
X175821504Y-76755752D01*
X175821504Y-76755752D02*
X175916742Y-76612895D01*
X175916742Y-76612895D02*
X175964361Y-76517657D01*
X175964361Y-76517657D02*
X176011980Y-76374800D01*
X176011980Y-76374800D02*
X176059599Y-76136704D01*
X176059599Y-76136704D02*
X176059599Y-75946228D01*
X176059599Y-75946228D02*
X176011980Y-75708133D01*
X176011980Y-75708133D02*
X175964361Y-75565276D01*
X175964361Y-75565276D02*
X175916742Y-75470038D01*
X175916742Y-75470038D02*
X175821504Y-75327180D01*
X175821504Y-75327180D02*
X175773885Y-75279561D01*
X172297693Y-65370038D02*
X172202455Y-65322419D01*
X172202455Y-65322419D02*
X172059598Y-65322419D01*
X172059598Y-65322419D02*
X171916741Y-65370038D01*
X171916741Y-65370038D02*
X171821503Y-65465276D01*
X171821503Y-65465276D02*
X171773884Y-65560514D01*
X171773884Y-65560514D02*
X171726265Y-65750990D01*
X171726265Y-65750990D02*
X171726265Y-65893847D01*
X171726265Y-65893847D02*
X171773884Y-66084323D01*
X171773884Y-66084323D02*
X171821503Y-66179561D01*
X171821503Y-66179561D02*
X171916741Y-66274800D01*
X171916741Y-66274800D02*
X172059598Y-66322419D01*
X172059598Y-66322419D02*
X172154836Y-66322419D01*
X172154836Y-66322419D02*
X172297693Y-66274800D01*
X172297693Y-66274800D02*
X172345312Y-66227180D01*
X172345312Y-66227180D02*
X172345312Y-65893847D01*
X172345312Y-65893847D02*
X172154836Y-65893847D01*
X172773884Y-66322419D02*
X172773884Y-65322419D01*
X172773884Y-65322419D02*
X173345312Y-66322419D01*
X173345312Y-66322419D02*
X173345312Y-65322419D01*
X173821503Y-66322419D02*
X173821503Y-65322419D01*
X173821503Y-65322419D02*
X174059598Y-65322419D01*
X174059598Y-65322419D02*
X174202455Y-65370038D01*
X174202455Y-65370038D02*
X174297693Y-65465276D01*
X174297693Y-65465276D02*
X174345312Y-65560514D01*
X174345312Y-65560514D02*
X174392931Y-65750990D01*
X174392931Y-65750990D02*
X174392931Y-65893847D01*
X174392931Y-65893847D02*
X174345312Y-66084323D01*
X174345312Y-66084323D02*
X174297693Y-66179561D01*
X174297693Y-66179561D02*
X174202455Y-66274800D01*
X174202455Y-66274800D02*
X174059598Y-66322419D01*
X174059598Y-66322419D02*
X173821503Y-66322419D01*
X175869122Y-66703371D02*
X175821503Y-66655752D01*
X175821503Y-66655752D02*
X175726265Y-66512895D01*
X175726265Y-66512895D02*
X175678646Y-66417657D01*
X175678646Y-66417657D02*
X175631027Y-66274800D01*
X175631027Y-66274800D02*
X175583408Y-66036704D01*
X175583408Y-66036704D02*
X175583408Y-65846228D01*
X175583408Y-65846228D02*
X175631027Y-65608133D01*
X175631027Y-65608133D02*
X175678646Y-65465276D01*
X175678646Y-65465276D02*
X175726265Y-65370038D01*
X175726265Y-65370038D02*
X175821503Y-65227180D01*
X175821503Y-65227180D02*
X175869122Y-65179561D01*
X176440551Y-65846228D02*
X176440551Y-66322419D01*
X176107218Y-65322419D02*
X176440551Y-65846228D01*
X176440551Y-65846228D02*
X176773884Y-65322419D01*
X177011980Y-66703371D02*
X177059599Y-66655752D01*
X177059599Y-66655752D02*
X177154837Y-66512895D01*
X177154837Y-66512895D02*
X177202456Y-66417657D01*
X177202456Y-66417657D02*
X177250075Y-66274800D01*
X177250075Y-66274800D02*
X177297694Y-66036704D01*
X177297694Y-66036704D02*
X177297694Y-65846228D01*
X177297694Y-65846228D02*
X177250075Y-65608133D01*
X177250075Y-65608133D02*
X177202456Y-65465276D01*
X177202456Y-65465276D02*
X177154837Y-65370038D01*
X177154837Y-65370038D02*
X177059599Y-65227180D01*
X177059599Y-65227180D02*
X177011980Y-65179561D01*
X172345312Y-73802180D02*
X172297693Y-73849800D01*
X172297693Y-73849800D02*
X172154836Y-73897419D01*
X172154836Y-73897419D02*
X172059598Y-73897419D01*
X172059598Y-73897419D02*
X171916741Y-73849800D01*
X171916741Y-73849800D02*
X171821503Y-73754561D01*
X171821503Y-73754561D02*
X171773884Y-73659323D01*
X171773884Y-73659323D02*
X171726265Y-73468847D01*
X171726265Y-73468847D02*
X171726265Y-73325990D01*
X171726265Y-73325990D02*
X171773884Y-73135514D01*
X171773884Y-73135514D02*
X171821503Y-73040276D01*
X171821503Y-73040276D02*
X171916741Y-72945038D01*
X171916741Y-72945038D02*
X172059598Y-72897419D01*
X172059598Y-72897419D02*
X172154836Y-72897419D01*
X172154836Y-72897419D02*
X172297693Y-72945038D01*
X172297693Y-72945038D02*
X172345312Y-72992657D01*
X172726265Y-73849800D02*
X172869122Y-73897419D01*
X172869122Y-73897419D02*
X173107217Y-73897419D01*
X173107217Y-73897419D02*
X173202455Y-73849800D01*
X173202455Y-73849800D02*
X173250074Y-73802180D01*
X173250074Y-73802180D02*
X173297693Y-73706942D01*
X173297693Y-73706942D02*
X173297693Y-73611704D01*
X173297693Y-73611704D02*
X173250074Y-73516466D01*
X173250074Y-73516466D02*
X173202455Y-73468847D01*
X173202455Y-73468847D02*
X173107217Y-73421228D01*
X173107217Y-73421228D02*
X172916741Y-73373609D01*
X172916741Y-73373609D02*
X172821503Y-73325990D01*
X172821503Y-73325990D02*
X172773884Y-73278371D01*
X172773884Y-73278371D02*
X172726265Y-73183133D01*
X172726265Y-73183133D02*
X172726265Y-73087895D01*
X172726265Y-73087895D02*
X172773884Y-72992657D01*
X172773884Y-72992657D02*
X172821503Y-72945038D01*
X172821503Y-72945038D02*
X172916741Y-72897419D01*
X172916741Y-72897419D02*
X173154836Y-72897419D01*
X173154836Y-72897419D02*
X173297693Y-72945038D01*
X174773884Y-74278371D02*
X174726265Y-74230752D01*
X174726265Y-74230752D02*
X174631027Y-74087895D01*
X174631027Y-74087895D02*
X174583408Y-73992657D01*
X174583408Y-73992657D02*
X174535789Y-73849800D01*
X174535789Y-73849800D02*
X174488170Y-73611704D01*
X174488170Y-73611704D02*
X174488170Y-73421228D01*
X174488170Y-73421228D02*
X174535789Y-73183133D01*
X174535789Y-73183133D02*
X174583408Y-73040276D01*
X174583408Y-73040276D02*
X174631027Y-72945038D01*
X174631027Y-72945038D02*
X174726265Y-72802180D01*
X174726265Y-72802180D02*
X174773884Y-72754561D01*
X175345313Y-73421228D02*
X175345313Y-73897419D01*
X175011980Y-72897419D02*
X175345313Y-73421228D01*
X175345313Y-73421228D02*
X175678646Y-72897419D01*
X175916742Y-74278371D02*
X175964361Y-74230752D01*
X175964361Y-74230752D02*
X176059599Y-74087895D01*
X176059599Y-74087895D02*
X176107218Y-73992657D01*
X176107218Y-73992657D02*
X176154837Y-73849800D01*
X176154837Y-73849800D02*
X176202456Y-73611704D01*
X176202456Y-73611704D02*
X176202456Y-73421228D01*
X176202456Y-73421228D02*
X176154837Y-73183133D01*
X176154837Y-73183133D02*
X176107218Y-73040276D01*
X176107218Y-73040276D02*
X176059599Y-72945038D01*
X176059599Y-72945038D02*
X175964361Y-72802180D01*
X175964361Y-72802180D02*
X175916742Y-72754561D01*
X172345312Y-71277180D02*
X172297693Y-71324800D01*
X172297693Y-71324800D02*
X172154836Y-71372419D01*
X172154836Y-71372419D02*
X172059598Y-71372419D01*
X172059598Y-71372419D02*
X171916741Y-71324800D01*
X171916741Y-71324800D02*
X171821503Y-71229561D01*
X171821503Y-71229561D02*
X171773884Y-71134323D01*
X171773884Y-71134323D02*
X171726265Y-70943847D01*
X171726265Y-70943847D02*
X171726265Y-70800990D01*
X171726265Y-70800990D02*
X171773884Y-70610514D01*
X171773884Y-70610514D02*
X171821503Y-70515276D01*
X171821503Y-70515276D02*
X171916741Y-70420038D01*
X171916741Y-70420038D02*
X172059598Y-70372419D01*
X172059598Y-70372419D02*
X172154836Y-70372419D01*
X172154836Y-70372419D02*
X172297693Y-70420038D01*
X172297693Y-70420038D02*
X172345312Y-70467657D01*
X173250074Y-71372419D02*
X172773884Y-71372419D01*
X172773884Y-71372419D02*
X172773884Y-70372419D01*
X173583408Y-71372419D02*
X173583408Y-70372419D01*
X174154836Y-71372419D02*
X173726265Y-70800990D01*
X174154836Y-70372419D02*
X173583408Y-70943847D01*
X175631027Y-71753371D02*
X175583408Y-71705752D01*
X175583408Y-71705752D02*
X175488170Y-71562895D01*
X175488170Y-71562895D02*
X175440551Y-71467657D01*
X175440551Y-71467657D02*
X175392932Y-71324800D01*
X175392932Y-71324800D02*
X175345313Y-71086704D01*
X175345313Y-71086704D02*
X175345313Y-70896228D01*
X175345313Y-70896228D02*
X175392932Y-70658133D01*
X175392932Y-70658133D02*
X175440551Y-70515276D01*
X175440551Y-70515276D02*
X175488170Y-70420038D01*
X175488170Y-70420038D02*
X175583408Y-70277180D01*
X175583408Y-70277180D02*
X175631027Y-70229561D01*
X176202456Y-70896228D02*
X176202456Y-71372419D01*
X175869123Y-70372419D02*
X176202456Y-70896228D01*
X176202456Y-70896228D02*
X176535789Y-70372419D01*
X176773885Y-71753371D02*
X176821504Y-71705752D01*
X176821504Y-71705752D02*
X176916742Y-71562895D01*
X176916742Y-71562895D02*
X176964361Y-71467657D01*
X176964361Y-71467657D02*
X177011980Y-71324800D01*
X177011980Y-71324800D02*
X177059599Y-71086704D01*
X177059599Y-71086704D02*
X177059599Y-70896228D01*
X177059599Y-70896228D02*
X177011980Y-70658133D01*
X177011980Y-70658133D02*
X176964361Y-70515276D01*
X176964361Y-70515276D02*
X176916742Y-70420038D01*
X176916742Y-70420038D02*
X176821504Y-70277180D01*
X176821504Y-70277180D02*
X176773885Y-70229561D01*
X171678646Y-77947419D02*
X172345312Y-78947419D01*
X172345312Y-77947419D02*
X171678646Y-78947419D01*
X172726265Y-78566466D02*
X173488170Y-78566466D01*
X171964360Y-80996228D02*
X171964360Y-81472419D01*
X171631027Y-80472419D02*
X171964360Y-80996228D01*
X171964360Y-80996228D02*
X172297693Y-80472419D01*
X172631027Y-81091466D02*
X173392932Y-81091466D01*
X159017693Y-65400038D02*
X158922455Y-65352419D01*
X158922455Y-65352419D02*
X158779598Y-65352419D01*
X158779598Y-65352419D02*
X158636741Y-65400038D01*
X158636741Y-65400038D02*
X158541503Y-65495276D01*
X158541503Y-65495276D02*
X158493884Y-65590514D01*
X158493884Y-65590514D02*
X158446265Y-65780990D01*
X158446265Y-65780990D02*
X158446265Y-65923847D01*
X158446265Y-65923847D02*
X158493884Y-66114323D01*
X158493884Y-66114323D02*
X158541503Y-66209561D01*
X158541503Y-66209561D02*
X158636741Y-66304800D01*
X158636741Y-66304800D02*
X158779598Y-66352419D01*
X158779598Y-66352419D02*
X158874836Y-66352419D01*
X158874836Y-66352419D02*
X159017693Y-66304800D01*
X159017693Y-66304800D02*
X159065312Y-66257180D01*
X159065312Y-66257180D02*
X159065312Y-65923847D01*
X159065312Y-65923847D02*
X158874836Y-65923847D01*
X159493884Y-66352419D02*
X159493884Y-65352419D01*
X159493884Y-65352419D02*
X160065312Y-66352419D01*
X160065312Y-66352419D02*
X160065312Y-65352419D01*
X160541503Y-66352419D02*
X160541503Y-65352419D01*
X160541503Y-65352419D02*
X160779598Y-65352419D01*
X160779598Y-65352419D02*
X160922455Y-65400038D01*
X160922455Y-65400038D02*
X161017693Y-65495276D01*
X161017693Y-65495276D02*
X161065312Y-65590514D01*
X161065312Y-65590514D02*
X161112931Y-65780990D01*
X161112931Y-65780990D02*
X161112931Y-65923847D01*
X161112931Y-65923847D02*
X161065312Y-66114323D01*
X161065312Y-66114323D02*
X161017693Y-66209561D01*
X161017693Y-66209561D02*
X160922455Y-66304800D01*
X160922455Y-66304800D02*
X160779598Y-66352419D01*
X160779598Y-66352419D02*
X160541503Y-66352419D01*
X162589122Y-66733371D02*
X162541503Y-66685752D01*
X162541503Y-66685752D02*
X162446265Y-66542895D01*
X162446265Y-66542895D02*
X162398646Y-66447657D01*
X162398646Y-66447657D02*
X162351027Y-66304800D01*
X162351027Y-66304800D02*
X162303408Y-66066704D01*
X162303408Y-66066704D02*
X162303408Y-65876228D01*
X162303408Y-65876228D02*
X162351027Y-65638133D01*
X162351027Y-65638133D02*
X162398646Y-65495276D01*
X162398646Y-65495276D02*
X162446265Y-65400038D01*
X162446265Y-65400038D02*
X162541503Y-65257180D01*
X162541503Y-65257180D02*
X162589122Y-65209561D01*
X162874837Y-65352419D02*
X163541503Y-66352419D01*
X163541503Y-65352419D02*
X162874837Y-66352419D01*
X163827218Y-66733371D02*
X163874837Y-66685752D01*
X163874837Y-66685752D02*
X163970075Y-66542895D01*
X163970075Y-66542895D02*
X164017694Y-66447657D01*
X164017694Y-66447657D02*
X164065313Y-66304800D01*
X164065313Y-66304800D02*
X164112932Y-66066704D01*
X164112932Y-66066704D02*
X164112932Y-65876228D01*
X164112932Y-65876228D02*
X164065313Y-65638133D01*
X164065313Y-65638133D02*
X164017694Y-65495276D01*
X164017694Y-65495276D02*
X163970075Y-65400038D01*
X163970075Y-65400038D02*
X163874837Y-65257180D01*
X163874837Y-65257180D02*
X163827218Y-65209561D01*
D10*
X124865153Y-110227257D02*
X124865153Y-107227257D01*
X124865153Y-107227257D02*
X126008010Y-107227257D01*
X126008010Y-107227257D02*
X126293725Y-107370114D01*
X126293725Y-107370114D02*
X126436582Y-107512971D01*
X126436582Y-107512971D02*
X126579439Y-107798685D01*
X126579439Y-107798685D02*
X126579439Y-108227257D01*
X126579439Y-108227257D02*
X126436582Y-108512971D01*
X126436582Y-108512971D02*
X126293725Y-108655828D01*
X126293725Y-108655828D02*
X126008010Y-108798685D01*
X126008010Y-108798685D02*
X124865153Y-108798685D01*
X127865153Y-110227257D02*
X127865153Y-107227257D01*
X129293724Y-108655828D02*
X130293724Y-108655828D01*
X130722296Y-110227257D02*
X129293724Y-110227257D01*
X129293724Y-110227257D02*
X129293724Y-107227257D01*
X129293724Y-107227257D02*
X130722296Y-107227257D01*
X131722296Y-107227257D02*
X133722296Y-107227257D01*
X133722296Y-107227257D02*
X131722296Y-110227257D01*
X131722296Y-110227257D02*
X133722296Y-110227257D01*
X135436582Y-107227257D02*
X136008010Y-107227257D01*
X136008010Y-107227257D02*
X136293725Y-107370114D01*
X136293725Y-107370114D02*
X136579439Y-107655828D01*
X136579439Y-107655828D02*
X136722296Y-108227257D01*
X136722296Y-108227257D02*
X136722296Y-109227257D01*
X136722296Y-109227257D02*
X136579439Y-109798685D01*
X136579439Y-109798685D02*
X136293725Y-110084400D01*
X136293725Y-110084400D02*
X136008010Y-110227257D01*
X136008010Y-110227257D02*
X135436582Y-110227257D01*
X135436582Y-110227257D02*
X135150868Y-110084400D01*
X135150868Y-110084400D02*
X134865153Y-109798685D01*
X134865153Y-109798685D02*
X134722296Y-109227257D01*
X134722296Y-109227257D02*
X134722296Y-108227257D01*
X134722296Y-108227257D02*
X134865153Y-107655828D01*
X134865153Y-107655828D02*
X135150868Y-107370114D01*
X135150868Y-107370114D02*
X135436582Y-107227257D01*
X140293724Y-110227257D02*
X140293724Y-107227257D01*
X140293724Y-107227257D02*
X141008010Y-107227257D01*
X141008010Y-107227257D02*
X141436581Y-107370114D01*
X141436581Y-107370114D02*
X141722296Y-107655828D01*
X141722296Y-107655828D02*
X141865153Y-107941542D01*
X141865153Y-107941542D02*
X142008010Y-108512971D01*
X142008010Y-108512971D02*
X142008010Y-108941542D01*
X142008010Y-108941542D02*
X141865153Y-109512971D01*
X141865153Y-109512971D02*
X141722296Y-109798685D01*
X141722296Y-109798685D02*
X141436581Y-110084400D01*
X141436581Y-110084400D02*
X141008010Y-110227257D01*
X141008010Y-110227257D02*
X140293724Y-110227257D01*
X145008010Y-110227257D02*
X144008010Y-108798685D01*
X143293724Y-110227257D02*
X143293724Y-107227257D01*
X143293724Y-107227257D02*
X144436581Y-107227257D01*
X144436581Y-107227257D02*
X144722296Y-107370114D01*
X144722296Y-107370114D02*
X144865153Y-107512971D01*
X144865153Y-107512971D02*
X145008010Y-107798685D01*
X145008010Y-107798685D02*
X145008010Y-108227257D01*
X145008010Y-108227257D02*
X144865153Y-108512971D01*
X144865153Y-108512971D02*
X144722296Y-108655828D01*
X144722296Y-108655828D02*
X144436581Y-108798685D01*
X144436581Y-108798685D02*
X143293724Y-108798685D01*
X146293724Y-110227257D02*
X146293724Y-107227257D01*
X147293724Y-107227257D02*
X148293724Y-110227257D01*
X148293724Y-110227257D02*
X149293724Y-107227257D01*
X150293724Y-108655828D02*
X151293724Y-108655828D01*
X151722296Y-110227257D02*
X150293724Y-110227257D01*
X150293724Y-110227257D02*
X150293724Y-107227257D01*
X150293724Y-107227257D02*
X151722296Y-107227257D01*
X154722296Y-110227257D02*
X153722296Y-108798685D01*
X153008010Y-110227257D02*
X153008010Y-107227257D01*
X153008010Y-107227257D02*
X154150867Y-107227257D01*
X154150867Y-107227257D02*
X154436582Y-107370114D01*
X154436582Y-107370114D02*
X154579439Y-107512971D01*
X154579439Y-107512971D02*
X154722296Y-107798685D01*
X154722296Y-107798685D02*
X154722296Y-108227257D01*
X154722296Y-108227257D02*
X154579439Y-108512971D01*
X154579439Y-108512971D02*
X154436582Y-108655828D01*
X154436582Y-108655828D02*
X154150867Y-108798685D01*
X154150867Y-108798685D02*
X153008010Y-108798685D01*
X105858796Y-73390114D02*
X107287368Y-73390114D01*
X105573082Y-74247257D02*
X106573082Y-71247257D01*
X106573082Y-71247257D02*
X107573082Y-74247257D01*
X108573082Y-74247257D02*
X108573082Y-71247257D01*
X108573082Y-71247257D02*
X109287368Y-71247257D01*
X109287368Y-71247257D02*
X109715939Y-71390114D01*
X109715939Y-71390114D02*
X110001654Y-71675828D01*
X110001654Y-71675828D02*
X110144511Y-71961542D01*
X110144511Y-71961542D02*
X110287368Y-72532971D01*
X110287368Y-72532971D02*
X110287368Y-72961542D01*
X110287368Y-72961542D02*
X110144511Y-73532971D01*
X110144511Y-73532971D02*
X110001654Y-73818685D01*
X110001654Y-73818685D02*
X109715939Y-74104400D01*
X109715939Y-74104400D02*
X109287368Y-74247257D01*
X109287368Y-74247257D02*
X108573082Y-74247257D01*
X111430225Y-73390114D02*
X112858797Y-73390114D01*
X111144511Y-74247257D02*
X112144511Y-71247257D01*
X112144511Y-71247257D02*
X113144511Y-74247257D01*
X115144511Y-72675828D02*
X114144511Y-72675828D01*
X114144511Y-74247257D02*
X114144511Y-71247257D01*
X114144511Y-71247257D02*
X115573083Y-71247257D01*
X118430226Y-74247257D02*
X117430226Y-72818685D01*
X116715940Y-74247257D02*
X116715940Y-71247257D01*
X116715940Y-71247257D02*
X117858797Y-71247257D01*
X117858797Y-71247257D02*
X118144512Y-71390114D01*
X118144512Y-71390114D02*
X118287369Y-71532971D01*
X118287369Y-71532971D02*
X118430226Y-71818685D01*
X118430226Y-71818685D02*
X118430226Y-72247257D01*
X118430226Y-72247257D02*
X118287369Y-72532971D01*
X118287369Y-72532971D02*
X118144512Y-72675828D01*
X118144512Y-72675828D02*
X117858797Y-72818685D01*
X117858797Y-72818685D02*
X116715940Y-72818685D01*
X119715940Y-71247257D02*
X119715940Y-73675828D01*
X119715940Y-73675828D02*
X119858797Y-73961542D01*
X119858797Y-73961542D02*
X120001655Y-74104400D01*
X120001655Y-74104400D02*
X120287369Y-74247257D01*
X120287369Y-74247257D02*
X120858797Y-74247257D01*
X120858797Y-74247257D02*
X121144512Y-74104400D01*
X121144512Y-74104400D02*
X121287369Y-73961542D01*
X121287369Y-73961542D02*
X121430226Y-73675828D01*
X121430226Y-73675828D02*
X121430226Y-71247257D01*
X122858797Y-74247257D02*
X122858797Y-71247257D01*
X123858797Y-71247257D02*
X125573083Y-71247257D01*
X124715940Y-74247257D02*
X124715940Y-71247257D01*
X129858796Y-72675828D02*
X128858796Y-72675828D01*
X128858796Y-74247257D02*
X128858796Y-71247257D01*
X128858796Y-71247257D02*
X130287368Y-71247257D01*
X131430225Y-72675828D02*
X132430225Y-72675828D01*
X132858797Y-74247257D02*
X131430225Y-74247257D01*
X131430225Y-74247257D02*
X131430225Y-71247257D01*
X131430225Y-71247257D02*
X132858797Y-71247257D01*
X134001654Y-73390114D02*
X135430226Y-73390114D01*
X133715940Y-74247257D02*
X134715940Y-71247257D01*
X134715940Y-71247257D02*
X135715940Y-74247257D01*
X136287369Y-71247257D02*
X138001655Y-71247257D01*
X137144512Y-74247257D02*
X137144512Y-71247257D01*
X139001654Y-74247257D02*
X139001654Y-71247257D01*
X139001654Y-72675828D02*
X140715940Y-72675828D01*
X140715940Y-74247257D02*
X140715940Y-71247257D01*
X142144511Y-72675828D02*
X143144511Y-72675828D01*
X143573083Y-74247257D02*
X142144511Y-74247257D01*
X142144511Y-74247257D02*
X142144511Y-71247257D01*
X142144511Y-71247257D02*
X143573083Y-71247257D01*
X146573083Y-74247257D02*
X145573083Y-72818685D01*
X144858797Y-74247257D02*
X144858797Y-71247257D01*
X144858797Y-71247257D02*
X146001654Y-71247257D01*
X146001654Y-71247257D02*
X146287369Y-71390114D01*
X146287369Y-71390114D02*
X146430226Y-71532971D01*
X146430226Y-71532971D02*
X146573083Y-71818685D01*
X146573083Y-71818685D02*
X146573083Y-72247257D01*
X146573083Y-72247257D02*
X146430226Y-72532971D01*
X146430226Y-72532971D02*
X146287369Y-72675828D01*
X146287369Y-72675828D02*
X146001654Y-72818685D01*
X146001654Y-72818685D02*
X144858797Y-72818685D01*
X150144511Y-74247257D02*
X150144511Y-71247257D01*
X150144511Y-71247257D02*
X151144511Y-73390114D01*
X151144511Y-73390114D02*
X152144511Y-71247257D01*
X152144511Y-71247257D02*
X152144511Y-74247257D01*
X154858797Y-72247257D02*
X154858797Y-74247257D01*
X154144511Y-71104400D02*
X153430225Y-73247257D01*
X153430225Y-73247257D02*
X155287368Y-73247257D01*
D12*
X102849805Y-102580579D02*
X102087805Y-102834579D01*
X102087805Y-102834579D02*
X102849805Y-103088579D01*
X102124091Y-103306293D02*
X102087805Y-103415151D01*
X102087805Y-103415151D02*
X102087805Y-103596579D01*
X102087805Y-103596579D02*
X102124091Y-103669151D01*
X102124091Y-103669151D02*
X102160376Y-103705436D01*
X102160376Y-103705436D02*
X102232948Y-103741722D01*
X102232948Y-103741722D02*
X102305519Y-103741722D01*
X102305519Y-103741722D02*
X102378091Y-103705436D01*
X102378091Y-103705436D02*
X102414376Y-103669151D01*
X102414376Y-103669151D02*
X102450662Y-103596579D01*
X102450662Y-103596579D02*
X102486948Y-103451436D01*
X102486948Y-103451436D02*
X102523233Y-103378865D01*
X102523233Y-103378865D02*
X102559519Y-103342579D01*
X102559519Y-103342579D02*
X102632091Y-103306293D01*
X102632091Y-103306293D02*
X102704662Y-103306293D01*
X102704662Y-103306293D02*
X102777233Y-103342579D01*
X102777233Y-103342579D02*
X102813519Y-103378865D01*
X102813519Y-103378865D02*
X102849805Y-103451436D01*
X102849805Y-103451436D02*
X102849805Y-103632865D01*
X102849805Y-103632865D02*
X102813519Y-103741722D01*
D13*
X167168095Y-62914819D02*
X167168095Y-63724342D01*
X167168095Y-63724342D02*
X167215714Y-63819580D01*
X167215714Y-63819580D02*
X167263333Y-63867200D01*
X167263333Y-63867200D02*
X167358571Y-63914819D01*
X167358571Y-63914819D02*
X167549047Y-63914819D01*
X167549047Y-63914819D02*
X167644285Y-63867200D01*
X167644285Y-63867200D02*
X167691904Y-63819580D01*
X167691904Y-63819580D02*
X167739523Y-63724342D01*
X167739523Y-63724342D02*
X167739523Y-62914819D01*
X168120476Y-62914819D02*
X168739523Y-62914819D01*
X168739523Y-62914819D02*
X168406190Y-63295771D01*
X168406190Y-63295771D02*
X168549047Y-63295771D01*
X168549047Y-63295771D02*
X168644285Y-63343390D01*
X168644285Y-63343390D02*
X168691904Y-63391009D01*
X168691904Y-63391009D02*
X168739523Y-63486247D01*
X168739523Y-63486247D02*
X168739523Y-63724342D01*
X168739523Y-63724342D02*
X168691904Y-63819580D01*
X168691904Y-63819580D02*
X168644285Y-63867200D01*
X168644285Y-63867200D02*
X168549047Y-63914819D01*
X168549047Y-63914819D02*
X168263333Y-63914819D01*
X168263333Y-63914819D02*
X168168095Y-63867200D01*
X168168095Y-63867200D02*
X168120476Y-63819580D01*
X138592585Y-92864819D02*
X138592585Y-93674342D01*
X138592585Y-93674342D02*
X138640204Y-93769580D01*
X138640204Y-93769580D02*
X138687823Y-93817200D01*
X138687823Y-93817200D02*
X138783061Y-93864819D01*
X138783061Y-93864819D02*
X138973537Y-93864819D01*
X138973537Y-93864819D02*
X139068775Y-93817200D01*
X139068775Y-93817200D02*
X139116394Y-93769580D01*
X139116394Y-93769580D02*
X139164013Y-93674342D01*
X139164013Y-93674342D02*
X139164013Y-92864819D01*
X140164013Y-93864819D02*
X139592585Y-93864819D01*
X139878299Y-93864819D02*
X139878299Y-92864819D01*
X139878299Y-92864819D02*
X139783061Y-93007676D01*
X139783061Y-93007676D02*
X139687823Y-93102914D01*
X139687823Y-93102914D02*
X139592585Y-93150533D01*
D12*
X174270090Y-102882815D02*
X174124947Y-102882815D01*
X174124947Y-102882815D02*
X174052376Y-102846529D01*
X174052376Y-102846529D02*
X173979804Y-102773958D01*
X173979804Y-102773958D02*
X173943519Y-102628815D01*
X173943519Y-102628815D02*
X173943519Y-102374815D01*
X173943519Y-102374815D02*
X173979804Y-102229672D01*
X173979804Y-102229672D02*
X174052376Y-102157101D01*
X174052376Y-102157101D02*
X174124947Y-102120815D01*
X174124947Y-102120815D02*
X174270090Y-102120815D01*
X174270090Y-102120815D02*
X174342662Y-102157101D01*
X174342662Y-102157101D02*
X174415233Y-102229672D01*
X174415233Y-102229672D02*
X174451519Y-102374815D01*
X174451519Y-102374815D02*
X174451519Y-102628815D01*
X174451519Y-102628815D02*
X174415233Y-102773958D01*
X174415233Y-102773958D02*
X174342662Y-102846529D01*
X174342662Y-102846529D02*
X174270090Y-102882815D01*
X173616947Y-102882815D02*
X173616947Y-102265958D01*
X173616947Y-102265958D02*
X173580661Y-102193386D01*
X173580661Y-102193386D02*
X173544376Y-102157101D01*
X173544376Y-102157101D02*
X173471804Y-102120815D01*
X173471804Y-102120815D02*
X173326661Y-102120815D01*
X173326661Y-102120815D02*
X173254090Y-102157101D01*
X173254090Y-102157101D02*
X173217804Y-102193386D01*
X173217804Y-102193386D02*
X173181518Y-102265958D01*
X173181518Y-102265958D02*
X173181518Y-102882815D01*
X172927518Y-102882815D02*
X172492090Y-102882815D01*
X172709804Y-102120815D02*
X172709804Y-102882815D01*
X172238090Y-102120815D02*
X172238090Y-102882815D01*
X172238090Y-102882815D02*
X171947804Y-102882815D01*
X171947804Y-102882815D02*
X171875233Y-102846529D01*
X171875233Y-102846529D02*
X171838947Y-102810243D01*
X171838947Y-102810243D02*
X171802661Y-102737672D01*
X171802661Y-102737672D02*
X171802661Y-102628815D01*
X171802661Y-102628815D02*
X171838947Y-102556243D01*
X171838947Y-102556243D02*
X171875233Y-102519958D01*
X171875233Y-102519958D02*
X171947804Y-102483672D01*
X171947804Y-102483672D02*
X172238090Y-102483672D01*
X171476090Y-102882815D02*
X171476090Y-102265958D01*
X171476090Y-102265958D02*
X171439804Y-102193386D01*
X171439804Y-102193386D02*
X171403519Y-102157101D01*
X171403519Y-102157101D02*
X171330947Y-102120815D01*
X171330947Y-102120815D02*
X171185804Y-102120815D01*
X171185804Y-102120815D02*
X171113233Y-102157101D01*
X171113233Y-102157101D02*
X171076947Y-102193386D01*
X171076947Y-102193386D02*
X171040661Y-102265958D01*
X171040661Y-102265958D02*
X171040661Y-102882815D01*
X170786661Y-102882815D02*
X170351233Y-102882815D01*
X170568947Y-102120815D02*
X170568947Y-102882815D01*
X170133519Y-102157101D02*
X170024662Y-102120815D01*
X170024662Y-102120815D02*
X169843233Y-102120815D01*
X169843233Y-102120815D02*
X169770662Y-102157101D01*
X169770662Y-102157101D02*
X169734376Y-102193386D01*
X169734376Y-102193386D02*
X169698090Y-102265958D01*
X169698090Y-102265958D02*
X169698090Y-102338529D01*
X169698090Y-102338529D02*
X169734376Y-102411101D01*
X169734376Y-102411101D02*
X169770662Y-102447386D01*
X169770662Y-102447386D02*
X169843233Y-102483672D01*
X169843233Y-102483672D02*
X169988376Y-102519958D01*
X169988376Y-102519958D02*
X170060947Y-102556243D01*
X170060947Y-102556243D02*
X170097233Y-102592529D01*
X170097233Y-102592529D02*
X170133519Y-102665101D01*
X170133519Y-102665101D02*
X170133519Y-102737672D01*
X170133519Y-102737672D02*
X170097233Y-102810243D01*
X170097233Y-102810243D02*
X170060947Y-102846529D01*
X170060947Y-102846529D02*
X169988376Y-102882815D01*
X169988376Y-102882815D02*
X169806947Y-102882815D01*
X169806947Y-102882815D02*
X169698090Y-102846529D01*
D14*
X168104933Y-117848314D02*
X166834933Y-117848314D01*
X166834933Y-117848314D02*
X166834933Y-117364504D01*
X166834933Y-117364504D02*
X166895409Y-117243552D01*
X166895409Y-117243552D02*
X166955885Y-117183075D01*
X166955885Y-117183075D02*
X167076837Y-117122599D01*
X167076837Y-117122599D02*
X167258266Y-117122599D01*
X167258266Y-117122599D02*
X167379218Y-117183075D01*
X167379218Y-117183075D02*
X167439695Y-117243552D01*
X167439695Y-117243552D02*
X167500171Y-117364504D01*
X167500171Y-117364504D02*
X167500171Y-117848314D01*
X168104933Y-116578314D02*
X166834933Y-116578314D01*
X166834933Y-116578314D02*
X166834933Y-116275933D01*
X166834933Y-116275933D02*
X166895409Y-116094504D01*
X166895409Y-116094504D02*
X167016361Y-115973552D01*
X167016361Y-115973552D02*
X167137314Y-115913075D01*
X167137314Y-115913075D02*
X167379218Y-115852599D01*
X167379218Y-115852599D02*
X167560647Y-115852599D01*
X167560647Y-115852599D02*
X167802552Y-115913075D01*
X167802552Y-115913075D02*
X167923504Y-115973552D01*
X167923504Y-115973552D02*
X168044457Y-116094504D01*
X168044457Y-116094504D02*
X168104933Y-116275933D01*
X168104933Y-116275933D02*
X168104933Y-116578314D01*
X167258266Y-114764028D02*
X168104933Y-114764028D01*
X167258266Y-115308314D02*
X167923504Y-115308314D01*
X167923504Y-115308314D02*
X168044457Y-115247837D01*
X168044457Y-115247837D02*
X168104933Y-115126885D01*
X168104933Y-115126885D02*
X168104933Y-114945456D01*
X168104933Y-114945456D02*
X168044457Y-114824504D01*
X168044457Y-114824504D02*
X167983980Y-114764028D01*
X168104933Y-113494027D02*
X168104933Y-114219742D01*
X168104933Y-113856885D02*
X166834933Y-113856885D01*
X166834933Y-113856885D02*
X167016361Y-113977837D01*
X167016361Y-113977837D02*
X167137314Y-114098789D01*
X167137314Y-114098789D02*
X167197790Y-114219742D01*
X166834933Y-112344980D02*
X166834933Y-112949742D01*
X166834933Y-112949742D02*
X167439695Y-113010218D01*
X167439695Y-113010218D02*
X167379218Y-112949742D01*
X167379218Y-112949742D02*
X167318742Y-112828789D01*
X167318742Y-112828789D02*
X167318742Y-112526408D01*
X167318742Y-112526408D02*
X167379218Y-112405456D01*
X167379218Y-112405456D02*
X167439695Y-112344980D01*
X167439695Y-112344980D02*
X167560647Y-112284503D01*
X167560647Y-112284503D02*
X167863028Y-112284503D01*
X167863028Y-112284503D02*
X167983980Y-112344980D01*
X167983980Y-112344980D02*
X168044457Y-112405456D01*
X168044457Y-112405456D02*
X168104933Y-112526408D01*
X168104933Y-112526408D02*
X168104933Y-112828789D01*
X168104933Y-112828789D02*
X168044457Y-112949742D01*
X168044457Y-112949742D02*
X167983980Y-113010218D01*
X166834933Y-111498313D02*
X166834933Y-111377360D01*
X166834933Y-111377360D02*
X166895409Y-111256408D01*
X166895409Y-111256408D02*
X166955885Y-111195932D01*
X166955885Y-111195932D02*
X167076837Y-111135456D01*
X167076837Y-111135456D02*
X167318742Y-111074979D01*
X167318742Y-111074979D02*
X167621123Y-111074979D01*
X167621123Y-111074979D02*
X167863028Y-111135456D01*
X167863028Y-111135456D02*
X167983980Y-111195932D01*
X167983980Y-111195932D02*
X168044457Y-111256408D01*
X168044457Y-111256408D02*
X168104933Y-111377360D01*
X168104933Y-111377360D02*
X168104933Y-111498313D01*
X168104933Y-111498313D02*
X168044457Y-111619265D01*
X168044457Y-111619265D02*
X167983980Y-111679741D01*
X167983980Y-111679741D02*
X167863028Y-111740218D01*
X167863028Y-111740218D02*
X167621123Y-111800694D01*
X167621123Y-111800694D02*
X167318742Y-111800694D01*
X167318742Y-111800694D02*
X167076837Y-111740218D01*
X167076837Y-111740218D02*
X166955885Y-111679741D01*
X166955885Y-111679741D02*
X166895409Y-111619265D01*
X166895409Y-111619265D02*
X166834933Y-111498313D01*
D15*
X165927321Y-121173616D02*
X164403321Y-121173616D01*
X164403321Y-121173616D02*
X164403321Y-120593045D01*
X164403321Y-120593045D02*
X164475892Y-120447902D01*
X164475892Y-120447902D02*
X164548464Y-120375331D01*
X164548464Y-120375331D02*
X164693607Y-120302759D01*
X164693607Y-120302759D02*
X164911321Y-120302759D01*
X164911321Y-120302759D02*
X165056464Y-120375331D01*
X165056464Y-120375331D02*
X165129035Y-120447902D01*
X165129035Y-120447902D02*
X165201607Y-120593045D01*
X165201607Y-120593045D02*
X165201607Y-121173616D01*
X165927321Y-119649616D02*
X164911321Y-119649616D01*
X164403321Y-119649616D02*
X164475892Y-119722188D01*
X164475892Y-119722188D02*
X164548464Y-119649616D01*
X164548464Y-119649616D02*
X164475892Y-119577045D01*
X164475892Y-119577045D02*
X164403321Y-119649616D01*
X164403321Y-119649616D02*
X164548464Y-119649616D01*
X165854750Y-118343331D02*
X165927321Y-118488474D01*
X165927321Y-118488474D02*
X165927321Y-118778760D01*
X165927321Y-118778760D02*
X165854750Y-118923902D01*
X165854750Y-118923902D02*
X165709607Y-118996474D01*
X165709607Y-118996474D02*
X165129035Y-118996474D01*
X165129035Y-118996474D02*
X164983892Y-118923902D01*
X164983892Y-118923902D02*
X164911321Y-118778760D01*
X164911321Y-118778760D02*
X164911321Y-118488474D01*
X164911321Y-118488474D02*
X164983892Y-118343331D01*
X164983892Y-118343331D02*
X165129035Y-118270760D01*
X165129035Y-118270760D02*
X165274178Y-118270760D01*
X165274178Y-118270760D02*
X165419321Y-118996474D01*
X164911321Y-117762759D02*
X164911321Y-116964474D01*
X164911321Y-116964474D02*
X165927321Y-117762759D01*
X165927321Y-117762759D02*
X165927321Y-116964474D01*
X165927321Y-116166188D02*
X165854750Y-116311331D01*
X165854750Y-116311331D02*
X165782178Y-116383902D01*
X165782178Y-116383902D02*
X165637035Y-116456474D01*
X165637035Y-116456474D02*
X165201607Y-116456474D01*
X165201607Y-116456474D02*
X165056464Y-116383902D01*
X165056464Y-116383902D02*
X164983892Y-116311331D01*
X164983892Y-116311331D02*
X164911321Y-116166188D01*
X164911321Y-116166188D02*
X164911321Y-115948474D01*
X164911321Y-115948474D02*
X164983892Y-115803331D01*
X164983892Y-115803331D02*
X165056464Y-115730760D01*
X165056464Y-115730760D02*
X165201607Y-115658188D01*
X165201607Y-115658188D02*
X165637035Y-115658188D01*
X165637035Y-115658188D02*
X165782178Y-115730760D01*
X165782178Y-115730760D02*
X165854750Y-115803331D01*
X165854750Y-115803331D02*
X165927321Y-115948474D01*
X165927321Y-115948474D02*
X165927321Y-116166188D01*
X165927321Y-115005045D02*
X164403321Y-115005045D01*
X164403321Y-115005045D02*
X164403321Y-114642188D01*
X164403321Y-114642188D02*
X164475892Y-114424474D01*
X164475892Y-114424474D02*
X164621035Y-114279331D01*
X164621035Y-114279331D02*
X164766178Y-114206760D01*
X164766178Y-114206760D02*
X165056464Y-114134188D01*
X165056464Y-114134188D02*
X165274178Y-114134188D01*
X165274178Y-114134188D02*
X165564464Y-114206760D01*
X165564464Y-114206760D02*
X165709607Y-114279331D01*
X165709607Y-114279331D02*
X165854750Y-114424474D01*
X165854750Y-114424474D02*
X165927321Y-114642188D01*
X165927321Y-114642188D02*
X165927321Y-115005045D01*
X165927321Y-113481045D02*
X164911321Y-113481045D01*
X165201607Y-113481045D02*
X165056464Y-113408474D01*
X165056464Y-113408474D02*
X164983892Y-113335903D01*
X164983892Y-113335903D02*
X164911321Y-113190760D01*
X164911321Y-113190760D02*
X164911321Y-113045617D01*
X165927321Y-112537616D02*
X164911321Y-112537616D01*
X164403321Y-112537616D02*
X164475892Y-112610188D01*
X164475892Y-112610188D02*
X164548464Y-112537616D01*
X164548464Y-112537616D02*
X164475892Y-112465045D01*
X164475892Y-112465045D02*
X164403321Y-112537616D01*
X164403321Y-112537616D02*
X164548464Y-112537616D01*
X164911321Y-111957045D02*
X165927321Y-111594188D01*
X165927321Y-111594188D02*
X164911321Y-111231331D01*
X165854750Y-110070188D02*
X165927321Y-110215331D01*
X165927321Y-110215331D02*
X165927321Y-110505617D01*
X165927321Y-110505617D02*
X165854750Y-110650759D01*
X165854750Y-110650759D02*
X165709607Y-110723331D01*
X165709607Y-110723331D02*
X165129035Y-110723331D01*
X165129035Y-110723331D02*
X164983892Y-110650759D01*
X164983892Y-110650759D02*
X164911321Y-110505617D01*
X164911321Y-110505617D02*
X164911321Y-110215331D01*
X164911321Y-110215331D02*
X164983892Y-110070188D01*
X164983892Y-110070188D02*
X165129035Y-109997617D01*
X165129035Y-109997617D02*
X165274178Y-109997617D01*
X165274178Y-109997617D02*
X165419321Y-110723331D01*
X112050778Y-116136383D02*
X113574778Y-116136383D01*
X113574778Y-116136383D02*
X113574778Y-116716954D01*
X113574778Y-116716954D02*
X113502207Y-116862097D01*
X113502207Y-116862097D02*
X113429635Y-116934668D01*
X113429635Y-116934668D02*
X113284492Y-117007240D01*
X113284492Y-117007240D02*
X113066778Y-117007240D01*
X113066778Y-117007240D02*
X112921635Y-116934668D01*
X112921635Y-116934668D02*
X112849064Y-116862097D01*
X112849064Y-116862097D02*
X112776492Y-116716954D01*
X112776492Y-116716954D02*
X112776492Y-116136383D01*
X112050778Y-117660383D02*
X113574778Y-117660383D01*
X113574778Y-117660383D02*
X113574778Y-118023240D01*
X113574778Y-118023240D02*
X113502207Y-118240954D01*
X113502207Y-118240954D02*
X113357064Y-118386097D01*
X113357064Y-118386097D02*
X113211921Y-118458668D01*
X113211921Y-118458668D02*
X112921635Y-118531240D01*
X112921635Y-118531240D02*
X112703921Y-118531240D01*
X112703921Y-118531240D02*
X112413635Y-118458668D01*
X112413635Y-118458668D02*
X112268492Y-118386097D01*
X112268492Y-118386097D02*
X112123350Y-118240954D01*
X112123350Y-118240954D02*
X112050778Y-118023240D01*
X112050778Y-118023240D02*
X112050778Y-117660383D01*
X113066778Y-119837526D02*
X112050778Y-119837526D01*
X113066778Y-119184383D02*
X112268492Y-119184383D01*
X112268492Y-119184383D02*
X112123350Y-119256954D01*
X112123350Y-119256954D02*
X112050778Y-119402097D01*
X112050778Y-119402097D02*
X112050778Y-119619811D01*
X112050778Y-119619811D02*
X112123350Y-119764954D01*
X112123350Y-119764954D02*
X112195921Y-119837526D01*
X112050778Y-121361525D02*
X112050778Y-120490668D01*
X112050778Y-120926097D02*
X113574778Y-120926097D01*
X113574778Y-120926097D02*
X113357064Y-120780954D01*
X113357064Y-120780954D02*
X113211921Y-120635811D01*
X113211921Y-120635811D02*
X113139350Y-120490668D01*
X113574778Y-122740383D02*
X113574778Y-122014669D01*
X113574778Y-122014669D02*
X112849064Y-121942097D01*
X112849064Y-121942097D02*
X112921635Y-122014669D01*
X112921635Y-122014669D02*
X112994207Y-122159812D01*
X112994207Y-122159812D02*
X112994207Y-122522669D01*
X112994207Y-122522669D02*
X112921635Y-122667812D01*
X112921635Y-122667812D02*
X112849064Y-122740383D01*
X112849064Y-122740383D02*
X112703921Y-122812954D01*
X112703921Y-122812954D02*
X112341064Y-122812954D01*
X112341064Y-122812954D02*
X112195921Y-122740383D01*
X112195921Y-122740383D02*
X112123350Y-122667812D01*
X112123350Y-122667812D02*
X112050778Y-122522669D01*
X112050778Y-122522669D02*
X112050778Y-122159812D01*
X112050778Y-122159812D02*
X112123350Y-122014669D01*
X112123350Y-122014669D02*
X112195921Y-121942097D01*
X113574778Y-123756383D02*
X113574778Y-123901526D01*
X113574778Y-123901526D02*
X113502207Y-124046669D01*
X113502207Y-124046669D02*
X113429635Y-124119241D01*
X113429635Y-124119241D02*
X113284492Y-124191812D01*
X113284492Y-124191812D02*
X112994207Y-124264383D01*
X112994207Y-124264383D02*
X112631350Y-124264383D01*
X112631350Y-124264383D02*
X112341064Y-124191812D01*
X112341064Y-124191812D02*
X112195921Y-124119241D01*
X112195921Y-124119241D02*
X112123350Y-124046669D01*
X112123350Y-124046669D02*
X112050778Y-123901526D01*
X112050778Y-123901526D02*
X112050778Y-123756383D01*
X112050778Y-123756383D02*
X112123350Y-123611241D01*
X112123350Y-123611241D02*
X112195921Y-123538669D01*
X112195921Y-123538669D02*
X112341064Y-123466098D01*
X112341064Y-123466098D02*
X112631350Y-123393526D01*
X112631350Y-123393526D02*
X112994207Y-123393526D01*
X112994207Y-123393526D02*
X113284492Y-123466098D01*
X113284492Y-123466098D02*
X113429635Y-123538669D01*
X113429635Y-123538669D02*
X113502207Y-123611241D01*
X113502207Y-123611241D02*
X113574778Y-123756383D01*
D12*
X102849805Y-117750609D02*
X102087805Y-118004609D01*
X102087805Y-118004609D02*
X102849805Y-118258609D01*
X102777233Y-118476323D02*
X102813519Y-118512609D01*
X102813519Y-118512609D02*
X102849805Y-118585181D01*
X102849805Y-118585181D02*
X102849805Y-118766609D01*
X102849805Y-118766609D02*
X102813519Y-118839181D01*
X102813519Y-118839181D02*
X102777233Y-118875466D01*
X102777233Y-118875466D02*
X102704662Y-118911752D01*
X102704662Y-118911752D02*
X102632091Y-118911752D01*
X102632091Y-118911752D02*
X102523233Y-118875466D01*
X102523233Y-118875466D02*
X102087805Y-118440038D01*
X102087805Y-118440038D02*
X102087805Y-118911752D01*
X167811233Y-96278815D02*
X167811233Y-97040815D01*
X167811233Y-96677958D02*
X167375804Y-96677958D01*
X167375804Y-96278815D02*
X167375804Y-97040815D01*
X167012947Y-96278815D02*
X167012947Y-96786815D01*
X167012947Y-97040815D02*
X167049233Y-97004529D01*
X167049233Y-97004529D02*
X167012947Y-96968243D01*
X167012947Y-96968243D02*
X166976661Y-97004529D01*
X166976661Y-97004529D02*
X167012947Y-97040815D01*
X167012947Y-97040815D02*
X167012947Y-96968243D01*
X166323519Y-96786815D02*
X166323519Y-96169958D01*
X166323519Y-96169958D02*
X166359804Y-96097386D01*
X166359804Y-96097386D02*
X166396090Y-96061101D01*
X166396090Y-96061101D02*
X166468661Y-96024815D01*
X166468661Y-96024815D02*
X166577519Y-96024815D01*
X166577519Y-96024815D02*
X166650090Y-96061101D01*
X166323519Y-96315101D02*
X166396090Y-96278815D01*
X166396090Y-96278815D02*
X166541233Y-96278815D01*
X166541233Y-96278815D02*
X166613804Y-96315101D01*
X166613804Y-96315101D02*
X166650090Y-96351386D01*
X166650090Y-96351386D02*
X166686376Y-96423958D01*
X166686376Y-96423958D02*
X166686376Y-96641672D01*
X166686376Y-96641672D02*
X166650090Y-96714243D01*
X166650090Y-96714243D02*
X166613804Y-96750529D01*
X166613804Y-96750529D02*
X166541233Y-96786815D01*
X166541233Y-96786815D02*
X166396090Y-96786815D01*
X166396090Y-96786815D02*
X166323519Y-96750529D01*
X165960661Y-96278815D02*
X165960661Y-97040815D01*
X165634090Y-96278815D02*
X165634090Y-96677958D01*
X165634090Y-96677958D02*
X165670375Y-96750529D01*
X165670375Y-96750529D02*
X165742947Y-96786815D01*
X165742947Y-96786815D02*
X165851804Y-96786815D01*
X165851804Y-96786815D02*
X165924375Y-96750529D01*
X165924375Y-96750529D02*
X165960661Y-96714243D01*
X102087805Y-113267185D02*
X102450662Y-113013185D01*
X102087805Y-112831756D02*
X102849805Y-112831756D01*
X102849805Y-112831756D02*
X102849805Y-113122042D01*
X102849805Y-113122042D02*
X102813519Y-113194613D01*
X102813519Y-113194613D02*
X102777233Y-113230899D01*
X102777233Y-113230899D02*
X102704662Y-113267185D01*
X102704662Y-113267185D02*
X102595805Y-113267185D01*
X102595805Y-113267185D02*
X102523233Y-113230899D01*
X102523233Y-113230899D02*
X102486948Y-113194613D01*
X102486948Y-113194613D02*
X102450662Y-113122042D01*
X102450662Y-113122042D02*
X102450662Y-112831756D01*
X102378091Y-113593756D02*
X102378091Y-114174328D01*
X102813519Y-123771899D02*
X102849805Y-123699328D01*
X102849805Y-123699328D02*
X102849805Y-123590470D01*
X102849805Y-123590470D02*
X102813519Y-123481613D01*
X102813519Y-123481613D02*
X102740948Y-123409042D01*
X102740948Y-123409042D02*
X102668376Y-123372756D01*
X102668376Y-123372756D02*
X102523233Y-123336470D01*
X102523233Y-123336470D02*
X102414376Y-123336470D01*
X102414376Y-123336470D02*
X102269233Y-123372756D01*
X102269233Y-123372756D02*
X102196662Y-123409042D01*
X102196662Y-123409042D02*
X102124091Y-123481613D01*
X102124091Y-123481613D02*
X102087805Y-123590470D01*
X102087805Y-123590470D02*
X102087805Y-123663042D01*
X102087805Y-123663042D02*
X102124091Y-123771899D01*
X102124091Y-123771899D02*
X102160376Y-123808185D01*
X102160376Y-123808185D02*
X102414376Y-123808185D01*
X102414376Y-123808185D02*
X102414376Y-123663042D01*
X102849805Y-125676899D02*
X102849805Y-125822042D01*
X102849805Y-125822042D02*
X102813519Y-125894613D01*
X102813519Y-125894613D02*
X102740948Y-125967185D01*
X102740948Y-125967185D02*
X102595805Y-126003470D01*
X102595805Y-126003470D02*
X102341805Y-126003470D01*
X102341805Y-126003470D02*
X102196662Y-125967185D01*
X102196662Y-125967185D02*
X102124091Y-125894613D01*
X102124091Y-125894613D02*
X102087805Y-125822042D01*
X102087805Y-125822042D02*
X102087805Y-125676899D01*
X102087805Y-125676899D02*
X102124091Y-125604328D01*
X102124091Y-125604328D02*
X102196662Y-125531756D01*
X102196662Y-125531756D02*
X102341805Y-125495470D01*
X102341805Y-125495470D02*
X102595805Y-125495470D01*
X102595805Y-125495470D02*
X102740948Y-125531756D01*
X102740948Y-125531756D02*
X102813519Y-125604328D01*
X102813519Y-125604328D02*
X102849805Y-125676899D01*
X102124091Y-126293756D02*
X102087805Y-126402614D01*
X102087805Y-126402614D02*
X102087805Y-126584042D01*
X102087805Y-126584042D02*
X102124091Y-126656614D01*
X102124091Y-126656614D02*
X102160376Y-126692899D01*
X102160376Y-126692899D02*
X102232948Y-126729185D01*
X102232948Y-126729185D02*
X102305519Y-126729185D01*
X102305519Y-126729185D02*
X102378091Y-126692899D01*
X102378091Y-126692899D02*
X102414376Y-126656614D01*
X102414376Y-126656614D02*
X102450662Y-126584042D01*
X102450662Y-126584042D02*
X102486948Y-126438899D01*
X102486948Y-126438899D02*
X102523233Y-126366328D01*
X102523233Y-126366328D02*
X102559519Y-126330042D01*
X102559519Y-126330042D02*
X102632091Y-126293756D01*
X102632091Y-126293756D02*
X102704662Y-126293756D01*
X102704662Y-126293756D02*
X102777233Y-126330042D01*
X102777233Y-126330042D02*
X102813519Y-126366328D01*
X102813519Y-126366328D02*
X102849805Y-126438899D01*
X102849805Y-126438899D02*
X102849805Y-126620328D01*
X102849805Y-126620328D02*
X102813519Y-126729185D01*
X102849805Y-115387369D02*
X102087805Y-115641369D01*
X102087805Y-115641369D02*
X102849805Y-115895369D01*
X102087805Y-116548512D02*
X102087805Y-116113083D01*
X102087805Y-116330798D02*
X102849805Y-116330798D01*
X102849805Y-116330798D02*
X102740948Y-116258226D01*
X102740948Y-116258226D02*
X102668376Y-116185655D01*
X102668376Y-116185655D02*
X102632091Y-116113083D01*
X102486948Y-107718516D02*
X102486948Y-107972516D01*
X102087805Y-108081373D02*
X102087805Y-107718516D01*
X102087805Y-107718516D02*
X102849805Y-107718516D01*
X102849805Y-107718516D02*
X102849805Y-108081373D01*
X102087805Y-108407945D02*
X102849805Y-108407945D01*
X102849805Y-108407945D02*
X102087805Y-108843374D01*
X102087805Y-108843374D02*
X102849805Y-108843374D01*
X168936090Y-95897815D02*
X168682090Y-95135815D01*
X168682090Y-95135815D02*
X168428090Y-95897815D01*
X168065233Y-95135815D02*
X168137804Y-95172101D01*
X168137804Y-95172101D02*
X168174090Y-95208386D01*
X168174090Y-95208386D02*
X168210376Y-95280958D01*
X168210376Y-95280958D02*
X168210376Y-95498672D01*
X168210376Y-95498672D02*
X168174090Y-95571243D01*
X168174090Y-95571243D02*
X168137804Y-95607529D01*
X168137804Y-95607529D02*
X168065233Y-95643815D01*
X168065233Y-95643815D02*
X167956376Y-95643815D01*
X167956376Y-95643815D02*
X167883804Y-95607529D01*
X167883804Y-95607529D02*
X167847519Y-95571243D01*
X167847519Y-95571243D02*
X167811233Y-95498672D01*
X167811233Y-95498672D02*
X167811233Y-95280958D01*
X167811233Y-95280958D02*
X167847519Y-95208386D01*
X167847519Y-95208386D02*
X167883804Y-95172101D01*
X167883804Y-95172101D02*
X167956376Y-95135815D01*
X167956376Y-95135815D02*
X168065233Y-95135815D01*
X167375804Y-95135815D02*
X167448375Y-95172101D01*
X167448375Y-95172101D02*
X167484661Y-95244672D01*
X167484661Y-95244672D02*
X167484661Y-95897815D01*
X167194375Y-95643815D02*
X166904089Y-95643815D01*
X167085518Y-95897815D02*
X167085518Y-95244672D01*
X167085518Y-95244672D02*
X167049232Y-95172101D01*
X167049232Y-95172101D02*
X166976661Y-95135815D01*
X166976661Y-95135815D02*
X166904089Y-95135815D01*
X166323518Y-95135815D02*
X166323518Y-95534958D01*
X166323518Y-95534958D02*
X166359803Y-95607529D01*
X166359803Y-95607529D02*
X166432375Y-95643815D01*
X166432375Y-95643815D02*
X166577518Y-95643815D01*
X166577518Y-95643815D02*
X166650089Y-95607529D01*
X166323518Y-95172101D02*
X166396089Y-95135815D01*
X166396089Y-95135815D02*
X166577518Y-95135815D01*
X166577518Y-95135815D02*
X166650089Y-95172101D01*
X166650089Y-95172101D02*
X166686375Y-95244672D01*
X166686375Y-95244672D02*
X166686375Y-95317243D01*
X166686375Y-95317243D02*
X166650089Y-95389815D01*
X166650089Y-95389815D02*
X166577518Y-95426101D01*
X166577518Y-95426101D02*
X166396089Y-95426101D01*
X166396089Y-95426101D02*
X166323518Y-95462386D01*
X165634089Y-95643815D02*
X165634089Y-95026958D01*
X165634089Y-95026958D02*
X165670374Y-94954386D01*
X165670374Y-94954386D02*
X165706660Y-94918101D01*
X165706660Y-94918101D02*
X165779231Y-94881815D01*
X165779231Y-94881815D02*
X165888089Y-94881815D01*
X165888089Y-94881815D02*
X165960660Y-94918101D01*
X165634089Y-95172101D02*
X165706660Y-95135815D01*
X165706660Y-95135815D02*
X165851803Y-95135815D01*
X165851803Y-95135815D02*
X165924374Y-95172101D01*
X165924374Y-95172101D02*
X165960660Y-95208386D01*
X165960660Y-95208386D02*
X165996946Y-95280958D01*
X165996946Y-95280958D02*
X165996946Y-95498672D01*
X165996946Y-95498672D02*
X165960660Y-95571243D01*
X165960660Y-95571243D02*
X165924374Y-95607529D01*
X165924374Y-95607529D02*
X165851803Y-95643815D01*
X165851803Y-95643815D02*
X165706660Y-95643815D01*
X165706660Y-95643815D02*
X165634089Y-95607529D01*
X164980945Y-95172101D02*
X165053517Y-95135815D01*
X165053517Y-95135815D02*
X165198660Y-95135815D01*
X165198660Y-95135815D02*
X165271231Y-95172101D01*
X165271231Y-95172101D02*
X165307517Y-95244672D01*
X165307517Y-95244672D02*
X165307517Y-95534958D01*
X165307517Y-95534958D02*
X165271231Y-95607529D01*
X165271231Y-95607529D02*
X165198660Y-95643815D01*
X165198660Y-95643815D02*
X165053517Y-95643815D01*
X165053517Y-95643815D02*
X164980945Y-95607529D01*
X164980945Y-95607529D02*
X164944660Y-95534958D01*
X164944660Y-95534958D02*
X164944660Y-95462386D01*
X164944660Y-95462386D02*
X165307517Y-95389815D01*
X102087805Y-110727185D02*
X102450662Y-110473185D01*
X102087805Y-110291756D02*
X102849805Y-110291756D01*
X102849805Y-110291756D02*
X102849805Y-110582042D01*
X102849805Y-110582042D02*
X102813519Y-110654613D01*
X102813519Y-110654613D02*
X102777233Y-110690899D01*
X102777233Y-110690899D02*
X102704662Y-110727185D01*
X102704662Y-110727185D02*
X102595805Y-110727185D01*
X102595805Y-110727185D02*
X102523233Y-110690899D01*
X102523233Y-110690899D02*
X102486948Y-110654613D01*
X102486948Y-110654613D02*
X102450662Y-110582042D01*
X102450662Y-110582042D02*
X102450662Y-110291756D01*
X102378091Y-111053756D02*
X102378091Y-111634328D01*
X102087805Y-111344042D02*
X102668376Y-111344042D01*
X102849805Y-120309899D02*
X102087805Y-120563899D01*
X102087805Y-120563899D02*
X102849805Y-120817899D01*
X102849805Y-120999328D02*
X102849805Y-121471042D01*
X102849805Y-121471042D02*
X102559519Y-121217042D01*
X102559519Y-121217042D02*
X102559519Y-121325899D01*
X102559519Y-121325899D02*
X102523233Y-121398471D01*
X102523233Y-121398471D02*
X102486948Y-121434756D01*
X102486948Y-121434756D02*
X102414376Y-121471042D01*
X102414376Y-121471042D02*
X102232948Y-121471042D01*
X102232948Y-121471042D02*
X102160376Y-121434756D01*
X102160376Y-121434756D02*
X102124091Y-121398471D01*
X102124091Y-121398471D02*
X102087805Y-121325899D01*
X102087805Y-121325899D02*
X102087805Y-121108185D01*
X102087805Y-121108185D02*
X102124091Y-121035613D01*
X102124091Y-121035613D02*
X102160376Y-120999328D01*
X102813519Y-105954369D02*
X102849805Y-105881798D01*
X102849805Y-105881798D02*
X102849805Y-105772940D01*
X102849805Y-105772940D02*
X102813519Y-105664083D01*
X102813519Y-105664083D02*
X102740948Y-105591512D01*
X102740948Y-105591512D02*
X102668376Y-105555226D01*
X102668376Y-105555226D02*
X102523233Y-105518940D01*
X102523233Y-105518940D02*
X102414376Y-105518940D01*
X102414376Y-105518940D02*
X102269233Y-105555226D01*
X102269233Y-105555226D02*
X102196662Y-105591512D01*
X102196662Y-105591512D02*
X102124091Y-105664083D01*
X102124091Y-105664083D02*
X102087805Y-105772940D01*
X102087805Y-105772940D02*
X102087805Y-105845512D01*
X102087805Y-105845512D02*
X102124091Y-105954369D01*
X102124091Y-105954369D02*
X102160376Y-105990655D01*
X102160376Y-105990655D02*
X102414376Y-105990655D01*
X102414376Y-105990655D02*
X102414376Y-105845512D01*
X176744174Y-118042100D02*
X176744174Y-118477529D01*
X176744174Y-118259814D02*
X175982174Y-118259814D01*
X175982174Y-118259814D02*
X176091031Y-118332386D01*
X176091031Y-118332386D02*
X176163603Y-118404957D01*
X176163603Y-118404957D02*
X176199889Y-118477529D01*
X176453889Y-117715529D02*
X176453889Y-117134958D01*
X176744174Y-120582100D02*
X176744174Y-121017529D01*
X176744174Y-120799814D02*
X175982174Y-120799814D01*
X175982174Y-120799814D02*
X176091031Y-120872386D01*
X176091031Y-120872386D02*
X176163603Y-120944957D01*
X176163603Y-120944957D02*
X176199889Y-121017529D01*
X176453889Y-120255529D02*
X176453889Y-119674958D01*
X176744174Y-119965243D02*
X176163603Y-119965243D01*
X175982174Y-110512814D02*
X175982174Y-110041100D01*
X175982174Y-110041100D02*
X176272460Y-110295100D01*
X176272460Y-110295100D02*
X176272460Y-110186243D01*
X176272460Y-110186243D02*
X176308746Y-110113672D01*
X176308746Y-110113672D02*
X176345031Y-110077386D01*
X176345031Y-110077386D02*
X176417603Y-110041100D01*
X176417603Y-110041100D02*
X176599031Y-110041100D01*
X176599031Y-110041100D02*
X176671603Y-110077386D01*
X176671603Y-110077386D02*
X176707889Y-110113672D01*
X176707889Y-110113672D02*
X176744174Y-110186243D01*
X176744174Y-110186243D02*
X176744174Y-110403957D01*
X176744174Y-110403957D02*
X176707889Y-110476529D01*
X176707889Y-110476529D02*
X176671603Y-110512814D01*
X176453889Y-109714529D02*
X176453889Y-109133958D01*
X176744174Y-109424243D02*
X176163603Y-109424243D01*
X176054746Y-113016529D02*
X176018460Y-112980243D01*
X176018460Y-112980243D02*
X175982174Y-112907672D01*
X175982174Y-112907672D02*
X175982174Y-112726243D01*
X175982174Y-112726243D02*
X176018460Y-112653672D01*
X176018460Y-112653672D02*
X176054746Y-112617386D01*
X176054746Y-112617386D02*
X176127317Y-112581100D01*
X176127317Y-112581100D02*
X176199889Y-112581100D01*
X176199889Y-112581100D02*
X176308746Y-112617386D01*
X176308746Y-112617386D02*
X176744174Y-113052814D01*
X176744174Y-113052814D02*
X176744174Y-112581100D01*
X176453889Y-112254529D02*
X176453889Y-111673958D01*
X176109174Y-123067672D02*
X176726031Y-123067672D01*
X176726031Y-123067672D02*
X176798603Y-123103957D01*
X176798603Y-123103957D02*
X176834889Y-123140243D01*
X176834889Y-123140243D02*
X176871174Y-123212814D01*
X176871174Y-123212814D02*
X176871174Y-123321672D01*
X176871174Y-123321672D02*
X176834889Y-123394243D01*
X176580889Y-123067672D02*
X176617174Y-123140243D01*
X176617174Y-123140243D02*
X176617174Y-123285386D01*
X176617174Y-123285386D02*
X176580889Y-123357957D01*
X176580889Y-123357957D02*
X176544603Y-123394243D01*
X176544603Y-123394243D02*
X176472031Y-123430529D01*
X176472031Y-123430529D02*
X176254317Y-123430529D01*
X176254317Y-123430529D02*
X176181746Y-123394243D01*
X176181746Y-123394243D02*
X176145460Y-123357957D01*
X176145460Y-123357957D02*
X176109174Y-123285386D01*
X176109174Y-123285386D02*
X176109174Y-123140243D01*
X176109174Y-123140243D02*
X176145460Y-123067672D01*
X176054746Y-115937529D02*
X176018460Y-115901243D01*
X176018460Y-115901243D02*
X175982174Y-115828672D01*
X175982174Y-115828672D02*
X175982174Y-115647243D01*
X175982174Y-115647243D02*
X176018460Y-115574672D01*
X176018460Y-115574672D02*
X176054746Y-115538386D01*
X176054746Y-115538386D02*
X176127317Y-115502100D01*
X176127317Y-115502100D02*
X176199889Y-115502100D01*
X176199889Y-115502100D02*
X176308746Y-115538386D01*
X176308746Y-115538386D02*
X176744174Y-115973814D01*
X176744174Y-115973814D02*
X176744174Y-115502100D01*
X176453889Y-115175529D02*
X176453889Y-114594958D01*
X176744174Y-114885243D02*
X176163603Y-114885243D01*
X175982174Y-107972814D02*
X175982174Y-107501100D01*
X175982174Y-107501100D02*
X176272460Y-107755100D01*
X176272460Y-107755100D02*
X176272460Y-107646243D01*
X176272460Y-107646243D02*
X176308746Y-107573672D01*
X176308746Y-107573672D02*
X176345031Y-107537386D01*
X176345031Y-107537386D02*
X176417603Y-107501100D01*
X176417603Y-107501100D02*
X176599031Y-107501100D01*
X176599031Y-107501100D02*
X176671603Y-107537386D01*
X176671603Y-107537386D02*
X176707889Y-107573672D01*
X176707889Y-107573672D02*
X176744174Y-107646243D01*
X176744174Y-107646243D02*
X176744174Y-107863957D01*
X176744174Y-107863957D02*
X176707889Y-107936529D01*
X176707889Y-107936529D02*
X176671603Y-107972814D01*
X176453889Y-107174529D02*
X176453889Y-106593958D01*
X175982174Y-104652672D02*
X176599031Y-104652672D01*
X176599031Y-104652672D02*
X176671603Y-104688957D01*
X176671603Y-104688957D02*
X176707889Y-104725243D01*
X176707889Y-104725243D02*
X176744174Y-104797814D01*
X176744174Y-104797814D02*
X176744174Y-104906672D01*
X176744174Y-104906672D02*
X176707889Y-104979243D01*
X176453889Y-104652672D02*
X176490174Y-104725243D01*
X176490174Y-104725243D02*
X176490174Y-104870386D01*
X176490174Y-104870386D02*
X176453889Y-104942957D01*
X176453889Y-104942957D02*
X176417603Y-104979243D01*
X176417603Y-104979243D02*
X176345031Y-105015529D01*
X176345031Y-105015529D02*
X176127317Y-105015529D01*
X176127317Y-105015529D02*
X176054746Y-104979243D01*
X176054746Y-104979243D02*
X176018460Y-104942957D01*
X176018460Y-104942957D02*
X175982174Y-104870386D01*
X175982174Y-104870386D02*
X175982174Y-104725243D01*
X175982174Y-104725243D02*
X176018460Y-104652672D01*
D13*
X104166595Y-59762319D02*
X104166595Y-60571842D01*
X104166595Y-60571842D02*
X104214214Y-60667080D01*
X104214214Y-60667080D02*
X104261833Y-60714700D01*
X104261833Y-60714700D02*
X104357071Y-60762319D01*
X104357071Y-60762319D02*
X104547547Y-60762319D01*
X104547547Y-60762319D02*
X104642785Y-60714700D01*
X104642785Y-60714700D02*
X104690404Y-60667080D01*
X104690404Y-60667080D02*
X104738023Y-60571842D01*
X104738023Y-60571842D02*
X104738023Y-59762319D01*
X105166595Y-59857557D02*
X105214214Y-59809938D01*
X105214214Y-59809938D02*
X105309452Y-59762319D01*
X105309452Y-59762319D02*
X105547547Y-59762319D01*
X105547547Y-59762319D02*
X105642785Y-59809938D01*
X105642785Y-59809938D02*
X105690404Y-59857557D01*
X105690404Y-59857557D02*
X105738023Y-59952795D01*
X105738023Y-59952795D02*
X105738023Y-60048033D01*
X105738023Y-60048033D02*
X105690404Y-60190890D01*
X105690404Y-60190890D02*
X105118976Y-60762319D01*
X105118976Y-60762319D02*
X105738023Y-60762319D01*
X109789912Y-58243680D02*
X109789912Y-58958410D01*
X109789912Y-58958410D02*
X109742263Y-59101356D01*
X109742263Y-59101356D02*
X109646966Y-59196654D01*
X109646966Y-59196654D02*
X109504020Y-59244302D01*
X109504020Y-59244302D02*
X109408723Y-59244302D01*
X110790534Y-59244302D02*
X110218750Y-59244302D01*
X110504642Y-59244302D02*
X110504642Y-58243680D01*
X110504642Y-58243680D02*
X110409345Y-58386626D01*
X110409345Y-58386626D02*
X110314048Y-58481924D01*
X110314048Y-58481924D02*
X110218750Y-58529572D01*
D16*
%TO.C,U3*%
X170580000Y-64460000D02*
X170580000Y-82460000D01*
X167930000Y-67110000D02*
X167930000Y-64460000D01*
X167930000Y-64460000D02*
X170580000Y-64460000D01*
X165280000Y-82460000D02*
X170580000Y-82460000D01*
X165280000Y-67110000D02*
X167930000Y-67110000D01*
X165280000Y-67110000D02*
X165280000Y-82460000D01*
X165280000Y-65840000D02*
X165280000Y-64460000D01*
X165280000Y-64460000D02*
X166660000Y-64460000D01*
D14*
%TO.C,U1*%
X176428990Y-131123000D02*
G75*
G02*
X171348990Y-131123000I-2540000J0D01*
G01*
X171348990Y-131123000D02*
G75*
G02*
X176428990Y-131123000I2540000J0D01*
G01*
X176428990Y-97737000D02*
G75*
G02*
X171348990Y-97737000I-2540000J0D01*
G01*
X171348990Y-97737000D02*
G75*
G02*
X176428990Y-97737000I2540000J0D01*
G01*
X107482990Y-131123000D02*
G75*
G02*
X102402990Y-131123000I-2540000J0D01*
G01*
X102402990Y-131123000D02*
G75*
G02*
X107482990Y-131123000I2540000J0D01*
G01*
X107482990Y-97737000D02*
G75*
G02*
X102402990Y-97737000I-2540000J0D01*
G01*
X102402990Y-97737000D02*
G75*
G02*
X107482990Y-97737000I2540000J0D01*
G01*
D17*
X168878590Y-130017200D02*
G75*
G02*
X168803691Y-133613840I0J-1799100D01*
G01*
X165068590Y-130017200D02*
G75*
G02*
X164993691Y-133613840I0J-1799100D01*
G01*
D14*
X101442990Y-94237000D02*
X177388990Y-94237000D01*
X123667990Y-133480000D02*
X161640990Y-133480000D01*
X101442990Y-134623000D02*
X177388990Y-134623000D01*
X123667990Y-95507000D02*
X161640990Y-95507000D01*
D18*
X163952390Y-97640600D02*
X166724170Y-101672270D01*
X163977790Y-97640600D02*
X169495940Y-97640600D01*
X166724170Y-101672270D02*
X169495940Y-97640600D01*
D10*
X166802450Y-100816400D02*
X167488250Y-99368600D01*
X166720990Y-98072400D02*
X167145830Y-98576900D01*
D17*
X165043190Y-131816300D02*
X166846590Y-131816300D01*
D10*
X166497650Y-99724200D02*
X167488250Y-99368600D01*
D14*
X177388990Y-134623000D02*
X177388990Y-94237000D01*
X161640990Y-133480000D02*
X161640990Y-95507000D01*
X123667990Y-133480000D02*
X123667990Y-95507000D01*
X101442990Y-134623000D02*
X101442990Y-94237000D01*
D10*
X166497650Y-99724200D02*
X166746390Y-98097800D01*
X166212990Y-98555000D02*
X166720990Y-98072400D01*
D19*
X174134000Y-109858000D02*
X175484000Y-109858000D01*
X174134000Y-111382000D02*
X174134000Y-109858000D01*
X174134000Y-111382000D02*
X175484000Y-111382000D01*
X174134000Y-112398000D02*
X175484000Y-112398000D01*
X174134000Y-113922000D02*
X174134000Y-112398000D01*
X174134000Y-113922000D02*
X175484000Y-113922000D01*
X169134000Y-124844000D02*
X175484000Y-124844000D01*
X175484000Y-124844000D02*
X175484000Y-104016000D01*
X169134000Y-124844000D02*
X169134000Y-104016000D01*
X174134000Y-124082000D02*
X175484000Y-124082000D01*
X174134000Y-124082000D02*
X174134000Y-122558000D01*
X174134000Y-122558000D02*
X175484000Y-122558000D01*
X174134000Y-120018000D02*
X175484000Y-120018000D01*
X174134000Y-121542000D02*
X174134000Y-120018000D01*
X174134000Y-121542000D02*
X175484000Y-121542000D01*
X174134000Y-116462000D02*
X175484000Y-116462000D01*
X174134000Y-116462000D02*
X174134000Y-114938000D01*
X174134000Y-114938000D02*
X175484000Y-114938000D01*
X174134000Y-117478000D02*
X175484000Y-117478000D01*
X174134000Y-119002000D02*
X174134000Y-117478000D01*
X174134000Y-119002000D02*
X175484000Y-119002000D01*
X174134000Y-108842000D02*
X175484000Y-108842000D01*
X174134000Y-108842000D02*
X174134000Y-107318000D01*
X174134000Y-107318000D02*
X175484000Y-107318000D01*
X174134000Y-106302000D02*
X175484000Y-106302000D01*
X174134000Y-106302000D02*
X174134000Y-104778000D01*
X174134000Y-104778000D02*
X175484000Y-104778000D01*
X169134000Y-104016000D02*
X175484000Y-104016000D01*
X103475000Y-116462000D02*
X104825000Y-116462000D01*
X104825000Y-116462000D02*
X104825000Y-114938000D01*
X103475000Y-114938000D02*
X104825000Y-114938000D01*
X103475000Y-113922000D02*
X104825000Y-113922000D01*
X104825000Y-113922000D02*
X104825000Y-112398000D01*
X103475000Y-112398000D02*
X104825000Y-112398000D01*
X103475000Y-101476000D02*
X109825000Y-101476000D01*
X103475000Y-127384000D02*
X103475000Y-101476000D01*
X109825000Y-127384000D02*
X109825000Y-101476000D01*
X103475000Y-102238000D02*
X104825000Y-102238000D01*
X104825000Y-103762000D02*
X104825000Y-102238000D01*
X103475000Y-103762000D02*
X104825000Y-103762000D01*
X103475000Y-106302000D02*
X104825000Y-106302000D01*
X104825000Y-106302000D02*
X104825000Y-104778000D01*
X103475000Y-104778000D02*
X104825000Y-104778000D01*
X103475000Y-109858000D02*
X104825000Y-109858000D01*
X104825000Y-111382000D02*
X104825000Y-109858000D01*
X103475000Y-111382000D02*
X104825000Y-111382000D01*
X103475000Y-108842000D02*
X104825000Y-108842000D01*
X104825000Y-108842000D02*
X104825000Y-107318000D01*
X103475000Y-107318000D02*
X104825000Y-107318000D01*
X103475000Y-117478000D02*
X104825000Y-117478000D01*
X104825000Y-119002000D02*
X104825000Y-117478000D01*
X103475000Y-119002000D02*
X104825000Y-119002000D01*
X103475000Y-120018000D02*
X104825000Y-120018000D01*
X104825000Y-121542000D02*
X104825000Y-120018000D01*
X103475000Y-121542000D02*
X104825000Y-121542000D01*
X103475000Y-127384000D02*
X109825000Y-127384000D01*
X103475000Y-126622000D02*
X104825000Y-126622000D01*
X104825000Y-126622000D02*
X104825000Y-125098000D01*
X103475000Y-125098000D02*
X104825000Y-125098000D01*
X103475000Y-124082000D02*
X104825000Y-124082000D01*
X104825000Y-124082000D02*
X104825000Y-122558000D01*
X103475000Y-122558000D02*
X104825000Y-122558000D01*
D20*
%TO.C,U2*%
X101753500Y-84442500D02*
X101753500Y-61582500D01*
X101753500Y-61582500D02*
X152553500Y-61582500D01*
X152553500Y-61582500D02*
X152553500Y-84442500D01*
X152553500Y-84442500D02*
X101753500Y-84442500D01*
D18*
X146353500Y-84992500D02*
G75*
G02*
X146153500Y-84992500I-100000J0D01*
G01*
X146153500Y-84992500D02*
G75*
G02*
X146353500Y-84992500I100000J0D01*
G01*
D20*
%TO.C,J1*%
X98910000Y-56520000D02*
X98910000Y-47520000D01*
X98910000Y-47520000D02*
X113310000Y-47520000D01*
X113310000Y-56520000D02*
X112160000Y-56520000D01*
X113310000Y-47520000D02*
X113310000Y-49370000D01*
X107060000Y-56520000D02*
X98910000Y-56520000D01*
X113310000Y-54570000D02*
X113310000Y-56520000D01*
D21*
X114810000Y-52020000D02*
G75*
G02*
X114410000Y-52020000I-200000J0D01*
G01*
X114410000Y-52020000D02*
G75*
G02*
X114810000Y-52020000I200000J0D01*
G01*
%TD*%
D22*
X104000000Y-140000000D02*
G75*
G02*
X101000000Y-137000000I0J3000000D01*
G01*
X179000000Y-137000000D02*
G75*
G02*
X176000000Y-140000000I-3000000J0D01*
G01*
X101000000Y-44000000D02*
G75*
G02*
X104000000Y-41000000I3000000J0D01*
G01*
X176000000Y-41000000D02*
G75*
G02*
X179000000Y-44000000I0J-3000000D01*
G01*
X101000000Y-137000000D02*
X101000000Y-44000000D01*
X176000000Y-140000000D02*
X104000000Y-140000000D01*
X179000000Y-44000000D02*
X179000000Y-137000000D01*
X104000000Y-41000000D02*
X176000000Y-41000000D01*
X105500000Y-137000000D02*
G75*
G02*
X102500000Y-137000000I-1500000J0D01*
G01*
X102500000Y-137000000D02*
G75*
G02*
X105500000Y-137000000I1500000J0D01*
G01*
X177500000Y-137000000D02*
G75*
G02*
X174500000Y-137000000I-1500000J0D01*
G01*
X174500000Y-137000000D02*
G75*
G02*
X177500000Y-137000000I1500000J0D01*
G01*
X177500000Y-44000000D02*
G75*
G02*
X174500000Y-44000000I-1500000J0D01*
G01*
X174500000Y-44000000D02*
G75*
G02*
X177500000Y-44000000I1500000J0D01*
G01*
X105500000Y-44000000D02*
G75*
G02*
X102500000Y-44000000I-1500000J0D01*
G01*
X102500000Y-44000000D02*
G75*
G02*
X105500000Y-44000000I1500000J0D01*
G01*
M02*
