M48
; DRILL file {KiCad 9.0.4} date 2025-09-21T19:32:42-0400
; FORMAT={-:-/ absolute / metric / decimal}
; #@! TF.CreationDate,2025-09-21T19:32:42-04:00
; #@! TF.GenerationSoftware,Kicad,Pcbnew,9.0.4
; #@! TF.FileFunction,Plated,1,2,PTH
FMAT,2
METRIC
; #@! TA.AperFunction,Plated,PTH,ComponentDrill
T1C0.900
; #@! TA.AperFunction,Plated,PTH,ComponentDrill
T2C1.000
; #@! TA.AperFunction,Plated,PTH,ComponentDrill
T3C2.500
%
G90
G05
T1
X108.103Y-83.172
X110.643Y-83.172
X113.183Y-83.172
X115.724Y-83.172
X118.263Y-62.852
X118.263Y-83.172
X120.803Y-62.852
X120.803Y-83.172
X123.343Y-62.852
X123.343Y-83.172
X125.883Y-62.852
X125.883Y-83.172
X128.423Y-62.852
X128.423Y-83.172
X130.963Y-62.852
X130.963Y-83.172
X133.504Y-62.852
X133.504Y-83.172
X136.043Y-62.852
X136.043Y-83.172
X138.583Y-62.852
X138.583Y-83.172
X141.124Y-62.852
X141.124Y-83.172
X143.663Y-62.852
X143.663Y-83.172
X146.203Y-62.852
X146.203Y-83.172
T2
X106.65Y-103.0
X106.65Y-105.54
X106.65Y-108.08
X106.65Y-110.62
X106.65Y-113.16
X106.65Y-115.7
X106.65Y-118.24
X106.65Y-120.78
X106.65Y-123.32
X106.65Y-125.86
X148.87Y-69.513
X148.87Y-73.013
X148.87Y-76.513
X166.66Y-65.84
X166.66Y-68.38
X166.66Y-70.92
X166.66Y-73.46
X166.66Y-76.0
X166.66Y-78.54
X166.66Y-81.08
X169.2Y-65.84
X169.2Y-68.38
X169.2Y-70.92
X169.2Y-73.46
X169.2Y-76.0
X169.2Y-78.54
X169.2Y-81.08
X172.309Y-105.54
X172.309Y-108.08
X172.309Y-110.62
X172.309Y-113.16
X172.309Y-115.7
X172.309Y-118.24
X172.309Y-120.78
X172.309Y-123.32
T3
X104.293Y-64.123
X104.293Y-81.902
T2
G00X106.61Y-53.02
M15
G01X106.61Y-51.02
M16
G05
G00X110.61Y-56.72
M15
G01X108.61Y-56.72
M16
G05
G00X112.61Y-53.27
M15
G01X112.61Y-50.77
M16
G05
M30
