%TF.GenerationSoftware,KiCad,Pcbnew,9.0.4*%
%TF.CreationDate,2025-09-21T19:32:39-04:00*%
%TF.ProjectId,Nanopositioner_V10,4e616e6f-706f-4736-9974-696f6e65725f,rev?*%
%TF.SameCoordinates,Original*%
%TF.FileFunction,Copper,L1,Top*%
%TF.FilePolarity,Positive*%
%FSLAX46Y46*%
G04 Gerber Fmt 4.6, Leading zero omitted, Abs format (unit mm)*
G04 Created by KiCad (PCBNEW 9.0.4) date 2025-09-21 19:32:39*
%MOMM*%
%LPD*%
G01*
G04 APERTURE LIST*
%TA.AperFunction,ComponentPad*%
%ADD10C,1.700000*%
%TD*%
%TA.AperFunction,ComponentPad*%
%ADD11R,1.700000X1.700000*%
%TD*%
%TA.AperFunction,ComponentPad*%
%ADD12O,2.000000X1.651000*%
%TD*%
%TA.AperFunction,ComponentPad*%
%ADD13R,2.000000X1.651000*%
%TD*%
%TA.AperFunction,ComponentPad*%
%ADD14C,1.408000*%
%TD*%
%TA.AperFunction,ComponentPad*%
%ADD15R,1.408000X1.408000*%
%TD*%
%TA.AperFunction,ComponentPad*%
%ADD16C,3.516000*%
%TD*%
%TA.AperFunction,ComponentPad*%
%ADD17C,2.184400*%
%TD*%
%TA.AperFunction,ComponentPad*%
%ADD18O,2.500000X5.000000*%
%TD*%
%TA.AperFunction,ComponentPad*%
%ADD19O,2.250000X4.500000*%
%TD*%
%TA.AperFunction,ComponentPad*%
%ADD20O,4.500000X2.250000*%
%TD*%
%TA.AperFunction,Conductor*%
%ADD21C,0.200000*%
%TD*%
%TA.AperFunction,Profile*%
%ADD22C,0.050000*%
%TD*%
G04 APERTURE END LIST*
D10*
%TO.P,U3,14,Y-*%
%TO.N,Net-(U1-2-)*%
X169200000Y-81080000D03*
%TO.P,U3,13,Y+*%
%TO.N,Net-(U1-2+)*%
X166660000Y-81080000D03*
%TO.P,U3,12,X-*%
%TO.N,Net-(U1-1-)*%
X169200000Y-78540000D03*
%TO.P,U3,11,X+*%
%TO.N,Net-(U1-1+)*%
X166660000Y-78540000D03*
%TO.P,U3,10,3V(Y)*%
%TO.N,Net-(U2-3.3V)*%
X169200000Y-76000000D03*
%TO.P,U3,9,3V(X)*%
X166660000Y-76000000D03*
%TO.P,U3,8,CS(Y)*%
%TO.N,Net-(U2-A5{slash}PA06)*%
X169200000Y-73460000D03*
%TO.P,U3,7,CS(X)*%
%TO.N,Net-(U2-A2{slash}PB08)*%
X166660000Y-73460000D03*
%TO.P,U3,6,CLK(Y)*%
%TO.N,Net-(U2-SCK{slash}PA17)*%
X169200000Y-70920000D03*
%TO.P,U3,5,CLK(X)*%
%TO.N,Net-(U2-A3{slash}PB09)*%
X166660000Y-70920000D03*
%TO.P,U3,4,DO(Y)*%
%TO.N,Net-(U2-MOSI{slash}PB23)*%
X169200000Y-68380000D03*
%TO.P,U3,3,DO(X)*%
%TO.N,Net-(U2-A4{slash}PA04)*%
X166660000Y-68380000D03*
%TO.P,U3,2,GND(Y)*%
%TO.N,Net-(U1-OS)*%
X169200000Y-65840000D03*
D11*
%TO.P,U3,1,GND(X)*%
X166660000Y-65840000D03*
%TD*%
D12*
%TO.P,U1,16,3+*%
%TO.N,unconnected-(U1-3+-Pad16)*%
X172309000Y-110620000D03*
%TO.P,U1,15,2-*%
%TO.N,Net-(U1-2-)*%
X172309000Y-113160000D03*
D13*
%TO.P,U1,11,G*%
%TO.N,unconnected-(U1-G-Pad11)*%
X172309000Y-123320000D03*
D12*
%TO.P,U1,12,1+*%
%TO.N,Net-(U1-1+)*%
X172309000Y-120780000D03*
%TO.P,U1,14,2+*%
%TO.N,Net-(U1-2+)*%
X172309000Y-115700000D03*
%TO.P,U1,13,1-*%
%TO.N,Net-(U1-1-)*%
X172309000Y-118240000D03*
%TO.P,U1,17,3-*%
%TO.N,unconnected-(U1-3--Pad17)*%
X172309000Y-108080000D03*
%TO.P,U1,18,G*%
%TO.N,unconnected-(U1-G-Pad18)*%
X172309000Y-105540000D03*
%TO.P,U1,6,V1*%
%TO.N,Net-(U1-V1)*%
X106650000Y-115700000D03*
%TO.P,U1,5,R-*%
%TO.N,unconnected-(U1-R--Pad5)*%
X106650000Y-113160000D03*
D13*
%TO.P,U1,1,VS*%
%TO.N,Net-(U1-VS)*%
X106650000Y-103000000D03*
D12*
%TO.P,U1,2,G*%
%TO.N,Net-(J1-Pad2)*%
X106650000Y-105540000D03*
%TO.P,U1,4,R+*%
%TO.N,unconnected-(U1-R+-Pad4)*%
X106650000Y-110620000D03*
%TO.P,U1,3,EN*%
%TO.N,unconnected-(U1-EN-Pad3)*%
X106650000Y-108080000D03*
%TO.P,U1,7,V2*%
%TO.N,Net-(U1-V2)*%
X106650000Y-118240000D03*
%TO.P,U1,8,V3*%
%TO.N,unconnected-(U1-V3-Pad8)*%
X106650000Y-120780000D03*
%TO.P,U1,10,OS*%
%TO.N,Net-(U1-OS)*%
X106650000Y-125860000D03*
%TO.P,U1,9,G*%
%TO.N,unconnected-(U1-G-Pad9)*%
X106650000Y-123320000D03*
%TD*%
D14*
%TO.P,U2,16,RESET*%
%TO.N,unconnected-(U2-RESET-Pad16)*%
X108103500Y-83172500D03*
%TO.P,U2,15,3.3V*%
%TO.N,Net-(U2-3.3V)*%
X110643500Y-83172500D03*
%TO.P,U2,14,AREF*%
%TO.N,unconnected-(U2-AREF-Pad14)*%
X113183500Y-83172500D03*
%TO.P,U2,13,GND*%
%TO.N,Net-(U1-OS)*%
X115723500Y-83172500D03*
%TO.P,U2,12,A0/PA02*%
%TO.N,Net-(U1-V1)*%
X118263500Y-83172500D03*
%TO.P,U2,11,A1/PA05*%
%TO.N,Net-(U1-V2)*%
X120803500Y-83172500D03*
%TO.P,U2,10,A2/PB08*%
%TO.N,Net-(U2-A2{slash}PB08)*%
X123343500Y-83172500D03*
%TO.P,U2,9,A3/PB09*%
%TO.N,Net-(U2-A3{slash}PB09)*%
X125883500Y-83172500D03*
%TO.P,U2,8,A4/PA04*%
%TO.N,Net-(U2-A4{slash}PA04)*%
X128423500Y-83172500D03*
%TO.P,U2,7,A5/PA06*%
%TO.N,Net-(U2-A5{slash}PA06)*%
X130963500Y-83172500D03*
%TO.P,U2,6,SCK/PA17*%
%TO.N,Net-(U2-SCK{slash}PA17)*%
X133503500Y-83172500D03*
%TO.P,U2,5,MOSI/PB23*%
%TO.N,Net-(U2-MOSI{slash}PB23)*%
X136043500Y-83172500D03*
%TO.P,U2,4,MISO/PB22*%
%TO.N,unconnected-(U2-MISO{slash}PB22-Pad4)*%
X138583500Y-83172500D03*
%TO.P,U2,3,D0/PB17*%
%TO.N,unconnected-(U2-D0{slash}PB17-Pad3)*%
X141123500Y-83172500D03*
%TO.P,U2,2,D1/PB16*%
%TO.N,unconnected-(U2-D1{slash}PB16-Pad2)*%
X143663500Y-83172500D03*
D15*
%TO.P,U2,1,D4/PA14*%
%TO.N,unconnected-(U2-D4{slash}PA14-Pad1)*%
X146203500Y-83172500D03*
D14*
%TO.P,U2,17,VBAT*%
%TO.N,unconnected-(U2-VBAT-Pad17)*%
X118263500Y-62852500D03*
%TO.P,U2,18,EN*%
%TO.N,unconnected-(U2-EN-Pad18)*%
X120803500Y-62852500D03*
%TO.P,U2,19,VBUS*%
%TO.N,unconnected-(U2-VBUS-Pad19)*%
X123343500Y-62852500D03*
%TO.P,U2,20,D13/PA23*%
%TO.N,unconnected-(U2-D13{slash}PA23-Pad20)*%
X125883500Y-62852500D03*
%TO.P,U2,21,D12/PA22*%
%TO.N,unconnected-(U2-D12{slash}PA22-Pad21)*%
X128423500Y-62852500D03*
%TO.P,U2,22,D11/PA21*%
%TO.N,unconnected-(U2-D11{slash}PA21-Pad22)*%
X130963500Y-62852500D03*
%TO.P,U2,23,D10/PA20*%
%TO.N,unconnected-(U2-D10{slash}PA20-Pad23)*%
X133503500Y-62852500D03*
%TO.P,U2,24,D9/PA19*%
%TO.N,unconnected-(U2-D9{slash}PA19-Pad24)*%
X136043500Y-62852500D03*
%TO.P,U2,25,D6/PA18*%
%TO.N,unconnected-(U2-D6{slash}PA18-Pad25)*%
X138583500Y-62852500D03*
%TO.P,U2,26,D5/PA16*%
%TO.N,unconnected-(U2-D5{slash}PA16-Pad26)*%
X141123500Y-62852500D03*
%TO.P,U2,27,SCL/PA13*%
%TO.N,unconnected-(U2-SCL{slash}PA13-Pad27)*%
X143663500Y-62852500D03*
%TO.P,U2,28,SDA/PA12*%
%TO.N,unconnected-(U2-SDA{slash}PA12-Pad28)*%
X146203500Y-62852500D03*
D16*
%TO.P,U2,P1*%
%TO.N,N/C*%
X104293500Y-81902500D03*
%TO.P,U2,P2*%
X104293500Y-64122500D03*
D17*
%TO.P,U2,29,CAN_L*%
%TO.N,unconnected-(U2-CAN_L-Pad29)*%
X148870500Y-69512500D03*
%TO.P,U2,30,CAN_GND*%
%TO.N,unconnected-(U2-CAN_GND-Pad30)*%
X148870500Y-73012500D03*
%TO.P,U2,31,CAN_H*%
%TO.N,unconnected-(U2-CAN_H-Pad31)*%
X148870500Y-76512500D03*
%TD*%
D18*
%TO.P,J1,1*%
%TO.N,Net-(U1-VS)*%
X112610000Y-52020000D03*
D19*
%TO.P,J1,2*%
%TO.N,Net-(J1-Pad2)*%
X106610000Y-52020000D03*
D20*
%TO.P,J1,3*%
%TO.N,unconnected-(J1-Pad3)*%
X109610000Y-56720000D03*
%TD*%
D21*
%TO.N,Net-(U1-V2)*%
X120803500Y-83172500D02*
X113660000Y-90316000D01*
X113660000Y-90316000D02*
X113660000Y-113730000D01*
X109150000Y-118240000D02*
X106650000Y-118240000D01*
X113660000Y-113730000D02*
X109150000Y-118240000D01*
%TO.N,Net-(U1-V1)*%
X118263500Y-83172500D02*
X111950000Y-89486000D01*
X111950000Y-89486000D02*
X111950000Y-112900000D01*
X111950000Y-112900000D02*
X109150000Y-115700000D01*
X109150000Y-115700000D02*
X106650000Y-115700000D01*
%TO.N,Net-(U1-VS)*%
X106650000Y-103000000D02*
X106650000Y-79040000D01*
X106650000Y-79040000D02*
X112610000Y-73080000D01*
X112610000Y-73080000D02*
X112610000Y-52020000D01*
X106650000Y-102324010D02*
X106677010Y-102297000D01*
%TO.N,Net-(J1-Pad2)*%
X106610000Y-52020000D02*
X106610000Y-53180000D01*
X106610000Y-53180000D02*
X102234500Y-57555500D01*
X102234500Y-102734500D02*
X103265000Y-103765000D01*
X102234500Y-57555500D02*
X102234500Y-102734500D01*
X103265000Y-103765000D02*
X105040000Y-105540000D01*
X105040000Y-105540000D02*
X106650000Y-105540000D01*
%TO.N,Net-(U2-MOSI{slash}PB23)*%
X136043500Y-79326024D02*
X152949524Y-62420000D01*
%TO.N,Net-(U2-A5{slash}PA06)*%
X135271000Y-87480000D02*
X171140000Y-87480000D01*
%TO.N,Net-(U2-SCK{slash}PA17)*%
X133503500Y-77761976D02*
X150155476Y-61110000D01*
%TO.N,Net-(U2-MOSI{slash}PB23)*%
X136043500Y-83172500D02*
X136043500Y-79326024D01*
%TO.N,Net-(U2-SCK{slash}PA17)*%
X133503500Y-83172500D02*
X133503500Y-77761976D01*
%TO.N,Net-(U2-A5{slash}PA06)*%
X130963500Y-83172500D02*
X135271000Y-87480000D01*
%TO.N,Net-(U2-SCK{slash}PA17)*%
X150155476Y-61110000D02*
X172010000Y-61110000D01*
%TO.N,Net-(U2-MOSI{slash}PB23)*%
X152949524Y-62420000D02*
X169830000Y-62420000D01*
%TO.N,Net-(U2-A5{slash}PA06)*%
X172740000Y-77000000D02*
X169200000Y-73460000D01*
%TO.N,Net-(U2-SCK{slash}PA17)*%
X173500000Y-66620000D02*
X169200000Y-70920000D01*
%TO.N,Net-(U2-MOSI{slash}PB23)*%
X171440000Y-66140000D02*
X169200000Y-68380000D01*
X169830000Y-62420000D02*
X171440000Y-64030000D01*
%TO.N,Net-(U2-A5{slash}PA06)*%
X171140000Y-87480000D02*
X172740000Y-85880000D01*
%TO.N,Net-(U2-MOSI{slash}PB23)*%
X171440000Y-64030000D02*
X171440000Y-66140000D01*
%TO.N,Net-(U2-SCK{slash}PA17)*%
X172010000Y-61110000D02*
X173500000Y-62600000D01*
%TO.N,Net-(U2-A5{slash}PA06)*%
X172740000Y-85880000D02*
X172740000Y-77000000D01*
%TO.N,Net-(U2-SCK{slash}PA17)*%
X173500000Y-62600000D02*
X173500000Y-66620000D01*
%TO.N,Net-(J1-Pad2)*%
X102260000Y-102760000D02*
X103265000Y-103765000D01*
%TD*%
D22*
X104000000Y-140000000D02*
G75*
G02*
X101000000Y-137000000I0J3000000D01*
G01*
X179000000Y-137000000D02*
G75*
G02*
X176000000Y-140000000I-3000000J0D01*
G01*
X101000000Y-44000000D02*
G75*
G02*
X104000000Y-41000000I3000000J0D01*
G01*
X176000000Y-41000000D02*
G75*
G02*
X179000000Y-44000000I0J-3000000D01*
G01*
X101000000Y-137000000D02*
X101000000Y-44000000D01*
X176000000Y-140000000D02*
X104000000Y-140000000D01*
X179000000Y-44000000D02*
X179000000Y-137000000D01*
X104000000Y-41000000D02*
X176000000Y-41000000D01*
X105500000Y-137000000D02*
G75*
G02*
X102500000Y-137000000I-1500000J0D01*
G01*
X102500000Y-137000000D02*
G75*
G02*
X105500000Y-137000000I1500000J0D01*
G01*
X177500000Y-137000000D02*
G75*
G02*
X174500000Y-137000000I-1500000J0D01*
G01*
X174500000Y-137000000D02*
G75*
G02*
X177500000Y-137000000I1500000J0D01*
G01*
X177500000Y-44000000D02*
G75*
G02*
X174500000Y-44000000I-1500000J0D01*
G01*
X174500000Y-44000000D02*
G75*
G02*
X177500000Y-44000000I1500000J0D01*
G01*
X105500000Y-44000000D02*
G75*
G02*
X102500000Y-44000000I-1500000J0D01*
G01*
X102500000Y-44000000D02*
G75*
G02*
X105500000Y-44000000I1500000J0D01*
G01*
M02*
